solid solenoid_electronics_connector_2
facet normal -0.500000000000001 -0.866025403784438 0.0
outer loop
vertex -19.84375 -31.5658096714922 3.175
vertex -20.2266247658998 -31.4072177507661 0.0
vertex -19.84375 -31.5658096714922 0.0
endloop
endfacet
facet normal -0.258819045102521 -0.965925826289068 0.0
outer loop
vertex -20.2266247658998 -31.4072177507661 0.0
vertex -19.84375 -31.5658096714922 3.175
vertex -20.2266247658998 -31.4072177507661 3.175
endloop
endfacet
facet normal 0.25881904510252 0.965925826289069 0.0
outer loop
vertex -21.0483752341002 -34.4740322492339 3.175
vertex -20.6375 -34.528125 0.0
vertex -21.0483752341002 -34.4740322492339 0.0
endloop
endfacet
facet normal -6.14866582799636e-16 1.0 0.0
outer loop
vertex -20.6375 -34.528125 0.0
vertex -21.0483752341002 -34.4740322492339 3.175
vertex -20.6375 -34.528125 3.175
endloop
endfacet
facet normal -0.500000000000001 0.866025403784438 0.0
outer loop
vertex -19.84375 -34.3154403285078 3.175
vertex -19.5149679848664 -34.0631570151336 0.0
vertex -19.84375 -34.3154403285078 0.0
endloop
endfacet
facet normal -0.707106781186547 0.707106781186548 0.0
outer loop
vertex -19.5149679848664 -34.0631570151336 0.0
vertex -19.84375 -34.3154403285078 3.175
vertex -19.5149679848664 -34.0631570151336 3.175
endloop
endfacet
facet normal -0.707106781186548 -0.707106781186548 0.0
outer loop
vertex -19.5149679848664 -31.8180929848664 3.175
vertex -19.84375 -31.5658096714922 0.0
vertex -19.5149679848664 -31.8180929848664 0.0
endloop
endfacet
facet normal -0.500000000000001 -0.866025403784438 0.0
outer loop
vertex -19.84375 -31.5658096714922 0.0
vertex -19.5149679848664 -31.8180929848664 3.175
vertex -19.84375 -31.5658096714922 3.175
endloop
endfacet
facet normal -0.965925826289068 0.258819045102521 0.0
outer loop
vertex -19.1040927507661 -33.3515002341002 3.175
vertex -19.2626846714922 -33.734375 0.0
vertex -19.2626846714922 -33.734375 3.175
endloop
endfacet
facet normal -0.866025403784439 0.5 0.0
outer loop
vertex -19.2626846714922 -33.734375 0.0
vertex -19.1040927507661 -33.3515002341002 3.175
vertex -19.1040927507661 -33.3515002341002 0.0
endloop
endfacet
facet normal 0.866025403784439 -0.499999999999999 0.0
outer loop
vertex -22.0123153285078 -32.146875 0.0
vertex -22.1709072492339 -32.5297497658998 3.175
vertex -22.1709072492339 -32.5297497658998 0.0
endloop
endfacet
facet normal 0.965925826289069 -0.25881904510252 0.0
outer loop
vertex -22.1709072492339 -32.5297497658998 3.175
vertex -22.0123153285078 -32.146875 0.0
vertex -22.0123153285078 -32.146875 3.175
endloop
endfacet
facet normal 0.5 0.866025403784439 0.0
outer loop
vertex -21.43125 -34.3154403285078 3.175
vertex -21.0483752341002 -34.4740322492339 0.0
vertex -21.43125 -34.3154403285078 0.0
endloop
endfacet
facet normal 0.25881904510252 0.965925826289069 0.0
outer loop
vertex -21.0483752341002 -34.4740322492339 0.0
vertex -21.43125 -34.3154403285078 3.175
vertex -21.0483752341002 -34.4740322492339 3.175
endloop
endfacet
facet normal -0.258819045102521 0.965925826289068 0.0
outer loop
vertex -20.2266247658997 -34.4740322492339 3.175
vertex -19.84375 -34.3154403285078 0.0
vertex -20.2266247658997 -34.4740322492339 0.0
endloop
endfacet
facet normal -0.500000000000001 0.866025403784438 0.0
outer loop
vertex -19.84375 -34.3154403285078 0.0
vertex -20.2266247658997 -34.4740322492339 3.175
vertex -19.84375 -34.3154403285078 3.175
endloop
endfacet
facet normal -0.965925826289068 -0.258819045102521 0.0
outer loop
vertex -19.1040927507661 -32.5297497658998 3.175
vertex -19.05 -32.940625 0.0
vertex -19.05 -32.940625 3.175
endloop
endfacet
facet normal -1.0 0.0 0.0
outer loop
vertex -19.05 -32.940625 0.0
vertex -19.1040927507661 -32.5297497658998 3.175
vertex -19.1040927507661 -32.5297497658998 0.0
endloop
endfacet
facet normal -0.707106781186548 -0.707106781186548 0.0
outer loop
vertex -19.5149679848664 -31.8180929848664 3.175
vertex -19.2626846714922 -32.146875 0.0
vertex -19.2626846714922 -32.146875 3.175
endloop
endfacet
facet normal -0.866025403784439 -0.5 0.0
outer loop
vertex -19.2626846714922 -32.146875 0.0
vertex -19.5149679848664 -31.8180929848664 3.175
vertex -19.5149679848664 -31.8180929848664 0.0
endloop
endfacet
facet normal 1.47033313278174e-15 -1.0 0.0
outer loop
vertex -20.6375 -31.353125 3.175
vertex -21.0483752341003 -31.4072177507661 0.0
vertex -20.6375 -31.353125 0.0
endloop
endfacet
facet normal 0.258819045102521 -0.965925826289068 0.0
outer loop
vertex -21.0483752341003 -31.4072177507661 0.0
vertex -20.6375 -31.353125 3.175
vertex -21.0483752341003 -31.4072177507661 3.175
endloop
endfacet
facet normal 0.707106781186548 -0.707106781186547 0.0
outer loop
vertex -21.7600320151336 -31.8180929848664 0.0
vertex -22.0123153285078 -32.146875 3.175
vertex -22.0123153285078 -32.146875 0.0
endloop
endfacet
facet normal 0.866025403784439 -0.499999999999999 0.0
outer loop
vertex -22.0123153285078 -32.146875 3.175
vertex -21.7600320151336 -31.8180929848664 0.0
vertex -21.7600320151336 -31.8180929848664 3.175
endloop
endfacet
facet normal 0.707106781186547 0.707106781186548 0.0
outer loop
vertex -21.7600320151336 -34.0631570151336 3.175
vertex -21.43125 -34.3154403285078 0.0
vertex -21.7600320151336 -34.0631570151336 0.0
endloop
endfacet
facet normal 0.5 0.866025403784439 0.0
outer loop
vertex -21.43125 -34.3154403285078 0.0
vertex -21.7600320151336 -34.0631570151336 3.175
vertex -21.43125 -34.3154403285078 3.175
endloop
endfacet
facet normal 0.866025403784438 0.500000000000001 0.0
outer loop
vertex -22.0123153285078 -33.734375 0.0
vertex -21.7600320151336 -34.0631570151336 3.175
vertex -21.7600320151336 -34.0631570151336 0.0
endloop
endfacet
facet normal 0.707106781186547 0.707106781186548 0.0
outer loop
vertex -21.7600320151336 -34.0631570151336 3.175
vertex -22.0123153285078 -33.734375 0.0
vertex -22.0123153285078 -33.734375 3.175
endloop
endfacet
facet normal -0.258819045102521 -0.965925826289068 0.0
outer loop
vertex -20.2266247658998 -31.4072177507661 3.175
vertex -20.6375 -31.353125 0.0
vertex -20.2266247658998 -31.4072177507661 0.0
endloop
endfacet
facet normal 1.47033313278174e-15 -1.0 0.0
outer loop
vertex -20.6375 -31.353125 0.0
vertex -20.2266247658998 -31.4072177507661 3.175
vertex -20.6375 -31.353125 3.175
endloop
endfacet
facet normal -6.14866582799636e-16 1.0 0.0
outer loop
vertex -20.6375 -34.528125 3.175
vertex -20.2266247658997 -34.4740322492339 0.0
vertex -20.6375 -34.528125 0.0
endloop
endfacet
facet normal -0.258819045102521 0.965925826289068 0.0
outer loop
vertex -20.2266247658997 -34.4740322492339 0.0
vertex -20.6375 -34.528125 3.175
vertex -20.2266247658997 -34.4740322492339 3.175
endloop
endfacet
facet normal 0.5 -0.866025403784439 0.0
outer loop
vertex -21.43125 -31.5658096714922 3.175
vertex -21.7600320151336 -31.8180929848664 0.0
vertex -21.43125 -31.5658096714922 0.0
endloop
endfacet
facet normal 0.707106781186548 -0.707106781186547 0.0
outer loop
vertex -21.7600320151336 -31.8180929848664 0.0
vertex -21.43125 -31.5658096714922 3.175
vertex -21.7600320151336 -31.8180929848664 3.175
endloop
endfacet
facet normal -1.0 0.0 0.0
outer loop
vertex -16.66875 17.4625 15.875
vertex -16.66875 -38.1 7.9375
vertex -16.66875 -38.1 15.875
endloop
endfacet
facet normal -1.0 0.0 0.0
outer loop
vertex -16.66875 -38.1 7.9375
vertex -16.66875 -41.275 3.175
vertex -16.66875 -41.275 7.9375
endloop
endfacet
facet normal -1.0 0.0 0.0
outer loop
vertex -16.66875 -41.275 3.175
vertex -16.66875 -38.1 7.9375
vertex -16.66875 23.8125 3.175
endloop
endfacet
facet normal -1.0 0.0 0.0
outer loop
vertex -16.66875 23.8125 3.175
vertex -16.66875 -38.1 7.9375
vertex -16.66875 17.4625 7.9375
endloop
endfacet
facet normal -1.0 0.0 0.0
outer loop
vertex -16.66875 17.4625 7.9375
vertex -16.66875 -38.1 7.9375
vertex -16.66875 17.4625 15.875
endloop
endfacet
facet normal -1.0 0.0 0.0
outer loop
vertex -16.66875 23.8125 3.175
vertex -16.66875 17.4625 7.9375
vertex -16.66875 23.8125 7.9375
endloop
endfacet
facet normal 0.965925826289068 0.258819045102521 0.0
outer loop
vertex -22.1709072492339 -33.3515002341002 0.0
vertex -22.0123153285078 -33.734375 3.175
vertex -22.0123153285078 -33.734375 0.0
endloop
endfacet
facet normal 0.866025403784438 0.500000000000001 0.0
outer loop
vertex -22.0123153285078 -33.734375 3.175
vertex -22.1709072492339 -33.3515002341002 0.0
vertex -22.1709072492339 -33.3515002341002 3.175
endloop
endfacet
facet normal -0.866025403784439 -0.5 0.0
outer loop
vertex -19.2626846714922 -32.146875 3.175
vertex -19.1040927507661 -32.5297497658998 0.0
vertex -19.1040927507661 -32.5297497658998 3.175
endloop
endfacet
facet normal -0.965925826289068 -0.258819045102521 0.0
outer loop
vertex -19.1040927507661 -32.5297497658998 0.0
vertex -19.2626846714922 -32.146875 3.175
vertex -19.2626846714922 -32.146875 0.0
endloop
endfacet
facet normal 1.0 5.07933264051874e-16 0.0
outer loop
vertex -22.225 -32.940625 0.0
vertex -22.1709072492339 -33.3515002341002 3.175
vertex -22.1709072492339 -33.3515002341002 0.0
endloop
endfacet
facet normal 0.965925826289068 0.258819045102521 0.0
outer loop
vertex -22.1709072492339 -33.3515002341002 3.175
vertex -22.225 -32.940625 0.0
vertex -22.225 -32.940625 3.175
endloop
endfacet
facet normal 0.258819045102521 -0.965925826289068 0.0
outer loop
vertex -21.0483752341003 -31.4072177507661 3.175
vertex -21.43125 -31.5658096714922 0.0
vertex -21.0483752341003 -31.4072177507661 0.0
endloop
endfacet
facet normal 0.5 -0.866025403784439 0.0
outer loop
vertex -21.43125 -31.5658096714922 0.0
vertex -21.0483752341003 -31.4072177507661 3.175
vertex -21.43125 -31.5658096714922 3.175
endloop
endfacet
facet normal -1.0 0.0 0.0
outer loop
vertex -19.05 -32.940625 3.175
vertex -19.1040927507661 -33.3515002341002 0.0
vertex -19.1040927507661 -33.3515002341002 3.175
endloop
endfacet
facet normal -0.965925826289068 0.258819045102521 0.0
outer loop
vertex -19.1040927507661 -33.3515002341002 0.0
vertex -19.05 -32.940625 3.175
vertex -19.05 -32.940625 0.0
endloop
endfacet
facet normal 0.965925826289069 -0.25881904510252 0.0
outer loop
vertex -22.1709072492339 -32.5297497658998 0.0
vertex -22.225 -32.940625 3.175
vertex -22.225 -32.940625 0.0
endloop
endfacet
facet normal 1.0 5.07933264051874e-16 0.0
outer loop
vertex -22.225 -32.940625 3.175
vertex -22.1709072492339 -32.5297497658998 0.0
vertex -22.1709072492339 -32.5297497658998 3.175
endloop
endfacet
facet normal -0.866025403784439 0.5 0.0
outer loop
vertex -19.2626846714922 -33.734375 3.175
vertex -19.5149679848664 -34.0631570151336 0.0
vertex -19.5149679848664 -34.0631570151336 3.175
endloop
endfacet
facet normal -0.707106781186547 0.707106781186548 0.0
outer loop
vertex -19.5149679848664 -34.0631570151336 0.0
vertex -19.2626846714922 -33.734375 3.175
vertex -19.2626846714922 -33.734375 0.0
endloop
endfacet
facet normal 0.0 -1.0 0.0
outer loop
vertex 16.66875 -38.1 15.875
vertex 13.50645 -38.1 7.9375
vertex 16.66875 -38.1 7.9375
endloop
endfacet
facet normal 0.0 -1.0 0.0
outer loop
vertex 13.50645 -38.1 7.9375
vertex 16.66875 -38.1 15.875
vertex 13.50645 -38.1 15.875
endloop
endfacet
facet normal 1.0 0.0 0.0
outer loop
vertex 25.4 38.1 0.0
vertex 25.4 -41.275 3.175
vertex 25.4 -41.275 0.0
endloop
endfacet
facet normal 1.0 0.0 0.0
outer loop
vertex 25.4 -41.275 3.175
vertex 25.4 38.1 0.0
vertex 25.4 38.1 3.175
endloop
endfacet
facet normal -1.0 0.0 0.0
outer loop
vertex -25.4 38.1 3.175
vertex -25.4 -41.275 0.0
vertex -25.4 -41.275 3.175
endloop
endfacet
facet normal -1.0 0.0 0.0
outer loop
vertex -25.4 -41.275 0.0
vertex -25.4 38.1 3.175
vertex -25.4 38.1 0.0
endloop
endfacet
facet normal 0.0 1.0 0.0
outer loop
vertex -25.4 38.1 3.175
vertex 25.4 38.1 0.0
vertex -25.4 38.1 0.0
endloop
endfacet
facet normal 0.0 1.0 0.0
outer loop
vertex 25.4 38.1 0.0
vertex -25.4 38.1 3.175
vertex 25.4 38.1 3.175
endloop
endfacet
facet normal 0.0 0.0 -1.0
outer loop
vertex -25.4 38.1 0.0
vertex -22.225 32.940625 0.0
vertex -25.4 -41.275 0.0
endloop
endfacet
facet normal 0.0 0.0 -1.0
outer loop
vertex -22.225 32.940625 0.0
vertex -25.4 38.1 0.0
vertex -22.1709072492339 33.3515002341002 0.0
endloop
endfacet
facet normal 0.0 0.0 -1.0
outer loop
vertex -22.1709072492339 33.3515002341002 0.0
vertex -25.4 38.1 0.0
vertex -22.0123153285078 33.734375 0.0
endloop
endfacet
facet normal 0.0 0.0 -1.0
outer loop
vertex -22.0123153285078 33.734375 0.0
vertex -25.4 38.1 0.0
vertex -21.7600320151336 34.0631570151336 0.0
endloop
endfacet
facet normal 0.0 0.0 -1.0
outer loop
vertex -21.7600320151336 34.0631570151336 0.0
vertex -25.4 38.1 0.0
vertex -21.43125 34.3154403285078 0.0
endloop
endfacet
facet normal 0.0 0.0 -1.0
outer loop
vertex -21.43125 34.3154403285078 0.0
vertex -25.4 38.1 0.0
vertex -21.0483752341003 34.4740322492339 0.0
endloop
endfacet
facet normal 0.0 0.0 -1.0
outer loop
vertex -21.0483752341003 34.4740322492339 0.0
vertex -25.4 38.1 0.0
vertex -20.6375 34.528125 0.0
endloop
endfacet
facet normal 0.0 0.0 -1.0
outer loop
vertex -20.6375 34.528125 0.0
vertex -25.4 38.1 0.0
vertex 25.4 38.1 0.0
endloop
endfacet
facet normal 0.0 0.0 -1.0
outer loop
vertex -20.6375 34.528125 0.0
vertex 25.4 38.1 0.0
vertex -20.2266247658998 34.4740322492339 0.0
endloop
endfacet
facet normal 0.0 0.0 -1.0
outer loop
vertex -20.2266247658998 34.4740322492339 0.0
vertex 25.4 38.1 0.0
vertex -19.84375 34.3154403285078 0.0
endloop
endfacet
facet normal 0.0 0.0 -1.0
outer loop
vertex -19.84375 34.3154403285078 0.0
vertex 25.4 38.1 0.0
vertex -19.5149679848664 34.0631570151336 0.0
endloop
endfacet
facet normal 0.0 0.0 -1.0
outer loop
vertex -19.5149679848664 34.0631570151336 0.0
vertex 25.4 38.1 0.0
vertex -19.2626846714922 33.734375 0.0
endloop
endfacet
facet normal 0.0 0.0 -1.0
outer loop
vertex -19.2626846714922 33.734375 0.0
vertex 25.4 38.1 0.0
vertex -19.1040927507661 33.3515002341002 0.0
endloop
endfacet
facet normal 0.0 0.0 -1.0
outer loop
vertex -19.1040927507661 33.3515002341002 0.0
vertex 25.4 38.1 0.0
vertex -19.05 32.940625 0.0
endloop
endfacet
facet normal 0.0 0.0 -1.0
outer loop
vertex -19.05 32.940625 0.0
vertex 25.4 38.1 0.0
vertex 19.84375 34.3154403285078 0.0
endloop
endfacet
facet normal 0.0 0.0 -1.0
outer loop
vertex -19.05 32.940625 0.0
vertex 19.84375 34.3154403285078 0.0
vertex 19.5149679848664 34.0631570151336 0.0
endloop
endfacet
facet normal 0.0 0.0 -1.0
outer loop
vertex -19.05 32.940625 0.0
vertex 19.5149679848664 34.0631570151336 0.0
vertex 19.2626846714922 33.734375 0.0
endloop
endfacet
facet normal 0.0 0.0 -1.0
outer loop
vertex -19.05 32.940625 0.0
vertex 19.2626846714922 33.734375 0.0
vertex -19.05 -32.940625 0.0
endloop
endfacet
facet normal 0.0 0.0 -1.0
outer loop
vertex -19.05 -32.940625 0.0
vertex 19.2626846714922 33.734375 0.0
vertex 19.1040927507661 33.3515002341002 0.0
endloop
endfacet
facet normal 0.0 0.0 -1.0
outer loop
vertex -19.05 -32.940625 0.0
vertex 19.1040927507661 33.3515002341002 0.0
vertex 19.05 32.940625 0.0
endloop
endfacet
facet normal 0.0 0.0 -1.0
outer loop
vertex 19.84375 34.3154403285078 0.0
vertex 25.4 38.1 0.0
vertex 20.2266247658998 34.4740322492339 0.0
endloop
endfacet
facet normal 0.0 0.0 -1.0
outer loop
vertex 20.2266247658998 34.4740322492339 0.0
vertex 25.4 38.1 0.0
vertex 20.6375 34.528125 0.0
endloop
endfacet
facet normal 0.0 0.0 -1.0
outer loop
vertex 20.6375 34.528125 0.0
vertex 25.4 38.1 0.0
vertex 21.0483752341002 34.4740322492339 0.0
endloop
endfacet
facet normal 0.0 0.0 -1.0
outer loop
vertex 21.0483752341002 34.4740322492339 0.0
vertex 25.4 38.1 0.0
vertex 21.43125 34.3154403285078 0.0
endloop
endfacet
facet normal 0.0 0.0 -1.0
outer loop
vertex 21.43125 34.3154403285078 0.0
vertex 25.4 38.1 0.0
vertex 21.7600320151336 34.0631570151336 0.0
endloop
endfacet
facet normal 0.0 0.0 -1.0
outer loop
vertex 21.7600320151336 34.0631570151336 0.0
vertex 25.4 38.1 0.0
vertex 22.0123153285078 33.734375 0.0
endloop
endfacet
facet normal 0.0 0.0 -1.0
outer loop
vertex 22.0123153285078 33.734375 0.0
vertex 25.4 38.1 0.0
vertex 22.1709072492339 33.3515002341002 0.0
endloop
endfacet
facet normal 0.0 0.0 -1.0
outer loop
vertex 22.1709072492339 33.3515002341002 0.0
vertex 25.4 38.1 0.0
vertex 22.225 32.940625 0.0
endloop
endfacet
facet normal 0.0 0.0 -1.0
outer loop
vertex 22.225 32.940625 0.0
vertex 25.4 38.1 0.0
vertex 22.225 -32.940625 0.0
endloop
endfacet
facet normal 0.0 0.0 -1.0
outer loop
vertex -25.4 -41.275 0.0
vertex -21.0483752341002 -34.4740322492339 0.0
vertex 25.4 -41.275 0.0
endloop
endfacet
facet normal 0.0 0.0 -1.0
outer loop
vertex -21.0483752341002 -34.4740322492339 0.0
vertex -25.4 -41.275 0.0
vertex -21.43125 -34.3154403285078 0.0
endloop
endfacet
facet normal 0.0 0.0 -1.0
outer loop
vertex -21.43125 -34.3154403285078 0.0
vertex -25.4 -41.275 0.0
vertex -21.7600320151336 -34.0631570151336 0.0
endloop
endfacet
facet normal 0.0 0.0 -1.0
outer loop
vertex -21.7600320151336 -34.0631570151336 0.0
vertex -25.4 -41.275 0.0
vertex -22.0123153285078 -33.734375 0.0
endloop
endfacet
facet normal 0.0 0.0 -1.0
outer loop
vertex -22.0123153285078 -33.734375 0.0
vertex -25.4 -41.275 0.0
vertex -22.1709072492339 -33.3515002341002 0.0
endloop
endfacet
facet normal 0.0 0.0 -1.0
outer loop
vertex -22.1709072492339 -33.3515002341002 0.0
vertex -25.4 -41.275 0.0
vertex -22.225 -32.940625 0.0
endloop
endfacet
facet normal 0.0 0.0 -1.0
outer loop
vertex -22.225 -32.940625 0.0
vertex -25.4 -41.275 0.0
vertex -22.225 32.940625 0.0
endloop
endfacet
facet normal 0.0 0.0 -1.0
outer loop
vertex 25.4 -41.275 0.0
vertex -21.0483752341002 -34.4740322492339 0.0
vertex -20.6375 -34.528125 0.0
endloop
endfacet
facet normal 0.0 0.0 -1.0
outer loop
vertex 25.4 -41.275 0.0
vertex -20.6375 -34.528125 0.0
vertex -20.2266247658997 -34.4740322492339 0.0
endloop
endfacet
facet normal 0.0 0.0 -1.0
outer loop
vertex 25.4 -41.275 0.0
vertex -20.2266247658997 -34.4740322492339 0.0
vertex -19.84375 -34.3154403285078 0.0
endloop
endfacet
facet normal 0.0 0.0 -1.0
outer loop
vertex 25.4 -41.275 0.0
vertex -19.84375 -34.3154403285078 0.0
vertex -19.5149679848664 -34.0631570151336 0.0
endloop
endfacet
facet normal 0.0 0.0 -1.0
outer loop
vertex 25.4 -41.275 0.0
vertex -19.5149679848664 -34.0631570151336 0.0
vertex -19.2626846714922 -33.734375 0.0
endloop
endfacet
facet normal 0.0 0.0 -1.0
outer loop
vertex 25.4 -41.275 0.0
vertex -19.2626846714922 -33.734375 0.0
vertex -19.1040927507661 -33.3515002341002 0.0
endloop
endfacet
facet normal 0.0 0.0 -1.0
outer loop
vertex 25.4 -41.275 0.0
vertex -19.1040927507661 -33.3515002341002 0.0
vertex -19.05 -32.940625 0.0
endloop
endfacet
facet normal 0.0 0.0 -1.0
outer loop
vertex 25.4 -41.275 0.0
vertex -19.05 -32.940625 0.0
vertex 19.5149679848664 -34.0631570151336 0.0
endloop
endfacet
facet normal 0.0 0.0 -1.0
outer loop
vertex 19.5149679848664 -34.0631570151336 0.0
vertex -19.05 -32.940625 0.0
vertex 19.2626846714922 -33.734375 0.0
endloop
endfacet
facet normal 0.0 0.0 -1.0
outer loop
vertex 19.2626846714922 -33.734375 0.0
vertex -19.05 -32.940625 0.0
vertex 19.1040927507661 -33.3515002341002 0.0
endloop
endfacet
facet normal 0.0 0.0 -1.0
outer loop
vertex 19.1040927507661 -33.3515002341002 0.0
vertex -19.05 -32.940625 0.0
vertex 19.05 -32.940625 0.0
endloop
endfacet
facet normal 0.0 0.0 -1.0
outer loop
vertex 19.05 -32.940625 0.0
vertex -19.05 -32.940625 0.0
vertex 19.05 32.940625 0.0
endloop
endfacet
facet normal 0.0 0.0 -1.0
outer loop
vertex 25.4 -41.275 0.0
vertex 19.5149679848664 -34.0631570151336 0.0
vertex 19.84375 -34.3154403285078 0.0
endloop
endfacet
facet normal 0.0 0.0 -1.0
outer loop
vertex 25.4 -41.275 0.0
vertex 19.84375 -34.3154403285078 0.0
vertex 20.2266247658998 -34.4740322492339 0.0
endloop
endfacet
facet normal 0.0 0.0 -1.0
outer loop
vertex 25.4 -41.275 0.0
vertex 20.2266247658998 -34.4740322492339 0.0
vertex 20.6375 -34.528125 0.0
endloop
endfacet
facet normal 0.0 0.0 -1.0
outer loop
vertex 25.4 -41.275 0.0
vertex 20.6375 -34.528125 0.0
vertex 21.0483752341002 -34.4740322492339 0.0
endloop
endfacet
facet normal 0.0 0.0 -1.0
outer loop
vertex 25.4 -41.275 0.0
vertex 21.0483752341002 -34.4740322492339 0.0
vertex 21.43125 -34.3154403285078 0.0
endloop
endfacet
facet normal 0.0 0.0 -1.0
outer loop
vertex 25.4 -41.275 0.0
vertex 21.43125 -34.3154403285078 0.0
vertex 21.7600320151336 -34.0631570151336 0.0
endloop
endfacet
facet normal 0.0 0.0 -1.0
outer loop
vertex 25.4 -41.275 0.0
vertex 21.7600320151336 -34.0631570151336 0.0
vertex 22.0123153285078 -33.734375 0.0
endloop
endfacet
facet normal 0.0 0.0 -1.0
outer loop
vertex 25.4 -41.275 0.0
vertex 22.0123153285078 -33.734375 0.0
vertex 22.1709072492339 -33.3515002341002 0.0
endloop
endfacet
facet normal 0.0 0.0 -1.0
outer loop
vertex 25.4 -41.275 0.0
vertex 22.1709072492339 -33.3515002341002 0.0
vertex 22.225 -32.940625 0.0
endloop
endfacet
facet normal 0.0 0.0 -1.0
outer loop
vertex 25.4 -41.275 0.0
vertex 22.225 -32.940625 0.0
vertex 25.4 38.1 0.0
endloop
endfacet
facet normal 0.0 0.0 -1.0
outer loop
vertex 19.1040927507661 32.5297497658998 0.0
vertex 19.05 -32.940625 0.0
vertex 19.05 32.940625 0.0
endloop
endfacet
facet normal 0.0 0.0 -1.0
outer loop
vertex 19.05 -32.940625 0.0
vertex 19.1040927507661 32.5297497658998 0.0
vertex 19.1040927507661 -32.5297497658998 0.0
endloop
endfacet
facet normal 0.0 0.0 -1.0
outer loop
vertex 19.1040927507661 -32.5297497658998 0.0
vertex 19.1040927507661 32.5297497658998 0.0
vertex 19.2626846714922 32.146875 0.0
endloop
endfacet
facet normal 0.0 0.0 -1.0
outer loop
vertex 19.1040927507661 -32.5297497658998 0.0
vertex 19.2626846714922 32.146875 0.0
vertex 19.2626846714922 -32.146875 0.0
endloop
endfacet
facet normal 0.0 0.0 -1.0
outer loop
vertex 19.2626846714922 -32.146875 0.0
vertex 19.2626846714922 32.146875 0.0
vertex 19.5149679848664 31.8180929848664 0.0
endloop
endfacet
facet normal 0.0 0.0 -1.0
outer loop
vertex 19.2626846714922 -32.146875 0.0
vertex 19.5149679848664 31.8180929848664 0.0
vertex 19.5149679848664 -31.8180929848664 0.0
endloop
endfacet
facet normal 0.0 0.0 -1.0
outer loop
vertex 19.5149679848664 -31.8180929848664 0.0
vertex 19.5149679848664 31.8180929848664 0.0
vertex 19.84375 31.5658096714922 0.0
endloop
endfacet
facet normal 0.0 0.0 -1.0
outer loop
vertex 19.5149679848664 -31.8180929848664 0.0
vertex 19.84375 31.5658096714922 0.0
vertex 19.84375 -31.5658096714922 0.0
endloop
endfacet
facet normal 0.0 0.0 -1.0
outer loop
vertex 19.84375 -31.5658096714922 0.0
vertex 19.84375 31.5658096714922 0.0
vertex 20.2266247658998 31.4072177507661 0.0
endloop
endfacet
facet normal 0.0 0.0 -1.0
outer loop
vertex 19.84375 -31.5658096714922 0.0
vertex 20.2266247658998 31.4072177507661 0.0
vertex 20.2266247658998 -31.4072177507661 0.0
endloop
endfacet
facet normal 0.0 0.0 -1.0
outer loop
vertex 20.2266247658998 -31.4072177507661 0.0
vertex 20.2266247658998 31.4072177507661 0.0
vertex 20.6375 31.353125 0.0
endloop
endfacet
facet normal 0.0 0.0 -1.0
outer loop
vertex 20.2266247658998 -31.4072177507661 0.0
vertex 20.6375 31.353125 0.0
vertex 20.6375 -31.353125 0.0
endloop
endfacet
facet normal 0.0 0.0 -1.0
outer loop
vertex 20.6375 -31.353125 0.0
vertex 20.6375 31.353125 0.0
vertex 21.0483752341002 31.4072177507661 0.0
endloop
endfacet
facet normal 0.0 0.0 -1.0
outer loop
vertex 20.6375 -31.353125 0.0
vertex 21.0483752341002 31.4072177507661 0.0
vertex 21.0483752341002 -31.4072177507661 0.0
endloop
endfacet
facet normal 0.0 0.0 -1.0
outer loop
vertex 21.0483752341002 -31.4072177507661 0.0
vertex 21.0483752341002 31.4072177507661 0.0
vertex 21.43125 31.5658096714922 0.0
endloop
endfacet
facet normal 0.0 0.0 -1.0
outer loop
vertex 21.0483752341002 -31.4072177507661 0.0
vertex 21.43125 31.5658096714922 0.0
vertex 21.43125 -31.5658096714922 0.0
endloop
endfacet
facet normal 0.0 0.0 -1.0
outer loop
vertex 21.43125 -31.5658096714922 0.0
vertex 21.43125 31.5658096714922 0.0
vertex 21.7600320151336 31.8180929848664 0.0
endloop
endfacet
facet normal 0.0 0.0 -1.0
outer loop
vertex 21.43125 -31.5658096714922 0.0
vertex 21.7600320151336 31.8180929848664 0.0
vertex 21.7600320151336 -31.8180929848664 0.0
endloop
endfacet
facet normal 0.0 0.0 -1.0
outer loop
vertex 21.7600320151336 -31.8180929848664 0.0
vertex 21.7600320151336 31.8180929848664 0.0
vertex 22.0123153285078 32.146875 0.0
endloop
endfacet
facet normal 0.0 0.0 -1.0
outer loop
vertex 21.7600320151336 -31.8180929848664 0.0
vertex 22.0123153285078 32.146875 0.0
vertex 22.0123153285078 -32.146875 0.0
endloop
endfacet
facet normal 0.0 0.0 -1.0
outer loop
vertex 22.0123153285078 -32.146875 0.0
vertex 22.0123153285078 32.146875 0.0
vertex 22.1709072492339 32.5297497658998 0.0
endloop
endfacet
facet normal 0.0 0.0 -1.0
outer loop
vertex 22.0123153285078 -32.146875 0.0
vertex 22.1709072492339 32.5297497658998 0.0
vertex 22.1709072492339 -32.5297497658998 0.0
endloop
endfacet
facet normal 0.0 0.0 -1.0
outer loop
vertex 22.1709072492339 -32.5297497658998 0.0
vertex 22.1709072492339 32.5297497658998 0.0
vertex 22.225 32.940625 0.0
endloop
endfacet
facet normal 0.0 0.0 -1.0
outer loop
vertex 22.1709072492339 -32.5297497658998 0.0
vertex 22.225 32.940625 0.0
vertex 22.225 -32.940625 0.0
endloop
endfacet
facet normal 0.0 0.0 -1.0
outer loop
vertex -22.1709072492339 32.5297497658998 0.0
vertex -22.225 -32.940625 0.0
vertex -22.225 32.940625 0.0
endloop
endfacet
facet normal 0.0 0.0 -1.0
outer loop
vertex -22.225 -32.940625 0.0
vertex -22.1709072492339 32.5297497658998 0.0
vertex -22.1709072492339 -32.5297497658998 0.0
endloop
endfacet
facet normal 0.0 0.0 -1.0
outer loop
vertex -22.1709072492339 -32.5297497658998 0.0
vertex -22.1709072492339 32.5297497658998 0.0
vertex -22.0123153285078 -32.146875 0.0
endloop
endfacet
facet normal 0.0 0.0 -1.0
outer loop
vertex -22.0123153285078 -32.146875 0.0
vertex -22.1709072492339 32.5297497658998 0.0
vertex -22.0123153285078 32.146875 0.0
endloop
endfacet
facet normal 0.0 0.0 -1.0
outer loop
vertex -22.0123153285078 -32.146875 0.0
vertex -22.0123153285078 32.146875 0.0
vertex -21.7600320151336 -31.8180929848664 0.0
endloop
endfacet
facet normal 0.0 0.0 -1.0
outer loop
vertex -21.7600320151336 -31.8180929848664 0.0
vertex -22.0123153285078 32.146875 0.0
vertex -21.7600320151336 31.8180929848664 0.0
endloop
endfacet
facet normal 0.0 0.0 -1.0
outer loop
vertex -21.7600320151336 -31.8180929848664 0.0
vertex -21.7600320151336 31.8180929848664 0.0
vertex -21.43125 31.5658096714922 0.0
endloop
endfacet
facet normal 0.0 0.0 -1.0
outer loop
vertex -21.7600320151336 -31.8180929848664 0.0
vertex -21.43125 31.5658096714922 0.0
vertex -21.43125 -31.5658096714922 0.0
endloop
endfacet
facet normal 0.0 0.0 -1.0
outer loop
vertex -21.43125 -31.5658096714922 0.0
vertex -21.43125 31.5658096714922 0.0
vertex -21.0483752341002 31.4072177507661 0.0
endloop
endfacet
facet normal 0.0 0.0 -1.0
outer loop
vertex -21.43125 -31.5658096714922 0.0
vertex -21.0483752341002 31.4072177507661 0.0
vertex -21.0483752341003 -31.4072177507661 0.0
endloop
endfacet
facet normal 0.0 0.0 -1.0
outer loop
vertex -21.0483752341003 -31.4072177507661 0.0
vertex -21.0483752341002 31.4072177507661 0.0
vertex -20.6375 -31.353125 0.0
endloop
endfacet
facet normal 0.0 0.0 -1.0
outer loop
vertex -20.6375 -31.353125 0.0
vertex -21.0483752341002 31.4072177507661 0.0
vertex -20.6375 31.353125 0.0
endloop
endfacet
facet normal 0.0 0.0 -1.0
outer loop
vertex -20.6375 -31.353125 0.0
vertex -20.6375 31.353125 0.0
vertex -20.2266247658997 31.4072177507661 0.0
endloop
endfacet
facet normal 0.0 0.0 -1.0
outer loop
vertex -20.6375 -31.353125 0.0
vertex -20.2266247658997 31.4072177507661 0.0
vertex -20.2266247658998 -31.4072177507661 0.0
endloop
endfacet
facet normal 0.0 0.0 -1.0
outer loop
vertex -20.2266247658998 -31.4072177507661 0.0
vertex -20.2266247658997 31.4072177507661 0.0
vertex -19.84375 -31.5658096714922 0.0
endloop
endfacet
facet normal 0.0 0.0 -1.0
outer loop
vertex -19.84375 -31.5658096714922 0.0
vertex -20.2266247658997 31.4072177507661 0.0
vertex -19.84375 31.5658096714922 0.0
endloop
endfacet
facet normal 0.0 0.0 -1.0
outer loop
vertex -19.84375 -31.5658096714922 0.0
vertex -19.84375 31.5658096714922 0.0
vertex -19.5149679848664 31.8180929848664 0.0
endloop
endfacet
facet normal 0.0 0.0 -1.0
outer loop
vertex -19.84375 -31.5658096714922 0.0
vertex -19.5149679848664 31.8180929848664 0.0
vertex -19.5149679848664 -31.8180929848664 0.0
endloop
endfacet
facet normal 0.0 0.0 -1.0
outer loop
vertex -19.5149679848664 -31.8180929848664 0.0
vertex -19.5149679848664 31.8180929848664 0.0
vertex -19.2626846714922 32.146875 0.0
endloop
endfacet
facet normal 0.0 0.0 -1.0
outer loop
vertex -19.5149679848664 -31.8180929848664 0.0
vertex -19.2626846714922 32.146875 0.0
vertex -19.2626846714922 -32.146875 0.0
endloop
endfacet
facet normal 0.0 0.0 -1.0
outer loop
vertex -19.2626846714922 -32.146875 0.0
vertex -19.2626846714922 32.146875 0.0
vertex -19.1040927507661 -32.5297497658998 0.0
endloop
endfacet
facet normal 0.0 0.0 -1.0
outer loop
vertex -19.1040927507661 -32.5297497658998 0.0
vertex -19.2626846714922 32.146875 0.0
vertex -19.1040927507661 32.5297497658998 0.0
endloop
endfacet
facet normal 0.0 0.0 -1.0
outer loop
vertex -19.1040927507661 -32.5297497658998 0.0
vertex -19.1040927507661 32.5297497658998 0.0
vertex -19.05 -32.940625 0.0
endloop
endfacet
facet normal 0.0 0.0 -1.0
outer loop
vertex -19.05 -32.940625 0.0
vertex -19.1040927507661 32.5297497658998 0.0
vertex -19.05 32.940625 0.0
endloop
endfacet
facet normal 0.707106781186549 -0.707106781186546 0.0
outer loop
vertex 19.5149679848664 -31.8180929848664 0.0
vertex 19.2626846714922 -32.146875 3.175
vertex 19.2626846714922 -32.146875 0.0
endloop
endfacet
facet normal 0.866025403784437 -0.500000000000004 0.0
outer loop
vertex 19.2626846714922 -32.146875 3.175
vertex 19.5149679848664 -31.8180929848664 0.0
vertex 19.5149679848664 -31.8180929848664 3.175
endloop
endfacet
facet normal -0.499999999999999 0.86602540378444 0.0
outer loop
vertex 21.43125 31.5658096714922 3.175
vertex 21.7600320151336 31.8180929848664 0.0
vertex 21.43125 31.5658096714922 0.0
endloop
endfacet
facet normal -0.707106781186551 0.707106781186544 0.0
outer loop
vertex 21.7600320151336 31.8180929848664 0.0
vertex 21.43125 31.5658096714922 3.175
vertex 21.7600320151336 31.8180929848664 3.175
endloop
endfacet
facet normal -0.866025403784438 -0.500000000000001 0.0
outer loop
vertex -19.2626846714922 33.734375 3.175
vertex -19.1040927507661 33.3515002341002 0.0
vertex -19.1040927507661 33.3515002341002 3.175
endloop
endfacet
facet normal -0.965925826289068 -0.258819045102521 0.0
outer loop
vertex -19.1040927507661 33.3515002341002 0.0
vertex -19.2626846714922 33.734375 3.175
vertex -19.2626846714922 33.734375 0.0
endloop
endfacet
facet normal -0.866025403784436 0.500000000000004 0.0
outer loop
vertex 22.0123153285078 -33.734375 3.175
vertex 21.7600320151336 -34.0631570151336 0.0
vertex 21.7600320151336 -34.0631570151336 3.175
endloop
endfacet
facet normal -0.707106781186548 0.707106781186547 0.0
outer loop
vertex 21.7600320151336 -34.0631570151336 0.0
vertex 22.0123153285078 -33.734375 3.175
vertex 22.0123153285078 -33.734375 0.0
endloop
endfacet
facet normal 0.866025403784436 -0.500000000000005 0.0
outer loop
vertex 19.2626846714922 33.734375 0.0
vertex 19.1040927507661 33.3515002341002 3.175
vertex 19.1040927507661 33.3515002341002 0.0
endloop
endfacet
facet normal 0.965925826289068 -0.258819045102522 0.0
outer loop
vertex 19.1040927507661 33.3515002341002 3.175
vertex 19.2626846714922 33.734375 0.0
vertex 19.2626846714922 33.734375 3.175
endloop
endfacet
facet normal -0.965925826289068 -0.258819045102523 0.0
outer loop
vertex 22.1709072492339 -32.5297497658998 3.175
vertex 22.225 -32.940625 0.0
vertex 22.225 -32.940625 3.175
endloop
endfacet
facet normal -1.0 0.0 0.0
outer loop
vertex 22.225 -32.940625 0.0
vertex 22.1709072492339 -32.5297497658998 3.175
vertex 22.1709072492339 -32.5297497658998 0.0
endloop
endfacet
facet normal -0.866025403784436 -0.500000000000004 0.0
outer loop
vertex 22.0123153285078 -32.146875 3.175
vertex 22.1709072492339 -32.5297497658998 0.0
vertex 22.1709072492339 -32.5297497658998 3.175
endloop
endfacet
facet normal -0.965925826289068 -0.258819045102523 0.0
outer loop
vertex 22.1709072492339 -32.5297497658998 0.0
vertex 22.0123153285078 -32.146875 3.175
vertex 22.0123153285078 -32.146875 0.0
endloop
endfacet
facet normal 0.707106781186551 -0.707106781186544 0.0
outer loop
vertex 19.5149679848664 34.0631570151336 0.0
vertex 19.2626846714922 33.734375 3.175
vertex 19.2626846714922 33.734375 0.0
endloop
endfacet
facet normal 0.866025403784436 -0.500000000000005 0.0
outer loop
vertex 19.2626846714922 33.734375 3.175
vertex 19.5149679848664 34.0631570151336 0.0
vertex 19.5149679848664 34.0631570151336 3.175
endloop
endfacet
facet normal 0.499999999999999 -0.86602540378444 0.0
outer loop
vertex 19.84375 34.3154403285078 3.175
vertex 19.5149679848664 34.0631570151336 0.0
vertex 19.84375 34.3154403285078 0.0
endloop
endfacet
facet normal 0.707106781186551 -0.707106781186544 0.0
outer loop
vertex 19.5149679848664 34.0631570151336 0.0
vertex 19.84375 34.3154403285078 3.175
vertex 19.5149679848664 34.0631570151336 3.175
endloop
endfacet
facet normal -1.0 0.0 0.0
outer loop
vertex 22.225 -32.940625 3.175
vertex 22.1709072492339 -33.3515002341002 0.0
vertex 22.1709072492339 -33.3515002341002 3.175
endloop
endfacet
facet normal -0.965925826289068 0.258819045102523 0.0
outer loop
vertex 22.1709072492339 -33.3515002341002 0.0
vertex 22.225 -32.940625 3.175
vertex 22.225 -32.940625 0.0
endloop
endfacet
facet normal -0.965925826289068 0.258819045102523 0.0
outer loop
vertex 22.1709072492339 -33.3515002341002 3.175
vertex 22.0123153285078 -33.734375 0.0
vertex 22.0123153285078 -33.734375 3.175
endloop
endfacet
facet normal -0.866025403784436 0.500000000000004 0.0
outer loop
vertex 22.0123153285078 -33.734375 0.0
vertex 22.1709072492339 -33.3515002341002 3.175
vertex 22.1709072492339 -33.3515002341002 0.0
endloop
endfacet
facet normal 0.5 -0.866025403784439 0.0
outer loop
vertex 19.84375 -31.5658096714922 3.175
vertex 19.5149679848664 -31.8180929848664 0.0
vertex 19.84375 -31.5658096714922 0.0
endloop
endfacet
facet normal 0.707106781186549 -0.707106781186546 0.0
outer loop
vertex 19.5149679848664 -31.8180929848664 0.0
vertex 19.84375 -31.5658096714922 3.175
vertex 19.5149679848664 -31.8180929848664 3.175
endloop
endfacet
facet normal 0.707106781186548 0.707106781186547 0.0
outer loop
vertex 19.5149679848664 -34.0631570151336 3.175
vertex 19.84375 -34.3154403285078 0.0
vertex 19.5149679848664 -34.0631570151336 0.0
endloop
endfacet
facet normal 0.500000000000001 0.866025403784438 0.0
outer loop
vertex 19.84375 -34.3154403285078 0.0
vertex 19.5149679848664 -34.0631570151336 3.175
vertex 19.84375 -34.3154403285078 3.175
endloop
endfacet
facet normal 0.866025403784437 -0.500000000000004 0.0
outer loop
vertex 19.2626846714922 -32.146875 0.0
vertex 19.1040927507661 -32.5297497658998 3.175
vertex 19.1040927507661 -32.5297497658998 0.0
endloop
endfacet
facet normal 0.965925826289068 -0.258819045102523 0.0
outer loop
vertex 19.1040927507661 -32.5297497658998 3.175
vertex 19.2626846714922 -32.146875 0.0
vertex 19.2626846714922 -32.146875 3.175
endloop
endfacet
facet normal 0.258819045102521 -0.965925826289068 0.0
outer loop
vertex 20.2266247658998 -31.4072177507661 3.175
vertex 19.84375 -31.5658096714922 0.0
vertex 20.2266247658998 -31.4072177507661 0.0
endloop
endfacet
facet normal 0.5 -0.866025403784439 0.0
outer loop
vertex 19.84375 -31.5658096714922 0.0
vertex 20.2266247658998 -31.4072177507661 3.175
vertex 19.84375 -31.5658096714922 3.175
endloop
endfacet
facet normal 0.866025403784436 0.500000000000004 0.0
outer loop
vertex 19.2626846714922 -33.734375 0.0
vertex 19.5149679848664 -34.0631570151336 3.175
vertex 19.5149679848664 -34.0631570151336 0.0
endloop
endfacet
facet normal 0.707106781186548 0.707106781186547 0.0
outer loop
vertex 19.5149679848664 -34.0631570151336 3.175
vertex 19.2626846714922 -33.734375 0.0
vertex 19.2626846714922 -33.734375 3.175
endloop
endfacet
facet normal 0.965925826289068 0.258819045102523 0.0
outer loop
vertex 19.1040927507661 -33.3515002341002 0.0
vertex 19.2626846714922 -33.734375 3.175
vertex 19.2626846714922 -33.734375 0.0
endloop
endfacet
facet normal 0.866025403784436 0.500000000000004 0.0
outer loop
vertex 19.2626846714922 -33.734375 3.175
vertex 19.1040927507661 -33.3515002341002 0.0
vertex 19.1040927507661 -33.3515002341002 3.175
endloop
endfacet
facet normal -0.258819045102517 -0.965925826289069 0.0
outer loop
vertex 21.0483752341002 34.4740322492339 3.175
vertex 20.6375 34.528125 0.0
vertex 21.0483752341002 34.4740322492339 0.0
endloop
endfacet
facet normal 0.0 -1.0 0.0
outer loop
vertex 20.6375 34.528125 0.0
vertex 21.0483752341002 34.4740322492339 3.175
vertex 20.6375 34.528125 3.175
endloop
endfacet
facet normal 0.0 -1.0 0.0
outer loop
vertex 20.6375 34.528125 3.175
vertex 20.2266247658998 34.4740322492339 0.0
vertex 20.6375 34.528125 0.0
endloop
endfacet
facet normal 0.258819045102517 -0.965925826289069 0.0
outer loop
vertex 20.2266247658998 34.4740322492339 0.0
vertex 20.6375 34.528125 3.175
vertex 20.2266247658998 34.4740322492339 3.175
endloop
endfacet
facet normal 0.258819045102517 -0.965925826289069 0.0
outer loop
vertex 20.2266247658998 34.4740322492339 3.175
vertex 19.84375 34.3154403285078 0.0
vertex 20.2266247658998 34.4740322492339 0.0
endloop
endfacet
facet normal 0.499999999999999 -0.86602540378444 0.0
outer loop
vertex 19.84375 34.3154403285078 0.0
vertex 20.2266247658998 34.4740322492339 3.175
vertex 19.84375 34.3154403285078 3.175
endloop
endfacet
facet normal -0.707106781186548 -0.707106781186547 0.0
outer loop
vertex 21.7600320151336 -31.8180929848664 3.175
vertex 22.0123153285078 -32.146875 0.0
vertex 22.0123153285078 -32.146875 3.175
endloop
endfacet
facet normal -0.866025403784436 -0.500000000000004 0.0
outer loop
vertex 22.0123153285078 -32.146875 0.0
vertex 21.7600320151336 -31.8180929848664 3.175
vertex 21.7600320151336 -31.8180929848664 0.0
endloop
endfacet
facet normal 0.500000000000001 0.866025403784438 0.0
outer loop
vertex 19.84375 -34.3154403285078 3.175
vertex 20.2266247658998 -34.4740322492339 0.0
vertex 19.84375 -34.3154403285078 0.0
endloop
endfacet
facet normal 0.25881904510252 0.965925826289069 0.0
outer loop
vertex 20.2266247658998 -34.4740322492339 0.0
vertex 19.84375 -34.3154403285078 3.175
vertex 20.2266247658998 -34.4740322492339 3.175
endloop
endfacet
facet normal 1.0 -3.29711066138935e-16 0.0
outer loop
vertex 19.05 -32.940625 0.0
vertex 19.1040927507661 -33.3515002341002 3.175
vertex 19.1040927507661 -33.3515002341002 0.0
endloop
endfacet
facet normal 0.965925826289068 0.258819045102523 0.0
outer loop
vertex 19.1040927507661 -33.3515002341002 3.175
vertex 19.05 -32.940625 0.0
vertex 19.05 -32.940625 3.175
endloop
endfacet
facet normal -0.707106781186551 -0.707106781186544 0.0
outer loop
vertex 21.7600320151336 34.0631570151336 3.175
vertex 22.0123153285078 33.734375 0.0
vertex 22.0123153285078 33.734375 3.175
endloop
endfacet
facet normal -0.866025403784436 -0.500000000000005 0.0
outer loop
vertex 22.0123153285078 33.734375 0.0
vertex 21.7600320151336 34.0631570151336 3.175
vertex 21.7600320151336 34.0631570151336 0.0
endloop
endfacet
facet normal -0.866025403784436 -0.500000000000005 0.0
outer loop
vertex 22.0123153285078 33.734375 3.175
vertex 22.1709072492339 33.3515002341002 0.0
vertex 22.1709072492339 33.3515002341002 3.175
endloop
endfacet
facet normal -0.965925826289068 -0.258819045102522 0.0
outer loop
vertex 22.1709072492339 33.3515002341002 0.0
vertex 22.0123153285078 33.734375 3.175
vertex 22.0123153285078 33.734375 0.0
endloop
endfacet
facet normal -0.965925826289068 -0.258819045102522 0.0
outer loop
vertex 22.1709072492339 33.3515002341002 3.175
vertex 22.225 32.940625 0.0
vertex 22.225 32.940625 3.175
endloop
endfacet
facet normal -1.0 0.0 0.0
outer loop
vertex 22.225 32.940625 0.0
vertex 22.1709072492339 33.3515002341002 3.175
vertex 22.1709072492339 33.3515002341002 0.0
endloop
endfacet
facet normal -0.499999999999999 -0.86602540378444 0.0
outer loop
vertex 21.43125 34.3154403285078 3.175
vertex 21.0483752341002 34.4740322492339 0.0
vertex 21.43125 34.3154403285078 0.0
endloop
endfacet
facet normal -0.258819045102517 -0.965925826289069 0.0
outer loop
vertex 21.0483752341002 34.4740322492339 0.0
vertex 21.43125 34.3154403285078 3.175
vertex 21.0483752341002 34.4740322492339 3.175
endloop
endfacet
facet normal -0.707106781186548 -0.707106781186547 0.0
outer loop
vertex 21.7600320151336 -31.8180929848664 3.175
vertex 21.43125 -31.5658096714922 0.0
vertex 21.7600320151336 -31.8180929848664 0.0
endloop
endfacet
facet normal -0.500000000000002 -0.866025403784438 0.0
outer loop
vertex 21.43125 -31.5658096714922 0.0
vertex 21.7600320151336 -31.8180929848664 3.175
vertex 21.43125 -31.5658096714922 3.175
endloop
endfacet
facet normal -0.500000000000002 -0.866025403784438 0.0
outer loop
vertex 21.43125 -31.5658096714922 3.175
vertex 21.0483752341002 -31.4072177507661 0.0
vertex 21.43125 -31.5658096714922 0.0
endloop
endfacet
facet normal -0.258819045102521 -0.965925826289068 0.0
outer loop
vertex 21.0483752341002 -31.4072177507661 0.0
vertex 21.43125 -31.5658096714922 3.175
vertex 21.0483752341002 -31.4072177507661 3.175
endloop
endfacet
facet normal 0.965925826289068 -0.258819045102522 0.0
outer loop
vertex 19.1040927507661 33.3515002341002 0.0
vertex 19.05 32.940625 3.175
vertex 19.05 32.940625 0.0
endloop
endfacet
facet normal 1.0 0.0 0.0
outer loop
vertex 19.05 32.940625 3.175
vertex 19.1040927507661 33.3515002341002 0.0
vertex 19.1040927507661 33.3515002341002 3.175
endloop
endfacet
facet normal -8.37644330190809e-16 1.0 0.0
outer loop
vertex 20.6375 -34.528125 3.175
vertex 21.0483752341002 -34.4740322492339 0.0
vertex 20.6375 -34.528125 0.0
endloop
endfacet
facet normal -0.258819045102521 0.965925826289068 0.0
outer loop
vertex 21.0483752341002 -34.4740322492339 0.0
vertex 20.6375 -34.528125 3.175
vertex 21.0483752341002 -34.4740322492339 3.175
endloop
endfacet
facet normal 0.965925826289068 -0.258819045102523 0.0
outer loop
vertex 19.1040927507661 -32.5297497658998 0.0
vertex 19.05 -32.940625 3.175
vertex 19.05 -32.940625 0.0
endloop
endfacet
facet normal 1.0 -3.29711066138935e-16 0.0
outer loop
vertex 19.05 -32.940625 3.175
vertex 19.1040927507661 -32.5297497658998 0.0
vertex 19.1040927507661 -32.5297497658998 3.175
endloop
endfacet
facet normal -0.707106781186551 -0.707106781186544 0.0
outer loop
vertex 21.7600320151336 34.0631570151336 3.175
vertex 21.43125 34.3154403285078 0.0
vertex 21.7600320151336 34.0631570151336 0.0
endloop
endfacet
facet normal -0.499999999999999 -0.86602540378444 0.0
outer loop
vertex 21.43125 34.3154403285078 0.0
vertex 21.7600320151336 34.0631570151336 3.175
vertex 21.43125 34.3154403285078 3.175
endloop
endfacet
facet normal 0.25881904510252 0.965925826289069 0.0
outer loop
vertex 20.2266247658998 -34.4740322492339 3.175
vertex 20.6375 -34.528125 0.0
vertex 20.2266247658998 -34.4740322492339 0.0
endloop
endfacet
facet normal -8.37644330190809e-16 1.0 0.0
outer loop
vertex 20.6375 -34.528125 0.0
vertex 20.2266247658998 -34.4740322492339 3.175
vertex 20.6375 -34.528125 3.175
endloop
endfacet
facet normal 1.67528866038162e-15 -1.0 0.0
outer loop
vertex 20.6375 -31.353125 3.175
vertex 20.2266247658998 -31.4072177507661 0.0
vertex 20.6375 -31.353125 0.0
endloop
endfacet
facet normal 0.258819045102521 -0.965925826289068 0.0
outer loop
vertex 20.2266247658998 -31.4072177507661 0.0
vertex 20.6375 -31.353125 3.175
vertex 20.2266247658998 -31.4072177507661 3.175
endloop
endfacet
facet normal -0.500000000000001 0.866025403784438 0.0
outer loop
vertex 21.43125 -34.3154403285078 3.175
vertex 21.7600320151336 -34.0631570151336 0.0
vertex 21.43125 -34.3154403285078 0.0
endloop
endfacet
facet normal -0.707106781186548 0.707106781186547 0.0
outer loop
vertex 21.7600320151336 -34.0631570151336 0.0
vertex 21.43125 -34.3154403285078 3.175
vertex 21.7600320151336 -34.0631570151336 3.175
endloop
endfacet
facet normal -1.0 0.0 0.0
outer loop
vertex 22.225 32.940625 3.175
vertex 22.1709072492339 32.5297497658998 0.0
vertex 22.1709072492339 32.5297497658998 3.175
endloop
endfacet
facet normal -0.965925826289068 0.258819045102522 0.0
outer loop
vertex 22.1709072492339 32.5297497658998 0.0
vertex 22.225 32.940625 3.175
vertex 22.225 32.940625 0.0
endloop
endfacet
facet normal -0.965925826289068 0.258819045102522 0.0
outer loop
vertex 22.1709072492339 32.5297497658998 3.175
vertex 22.0123153285078 32.146875 0.0
vertex 22.0123153285078 32.146875 3.175
endloop
endfacet
facet normal -0.866025403784436 0.500000000000005 0.0
outer loop
vertex 22.0123153285078 32.146875 0.0
vertex 22.1709072492339 32.5297497658998 3.175
vertex 22.1709072492339 32.5297497658998 0.0
endloop
endfacet
facet normal -0.866025403784436 0.500000000000005 0.0
outer loop
vertex 22.0123153285078 32.146875 3.175
vertex 21.7600320151336 31.8180929848664 0.0
vertex 21.7600320151336 31.8180929848664 3.175
endloop
endfacet
facet normal -0.707106781186551 0.707106781186544 0.0
outer loop
vertex 21.7600320151336 31.8180929848664 0.0
vertex 22.0123153285078 32.146875 3.175
vertex 22.0123153285078 32.146875 0.0
endloop
endfacet
facet normal -0.258819045102521 0.965925826289068 0.0
outer loop
vertex 21.0483752341002 -34.4740322492339 3.175
vertex 21.43125 -34.3154403285078 0.0
vertex 21.0483752341002 -34.4740322492339 0.0
endloop
endfacet
facet normal -0.500000000000001 0.866025403784438 0.0
outer loop
vertex 21.43125 -34.3154403285078 0.0
vertex 21.0483752341002 -34.4740322492339 3.175
vertex 21.43125 -34.3154403285078 3.175
endloop
endfacet
facet normal -0.258819045102521 -0.965925826289068 0.0
outer loop
vertex 21.0483752341002 -31.4072177507661 3.175
vertex 20.6375 -31.353125 0.0
vertex 21.0483752341002 -31.4072177507661 0.0
endloop
endfacet
facet normal 1.67528866038162e-15 -1.0 0.0
outer loop
vertex 20.6375 -31.353125 0.0
vertex 21.0483752341002 -31.4072177507661 3.175
vertex 20.6375 -31.353125 3.175
endloop
endfacet
facet normal 1.0 0.0 0.0
outer loop
vertex 19.05 32.940625 0.0
vertex 19.1040927507661 32.5297497658998 3.175
vertex 19.1040927507661 32.5297497658998 0.0
endloop
endfacet
facet normal 0.965925826289068 0.258819045102522 0.0
outer loop
vertex 19.1040927507661 32.5297497658998 3.175
vertex 19.05 32.940625 0.0
vertex 19.05 32.940625 3.175
endloop
endfacet
facet normal 0.965925826289068 0.258819045102522 0.0
outer loop
vertex 19.1040927507661 32.5297497658998 0.0
vertex 19.2626846714922 32.146875 3.175
vertex 19.2626846714922 32.146875 0.0
endloop
endfacet
facet normal 0.866025403784436 0.500000000000005 0.0
outer loop
vertex 19.2626846714922 32.146875 3.175
vertex 19.1040927507661 32.5297497658998 0.0
vertex 19.1040927507661 32.5297497658998 3.175
endloop
endfacet
facet normal 0.866025403784436 0.500000000000005 0.0
outer loop
vertex 19.2626846714922 32.146875 0.0
vertex 19.5149679848664 31.8180929848664 3.175
vertex 19.5149679848664 31.8180929848664 0.0
endloop
endfacet
facet normal 0.707106781186551 0.707106781186544 0.0
outer loop
vertex 19.5149679848664 31.8180929848664 3.175
vertex 19.2626846714922 32.146875 0.0
vertex 19.2626846714922 32.146875 3.175
endloop
endfacet
facet normal 0.707106781186551 0.707106781186544 0.0
outer loop
vertex 19.5149679848664 31.8180929848664 3.175
vertex 19.84375 31.5658096714922 0.0
vertex 19.5149679848664 31.8180929848664 0.0
endloop
endfacet
facet normal 0.499999999999999 0.86602540378444 0.0
outer loop
vertex 19.84375 31.5658096714922 0.0
vertex 19.5149679848664 31.8180929848664 3.175
vertex 19.84375 31.5658096714922 3.175
endloop
endfacet
facet normal 0.499999999999999 0.86602540378444 0.0
outer loop
vertex 19.84375 31.5658096714922 3.175
vertex 20.2266247658998 31.4072177507661 0.0
vertex 19.84375 31.5658096714922 0.0
endloop
endfacet
facet normal 0.258819045102517 0.965925826289069 0.0
outer loop
vertex 20.2266247658998 31.4072177507661 0.0
vertex 19.84375 31.5658096714922 3.175
vertex 20.2266247658998 31.4072177507661 3.175
endloop
endfacet
facet normal 0.258819045102517 0.965925826289069 0.0
outer loop
vertex 20.2266247658998 31.4072177507661 3.175
vertex 20.6375 31.353125 0.0
vertex 20.2266247658998 31.4072177507661 0.0
endloop
endfacet
facet normal 0.0 1.0 0.0
outer loop
vertex 20.6375 31.353125 0.0
vertex 20.2266247658998 31.4072177507661 3.175
vertex 20.6375 31.353125 3.175
endloop
endfacet
facet normal 0.0 1.0 0.0
outer loop
vertex 20.6375 31.353125 3.175
vertex 21.0483752341002 31.4072177507661 0.0
vertex 20.6375 31.353125 0.0
endloop
endfacet
facet normal -0.258819045102517 0.965925826289069 0.0
outer loop
vertex 21.0483752341002 31.4072177507661 0.0
vertex 20.6375 31.353125 3.175
vertex 21.0483752341002 31.4072177507661 3.175
endloop
endfacet
facet normal -0.258819045102517 0.965925826289069 0.0
outer loop
vertex 21.0483752341002 31.4072177507661 3.175
vertex 21.43125 31.5658096714922 0.0
vertex 21.0483752341002 31.4072177507661 0.0
endloop
endfacet
facet normal -0.499999999999999 0.86602540378444 0.0
outer loop
vertex 21.43125 31.5658096714922 0.0
vertex 21.0483752341002 31.4072177507661 3.175
vertex 21.43125 31.5658096714922 3.175
endloop
endfacet
facet normal -0.707106781186551 -0.707106781186544 0.0
outer loop
vertex -19.5149679848664 34.0631570151336 3.175
vertex -19.2626846714922 33.734375 0.0
vertex -19.2626846714922 33.734375 3.175
endloop
endfacet
facet normal -0.866025403784438 -0.500000000000001 0.0
outer loop
vertex -19.2626846714922 33.734375 0.0
vertex -19.5149679848664 34.0631570151336 3.175
vertex -19.5149679848664 34.0631570151336 0.0
endloop
endfacet
facet normal -0.707106781186551 -0.707106781186544 0.0
outer loop
vertex -19.5149679848664 34.0631570151336 3.175
vertex -19.84375 34.3154403285078 0.0
vertex -19.5149679848664 34.0631570151336 0.0
endloop
endfacet
facet normal -0.499999999999998 -0.86602540378444 0.0
outer loop
vertex -19.84375 34.3154403285078 0.0
vertex -19.5149679848664 34.0631570151336 3.175
vertex -19.84375 34.3154403285078 3.175
endloop
endfacet
facet normal -1.0 -8.37644330190809e-16 0.0
outer loop
vertex -19.05 32.940625 3.175
vertex -19.1040927507661 32.5297497658998 0.0
vertex -19.1040927507661 32.5297497658998 3.175
endloop
endfacet
facet normal -0.965925826289069 0.258819045102519 0.0
outer loop
vertex -19.1040927507661 32.5297497658998 0.0
vertex -19.05 32.940625 3.175
vertex -19.05 32.940625 0.0
endloop
endfacet
facet normal -0.965925826289068 -0.258819045102521 0.0
outer loop
vertex -19.1040927507661 33.3515002341002 3.175
vertex -19.05 32.940625 0.0
vertex -19.05 32.940625 3.175
endloop
endfacet
facet normal -1.0 -8.37644330190809e-16 0.0
outer loop
vertex -19.05 32.940625 0.0
vertex -19.1040927507661 33.3515002341002 3.175
vertex -19.1040927507661 33.3515002341002 0.0
endloop
endfacet
facet normal -0.499999999999998 -0.86602540378444 0.0
outer loop
vertex -19.84375 34.3154403285078 3.175
vertex -20.2266247658998 34.4740322492339 0.0
vertex -19.84375 34.3154403285078 0.0
endloop
endfacet
facet normal -0.258819045102517 -0.96592582628907 0.0
outer loop
vertex -20.2266247658998 34.4740322492339 0.0
vertex -19.84375 34.3154403285078 3.175
vertex -20.2266247658998 34.4740322492339 3.175
endloop
endfacet
facet normal -0.258819045102517 -0.96592582628907 0.0
outer loop
vertex -20.2266247658998 34.4740322492339 3.175
vertex -20.6375 34.528125 0.0
vertex -20.2266247658998 34.4740322492339 0.0
endloop
endfacet
facet normal -2.22777747391173e-16 -1.0 0.0
outer loop
vertex -20.6375 34.528125 0.0
vertex -20.2266247658998 34.4740322492339 3.175
vertex -20.6375 34.528125 3.175
endloop
endfacet
facet normal -2.22777747391173e-16 -1.0 0.0
outer loop
vertex -20.6375 34.528125 3.175
vertex -21.0483752341003 34.4740322492339 0.0
vertex -20.6375 34.528125 0.0
endloop
endfacet
facet normal 0.258819045102517 -0.965925826289069 0.0
outer loop
vertex -21.0483752341003 34.4740322492339 0.0
vertex -20.6375 34.528125 3.175
vertex -21.0483752341003 34.4740322492339 3.175
endloop
endfacet
facet normal 0.258819045102517 -0.965925826289069 0.0
outer loop
vertex -21.0483752341003 34.4740322492339 3.175
vertex -21.43125 34.3154403285078 0.0
vertex -21.0483752341003 34.4740322492339 0.0
endloop
endfacet
facet normal 0.499999999999998 -0.86602540378444 0.0
outer loop
vertex -21.43125 34.3154403285078 0.0
vertex -21.0483752341003 34.4740322492339 3.175
vertex -21.43125 34.3154403285078 3.175
endloop
endfacet
facet normal 0.499999999999998 -0.86602540378444 0.0
outer loop
vertex -21.43125 34.3154403285078 3.175
vertex -21.7600320151336 34.0631570151336 0.0
vertex -21.43125 34.3154403285078 0.0
endloop
endfacet
facet normal 0.707106781186551 -0.707106781186544 0.0
outer loop
vertex -21.7600320151336 34.0631570151336 0.0
vertex -21.43125 34.3154403285078 3.175
vertex -21.7600320151336 34.0631570151336 3.175
endloop
endfacet
facet normal 0.707106781186551 -0.707106781186544 0.0
outer loop
vertex -21.7600320151336 34.0631570151336 0.0
vertex -22.0123153285078 33.734375 3.175
vertex -22.0123153285078 33.734375 0.0
endloop
endfacet
facet normal 0.866025403784438 -0.500000000000001 0.0
outer loop
vertex -22.0123153285078 33.734375 3.175
vertex -21.7600320151336 34.0631570151336 0.0
vertex -21.7600320151336 34.0631570151336 3.175
endloop
endfacet
facet normal 0.866025403784438 -0.500000000000001 0.0
outer loop
vertex -22.0123153285078 33.734375 0.0
vertex -22.1709072492339 33.3515002341002 3.175
vertex -22.1709072492339 33.3515002341002 0.0
endloop
endfacet
facet normal 0.965925826289069 -0.25881904510252 0.0
outer loop
vertex -22.1709072492339 33.3515002341002 3.175
vertex -22.0123153285078 33.734375 0.0
vertex -22.0123153285078 33.734375 3.175
endloop
endfacet
facet normal 0.965925826289069 -0.25881904510252 0.0
outer loop
vertex -22.1709072492339 33.3515002341002 0.0
vertex -22.225 32.940625 3.175
vertex -22.225 32.940625 0.0
endloop
endfacet
facet normal 1.0 0.0 0.0
outer loop
vertex -22.225 32.940625 3.175
vertex -22.1709072492339 33.3515002341002 0.0
vertex -22.1709072492339 33.3515002341002 3.175
endloop
endfacet
facet normal 1.0 0.0 0.0
outer loop
vertex -22.225 32.940625 0.0
vertex -22.1709072492339 32.5297497658998 3.175
vertex -22.1709072492339 32.5297497658998 0.0
endloop
endfacet
facet normal 0.965925826289068 0.258819045102521 0.0
outer loop
vertex -22.1709072492339 32.5297497658998 3.175
vertex -22.225 32.940625 0.0
vertex -22.225 32.940625 3.175
endloop
endfacet
facet normal 0.965925826289068 0.258819045102521 0.0
outer loop
vertex -22.1709072492339 32.5297497658998 0.0
vertex -22.0123153285078 32.146875 3.175
vertex -22.0123153285078 32.146875 0.0
endloop
endfacet
facet normal 0.866025403784438 0.500000000000001 0.0
outer loop
vertex -22.0123153285078 32.146875 3.175
vertex -22.1709072492339 32.5297497658998 0.0
vertex -22.1709072492339 32.5297497658998 3.175
endloop
endfacet
facet normal 0.866025403784438 0.500000000000001 0.0
outer loop
vertex -22.0123153285078 32.146875 0.0
vertex -21.7600320151336 31.8180929848664 3.175
vertex -21.7600320151336 31.8180929848664 0.0
endloop
endfacet
facet normal 0.707106781186551 0.707106781186544 0.0
outer loop
vertex -21.7600320151336 31.8180929848664 3.175
vertex -22.0123153285078 32.146875 0.0
vertex -22.0123153285078 32.146875 3.175
endloop
endfacet
facet normal 0.707106781186551 0.707106781186544 0.0
outer loop
vertex -21.7600320151336 31.8180929848664 3.175
vertex -21.43125 31.5658096714922 0.0
vertex -21.7600320151336 31.8180929848664 0.0
endloop
endfacet
facet normal 0.499999999999998 0.86602540378444 0.0
outer loop
vertex -21.43125 31.5658096714922 0.0
vertex -21.7600320151336 31.8180929848664 3.175
vertex -21.43125 31.5658096714922 3.175
endloop
endfacet
facet normal 0.499999999999998 0.86602540378444 0.0
outer loop
vertex -21.43125 31.5658096714922 3.175
vertex -21.0483752341002 31.4072177507661 0.0
vertex -21.43125 31.5658096714922 0.0
endloop
endfacet
facet normal 0.258819045102517 0.965925826289069 0.0
outer loop
vertex -21.0483752341002 31.4072177507661 0.0
vertex -21.43125 31.5658096714922 3.175
vertex -21.0483752341002 31.4072177507661 3.175
endloop
endfacet
facet normal 0.258819045102517 0.965925826289069 0.0
outer loop
vertex -21.0483752341002 31.4072177507661 3.175
vertex -20.6375 31.353125 0.0
vertex -21.0483752341002 31.4072177507661 0.0
endloop
endfacet
facet normal 2.3168885728682e-16 1.0 0.0
outer loop
vertex -20.6375 31.353125 0.0
vertex -21.0483752341002 31.4072177507661 3.175
vertex -20.6375 31.353125 3.175
endloop
endfacet
facet normal 2.3168885728682e-16 1.0 0.0
outer loop
vertex -20.6375 31.353125 3.175
vertex -20.2266247658997 31.4072177507661 0.0
vertex -20.6375 31.353125 0.0
endloop
endfacet
facet normal -0.258819045102517 0.965925826289069 0.0
outer loop
vertex -20.2266247658997 31.4072177507661 0.0
vertex -20.6375 31.353125 3.175
vertex -20.2266247658997 31.4072177507661 3.175
endloop
endfacet
facet normal -0.258819045102517 0.965925826289069 0.0
outer loop
vertex -20.2266247658997 31.4072177507661 3.175
vertex -19.84375 31.5658096714922 0.0
vertex -20.2266247658997 31.4072177507661 0.0
endloop
endfacet
facet normal -0.499999999999998 0.86602540378444 0.0
outer loop
vertex -19.84375 31.5658096714922 0.0
vertex -20.2266247658997 31.4072177507661 3.175
vertex -19.84375 31.5658096714922 3.175
endloop
endfacet
facet normal -0.499999999999998 0.86602540378444 0.0
outer loop
vertex -19.84375 31.5658096714922 3.175
vertex -19.5149679848664 31.8180929848664 0.0
vertex -19.84375 31.5658096714922 0.0
endloop
endfacet
facet normal -0.70710678118655 0.707106781186545 0.0
outer loop
vertex -19.5149679848664 31.8180929848664 0.0
vertex -19.84375 31.5658096714922 3.175
vertex -19.5149679848664 31.8180929848664 3.175
endloop
endfacet
facet normal -0.866025403784438 0.500000000000001 0.0
outer loop
vertex -19.2626846714922 32.146875 3.175
vertex -19.5149679848664 31.8180929848664 0.0
vertex -19.5149679848664 31.8180929848664 3.175
endloop
endfacet
facet normal -0.70710678118655 0.707106781186545 0.0
outer loop
vertex -19.5149679848664 31.8180929848664 0.0
vertex -19.2626846714922 32.146875 3.175
vertex -19.2626846714922 32.146875 0.0
endloop
endfacet
facet normal -0.965925826289069 0.258819045102519 0.0
outer loop
vertex -19.1040927507661 32.5297497658998 3.175
vertex -19.2626846714922 32.146875 0.0
vertex -19.2626846714922 32.146875 3.175
endloop
endfacet
facet normal -0.866025403784438 0.500000000000001 0.0
outer loop
vertex -19.2626846714922 32.146875 0.0
vertex -19.1040927507661 32.5297497658998 3.175
vertex -19.1040927507661 32.5297497658998 0.0
endloop
endfacet
facet normal 0.0 1.0 0.0
outer loop
vertex -16.66875 17.4625 15.875
vertex -13.50645 17.4625 7.9375
vertex -16.66875 17.4625 7.9375
endloop
endfacet
facet normal 0.0 1.0 0.0
outer loop
vertex -13.50645 17.4625 7.9375
vertex -16.66875 17.4625 15.875
vertex -13.50645 17.4625 15.875
endloop
endfacet
facet normal 0.0 0.0 1.0
outer loop
vertex -25.4 -41.275 3.175
vertex -22.225 -32.940625 3.175
vertex -25.4 38.1 3.175
endloop
endfacet
facet normal 0.0 0.0 1.0
outer loop
vertex -22.225 -32.940625 3.175
vertex -25.4 -41.275 3.175
vertex -22.1709072492339 -33.3515002341002 3.175
endloop
endfacet
facet normal 0.0 0.0 1.0
outer loop
vertex -22.1709072492339 -33.3515002341002 3.175
vertex -25.4 -41.275 3.175
vertex -22.0123153285078 -33.734375 3.175
endloop
endfacet
facet normal 0.0 0.0 1.0
outer loop
vertex -22.0123153285078 -33.734375 3.175
vertex -25.4 -41.275 3.175
vertex -16.66875 -41.275 3.175
endloop
endfacet
facet normal 0.0 0.0 1.0
outer loop
vertex -22.0123153285078 -33.734375 3.175
vertex -16.66875 -41.275 3.175
vertex -21.7600320151336 -34.0631570151336 3.175
endloop
endfacet
facet normal 0.0 0.0 1.0
outer loop
vertex -21.7600320151336 -34.0631570151336 3.175
vertex -16.66875 -41.275 3.175
vertex -21.43125 -34.3154403285078 3.175
endloop
endfacet
facet normal 0.0 0.0 1.0
outer loop
vertex -21.43125 -34.3154403285078 3.175
vertex -16.66875 -41.275 3.175
vertex -21.0483752341002 -34.4740322492339 3.175
endloop
endfacet
facet normal 0.0 0.0 1.0
outer loop
vertex -21.0483752341002 -34.4740322492339 3.175
vertex -16.66875 -41.275 3.175
vertex -20.6375 -34.528125 3.175
endloop
endfacet
facet normal 0.0 0.0 1.0
outer loop
vertex -20.6375 -34.528125 3.175
vertex -16.66875 -41.275 3.175
vertex -20.2266247658997 -34.4740322492339 3.175
endloop
endfacet
facet normal 0.0 0.0 1.0
outer loop
vertex -20.2266247658997 -34.4740322492339 3.175
vertex -16.66875 -41.275 3.175
vertex -19.84375 -34.3154403285078 3.175
endloop
endfacet
facet normal 0.0 0.0 1.0
outer loop
vertex -19.84375 -34.3154403285078 3.175
vertex -16.66875 -41.275 3.175
vertex -19.5149679848664 -34.0631570151336 3.175
endloop
endfacet
facet normal 0.0 0.0 1.0
outer loop
vertex -19.5149679848664 -34.0631570151336 3.175
vertex -16.66875 -41.275 3.175
vertex -19.2626846714922 -33.734375 3.175
endloop
endfacet
facet normal 0.0 0.0 1.0
outer loop
vertex -19.2626846714922 -33.734375 3.175
vertex -16.66875 -41.275 3.175
vertex -19.1040927507661 -33.3515002341002 3.175
endloop
endfacet
facet normal 0.0 0.0 1.0
outer loop
vertex -19.1040927507661 -33.3515002341002 3.175
vertex -16.66875 -41.275 3.175
vertex -19.05 -32.940625 3.175
endloop
endfacet
facet normal 0.0 0.0 1.0
outer loop
vertex -19.05 -32.940625 3.175
vertex -16.66875 -41.275 3.175
vertex -19.05 32.940625 3.175
endloop
endfacet
facet normal 0.0 0.0 1.0
outer loop
vertex 10.33145 -41.275 3.175
vertex -10.33145 23.8125 3.175
vertex -10.33145 -41.275 3.175
endloop
endfacet
facet normal 0.0 0.0 1.0
outer loop
vertex 16.66875 -41.275 3.175
vertex 19.05 -32.940625 3.175
vertex 16.66875 23.8125 3.175
endloop
endfacet
facet normal 0.0 0.0 1.0
outer loop
vertex 19.05 -32.940625 3.175
vertex 16.66875 -41.275 3.175
vertex 19.1040927507661 -33.3515002341002 3.175
endloop
endfacet
facet normal 0.0 0.0 1.0
outer loop
vertex 19.1040927507661 -33.3515002341002 3.175
vertex 16.66875 -41.275 3.175
vertex 19.2626846714922 -33.734375 3.175
endloop
endfacet
facet normal 0.0 0.0 1.0
outer loop
vertex 19.2626846714922 -33.734375 3.175
vertex 16.66875 -41.275 3.175
vertex 19.5149679848664 -34.0631570151336 3.175
endloop
endfacet
facet normal 0.0 0.0 1.0
outer loop
vertex 19.5149679848664 -34.0631570151336 3.175
vertex 16.66875 -41.275 3.175
vertex 25.4 -41.275 3.175
endloop
endfacet
facet normal 0.0 0.0 1.0
outer loop
vertex 19.5149679848664 -34.0631570151336 3.175
vertex 25.4 -41.275 3.175
vertex 19.84375 -34.3154403285078 3.175
endloop
endfacet
facet normal 0.0 0.0 1.0
outer loop
vertex 19.84375 -34.3154403285078 3.175
vertex 25.4 -41.275 3.175
vertex 20.2266247658998 -34.4740322492339 3.175
endloop
endfacet
facet normal 0.0 0.0 1.0
outer loop
vertex 20.2266247658998 -34.4740322492339 3.175
vertex 25.4 -41.275 3.175
vertex 20.6375 -34.528125 3.175
endloop
endfacet
facet normal 0.0 0.0 1.0
outer loop
vertex 20.6375 -34.528125 3.175
vertex 25.4 -41.275 3.175
vertex 21.0483752341002 -34.4740322492339 3.175
endloop
endfacet
facet normal 0.0 0.0 1.0
outer loop
vertex 21.0483752341002 -34.4740322492339 3.175
vertex 25.4 -41.275 3.175
vertex 21.43125 -34.3154403285078 3.175
endloop
endfacet
facet normal 0.0 0.0 1.0
outer loop
vertex 21.43125 -34.3154403285078 3.175
vertex 25.4 -41.275 3.175
vertex 21.7600320151336 -34.0631570151336 3.175
endloop
endfacet
facet normal 0.0 0.0 1.0
outer loop
vertex 21.7600320151336 -34.0631570151336 3.175
vertex 25.4 -41.275 3.175
vertex 22.0123153285078 -33.734375 3.175
endloop
endfacet
facet normal 0.0 0.0 1.0
outer loop
vertex 22.0123153285078 -33.734375 3.175
vertex 25.4 -41.275 3.175
vertex 22.1709072492339 -33.3515002341002 3.175
endloop
endfacet
facet normal 0.0 0.0 1.0
outer loop
vertex 22.1709072492339 -33.3515002341002 3.175
vertex 25.4 -41.275 3.175
vertex 22.225 -32.940625 3.175
endloop
endfacet
facet normal 0.0 0.0 1.0
outer loop
vertex 22.225 -32.940625 3.175
vertex 25.4 -41.275 3.175
vertex 22.225 32.940625 3.175
endloop
endfacet
facet normal 0.0 0.0 1.0
outer loop
vertex -25.4 38.1 3.175
vertex -20.6375 34.528125 3.175
vertex 25.4 38.1 3.175
endloop
endfacet
facet normal 0.0 0.0 1.0
outer loop
vertex -20.6375 34.528125 3.175
vertex -25.4 38.1 3.175
vertex -21.0483752341003 34.4740322492339 3.175
endloop
endfacet
facet normal 0.0 0.0 1.0
outer loop
vertex -21.0483752341003 34.4740322492339 3.175
vertex -25.4 38.1 3.175
vertex -21.43125 34.3154403285078 3.175
endloop
endfacet
facet normal 0.0 0.0 1.0
outer loop
vertex -21.43125 34.3154403285078 3.175
vertex -25.4 38.1 3.175
vertex -21.7600320151336 34.0631570151336 3.175
endloop
endfacet
facet normal 0.0 0.0 1.0
outer loop
vertex -21.7600320151336 34.0631570151336 3.175
vertex -25.4 38.1 3.175
vertex -22.0123153285078 33.734375 3.175
endloop
endfacet
facet normal 0.0 0.0 1.0
outer loop
vertex -22.0123153285078 33.734375 3.175
vertex -25.4 38.1 3.175
vertex -22.1709072492339 33.3515002341002 3.175
endloop
endfacet
facet normal 0.0 0.0 1.0
outer loop
vertex -22.1709072492339 33.3515002341002 3.175
vertex -25.4 38.1 3.175
vertex -22.225 32.940625 3.175
endloop
endfacet
facet normal 0.0 0.0 1.0
outer loop
vertex -22.225 32.940625 3.175
vertex -25.4 38.1 3.175
vertex -22.225 -32.940625 3.175
endloop
endfacet
facet normal 0.0 0.0 1.0
outer loop
vertex 25.4 38.1 3.175
vertex -20.6375 34.528125 3.175
vertex -20.2266247658998 34.4740322492339 3.175
endloop
endfacet
facet normal 0.0 0.0 1.0
outer loop
vertex 25.4 38.1 3.175
vertex -20.2266247658998 34.4740322492339 3.175
vertex -19.84375 34.3154403285078 3.175
endloop
endfacet
facet normal 0.0 0.0 1.0
outer loop
vertex 25.4 38.1 3.175
vertex -19.84375 34.3154403285078 3.175
vertex -19.5149679848664 34.0631570151336 3.175
endloop
endfacet
facet normal 0.0 0.0 1.0
outer loop
vertex 25.4 38.1 3.175
vertex -19.5149679848664 34.0631570151336 3.175
vertex -19.2626846714922 33.734375 3.175
endloop
endfacet
facet normal 0.0 0.0 1.0
outer loop
vertex 25.4 38.1 3.175
vertex -19.2626846714922 33.734375 3.175
vertex -19.1040927507661 33.3515002341002 3.175
endloop
endfacet
facet normal 0.0 0.0 1.0
outer loop
vertex 25.4 38.1 3.175
vertex -19.1040927507661 33.3515002341002 3.175
vertex -19.05 32.940625 3.175
endloop
endfacet
facet normal 0.0 0.0 1.0
outer loop
vertex 25.4 38.1 3.175
vertex -19.05 32.940625 3.175
vertex -16.66875 23.8125 3.175
endloop
endfacet
facet normal 0.0 0.0 1.0
outer loop
vertex -16.66875 23.8125 3.175
vertex -19.05 32.940625 3.175
vertex -16.66875 -41.275 3.175
endloop
endfacet
facet normal 0.0 0.0 1.0
outer loop
vertex 25.4 38.1 3.175
vertex -16.66875 23.8125 3.175
vertex -10.33145 23.8125 3.175
endloop
endfacet
facet normal 0.0 0.0 1.0
outer loop
vertex 25.4 38.1 3.175
vertex -10.33145 23.8125 3.175
vertex 19.84375 34.3154403285078 3.175
endloop
endfacet
facet normal 0.0 0.0 1.0
outer loop
vertex 19.84375 34.3154403285078 3.175
vertex -10.33145 23.8125 3.175
vertex 19.5149679848664 34.0631570151336 3.175
endloop
endfacet
facet normal 0.0 0.0 1.0
outer loop
vertex 19.5149679848664 34.0631570151336 3.175
vertex -10.33145 23.8125 3.175
vertex 10.33145 23.8125 3.175
endloop
endfacet
facet normal 0.0 0.0 1.0
outer loop
vertex 10.33145 23.8125 3.175
vertex -10.33145 23.8125 3.175
vertex 10.33145 -41.275 3.175
endloop
endfacet
facet normal 0.0 0.0 1.0
outer loop
vertex 19.5149679848664 34.0631570151336 3.175
vertex 10.33145 23.8125 3.175
vertex 19.2626846714922 33.734375 3.175
endloop
endfacet
facet normal 0.0 0.0 1.0
outer loop
vertex 19.2626846714922 33.734375 3.175
vertex 10.33145 23.8125 3.175
vertex 19.1040927507661 33.3515002341002 3.175
endloop
endfacet
facet normal 0.0 0.0 1.0
outer loop
vertex 19.1040927507661 33.3515002341002 3.175
vertex 10.33145 23.8125 3.175
vertex 16.66875 23.8125 3.175
endloop
endfacet
facet normal 0.0 0.0 1.0
outer loop
vertex 19.1040927507661 33.3515002341002 3.175
vertex 16.66875 23.8125 3.175
vertex 19.05 32.940625 3.175
endloop
endfacet
facet normal 0.0 0.0 1.0
outer loop
vertex 19.05 32.940625 3.175
vertex 16.66875 23.8125 3.175
vertex 19.05 -32.940625 3.175
endloop
endfacet
facet normal 0.0 0.0 1.0
outer loop
vertex 25.4 38.1 3.175
vertex 19.84375 34.3154403285078 3.175
vertex 20.2266247658998 34.4740322492339 3.175
endloop
endfacet
facet normal 0.0 0.0 1.0
outer loop
vertex 25.4 38.1 3.175
vertex 20.2266247658998 34.4740322492339 3.175
vertex 20.6375 34.528125 3.175
endloop
endfacet
facet normal 0.0 0.0 1.0
outer loop
vertex 25.4 38.1 3.175
vertex 20.6375 34.528125 3.175
vertex 21.0483752341002 34.4740322492339 3.175
endloop
endfacet
facet normal 0.0 0.0 1.0
outer loop
vertex 25.4 38.1 3.175
vertex 21.0483752341002 34.4740322492339 3.175
vertex 21.43125 34.3154403285078 3.175
endloop
endfacet
facet normal 0.0 0.0 1.0
outer loop
vertex 25.4 38.1 3.175
vertex 21.43125 34.3154403285078 3.175
vertex 21.7600320151336 34.0631570151336 3.175
endloop
endfacet
facet normal 0.0 0.0 1.0
outer loop
vertex 25.4 38.1 3.175
vertex 21.7600320151336 34.0631570151336 3.175
vertex 22.0123153285078 33.734375 3.175
endloop
endfacet
facet normal 0.0 0.0 1.0
outer loop
vertex 25.4 38.1 3.175
vertex 22.0123153285078 33.734375 3.175
vertex 22.1709072492339 33.3515002341002 3.175
endloop
endfacet
facet normal 0.0 0.0 1.0
outer loop
vertex 25.4 38.1 3.175
vertex 22.1709072492339 33.3515002341002 3.175
vertex 22.225 32.940625 3.175
endloop
endfacet
facet normal 0.0 0.0 1.0
outer loop
vertex 25.4 38.1 3.175
vertex 22.225 32.940625 3.175
vertex 25.4 -41.275 3.175
endloop
endfacet
facet normal 0.0 0.0 1.0
outer loop
vertex 19.1040927507661 -32.5297497658998 3.175
vertex 19.05 32.940625 3.175
vertex 19.05 -32.940625 3.175
endloop
endfacet
facet normal 0.0 0.0 1.0
outer loop
vertex 19.05 32.940625 3.175
vertex 19.1040927507661 -32.5297497658998 3.175
vertex 19.1040927507661 32.5297497658998 3.175
endloop
endfacet
facet normal 0.0 0.0 1.0
outer loop
vertex 19.1040927507661 32.5297497658998 3.175
vertex 19.1040927507661 -32.5297497658998 3.175
vertex 19.2626846714922 -32.146875 3.175
endloop
endfacet
facet normal 0.0 0.0 1.0
outer loop
vertex 19.1040927507661 32.5297497658998 3.175
vertex 19.2626846714922 -32.146875 3.175
vertex 19.2626846714922 32.146875 3.175
endloop
endfacet
facet normal 0.0 0.0 1.0
outer loop
vertex 19.2626846714922 32.146875 3.175
vertex 19.2626846714922 -32.146875 3.175
vertex 19.5149679848664 -31.8180929848664 3.175
endloop
endfacet
facet normal 0.0 0.0 1.0
outer loop
vertex 19.2626846714922 32.146875 3.175
vertex 19.5149679848664 -31.8180929848664 3.175
vertex 19.5149679848664 31.8180929848664 3.175
endloop
endfacet
facet normal 0.0 0.0 1.0
outer loop
vertex 19.5149679848664 31.8180929848664 3.175
vertex 19.5149679848664 -31.8180929848664 3.175
vertex 19.84375 -31.5658096714922 3.175
endloop
endfacet
facet normal 0.0 0.0 1.0
outer loop
vertex 19.5149679848664 31.8180929848664 3.175
vertex 19.84375 -31.5658096714922 3.175
vertex 19.84375 31.5658096714922 3.175
endloop
endfacet
facet normal 0.0 0.0 1.0
outer loop
vertex 19.84375 31.5658096714922 3.175
vertex 19.84375 -31.5658096714922 3.175
vertex 20.2266247658998 -31.4072177507661 3.175
endloop
endfacet
facet normal 0.0 0.0 1.0
outer loop
vertex 19.84375 31.5658096714922 3.175
vertex 20.2266247658998 -31.4072177507661 3.175
vertex 20.2266247658998 31.4072177507661 3.175
endloop
endfacet
facet normal 0.0 0.0 1.0
outer loop
vertex 20.2266247658998 31.4072177507661 3.175
vertex 20.2266247658998 -31.4072177507661 3.175
vertex 20.6375 -31.353125 3.175
endloop
endfacet
facet normal 0.0 0.0 1.0
outer loop
vertex 20.2266247658998 31.4072177507661 3.175
vertex 20.6375 -31.353125 3.175
vertex 20.6375 31.353125 3.175
endloop
endfacet
facet normal 0.0 0.0 1.0
outer loop
vertex 20.6375 31.353125 3.175
vertex 20.6375 -31.353125 3.175
vertex 21.0483752341002 -31.4072177507661 3.175
endloop
endfacet
facet normal 0.0 0.0 1.0
outer loop
vertex 20.6375 31.353125 3.175
vertex 21.0483752341002 -31.4072177507661 3.175
vertex 21.0483752341002 31.4072177507661 3.175
endloop
endfacet
facet normal 0.0 0.0 1.0
outer loop
vertex 21.0483752341002 31.4072177507661 3.175
vertex 21.0483752341002 -31.4072177507661 3.175
vertex 21.43125 -31.5658096714922 3.175
endloop
endfacet
facet normal 0.0 0.0 1.0
outer loop
vertex 21.0483752341002 31.4072177507661 3.175
vertex 21.43125 -31.5658096714922 3.175
vertex 21.43125 31.5658096714922 3.175
endloop
endfacet
facet normal 0.0 0.0 1.0
outer loop
vertex 21.43125 31.5658096714922 3.175
vertex 21.43125 -31.5658096714922 3.175
vertex 21.7600320151336 -31.8180929848664 3.175
endloop
endfacet
facet normal 0.0 0.0 1.0
outer loop
vertex 21.43125 31.5658096714922 3.175
vertex 21.7600320151336 -31.8180929848664 3.175
vertex 21.7600320151336 31.8180929848664 3.175
endloop
endfacet
facet normal 0.0 0.0 1.0
outer loop
vertex 21.7600320151336 31.8180929848664 3.175
vertex 21.7600320151336 -31.8180929848664 3.175
vertex 22.0123153285078 -32.146875 3.175
endloop
endfacet
facet normal 0.0 0.0 1.0
outer loop
vertex 21.7600320151336 31.8180929848664 3.175
vertex 22.0123153285078 -32.146875 3.175
vertex 22.0123153285078 32.146875 3.175
endloop
endfacet
facet normal 0.0 0.0 1.0
outer loop
vertex 22.0123153285078 32.146875 3.175
vertex 22.0123153285078 -32.146875 3.175
vertex 22.1709072492339 -32.5297497658998 3.175
endloop
endfacet
facet normal 0.0 0.0 1.0
outer loop
vertex 22.0123153285078 32.146875 3.175
vertex 22.1709072492339 -32.5297497658998 3.175
vertex 22.1709072492339 32.5297497658998 3.175
endloop
endfacet
facet normal 0.0 0.0 1.0
outer loop
vertex 22.1709072492339 32.5297497658998 3.175
vertex 22.1709072492339 -32.5297497658998 3.175
vertex 22.225 -32.940625 3.175
endloop
endfacet
facet normal 0.0 0.0 1.0
outer loop
vertex 22.1709072492339 32.5297497658998 3.175
vertex 22.225 -32.940625 3.175
vertex 22.225 32.940625 3.175
endloop
endfacet
facet normal 0.0 0.0 1.0
outer loop
vertex -22.1709072492339 -32.5297497658998 3.175
vertex -22.225 32.940625 3.175
vertex -22.225 -32.940625 3.175
endloop
endfacet
facet normal 0.0 0.0 1.0
outer loop
vertex -22.225 32.940625 3.175
vertex -22.1709072492339 -32.5297497658998 3.175
vertex -22.1709072492339 32.5297497658998 3.175
endloop
endfacet
facet normal 0.0 0.0 1.0
outer loop
vertex -22.1709072492339 32.5297497658998 3.175
vertex -22.1709072492339 -32.5297497658998 3.175
vertex -22.0123153285078 -32.146875 3.175
endloop
endfacet
facet normal 0.0 0.0 1.0
outer loop
vertex -22.1709072492339 32.5297497658998 3.175
vertex -22.0123153285078 -32.146875 3.175
vertex -22.0123153285078 32.146875 3.175
endloop
endfacet
facet normal 0.0 0.0 1.0
outer loop
vertex -22.0123153285078 32.146875 3.175
vertex -22.0123153285078 -32.146875 3.175
vertex -21.7600320151336 -31.8180929848664 3.175
endloop
endfacet
facet normal 0.0 0.0 1.0
outer loop
vertex -22.0123153285078 32.146875 3.175
vertex -21.7600320151336 -31.8180929848664 3.175
vertex -21.7600320151336 31.8180929848664 3.175
endloop
endfacet
facet normal 0.0 0.0 1.0
outer loop
vertex -21.7600320151336 31.8180929848664 3.175
vertex -21.7600320151336 -31.8180929848664 3.175
vertex -21.43125 -31.5658096714922 3.175
endloop
endfacet
facet normal 0.0 0.0 1.0
outer loop
vertex -21.7600320151336 31.8180929848664 3.175
vertex -21.43125 -31.5658096714922 3.175
vertex -21.43125 31.5658096714922 3.175
endloop
endfacet
facet normal 0.0 0.0 1.0
outer loop
vertex -21.43125 31.5658096714922 3.175
vertex -21.43125 -31.5658096714922 3.175
vertex -21.0483752341003 -31.4072177507661 3.175
endloop
endfacet
facet normal 0.0 0.0 1.0
outer loop
vertex -21.43125 31.5658096714922 3.175
vertex -21.0483752341003 -31.4072177507661 3.175
vertex -21.0483752341002 31.4072177507661 3.175
endloop
endfacet
facet normal 0.0 0.0 1.0
outer loop
vertex -21.0483752341002 31.4072177507661 3.175
vertex -21.0483752341003 -31.4072177507661 3.175
vertex -20.6375 -31.353125 3.175
endloop
endfacet
facet normal 0.0 0.0 1.0
outer loop
vertex -21.0483752341002 31.4072177507661 3.175
vertex -20.6375 -31.353125 3.175
vertex -20.6375 31.353125 3.175
endloop
endfacet
facet normal 0.0 0.0 1.0
outer loop
vertex -20.6375 31.353125 3.175
vertex -20.6375 -31.353125 3.175
vertex -20.2266247658998 -31.4072177507661 3.175
endloop
endfacet
facet normal 0.0 0.0 1.0
outer loop
vertex -20.6375 31.353125 3.175
vertex -20.2266247658998 -31.4072177507661 3.175
vertex -20.2266247658997 31.4072177507661 3.175
endloop
endfacet
facet normal 0.0 0.0 1.0
outer loop
vertex -20.2266247658997 31.4072177507661 3.175
vertex -20.2266247658998 -31.4072177507661 3.175
vertex -19.84375 -31.5658096714922 3.175
endloop
endfacet
facet normal 0.0 0.0 1.0
outer loop
vertex -20.2266247658997 31.4072177507661 3.175
vertex -19.84375 -31.5658096714922 3.175
vertex -19.84375 31.5658096714922 3.175
endloop
endfacet
facet normal 0.0 0.0 1.0
outer loop
vertex -19.84375 31.5658096714922 3.175
vertex -19.84375 -31.5658096714922 3.175
vertex -19.5149679848664 -31.8180929848664 3.175
endloop
endfacet
facet normal 0.0 0.0 1.0
outer loop
vertex -19.84375 31.5658096714922 3.175
vertex -19.5149679848664 -31.8180929848664 3.175
vertex -19.5149679848664 31.8180929848664 3.175
endloop
endfacet
facet normal 0.0 0.0 1.0
outer loop
vertex -19.5149679848664 31.8180929848664 3.175
vertex -19.5149679848664 -31.8180929848664 3.175
vertex -19.2626846714922 -32.146875 3.175
endloop
endfacet
facet normal 0.0 0.0 1.0
outer loop
vertex -19.5149679848664 31.8180929848664 3.175
vertex -19.2626846714922 -32.146875 3.175
vertex -19.2626846714922 32.146875 3.175
endloop
endfacet
facet normal 0.0 0.0 1.0
outer loop
vertex -19.2626846714922 32.146875 3.175
vertex -19.2626846714922 -32.146875 3.175
vertex -19.1040927507661 -32.5297497658998 3.175
endloop
endfacet
facet normal 0.0 0.0 1.0
outer loop
vertex -19.2626846714922 32.146875 3.175
vertex -19.1040927507661 -32.5297497658998 3.175
vertex -19.1040927507661 32.5297497658998 3.175
endloop
endfacet
facet normal 0.0 0.0 1.0
outer loop
vertex -19.1040927507661 32.5297497658998 3.175
vertex -19.1040927507661 -32.5297497658998 3.175
vertex -19.05 -32.940625 3.175
endloop
endfacet
facet normal 0.0 0.0 1.0
outer loop
vertex -19.1040927507661 32.5297497658998 3.175
vertex -19.05 -32.940625 3.175
vertex -19.05 32.940625 3.175
endloop
endfacet
facet normal 0.0 0.0 1.0
outer loop
vertex -13.50645 -38.1 15.875
vertex -16.66875 17.4625 15.875
vertex -16.66875 -38.1 15.875
endloop
endfacet
facet normal 0.0 0.0 1.0
outer loop
vertex -16.66875 17.4625 15.875
vertex -13.50645 -38.1 15.875
vertex -13.50645 17.4625 15.875
endloop
endfacet
facet normal 1.0 0.0 0.0
outer loop
vertex -13.50645 17.4625 7.9375
vertex -13.50645 -38.1 15.875
vertex -13.50645 -38.1 7.9375
endloop
endfacet
facet normal 1.0 0.0 0.0
outer loop
vertex -13.50645 -38.1 15.875
vertex -13.50645 17.4625 7.9375
vertex -13.50645 17.4625 15.875
endloop
endfacet
facet normal 0.0 0.0 1.0
outer loop
vertex 16.66875 -38.1 15.875
vertex 13.50645 17.4625 15.875
vertex 13.50645 -38.1 15.875
endloop
endfacet
facet normal 0.0 0.0 1.0
outer loop
vertex 13.50645 17.4625 15.875
vertex 16.66875 -38.1 15.875
vertex 16.66875 17.4625 15.875
endloop
endfacet
facet normal 1.0 0.0 0.0
outer loop
vertex 16.66875 23.8125 3.175
vertex 16.66875 -41.275 7.9375
vertex 16.66875 -41.275 3.175
endloop
endfacet
facet normal 1.0 0.0 0.0
outer loop
vertex 16.66875 -41.275 7.9375
vertex 16.66875 23.8125 3.175
vertex 16.66875 -38.1 7.9375
endloop
endfacet
facet normal 1.0 0.0 0.0
outer loop
vertex 16.66875 -38.1 7.9375
vertex 16.66875 23.8125 3.175
vertex 16.66875 -38.1 15.875
endloop
endfacet
facet normal 1.0 0.0 0.0
outer loop
vertex 16.66875 -38.1 15.875
vertex 16.66875 23.8125 3.175
vertex 16.66875 17.4625 7.9375
endloop
endfacet
facet normal 1.0 0.0 0.0
outer loop
vertex 16.66875 17.4625 7.9375
vertex 16.66875 23.8125 3.175
vertex 16.66875 23.8125 7.9375
endloop
endfacet
facet normal 1.0 0.0 0.0
outer loop
vertex 16.66875 17.4625 15.875
vertex 16.66875 -38.1 15.875
vertex 16.66875 17.4625 7.9375
endloop
endfacet
facet normal -1.0 0.0 0.0
outer loop
vertex 13.50645 17.4625 15.875
vertex 13.50645 -38.1 7.9375
vertex 13.50645 -38.1 15.875
endloop
endfacet
facet normal -1.0 0.0 0.0
outer loop
vertex 13.50645 -38.1 7.9375
vertex 13.50645 17.4625 15.875
vertex 13.50645 17.4625 7.9375
endloop
endfacet
facet normal -1.0 0.0 0.0
outer loop
vertex 10.33145 23.8125 7.9375
vertex 10.33145 -41.275 3.175
vertex 10.33145 -41.275 7.9375
endloop
endfacet
facet normal -1.0 0.0 0.0
outer loop
vertex 10.33145 -41.275 3.175
vertex 10.33145 23.8125 7.9375
vertex 10.33145 23.8125 3.175
endloop
endfacet
facet normal 1.0 0.0 0.0
outer loop
vertex -10.33145 23.8125 3.175
vertex -10.33145 -41.275 7.9375
vertex -10.33145 -41.275 3.175
endloop
endfacet
facet normal 1.0 0.0 0.0
outer loop
vertex -10.33145 -41.275 7.9375
vertex -10.33145 23.8125 3.175
vertex -10.33145 23.8125 7.9375
endloop
endfacet
facet normal 0.0 -1.0 0.0
outer loop
vertex -13.50645 -38.1 15.875
vertex -16.66875 -38.1 7.9375
vertex -13.50645 -38.1 7.9375
endloop
endfacet
facet normal 0.0 -1.0 0.0
outer loop
vertex -16.66875 -38.1 7.9375
vertex -13.50645 -38.1 15.875
vertex -16.66875 -38.1 15.875
endloop
endfacet
facet normal 0.0 -1.0 0.0
outer loop
vertex 16.66875 -41.275 7.9375
vertex 10.33145 -41.275 3.175
vertex 16.66875 -41.275 3.175
endloop
endfacet
facet normal 0.0 -1.0 0.0
outer loop
vertex 10.33145 -41.275 3.175
vertex 16.66875 -41.275 7.9375
vertex 10.33145 -41.275 7.9375
endloop
endfacet
facet normal 0.0 -1.0 0.0
outer loop
vertex -10.33145 -41.275 7.9375
vertex -16.66875 -41.275 3.175
vertex -10.33145 -41.275 3.175
endloop
endfacet
facet normal 0.0 -1.0 0.0
outer loop
vertex -16.66875 -41.275 3.175
vertex -10.33145 -41.275 7.9375
vertex -16.66875 -41.275 7.9375
endloop
endfacet
facet normal 0.0 -1.0 0.0
outer loop
vertex 25.4 -41.275 3.175
vertex -25.4 -41.275 0.0
vertex 25.4 -41.275 0.0
endloop
endfacet
facet normal 0.0 -1.0 0.0
outer loop
vertex -25.4 -41.275 0.0
vertex 25.4 -41.275 3.175
vertex -25.4 -41.275 3.175
endloop
endfacet
facet normal 0.0 -1.0 0.0
outer loop
vertex -25.4 -41.275 3.175
vertex 25.4 -41.275 3.175
vertex 16.66875 -41.275 3.175
endloop
endfacet
facet normal 0.0 -1.0 0.0
outer loop
vertex -25.4 -41.275 3.175
vertex 16.66875 -41.275 3.175
vertex 10.33145 -41.275 3.175
endloop
endfacet
facet normal 0.0 -1.0 0.0
outer loop
vertex -25.4 -41.275 3.175
vertex 10.33145 -41.275 3.175
vertex -10.33145 -41.275 3.175
endloop
endfacet
facet normal 0.0 -1.0 0.0
outer loop
vertex -25.4 -41.275 3.175
vertex -10.33145 -41.275 3.175
vertex -16.66875 -41.275 3.175
endloop
endfacet
facet normal 0.0 0.0 1.0
outer loop
vertex 10.33145 23.8125 7.9375
vertex 13.50645 17.4625 7.9375
vertex 16.66875 23.8125 7.9375
endloop
endfacet
facet normal 0.0 0.0 1.0
outer loop
vertex 13.50645 17.4625 7.9375
vertex 10.33145 23.8125 7.9375
vertex 13.50645 -38.1 7.9375
endloop
endfacet
facet normal 0.0 0.0 1.0
outer loop
vertex 16.66875 23.8125 7.9375
vertex 13.50645 17.4625 7.9375
vertex 16.66875 17.4625 7.9375
endloop
endfacet
facet normal 0.0 0.0 1.0
outer loop
vertex 10.33145 -41.275 7.9375
vertex 13.50645 -38.1 7.9375
vertex 10.33145 23.8125 7.9375
endloop
endfacet
facet normal 0.0 0.0 1.0
outer loop
vertex 13.50645 -38.1 7.9375
vertex 10.33145 -41.275 7.9375
vertex 16.66875 -41.275 7.9375
endloop
endfacet
facet normal 0.0 0.0 1.0
outer loop
vertex 13.50645 -38.1 7.9375
vertex 16.66875 -41.275 7.9375
vertex 16.66875 -38.1 7.9375
endloop
endfacet
facet normal 0.0 1.0 0.0
outer loop
vertex 13.50645 17.4625 15.875
vertex 16.66875 17.4625 7.9375
vertex 13.50645 17.4625 7.9375
endloop
endfacet
facet normal 0.0 1.0 0.0
outer loop
vertex 16.66875 17.4625 7.9375
vertex 13.50645 17.4625 15.875
vertex 16.66875 17.4625 15.875
endloop
endfacet
facet normal 0.0 1.0 0.0
outer loop
vertex 10.33145 23.8125 7.9375
vertex 16.66875 23.8125 3.175
vertex 10.33145 23.8125 3.175
endloop
endfacet
facet normal 0.0 1.0 0.0
outer loop
vertex 16.66875 23.8125 3.175
vertex 10.33145 23.8125 7.9375
vertex 16.66875 23.8125 7.9375
endloop
endfacet
facet normal 0.0 1.0 0.0
outer loop
vertex -16.66875 23.8125 7.9375
vertex -10.33145 23.8125 3.175
vertex -16.66875 23.8125 3.175
endloop
endfacet
facet normal 0.0 1.0 0.0
outer loop
vertex -10.33145 23.8125 3.175
vertex -16.66875 23.8125 7.9375
vertex -10.33145 23.8125 7.9375
endloop
endfacet
facet normal 0.0 0.0 1.0
outer loop
vertex -10.33145 -41.275 7.9375
vertex -16.66875 -38.1 7.9375
vertex -16.66875 -41.275 7.9375
endloop
endfacet
facet normal 0.0 0.0 1.0
outer loop
vertex -16.66875 -38.1 7.9375
vertex -10.33145 -41.275 7.9375
vertex -13.50645 -38.1 7.9375
endloop
endfacet
facet normal 0.0 0.0 1.0
outer loop
vertex -13.50645 -38.1 7.9375
vertex -10.33145 -41.275 7.9375
vertex -13.50645 17.4625 7.9375
endloop
endfacet
facet normal 0.0 0.0 1.0
outer loop
vertex -13.50645 17.4625 7.9375
vertex -16.66875 23.8125 7.9375
vertex -16.66875 17.4625 7.9375
endloop
endfacet
facet normal 0.0 0.0 1.0
outer loop
vertex -16.66875 23.8125 7.9375
vertex -13.50645 17.4625 7.9375
vertex -10.33145 23.8125 7.9375
endloop
endfacet
facet normal 0.0 0.0 1.0
outer loop
vertex -10.33145 23.8125 7.9375
vertex -13.50645 17.4625 7.9375
vertex -10.33145 -41.275 7.9375
endloop
endfacet
endsolid solenoid_electronics_connector_2
