G75*
G70*
%OFA0B0*%
%FSLAX24Y24*%
%IPPOS*%
%LPD*%
%AMOC8*
5,1,8,0,0,1.08239X$1,22.5*
%
%ADD10C,0.1330*%
%ADD11C,0.0600*%
%ADD12C,0.0820*%
%ADD13C,0.0580*%
%ADD14C,0.0600*%
%ADD15C,0.0730*%
%ADD16C,0.0860*%
%ADD17OC8,0.0940*%
%ADD18OC8,0.0740*%
%ADD19C,0.0780*%
%ADD20C,0.0780*%
%ADD21R,0.1580X0.1580*%
%ADD22R,0.0730X0.0730*%
%ADD23OC8,0.0780*%
%ADD24C,0.0480*%
D10*
X001351Y001356D03*
X046351Y001356D03*
X046351Y026356D03*
X001351Y026356D03*
D11*
X019201Y023166D02*
X019201Y022646D01*
X020201Y022646D02*
X020201Y023166D01*
X021201Y023166D02*
X021201Y022646D01*
X022201Y022646D02*
X022201Y023166D01*
X023201Y023166D02*
X023201Y022646D01*
X024201Y022646D02*
X024201Y023166D01*
X025201Y023166D02*
X025201Y022646D01*
X026201Y022646D02*
X026201Y023166D01*
X027201Y023166D02*
X027201Y022646D01*
X028201Y022646D02*
X028201Y023166D01*
X029201Y023166D02*
X029201Y022646D01*
X030201Y022646D02*
X030201Y023166D01*
X031201Y023166D02*
X031201Y022646D01*
X032201Y022646D02*
X032201Y023166D01*
X032201Y020166D02*
X032201Y019646D01*
X031201Y019646D02*
X031201Y020166D01*
X030201Y020166D02*
X030201Y019646D01*
X029201Y019646D02*
X029201Y020166D01*
X028201Y020166D02*
X028201Y019646D01*
X027201Y019646D02*
X027201Y020166D01*
X026201Y020166D02*
X026201Y019646D01*
X025201Y019646D02*
X025201Y020166D01*
X024201Y020166D02*
X024201Y019646D01*
X023201Y019646D02*
X023201Y020166D01*
X022201Y020166D02*
X022201Y019646D01*
X021201Y019646D02*
X021201Y020166D01*
X020201Y020166D02*
X020201Y019646D01*
X019201Y019646D02*
X019201Y020166D01*
X011661Y008806D02*
X011141Y008806D01*
X011141Y007806D02*
X011661Y007806D01*
X011661Y006806D02*
X011141Y006806D01*
X011141Y005806D02*
X011661Y005806D01*
X011661Y004806D02*
X011141Y004806D01*
X011141Y003806D02*
X011661Y003806D01*
X011661Y002806D02*
X011141Y002806D01*
X011141Y001806D02*
X011661Y001806D01*
X008661Y001806D02*
X008141Y001806D01*
X006561Y001806D02*
X006041Y001806D01*
X006041Y002806D02*
X006561Y002806D01*
X006561Y003806D02*
X006041Y003806D01*
X006041Y004806D02*
X006561Y004806D01*
X006561Y005806D02*
X006041Y005806D01*
X006041Y006806D02*
X006561Y006806D01*
X008141Y006806D02*
X008661Y006806D01*
X008661Y007806D02*
X008141Y007806D01*
X008141Y008806D02*
X008661Y008806D01*
X006561Y008806D02*
X006041Y008806D01*
X006041Y007806D02*
X006561Y007806D01*
X003561Y007806D02*
X003041Y007806D01*
X003041Y008806D02*
X003561Y008806D01*
X003561Y006806D02*
X003041Y006806D01*
X003041Y005806D02*
X003561Y005806D01*
X003561Y004806D02*
X003041Y004806D01*
X003041Y003806D02*
X003561Y003806D01*
X003561Y002806D02*
X003041Y002806D01*
X003041Y001806D02*
X003561Y001806D01*
X008141Y002806D02*
X008661Y002806D01*
X008661Y003806D02*
X008141Y003806D01*
X008141Y004806D02*
X008661Y004806D01*
X008661Y005806D02*
X008141Y005806D01*
D12*
X033121Y005496D03*
X035681Y005496D03*
X035681Y003716D03*
X033121Y003716D03*
X016416Y020126D03*
X014636Y020126D03*
X014636Y022686D03*
X016416Y022686D03*
D13*
X014185Y025206D03*
X015717Y025306D03*
X017685Y025306D03*
X012217Y025206D03*
X017017Y016106D03*
X018985Y016106D03*
X006785Y016206D03*
X004817Y016206D03*
X033117Y007606D03*
X035085Y007606D03*
D14*
X024951Y025406D03*
X023051Y025406D03*
D15*
X020801Y025906D03*
X020801Y024906D03*
X027501Y024806D03*
X027501Y025806D03*
X033551Y024781D03*
D16*
X040726Y022379D02*
X040726Y021599D01*
X006976Y021599D02*
X006976Y022379D01*
D17*
X008976Y021067D03*
X009936Y022028D03*
X004976Y021067D03*
X003976Y022028D03*
X004976Y025949D03*
X005976Y025949D03*
X007976Y025949D03*
X008976Y025949D03*
X037726Y022028D03*
X038726Y021067D03*
X042726Y021067D03*
X043686Y022028D03*
X042726Y025949D03*
X041726Y025949D03*
X039726Y025949D03*
X038726Y025949D03*
D18*
X018101Y014406D03*
X018101Y013406D03*
X005801Y013406D03*
X005801Y014406D03*
D19*
X018801Y007106D03*
X019801Y007106D03*
X020801Y007106D03*
X021801Y007106D03*
X022801Y007106D03*
X023801Y007106D03*
X024801Y007106D03*
X025801Y007106D03*
X025801Y003106D03*
X024801Y003106D03*
X023801Y003106D03*
X022801Y003106D03*
X021801Y003106D03*
X020801Y003106D03*
X019801Y003106D03*
X018801Y003106D03*
D20*
X038601Y004106D02*
X039301Y004106D01*
X039301Y006106D02*
X038601Y006106D01*
X044301Y006106D02*
X045001Y006106D01*
X045001Y005106D02*
X044301Y005106D01*
X044301Y004106D02*
X045001Y004106D01*
D21*
X041701Y002506D03*
X041701Y007706D03*
D22*
X033551Y025781D03*
D23*
X030101Y017406D03*
X030101Y016406D03*
X030101Y015406D03*
X030101Y014406D03*
X030101Y013406D03*
X030101Y012406D03*
X030101Y011406D03*
X030101Y010406D03*
D24*
X022601Y004106D03*
X013601Y010106D03*
X013601Y012106D03*
X009601Y009606D03*
X009101Y009606D03*
X009101Y010106D03*
X007101Y010606D03*
X005101Y011606D03*
X004601Y011606D03*
X014101Y017106D03*
X014601Y016606D03*
X014101Y019106D03*
X013601Y022106D03*
X012101Y024106D03*
X023101Y018106D03*
X030101Y024106D03*
X010101Y002106D03*
X007101Y001106D03*
M02*
