G75*
G70*
%OFA0B0*%
%FSLAX24Y24*%
%IPPOS*%
%LPD*%
%AMOC8*
5,1,8,0,0,1.08239X$1,22.5*
%
%ADD10C,0.0000*%
%ADD11C,0.0080*%
D10*
X000101Y000101D02*
X000101Y025101D01*
X045101Y025101D01*
X045101Y000101D01*
X000101Y000101D01*
X000726Y001351D02*
X000728Y001401D01*
X000734Y001450D01*
X000744Y001499D01*
X000757Y001546D01*
X000775Y001593D01*
X000796Y001638D01*
X000820Y001681D01*
X000848Y001722D01*
X000879Y001761D01*
X000913Y001797D01*
X000950Y001831D01*
X000990Y001861D01*
X001031Y001888D01*
X001075Y001912D01*
X001120Y001932D01*
X001167Y001948D01*
X001215Y001961D01*
X001264Y001970D01*
X001314Y001975D01*
X001363Y001976D01*
X001413Y001973D01*
X001462Y001966D01*
X001511Y001955D01*
X001558Y001941D01*
X001604Y001922D01*
X001649Y001900D01*
X001692Y001875D01*
X001732Y001846D01*
X001770Y001814D01*
X001806Y001780D01*
X001839Y001742D01*
X001868Y001702D01*
X001894Y001660D01*
X001917Y001616D01*
X001936Y001570D01*
X001952Y001523D01*
X001964Y001474D01*
X001972Y001425D01*
X001976Y001376D01*
X001976Y001326D01*
X001972Y001277D01*
X001964Y001228D01*
X001952Y001179D01*
X001936Y001132D01*
X001917Y001086D01*
X001894Y001042D01*
X001868Y001000D01*
X001839Y000960D01*
X001806Y000922D01*
X001770Y000888D01*
X001732Y000856D01*
X001692Y000827D01*
X001649Y000802D01*
X001604Y000780D01*
X001558Y000761D01*
X001511Y000747D01*
X001462Y000736D01*
X001413Y000729D01*
X001363Y000726D01*
X001314Y000727D01*
X001264Y000732D01*
X001215Y000741D01*
X001167Y000754D01*
X001120Y000770D01*
X001075Y000790D01*
X001031Y000814D01*
X000990Y000841D01*
X000950Y000871D01*
X000913Y000905D01*
X000879Y000941D01*
X000848Y000980D01*
X000820Y001021D01*
X000796Y001064D01*
X000775Y001109D01*
X000757Y001156D01*
X000744Y001203D01*
X000734Y001252D01*
X000728Y001301D01*
X000726Y001351D01*
X000726Y023851D02*
X000728Y023901D01*
X000734Y023950D01*
X000744Y023999D01*
X000757Y024046D01*
X000775Y024093D01*
X000796Y024138D01*
X000820Y024181D01*
X000848Y024222D01*
X000879Y024261D01*
X000913Y024297D01*
X000950Y024331D01*
X000990Y024361D01*
X001031Y024388D01*
X001075Y024412D01*
X001120Y024432D01*
X001167Y024448D01*
X001215Y024461D01*
X001264Y024470D01*
X001314Y024475D01*
X001363Y024476D01*
X001413Y024473D01*
X001462Y024466D01*
X001511Y024455D01*
X001558Y024441D01*
X001604Y024422D01*
X001649Y024400D01*
X001692Y024375D01*
X001732Y024346D01*
X001770Y024314D01*
X001806Y024280D01*
X001839Y024242D01*
X001868Y024202D01*
X001894Y024160D01*
X001917Y024116D01*
X001936Y024070D01*
X001952Y024023D01*
X001964Y023974D01*
X001972Y023925D01*
X001976Y023876D01*
X001976Y023826D01*
X001972Y023777D01*
X001964Y023728D01*
X001952Y023679D01*
X001936Y023632D01*
X001917Y023586D01*
X001894Y023542D01*
X001868Y023500D01*
X001839Y023460D01*
X001806Y023422D01*
X001770Y023388D01*
X001732Y023356D01*
X001692Y023327D01*
X001649Y023302D01*
X001604Y023280D01*
X001558Y023261D01*
X001511Y023247D01*
X001462Y023236D01*
X001413Y023229D01*
X001363Y023226D01*
X001314Y023227D01*
X001264Y023232D01*
X001215Y023241D01*
X001167Y023254D01*
X001120Y023270D01*
X001075Y023290D01*
X001031Y023314D01*
X000990Y023341D01*
X000950Y023371D01*
X000913Y023405D01*
X000879Y023441D01*
X000848Y023480D01*
X000820Y023521D01*
X000796Y023564D01*
X000775Y023609D01*
X000757Y023656D01*
X000744Y023703D01*
X000734Y023752D01*
X000728Y023801D01*
X000726Y023851D01*
X043226Y023851D02*
X043228Y023901D01*
X043234Y023950D01*
X043244Y023999D01*
X043257Y024046D01*
X043275Y024093D01*
X043296Y024138D01*
X043320Y024181D01*
X043348Y024222D01*
X043379Y024261D01*
X043413Y024297D01*
X043450Y024331D01*
X043490Y024361D01*
X043531Y024388D01*
X043575Y024412D01*
X043620Y024432D01*
X043667Y024448D01*
X043715Y024461D01*
X043764Y024470D01*
X043814Y024475D01*
X043863Y024476D01*
X043913Y024473D01*
X043962Y024466D01*
X044011Y024455D01*
X044058Y024441D01*
X044104Y024422D01*
X044149Y024400D01*
X044192Y024375D01*
X044232Y024346D01*
X044270Y024314D01*
X044306Y024280D01*
X044339Y024242D01*
X044368Y024202D01*
X044394Y024160D01*
X044417Y024116D01*
X044436Y024070D01*
X044452Y024023D01*
X044464Y023974D01*
X044472Y023925D01*
X044476Y023876D01*
X044476Y023826D01*
X044472Y023777D01*
X044464Y023728D01*
X044452Y023679D01*
X044436Y023632D01*
X044417Y023586D01*
X044394Y023542D01*
X044368Y023500D01*
X044339Y023460D01*
X044306Y023422D01*
X044270Y023388D01*
X044232Y023356D01*
X044192Y023327D01*
X044149Y023302D01*
X044104Y023280D01*
X044058Y023261D01*
X044011Y023247D01*
X043962Y023236D01*
X043913Y023229D01*
X043863Y023226D01*
X043814Y023227D01*
X043764Y023232D01*
X043715Y023241D01*
X043667Y023254D01*
X043620Y023270D01*
X043575Y023290D01*
X043531Y023314D01*
X043490Y023341D01*
X043450Y023371D01*
X043413Y023405D01*
X043379Y023441D01*
X043348Y023480D01*
X043320Y023521D01*
X043296Y023564D01*
X043275Y023609D01*
X043257Y023656D01*
X043244Y023703D01*
X043234Y023752D01*
X043228Y023801D01*
X043226Y023851D01*
X043226Y001351D02*
X043228Y001401D01*
X043234Y001450D01*
X043244Y001499D01*
X043257Y001546D01*
X043275Y001593D01*
X043296Y001638D01*
X043320Y001681D01*
X043348Y001722D01*
X043379Y001761D01*
X043413Y001797D01*
X043450Y001831D01*
X043490Y001861D01*
X043531Y001888D01*
X043575Y001912D01*
X043620Y001932D01*
X043667Y001948D01*
X043715Y001961D01*
X043764Y001970D01*
X043814Y001975D01*
X043863Y001976D01*
X043913Y001973D01*
X043962Y001966D01*
X044011Y001955D01*
X044058Y001941D01*
X044104Y001922D01*
X044149Y001900D01*
X044192Y001875D01*
X044232Y001846D01*
X044270Y001814D01*
X044306Y001780D01*
X044339Y001742D01*
X044368Y001702D01*
X044394Y001660D01*
X044417Y001616D01*
X044436Y001570D01*
X044452Y001523D01*
X044464Y001474D01*
X044472Y001425D01*
X044476Y001376D01*
X044476Y001326D01*
X044472Y001277D01*
X044464Y001228D01*
X044452Y001179D01*
X044436Y001132D01*
X044417Y001086D01*
X044394Y001042D01*
X044368Y001000D01*
X044339Y000960D01*
X044306Y000922D01*
X044270Y000888D01*
X044232Y000856D01*
X044192Y000827D01*
X044149Y000802D01*
X044104Y000780D01*
X044058Y000761D01*
X044011Y000747D01*
X043962Y000736D01*
X043913Y000729D01*
X043863Y000726D01*
X043814Y000727D01*
X043764Y000732D01*
X043715Y000741D01*
X043667Y000754D01*
X043620Y000770D01*
X043575Y000790D01*
X043531Y000814D01*
X043490Y000841D01*
X043450Y000871D01*
X043413Y000905D01*
X043379Y000941D01*
X043348Y000980D01*
X043320Y001021D01*
X043296Y001064D01*
X043275Y001109D01*
X043257Y001156D01*
X043244Y001203D01*
X043234Y001252D01*
X043228Y001301D01*
X043226Y001351D01*
D11*
X043294Y004141D02*
X043907Y004141D01*
X044061Y004294D01*
X044061Y004601D01*
X043907Y004755D01*
X043754Y005062D02*
X043447Y005368D01*
X043447Y005522D01*
X043447Y005062D02*
X044061Y005062D01*
X043294Y004755D02*
X043140Y004601D01*
X043140Y004294D01*
X043294Y004141D01*
X043447Y005829D02*
X043907Y005829D01*
X044061Y005982D01*
X044061Y006443D01*
X043447Y006443D01*
X043600Y006750D02*
X043447Y006903D01*
X043447Y007363D01*
X043140Y007363D02*
X044061Y007363D01*
X044061Y006903D01*
X043907Y006750D01*
X043600Y006750D01*
X043140Y007670D02*
X043140Y007824D01*
X044061Y007824D01*
X044061Y007977D02*
X044061Y007670D01*
X043907Y008284D02*
X043754Y008438D01*
X043754Y008898D01*
X043600Y008898D02*
X044061Y008898D01*
X044061Y008438D01*
X043907Y008284D01*
X043447Y008438D02*
X043447Y008744D01*
X043600Y008898D01*
X043447Y009205D02*
X043447Y009665D01*
X043600Y009819D01*
X043907Y009819D01*
X044061Y009665D01*
X044061Y009205D01*
X043140Y009205D01*
X043600Y010126D02*
X043447Y010279D01*
X043447Y010739D01*
X043754Y010586D02*
X043754Y010279D01*
X043600Y010126D01*
X044061Y010126D02*
X044061Y010586D01*
X043907Y010739D01*
X043754Y010586D01*
X044061Y011967D02*
X043447Y012581D01*
X043294Y012581D01*
X043140Y012427D01*
X043140Y012121D01*
X043294Y011967D01*
X044061Y011967D02*
X044061Y012581D01*
X043907Y012888D02*
X043294Y012888D01*
X043140Y013041D01*
X043140Y013348D01*
X043294Y013502D01*
X043907Y012888D01*
X044061Y013041D01*
X044061Y013348D01*
X043907Y013502D01*
X043294Y013502D01*
X043447Y013809D02*
X043140Y014116D01*
X044061Y014116D01*
X044061Y014422D02*
X044061Y013809D01*
X044061Y014729D02*
X044061Y015343D01*
X044061Y015036D02*
X043140Y015036D01*
X043447Y014729D01*
X043600Y019641D02*
X043907Y019641D01*
X044061Y019794D01*
X044061Y020101D01*
X043907Y020255D01*
X043600Y020255D01*
X043447Y020101D01*
X043447Y019794D01*
X043600Y019641D01*
X043447Y020562D02*
X043907Y020562D01*
X044061Y020715D01*
X044061Y021175D01*
X043447Y021175D01*
X043447Y021482D02*
X043447Y021789D01*
X043294Y021636D02*
X043907Y021636D01*
X044061Y021789D01*
X002061Y020868D02*
X001600Y020868D01*
X001447Y020715D01*
X001447Y020255D01*
X002061Y020255D01*
X002061Y019948D02*
X002061Y019641D01*
X002061Y019794D02*
X001447Y019794D01*
X001447Y019641D01*
X001140Y019794D02*
X000987Y019794D01*
M02*
