%
M48
M72
T01C0.0240
T02C0.0276
T03C0.0300
T04C0.0320
T05C0.0400
T06C0.0520
T07C0.1250
%
T01
X8601Y14101
X17101Y16601
X21101Y19601
X26101Y20601
X26601Y21101
X35101Y16101
X35601Y10601
X31101Y7601
X27601Y4601
T02
X20101Y17601
X19101Y17601
X23101Y19601
X24101Y19601
X26101Y19601
X27101Y19601
T03
X29617Y17601
X31585Y17601
X31085Y10101
X29117Y10101
X26085Y10101
X24117Y10101
X21085Y10101
X19117Y10101
X16085Y10101
X14117Y10101
X11085Y10101
X9117Y10101
X6085Y10101
X4117Y10101
X4117Y5601
X6085Y5601
X9117Y5601
X11085Y5601
X14117Y5601
X16085Y5601
X19117Y5601
X21085Y5601
X24117Y5601
X26085Y5601
X29117Y5601
X31085Y5601
X34117Y5601
X36085Y5601
X39117Y5601
X41085Y5601
X41085Y10101
X39117Y10101
X36085Y10101
X34117Y10101
X16085Y20101
X14117Y20101
X13617Y16601
X15585Y16601
T04
X17601Y15101
X18601Y15101
X19601Y15101
X20601Y15101
X21601Y15101
X22601Y15101
X23601Y15101
X24601Y15101
X25601Y15101
X26601Y15101
X27601Y15101
X28601Y15101
X29601Y15101
X30601Y15101
X34101Y15101
X35101Y15101
X36101Y15101
X37101Y15101
X38101Y15101
X39101Y15101
X40101Y15101
X41101Y15101
X41101Y12101
X40101Y12101
X39101Y12101
X38101Y12101
X37101Y12101
X36101Y12101
X35101Y12101
X34101Y12101
X30601Y12101
X29601Y12101
X28601Y12101
X27601Y12101
X26601Y12101
X25601Y12101
X24601Y12101
X23601Y12101
X22601Y12101
X21601Y12101
X20601Y12101
X19601Y12101
X18601Y12101
X17601Y12101
X11101Y12101
X10101Y12101
X9101Y12101
X8101Y12101
X7101Y12101
X6101Y12101
X5101Y12101
X4101Y12101
X4101Y15101
X5101Y15101
X6101Y15101
X7101Y15101
X8101Y15101
X9101Y15101
X10101Y15101
X11101Y15101
X10601Y8101
X9601Y8101
X5601Y8101
X4601Y8101
X14601Y8101
X15601Y8101
X19601Y8101
X20601Y8101
X24601Y8101
X25601Y8101
X29601Y8101
X30601Y8101
X34601Y8101
X35601Y8101
X39601Y8101
X40601Y8101
X26051Y17601
X24151Y17601
X15601Y22601
X14601Y22601
T05
X15491Y14881
X13711Y14881
X13711Y12321
X15491Y12321
X15991Y4381
X14211Y4381
X10991Y4381
X9211Y4381
X5991Y4381
X4211Y4381
X4211Y1821
X5991Y1821
X9211Y1821
X10991Y1821
X14211Y1821
X15991Y1821
X19211Y1821
X20991Y1821
X24211Y1821
X25991Y1821
X29211Y1821
X30991Y1821
X34211Y1821
X35991Y1821
X39211Y1821
X40991Y1821
X40991Y4381
X39211Y4381
X35991Y4381
X34211Y4381
X30991Y4381
X29211Y4381
X25991Y4381
X24211Y4381
X20991Y4381
X19211Y4381
X28821Y21711
X31381Y21711
X31381Y23491
X28821Y23491
T06
X35601Y22819
X36601Y22819
X38601Y22819
X39601Y22819
X40561Y18898
X39601Y17937
X37601Y18859
X35601Y17937
X34601Y18898
X10561Y18898
X9601Y17937
X7601Y18859
X5601Y17937
X4601Y18898
X5601Y22819
X6601Y22819
X8601Y22819
X9601Y22819
T07
X1351Y1351
X1351Y23851
X43851Y23851
X43851Y1351
M30
