solid holes_for_power
facet normal -0.0 -1.0 -0.0
outer loop
vertex 19.05 -17.4625 3.175
vertex -19.05 -17.4625 0.0
vertex 19.05 -17.4625 0.0
endloop
endfacet
facet normal -0.0 -1.0 -0.0
outer loop
vertex -19.05 -17.4625 0.0
vertex 19.05 -17.4625 3.175
vertex -19.05 -17.4625 3.175
endloop
endfacet
facet normal 0.0 0.0 1.0
outer loop
vertex -19.05 -17.4625 3.175
vertex -16.5064717477017 0.354874297699244 3.175
vertex -19.05 12.7 3.175
endloop
endfacet
facet normal 0.0 0.0 1.0
outer loop
vertex -16.5064717477017 0.354874297699244 3.175
vertex -19.05 -17.4625 3.175
vertex -16.0306959855234 -0.79375 3.175
endloop
endfacet
facet normal 0.0 0.0 1.0
outer loop
vertex -16.0306959855234 -0.79375 3.175
vertex -19.05 -17.4625 3.175
vertex -15.2738460454009 -1.78009604540093 3.175
endloop
endfacet
facet normal 0.0 0.0 1.0
outer loop
vertex -15.2738460454009 -1.78009604540093 3.175
vertex -19.05 -17.4625 3.175
vertex -3.36759604540093 -12.8925960454009 3.175
endloop
endfacet
facet normal 0.0 0.0 1.0
outer loop
vertex -3.36759604540093 -12.8925960454009 3.175
vertex -19.05 -17.4625 3.175
vertex -2.38125 -13.6494459855234 3.175
endloop
endfacet
facet normal 0.0 0.0 1.0
outer loop
vertex -2.38125 -13.6494459855234 3.175
vertex -19.05 -17.4625 3.175
vertex -1.23262570230076 -14.1252217477017 3.175
endloop
endfacet
facet normal 0.0 0.0 1.0
outer loop
vertex -1.23262570230076 -14.1252217477017 3.175
vertex -19.05 -17.4625 3.175
vertex 19.05 -17.4625 3.175
endloop
endfacet
facet normal 0.0 0.0 1.0
outer loop
vertex -19.05 12.7 3.175
vertex -16.5064717477017 0.354874297699244 3.175
vertex -16.66875 1.5875 3.175
endloop
endfacet
facet normal 0.0 0.0 1.0
outer loop
vertex -15.2738460454009 -1.78009604540093 3.175
vertex -3.36759604540093 -12.8925960454009 3.175
vertex -14.2875 -2.53694598552339 3.175
endloop
endfacet
facet normal 0.0 0.0 1.0
outer loop
vertex -14.2875 -2.53694598552339 3.175
vertex -3.36759604540093 -12.8925960454009 3.175
vertex -13.1388757023008 -3.01272174770169 3.175
endloop
endfacet
facet normal 0.0 0.0 1.0
outer loop
vertex -13.1388757023008 -3.01272174770169 3.175
vertex -3.36759604540093 -12.8925960454009 3.175
vertex -11.90625 -3.175 3.175
endloop
endfacet
facet normal 0.0 0.0 1.0
outer loop
vertex -11.90625 -3.175 3.175
vertex -3.36759604540093 -12.8925960454009 3.175
vertex -4.12444598552339 -11.90625 3.175
endloop
endfacet
facet normal 0.0 0.0 1.0
outer loop
vertex -11.90625 -3.175 3.175
vertex -4.12444598552339 -11.90625 3.175
vertex -10.6736242976992 -3.01272174770169 3.175
endloop
endfacet
facet normal 0.0 0.0 1.0
outer loop
vertex -10.6736242976992 -3.01272174770169 3.175
vertex -4.12444598552339 -11.90625 3.175
vertex -9.525 -2.53694598552339 3.175
endloop
endfacet
facet normal 0.0 0.0 1.0
outer loop
vertex -9.525 -2.53694598552339 3.175
vertex -4.12444598552339 -11.90625 3.175
vertex -8.53865395459907 -1.78009604540093 3.175
endloop
endfacet
facet normal 0.0 0.0 1.0
outer loop
vertex -8.53865395459907 -1.78009604540093 3.175
vertex -4.12444598552339 -11.90625 3.175
vertex -4.60022174770169 -10.7576257023008 3.175
endloop
endfacet
facet normal 0.0 0.0 1.0
outer loop
vertex -8.53865395459907 -1.78009604540093 3.175
vertex -4.60022174770169 -10.7576257023008 3.175
vertex -7.78180401447661 -0.793749999999997 3.175
endloop
endfacet
facet normal 0.0 0.0 1.0
outer loop
vertex -7.78180401447661 -0.793749999999997 3.175
vertex -4.60022174770169 -10.7576257023008 3.175
vertex -7.30602825229831 0.354874297699246 3.175
endloop
endfacet
facet normal 0.0 0.0 1.0
outer loop
vertex -7.30602825229831 0.354874297699246 3.175
vertex -4.60022174770169 -10.7576257023008 3.175
vertex -7.14375 1.5875 3.175
endloop
endfacet
facet normal 0.0 0.0 1.0
outer loop
vertex -7.14375 1.5875 3.175
vertex -4.60022174770169 -10.7576257023008 3.175
vertex -4.7625 -9.525 3.175
endloop
endfacet
facet normal 0.0 0.0 1.0
outer loop
vertex -1.23262570230076 -14.1252217477017 3.175
vertex 19.05 -17.4625 3.175
vertex 0.0 -14.2875 3.175
endloop
endfacet
facet normal 0.0 0.0 1.0
outer loop
vertex 0.0 -14.2875 3.175
vertex 19.05 -17.4625 3.175
vertex 1.23262570230076 -14.1252217477017 3.175
endloop
endfacet
facet normal 0.0 0.0 1.0
outer loop
vertex 1.23262570230076 -14.1252217477017 3.175
vertex 19.05 -17.4625 3.175
vertex 2.38125 -13.6494459855234 3.175
endloop
endfacet
facet normal 0.0 0.0 1.0
outer loop
vertex 2.38125 -13.6494459855234 3.175
vertex 19.05 -17.4625 3.175
vertex 3.36759604540093 -12.8925960454009 3.175
endloop
endfacet
facet normal 0.0 0.0 1.0
outer loop
vertex 3.36759604540093 -12.8925960454009 3.175
vertex 19.05 -17.4625 3.175
vertex 4.12444598552339 -11.90625 3.175
endloop
endfacet
facet normal 0.0 0.0 1.0
outer loop
vertex 4.12444598552339 -11.90625 3.175
vertex 19.05 -17.4625 3.175
vertex 4.60022174770169 -10.7576257023008 3.175
endloop
endfacet
facet normal 0.0 0.0 1.0
outer loop
vertex 4.60022174770169 -10.7576257023008 3.175
vertex 19.05 -17.4625 3.175
vertex 4.7625 -9.525 3.175
endloop
endfacet
facet normal 0.0 0.0 1.0
outer loop
vertex 4.7625 -9.525 3.175
vertex 19.05 -17.4625 3.175
vertex 7.78180401447661 -0.79375 3.175
endloop
endfacet
facet normal 0.0 0.0 1.0
outer loop
vertex 4.7625 -9.525 3.175
vertex 7.78180401447661 -0.79375 3.175
vertex 7.30602825229831 0.354874297699244 3.175
endloop
endfacet
facet normal 0.0 0.0 1.0
outer loop
vertex 4.7625 -9.525 3.175
vertex 7.30602825229831 0.354874297699244 3.175
vertex 7.14375 1.5875 3.175
endloop
endfacet
facet normal 0.0 0.0 1.0
outer loop
vertex 7.78180401447661 -0.79375 3.175
vertex 19.05 -17.4625 3.175
vertex 8.53865395459907 -1.78009604540093 3.175
endloop
endfacet
facet normal 0.0 0.0 1.0
outer loop
vertex 8.53865395459907 -1.78009604540093 3.175
vertex 19.05 -17.4625 3.175
vertex 9.525 -2.53694598552339 3.175
endloop
endfacet
facet normal 0.0 0.0 1.0
outer loop
vertex 9.525 -2.53694598552339 3.175
vertex 19.05 -17.4625 3.175
vertex 10.6736242976992 -3.01272174770169 3.175
endloop
endfacet
facet normal 0.0 0.0 1.0
outer loop
vertex 10.6736242976992 -3.01272174770169 3.175
vertex 19.05 -17.4625 3.175
vertex 11.90625 -3.175 3.175
endloop
endfacet
facet normal 0.0 0.0 1.0
outer loop
vertex 11.90625 -3.175 3.175
vertex 19.05 -17.4625 3.175
vertex 13.1388757023008 -3.01272174770169 3.175
endloop
endfacet
facet normal 0.0 0.0 1.0
outer loop
vertex 13.1388757023008 -3.01272174770169 3.175
vertex 19.05 -17.4625 3.175
vertex 14.2875 -2.53694598552339 3.175
endloop
endfacet
facet normal 0.0 0.0 1.0
outer loop
vertex 14.2875 -2.53694598552339 3.175
vertex 19.05 -17.4625 3.175
vertex 15.2738460454009 -1.78009604540093 3.175
endloop
endfacet
facet normal 0.0 0.0 1.0
outer loop
vertex 15.2738460454009 -1.78009604540093 3.175
vertex 19.05 -17.4625 3.175
vertex 16.0306959855234 -0.793749999999997 3.175
endloop
endfacet
facet normal 0.0 0.0 1.0
outer loop
vertex 16.0306959855234 -0.793749999999997 3.175
vertex 19.05 -17.4625 3.175
vertex 16.5064717477017 0.354874297699246 3.175
endloop
endfacet
facet normal 0.0 0.0 1.0
outer loop
vertex 16.5064717477017 0.354874297699246 3.175
vertex 19.05 -17.4625 3.175
vertex 16.66875 1.5875 3.175
endloop
endfacet
facet normal 0.0 0.0 1.0
outer loop
vertex -19.05 12.7 3.175
vertex -13.1388757023008 6.18772174770169 3.175
vertex 19.05 12.7 3.175
endloop
endfacet
facet normal 0.0 0.0 1.0
outer loop
vertex -13.1388757023008 6.18772174770169 3.175
vertex -19.05 12.7 3.175
vertex -14.2875 5.71194598552339 3.175
endloop
endfacet
facet normal 0.0 0.0 1.0
outer loop
vertex -14.2875 5.71194598552339 3.175
vertex -19.05 12.7 3.175
vertex -15.2738460454009 4.95509604540093 3.175
endloop
endfacet
facet normal 0.0 0.0 1.0
outer loop
vertex -15.2738460454009 4.95509604540093 3.175
vertex -19.05 12.7 3.175
vertex -16.0306959855234 3.96875 3.175
endloop
endfacet
facet normal 0.0 0.0 1.0
outer loop
vertex -16.0306959855234 3.96875 3.175
vertex -19.05 12.7 3.175
vertex -16.5064717477017 2.82012570230075 3.175
endloop
endfacet
facet normal 0.0 0.0 1.0
outer loop
vertex -16.5064717477017 2.82012570230075 3.175
vertex -19.05 12.7 3.175
vertex -16.66875 1.5875 3.175
endloop
endfacet
facet normal 0.0 0.0 1.0
outer loop
vertex 19.05 12.7 3.175
vertex -13.1388757023008 6.18772174770169 3.175
vertex -11.90625 6.35 3.175
endloop
endfacet
facet normal 0.0 0.0 1.0
outer loop
vertex 19.05 12.7 3.175
vertex -11.90625 6.35 3.175
vertex -10.6736242976992 6.18772174770169 3.175
endloop
endfacet
facet normal 0.0 0.0 1.0
outer loop
vertex 19.05 12.7 3.175
vertex -10.6736242976992 6.18772174770169 3.175
vertex -9.525 5.71194598552339 3.175
endloop
endfacet
facet normal 0.0 0.0 1.0
outer loop
vertex 19.05 12.7 3.175
vertex -9.525 5.71194598552339 3.175
vertex -8.53865395459907 4.95509604540093 3.175
endloop
endfacet
facet normal 0.0 0.0 1.0
outer loop
vertex 19.05 12.7 3.175
vertex -8.53865395459907 4.95509604540093 3.175
vertex -7.78180401447661 3.96875 3.175
endloop
endfacet
facet normal 0.0 0.0 1.0
outer loop
vertex 19.05 12.7 3.175
vertex -7.78180401447661 3.96875 3.175
vertex -7.30602825229831 2.82012570230076 3.175
endloop
endfacet
facet normal 0.0 0.0 1.0
outer loop
vertex 19.05 12.7 3.175
vertex -7.30602825229831 2.82012570230076 3.175
vertex -7.14375 1.5875 3.175
endloop
endfacet
facet normal 0.0 0.0 1.0
outer loop
vertex 19.05 12.7 3.175
vertex -7.14375 1.5875 3.175
vertex 9.525 5.71194598552339 3.175
endloop
endfacet
facet normal 0.0 0.0 1.0
outer loop
vertex 9.525 5.71194598552339 3.175
vertex -7.14375 1.5875 3.175
vertex 8.53865395459907 4.95509604540093 3.175
endloop
endfacet
facet normal 0.0 0.0 1.0
outer loop
vertex 8.53865395459907 4.95509604540093 3.175
vertex -7.14375 1.5875 3.175
vertex -3.36759604540093 -6.15740395459907 3.175
endloop
endfacet
facet normal 0.0 0.0 1.0
outer loop
vertex -3.36759604540093 -6.15740395459907 3.175
vertex -7.14375 1.5875 3.175
vertex -4.12444598552339 -7.14375 3.175
endloop
endfacet
facet normal 0.0 0.0 1.0
outer loop
vertex -4.12444598552339 -7.14375 3.175
vertex -7.14375 1.5875 3.175
vertex -4.60022174770169 -8.29237429769925 3.175
endloop
endfacet
facet normal 0.0 0.0 1.0
outer loop
vertex -4.60022174770169 -8.29237429769925 3.175
vertex -7.14375 1.5875 3.175
vertex -4.7625 -9.525 3.175
endloop
endfacet
facet normal 0.0 0.0 1.0
outer loop
vertex 8.53865395459907 4.95509604540093 3.175
vertex -3.36759604540093 -6.15740395459907 3.175
vertex -2.38125 -5.40055401447661 3.175
endloop
endfacet
facet normal 0.0 0.0 1.0
outer loop
vertex 8.53865395459907 4.95509604540093 3.175
vertex -2.38125 -5.40055401447661 3.175
vertex -1.23262570230076 -4.92477825229831 3.175
endloop
endfacet
facet normal 0.0 0.0 1.0
outer loop
vertex 8.53865395459907 4.95509604540093 3.175
vertex -1.23262570230076 -4.92477825229831 3.175
vertex 0.0 -4.7625 3.175
endloop
endfacet
facet normal 0.0 0.0 1.0
outer loop
vertex 8.53865395459907 4.95509604540093 3.175
vertex 0.0 -4.7625 3.175
vertex 7.78180401447661 3.96875 3.175
endloop
endfacet
facet normal 0.0 0.0 1.0
outer loop
vertex 7.78180401447661 3.96875 3.175
vertex 0.0 -4.7625 3.175
vertex 1.23262570230075 -4.92477825229831 3.175
endloop
endfacet
facet normal 0.0 0.0 1.0
outer loop
vertex 7.78180401447661 3.96875 3.175
vertex 1.23262570230075 -4.92477825229831 3.175
vertex 2.38125 -5.40055401447661 3.175
endloop
endfacet
facet normal 0.0 0.0 1.0
outer loop
vertex 7.78180401447661 3.96875 3.175
vertex 2.38125 -5.40055401447661 3.175
vertex 3.36759604540093 -6.15740395459907 3.175
endloop
endfacet
facet normal 0.0 0.0 1.0
outer loop
vertex 7.78180401447661 3.96875 3.175
vertex 3.36759604540093 -6.15740395459907 3.175
vertex 7.30602825229831 2.82012570230075 3.175
endloop
endfacet
facet normal 0.0 0.0 1.0
outer loop
vertex 7.30602825229831 2.82012570230075 3.175
vertex 3.36759604540093 -6.15740395459907 3.175
vertex 4.12444598552339 -7.14375 3.175
endloop
endfacet
facet normal 0.0 0.0 1.0
outer loop
vertex 7.30602825229831 2.82012570230075 3.175
vertex 4.12444598552339 -7.14375 3.175
vertex 4.60022174770169 -8.29237429769924 3.175
endloop
endfacet
facet normal 0.0 0.0 1.0
outer loop
vertex 7.30602825229831 2.82012570230075 3.175
vertex 4.60022174770169 -8.29237429769924 3.175
vertex 4.7625 -9.525 3.175
endloop
endfacet
facet normal 0.0 0.0 1.0
outer loop
vertex 7.30602825229831 2.82012570230075 3.175
vertex 4.7625 -9.525 3.175
vertex 7.14375 1.5875 3.175
endloop
endfacet
facet normal 0.0 0.0 1.0
outer loop
vertex 19.05 12.7 3.175
vertex 9.525 5.71194598552339 3.175
vertex 10.6736242976992 6.18772174770169 3.175
endloop
endfacet
facet normal 0.0 0.0 1.0
outer loop
vertex 19.05 12.7 3.175
vertex 10.6736242976992 6.18772174770169 3.175
vertex 11.90625 6.35 3.175
endloop
endfacet
facet normal 0.0 0.0 1.0
outer loop
vertex 19.05 12.7 3.175
vertex 11.90625 6.35 3.175
vertex 13.1388757023007 6.18772174770169 3.175
endloop
endfacet
facet normal 0.0 0.0 1.0
outer loop
vertex 19.05 12.7 3.175
vertex 13.1388757023007 6.18772174770169 3.175
vertex 14.2875 5.71194598552339 3.175
endloop
endfacet
facet normal 0.0 0.0 1.0
outer loop
vertex 19.05 12.7 3.175
vertex 14.2875 5.71194598552339 3.175
vertex 15.2738460454009 4.95509604540093 3.175
endloop
endfacet
facet normal 0.0 0.0 1.0
outer loop
vertex 19.05 12.7 3.175
vertex 15.2738460454009 4.95509604540093 3.175
vertex 16.0306959855234 3.96875 3.175
endloop
endfacet
facet normal 0.0 0.0 1.0
outer loop
vertex 19.05 12.7 3.175
vertex 16.0306959855234 3.96875 3.175
vertex 16.5064717477017 2.82012570230076 3.175
endloop
endfacet
facet normal 0.0 0.0 1.0
outer loop
vertex 19.05 12.7 3.175
vertex 16.5064717477017 2.82012570230076 3.175
vertex 16.66875 1.5875 3.175
endloop
endfacet
facet normal 0.0 0.0 1.0
outer loop
vertex 19.05 12.7 3.175
vertex 16.66875 1.5875 3.175
vertex 19.05 -17.4625 3.175
endloop
endfacet
facet normal 0.0 1.0 0.0
outer loop
vertex -19.05 15.875 19.05
vertex 19.05 15.875 0.0
vertex -19.05 15.875 0.0
endloop
endfacet
facet normal 0.0 1.0 0.0
outer loop
vertex 19.05 15.875 0.0
vertex -19.05 15.875 19.05
vertex 19.05 15.875 19.05
endloop
endfacet
facet normal 0.707106781186548 -0.707106781186548 0.0
outer loop
vertex 8.53865395459907 4.95509604540093 0.0
vertex 7.78180401447661 3.96875 3.175
vertex 7.78180401447661 3.96875 0.0
endloop
endfacet
facet normal 0.866025403784438 -0.500000000000001 0.0
outer loop
vertex 7.78180401447661 3.96875 3.175
vertex 8.53865395459907 4.95509604540093 0.0
vertex 8.53865395459907 4.95509604540093 3.175
endloop
endfacet
facet normal -0.258819045102521 0.965925826289068 0.0
outer loop
vertex 13.1388757023008 -3.01272174770169 3.175
vertex 14.2875 -2.53694598552339 0.0
vertex 13.1388757023008 -3.01272174770169 0.0
endloop
endfacet
facet normal -0.5 0.866025403784439 0.0
outer loop
vertex 14.2875 -2.53694598552339 0.0
vertex 13.1388757023008 -3.01272174770169 3.175
vertex 14.2875 -2.53694598552339 3.175
endloop
endfacet
facet normal -1.0 1.60399978121644e-16 0.0
outer loop
vertex 16.66875 1.5875 3.175
vertex 16.5064717477017 0.354874297699246 0.0
vertex 16.5064717477017 0.354874297699246 3.175
endloop
endfacet
facet normal -0.965925826289068 0.258819045102521 0.0
outer loop
vertex 16.5064717477017 0.354874297699246 0.0
vertex 16.66875 1.5875 3.175
vertex 16.66875 1.5875 0.0
endloop
endfacet
facet normal 0.965925826289068 0.258819045102521 0.0
outer loop
vertex 7.30602825229831 0.354874297699244 0.0
vertex 7.78180401447661 -0.79375 3.175
vertex 7.78180401447661 -0.79375 0.0
endloop
endfacet
facet normal 0.866025403784439 0.5 0.0
outer loop
vertex 7.78180401447661 -0.79375 3.175
vertex 7.30602825229831 0.354874297699244 0.0
vertex 7.30602825229831 0.354874297699244 3.175
endloop
endfacet
facet normal 0.500000000000001 -0.866025403784438 0.0
outer loop
vertex 9.525 5.71194598552339 3.175
vertex 8.53865395459907 4.95509604540093 0.0
vertex 9.525 5.71194598552339 0.0
endloop
endfacet
facet normal 0.707106781186548 -0.707106781186548 0.0
outer loop
vertex 8.53865395459907 4.95509604540093 0.0
vertex 9.525 5.71194598552339 3.175
vertex 8.53865395459907 4.95509604540093 3.175
endloop
endfacet
facet normal -0.965925826289068 -0.258819045102521 0.0
outer loop
vertex 16.5064717477017 2.82012570230076 3.175
vertex 16.66875 1.5875 0.0
vertex 16.66875 1.5875 3.175
endloop
endfacet
facet normal -1.0 1.60399978121644e-16 0.0
outer loop
vertex 16.66875 1.5875 0.0
vertex 16.5064717477017 2.82012570230076 3.175
vertex 16.5064717477017 2.82012570230076 0.0
endloop
endfacet
facet normal 0.5 0.866025403784439 0.0
outer loop
vertex 9.525 -2.53694598552339 3.175
vertex 10.6736242976992 -3.01272174770169 0.0
vertex 9.525 -2.53694598552339 0.0
endloop
endfacet
facet normal 0.258819045102521 0.965925826289068 0.0
outer loop
vertex 10.6736242976992 -3.01272174770169 0.0
vertex 9.525 -2.53694598552339 3.175
vertex 10.6736242976992 -3.01272174770169 3.175
endloop
endfacet
facet normal 0.965925826289068 -0.258819045102521 0.0
outer loop
vertex 7.30602825229831 2.82012570230075 0.0
vertex 7.14375 1.5875 3.175
vertex 7.14375 1.5875 0.0
endloop
endfacet
facet normal 1.0 -7.12888791651752e-17 0.0
outer loop
vertex 7.14375 1.5875 3.175
vertex 7.30602825229831 2.82012570230075 0.0
vertex 7.30602825229831 2.82012570230075 3.175
endloop
endfacet
facet normal -0.866025403784439 0.5 0.0
outer loop
vertex 16.0306959855234 -0.793749999999997 3.175
vertex 15.2738460454009 -1.78009604540093 0.0
vertex 15.2738460454009 -1.78009604540093 3.175
endloop
endfacet
facet normal -0.707106781186548 0.707106781186547 0.0
outer loop
vertex 15.2738460454009 -1.78009604540093 0.0
vertex 16.0306959855234 -0.793749999999997 3.175
vertex 16.0306959855234 -0.793749999999997 0.0
endloop
endfacet
facet normal -0.707106781186547 -0.707106781186548 0.0
outer loop
vertex 15.2738460454009 4.95509604540093 3.175
vertex 16.0306959855234 3.96875 0.0
vertex 16.0306959855234 3.96875 3.175
endloop
endfacet
facet normal -0.866025403784438 -0.500000000000001 0.0
outer loop
vertex 16.0306959855234 3.96875 0.0
vertex 15.2738460454009 4.95509604540093 3.175
vertex 15.2738460454009 4.95509604540093 0.0
endloop
endfacet
facet normal -0.965925826289068 0.258819045102521 0.0
outer loop
vertex 16.5064717477017 0.354874297699246 3.175
vertex 16.0306959855234 -0.793749999999997 0.0
vertex 16.0306959855234 -0.793749999999997 3.175
endloop
endfacet
facet normal -0.866025403784439 0.5 0.0
outer loop
vertex 16.0306959855234 -0.793749999999997 0.0
vertex 16.5064717477017 0.354874297699246 3.175
vertex 16.5064717477017 0.354874297699246 0.0
endloop
endfacet
facet normal -0.707106781186547 -0.707106781186548 0.0
outer loop
vertex 15.2738460454009 4.95509604540093 3.175
vertex 14.2875 5.71194598552339 0.0
vertex 15.2738460454009 4.95509604540093 0.0
endloop
endfacet
facet normal -0.499999999999999 -0.866025403784439 0.0
outer loop
vertex 14.2875 5.71194598552339 0.0
vertex 15.2738460454009 4.95509604540093 3.175
vertex 14.2875 5.71194598552339 3.175
endloop
endfacet
facet normal 0.258819045102521 0.965925826289068 0.0
outer loop
vertex 10.6736242976992 -3.01272174770169 3.175
vertex 11.90625 -3.175 0.0
vertex 10.6736242976992 -3.01272174770169 0.0
endloop
endfacet
facet normal -5.61399923425755e-16 1.0 0.0
outer loop
vertex 11.90625 -3.175 0.0
vertex 10.6736242976992 -3.01272174770169 3.175
vertex 11.90625 -3.175 3.175
endloop
endfacet
facet normal -0.5 0.866025403784439 0.0
outer loop
vertex 14.2875 -2.53694598552339 3.175
vertex 15.2738460454009 -1.78009604540093 0.0
vertex 14.2875 -2.53694598552339 0.0
endloop
endfacet
facet normal -0.707106781186548 0.707106781186547 0.0
outer loop
vertex 15.2738460454009 -1.78009604540093 0.0
vertex 14.2875 -2.53694598552339 3.175
vertex 15.2738460454009 -1.78009604540093 3.175
endloop
endfacet
facet normal 0.866025403784439 0.5 0.0
outer loop
vertex 7.78180401447661 -0.79375 0.0
vertex 8.53865395459907 -1.78009604540093 3.175
vertex 8.53865395459907 -1.78009604540093 0.0
endloop
endfacet
facet normal 0.707106781186548 0.707106781186548 0.0
outer loop
vertex 8.53865395459907 -1.78009604540093 3.175
vertex 7.78180401447661 -0.79375 0.0
vertex 7.78180401447661 -0.79375 3.175
endloop
endfacet
facet normal 1.0 -7.12888791651752e-17 0.0
outer loop
vertex 7.14375 1.5875 0.0
vertex 7.30602825229831 0.354874297699244 3.175
vertex 7.30602825229831 0.354874297699244 0.0
endloop
endfacet
facet normal 0.965925826289068 0.258819045102521 0.0
outer loop
vertex 7.30602825229831 0.354874297699244 3.175
vertex 7.14375 1.5875 0.0
vertex 7.14375 1.5875 3.175
endloop
endfacet
facet normal -5.61399923425755e-16 1.0 0.0
outer loop
vertex 11.90625 -3.175 3.175
vertex 13.1388757023008 -3.01272174770169 0.0
vertex 11.90625 -3.175 0.0
endloop
endfacet
facet normal -0.258819045102521 0.965925826289068 0.0
outer loop
vertex 13.1388757023008 -3.01272174770169 0.0
vertex 11.90625 -3.175 3.175
vertex 13.1388757023008 -3.01272174770169 3.175
endloop
endfacet
facet normal -2.76244406765054e-16 -1.0 0.0
outer loop
vertex 11.90625 6.35 3.175
vertex 10.6736242976992 6.18772174770169 0.0
vertex 11.90625 6.35 0.0
endloop
endfacet
facet normal 0.258819045102521 -0.965925826289068 0.0
outer loop
vertex 10.6736242976992 6.18772174770169 0.0
vertex 11.90625 6.35 3.175
vertex 10.6736242976992 6.18772174770169 3.175
endloop
endfacet
facet normal 0.258819045102521 -0.965925826289068 0.0
outer loop
vertex 10.6736242976992 6.18772174770169 3.175
vertex 9.525 5.71194598552339 0.0
vertex 10.6736242976992 6.18772174770169 0.0
endloop
endfacet
facet normal 0.500000000000001 -0.866025403784438 0.0
outer loop
vertex 9.525 5.71194598552339 0.0
vertex 10.6736242976992 6.18772174770169 3.175
vertex 9.525 5.71194598552339 3.175
endloop
endfacet
facet normal -0.25881904510252 -0.965925826289068 0.0
outer loop
vertex 13.1388757023007 6.18772174770169 3.175
vertex 11.90625 6.35 0.0
vertex 13.1388757023007 6.18772174770169 0.0
endloop
endfacet
facet normal -2.76244406765054e-16 -1.0 0.0
outer loop
vertex 11.90625 6.35 0.0
vertex 13.1388757023007 6.18772174770169 3.175
vertex 11.90625 6.35 3.175
endloop
endfacet
facet normal -0.866025403784438 -0.500000000000001 0.0
outer loop
vertex 16.0306959855234 3.96875 3.175
vertex 16.5064717477017 2.82012570230076 0.0
vertex 16.5064717477017 2.82012570230076 3.175
endloop
endfacet
facet normal -0.965925826289068 -0.258819045102521 0.0
outer loop
vertex 16.5064717477017 2.82012570230076 0.0
vertex 16.0306959855234 3.96875 3.175
vertex 16.0306959855234 3.96875 0.0
endloop
endfacet
facet normal -0.965925826289068 -0.258819045102521 0.0
outer loop
vertex -7.30602825229831 2.82012570230076 3.175
vertex -7.14375 1.5875 0.0
vertex -7.14375 1.5875 3.175
endloop
endfacet
facet normal -1.0 -4.18822165095405e-16 0.0
outer loop
vertex -7.14375 1.5875 0.0
vertex -7.30602825229831 2.82012570230076 3.175
vertex -7.30602825229831 2.82012570230076 0.0
endloop
endfacet
facet normal -1.0 -4.18822165095405e-16 0.0
outer loop
vertex -7.14375 1.5875 3.175
vertex -7.30602825229831 0.354874297699246 0.0
vertex -7.30602825229831 0.354874297699246 3.175
endloop
endfacet
facet normal -0.965925826289069 0.25881904510252 0.0
outer loop
vertex -7.30602825229831 0.354874297699246 0.0
vertex -7.14375 1.5875 3.175
vertex -7.14375 1.5875 0.0
endloop
endfacet
facet normal -0.965925826289069 0.25881904510252 0.0
outer loop
vertex -7.30602825229831 0.354874297699246 3.175
vertex -7.78180401447661 -0.793749999999997 0.0
vertex -7.78180401447661 -0.793749999999997 3.175
endloop
endfacet
facet normal -0.866025403784439 0.5 0.0
outer loop
vertex -7.78180401447661 -0.793749999999997 0.0
vertex -7.30602825229831 0.354874297699246 3.175
vertex -7.30602825229831 0.354874297699246 0.0
endloop
endfacet
facet normal -0.866025403784439 0.5 0.0
outer loop
vertex -7.78180401447661 -0.793749999999997 3.175
vertex -8.53865395459907 -1.78009604540093 0.0
vertex -8.53865395459907 -1.78009604540093 3.175
endloop
endfacet
facet normal -0.707106781186548 0.707106781186547 0.0
outer loop
vertex -8.53865395459907 -1.78009604540093 0.0
vertex -7.78180401447661 -0.793749999999997 3.175
vertex -7.78180401447661 -0.793749999999997 0.0
endloop
endfacet
facet normal -0.500000000000001 0.866025403784438 0.0
outer loop
vertex -9.525 -2.53694598552339 3.175
vertex -8.53865395459907 -1.78009604540093 0.0
vertex -9.525 -2.53694598552339 0.0
endloop
endfacet
facet normal -0.707106781186548 0.707106781186547 0.0
outer loop
vertex -8.53865395459907 -1.78009604540093 0.0
vertex -9.525 -2.53694598552339 3.175
vertex -8.53865395459907 -1.78009604540093 3.175
endloop
endfacet
facet normal 0.0 -1.0 0.0
outer loop
vertex 19.05 12.7 19.05
vertex -19.05 12.7 3.175
vertex 19.05 12.7 3.175
endloop
endfacet
facet normal 0.0 -1.0 0.0
outer loop
vertex -19.05 12.7 3.175
vertex 19.05 12.7 19.05
vertex -19.05 12.7 19.05
endloop
endfacet
facet normal -0.258819045102521 0.965925826289068 0.0
outer loop
vertex -10.6736242976992 -3.01272174770169 3.175
vertex -9.525 -2.53694598552339 0.0
vertex -10.6736242976992 -3.01272174770169 0.0
endloop
endfacet
facet normal -0.500000000000001 0.866025403784438 0.0
outer loop
vertex -9.525 -2.53694598552339 0.0
vertex -10.6736242976992 -3.01272174770169 3.175
vertex -9.525 -2.53694598552339 3.175
endloop
endfacet
facet normal -3.29711066138935e-16 1.0 0.0
outer loop
vertex -11.90625 -3.175 3.175
vertex -10.6736242976992 -3.01272174770169 0.0
vertex -11.90625 -3.175 0.0
endloop
endfacet
facet normal -0.258819045102521 0.965925826289068 0.0
outer loop
vertex -10.6736242976992 -3.01272174770169 0.0
vertex -11.90625 -3.175 3.175
vertex -10.6736242976992 -3.01272174770169 3.175
endloop
endfacet
facet normal 0.258819045102521 0.965925826289068 0.0
outer loop
vertex -13.1388757023008 -3.01272174770169 3.175
vertex -11.90625 -3.175 0.0
vertex -13.1388757023008 -3.01272174770169 0.0
endloop
endfacet
facet normal -3.29711066138935e-16 1.0 0.0
outer loop
vertex -11.90625 -3.175 0.0
vertex -13.1388757023008 -3.01272174770169 3.175
vertex -11.90625 -3.175 3.175
endloop
endfacet
facet normal 0.0 0.0 1.0
outer loop
vertex 19.05 12.7 19.05
vertex -19.05 15.875 19.05
vertex -19.05 12.7 19.05
endloop
endfacet
facet normal 0.0 0.0 1.0
outer loop
vertex -19.05 15.875 19.05
vertex 19.05 12.7 19.05
vertex 19.05 15.875 19.05
endloop
endfacet
facet normal 0.5 0.866025403784439 0.0
outer loop
vertex -14.2875 -2.53694598552339 3.175
vertex -13.1388757023008 -3.01272174770169 0.0
vertex -14.2875 -2.53694598552339 0.0
endloop
endfacet
facet normal 0.258819045102521 0.965925826289068 0.0
outer loop
vertex -13.1388757023008 -3.01272174770169 0.0
vertex -14.2875 -2.53694598552339 3.175
vertex -13.1388757023008 -3.01272174770169 3.175
endloop
endfacet
facet normal 0.866025403784439 0.5 0.0
outer loop
vertex -16.0306959855234 -0.79375 0.0
vertex -15.2738460454009 -1.78009604540093 3.175
vertex -15.2738460454009 -1.78009604540093 0.0
endloop
endfacet
facet normal 0.707106781186548 0.707106781186547 0.0
outer loop
vertex -15.2738460454009 -1.78009604540093 3.175
vertex -16.0306959855234 -0.79375 0.0
vertex -16.0306959855234 -0.79375 3.175
endloop
endfacet
facet normal 0.965925826289068 -0.258819045102521 0.0
outer loop
vertex -4.60022174770169 -8.29237429769925 0.0
vertex -4.7625 -9.525 3.175
vertex -4.7625 -9.525 0.0
endloop
endfacet
facet normal 1.0 -8.01999890608221e-17 0.0
outer loop
vertex -4.7625 -9.525 3.175
vertex -4.60022174770169 -8.29237429769925 0.0
vertex -4.60022174770169 -8.29237429769925 3.175
endloop
endfacet
facet normal 0.707106781186548 0.707106781186547 0.0
outer loop
vertex -15.2738460454009 -1.78009604540093 3.175
vertex -14.2875 -2.53694598552339 0.0
vertex -15.2738460454009 -1.78009604540093 0.0
endloop
endfacet
facet normal 0.5 0.866025403784439 0.0
outer loop
vertex -14.2875 -2.53694598552339 0.0
vertex -15.2738460454009 -1.78009604540093 3.175
vertex -14.2875 -2.53694598552339 3.175
endloop
endfacet
facet normal 1.0 1.96044417704232e-16 0.0
outer loop
vertex -16.66875 1.5875 0.0
vertex -16.5064717477017 0.354874297699244 3.175
vertex -16.5064717477017 0.354874297699244 0.0
endloop
endfacet
facet normal 0.965925826289068 0.258819045102521 0.0
outer loop
vertex -16.5064717477017 0.354874297699244 3.175
vertex -16.66875 1.5875 0.0
vertex -16.66875 1.5875 3.175
endloop
endfacet
facet normal 0.965925826289069 -0.25881904510252 0.0
outer loop
vertex -16.5064717477017 2.82012570230075 0.0
vertex -16.66875 1.5875 3.175
vertex -16.66875 1.5875 0.0
endloop
endfacet
facet normal 1.0 1.96044417704232e-16 0.0
outer loop
vertex -16.66875 1.5875 3.175
vertex -16.5064717477017 2.82012570230075 0.0
vertex -16.5064717477017 2.82012570230075 3.175
endloop
endfacet
facet normal 0.965925826289068 0.258819045102521 0.0
outer loop
vertex -16.5064717477017 0.354874297699244 0.0
vertex -16.0306959855234 -0.79375 3.175
vertex -16.0306959855234 -0.79375 0.0
endloop
endfacet
facet normal 0.866025403784439 0.5 0.0
outer loop
vertex -16.0306959855234 -0.79375 3.175
vertex -16.5064717477017 0.354874297699244 0.0
vertex -16.5064717477017 0.354874297699244 3.175
endloop
endfacet
facet normal -0.707106781186547 -0.707106781186548 0.0
outer loop
vertex -8.53865395459907 4.95509604540093 3.175
vertex -9.525 5.71194598552339 0.0
vertex -8.53865395459907 4.95509604540093 0.0
endloop
endfacet
facet normal -0.5 -0.866025403784439 0.0
outer loop
vertex -9.525 5.71194598552339 0.0
vertex -8.53865395459907 4.95509604540093 3.175
vertex -9.525 5.71194598552339 3.175
endloop
endfacet
facet normal -0.707106781186547 -0.707106781186548 0.0
outer loop
vertex -8.53865395459907 4.95509604540093 3.175
vertex -7.78180401447661 3.96875 0.0
vertex -7.78180401447661 3.96875 3.175
endloop
endfacet
facet normal -0.866025403784439 -0.5 0.0
outer loop
vertex -7.78180401447661 3.96875 0.0
vertex -8.53865395459907 4.95509604540093 3.175
vertex -8.53865395459907 4.95509604540093 0.0
endloop
endfacet
facet normal -0.866025403784439 -0.5 0.0
outer loop
vertex -7.78180401447661 3.96875 3.175
vertex -7.30602825229831 2.82012570230076 0.0
vertex -7.30602825229831 2.82012570230076 3.175
endloop
endfacet
facet normal -0.965925826289068 -0.258819045102521 0.0
outer loop
vertex -7.30602825229831 2.82012570230076 0.0
vertex -7.78180401447661 3.96875 3.175
vertex -7.78180401447661 3.96875 0.0
endloop
endfacet
facet normal 0.258819045102521 -0.965925826289068 0.0
outer loop
vertex -1.23262570230076 -4.92477825229831 3.175
vertex -2.38125 -5.40055401447661 0.0
vertex -1.23262570230076 -4.92477825229831 0.0
endloop
endfacet
facet normal 0.500000000000001 -0.866025403784438 0.0
outer loop
vertex -2.38125 -5.40055401447661 0.0
vertex -1.23262570230076 -4.92477825229831 3.175
vertex -2.38125 -5.40055401447661 3.175
endloop
endfacet
facet normal -0.5 -0.866025403784439 0.0
outer loop
vertex -9.525 5.71194598552339 3.175
vertex -10.6736242976992 6.18772174770169 0.0
vertex -9.525 5.71194598552339 0.0
endloop
endfacet
facet normal -0.258819045102521 -0.965925826289068 0.0
outer loop
vertex -10.6736242976992 6.18772174770169 0.0
vertex -9.525 5.71194598552339 3.175
vertex -10.6736242976992 6.18772174770169 3.175
endloop
endfacet
facet normal -0.258819045102521 -0.965925826289068 0.0
outer loop
vertex -10.6736242976992 6.18772174770169 3.175
vertex -11.90625 6.35 0.0
vertex -10.6736242976992 6.18772174770169 0.0
endloop
endfacet
facet normal -1.51488868225997e-16 -1.0 0.0
outer loop
vertex -11.90625 6.35 0.0
vertex -10.6736242976992 6.18772174770169 3.175
vertex -11.90625 6.35 3.175
endloop
endfacet
facet normal -1.51488868225997e-16 -1.0 0.0
outer loop
vertex -11.90625 6.35 3.175
vertex -13.1388757023008 6.18772174770169 0.0
vertex -11.90625 6.35 0.0
endloop
endfacet
facet normal 0.258819045102521 -0.965925826289068 0.0
outer loop
vertex -13.1388757023008 6.18772174770169 0.0
vertex -11.90625 6.35 3.175
vertex -13.1388757023008 6.18772174770169 3.175
endloop
endfacet
facet normal 0.258819045102521 -0.965925826289068 0.0
outer loop
vertex -13.1388757023008 6.18772174770169 3.175
vertex -14.2875 5.71194598552339 0.0
vertex -13.1388757023008 6.18772174770169 0.0
endloop
endfacet
facet normal 0.500000000000001 -0.866025403784438 0.0
outer loop
vertex -14.2875 5.71194598552339 0.0
vertex -13.1388757023008 6.18772174770169 3.175
vertex -14.2875 5.71194598552339 3.175
endloop
endfacet
facet normal 0.500000000000001 -0.866025403784438 0.0
outer loop
vertex -14.2875 5.71194598552339 3.175
vertex -15.2738460454009 4.95509604540093 0.0
vertex -14.2875 5.71194598552339 0.0
endloop
endfacet
facet normal 0.707106781186548 -0.707106781186547 0.0
outer loop
vertex -15.2738460454009 4.95509604540093 0.0
vertex -14.2875 5.71194598552339 3.175
vertex -15.2738460454009 4.95509604540093 3.175
endloop
endfacet
facet normal 0.707106781186548 -0.707106781186547 0.0
outer loop
vertex -15.2738460454009 4.95509604540093 0.0
vertex -16.0306959855234 3.96875 3.175
vertex -16.0306959855234 3.96875 0.0
endloop
endfacet
facet normal 0.866025403784439 -0.5 0.0
outer loop
vertex -16.0306959855234 3.96875 3.175
vertex -15.2738460454009 4.95509604540093 0.0
vertex -15.2738460454009 4.95509604540093 3.175
endloop
endfacet
facet normal 0.866025403784439 -0.5 0.0
outer loop
vertex -16.0306959855234 3.96875 0.0
vertex -16.5064717477017 2.82012570230075 3.175
vertex -16.5064717477017 2.82012570230075 0.0
endloop
endfacet
facet normal 0.965925826289069 -0.25881904510252 0.0
outer loop
vertex -16.5064717477017 2.82012570230075 3.175
vertex -16.0306959855234 3.96875 0.0
vertex -16.0306959855234 3.96875 3.175
endloop
endfacet
facet normal -1.0 -7.12888791651753e-17 0.0
outer loop
vertex 4.7625 -9.525 3.175
vertex 4.60022174770169 -10.7576257023008 0.0
vertex 4.60022174770169 -10.7576257023008 3.175
endloop
endfacet
facet normal -0.965925826289068 0.258819045102521 0.0
outer loop
vertex 4.60022174770169 -10.7576257023008 0.0
vertex 4.7625 -9.525 3.175
vertex 4.7625 -9.525 0.0
endloop
endfacet
facet normal -0.965925826289068 -0.258819045102521 0.0
outer loop
vertex 4.60022174770169 -8.29237429769924 3.175
vertex 4.7625 -9.525 0.0
vertex 4.7625 -9.525 3.175
endloop
endfacet
facet normal -1.0 -7.12888791651753e-17 0.0
outer loop
vertex 4.7625 -9.525 0.0
vertex 4.60022174770169 -8.29237429769924 3.175
vertex 4.60022174770169 -8.29237429769924 0.0
endloop
endfacet
facet normal 0.965925826289068 0.258819045102521 0.0
outer loop
vertex -4.60022174770169 -10.7576257023008 0.0
vertex -4.12444598552339 -11.90625 3.175
vertex -4.12444598552339 -11.90625 0.0
endloop
endfacet
facet normal 0.866025403784438 0.500000000000001 0.0
outer loop
vertex -4.12444598552339 -11.90625 3.175
vertex -4.60022174770169 -10.7576257023008 0.0
vertex -4.60022174770169 -10.7576257023008 3.175
endloop
endfacet
facet normal 0.866025403784438 0.500000000000001 0.0
outer loop
vertex -4.12444598552339 -11.90625 0.0
vertex -3.36759604540093 -12.8925960454009 3.175
vertex -3.36759604540093 -12.8925960454009 0.0
endloop
endfacet
facet normal 0.707106781186548 0.707106781186548 0.0
outer loop
vertex -3.36759604540093 -12.8925960454009 3.175
vertex -4.12444598552339 -11.90625 0.0
vertex -4.12444598552339 -11.90625 3.175
endloop
endfacet
facet normal 1.0 -8.01999890608221e-17 0.0
outer loop
vertex -4.7625 -9.525 0.0
vertex -4.60022174770169 -10.7576257023008 3.175
vertex -4.60022174770169 -10.7576257023008 0.0
endloop
endfacet
facet normal 0.965925826289068 0.258819045102521 0.0
outer loop
vertex -4.60022174770169 -10.7576257023008 3.175
vertex -4.7625 -9.525 0.0
vertex -4.7625 -9.525 3.175
endloop
endfacet
facet normal 0.258819045102521 0.965925826289068 0.0
outer loop
vertex -1.23262570230076 -14.1252217477017 3.175
vertex 0.0 -14.2875 0.0
vertex -1.23262570230076 -14.1252217477017 0.0
endloop
endfacet
facet normal 1.60399978121644e-16 1.0 0.0
outer loop
vertex 0.0 -14.2875 0.0
vertex -1.23262570230076 -14.1252217477017 3.175
vertex 0.0 -14.2875 3.175
endloop
endfacet
facet normal 1.60399978121644e-16 1.0 0.0
outer loop
vertex 0.0 -14.2875 3.175
vertex 1.23262570230076 -14.1252217477017 0.0
vertex 0.0 -14.2875 0.0
endloop
endfacet
facet normal -0.258819045102521 0.965925826289068 0.0
outer loop
vertex 1.23262570230076 -14.1252217477017 0.0
vertex 0.0 -14.2875 3.175
vertex 1.23262570230076 -14.1252217477017 3.175
endloop
endfacet
facet normal -0.258819045102521 0.965925826289068 0.0
outer loop
vertex 1.23262570230076 -14.1252217477017 3.175
vertex 2.38125 -13.6494459855234 0.0
vertex 1.23262570230076 -14.1252217477017 0.0
endloop
endfacet
facet normal -0.500000000000001 0.866025403784438 0.0
outer loop
vertex 2.38125 -13.6494459855234 0.0
vertex 1.23262570230076 -14.1252217477017 3.175
vertex 2.38125 -13.6494459855234 3.175
endloop
endfacet
facet normal -0.500000000000001 0.866025403784438 0.0
outer loop
vertex 2.38125 -13.6494459855234 3.175
vertex 3.36759604540093 -12.8925960454009 0.0
vertex 2.38125 -13.6494459855234 0.0
endloop
endfacet
facet normal -0.707106781186548 0.707106781186547 0.0
outer loop
vertex 3.36759604540093 -12.8925960454009 0.0
vertex 2.38125 -13.6494459855234 3.175
vertex 3.36759604540093 -12.8925960454009 3.175
endloop
endfacet
facet normal -0.866025403784438 0.500000000000001 0.0
outer loop
vertex 4.12444598552339 -11.90625 3.175
vertex 3.36759604540093 -12.8925960454009 0.0
vertex 3.36759604540093 -12.8925960454009 3.175
endloop
endfacet
facet normal -0.707106781186548 0.707106781186547 0.0
outer loop
vertex 3.36759604540093 -12.8925960454009 0.0
vertex 4.12444598552339 -11.90625 3.175
vertex 4.12444598552339 -11.90625 0.0
endloop
endfacet
facet normal -0.965925826289068 0.258819045102521 0.0
outer loop
vertex 4.60022174770169 -10.7576257023008 3.175
vertex 4.12444598552339 -11.90625 0.0
vertex 4.12444598552339 -11.90625 3.175
endloop
endfacet
facet normal -0.866025403784438 0.500000000000001 0.0
outer loop
vertex 4.12444598552339 -11.90625 0.0
vertex 4.60022174770169 -10.7576257023008 3.175
vertex 4.60022174770169 -10.7576257023008 0.0
endloop
endfacet
facet normal 0.500000000000001 0.866025403784438 0.0
outer loop
vertex -2.38125 -13.6494459855234 3.175
vertex -1.23262570230076 -14.1252217477017 0.0
vertex -2.38125 -13.6494459855234 0.0
endloop
endfacet
facet normal 0.258819045102521 0.965925826289068 0.0
outer loop
vertex -1.23262570230076 -14.1252217477017 0.0
vertex -2.38125 -13.6494459855234 3.175
vertex -1.23262570230076 -14.1252217477017 3.175
endloop
endfacet
facet normal 0.707106781186548 0.707106781186548 0.0
outer loop
vertex -3.36759604540093 -12.8925960454009 3.175
vertex -2.38125 -13.6494459855234 0.0
vertex -3.36759604540093 -12.8925960454009 0.0
endloop
endfacet
facet normal 0.500000000000001 0.866025403784438 0.0
outer loop
vertex -2.38125 -13.6494459855234 0.0
vertex -3.36759604540093 -12.8925960454009 3.175
vertex -2.38125 -13.6494459855234 3.175
endloop
endfacet
facet normal -0.866025403784438 -0.500000000000001 0.0
outer loop
vertex 4.12444598552339 -7.14375 3.175
vertex 4.60022174770169 -8.29237429769924 0.0
vertex 4.60022174770169 -8.29237429769924 3.175
endloop
endfacet
facet normal -0.965925826289068 -0.258819045102521 0.0
outer loop
vertex 4.60022174770169 -8.29237429769924 0.0
vertex 4.12444598552339 -7.14375 3.175
vertex 4.12444598552339 -7.14375 0.0
endloop
endfacet
facet normal -0.707106781186547 -0.707106781186548 0.0
outer loop
vertex 3.36759604540093 -6.15740395459907 3.175
vertex 4.12444598552339 -7.14375 0.0
vertex 4.12444598552339 -7.14375 3.175
endloop
endfacet
facet normal -0.866025403784438 -0.500000000000001 0.0
outer loop
vertex 4.12444598552339 -7.14375 0.0
vertex 3.36759604540093 -6.15740395459907 3.175
vertex 3.36759604540093 -6.15740395459907 0.0
endloop
endfacet
facet normal -0.707106781186547 -0.707106781186548 0.0
outer loop
vertex 3.36759604540093 -6.15740395459907 3.175
vertex 2.38125 -5.40055401447661 0.0
vertex 3.36759604540093 -6.15740395459907 0.0
endloop
endfacet
facet normal -0.5 -0.866025403784439 0.0
outer loop
vertex 2.38125 -5.40055401447661 0.0
vertex 3.36759604540093 -6.15740395459907 3.175
vertex 2.38125 -5.40055401447661 3.175
endloop
endfacet
facet normal -0.5 -0.866025403784439 0.0
outer loop
vertex 2.38125 -5.40055401447661 3.175
vertex 1.23262570230075 -4.92477825229831 0.0
vertex 2.38125 -5.40055401447661 0.0
endloop
endfacet
facet normal -0.258819045102521 -0.965925826289068 0.0
outer loop
vertex 1.23262570230075 -4.92477825229831 0.0
vertex 2.38125 -5.40055401447661 3.175
vertex 1.23262570230075 -4.92477825229831 3.175
endloop
endfacet
facet normal -0.258819045102521 -0.965925826289068 0.0
outer loop
vertex 1.23262570230075 -4.92477825229831 3.175
vertex 0.0 -4.7625 0.0
vertex 1.23262570230075 -4.92477825229831 0.0
endloop
endfacet
facet normal -1.24755538539057e-16 -1.0 0.0
outer loop
vertex 0.0 -4.7625 0.0
vertex 1.23262570230075 -4.92477825229831 3.175
vertex 0.0 -4.7625 3.175
endloop
endfacet
facet normal -1.24755538539057e-16 -1.0 0.0
outer loop
vertex 0.0 -4.7625 3.175
vertex -1.23262570230076 -4.92477825229831 0.0
vertex 0.0 -4.7625 0.0
endloop
endfacet
facet normal 0.258819045102521 -0.965925826289068 0.0
outer loop
vertex -1.23262570230076 -4.92477825229831 0.0
vertex 0.0 -4.7625 3.175
vertex -1.23262570230076 -4.92477825229831 3.175
endloop
endfacet
facet normal -1.0 0.0 0.0
outer loop
vertex -19.05 15.875 19.05
vertex -19.05 12.7 3.175
vertex -19.05 12.7 19.05
endloop
endfacet
facet normal -1.0 0.0 0.0
outer loop
vertex -19.05 12.7 3.175
vertex -19.05 -17.4625 0.0
vertex -19.05 -17.4625 3.175
endloop
endfacet
facet normal -1.0 0.0 0.0
outer loop
vertex -19.05 -17.4625 0.0
vertex -19.05 12.7 3.175
vertex -19.05 15.875 0.0
endloop
endfacet
facet normal -1.0 0.0 0.0
outer loop
vertex -19.05 15.875 0.0
vertex -19.05 12.7 3.175
vertex -19.05 15.875 19.05
endloop
endfacet
facet normal 1.0 0.0 0.0
outer loop
vertex 19.05 15.875 0.0
vertex 19.05 -17.4625 3.175
vertex 19.05 -17.4625 0.0
endloop
endfacet
facet normal 1.0 0.0 0.0
outer loop
vertex 19.05 -17.4625 3.175
vertex 19.05 15.875 0.0
vertex 19.05 12.7 3.175
endloop
endfacet
facet normal 1.0 0.0 0.0
outer loop
vertex 19.05 12.7 3.175
vertex 19.05 15.875 0.0
vertex 19.05 12.7 19.05
endloop
endfacet
facet normal 1.0 0.0 0.0
outer loop
vertex 19.05 12.7 19.05
vertex 19.05 15.875 0.0
vertex 19.05 15.875 19.05
endloop
endfacet
facet normal 0.0 0.0 -1.0
outer loop
vertex -19.05 15.875 0.0
vertex -16.66875 1.5875 0.0
vertex -19.05 -17.4625 0.0
endloop
endfacet
facet normal 0.0 0.0 -1.0
outer loop
vertex -16.66875 1.5875 0.0
vertex -19.05 15.875 0.0
vertex -16.5064717477017 2.82012570230075 0.0
endloop
endfacet
facet normal 0.0 0.0 -1.0
outer loop
vertex -16.5064717477017 2.82012570230075 0.0
vertex -19.05 15.875 0.0
vertex -16.0306959855234 3.96875 0.0
endloop
endfacet
facet normal 0.0 0.0 -1.0
outer loop
vertex -16.0306959855234 3.96875 0.0
vertex -19.05 15.875 0.0
vertex -15.2738460454009 4.95509604540093 0.0
endloop
endfacet
facet normal 0.0 0.0 -1.0
outer loop
vertex -15.2738460454009 4.95509604540093 0.0
vertex -19.05 15.875 0.0
vertex -14.2875 5.71194598552339 0.0
endloop
endfacet
facet normal 0.0 0.0 -1.0
outer loop
vertex -14.2875 5.71194598552339 0.0
vertex -19.05 15.875 0.0
vertex -13.1388757023008 6.18772174770169 0.0
endloop
endfacet
facet normal 0.0 0.0 -1.0
outer loop
vertex -13.1388757023008 6.18772174770169 0.0
vertex -19.05 15.875 0.0
vertex 19.05 15.875 0.0
endloop
endfacet
facet normal 0.0 0.0 -1.0
outer loop
vertex -13.1388757023008 6.18772174770169 0.0
vertex 19.05 15.875 0.0
vertex -11.90625 6.35 0.0
endloop
endfacet
facet normal 0.0 0.0 -1.0
outer loop
vertex -11.90625 6.35 0.0
vertex 19.05 15.875 0.0
vertex -10.6736242976992 6.18772174770169 0.0
endloop
endfacet
facet normal 0.0 0.0 -1.0
outer loop
vertex -10.6736242976992 6.18772174770169 0.0
vertex 19.05 15.875 0.0
vertex -9.525 5.71194598552339 0.0
endloop
endfacet
facet normal 0.0 0.0 -1.0
outer loop
vertex -9.525 5.71194598552339 0.0
vertex 19.05 15.875 0.0
vertex -8.53865395459907 4.95509604540093 0.0
endloop
endfacet
facet normal 0.0 0.0 -1.0
outer loop
vertex -8.53865395459907 4.95509604540093 0.0
vertex 19.05 15.875 0.0
vertex -7.78180401447661 3.96875 0.0
endloop
endfacet
facet normal 0.0 0.0 -1.0
outer loop
vertex -7.78180401447661 3.96875 0.0
vertex 19.05 15.875 0.0
vertex -7.30602825229831 2.82012570230076 0.0
endloop
endfacet
facet normal 0.0 0.0 -1.0
outer loop
vertex -7.30602825229831 2.82012570230076 0.0
vertex 19.05 15.875 0.0
vertex -7.14375 1.5875 0.0
endloop
endfacet
facet normal 0.0 0.0 -1.0
outer loop
vertex -7.14375 1.5875 0.0
vertex 19.05 15.875 0.0
vertex -3.36759604540093 -6.15740395459907 0.0
endloop
endfacet
facet normal 0.0 0.0 -1.0
outer loop
vertex -7.14375 1.5875 0.0
vertex -3.36759604540093 -6.15740395459907 0.0
vertex -4.12444598552339 -7.14375 0.0
endloop
endfacet
facet normal 0.0 0.0 -1.0
outer loop
vertex -7.14375 1.5875 0.0
vertex -4.12444598552339 -7.14375 0.0
vertex -4.60022174770169 -8.29237429769925 0.0
endloop
endfacet
facet normal 0.0 0.0 -1.0
outer loop
vertex -7.14375 1.5875 0.0
vertex -4.60022174770169 -8.29237429769925 0.0
vertex -4.7625 -9.525 0.0
endloop
endfacet
facet normal 0.0 0.0 -1.0
outer loop
vertex -3.36759604540093 -6.15740395459907 0.0
vertex 19.05 15.875 0.0
vertex -2.38125 -5.40055401447661 0.0
endloop
endfacet
facet normal 0.0 0.0 -1.0
outer loop
vertex -2.38125 -5.40055401447661 0.0
vertex 19.05 15.875 0.0
vertex -1.23262570230076 -4.92477825229831 0.0
endloop
endfacet
facet normal 0.0 0.0 -1.0
outer loop
vertex -1.23262570230076 -4.92477825229831 0.0
vertex 19.05 15.875 0.0
vertex 8.53865395459907 4.95509604540093 0.0
endloop
endfacet
facet normal 0.0 0.0 -1.0
outer loop
vertex -1.23262570230076 -4.92477825229831 0.0
vertex 8.53865395459907 4.95509604540093 0.0
vertex 0.0 -4.7625 0.0
endloop
endfacet
facet normal 0.0 0.0 -1.0
outer loop
vertex 0.0 -4.7625 0.0
vertex 8.53865395459907 4.95509604540093 0.0
vertex 7.78180401447661 3.96875 0.0
endloop
endfacet
facet normal 0.0 0.0 -1.0
outer loop
vertex 0.0 -4.7625 0.0
vertex 7.78180401447661 3.96875 0.0
vertex 1.23262570230075 -4.92477825229831 0.0
endloop
endfacet
facet normal 0.0 0.0 -1.0
outer loop
vertex 1.23262570230075 -4.92477825229831 0.0
vertex 7.78180401447661 3.96875 0.0
vertex 2.38125 -5.40055401447661 0.0
endloop
endfacet
facet normal 0.0 0.0 -1.0
outer loop
vertex 2.38125 -5.40055401447661 0.0
vertex 7.78180401447661 3.96875 0.0
vertex 3.36759604540093 -6.15740395459907 0.0
endloop
endfacet
facet normal 0.0 0.0 -1.0
outer loop
vertex 3.36759604540093 -6.15740395459907 0.0
vertex 7.78180401447661 3.96875 0.0
vertex 7.30602825229831 2.82012570230075 0.0
endloop
endfacet
facet normal 0.0 0.0 -1.0
outer loop
vertex 3.36759604540093 -6.15740395459907 0.0
vertex 7.30602825229831 2.82012570230075 0.0
vertex 4.12444598552339 -7.14375 0.0
endloop
endfacet
facet normal 0.0 0.0 -1.0
outer loop
vertex 4.12444598552339 -7.14375 0.0
vertex 7.30602825229831 2.82012570230075 0.0
vertex 4.60022174770169 -8.29237429769924 0.0
endloop
endfacet
facet normal 0.0 0.0 -1.0
outer loop
vertex 4.60022174770169 -8.29237429769924 0.0
vertex 7.30602825229831 2.82012570230075 0.0
vertex 4.7625 -9.525 0.0
endloop
endfacet
facet normal 0.0 0.0 -1.0
outer loop
vertex 4.7625 -9.525 0.0
vertex 7.30602825229831 2.82012570230075 0.0
vertex 7.14375 1.5875 0.0
endloop
endfacet
facet normal 0.0 0.0 -1.0
outer loop
vertex 8.53865395459907 4.95509604540093 0.0
vertex 19.05 15.875 0.0
vertex 9.525 5.71194598552339 0.0
endloop
endfacet
facet normal 0.0 0.0 -1.0
outer loop
vertex 9.525 5.71194598552339 0.0
vertex 19.05 15.875 0.0
vertex 10.6736242976992 6.18772174770169 0.0
endloop
endfacet
facet normal 0.0 0.0 -1.0
outer loop
vertex 10.6736242976992 6.18772174770169 0.0
vertex 19.05 15.875 0.0
vertex 11.90625 6.35 0.0
endloop
endfacet
facet normal 0.0 0.0 -1.0
outer loop
vertex 11.90625 6.35 0.0
vertex 19.05 15.875 0.0
vertex 13.1388757023007 6.18772174770169 0.0
endloop
endfacet
facet normal 0.0 0.0 -1.0
outer loop
vertex 13.1388757023007 6.18772174770169 0.0
vertex 19.05 15.875 0.0
vertex 14.2875 5.71194598552339 0.0
endloop
endfacet
facet normal 0.0 0.0 -1.0
outer loop
vertex 14.2875 5.71194598552339 0.0
vertex 19.05 15.875 0.0
vertex 15.2738460454009 4.95509604540093 0.0
endloop
endfacet
facet normal 0.0 0.0 -1.0
outer loop
vertex 15.2738460454009 4.95509604540093 0.0
vertex 19.05 15.875 0.0
vertex 16.0306959855234 3.96875 0.0
endloop
endfacet
facet normal 0.0 0.0 -1.0
outer loop
vertex 16.0306959855234 3.96875 0.0
vertex 19.05 15.875 0.0
vertex 16.5064717477017 2.82012570230076 0.0
endloop
endfacet
facet normal 0.0 0.0 -1.0
outer loop
vertex 16.5064717477017 2.82012570230076 0.0
vertex 19.05 15.875 0.0
vertex 16.66875 1.5875 0.0
endloop
endfacet
facet normal 0.0 0.0 -1.0
outer loop
vertex -19.05 -17.4625 0.0
vertex -1.23262570230076 -14.1252217477017 0.0
vertex 19.05 -17.4625 0.0
endloop
endfacet
facet normal 0.0 0.0 -1.0
outer loop
vertex -1.23262570230076 -14.1252217477017 0.0
vertex -19.05 -17.4625 0.0
vertex -2.38125 -13.6494459855234 0.0
endloop
endfacet
facet normal 0.0 0.0 -1.0
outer loop
vertex -2.38125 -13.6494459855234 0.0
vertex -19.05 -17.4625 0.0
vertex -3.36759604540093 -12.8925960454009 0.0
endloop
endfacet
facet normal 0.0 0.0 -1.0
outer loop
vertex -3.36759604540093 -12.8925960454009 0.0
vertex -19.05 -17.4625 0.0
vertex -15.2738460454009 -1.78009604540093 0.0
endloop
endfacet
facet normal 0.0 0.0 -1.0
outer loop
vertex -15.2738460454009 -1.78009604540093 0.0
vertex -19.05 -17.4625 0.0
vertex -16.0306959855234 -0.79375 0.0
endloop
endfacet
facet normal 0.0 0.0 -1.0
outer loop
vertex -16.0306959855234 -0.79375 0.0
vertex -19.05 -17.4625 0.0
vertex -16.5064717477017 0.354874297699244 0.0
endloop
endfacet
facet normal 0.0 0.0 -1.0
outer loop
vertex -16.5064717477017 0.354874297699244 0.0
vertex -19.05 -17.4625 0.0
vertex -16.66875 1.5875 0.0
endloop
endfacet
facet normal 0.0 0.0 -1.0
outer loop
vertex -3.36759604540093 -12.8925960454009 0.0
vertex -15.2738460454009 -1.78009604540093 0.0
vertex -14.2875 -2.53694598552339 0.0
endloop
endfacet
facet normal 0.0 0.0 -1.0
outer loop
vertex -3.36759604540093 -12.8925960454009 0.0
vertex -14.2875 -2.53694598552339 0.0
vertex -13.1388757023008 -3.01272174770169 0.0
endloop
endfacet
facet normal 0.0 0.0 -1.0
outer loop
vertex -3.36759604540093 -12.8925960454009 0.0
vertex -13.1388757023008 -3.01272174770169 0.0
vertex -11.90625 -3.175 0.0
endloop
endfacet
facet normal 0.0 0.0 -1.0
outer loop
vertex -3.36759604540093 -12.8925960454009 0.0
vertex -11.90625 -3.175 0.0
vertex -4.12444598552339 -11.90625 0.0
endloop
endfacet
facet normal 0.0 0.0 -1.0
outer loop
vertex -4.12444598552339 -11.90625 0.0
vertex -11.90625 -3.175 0.0
vertex -10.6736242976992 -3.01272174770169 0.0
endloop
endfacet
facet normal 0.0 0.0 -1.0
outer loop
vertex -4.12444598552339 -11.90625 0.0
vertex -10.6736242976992 -3.01272174770169 0.0
vertex -9.525 -2.53694598552339 0.0
endloop
endfacet
facet normal 0.0 0.0 -1.0
outer loop
vertex -4.12444598552339 -11.90625 0.0
vertex -9.525 -2.53694598552339 0.0
vertex -8.53865395459907 -1.78009604540093 0.0
endloop
endfacet
facet normal 0.0 0.0 -1.0
outer loop
vertex -4.12444598552339 -11.90625 0.0
vertex -8.53865395459907 -1.78009604540093 0.0
vertex -4.60022174770169 -10.7576257023008 0.0
endloop
endfacet
facet normal 0.0 0.0 -1.0
outer loop
vertex -4.60022174770169 -10.7576257023008 0.0
vertex -8.53865395459907 -1.78009604540093 0.0
vertex -7.78180401447661 -0.793749999999997 0.0
endloop
endfacet
facet normal 0.0 0.0 -1.0
outer loop
vertex -4.60022174770169 -10.7576257023008 0.0
vertex -7.78180401447661 -0.793749999999997 0.0
vertex -7.30602825229831 0.354874297699246 0.0
endloop
endfacet
facet normal 0.0 0.0 -1.0
outer loop
vertex -4.60022174770169 -10.7576257023008 0.0
vertex -7.30602825229831 0.354874297699246 0.0
vertex -7.14375 1.5875 0.0
endloop
endfacet
facet normal 0.0 0.0 -1.0
outer loop
vertex -4.60022174770169 -10.7576257023008 0.0
vertex -7.14375 1.5875 0.0
vertex -4.7625 -9.525 0.0
endloop
endfacet
facet normal 0.0 0.0 -1.0
outer loop
vertex 19.05 -17.4625 0.0
vertex -1.23262570230076 -14.1252217477017 0.0
vertex 0.0 -14.2875 0.0
endloop
endfacet
facet normal 0.0 0.0 -1.0
outer loop
vertex 19.05 -17.4625 0.0
vertex 0.0 -14.2875 0.0
vertex 1.23262570230076 -14.1252217477017 0.0
endloop
endfacet
facet normal 0.0 0.0 -1.0
outer loop
vertex 19.05 -17.4625 0.0
vertex 1.23262570230076 -14.1252217477017 0.0
vertex 2.38125 -13.6494459855234 0.0
endloop
endfacet
facet normal 0.0 0.0 -1.0
outer loop
vertex 19.05 -17.4625 0.0
vertex 2.38125 -13.6494459855234 0.0
vertex 3.36759604540093 -12.8925960454009 0.0
endloop
endfacet
facet normal 0.0 0.0 -1.0
outer loop
vertex 19.05 -17.4625 0.0
vertex 3.36759604540093 -12.8925960454009 0.0
vertex 4.12444598552339 -11.90625 0.0
endloop
endfacet
facet normal 0.0 0.0 -1.0
outer loop
vertex 19.05 -17.4625 0.0
vertex 4.12444598552339 -11.90625 0.0
vertex 4.60022174770169 -10.7576257023008 0.0
endloop
endfacet
facet normal 0.0 0.0 -1.0
outer loop
vertex 19.05 -17.4625 0.0
vertex 4.60022174770169 -10.7576257023008 0.0
vertex 4.7625 -9.525 0.0
endloop
endfacet
facet normal 0.0 0.0 -1.0
outer loop
vertex 19.05 -17.4625 0.0
vertex 4.7625 -9.525 0.0
vertex 7.78180401447661 -0.79375 0.0
endloop
endfacet
facet normal 0.0 0.0 -1.0
outer loop
vertex 7.78180401447661 -0.79375 0.0
vertex 4.7625 -9.525 0.0
vertex 7.30602825229831 0.354874297699244 0.0
endloop
endfacet
facet normal 0.0 0.0 -1.0
outer loop
vertex 7.30602825229831 0.354874297699244 0.0
vertex 4.7625 -9.525 0.0
vertex 7.14375 1.5875 0.0
endloop
endfacet
facet normal 0.0 0.0 -1.0
outer loop
vertex 19.05 -17.4625 0.0
vertex 7.78180401447661 -0.79375 0.0
vertex 8.53865395459907 -1.78009604540093 0.0
endloop
endfacet
facet normal 0.0 0.0 -1.0
outer loop
vertex 19.05 -17.4625 0.0
vertex 8.53865395459907 -1.78009604540093 0.0
vertex 9.525 -2.53694598552339 0.0
endloop
endfacet
facet normal 0.0 0.0 -1.0
outer loop
vertex 19.05 -17.4625 0.0
vertex 9.525 -2.53694598552339 0.0
vertex 10.6736242976992 -3.01272174770169 0.0
endloop
endfacet
facet normal 0.0 0.0 -1.0
outer loop
vertex 19.05 -17.4625 0.0
vertex 10.6736242976992 -3.01272174770169 0.0
vertex 11.90625 -3.175 0.0
endloop
endfacet
facet normal 0.0 0.0 -1.0
outer loop
vertex 19.05 -17.4625 0.0
vertex 11.90625 -3.175 0.0
vertex 13.1388757023008 -3.01272174770169 0.0
endloop
endfacet
facet normal 0.0 0.0 -1.0
outer loop
vertex 19.05 -17.4625 0.0
vertex 13.1388757023008 -3.01272174770169 0.0
vertex 14.2875 -2.53694598552339 0.0
endloop
endfacet
facet normal 0.0 0.0 -1.0
outer loop
vertex 19.05 -17.4625 0.0
vertex 14.2875 -2.53694598552339 0.0
vertex 15.2738460454009 -1.78009604540093 0.0
endloop
endfacet
facet normal 0.0 0.0 -1.0
outer loop
vertex 19.05 -17.4625 0.0
vertex 15.2738460454009 -1.78009604540093 0.0
vertex 16.0306959855234 -0.793749999999997 0.0
endloop
endfacet
facet normal 0.0 0.0 -1.0
outer loop
vertex 19.05 -17.4625 0.0
vertex 16.0306959855234 -0.793749999999997 0.0
vertex 16.5064717477017 0.354874297699246 0.0
endloop
endfacet
facet normal 0.0 0.0 -1.0
outer loop
vertex 19.05 -17.4625 0.0
vertex 16.5064717477017 0.354874297699246 0.0
vertex 16.66875 1.5875 0.0
endloop
endfacet
facet normal 0.0 0.0 -1.0
outer loop
vertex 19.05 -17.4625 0.0
vertex 16.66875 1.5875 0.0
vertex 19.05 15.875 0.0
endloop
endfacet
facet normal 0.500000000000001 -0.866025403784438 0.0
outer loop
vertex -2.38125 -5.40055401447661 3.175
vertex -3.36759604540093 -6.15740395459907 0.0
vertex -2.38125 -5.40055401447661 0.0
endloop
endfacet
facet normal 0.707106781186548 -0.707106781186548 0.0
outer loop
vertex -3.36759604540093 -6.15740395459907 0.0
vertex -2.38125 -5.40055401447661 3.175
vertex -3.36759604540093 -6.15740395459907 3.175
endloop
endfacet
facet normal 0.707106781186548 -0.707106781186548 0.0
outer loop
vertex -3.36759604540093 -6.15740395459907 0.0
vertex -4.12444598552339 -7.14375 3.175
vertex -4.12444598552339 -7.14375 0.0
endloop
endfacet
facet normal 0.866025403784438 -0.500000000000001 0.0
outer loop
vertex -4.12444598552339 -7.14375 3.175
vertex -3.36759604540093 -6.15740395459907 0.0
vertex -3.36759604540093 -6.15740395459907 3.175
endloop
endfacet
facet normal 0.866025403784438 -0.500000000000001 0.0
outer loop
vertex -4.12444598552339 -7.14375 0.0
vertex -4.60022174770169 -8.29237429769925 3.175
vertex -4.60022174770169 -8.29237429769925 0.0
endloop
endfacet
facet normal 0.965925826289068 -0.258819045102521 0.0
outer loop
vertex -4.60022174770169 -8.29237429769925 3.175
vertex -4.12444598552339 -7.14375 0.0
vertex -4.12444598552339 -7.14375 3.175
endloop
endfacet
facet normal -0.499999999999999 -0.866025403784439 0.0
outer loop
vertex 14.2875 5.71194598552339 3.175
vertex 13.1388757023007 6.18772174770169 0.0
vertex 14.2875 5.71194598552339 0.0
endloop
endfacet
facet normal -0.25881904510252 -0.965925826289068 0.0
outer loop
vertex 13.1388757023007 6.18772174770169 0.0
vertex 14.2875 5.71194598552339 3.175
vertex 13.1388757023007 6.18772174770169 3.175
endloop
endfacet
facet normal 0.707106781186548 0.707106781186548 0.0
outer loop
vertex 8.53865395459907 -1.78009604540093 3.175
vertex 9.525 -2.53694598552339 0.0
vertex 8.53865395459907 -1.78009604540093 0.0
endloop
endfacet
facet normal 0.5 0.866025403784439 0.0
outer loop
vertex 9.525 -2.53694598552339 0.0
vertex 8.53865395459907 -1.78009604540093 3.175
vertex 9.525 -2.53694598552339 3.175
endloop
endfacet
facet normal 0.866025403784438 -0.500000000000001 0.0
outer loop
vertex 7.78180401447661 3.96875 0.0
vertex 7.30602825229831 2.82012570230075 3.175
vertex 7.30602825229831 2.82012570230075 0.0
endloop
endfacet
facet normal 0.965925826289068 -0.258819045102521 0.0
outer loop
vertex 7.30602825229831 2.82012570230075 3.175
vertex 7.78180401447661 3.96875 0.0
vertex 7.78180401447661 3.96875 3.175
endloop
endfacet
endsolid holes_for_power
