%
M48
M72
T01C0.0240
T02C0.0276
T03C0.0300
T04C0.0315
T05C0.0320
T06C0.0394
T07C0.0400
T08C0.0520
T09C0.0866
T10C0.1250
%
T01
X7101Y1106
X10101Y2106
X22601Y4106
X13601Y10106
X13601Y12106
X9601Y9606
X9101Y9606
X9101Y10106
X7101Y10606
X5101Y11606
X4601Y11606
X14101Y17106
X14601Y16606
X14101Y19106
X13601Y22106
X12101Y24106
X23101Y18106
X30101Y24106
T02
X27501Y24806
X27501Y25806
X33551Y25781
X33551Y24781
X20801Y24906
X20801Y25906
T03
X17685Y25306
X15717Y25306
X14185Y25206
X12217Y25206
X17017Y16106
X18985Y16106
X6785Y16206
X4817Y16206
X33117Y7606
X35085Y7606
T04
X25801Y7106
X24801Y7106
X23801Y7106
X22801Y7106
X21801Y7106
X20801Y7106
X19801Y7106
X18801Y7106
X18801Y3106
X19801Y3106
X20801Y3106
X21801Y3106
X22801Y3106
X23801Y3106
X24801Y3106
X25801Y3106
T05
X11401Y2806
X11401Y3806
X11401Y4806
X11401Y5806
X11401Y6806
X11401Y7806
X11401Y8806
X8401Y8806
X8401Y7806
X8401Y6806
X8401Y5806
X8401Y4806
X8401Y3806
X8401Y2806
X8401Y1806
X6301Y1806
X6301Y2806
X6301Y3806
X6301Y4806
X6301Y5806
X6301Y6806
X6301Y7806
X6301Y8806
X3301Y8806
X3301Y7806
X3301Y6806
X3301Y5806
X3301Y4806
X3301Y3806
X3301Y2806
X3301Y1806
X11401Y1806
X5801Y13406
X5801Y14406
X18101Y14406
X18101Y13406
X19201Y19906
X20201Y19906
X21201Y19906
X22201Y19906
X23201Y19906
X24201Y19906
X25201Y19906
X26201Y19906
X27201Y19906
X28201Y19906
X29201Y19906
X30201Y19906
X31201Y19906
X32201Y19906
X32201Y22906
X31201Y22906
X30201Y22906
X29201Y22906
X28201Y22906
X27201Y22906
X26201Y22906
X25201Y22906
X24201Y22906
X23201Y22906
X22201Y22906
X21201Y22906
X20201Y22906
X19201Y22906
X23051Y25406
X24951Y25406
T06
X38951Y6106
X38951Y4106
X44651Y4106
X44651Y5106
X44651Y6106
T07
X35681Y5496
X33121Y5496
X33121Y3716
X35681Y3716
X30101Y10406
X30101Y11406
X30101Y12406
X30101Y13406
X30101Y14406
X30101Y15406
X30101Y16406
X30101Y17406
X16416Y20126
X14636Y20126
X14636Y22686
X16416Y22686
T08
X9936Y22028
X8976Y21067
X6976Y21989
X4976Y21067
X3976Y22028
X4976Y25949
X5976Y25949
X7976Y25949
X8976Y25949
X37726Y22028
X38726Y21067
X40726Y21989
X42726Y21067
X43686Y22028
X42726Y25949
X41726Y25949
X39726Y25949
X38726Y25949
T09
X41701Y7706
X41701Y2506
T10
X1351Y1356
X46351Y1356
X46351Y26356
X1351Y26356
M30
