G75*
G70*
%OFA0B0*%
%FSLAX24Y24*%
%IPPOS*%
%LPD*%
%AMOC8*
5,1,8,0,0,1.08239X$1,22.5*
%
%ADD10C,0.0520*%
%ADD11C,0.0740*%
%ADD12C,0.0500*%
%ADD13C,0.0520*%
%ADD14C,0.0650*%
%ADD15C,0.0780*%
%ADD16OC8,0.0860*%
%ADD17OC8,0.0660*%
%ADD18C,0.0700*%
%ADD19C,0.0700*%
%ADD20R,0.1500X0.1500*%
%ADD21R,0.0650X0.0650*%
%ADD22C,0.0100*%
%ADD23C,0.0400*%
D10*
X002841Y002001D02*
X003361Y002001D01*
X003361Y003001D02*
X002841Y003001D01*
X002841Y004001D02*
X003361Y004001D01*
X003361Y005001D02*
X002841Y005001D01*
X002841Y006001D02*
X003361Y006001D01*
X003361Y007001D02*
X002841Y007001D01*
X002841Y008001D02*
X003361Y008001D01*
X003361Y009001D02*
X002841Y009001D01*
X005841Y009001D02*
X006361Y009001D01*
X008441Y009001D02*
X008961Y009001D01*
X008961Y008001D02*
X008441Y008001D01*
X006361Y008001D02*
X005841Y008001D01*
X005841Y007001D02*
X006361Y007001D01*
X008441Y007001D02*
X008961Y007001D01*
X008961Y006001D02*
X008441Y006001D01*
X006361Y006001D02*
X005841Y006001D01*
X005841Y005001D02*
X006361Y005001D01*
X008441Y005001D02*
X008961Y005001D01*
X008961Y004001D02*
X008441Y004001D01*
X006361Y004001D02*
X005841Y004001D01*
X005841Y003001D02*
X006361Y003001D01*
X008441Y003001D02*
X008961Y003001D01*
X008961Y002001D02*
X008441Y002001D01*
X006361Y002001D02*
X005841Y002001D01*
X011441Y002001D02*
X011961Y002001D01*
X011961Y003001D02*
X011441Y003001D01*
X011441Y004001D02*
X011961Y004001D01*
X011961Y005001D02*
X011441Y005001D01*
X011441Y006001D02*
X011961Y006001D01*
X011961Y007001D02*
X011441Y007001D01*
X011441Y008001D02*
X011961Y008001D01*
X011961Y009001D02*
X011441Y009001D01*
X015101Y010941D02*
X015101Y011461D01*
X016101Y011461D02*
X016101Y010941D01*
X017101Y010941D02*
X017101Y011461D01*
X018101Y011461D02*
X018101Y010941D01*
X019101Y010941D02*
X019101Y011461D01*
X020101Y011461D02*
X020101Y010941D01*
X021101Y010941D02*
X021101Y011461D01*
X022101Y011461D02*
X022101Y010941D01*
X023101Y010941D02*
X023101Y011461D01*
X024101Y011461D02*
X024101Y010941D01*
X025101Y010941D02*
X025101Y011461D01*
X026101Y011461D02*
X026101Y010941D01*
X027101Y010941D02*
X027101Y011461D01*
X028101Y011461D02*
X028101Y010941D01*
X028101Y013941D02*
X028101Y014461D01*
X027101Y014461D02*
X027101Y013941D01*
X026101Y013941D02*
X026101Y014461D01*
X025101Y014461D02*
X025101Y013941D01*
X024101Y013941D02*
X024101Y014461D01*
X023101Y014461D02*
X023101Y013941D01*
X022101Y013941D02*
X022101Y014461D01*
X021101Y014461D02*
X021101Y013941D01*
X020101Y013941D02*
X020101Y014461D01*
X019101Y014461D02*
X019101Y013941D01*
X018101Y013941D02*
X018101Y014461D01*
X017101Y014461D02*
X017101Y013941D01*
X016101Y013941D02*
X016101Y014461D01*
X015101Y014461D02*
X015101Y013941D01*
D11*
X013416Y014081D03*
X011636Y014081D03*
X011636Y011521D03*
X013416Y011521D03*
X020071Y016211D03*
X022631Y016211D03*
X022631Y017991D03*
X020071Y017991D03*
D12*
X017785Y017601D03*
X015817Y017601D03*
X015817Y016101D03*
X017785Y016101D03*
X027601Y015617D03*
X027601Y017585D03*
X020585Y009501D03*
X018617Y009501D03*
D13*
X024251Y009101D03*
X026151Y009101D03*
D14*
X028301Y009601D03*
X028301Y008601D03*
X031351Y008976D03*
X022201Y008701D03*
X022201Y009701D03*
D15*
X033226Y012894D02*
X033226Y013674D01*
X006976Y013674D02*
X006976Y012894D01*
D16*
X004976Y012362D03*
X003976Y013323D03*
X008976Y012362D03*
X009936Y013323D03*
X008976Y017244D03*
X007976Y017244D03*
X005976Y017244D03*
X004976Y017244D03*
X030226Y013323D03*
X031226Y012362D03*
X035226Y012362D03*
X036186Y013323D03*
X035226Y017244D03*
X034226Y017244D03*
X032226Y017244D03*
X031226Y017244D03*
D17*
X025101Y017601D03*
X025101Y016601D03*
D18*
X024801Y006101D03*
X025801Y006101D03*
X023801Y006101D03*
X022801Y006101D03*
X021801Y006101D03*
X020801Y006101D03*
X019801Y006101D03*
X018801Y006101D03*
X018801Y002101D03*
X019801Y002101D03*
X020801Y002101D03*
X021801Y002101D03*
X022801Y002101D03*
X023801Y002101D03*
X024801Y002101D03*
X025801Y002101D03*
D19*
X031901Y004201D02*
X032601Y004201D01*
X032601Y006201D02*
X031901Y006201D01*
X037601Y006201D02*
X038301Y006201D01*
X038301Y005201D02*
X037601Y005201D01*
X037601Y004201D02*
X038301Y004201D01*
D20*
X035001Y002601D03*
X035001Y007801D03*
D21*
X031351Y009976D03*
D22*
X031101Y009101D02*
X031351Y008976D01*
X031101Y009101D02*
X029101Y009101D01*
X033101Y013101D01*
X033226Y013284D01*
X035226Y012362D02*
X035101Y012101D01*
X035101Y011601D01*
X031601Y008101D01*
X019101Y008101D01*
X017601Y009601D01*
X018601Y009601D02*
X018617Y009501D01*
X018601Y009601D02*
X019601Y008601D01*
X021101Y008601D01*
X021601Y008601D02*
X022101Y008601D01*
X028301Y008601D01*
X028601Y008601D01*
X029101Y009101D01*
X028301Y009601D02*
X028101Y009601D01*
X027601Y009101D01*
X026151Y009101D01*
X026101Y009101D01*
X024101Y011101D01*
X024101Y011201D01*
X023101Y011201D02*
X023101Y009601D01*
X023601Y009601D01*
X024101Y009101D01*
X024251Y009101D01*
X023101Y009601D02*
X022101Y009601D01*
X022201Y009701D01*
X021601Y008601D02*
X020601Y009601D01*
X020585Y009501D01*
X019101Y010101D02*
X004101Y010101D01*
X003101Y009101D01*
X003101Y009001D01*
X005101Y007101D02*
X005601Y007601D01*
X006601Y007601D01*
X007101Y008101D01*
X008601Y008101D01*
X008701Y008001D01*
X010101Y007601D02*
X007101Y007601D01*
X006601Y007101D01*
X006101Y007101D01*
X006101Y007001D01*
X006601Y006601D02*
X006101Y006101D01*
X006101Y006001D01*
X006601Y005601D02*
X011101Y005601D01*
X011701Y005001D01*
X012101Y005101D01*
X012601Y004601D01*
X026601Y004601D01*
X027101Y005101D01*
X027601Y004601D02*
X027101Y004101D01*
X012101Y004101D01*
X011701Y004001D01*
X011101Y004601D01*
X006601Y004601D01*
X006101Y004101D01*
X006101Y004001D01*
X005101Y003601D02*
X023601Y003601D01*
X021601Y003101D02*
X021101Y002601D01*
X018601Y002601D01*
X017101Y001101D01*
X006101Y001101D01*
X004101Y003101D01*
X005101Y003601D02*
X005101Y007101D01*
X006601Y006601D02*
X009101Y006601D01*
X009601Y006101D01*
X011601Y006101D01*
X011701Y006001D01*
X011701Y007001D02*
X012101Y007101D01*
X025101Y007101D01*
X025601Y007101D02*
X025601Y006601D01*
X021601Y006601D01*
X021101Y006101D01*
X020801Y006101D01*
X023601Y005101D02*
X017101Y005101D01*
X015601Y006601D01*
X009601Y006601D01*
X009101Y007101D01*
X008701Y007001D01*
X010101Y007601D02*
X010601Y007101D01*
X011101Y007601D02*
X025101Y007601D01*
X025601Y007101D01*
X022201Y008701D02*
X022101Y008601D01*
X017601Y008601D02*
X011101Y008601D01*
X010601Y009101D01*
X009101Y009101D01*
X008701Y009001D01*
X010101Y008601D02*
X011101Y007601D01*
X010101Y008601D02*
X006601Y008601D01*
X006101Y008101D01*
X006101Y008001D01*
X006101Y009001D02*
X006101Y009101D01*
X006601Y009601D01*
X011101Y009601D01*
X011701Y009001D01*
X009101Y010601D02*
X002101Y010601D01*
X002101Y007101D01*
X003101Y006101D01*
X003101Y006001D01*
X001601Y005601D02*
X001601Y015601D01*
X018601Y015601D01*
X018601Y016101D02*
X019101Y015601D01*
X022101Y015601D01*
X022601Y016101D01*
X022631Y016211D01*
X021601Y017101D02*
X022601Y018101D01*
X022631Y017991D01*
X021601Y017101D02*
X018101Y017101D01*
X017601Y017601D01*
X017785Y017601D01*
X017785Y016101D02*
X017601Y016101D01*
X017785Y016101D02*
X018601Y016101D01*
X013601Y013101D02*
X012101Y014601D01*
X005101Y014601D01*
X004101Y013601D01*
X003976Y013323D01*
X006976Y013284D02*
X007101Y013101D01*
X008601Y011601D01*
X011601Y011601D01*
X011636Y011521D01*
X009101Y012101D02*
X008976Y012362D01*
X009101Y012101D02*
X015601Y012101D01*
X016101Y011601D01*
X016101Y011201D01*
X017101Y012601D02*
X030601Y012601D01*
X032601Y014601D01*
X034101Y014601D01*
X039101Y009601D01*
X039101Y004101D01*
X038101Y004101D01*
X037951Y004201D01*
X037101Y005601D02*
X037601Y006101D01*
X037951Y006201D01*
X037101Y005601D02*
X017101Y005601D01*
X016601Y006101D01*
X018601Y003101D02*
X021101Y003101D01*
X021601Y002601D02*
X021101Y002101D01*
X020801Y002101D01*
X021601Y002601D02*
X026601Y002601D01*
X026601Y002101D01*
X025101Y000601D01*
X006101Y000601D01*
X004601Y002101D01*
X005601Y002601D02*
X007101Y002601D01*
X008101Y001601D01*
X017101Y001601D01*
X018601Y003101D01*
X018601Y002101D02*
X018801Y002101D01*
X018601Y002101D02*
X017601Y001101D01*
X018101Y001101D02*
X018601Y001601D01*
X022101Y001601D01*
X022601Y002101D01*
X022801Y002101D01*
X011701Y003001D02*
X011601Y003101D01*
X011101Y002601D01*
X007601Y002601D01*
X007101Y003101D01*
X006101Y003101D01*
X006101Y003001D01*
X005601Y002601D02*
X003101Y005101D01*
X003101Y005001D01*
X003101Y004101D02*
X001601Y005601D01*
X003101Y007001D02*
X003101Y007101D01*
X004601Y005601D01*
X006101Y005101D02*
X006101Y005001D01*
X006101Y005101D02*
X006601Y005601D01*
X003101Y004101D02*
X003101Y004001D01*
X021101Y011201D02*
X021101Y011601D01*
X021601Y012101D01*
X031101Y012101D01*
X031226Y012362D01*
X030101Y013101D02*
X030226Y013323D01*
X030101Y013101D02*
X013601Y013101D01*
X011601Y015101D02*
X034601Y015101D01*
X036101Y013601D01*
X036186Y013323D01*
D23*
X025101Y007101D03*
X021101Y008601D03*
X019101Y010101D03*
X017601Y009601D03*
X017601Y008601D03*
X016601Y006101D03*
X010601Y007101D03*
X004601Y005601D03*
X004101Y003101D03*
X004601Y002101D03*
X017601Y001101D03*
X018101Y001101D03*
X021101Y003101D03*
X021601Y003101D03*
X023601Y003601D03*
X023601Y005101D03*
X027101Y005101D03*
X027601Y004601D03*
X009101Y010601D03*
X017101Y012601D03*
X011601Y015101D03*
X018601Y015601D03*
M02*
