G75*
G70*
%OFA0B0*%
%FSLAX24Y24*%
%IPPOS*%
%LPD*%
%AMOC8*
5,1,8,0,0,1.08239X$1,22.5*
%
%ADD10C,0.1330*%
%ADD11C,0.0600*%
%ADD12C,0.0820*%
%ADD13C,0.0580*%
%ADD14C,0.0600*%
%ADD15C,0.0730*%
%ADD16C,0.0860*%
%ADD17OC8,0.0940*%
%ADD18OC8,0.0740*%
%ADD19C,0.0780*%
%ADD20C,0.0780*%
%ADD21R,0.1580X0.1580*%
%ADD22R,0.0730X0.0730*%
%ADD23C,0.0480*%
D10*
X001351Y001351D03*
X038851Y001351D03*
X038851Y017601D03*
X001351Y017601D03*
D11*
X015101Y014461D02*
X015101Y013941D01*
X016101Y013941D02*
X016101Y014461D01*
X017101Y014461D02*
X017101Y013941D01*
X018101Y013941D02*
X018101Y014461D01*
X019101Y014461D02*
X019101Y013941D01*
X020101Y013941D02*
X020101Y014461D01*
X021101Y014461D02*
X021101Y013941D01*
X022101Y013941D02*
X022101Y014461D01*
X023101Y014461D02*
X023101Y013941D01*
X024101Y013941D02*
X024101Y014461D01*
X025101Y014461D02*
X025101Y013941D01*
X026101Y013941D02*
X026101Y014461D01*
X027101Y014461D02*
X027101Y013941D01*
X028101Y013941D02*
X028101Y014461D01*
X028101Y011461D02*
X028101Y010941D01*
X027101Y010941D02*
X027101Y011461D01*
X026101Y011461D02*
X026101Y010941D01*
X025101Y010941D02*
X025101Y011461D01*
X024101Y011461D02*
X024101Y010941D01*
X023101Y010941D02*
X023101Y011461D01*
X022101Y011461D02*
X022101Y010941D01*
X021101Y010941D02*
X021101Y011461D01*
X020101Y011461D02*
X020101Y010941D01*
X019101Y010941D02*
X019101Y011461D01*
X018101Y011461D02*
X018101Y010941D01*
X017101Y010941D02*
X017101Y011461D01*
X016101Y011461D02*
X016101Y010941D01*
X015101Y010941D02*
X015101Y011461D01*
X011961Y009001D02*
X011441Y009001D01*
X011441Y008001D02*
X011961Y008001D01*
X011961Y007001D02*
X011441Y007001D01*
X011441Y006001D02*
X011961Y006001D01*
X011961Y005001D02*
X011441Y005001D01*
X011441Y004001D02*
X011961Y004001D01*
X011961Y003001D02*
X011441Y003001D01*
X011441Y002001D02*
X011961Y002001D01*
X008961Y002001D02*
X008441Y002001D01*
X006361Y002001D02*
X005841Y002001D01*
X005841Y003001D02*
X006361Y003001D01*
X008441Y003001D02*
X008961Y003001D01*
X008961Y004001D02*
X008441Y004001D01*
X006361Y004001D02*
X005841Y004001D01*
X005841Y005001D02*
X006361Y005001D01*
X008441Y005001D02*
X008961Y005001D01*
X008961Y006001D02*
X008441Y006001D01*
X006361Y006001D02*
X005841Y006001D01*
X005841Y007001D02*
X006361Y007001D01*
X008441Y007001D02*
X008961Y007001D01*
X008961Y008001D02*
X008441Y008001D01*
X006361Y008001D02*
X005841Y008001D01*
X005841Y009001D02*
X006361Y009001D01*
X008441Y009001D02*
X008961Y009001D01*
X003361Y009001D02*
X002841Y009001D01*
X002841Y008001D02*
X003361Y008001D01*
X003361Y007001D02*
X002841Y007001D01*
X002841Y006001D02*
X003361Y006001D01*
X003361Y005001D02*
X002841Y005001D01*
X002841Y004001D02*
X003361Y004001D01*
X003361Y003001D02*
X002841Y003001D01*
X002841Y002001D02*
X003361Y002001D01*
D12*
X011636Y011521D03*
X013416Y011521D03*
X013416Y014081D03*
X011636Y014081D03*
X020071Y016211D03*
X022631Y016211D03*
X022631Y017991D03*
X020071Y017991D03*
D13*
X017785Y017601D03*
X015817Y017601D03*
X015817Y016101D03*
X017785Y016101D03*
X027601Y015617D03*
X027601Y017585D03*
X020585Y009501D03*
X018617Y009501D03*
D14*
X024251Y009101D03*
X026151Y009101D03*
D15*
X028301Y009601D03*
X028301Y008601D03*
X031351Y008976D03*
X022201Y008701D03*
X022201Y009701D03*
D16*
X033226Y012894D02*
X033226Y013674D01*
X006976Y013674D02*
X006976Y012894D01*
D17*
X004976Y012362D03*
X003976Y013323D03*
X008976Y012362D03*
X009936Y013323D03*
X008976Y017244D03*
X007976Y017244D03*
X005976Y017244D03*
X004976Y017244D03*
X030226Y013323D03*
X031226Y012362D03*
X035226Y012362D03*
X036186Y013323D03*
X035226Y017244D03*
X034226Y017244D03*
X032226Y017244D03*
X031226Y017244D03*
D18*
X025101Y017601D03*
X025101Y016601D03*
D19*
X024801Y006101D03*
X025801Y006101D03*
X023801Y006101D03*
X022801Y006101D03*
X021801Y006101D03*
X020801Y006101D03*
X019801Y006101D03*
X018801Y006101D03*
X018801Y002101D03*
X019801Y002101D03*
X020801Y002101D03*
X021801Y002101D03*
X022801Y002101D03*
X023801Y002101D03*
X024801Y002101D03*
X025801Y002101D03*
D20*
X031901Y004201D02*
X032601Y004201D01*
X032601Y006201D02*
X031901Y006201D01*
X037601Y006201D02*
X038301Y006201D01*
X038301Y005201D02*
X037601Y005201D01*
X037601Y004201D02*
X038301Y004201D01*
D21*
X035001Y002601D03*
X035001Y007801D03*
D22*
X031351Y009976D03*
D23*
X025101Y007101D03*
X021101Y008601D03*
X019101Y010101D03*
X017601Y009601D03*
X017601Y008601D03*
X016601Y006101D03*
X010601Y007101D03*
X004601Y005601D03*
X004101Y003101D03*
X004601Y002101D03*
X017601Y001101D03*
X018101Y001101D03*
X021101Y003101D03*
X021601Y003101D03*
X023601Y003601D03*
X023601Y005101D03*
X027101Y005101D03*
X027601Y004601D03*
X009101Y010601D03*
X017101Y012601D03*
X011601Y015101D03*
X018601Y015601D03*
M02*
