%
M48
M72
T01C0.0240
T02C0.0276
T03C0.0300
T04C0.0315
T05C0.0320
T06C0.0394
T07C0.0400
T08C0.0520
T09C0.0866
T10C0.1250
%
T01
X4601Y2101
X4101Y3101
X4601Y5601
X10601Y7101
X16601Y6101
X17601Y8601
X17601Y9601
X19101Y10101
X21101Y8601
X25101Y7101
X23601Y5101
X23601Y3601
X21601Y3101
X21101Y3101
X18101Y1101
X17601Y1101
X27101Y5101
X27601Y4601
X9101Y10601
X17101Y12601
X11601Y15101
X18601Y15601
T02
X31351Y9976
X31351Y8976
X28301Y8601
X28301Y9601
X22201Y9701
X22201Y8701
T03
X20585Y9501
X18617Y9501
X27601Y15617
X27601Y17585
X17785Y17601
X15817Y17601
X15817Y16101
X17785Y16101
T04
X18801Y6101
X19801Y6101
X20801Y6101
X21801Y6101
X22801Y6101
X23801Y6101
X24801Y6101
X25801Y6101
X25801Y2101
X24801Y2101
X23801Y2101
X22801Y2101
X21801Y2101
X20801Y2101
X19801Y2101
X18801Y2101
T05
X11701Y2001
X11701Y3001
X11701Y4001
X11701Y5001
X11701Y6001
X11701Y7001
X11701Y8001
X11701Y9001
X8701Y9001
X8701Y8001
X8701Y7001
X8701Y6001
X8701Y5001
X8701Y4001
X8701Y3001
X8701Y2001
X6101Y2001
X6101Y3001
X6101Y4001
X6101Y5001
X6101Y6001
X6101Y7001
X6101Y8001
X6101Y9001
X3101Y9001
X3101Y8001
X3101Y7001
X3101Y6001
X3101Y5001
X3101Y4001
X3101Y3001
X3101Y2001
X24251Y9101
X26151Y9101
X26101Y11201
X27101Y11201
X28101Y11201
X25101Y11201
X24101Y11201
X23101Y11201
X22101Y11201
X21101Y11201
X20101Y11201
X19101Y11201
X18101Y11201
X17101Y11201
X16101Y11201
X15101Y11201
X15101Y14201
X16101Y14201
X17101Y14201
X18101Y14201
X19101Y14201
X20101Y14201
X21101Y14201
X22101Y14201
X23101Y14201
X24101Y14201
X25101Y14201
X26101Y14201
X27101Y14201
X28101Y14201
X25101Y16601
X25101Y17601
T06
X32251Y6201
X32251Y4201
X37951Y4201
X37951Y5201
X37951Y6201
T07
X22631Y16211
X20071Y16211
X20071Y17991
X22631Y17991
X13416Y14081
X11636Y14081
X11636Y11521
X13416Y11521
T08
X9936Y13323
X8976Y12362
X6976Y13284
X4976Y12362
X3976Y13323
X4976Y17244
X5976Y17244
X7976Y17244
X8976Y17244
X30226Y13323
X31226Y12362
X33226Y13284
X35226Y12362
X36186Y13323
X35226Y17244
X34226Y17244
X32226Y17244
X31226Y17244
T09
X35001Y7801
X35001Y2601
T10
X1351Y1351
X38851Y1351
X38851Y17601
X1351Y17601
M30
