G75*
G70*
%OFA0B0*%
%FSLAX24Y24*%
%IPPOS*%
%LPD*%
%AMOC8*
5,1,8,0,0,1.08239X$1,22.5*
%
%ADD10C,0.0000*%
D10*
X000101Y000101D02*
X000101Y018851D01*
X040101Y018851D01*
X040101Y000101D01*
X000101Y000101D01*
X000726Y001351D02*
X000728Y001401D01*
X000734Y001450D01*
X000744Y001499D01*
X000757Y001546D01*
X000775Y001593D01*
X000796Y001638D01*
X000820Y001681D01*
X000848Y001722D01*
X000879Y001761D01*
X000913Y001797D01*
X000950Y001831D01*
X000990Y001861D01*
X001031Y001888D01*
X001075Y001912D01*
X001120Y001932D01*
X001167Y001948D01*
X001215Y001961D01*
X001264Y001970D01*
X001314Y001975D01*
X001363Y001976D01*
X001413Y001973D01*
X001462Y001966D01*
X001511Y001955D01*
X001558Y001941D01*
X001604Y001922D01*
X001649Y001900D01*
X001692Y001875D01*
X001732Y001846D01*
X001770Y001814D01*
X001806Y001780D01*
X001839Y001742D01*
X001868Y001702D01*
X001894Y001660D01*
X001917Y001616D01*
X001936Y001570D01*
X001952Y001523D01*
X001964Y001474D01*
X001972Y001425D01*
X001976Y001376D01*
X001976Y001326D01*
X001972Y001277D01*
X001964Y001228D01*
X001952Y001179D01*
X001936Y001132D01*
X001917Y001086D01*
X001894Y001042D01*
X001868Y001000D01*
X001839Y000960D01*
X001806Y000922D01*
X001770Y000888D01*
X001732Y000856D01*
X001692Y000827D01*
X001649Y000802D01*
X001604Y000780D01*
X001558Y000761D01*
X001511Y000747D01*
X001462Y000736D01*
X001413Y000729D01*
X001363Y000726D01*
X001314Y000727D01*
X001264Y000732D01*
X001215Y000741D01*
X001167Y000754D01*
X001120Y000770D01*
X001075Y000790D01*
X001031Y000814D01*
X000990Y000841D01*
X000950Y000871D01*
X000913Y000905D01*
X000879Y000941D01*
X000848Y000980D01*
X000820Y001021D01*
X000796Y001064D01*
X000775Y001109D01*
X000757Y001156D01*
X000744Y001203D01*
X000734Y001252D01*
X000728Y001301D01*
X000726Y001351D01*
X000726Y017601D02*
X000728Y017651D01*
X000734Y017700D01*
X000744Y017749D01*
X000757Y017796D01*
X000775Y017843D01*
X000796Y017888D01*
X000820Y017931D01*
X000848Y017972D01*
X000879Y018011D01*
X000913Y018047D01*
X000950Y018081D01*
X000990Y018111D01*
X001031Y018138D01*
X001075Y018162D01*
X001120Y018182D01*
X001167Y018198D01*
X001215Y018211D01*
X001264Y018220D01*
X001314Y018225D01*
X001363Y018226D01*
X001413Y018223D01*
X001462Y018216D01*
X001511Y018205D01*
X001558Y018191D01*
X001604Y018172D01*
X001649Y018150D01*
X001692Y018125D01*
X001732Y018096D01*
X001770Y018064D01*
X001806Y018030D01*
X001839Y017992D01*
X001868Y017952D01*
X001894Y017910D01*
X001917Y017866D01*
X001936Y017820D01*
X001952Y017773D01*
X001964Y017724D01*
X001972Y017675D01*
X001976Y017626D01*
X001976Y017576D01*
X001972Y017527D01*
X001964Y017478D01*
X001952Y017429D01*
X001936Y017382D01*
X001917Y017336D01*
X001894Y017292D01*
X001868Y017250D01*
X001839Y017210D01*
X001806Y017172D01*
X001770Y017138D01*
X001732Y017106D01*
X001692Y017077D01*
X001649Y017052D01*
X001604Y017030D01*
X001558Y017011D01*
X001511Y016997D01*
X001462Y016986D01*
X001413Y016979D01*
X001363Y016976D01*
X001314Y016977D01*
X001264Y016982D01*
X001215Y016991D01*
X001167Y017004D01*
X001120Y017020D01*
X001075Y017040D01*
X001031Y017064D01*
X000990Y017091D01*
X000950Y017121D01*
X000913Y017155D01*
X000879Y017191D01*
X000848Y017230D01*
X000820Y017271D01*
X000796Y017314D01*
X000775Y017359D01*
X000757Y017406D01*
X000744Y017453D01*
X000734Y017502D01*
X000728Y017551D01*
X000726Y017601D01*
X038226Y017601D02*
X038228Y017651D01*
X038234Y017700D01*
X038244Y017749D01*
X038257Y017796D01*
X038275Y017843D01*
X038296Y017888D01*
X038320Y017931D01*
X038348Y017972D01*
X038379Y018011D01*
X038413Y018047D01*
X038450Y018081D01*
X038490Y018111D01*
X038531Y018138D01*
X038575Y018162D01*
X038620Y018182D01*
X038667Y018198D01*
X038715Y018211D01*
X038764Y018220D01*
X038814Y018225D01*
X038863Y018226D01*
X038913Y018223D01*
X038962Y018216D01*
X039011Y018205D01*
X039058Y018191D01*
X039104Y018172D01*
X039149Y018150D01*
X039192Y018125D01*
X039232Y018096D01*
X039270Y018064D01*
X039306Y018030D01*
X039339Y017992D01*
X039368Y017952D01*
X039394Y017910D01*
X039417Y017866D01*
X039436Y017820D01*
X039452Y017773D01*
X039464Y017724D01*
X039472Y017675D01*
X039476Y017626D01*
X039476Y017576D01*
X039472Y017527D01*
X039464Y017478D01*
X039452Y017429D01*
X039436Y017382D01*
X039417Y017336D01*
X039394Y017292D01*
X039368Y017250D01*
X039339Y017210D01*
X039306Y017172D01*
X039270Y017138D01*
X039232Y017106D01*
X039192Y017077D01*
X039149Y017052D01*
X039104Y017030D01*
X039058Y017011D01*
X039011Y016997D01*
X038962Y016986D01*
X038913Y016979D01*
X038863Y016976D01*
X038814Y016977D01*
X038764Y016982D01*
X038715Y016991D01*
X038667Y017004D01*
X038620Y017020D01*
X038575Y017040D01*
X038531Y017064D01*
X038490Y017091D01*
X038450Y017121D01*
X038413Y017155D01*
X038379Y017191D01*
X038348Y017230D01*
X038320Y017271D01*
X038296Y017314D01*
X038275Y017359D01*
X038257Y017406D01*
X038244Y017453D01*
X038234Y017502D01*
X038228Y017551D01*
X038226Y017601D01*
X038226Y001351D02*
X038228Y001401D01*
X038234Y001450D01*
X038244Y001499D01*
X038257Y001546D01*
X038275Y001593D01*
X038296Y001638D01*
X038320Y001681D01*
X038348Y001722D01*
X038379Y001761D01*
X038413Y001797D01*
X038450Y001831D01*
X038490Y001861D01*
X038531Y001888D01*
X038575Y001912D01*
X038620Y001932D01*
X038667Y001948D01*
X038715Y001961D01*
X038764Y001970D01*
X038814Y001975D01*
X038863Y001976D01*
X038913Y001973D01*
X038962Y001966D01*
X039011Y001955D01*
X039058Y001941D01*
X039104Y001922D01*
X039149Y001900D01*
X039192Y001875D01*
X039232Y001846D01*
X039270Y001814D01*
X039306Y001780D01*
X039339Y001742D01*
X039368Y001702D01*
X039394Y001660D01*
X039417Y001616D01*
X039436Y001570D01*
X039452Y001523D01*
X039464Y001474D01*
X039472Y001425D01*
X039476Y001376D01*
X039476Y001326D01*
X039472Y001277D01*
X039464Y001228D01*
X039452Y001179D01*
X039436Y001132D01*
X039417Y001086D01*
X039394Y001042D01*
X039368Y001000D01*
X039339Y000960D01*
X039306Y000922D01*
X039270Y000888D01*
X039232Y000856D01*
X039192Y000827D01*
X039149Y000802D01*
X039104Y000780D01*
X039058Y000761D01*
X039011Y000747D01*
X038962Y000736D01*
X038913Y000729D01*
X038863Y000726D01*
X038814Y000727D01*
X038764Y000732D01*
X038715Y000741D01*
X038667Y000754D01*
X038620Y000770D01*
X038575Y000790D01*
X038531Y000814D01*
X038490Y000841D01*
X038450Y000871D01*
X038413Y000905D01*
X038379Y000941D01*
X038348Y000980D01*
X038320Y001021D01*
X038296Y001064D01*
X038275Y001109D01*
X038257Y001156D01*
X038244Y001203D01*
X038234Y001252D01*
X038228Y001301D01*
X038226Y001351D01*
M02*
