solid model
facet normal 0.965925826289069 -0.258819045102519 0.0
outer loop
vertex 11.9603427507661 9.93587523410025 0.0
vertex 11.90625 9.525 4.7625
vertex 11.90625 9.525 0.0
endloop
endfacet
facet normal 1.0 0.0 0.0
outer loop
vertex 11.90625 9.525 4.7625
vertex 11.9603427507661 9.93587523410025 0.0
vertex 11.9603427507661 9.93587523410025 4.7625
endloop
endfacet
facet normal 0.0 1.0 0.0
outer loop
vertex -14.2875 19.05 4.7625
vertex 20.6375 19.05 3.175
vertex -14.2875 19.05 3.175
endloop
endfacet
facet normal 0.0 1.0 0.0
outer loop
vertex 20.6375 19.05 3.175
vertex -14.2875 19.05 4.7625
vertex 20.6375 19.05 4.7625
endloop
endfacet
facet normal 1.0 0.0 0.0
outer loop
vertex 11.90625 9.525 0.0
vertex 11.9603427507661 9.11412476589975 4.7625
vertex 11.9603427507661 9.11412476589975 0.0
endloop
endfacet
facet normal 0.965925826289069 0.258819045102519 0.0
outer loop
vertex 11.9603427507661 9.11412476589975 4.7625
vertex 11.90625 9.525 0.0
vertex 11.90625 9.525 4.7625
endloop
endfacet
facet normal -0.965925826289068 -0.258819045102521 0.0
outer loop
vertex -5.6103427507661 9.93587523410025 4.7625
vertex -5.55625 9.525 0.0
vertex -5.55625 9.525 4.7625
endloop
endfacet
facet normal -1.0 0.0 0.0
outer loop
vertex -5.55625 9.525 0.0
vertex -5.6103427507661 9.93587523410025 4.7625
vertex -5.6103427507661 9.93587523410025 0.0
endloop
endfacet
facet normal 1.0 4.18822165095404e-16 0.0
outer loop
vertex -8.73125 9.525 0.0
vertex -8.6771572492339 9.11412476589975 4.7625
vertex -8.6771572492339 9.11412476589975 0.0
endloop
endfacet
facet normal 0.965925826289068 0.258819045102521 0.0
outer loop
vertex -8.6771572492339 9.11412476589975 4.7625
vertex -8.73125 9.525 0.0
vertex -8.73125 9.525 4.7625
endloop
endfacet
facet normal 0.0 1.0 0.0
outer loop
vertex -7.14375 7.9375 4.7625
vertex -6.73287476589975 7.9915927507661 0.0
vertex -7.14375 7.9375 0.0
endloop
endfacet
facet normal -0.258819045102523 0.965925826289068 0.0
outer loop
vertex -6.73287476589975 7.9915927507661 0.0
vertex -7.14375 7.9375 4.7625
vertex -6.73287476589975 7.9915927507661 4.7625
endloop
endfacet
facet normal 0.965925826289069 -0.25881904510252 0.0
outer loop
vertex -8.6771572492339 9.93587523410025 0.0
vertex -8.73125 9.525 4.7625
vertex -8.73125 9.525 0.0
endloop
endfacet
facet normal 1.0 4.18822165095404e-16 0.0
outer loop
vertex -8.73125 9.525 4.7625
vertex -8.6771572492339 9.93587523410025 0.0
vertex -8.6771572492339 9.93587523410025 4.7625
endloop
endfacet
facet normal 0.0 1.0 0.0
outer loop
vertex -14.2875 30.1625 3.175
vertex 20.6375 30.1625 0.0
vertex -14.2875 30.1625 0.0
endloop
endfacet
facet normal 0.0 1.0 0.0
outer loop
vertex 20.6375 30.1625 0.0
vertex -14.2875 30.1625 3.175
vertex 20.6375 30.1625 3.175
endloop
endfacet
facet normal 0.500000000000004 -0.866025403784436 0.0
outer loop
vertex -7.9375 10.8998153285078 4.7625
vertex -8.26628201513364 10.6475320151336 0.0
vertex -7.9375 10.8998153285078 0.0
endloop
endfacet
facet normal 0.707106781186547 -0.707106781186548 0.0
outer loop
vertex -8.26628201513364 10.6475320151336 0.0
vertex -7.9375 10.8998153285078 4.7625
vertex -8.26628201513364 10.6475320151336 4.7625
endloop
endfacet
facet normal -0.0 -1.0 -0.0
outer loop
vertex 17.4625 26.9875 3.175
vertex -11.1125 26.9875 0.0
vertex 17.4625 26.9875 0.0
endloop
endfacet
facet normal -0.0 -1.0 -0.0
outer loop
vertex -11.1125 26.9875 0.0
vertex 17.4625 26.9875 3.175
vertex -11.1125 26.9875 3.175
endloop
endfacet
facet normal 0.866025403784438 0.500000000000001 0.0
outer loop
vertex -8.5185653285078 8.73125 0.0
vertex -8.26628201513364 8.40246798486636 4.7625
vertex -8.26628201513364 8.40246798486636 0.0
endloop
endfacet
facet normal 0.707106781186547 0.707106781186548 0.0
outer loop
vertex -8.26628201513364 8.40246798486636 4.7625
vertex -8.5185653285078 8.73125 0.0
vertex -8.5185653285078 8.73125 4.7625
endloop
endfacet
facet normal -3.29711066138935e-16 -1.0 0.0
outer loop
vertex -7.14375 11.1125 4.7625
vertex -7.55462523410025 11.0584072492339 0.0
vertex -7.14375 11.1125 0.0
endloop
endfacet
facet normal 0.258819045102523 -0.965925826289068 0.0
outer loop
vertex -7.55462523410025 11.0584072492339 0.0
vertex -7.14375 11.1125 4.7625
vertex -7.55462523410025 11.0584072492339 4.7625
endloop
endfacet
facet normal 0.707106781186547 -0.707106781186548 0.0
outer loop
vertex -8.26628201513364 10.6475320151336 0.0
vertex -8.5185653285078 10.31875 4.7625
vertex -8.5185653285078 10.31875 0.0
endloop
endfacet
facet normal 0.866025403784438 -0.5 0.0
outer loop
vertex -8.5185653285078 10.31875 4.7625
vertex -8.26628201513364 10.6475320151336 0.0
vertex -8.26628201513364 10.6475320151336 4.7625
endloop
endfacet
facet normal 0.965925826289068 0.258819045102521 0.0
outer loop
vertex -8.6771572492339 9.11412476589975 0.0
vertex -8.5185653285078 8.73125 4.7625
vertex -8.5185653285078 8.73125 0.0
endloop
endfacet
facet normal 0.866025403784438 0.500000000000001 0.0
outer loop
vertex -8.5185653285078 8.73125 4.7625
vertex -8.6771572492339 9.11412476589975 0.0
vertex -8.6771572492339 9.11412476589975 4.7625
endloop
endfacet
facet normal -0.258819045102523 0.965925826289068 0.0
outer loop
vertex -6.73287476589975 7.9915927507661 4.7625
vertex -6.35 8.15018467149221 0.0
vertex -6.73287476589975 7.9915927507661 0.0
endloop
endfacet
facet normal -0.500000000000004 0.866025403784436 0.0
outer loop
vertex -6.35 8.15018467149221 0.0
vertex -6.73287476589975 7.9915927507661 4.7625
vertex -6.35 8.15018467149221 4.7625
endloop
endfacet
facet normal -0.707106781186546 -0.707106781186549 0.0
outer loop
vertex -6.02121798486635 10.6475320151336 4.7625
vertex -6.35 10.8998153285078 0.0
vertex -6.02121798486635 10.6475320151336 0.0
endloop
endfacet
facet normal -0.500000000000004 -0.866025403784437 0.0
outer loop
vertex -6.35 10.8998153285078 0.0
vertex -6.02121798486635 10.6475320151336 4.7625
vertex -6.35 10.8998153285078 4.7625
endloop
endfacet
facet normal 0.0 1.0 0.0
outer loop
vertex -11.1125 22.225 3.175
vertex 17.4625 22.225 0.0
vertex -11.1125 22.225 0.0
endloop
endfacet
facet normal 0.0 1.0 0.0
outer loop
vertex 17.4625 22.225 0.0
vertex -11.1125 22.225 3.175
vertex 17.4625 22.225 3.175
endloop
endfacet
facet normal 0.707106781186547 0.707106781186548 0.0
outer loop
vertex -8.26628201513364 8.40246798486636 4.7625
vertex -7.9375 8.15018467149221 0.0
vertex -8.26628201513364 8.40246798486636 0.0
endloop
endfacet
facet normal 0.500000000000004 0.866025403784436 0.0
outer loop
vertex -7.9375 8.15018467149221 0.0
vertex -8.26628201513364 8.40246798486636 4.7625
vertex -7.9375 8.15018467149221 4.7625
endloop
endfacet
facet normal 0.866025403784438 -0.5 0.0
outer loop
vertex -8.5185653285078 10.31875 0.0
vertex -8.6771572492339 9.93587523410025 4.7625
vertex -8.6771572492339 9.93587523410025 0.0
endloop
endfacet
facet normal 0.965925826289069 -0.25881904510252 0.0
outer loop
vertex -8.6771572492339 9.93587523410025 4.7625
vertex -8.5185653285078 10.31875 0.0
vertex -8.5185653285078 10.31875 4.7625
endloop
endfacet
facet normal -0.866025403784438 -0.500000000000001 0.0
outer loop
vertex -5.7689346714922 10.31875 4.7625
vertex -5.6103427507661 9.93587523410025 0.0
vertex -5.6103427507661 9.93587523410025 4.7625
endloop
endfacet
facet normal -0.965925826289068 -0.258819045102521 0.0
outer loop
vertex -5.6103427507661 9.93587523410025 0.0
vertex -5.7689346714922 10.31875 4.7625
vertex -5.7689346714922 10.31875 0.0
endloop
endfacet
facet normal -1.0 0.0 0.0
outer loop
vertex 17.4625 26.9875 3.175
vertex 17.4625 22.225 0.0
vertex 17.4625 22.225 3.175
endloop
endfacet
facet normal -1.0 0.0 0.0
outer loop
vertex 17.4625 22.225 0.0
vertex 17.4625 26.9875 3.175
vertex 17.4625 26.9875 0.0
endloop
endfacet
facet normal -0.866025403784438 0.500000000000001 0.0
outer loop
vertex -5.7689346714922 8.73125 4.7625
vertex -6.02121798486635 8.40246798486636 0.0
vertex -6.02121798486635 8.40246798486636 4.7625
endloop
endfacet
facet normal -0.707106781186546 0.707106781186549 0.0
outer loop
vertex -6.02121798486635 8.40246798486636 0.0
vertex -5.7689346714922 8.73125 4.7625
vertex -5.7689346714922 8.73125 0.0
endloop
endfacet
facet normal 1.0 0.0 0.0
outer loop
vertex -11.1125 26.9875 0.0
vertex -11.1125 22.225 3.175
vertex -11.1125 22.225 0.0
endloop
endfacet
facet normal 1.0 0.0 0.0
outer loop
vertex -11.1125 22.225 3.175
vertex -11.1125 26.9875 0.0
vertex -11.1125 26.9875 3.175
endloop
endfacet
facet normal 0.0 0.0 1.0
outer loop
vertex -14.2875 -22.225 4.7625
vertex -8.5185653285078 8.73125 4.7625
vertex -14.2875 19.05 4.7625
endloop
endfacet
facet normal 0.0 0.0 1.0
outer loop
vertex -8.5185653285078 8.73125 4.7625
vertex -14.2875 -22.225 4.7625
vertex -8.26628201513364 8.40246798486636 4.7625
endloop
endfacet
facet normal 0.0 0.0 1.0
outer loop
vertex -8.26628201513364 8.40246798486636 4.7625
vertex -14.2875 -22.225 4.7625
vertex 20.6375 -22.225 4.7625
endloop
endfacet
facet normal 0.0 0.0 1.0
outer loop
vertex -14.2875 19.05 4.7625
vertex -8.5185653285078 8.73125 4.7625
vertex -8.6771572492339 9.11412476589975 4.7625
endloop
endfacet
facet normal 0.0 0.0 1.0
outer loop
vertex -14.2875 19.05 4.7625
vertex -8.6771572492339 9.11412476589975 4.7625
vertex -8.73125 9.525 4.7625
endloop
endfacet
facet normal 0.0 0.0 1.0
outer loop
vertex -8.26628201513364 8.40246798486636 4.7625
vertex 20.6375 -22.225 4.7625
vertex -7.9375 8.15018467149221 4.7625
endloop
endfacet
facet normal 0.0 0.0 1.0
outer loop
vertex -7.9375 8.15018467149221 4.7625
vertex 20.6375 -22.225 4.7625
vertex -7.55462523410025 7.9915927507661 4.7625
endloop
endfacet
facet normal 0.0 0.0 1.0
outer loop
vertex -7.55462523410025 7.9915927507661 4.7625
vertex 20.6375 -22.225 4.7625
vertex -7.14375 7.9375 4.7625
endloop
endfacet
facet normal 0.0 0.0 1.0
outer loop
vertex -7.14375 7.9375 4.7625
vertex 20.6375 -22.225 4.7625
vertex -6.73287476589975 7.9915927507661 4.7625
endloop
endfacet
facet normal 0.0 0.0 1.0
outer loop
vertex -6.73287476589975 7.9915927507661 4.7625
vertex 20.6375 -22.225 4.7625
vertex -6.35 8.15018467149221 4.7625
endloop
endfacet
facet normal 0.0 0.0 1.0
outer loop
vertex -6.35 8.15018467149221 4.7625
vertex 20.6375 -22.225 4.7625
vertex -6.02121798486635 8.40246798486636 4.7625
endloop
endfacet
facet normal 0.0 0.0 1.0
outer loop
vertex -6.02121798486635 8.40246798486636 4.7625
vertex 20.6375 -22.225 4.7625
vertex -5.7689346714922 8.73125 4.7625
endloop
endfacet
facet normal 0.0 0.0 1.0
outer loop
vertex -5.7689346714922 8.73125 4.7625
vertex 20.6375 -22.225 4.7625
vertex -5.6103427507661 9.11412476589975 4.7625
endloop
endfacet
facet normal 0.0 0.0 1.0
outer loop
vertex -5.6103427507661 9.11412476589975 4.7625
vertex 20.6375 -22.225 4.7625
vertex -5.55625 9.525 4.7625
endloop
endfacet
facet normal 0.0 0.0 1.0
outer loop
vertex -5.55625 9.525 4.7625
vertex 20.6375 -22.225 4.7625
vertex 11.9603427507661 9.11412476589975 4.7625
endloop
endfacet
facet normal 0.0 0.0 1.0
outer loop
vertex -5.55625 9.525 4.7625
vertex 11.9603427507661 9.11412476589975 4.7625
vertex 11.90625 9.525 4.7625
endloop
endfacet
facet normal 0.0 0.0 1.0
outer loop
vertex 11.9603427507661 9.11412476589975 4.7625
vertex 20.6375 -22.225 4.7625
vertex 12.1189346714922 8.73125 4.7625
endloop
endfacet
facet normal 0.0 0.0 1.0
outer loop
vertex 12.1189346714922 8.73125 4.7625
vertex 20.6375 -22.225 4.7625
vertex 12.3712179848664 8.40246798486636 4.7625
endloop
endfacet
facet normal 0.0 0.0 1.0
outer loop
vertex 12.3712179848664 8.40246798486636 4.7625
vertex 20.6375 -22.225 4.7625
vertex 12.7 8.15018467149221 4.7625
endloop
endfacet
facet normal 0.0 0.0 1.0
outer loop
vertex 12.7 8.15018467149221 4.7625
vertex 20.6375 -22.225 4.7625
vertex 13.0828747658997 7.9915927507661 4.7625
endloop
endfacet
facet normal 0.0 0.0 1.0
outer loop
vertex 13.0828747658997 7.9915927507661 4.7625
vertex 20.6375 -22.225 4.7625
vertex 13.49375 7.9375 4.7625
endloop
endfacet
facet normal 0.0 0.0 1.0
outer loop
vertex 13.49375 7.9375 4.7625
vertex 20.6375 -22.225 4.7625
vertex 13.9046252341002 7.9915927507661 4.7625
endloop
endfacet
facet normal 0.0 0.0 1.0
outer loop
vertex 13.9046252341002 7.9915927507661 4.7625
vertex 20.6375 -22.225 4.7625
vertex 14.2875 8.15018467149221 4.7625
endloop
endfacet
facet normal 0.0 0.0 1.0
outer loop
vertex 14.2875 8.15018467149221 4.7625
vertex 20.6375 -22.225 4.7625
vertex 14.6162820151336 8.40246798486636 4.7625
endloop
endfacet
facet normal 0.0 0.0 1.0
outer loop
vertex 14.6162820151336 8.40246798486636 4.7625
vertex 20.6375 -22.225 4.7625
vertex 14.8685653285078 8.73125 4.7625
endloop
endfacet
facet normal 0.0 0.0 1.0
outer loop
vertex 14.8685653285078 8.73125 4.7625
vertex 20.6375 -22.225 4.7625
vertex 15.0271572492339 9.11412476589975 4.7625
endloop
endfacet
facet normal 0.0 0.0 1.0
outer loop
vertex 15.0271572492339 9.11412476589975 4.7625
vertex 20.6375 -22.225 4.7625
vertex 15.08125 9.525 4.7625
endloop
endfacet
facet normal 0.0 0.0 1.0
outer loop
vertex -14.2875 19.05 4.7625
vertex -7.55462523410025 11.0584072492339 4.7625
vertex 20.6375 19.05 4.7625
endloop
endfacet
facet normal 0.0 0.0 1.0
outer loop
vertex -7.55462523410025 11.0584072492339 4.7625
vertex -14.2875 19.05 4.7625
vertex -7.9375 10.8998153285078 4.7625
endloop
endfacet
facet normal 0.0 0.0 1.0
outer loop
vertex -7.9375 10.8998153285078 4.7625
vertex -14.2875 19.05 4.7625
vertex -8.26628201513364 10.6475320151336 4.7625
endloop
endfacet
facet normal 0.0 0.0 1.0
outer loop
vertex -8.26628201513364 10.6475320151336 4.7625
vertex -14.2875 19.05 4.7625
vertex -8.5185653285078 10.31875 4.7625
endloop
endfacet
facet normal 0.0 0.0 1.0
outer loop
vertex -8.5185653285078 10.31875 4.7625
vertex -14.2875 19.05 4.7625
vertex -8.6771572492339 9.93587523410025 4.7625
endloop
endfacet
facet normal 0.0 0.0 1.0
outer loop
vertex -8.6771572492339 9.93587523410025 4.7625
vertex -14.2875 19.05 4.7625
vertex -8.73125 9.525 4.7625
endloop
endfacet
facet normal 0.0 0.0 1.0
outer loop
vertex 20.6375 19.05 4.7625
vertex -7.55462523410025 11.0584072492339 4.7625
vertex -7.14375 11.1125 4.7625
endloop
endfacet
facet normal 0.0 0.0 1.0
outer loop
vertex 20.6375 19.05 4.7625
vertex -7.14375 11.1125 4.7625
vertex -6.73287476589975 11.0584072492339 4.7625
endloop
endfacet
facet normal 0.0 0.0 1.0
outer loop
vertex 20.6375 19.05 4.7625
vertex -6.73287476589975 11.0584072492339 4.7625
vertex -6.35 10.8998153285078 4.7625
endloop
endfacet
facet normal 0.0 0.0 1.0
outer loop
vertex 20.6375 19.05 4.7625
vertex -6.35 10.8998153285078 4.7625
vertex -6.02121798486635 10.6475320151336 4.7625
endloop
endfacet
facet normal 0.0 0.0 1.0
outer loop
vertex 20.6375 19.05 4.7625
vertex -6.02121798486635 10.6475320151336 4.7625
vertex -5.7689346714922 10.31875 4.7625
endloop
endfacet
facet normal 0.0 0.0 1.0
outer loop
vertex 20.6375 19.05 4.7625
vertex -5.7689346714922 10.31875 4.7625
vertex -5.6103427507661 9.93587523410025 4.7625
endloop
endfacet
facet normal 0.0 0.0 1.0
outer loop
vertex 20.6375 19.05 4.7625
vertex -5.6103427507661 9.93587523410025 4.7625
vertex -5.55625 9.525 4.7625
endloop
endfacet
facet normal 0.0 0.0 1.0
outer loop
vertex 20.6375 19.05 4.7625
vertex -5.55625 9.525 4.7625
vertex 12.3712179848664 10.6475320151336 4.7625
endloop
endfacet
facet normal 0.0 0.0 1.0
outer loop
vertex 12.3712179848664 10.6475320151336 4.7625
vertex -5.55625 9.525 4.7625
vertex 12.1189346714922 10.31875 4.7625
endloop
endfacet
facet normal 0.0 0.0 1.0
outer loop
vertex 12.1189346714922 10.31875 4.7625
vertex -5.55625 9.525 4.7625
vertex 11.9603427507661 9.93587523410025 4.7625
endloop
endfacet
facet normal 0.0 0.0 1.0
outer loop
vertex 11.9603427507661 9.93587523410025 4.7625
vertex -5.55625 9.525 4.7625
vertex 11.90625 9.525 4.7625
endloop
endfacet
facet normal 0.0 0.0 1.0
outer loop
vertex 20.6375 19.05 4.7625
vertex 12.3712179848664 10.6475320151336 4.7625
vertex 12.7 10.8998153285078 4.7625
endloop
endfacet
facet normal 0.0 0.0 1.0
outer loop
vertex 20.6375 19.05 4.7625
vertex 12.7 10.8998153285078 4.7625
vertex 13.0828747658997 11.0584072492339 4.7625
endloop
endfacet
facet normal 0.0 0.0 1.0
outer loop
vertex 20.6375 19.05 4.7625
vertex 13.0828747658997 11.0584072492339 4.7625
vertex 13.49375 11.1125 4.7625
endloop
endfacet
facet normal 0.0 0.0 1.0
outer loop
vertex 20.6375 19.05 4.7625
vertex 13.49375 11.1125 4.7625
vertex 13.9046252341002 11.0584072492339 4.7625
endloop
endfacet
facet normal 0.0 0.0 1.0
outer loop
vertex 20.6375 19.05 4.7625
vertex 13.9046252341002 11.0584072492339 4.7625
vertex 14.2875 10.8998153285078 4.7625
endloop
endfacet
facet normal 0.0 0.0 1.0
outer loop
vertex 20.6375 19.05 4.7625
vertex 14.2875 10.8998153285078 4.7625
vertex 14.6162820151336 10.6475320151336 4.7625
endloop
endfacet
facet normal 0.0 0.0 1.0
outer loop
vertex 20.6375 19.05 4.7625
vertex 14.6162820151336 10.6475320151336 4.7625
vertex 14.8685653285078 10.31875 4.7625
endloop
endfacet
facet normal 0.0 0.0 1.0
outer loop
vertex 20.6375 19.05 4.7625
vertex 14.8685653285078 10.31875 4.7625
vertex 15.0271572492339 9.93587523410025 4.7625
endloop
endfacet
facet normal 0.0 0.0 1.0
outer loop
vertex 20.6375 19.05 4.7625
vertex 15.0271572492339 9.93587523410025 4.7625
vertex 15.08125 9.525 4.7625
endloop
endfacet
facet normal 0.0 0.0 1.0
outer loop
vertex 20.6375 19.05 4.7625
vertex 15.08125 9.525 4.7625
vertex 20.6375 -22.225 4.7625
endloop
endfacet
facet normal -0.500000000000004 -0.866025403784437 0.0
outer loop
vertex -6.35 10.8998153285078 4.7625
vertex -6.73287476589975 11.0584072492339 0.0
vertex -6.35 10.8998153285078 0.0
endloop
endfacet
facet normal -0.258819045102523 -0.965925826289068 0.0
outer loop
vertex -6.73287476589975 11.0584072492339 0.0
vertex -6.35 10.8998153285078 4.7625
vertex -6.73287476589975 11.0584072492339 4.7625
endloop
endfacet
facet normal -0.965925826289069 0.25881904510252 0.0
outer loop
vertex -5.6103427507661 9.11412476589975 4.7625
vertex -5.7689346714922 8.73125 0.0
vertex -5.7689346714922 8.73125 4.7625
endloop
endfacet
facet normal -0.866025403784438 0.500000000000001 0.0
outer loop
vertex -5.7689346714922 8.73125 0.0
vertex -5.6103427507661 9.11412476589975 4.7625
vertex -5.6103427507661 9.11412476589975 0.0
endloop
endfacet
facet normal -0.500000000000004 0.866025403784436 0.0
outer loop
vertex -6.35 8.15018467149221 4.7625
vertex -6.02121798486635 8.40246798486636 0.0
vertex -6.35 8.15018467149221 0.0
endloop
endfacet
facet normal -0.707106781186546 0.707106781186549 0.0
outer loop
vertex -6.02121798486635 8.40246798486636 0.0
vertex -6.35 8.15018467149221 4.7625
vertex -6.02121798486635 8.40246798486636 4.7625
endloop
endfacet
facet normal -1.0 0.0 0.0
outer loop
vertex -14.2875 19.05 4.7625
vertex -14.2875 -22.225 0.0
vertex -14.2875 -22.225 4.7625
endloop
endfacet
facet normal -1.0 0.0 0.0
outer loop
vertex -14.2875 -22.225 0.0
vertex -14.2875 19.05 4.7625
vertex -14.2875 19.05 3.175
endloop
endfacet
facet normal -1.0 0.0 0.0
outer loop
vertex -14.2875 -22.225 0.0
vertex -14.2875 19.05 3.175
vertex -14.2875 30.1625 0.0
endloop
endfacet
facet normal -1.0 0.0 0.0
outer loop
vertex -14.2875 30.1625 0.0
vertex -14.2875 19.05 3.175
vertex -14.2875 30.1625 3.175
endloop
endfacet
facet normal -1.0 0.0 0.0
outer loop
vertex -5.55625 9.525 4.7625
vertex -5.6103427507661 9.11412476589975 0.0
vertex -5.6103427507661 9.11412476589975 4.7625
endloop
endfacet
facet normal -0.965925826289069 0.25881904510252 0.0
outer loop
vertex -5.6103427507661 9.11412476589975 0.0
vertex -5.55625 9.525 4.7625
vertex -5.55625 9.525 0.0
endloop
endfacet
facet normal -0.258819045102523 -0.965925826289068 0.0
outer loop
vertex -6.73287476589975 11.0584072492339 4.7625
vertex -7.14375 11.1125 0.0
vertex -6.73287476589975 11.0584072492339 0.0
endloop
endfacet
facet normal -3.29711066138935e-16 -1.0 0.0
outer loop
vertex -7.14375 11.1125 0.0
vertex -6.73287476589975 11.0584072492339 4.7625
vertex -7.14375 11.1125 4.7625
endloop
endfacet
facet normal 0.258819045102523 -0.965925826289068 0.0
outer loop
vertex -7.55462523410025 11.0584072492339 4.7625
vertex -7.9375 10.8998153285078 0.0
vertex -7.55462523410025 11.0584072492339 0.0
endloop
endfacet
facet normal 0.500000000000004 -0.866025403784436 0.0
outer loop
vertex -7.9375 10.8998153285078 0.0
vertex -7.55462523410025 11.0584072492339 4.7625
vertex -7.9375 10.8998153285078 4.7625
endloop
endfacet
facet normal -0.707106781186546 -0.707106781186549 0.0
outer loop
vertex -6.02121798486635 10.6475320151336 4.7625
vertex -5.7689346714922 10.31875 0.0
vertex -5.7689346714922 10.31875 4.7625
endloop
endfacet
facet normal -0.866025403784438 -0.500000000000001 0.0
outer loop
vertex -5.7689346714922 10.31875 0.0
vertex -6.02121798486635 10.6475320151336 4.7625
vertex -6.02121798486635 10.6475320151336 0.0
endloop
endfacet
facet normal 0.500000000000004 0.866025403784436 0.0
outer loop
vertex -7.9375 8.15018467149221 4.7625
vertex -7.55462523410025 7.9915927507661 0.0
vertex -7.9375 8.15018467149221 0.0
endloop
endfacet
facet normal 0.258819045102523 0.965925826289068 0.0
outer loop
vertex -7.55462523410025 7.9915927507661 0.0
vertex -7.9375 8.15018467149221 4.7625
vertex -7.55462523410025 7.9915927507661 4.7625
endloop
endfacet
facet normal 0.258819045102523 0.965925826289068 0.0
outer loop
vertex -7.55462523410025 7.9915927507661 4.7625
vertex -7.14375 7.9375 0.0
vertex -7.55462523410025 7.9915927507661 0.0
endloop
endfacet
facet normal 0.0 1.0 0.0
outer loop
vertex -7.14375 7.9375 0.0
vertex -7.55462523410025 7.9915927507661 4.7625
vertex -7.14375 7.9375 4.7625
endloop
endfacet
facet normal 1.0 0.0 0.0
outer loop
vertex 20.6375 30.1625 0.0
vertex 20.6375 -22.225 4.7625
vertex 20.6375 -22.225 0.0
endloop
endfacet
facet normal 1.0 0.0 0.0
outer loop
vertex 20.6375 -22.225 4.7625
vertex 20.6375 30.1625 0.0
vertex 20.6375 19.05 3.175
endloop
endfacet
facet normal 1.0 0.0 0.0
outer loop
vertex 20.6375 19.05 3.175
vertex 20.6375 30.1625 0.0
vertex 20.6375 30.1625 3.175
endloop
endfacet
facet normal 1.0 0.0 0.0
outer loop
vertex 20.6375 19.05 4.7625
vertex 20.6375 -22.225 4.7625
vertex 20.6375 19.05 3.175
endloop
endfacet
facet normal 0.0 -1.0 0.0
outer loop
vertex 20.6375 -22.225 4.7625
vertex -14.2875 -22.225 0.0
vertex 20.6375 -22.225 0.0
endloop
endfacet
facet normal 0.0 -1.0 0.0
outer loop
vertex -14.2875 -22.225 0.0
vertex 20.6375 -22.225 4.7625
vertex -14.2875 -22.225 4.7625
endloop
endfacet
facet normal 0.0 0.0 -1.0
outer loop
vertex -11.1125 22.225 0.0
vertex -8.6771572492339 9.93587523410025 0.0
vertex -8.73125 9.525 0.0
endloop
endfacet
facet normal 0.0 0.0 -1.0
outer loop
vertex -8.6771572492339 9.93587523410025 0.0
vertex -11.1125 22.225 0.0
vertex -8.5185653285078 10.31875 0.0
endloop
endfacet
facet normal 0.0 0.0 -1.0
outer loop
vertex -8.5185653285078 10.31875 0.0
vertex -11.1125 22.225 0.0
vertex -8.26628201513364 10.6475320151336 0.0
endloop
endfacet
facet normal 0.0 0.0 -1.0
outer loop
vertex -8.26628201513364 10.6475320151336 0.0
vertex -11.1125 22.225 0.0
vertex -7.9375 10.8998153285078 0.0
endloop
endfacet
facet normal 0.0 0.0 -1.0
outer loop
vertex -7.9375 10.8998153285078 0.0
vertex -11.1125 22.225 0.0
vertex 17.4625 22.225 0.0
endloop
endfacet
facet normal 0.0 0.0 -1.0
outer loop
vertex -7.9375 10.8998153285078 0.0
vertex 17.4625 22.225 0.0
vertex -7.55462523410025 11.0584072492339 0.0
endloop
endfacet
facet normal 0.0 0.0 -1.0
outer loop
vertex -7.55462523410025 11.0584072492339 0.0
vertex 17.4625 22.225 0.0
vertex -7.14375 11.1125 0.0
endloop
endfacet
facet normal 0.0 0.0 -1.0
outer loop
vertex -7.14375 11.1125 0.0
vertex 17.4625 22.225 0.0
vertex -6.73287476589975 11.0584072492339 0.0
endloop
endfacet
facet normal 0.0 0.0 -1.0
outer loop
vertex -6.73287476589975 11.0584072492339 0.0
vertex 17.4625 22.225 0.0
vertex -6.35 10.8998153285078 0.0
endloop
endfacet
facet normal 0.0 0.0 -1.0
outer loop
vertex -6.35 10.8998153285078 0.0
vertex 17.4625 22.225 0.0
vertex -6.02121798486635 10.6475320151336 0.0
endloop
endfacet
facet normal 0.0 0.0 -1.0
outer loop
vertex -6.02121798486635 10.6475320151336 0.0
vertex 17.4625 22.225 0.0
vertex -5.7689346714922 10.31875 0.0
endloop
endfacet
facet normal 0.0 0.0 -1.0
outer loop
vertex -5.7689346714922 10.31875 0.0
vertex 17.4625 22.225 0.0
vertex -5.6103427507661 9.93587523410025 0.0
endloop
endfacet
facet normal 0.0 0.0 -1.0
outer loop
vertex -5.6103427507661 9.93587523410025 0.0
vertex 17.4625 22.225 0.0
vertex -5.55625 9.525 0.0
endloop
endfacet
facet normal 0.0 0.0 -1.0
outer loop
vertex -5.55625 9.525 0.0
vertex 17.4625 22.225 0.0
vertex 12.1189346714922 10.31875 0.0
endloop
endfacet
facet normal 0.0 0.0 -1.0
outer loop
vertex -5.55625 9.525 0.0
vertex 12.1189346714922 10.31875 0.0
vertex 11.9603427507661 9.93587523410025 0.0
endloop
endfacet
facet normal 0.0 0.0 -1.0
outer loop
vertex -5.55625 9.525 0.0
vertex 11.9603427507661 9.93587523410025 0.0
vertex 11.90625 9.525 0.0
endloop
endfacet
facet normal 0.0 0.0 -1.0
outer loop
vertex 12.1189346714922 10.31875 0.0
vertex 17.4625 22.225 0.0
vertex 12.3712179848664 10.6475320151336 0.0
endloop
endfacet
facet normal 0.0 0.0 -1.0
outer loop
vertex 12.3712179848664 10.6475320151336 0.0
vertex 17.4625 22.225 0.0
vertex 12.7 10.8998153285078 0.0
endloop
endfacet
facet normal 0.0 0.0 -1.0
outer loop
vertex 12.7 10.8998153285078 0.0
vertex 17.4625 22.225 0.0
vertex 13.0828747658997 11.0584072492339 0.0
endloop
endfacet
facet normal 0.0 0.0 -1.0
outer loop
vertex 13.0828747658997 11.0584072492339 0.0
vertex 17.4625 22.225 0.0
vertex 13.49375 11.1125 0.0
endloop
endfacet
facet normal 0.0 0.0 -1.0
outer loop
vertex 13.49375 11.1125 0.0
vertex 17.4625 22.225 0.0
vertex 13.9046252341002 11.0584072492339 0.0
endloop
endfacet
facet normal 0.0 0.0 -1.0
outer loop
vertex 13.9046252341002 11.0584072492339 0.0
vertex 17.4625 22.225 0.0
vertex 14.2875 10.8998153285078 0.0
endloop
endfacet
facet normal 0.0 0.0 -1.0
outer loop
vertex 14.2875 10.8998153285078 0.0
vertex 17.4625 22.225 0.0
vertex 14.6162820151336 10.6475320151336 0.0
endloop
endfacet
facet normal 0.0 0.0 -1.0
outer loop
vertex 14.6162820151336 10.6475320151336 0.0
vertex 17.4625 22.225 0.0
vertex 14.8685653285078 10.31875 0.0
endloop
endfacet
facet normal 0.0 0.0 -1.0
outer loop
vertex 14.8685653285078 10.31875 0.0
vertex 17.4625 22.225 0.0
vertex 15.0271572492339 9.93587523410025 0.0
endloop
endfacet
facet normal 0.0 0.0 -1.0
outer loop
vertex 15.0271572492339 9.93587523410025 0.0
vertex 17.4625 22.225 0.0
vertex 15.08125 9.525 0.0
endloop
endfacet
facet normal 0.0 0.0 -1.0
outer loop
vertex -14.2875 30.1625 0.0
vertex -11.1125 26.9875 0.0
vertex -14.2875 -22.225 0.0
endloop
endfacet
facet normal 0.0 0.0 -1.0
outer loop
vertex -11.1125 26.9875 0.0
vertex -14.2875 30.1625 0.0
vertex 20.6375 30.1625 0.0
endloop
endfacet
facet normal 0.0 0.0 -1.0
outer loop
vertex -11.1125 26.9875 0.0
vertex 20.6375 30.1625 0.0
vertex 17.4625 26.9875 0.0
endloop
endfacet
facet normal 0.0 0.0 -1.0
outer loop
vertex 17.4625 26.9875 0.0
vertex 20.6375 30.1625 0.0
vertex 17.4625 22.225 0.0
endloop
endfacet
facet normal 0.0 0.0 -1.0
outer loop
vertex -14.2875 -22.225 0.0
vertex -8.26628201513364 8.40246798486636 0.0
vertex 20.6375 -22.225 0.0
endloop
endfacet
facet normal 0.0 0.0 -1.0
outer loop
vertex -8.26628201513364 8.40246798486636 0.0
vertex -14.2875 -22.225 0.0
vertex -8.5185653285078 8.73125 0.0
endloop
endfacet
facet normal 0.0 0.0 -1.0
outer loop
vertex -8.5185653285078 8.73125 0.0
vertex -14.2875 -22.225 0.0
vertex -8.6771572492339 9.11412476589975 0.0
endloop
endfacet
facet normal 0.0 0.0 -1.0
outer loop
vertex -8.6771572492339 9.11412476589975 0.0
vertex -14.2875 -22.225 0.0
vertex -11.1125 22.225 0.0
endloop
endfacet
facet normal 0.0 0.0 -1.0
outer loop
vertex -11.1125 22.225 0.0
vertex -14.2875 -22.225 0.0
vertex -11.1125 26.9875 0.0
endloop
endfacet
facet normal 0.0 0.0 -1.0
outer loop
vertex -8.6771572492339 9.11412476589975 0.0
vertex -11.1125 22.225 0.0
vertex -8.73125 9.525 0.0
endloop
endfacet
facet normal 0.0 0.0 -1.0
outer loop
vertex 20.6375 -22.225 0.0
vertex -8.26628201513364 8.40246798486636 0.0
vertex -7.9375 8.15018467149221 0.0
endloop
endfacet
facet normal 0.0 0.0 -1.0
outer loop
vertex 20.6375 -22.225 0.0
vertex -7.9375 8.15018467149221 0.0
vertex -7.55462523410025 7.9915927507661 0.0
endloop
endfacet
facet normal 0.0 0.0 -1.0
outer loop
vertex 20.6375 -22.225 0.0
vertex -7.55462523410025 7.9915927507661 0.0
vertex -7.14375 7.9375 0.0
endloop
endfacet
facet normal 0.0 0.0 -1.0
outer loop
vertex 20.6375 -22.225 0.0
vertex -7.14375 7.9375 0.0
vertex -6.73287476589975 7.9915927507661 0.0
endloop
endfacet
facet normal 0.0 0.0 -1.0
outer loop
vertex 20.6375 -22.225 0.0
vertex -6.73287476589975 7.9915927507661 0.0
vertex -6.35 8.15018467149221 0.0
endloop
endfacet
facet normal 0.0 0.0 -1.0
outer loop
vertex 20.6375 -22.225 0.0
vertex -6.35 8.15018467149221 0.0
vertex -6.02121798486635 8.40246798486636 0.0
endloop
endfacet
facet normal 0.0 0.0 -1.0
outer loop
vertex 20.6375 -22.225 0.0
vertex -6.02121798486635 8.40246798486636 0.0
vertex -5.7689346714922 8.73125 0.0
endloop
endfacet
facet normal 0.0 0.0 -1.0
outer loop
vertex 20.6375 -22.225 0.0
vertex -5.7689346714922 8.73125 0.0
vertex -5.6103427507661 9.11412476589975 0.0
endloop
endfacet
facet normal 0.0 0.0 -1.0
outer loop
vertex 20.6375 -22.225 0.0
vertex -5.6103427507661 9.11412476589975 0.0
vertex -5.55625 9.525 0.0
endloop
endfacet
facet normal 0.0 0.0 -1.0
outer loop
vertex 20.6375 -22.225 0.0
vertex -5.55625 9.525 0.0
vertex 11.9603427507661 9.11412476589975 0.0
endloop
endfacet
facet normal 0.0 0.0 -1.0
outer loop
vertex 11.9603427507661 9.11412476589975 0.0
vertex -5.55625 9.525 0.0
vertex 11.90625 9.525 0.0
endloop
endfacet
facet normal 0.0 0.0 -1.0
outer loop
vertex 20.6375 -22.225 0.0
vertex 11.9603427507661 9.11412476589975 0.0
vertex 12.1189346714922 8.73125 0.0
endloop
endfacet
facet normal 0.0 0.0 -1.0
outer loop
vertex 20.6375 -22.225 0.0
vertex 12.1189346714922 8.73125 0.0
vertex 12.3712179848664 8.40246798486636 0.0
endloop
endfacet
facet normal 0.0 0.0 -1.0
outer loop
vertex 20.6375 -22.225 0.0
vertex 12.3712179848664 8.40246798486636 0.0
vertex 12.7 8.15018467149221 0.0
endloop
endfacet
facet normal 0.0 0.0 -1.0
outer loop
vertex 20.6375 -22.225 0.0
vertex 12.7 8.15018467149221 0.0
vertex 13.0828747658997 7.9915927507661 0.0
endloop
endfacet
facet normal 0.0 0.0 -1.0
outer loop
vertex 20.6375 -22.225 0.0
vertex 13.0828747658997 7.9915927507661 0.0
vertex 13.49375 7.9375 0.0
endloop
endfacet
facet normal 0.0 0.0 -1.0
outer loop
vertex 20.6375 -22.225 0.0
vertex 13.49375 7.9375 0.0
vertex 13.9046252341002 7.9915927507661 0.0
endloop
endfacet
facet normal 0.0 0.0 -1.0
outer loop
vertex 20.6375 -22.225 0.0
vertex 13.9046252341002 7.9915927507661 0.0
vertex 14.2875 8.15018467149221 0.0
endloop
endfacet
facet normal 0.0 0.0 -1.0
outer loop
vertex 20.6375 -22.225 0.0
vertex 14.2875 8.15018467149221 0.0
vertex 14.6162820151336 8.40246798486636 0.0
endloop
endfacet
facet normal 0.0 0.0 -1.0
outer loop
vertex 20.6375 -22.225 0.0
vertex 14.6162820151336 8.40246798486636 0.0
vertex 14.8685653285078 8.73125 0.0
endloop
endfacet
facet normal 0.0 0.0 -1.0
outer loop
vertex 20.6375 -22.225 0.0
vertex 14.8685653285078 8.73125 0.0
vertex 15.0271572492339 9.11412476589975 0.0
endloop
endfacet
facet normal 0.0 0.0 -1.0
outer loop
vertex 20.6375 -22.225 0.0
vertex 15.0271572492339 9.11412476589975 0.0
vertex 15.08125 9.525 0.0
endloop
endfacet
facet normal 0.0 0.0 -1.0
outer loop
vertex 20.6375 -22.225 0.0
vertex 15.08125 9.525 0.0
vertex 17.4625 22.225 0.0
endloop
endfacet
facet normal 0.0 0.0 -1.0
outer loop
vertex 20.6375 -22.225 0.0
vertex 17.4625 22.225 0.0
vertex 20.6375 30.1625 0.0
endloop
endfacet
facet normal 0.707106781186546 0.707106781186549 0.0
outer loop
vertex 12.3712179848664 8.40246798486636 4.7625
vertex 12.7 8.15018467149221 0.0
vertex 12.3712179848664 8.40246798486636 0.0
endloop
endfacet
facet normal 0.500000000000003 0.866025403784437 0.0
outer loop
vertex 12.7 8.15018467149221 0.0
vertex 12.3712179848664 8.40246798486636 4.7625
vertex 12.7 8.15018467149221 4.7625
endloop
endfacet
facet normal 0.866025403784439 0.499999999999999 0.0
outer loop
vertex 12.1189346714922 8.73125 0.0
vertex 12.3712179848664 8.40246798486636 4.7625
vertex 12.3712179848664 8.40246798486636 0.0
endloop
endfacet
facet normal 0.707106781186546 0.707106781186549 0.0
outer loop
vertex 12.3712179848664 8.40246798486636 4.7625
vertex 12.1189346714922 8.73125 0.0
vertex 12.1189346714922 8.73125 4.7625
endloop
endfacet
facet normal 0.965925826289069 0.258819045102519 0.0
outer loop
vertex 11.9603427507661 9.11412476589975 0.0
vertex 12.1189346714922 8.73125 4.7625
vertex 12.1189346714922 8.73125 0.0
endloop
endfacet
facet normal 0.866025403784439 0.499999999999999 0.0
outer loop
vertex 12.1189346714922 8.73125 4.7625
vertex 11.9603427507661 9.11412476589975 0.0
vertex 11.9603427507661 9.11412476589975 4.7625
endloop
endfacet
facet normal 0.500000000000003 0.866025403784437 0.0
outer loop
vertex 12.7 8.15018467149221 4.7625
vertex 13.0828747658997 7.9915927507661 0.0
vertex 12.7 8.15018467149221 0.0
endloop
endfacet
facet normal 0.258819045102522 0.965925826289068 0.0
outer loop
vertex 13.0828747658997 7.9915927507661 0.0
vertex 12.7 8.15018467149221 4.7625
vertex 13.0828747658997 7.9915927507661 4.7625
endloop
endfacet
facet normal 0.258819045102522 0.965925826289068 0.0
outer loop
vertex 13.0828747658997 7.9915927507661 4.7625
vertex 13.49375 7.9375 0.0
vertex 13.0828747658997 7.9915927507661 0.0
endloop
endfacet
facet normal 4.45555494782345e-16 1.0 0.0
outer loop
vertex 13.49375 7.9375 0.0
vertex 13.0828747658997 7.9915927507661 4.7625
vertex 13.49375 7.9375 4.7625
endloop
endfacet
facet normal 4.45555494782345e-16 1.0 0.0
outer loop
vertex 13.49375 7.9375 4.7625
vertex 13.9046252341002 7.9915927507661 0.0
vertex 13.49375 7.9375 0.0
endloop
endfacet
facet normal -0.258819045102523 0.965925826289068 0.0
outer loop
vertex 13.9046252341002 7.9915927507661 0.0
vertex 13.49375 7.9375 4.7625
vertex 13.9046252341002 7.9915927507661 4.7625
endloop
endfacet
facet normal -0.258819045102523 0.965925826289068 0.0
outer loop
vertex 13.9046252341002 7.9915927507661 4.7625
vertex 14.2875 8.15018467149221 0.0
vertex 13.9046252341002 7.9915927507661 0.0
endloop
endfacet
facet normal -0.500000000000006 0.866025403784435 0.0
outer loop
vertex 14.2875 8.15018467149221 0.0
vertex 13.9046252341002 7.9915927507661 4.7625
vertex 14.2875 8.15018467149221 4.7625
endloop
endfacet
facet normal -0.500000000000006 0.866025403784435 0.0
outer loop
vertex 14.2875 8.15018467149221 4.7625
vertex 14.6162820151336 8.40246798486636 0.0
vertex 14.2875 8.15018467149221 0.0
endloop
endfacet
facet normal -0.707106781186548 0.707106781186548 0.0
outer loop
vertex 14.6162820151336 8.40246798486636 0.0
vertex 14.2875 8.15018467149221 4.7625
vertex 14.6162820151336 8.40246798486636 4.7625
endloop
endfacet
facet normal -0.866025403784436 0.500000000000005 0.0
outer loop
vertex 14.8685653285078 8.73125 4.7625
vertex 14.6162820151336 8.40246798486636 0.0
vertex 14.6162820151336 8.40246798486636 4.7625
endloop
endfacet
facet normal -0.707106781186548 0.707106781186548 0.0
outer loop
vertex 14.6162820151336 8.40246798486636 0.0
vertex 14.8685653285078 8.73125 4.7625
vertex 14.8685653285078 8.73125 0.0
endloop
endfacet
facet normal -0.965925826289068 0.258819045102522 0.0
outer loop
vertex 15.0271572492339 9.11412476589975 4.7625
vertex 14.8685653285078 8.73125 0.0
vertex 14.8685653285078 8.73125 4.7625
endloop
endfacet
facet normal -0.866025403784436 0.500000000000005 0.0
outer loop
vertex 14.8685653285078 8.73125 0.0
vertex 15.0271572492339 9.11412476589975 4.7625
vertex 15.0271572492339 9.11412476589975 0.0
endloop
endfacet
facet normal -1.0 0.0 0.0
outer loop
vertex 15.08125 9.525 4.7625
vertex 15.0271572492339 9.11412476589975 0.0
vertex 15.0271572492339 9.11412476589975 4.7625
endloop
endfacet
facet normal -0.965925826289068 0.258819045102522 0.0
outer loop
vertex 15.0271572492339 9.11412476589975 0.0
vertex 15.08125 9.525 4.7625
vertex 15.08125 9.525 0.0
endloop
endfacet
facet normal -0.965925826289068 -0.258819045102522 0.0
outer loop
vertex 15.0271572492339 9.93587523410025 4.7625
vertex 15.08125 9.525 0.0
vertex 15.08125 9.525 4.7625
endloop
endfacet
facet normal -1.0 0.0 0.0
outer loop
vertex 15.08125 9.525 0.0
vertex 15.0271572492339 9.93587523410025 4.7625
vertex 15.0271572492339 9.93587523410025 0.0
endloop
endfacet
facet normal -0.866025403784436 -0.500000000000005 0.0
outer loop
vertex 14.8685653285078 10.31875 4.7625
vertex 15.0271572492339 9.93587523410025 0.0
vertex 15.0271572492339 9.93587523410025 4.7625
endloop
endfacet
facet normal -0.965925826289068 -0.258819045102522 0.0
outer loop
vertex 15.0271572492339 9.93587523410025 0.0
vertex 14.8685653285078 10.31875 4.7625
vertex 14.8685653285078 10.31875 0.0
endloop
endfacet
facet normal -0.707106781186548 -0.707106781186548 0.0
outer loop
vertex 14.6162820151336 10.6475320151336 4.7625
vertex 14.8685653285078 10.31875 0.0
vertex 14.8685653285078 10.31875 4.7625
endloop
endfacet
facet normal -0.866025403784436 -0.500000000000005 0.0
outer loop
vertex 14.8685653285078 10.31875 0.0
vertex 14.6162820151336 10.6475320151336 4.7625
vertex 14.6162820151336 10.6475320151336 0.0
endloop
endfacet
facet normal -0.707106781186548 -0.707106781186548 0.0
outer loop
vertex 14.6162820151336 10.6475320151336 4.7625
vertex 14.2875 10.8998153285078 0.0
vertex 14.6162820151336 10.6475320151336 0.0
endloop
endfacet
facet normal -0.500000000000005 -0.866025403784436 0.0
outer loop
vertex 14.2875 10.8998153285078 0.0
vertex 14.6162820151336 10.6475320151336 4.7625
vertex 14.2875 10.8998153285078 4.7625
endloop
endfacet
facet normal -0.500000000000005 -0.866025403784436 0.0
outer loop
vertex 14.2875 10.8998153285078 4.7625
vertex 13.9046252341002 11.0584072492339 0.0
vertex 14.2875 10.8998153285078 0.0
endloop
endfacet
facet normal -0.258819045102522 -0.965925826289068 0.0
outer loop
vertex 13.9046252341002 11.0584072492339 0.0
vertex 14.2875 10.8998153285078 4.7625
vertex 13.9046252341002 11.0584072492339 4.7625
endloop
endfacet
facet normal -0.258819045102522 -0.965925826289068 0.0
outer loop
vertex 13.9046252341002 11.0584072492339 4.7625
vertex 13.49375 11.1125 0.0
vertex 13.9046252341002 11.0584072492339 0.0
endloop
endfacet
facet normal -4.45555494782345e-16 -1.0 0.0
outer loop
vertex 13.49375 11.1125 0.0
vertex 13.9046252341002 11.0584072492339 4.7625
vertex 13.49375 11.1125 4.7625
endloop
endfacet
facet normal -4.45555494782345e-16 -1.0 0.0
outer loop
vertex 13.49375 11.1125 4.7625
vertex 13.0828747658997 11.0584072492339 0.0
vertex 13.49375 11.1125 0.0
endloop
endfacet
facet normal 0.258819045102523 -0.965925826289068 0.0
outer loop
vertex 13.0828747658997 11.0584072492339 0.0
vertex 13.49375 11.1125 4.7625
vertex 13.0828747658997 11.0584072492339 4.7625
endloop
endfacet
facet normal 0.258819045102523 -0.965925826289068 0.0
outer loop
vertex 13.0828747658997 11.0584072492339 4.7625
vertex 12.7 10.8998153285078 0.0
vertex 13.0828747658997 11.0584072492339 0.0
endloop
endfacet
facet normal 0.500000000000004 -0.866025403784436 0.0
outer loop
vertex 12.7 10.8998153285078 0.0
vertex 13.0828747658997 11.0584072492339 4.7625
vertex 12.7 10.8998153285078 4.7625
endloop
endfacet
facet normal 0.500000000000004 -0.866025403784436 0.0
outer loop
vertex 12.7 10.8998153285078 4.7625
vertex 12.3712179848664 10.6475320151336 0.0
vertex 12.7 10.8998153285078 0.0
endloop
endfacet
facet normal 0.707106781186546 -0.707106781186549 0.0
outer loop
vertex 12.3712179848664 10.6475320151336 0.0
vertex 12.7 10.8998153285078 4.7625
vertex 12.3712179848664 10.6475320151336 4.7625
endloop
endfacet
facet normal 0.707106781186546 -0.707106781186549 0.0
outer loop
vertex 12.3712179848664 10.6475320151336 0.0
vertex 12.1189346714922 10.31875 4.7625
vertex 12.1189346714922 10.31875 0.0
endloop
endfacet
facet normal 0.866025403784439 -0.499999999999999 0.0
outer loop
vertex 12.1189346714922 10.31875 4.7625
vertex 12.3712179848664 10.6475320151336 0.0
vertex 12.3712179848664 10.6475320151336 4.7625
endloop
endfacet
facet normal 0.866025403784439 -0.499999999999999 0.0
outer loop
vertex 12.1189346714922 10.31875 0.0
vertex 11.9603427507661 9.93587523410025 4.7625
vertex 11.9603427507661 9.93587523410025 0.0
endloop
endfacet
facet normal 0.965925826289069 -0.258819045102519 0.0
outer loop
vertex 11.9603427507661 9.93587523410025 4.7625
vertex 12.1189346714922 10.31875 0.0
vertex 12.1189346714922 10.31875 4.7625
endloop
endfacet
facet normal 0.0 0.0 1.0
outer loop
vertex -14.2875 19.05 3.175
vertex -11.1125 22.225 3.175
vertex -14.2875 30.1625 3.175
endloop
endfacet
facet normal 0.0 0.0 1.0
outer loop
vertex -11.1125 22.225 3.175
vertex -14.2875 19.05 3.175
vertex 20.6375 19.05 3.175
endloop
endfacet
facet normal 0.0 0.0 1.0
outer loop
vertex -11.1125 22.225 3.175
vertex 20.6375 19.05 3.175
vertex 17.4625 22.225 3.175
endloop
endfacet
facet normal 0.0 0.0 1.0
outer loop
vertex 17.4625 22.225 3.175
vertex 20.6375 19.05 3.175
vertex 17.4625 26.9875 3.175
endloop
endfacet
facet normal 0.0 0.0 1.0
outer loop
vertex -14.2875 30.1625 3.175
vertex -11.1125 26.9875 3.175
vertex 20.6375 30.1625 3.175
endloop
endfacet
facet normal 0.0 0.0 1.0
outer loop
vertex -11.1125 26.9875 3.175
vertex -14.2875 30.1625 3.175
vertex -11.1125 22.225 3.175
endloop
endfacet
facet normal 0.0 0.0 1.0
outer loop
vertex 20.6375 30.1625 3.175
vertex -11.1125 26.9875 3.175
vertex 17.4625 26.9875 3.175
endloop
endfacet
facet normal 0.0 0.0 1.0
outer loop
vertex 20.6375 30.1625 3.175
vertex 17.4625 26.9875 3.175
vertex 20.6375 19.05 3.175
endloop
endfacet
endsolid model
