solid Default
  facet normal 1.000000e+00 -6.123234e-17 0.000000e+00
    outer loop
      vertex 5.185399e+00 2.128520e+01 6.350000e+00
      vertex 5.185399e+00 -4.856480e+01 0.000000e+00
      vertex 5.185399e+00 2.128520e+01 0.000000e+00
    endloop
  endfacet
  facet normal 1.000000e+00 -6.123234e-17 0.000000e+00
    outer loop
      vertex 5.185399e+00 -4.856480e+01 0.000000e+00
      vertex 5.185399e+00 2.128520e+01 6.350000e+00
      vertex 5.185399e+00 -4.856480e+01 6.350000e+00
    endloop
  endfacet
  facet normal 7.071068e-01 7.071068e-01 0.000000e+00
    outer loop
      vertex -7.145931e+00 -3.746129e+00 0.000000e+00
      vertex -6.323976e+00 -4.376837e+00 6.350000e+00
      vertex -6.323976e+00 -4.376837e+00 0.000000e+00
    endloop
  endfacet
  facet normal 5.000000e-01 8.660254e-01 0.000000e+00
    outer loop
      vertex -6.323976e+00 -4.376837e+00 6.350000e+00
      vertex -7.145931e+00 -3.746129e+00 0.000000e+00
      vertex -7.145931e+00 -3.746129e+00 6.350000e+00
    endloop
  endfacet
  facet normal 9.659258e-01 -2.588190e-01 0.000000e+00
    outer loop
      vertex -8.173119e+00 -4.118761e+01 6.350000e+00
      vertex -8.308351e+00 -4.221480e+01 0.000000e+00
      vertex -8.173119e+00 -4.118761e+01 0.000000e+00
    endloop
  endfacet
  facet normal 1.000000e+00 5.269010e-16 0.000000e+00
    outer loop
      vertex -8.308351e+00 -4.221480e+01 0.000000e+00
      vertex -8.173119e+00 -4.118761e+01 6.350000e+00
      vertex -8.308351e+00 -4.221480e+01 6.350000e+00
    endloop
  endfacet
  facet normal -5.000000e-01 8.660254e-01 0.000000e+00
    outer loop
      vertex -2.355226e+00 -4.565184e+01 0.000000e+00
      vertex -1.533271e+00 -4.502113e+01 6.350000e+00
      vertex -1.533271e+00 -4.502113e+01 0.000000e+00
    endloop
  endfacet
  facet normal -7.071068e-01 7.071068e-01 0.000000e+00
    outer loop
      vertex -1.533271e+00 -4.502113e+01 6.350000e+00
      vertex -2.355226e+00 -4.565184e+01 0.000000e+00
      vertex -2.355226e+00 -4.565184e+01 6.350000e+00
    endloop
  endfacet
  facet normal -5.000000e-01 -8.660254e-01 0.000000e+00
    outer loop
      vertex -2.355226e+00 2.497240e+00 6.350000e+00
      vertex -1.533271e+00 1.866531e+00 0.000000e+00
      vertex -1.533271e+00 1.866531e+00 6.350000e+00
    endloop
  endfacet
  facet normal -7.071068e-01 -7.071068e-01 0.000000e+00
    outer loop
      vertex -1.533271e+00 1.866531e+00 0.000000e+00
      vertex -2.355226e+00 2.497240e+00 6.350000e+00
      vertex -2.355226e+00 2.497240e+00 0.000000e+00
    endloop
  endfacet
  facet normal -2.588190e-01 -9.659258e-01 0.000000e+00
    outer loop
      vertex -3.312413e+00 2.893719e+00 6.350000e+00
      vertex -2.355226e+00 2.497240e+00 0.000000e+00
      vertex -2.355226e+00 2.497240e+00 6.350000e+00
    endloop
  endfacet
  facet normal -5.000000e-01 -8.660254e-01 0.000000e+00
    outer loop
      vertex -2.355226e+00 2.497240e+00 0.000000e+00
      vertex -3.312413e+00 2.893719e+00 6.350000e+00
      vertex -3.312413e+00 2.893719e+00 0.000000e+00
    endloop
  endfacet
  facet normal -2.588190e-01 -9.659258e-01 0.000000e+00
    outer loop
      vertex -3.312413e+00 -3.838128e+01 6.350000e+00
      vertex -2.355226e+00 -3.877776e+01 0.000000e+00
      vertex -2.355226e+00 -3.877776e+01 6.350000e+00
    endloop
  endfacet
  facet normal -5.000000e-01 -8.660254e-01 0.000000e+00
    outer loop
      vertex -2.355226e+00 -3.877776e+01 0.000000e+00
      vertex -3.312413e+00 -3.838128e+01 6.350000e+00
      vertex -3.312413e+00 -3.838128e+01 0.000000e+00
    endloop
  endfacet
  facet normal 0.000000e+00 0.000000e+00 1.000000e+00
    outer loop
      vertex 1.788540e+01 2.128520e+01 4.445000e+01
      vertex 1.153540e+01 2.763520e+01 4.445000e+01
      vertex -1.386460e+01 2.128520e+01 4.445000e+01
    endloop
  endfacet
  facet normal 0.000000e+00 0.000000e+00 1.000000e+00
    outer loop
      vertex 1.153540e+01 2.763520e+01 4.445000e+01
      vertex 1.788540e+01 2.128520e+01 4.445000e+01
      vertex 1.788540e+01 4.033520e+01 4.445000e+01
    endloop
  endfacet
  facet normal 0.000000e+00 0.000000e+00 1.000000e+00
    outer loop
      vertex 1.153540e+01 2.763520e+01 4.445000e+01
      vertex 1.788540e+01 4.033520e+01 4.445000e+01
      vertex 1.153540e+01 4.033520e+01 4.445000e+01
    endloop
  endfacet
  facet normal 0.000000e+00 0.000000e+00 1.000000e+00
    outer loop
      vertex -1.386460e+01 2.763520e+01 4.445000e+01
      vertex -1.386460e+01 2.128520e+01 4.445000e+01
      vertex 1.153540e+01 2.763520e+01 4.445000e+01
    endloop
  endfacet
  facet normal 2.588190e-01 9.659258e-01 0.000000e+00
    outer loop
      vertex -5.366789e+00 -4.773317e+00 0.000000e+00
      vertex -4.339601e+00 -4.908549e+00 6.350000e+00
      vertex -4.339601e+00 -4.908549e+00 0.000000e+00
    endloop
  endfacet
  facet normal 1.236101e-16 1.000000e+00 0.000000e+00
    outer loop
      vertex -4.339601e+00 -4.908549e+00 6.350000e+00
      vertex -5.366789e+00 -4.773317e+00 0.000000e+00
      vertex -5.366789e+00 -4.773317e+00 6.350000e+00
    endloop
  endfacet
  facet normal 0.000000e+00 0.000000e+00 -1.000000e+00
    outer loop
      vertex -1.386460e+01 -4.856480e+01 0.000000e+00
      vertex -5.366789e+00 -4.604832e+01 0.000000e+00
      vertex 5.185399e+00 -4.856480e+01 0.000000e+00
    endloop
  endfacet
  facet normal 0.000000e+00 0.000000e+00 -1.000000e+00
    outer loop
      vertex -5.366789e+00 -4.604832e+01 0.000000e+00
      vertex -1.386460e+01 -4.856480e+01 0.000000e+00
      vertex -6.323976e+00 -4.565184e+01 0.000000e+00
    endloop
  endfacet
  facet normal 0.000000e+00 0.000000e+00 -1.000000e+00
    outer loop
      vertex -6.323976e+00 -4.565184e+01 0.000000e+00
      vertex -1.386460e+01 -4.856480e+01 0.000000e+00
      vertex -7.145931e+00 -4.502113e+01 0.000000e+00
    endloop
  endfacet
  facet normal 0.000000e+00 0.000000e+00 -1.000000e+00
    outer loop
      vertex -7.145931e+00 -4.502113e+01 0.000000e+00
      vertex -1.386460e+01 -4.856480e+01 0.000000e+00
      vertex -7.776639e+00 -4.419917e+01 0.000000e+00
    endloop
  endfacet
  facet normal 0.000000e+00 0.000000e+00 -1.000000e+00
    outer loop
      vertex -7.776639e+00 -4.419917e+01 0.000000e+00
      vertex -1.386460e+01 -4.856480e+01 0.000000e+00
      vertex -8.173119e+00 -4.324199e+01 0.000000e+00
    endloop
  endfacet
  facet normal 0.000000e+00 0.000000e+00 -1.000000e+00
    outer loop
      vertex -8.173119e+00 -4.324199e+01 0.000000e+00
      vertex -1.386460e+01 -4.856480e+01 0.000000e+00
      vertex -8.308351e+00 -4.221480e+01 0.000000e+00
    endloop
  endfacet
  facet normal 0.000000e+00 0.000000e+00 -1.000000e+00
    outer loop
      vertex -8.308351e+00 -4.221480e+01 0.000000e+00
      vertex -1.386460e+01 -4.856480e+01 0.000000e+00
      vertex -1.386460e+01 2.763520e+01 0.000000e+00
    endloop
  endfacet
  facet normal 0.000000e+00 0.000000e+00 -1.000000e+00
    outer loop
      vertex 5.185399e+00 -4.856480e+01 0.000000e+00
      vertex -5.366789e+00 -4.604832e+01 0.000000e+00
      vertex -4.339601e+00 -4.618355e+01 0.000000e+00
    endloop
  endfacet
  facet normal 0.000000e+00 0.000000e+00 -1.000000e+00
    outer loop
      vertex -8.308351e+00 -4.221480e+01 0.000000e+00
      vertex -1.386460e+01 2.763520e+01 0.000000e+00
      vertex -8.173119e+00 -4.118761e+01 0.000000e+00
    endloop
  endfacet
  facet normal 0.000000e+00 0.000000e+00 -1.000000e+00
    outer loop
      vertex -8.173119e+00 -4.118761e+01 0.000000e+00
      vertex -1.386460e+01 2.763520e+01 0.000000e+00
      vertex -7.776639e+00 -4.023042e+01 0.000000e+00
    endloop
  endfacet
  facet normal 0.000000e+00 0.000000e+00 -1.000000e+00
    outer loop
      vertex -7.776639e+00 -4.023042e+01 0.000000e+00
      vertex -1.386460e+01 2.763520e+01 0.000000e+00
      vertex -7.145931e+00 -3.940847e+01 0.000000e+00
    endloop
  endfacet
  facet normal 0.000000e+00 0.000000e+00 -1.000000e+00
    outer loop
      vertex -7.145931e+00 -3.940847e+01 0.000000e+00
      vertex -1.386460e+01 2.763520e+01 0.000000e+00
      vertex -6.323976e+00 -3.877776e+01 0.000000e+00
    endloop
  endfacet
  facet normal 0.000000e+00 0.000000e+00 -1.000000e+00
    outer loop
      vertex -6.323976e+00 -3.877776e+01 0.000000e+00
      vertex -1.386460e+01 2.763520e+01 0.000000e+00
      vertex -5.366789e+00 -3.838128e+01 0.000000e+00
    endloop
  endfacet
  facet normal 0.000000e+00 0.000000e+00 -1.000000e+00
    outer loop
      vertex -5.366789e+00 -3.838128e+01 0.000000e+00
      vertex -1.386460e+01 2.763520e+01 0.000000e+00
      vertex -4.339601e+00 -3.824605e+01 0.000000e+00
    endloop
  endfacet
  facet normal 0.000000e+00 0.000000e+00 -1.000000e+00
    outer loop
      vertex -4.339601e+00 -3.824605e+01 0.000000e+00
      vertex -1.386460e+01 2.763520e+01 0.000000e+00
      vertex -8.173119e+00 -1.966987e+00 0.000000e+00
    endloop
  endfacet
  facet normal 0.000000e+00 0.000000e+00 -1.000000e+00
    outer loop
      vertex -4.339601e+00 -3.824605e+01 0.000000e+00
      vertex -8.173119e+00 -1.966987e+00 0.000000e+00
      vertex -7.776639e+00 -2.924174e+00 0.000000e+00
    endloop
  endfacet
  facet normal 0.000000e+00 0.000000e+00 -1.000000e+00
    outer loop
      vertex -4.339601e+00 -3.824605e+01 0.000000e+00
      vertex -7.776639e+00 -2.924174e+00 0.000000e+00
      vertex -7.145931e+00 -3.746129e+00 0.000000e+00
    endloop
  endfacet
  facet normal 0.000000e+00 0.000000e+00 -1.000000e+00
    outer loop
      vertex -4.339601e+00 -3.824605e+01 0.000000e+00
      vertex -7.145931e+00 -3.746129e+00 0.000000e+00
      vertex -6.323976e+00 -4.376837e+00 0.000000e+00
    endloop
  endfacet
  facet normal 0.000000e+00 0.000000e+00 -1.000000e+00
    outer loop
      vertex -4.339601e+00 -3.824605e+01 0.000000e+00
      vertex -6.323976e+00 -4.376837e+00 0.000000e+00
      vertex -5.366789e+00 -4.773317e+00 0.000000e+00
    endloop
  endfacet
  facet normal 0.000000e+00 0.000000e+00 -1.000000e+00
    outer loop
      vertex -4.339601e+00 -3.824605e+01 0.000000e+00
      vertex -5.366789e+00 -4.773317e+00 0.000000e+00
      vertex -4.339601e+00 -4.908549e+00 0.000000e+00
    endloop
  endfacet
  facet normal 0.000000e+00 0.000000e+00 -1.000000e+00
    outer loop
      vertex -8.173119e+00 -1.966987e+00 0.000000e+00
      vertex -1.386460e+01 2.763520e+01 0.000000e+00
      vertex -8.308351e+00 -9.397988e-01 0.000000e+00
    endloop
  endfacet
  facet normal 0.000000e+00 0.000000e+00 -1.000000e+00
    outer loop
      vertex -8.308351e+00 -9.397988e-01 0.000000e+00
      vertex -1.386460e+01 2.763520e+01 0.000000e+00
      vertex -8.173119e+00 8.738899e-02 0.000000e+00
    endloop
  endfacet
  facet normal 0.000000e+00 0.000000e+00 -1.000000e+00
    outer loop
      vertex -8.173119e+00 8.738899e-02 0.000000e+00
      vertex -1.386460e+01 2.763520e+01 0.000000e+00
      vertex -7.776639e+00 1.044576e+00 0.000000e+00
    endloop
  endfacet
  facet normal 0.000000e+00 0.000000e+00 -1.000000e+00
    outer loop
      vertex -7.776639e+00 1.044576e+00 0.000000e+00
      vertex -1.386460e+01 2.763520e+01 0.000000e+00
      vertex -7.145931e+00 1.866531e+00 0.000000e+00
    endloop
  endfacet
  facet normal 0.000000e+00 0.000000e+00 -1.000000e+00
    outer loop
      vertex -7.145931e+00 1.866531e+00 0.000000e+00
      vertex -1.386460e+01 2.763520e+01 0.000000e+00
      vertex -6.323976e+00 2.497240e+00 0.000000e+00
    endloop
  endfacet
  facet normal 0.000000e+00 0.000000e+00 -1.000000e+00
    outer loop
      vertex -6.323976e+00 2.497240e+00 0.000000e+00
      vertex -1.386460e+01 2.763520e+01 0.000000e+00
      vertex -5.366789e+00 2.893719e+00 0.000000e+00
    endloop
  endfacet
  facet normal 0.000000e+00 0.000000e+00 -1.000000e+00
    outer loop
      vertex -5.366789e+00 2.893719e+00 0.000000e+00
      vertex -1.386460e+01 2.763520e+01 0.000000e+00
      vertex -4.339601e+00 3.028951e+00 0.000000e+00
    endloop
  endfacet
  facet normal 0.000000e+00 0.000000e+00 -1.000000e+00
    outer loop
      vertex -4.339601e+00 3.028951e+00 0.000000e+00
      vertex -1.386460e+01 2.763520e+01 0.000000e+00
      vertex 5.185399e+00 2.128520e+01 0.000000e+00
    endloop
  endfacet
  facet normal 0.000000e+00 0.000000e+00 -1.000000e+00
    outer loop
      vertex 5.185399e+00 2.128520e+01 0.000000e+00
      vertex -1.386460e+01 2.763520e+01 0.000000e+00
      vertex 1.788540e+01 2.128520e+01 0.000000e+00
    endloop
  endfacet
  facet normal 0.000000e+00 0.000000e+00 -1.000000e+00
    outer loop
      vertex 1.788540e+01 2.128520e+01 0.000000e+00
      vertex -1.386460e+01 2.763520e+01 0.000000e+00
      vertex 1.153540e+01 2.763520e+01 0.000000e+00
    endloop
  endfacet
  facet normal 0.000000e+00 0.000000e+00 -1.000000e+00
    outer loop
      vertex 1.788540e+01 2.128520e+01 0.000000e+00
      vertex 1.153540e+01 2.763520e+01 0.000000e+00
      vertex 1.788540e+01 4.033520e+01 0.000000e+00
    endloop
  endfacet
  facet normal 0.000000e+00 0.000000e+00 -1.000000e+00
    outer loop
      vertex 1.788540e+01 4.033520e+01 0.000000e+00
      vertex 1.153540e+01 2.763520e+01 0.000000e+00
      vertex 1.153540e+01 4.033520e+01 0.000000e+00
    endloop
  endfacet
  facet normal 0.000000e+00 0.000000e+00 -1.000000e+00
    outer loop
      vertex 5.185399e+00 -4.856480e+01 0.000000e+00
      vertex -3.708512e-01 -4.221480e+01 0.000000e+00
      vertex 5.185399e+00 2.128520e+01 0.000000e+00
    endloop
  endfacet
  facet normal 0.000000e+00 0.000000e+00 -1.000000e+00
    outer loop
      vertex -3.708512e-01 -4.221480e+01 0.000000e+00
      vertex 5.185399e+00 -4.856480e+01 0.000000e+00
      vertex -5.060831e-01 -4.324199e+01 0.000000e+00
    endloop
  endfacet
  facet normal 0.000000e+00 0.000000e+00 -1.000000e+00
    outer loop
      vertex -5.060831e-01 -4.324199e+01 0.000000e+00
      vertex 5.185399e+00 -4.856480e+01 0.000000e+00
      vertex -9.025631e-01 -4.419917e+01 0.000000e+00
    endloop
  endfacet
  facet normal 0.000000e+00 0.000000e+00 -1.000000e+00
    outer loop
      vertex -9.025631e-01 -4.419917e+01 0.000000e+00
      vertex 5.185399e+00 -4.856480e+01 0.000000e+00
      vertex -1.533271e+00 -4.502113e+01 0.000000e+00
    endloop
  endfacet
  facet normal 0.000000e+00 0.000000e+00 -1.000000e+00
    outer loop
      vertex -1.533271e+00 -4.502113e+01 0.000000e+00
      vertex 5.185399e+00 -4.856480e+01 0.000000e+00
      vertex -2.355226e+00 -4.565184e+01 0.000000e+00
    endloop
  endfacet
  facet normal 0.000000e+00 0.000000e+00 -1.000000e+00
    outer loop
      vertex -2.355226e+00 -4.565184e+01 0.000000e+00
      vertex 5.185399e+00 -4.856480e+01 0.000000e+00
      vertex -3.312413e+00 -4.604832e+01 0.000000e+00
    endloop
  endfacet
  facet normal 0.000000e+00 0.000000e+00 -1.000000e+00
    outer loop
      vertex -3.312413e+00 -4.604832e+01 0.000000e+00
      vertex 5.185399e+00 -4.856480e+01 0.000000e+00
      vertex -4.339601e+00 -4.618355e+01 0.000000e+00
    endloop
  endfacet
  facet normal 0.000000e+00 0.000000e+00 -1.000000e+00
    outer loop
      vertex 5.185399e+00 2.128520e+01 0.000000e+00
      vertex -3.708512e-01 -4.221480e+01 0.000000e+00
      vertex -5.060831e-01 -4.118761e+01 0.000000e+00
    endloop
  endfacet
  facet normal 0.000000e+00 0.000000e+00 -1.000000e+00
    outer loop
      vertex 5.185399e+00 2.128520e+01 0.000000e+00
      vertex -5.060831e-01 -4.118761e+01 0.000000e+00
      vertex -9.025631e-01 -4.023042e+01 0.000000e+00
    endloop
  endfacet
  facet normal 0.000000e+00 0.000000e+00 -1.000000e+00
    outer loop
      vertex 5.185399e+00 2.128520e+01 0.000000e+00
      vertex -9.025631e-01 -4.023042e+01 0.000000e+00
      vertex -1.533271e+00 -3.940847e+01 0.000000e+00
    endloop
  endfacet
  facet normal 0.000000e+00 0.000000e+00 -1.000000e+00
    outer loop
      vertex 5.185399e+00 2.128520e+01 0.000000e+00
      vertex -1.533271e+00 -3.940847e+01 0.000000e+00
      vertex -2.355226e+00 -3.877776e+01 0.000000e+00
    endloop
  endfacet
  facet normal 0.000000e+00 0.000000e+00 -1.000000e+00
    outer loop
      vertex 5.185399e+00 2.128520e+01 0.000000e+00
      vertex -2.355226e+00 -3.877776e+01 0.000000e+00
      vertex -3.312413e+00 -3.838128e+01 0.000000e+00
    endloop
  endfacet
  facet normal 0.000000e+00 0.000000e+00 -1.000000e+00
    outer loop
      vertex 5.185399e+00 2.128520e+01 0.000000e+00
      vertex -3.312413e+00 -3.838128e+01 0.000000e+00
      vertex -4.339601e+00 -3.824605e+01 0.000000e+00
    endloop
  endfacet
  facet normal 0.000000e+00 0.000000e+00 -1.000000e+00
    outer loop
      vertex 5.185399e+00 2.128520e+01 0.000000e+00
      vertex -4.339601e+00 -3.824605e+01 0.000000e+00
      vertex -5.060831e-01 -1.966987e+00 0.000000e+00
    endloop
  endfacet
  facet normal 0.000000e+00 0.000000e+00 -1.000000e+00
    outer loop
      vertex -5.060831e-01 -1.966987e+00 0.000000e+00
      vertex -4.339601e+00 -3.824605e+01 0.000000e+00
      vertex -9.025631e-01 -2.924174e+00 0.000000e+00
    endloop
  endfacet
  facet normal 0.000000e+00 0.000000e+00 -1.000000e+00
    outer loop
      vertex -9.025631e-01 -2.924174e+00 0.000000e+00
      vertex -4.339601e+00 -3.824605e+01 0.000000e+00
      vertex -1.533271e+00 -3.746129e+00 0.000000e+00
    endloop
  endfacet
  facet normal 0.000000e+00 0.000000e+00 -1.000000e+00
    outer loop
      vertex -1.533271e+00 -3.746129e+00 0.000000e+00
      vertex -4.339601e+00 -3.824605e+01 0.000000e+00
      vertex -2.355226e+00 -4.376837e+00 0.000000e+00
    endloop
  endfacet
  facet normal 0.000000e+00 0.000000e+00 -1.000000e+00
    outer loop
      vertex -2.355226e+00 -4.376837e+00 0.000000e+00
      vertex -4.339601e+00 -3.824605e+01 0.000000e+00
      vertex -3.312413e+00 -4.773317e+00 0.000000e+00
    endloop
  endfacet
  facet normal 0.000000e+00 0.000000e+00 -1.000000e+00
    outer loop
      vertex -3.312413e+00 -4.773317e+00 0.000000e+00
      vertex -4.339601e+00 -3.824605e+01 0.000000e+00
      vertex -4.339601e+00 -4.908549e+00 0.000000e+00
    endloop
  endfacet
  facet normal 0.000000e+00 0.000000e+00 -1.000000e+00
    outer loop
      vertex 5.185399e+00 2.128520e+01 0.000000e+00
      vertex -5.060831e-01 -1.966987e+00 0.000000e+00
      vertex -3.708512e-01 -9.397988e-01 0.000000e+00
    endloop
  endfacet
  facet normal 0.000000e+00 0.000000e+00 -1.000000e+00
    outer loop
      vertex 5.185399e+00 2.128520e+01 0.000000e+00
      vertex -3.708512e-01 -9.397988e-01 0.000000e+00
      vertex -5.060831e-01 8.738899e-02 0.000000e+00
    endloop
  endfacet
  facet normal 0.000000e+00 0.000000e+00 -1.000000e+00
    outer loop
      vertex 5.185399e+00 2.128520e+01 0.000000e+00
      vertex -5.060831e-01 8.738899e-02 0.000000e+00
      vertex -9.025631e-01 1.044576e+00 0.000000e+00
    endloop
  endfacet
  facet normal 0.000000e+00 0.000000e+00 -1.000000e+00
    outer loop
      vertex 5.185399e+00 2.128520e+01 0.000000e+00
      vertex -9.025631e-01 1.044576e+00 0.000000e+00
      vertex -1.533271e+00 1.866531e+00 0.000000e+00
    endloop
  endfacet
  facet normal 0.000000e+00 0.000000e+00 -1.000000e+00
    outer loop
      vertex 5.185399e+00 2.128520e+01 0.000000e+00
      vertex -1.533271e+00 1.866531e+00 0.000000e+00
      vertex -2.355226e+00 2.497240e+00 0.000000e+00
    endloop
  endfacet
  facet normal 0.000000e+00 0.000000e+00 -1.000000e+00
    outer loop
      vertex 5.185399e+00 2.128520e+01 0.000000e+00
      vertex -2.355226e+00 2.497240e+00 0.000000e+00
      vertex -3.312413e+00 2.893719e+00 0.000000e+00
    endloop
  endfacet
  facet normal 0.000000e+00 0.000000e+00 -1.000000e+00
    outer loop
      vertex 5.185399e+00 2.128520e+01 0.000000e+00
      vertex -3.312413e+00 2.893719e+00 0.000000e+00
      vertex -4.339601e+00 3.028951e+00 0.000000e+00
    endloop
  endfacet
  facet normal 0.000000e+00 0.000000e+00 1.000000e+00
    outer loop
      vertex 5.185399e+00 -4.856480e+01 6.350000e+00
      vertex -3.312413e+00 -4.604832e+01 6.350000e+00
      vertex -1.386460e+01 -4.856480e+01 6.350000e+00
    endloop
  endfacet
  facet normal 0.000000e+00 0.000000e+00 1.000000e+00
    outer loop
      vertex -3.312413e+00 -4.604832e+01 6.350000e+00
      vertex 5.185399e+00 -4.856480e+01 6.350000e+00
      vertex -2.355226e+00 -4.565184e+01 6.350000e+00
    endloop
  endfacet
  facet normal 0.000000e+00 0.000000e+00 1.000000e+00
    outer loop
      vertex -2.355226e+00 -4.565184e+01 6.350000e+00
      vertex 5.185399e+00 -4.856480e+01 6.350000e+00
      vertex -1.533271e+00 -4.502113e+01 6.350000e+00
    endloop
  endfacet
  facet normal 0.000000e+00 0.000000e+00 1.000000e+00
    outer loop
      vertex -1.533271e+00 -4.502113e+01 6.350000e+00
      vertex 5.185399e+00 -4.856480e+01 6.350000e+00
      vertex -9.025631e-01 -4.419917e+01 6.350000e+00
    endloop
  endfacet
  facet normal 0.000000e+00 0.000000e+00 1.000000e+00
    outer loop
      vertex -9.025631e-01 -4.419917e+01 6.350000e+00
      vertex 5.185399e+00 -4.856480e+01 6.350000e+00
      vertex -5.060831e-01 -4.324199e+01 6.350000e+00
    endloop
  endfacet
  facet normal 0.000000e+00 0.000000e+00 1.000000e+00
    outer loop
      vertex -5.060831e-01 -4.324199e+01 6.350000e+00
      vertex 5.185399e+00 -4.856480e+01 6.350000e+00
      vertex -3.708512e-01 -4.221480e+01 6.350000e+00
    endloop
  endfacet
  facet normal 0.000000e+00 0.000000e+00 1.000000e+00
    outer loop
      vertex -3.708512e-01 -4.221480e+01 6.350000e+00
      vertex 5.185399e+00 -4.856480e+01 6.350000e+00
      vertex 5.185399e+00 2.128520e+01 6.350000e+00
    endloop
  endfacet
  facet normal 0.000000e+00 0.000000e+00 1.000000e+00
    outer loop
      vertex -1.386460e+01 -4.856480e+01 6.350000e+00
      vertex -3.312413e+00 -4.604832e+01 6.350000e+00
      vertex -4.339601e+00 -4.618355e+01 6.350000e+00
    endloop
  endfacet
  facet normal 0.000000e+00 0.000000e+00 1.000000e+00
    outer loop
      vertex -3.708512e-01 -4.221480e+01 6.350000e+00
      vertex 5.185399e+00 2.128520e+01 6.350000e+00
      vertex -5.060831e-01 -4.118761e+01 6.350000e+00
    endloop
  endfacet
  facet normal 0.000000e+00 0.000000e+00 1.000000e+00
    outer loop
      vertex -5.060831e-01 -4.118761e+01 6.350000e+00
      vertex 5.185399e+00 2.128520e+01 6.350000e+00
      vertex -9.025631e-01 -4.023042e+01 6.350000e+00
    endloop
  endfacet
  facet normal 0.000000e+00 0.000000e+00 1.000000e+00
    outer loop
      vertex -9.025631e-01 -4.023042e+01 6.350000e+00
      vertex 5.185399e+00 2.128520e+01 6.350000e+00
      vertex -1.533271e+00 -3.940847e+01 6.350000e+00
    endloop
  endfacet
  facet normal 0.000000e+00 0.000000e+00 1.000000e+00
    outer loop
      vertex -1.533271e+00 -3.940847e+01 6.350000e+00
      vertex 5.185399e+00 2.128520e+01 6.350000e+00
      vertex -2.355226e+00 -3.877776e+01 6.350000e+00
    endloop
  endfacet
  facet normal 0.000000e+00 0.000000e+00 1.000000e+00
    outer loop
      vertex -2.355226e+00 -3.877776e+01 6.350000e+00
      vertex 5.185399e+00 2.128520e+01 6.350000e+00
      vertex -3.312413e+00 -3.838128e+01 6.350000e+00
    endloop
  endfacet
  facet normal 0.000000e+00 0.000000e+00 1.000000e+00
    outer loop
      vertex -3.312413e+00 -3.838128e+01 6.350000e+00
      vertex 5.185399e+00 2.128520e+01 6.350000e+00
      vertex -4.339601e+00 -3.824605e+01 6.350000e+00
    endloop
  endfacet
  facet normal 0.000000e+00 0.000000e+00 1.000000e+00
    outer loop
      vertex -4.339601e+00 -3.824605e+01 6.350000e+00
      vertex 5.185399e+00 2.128520e+01 6.350000e+00
      vertex -5.060831e-01 -1.966987e+00 6.350000e+00
    endloop
  endfacet
  facet normal 0.000000e+00 0.000000e+00 1.000000e+00
    outer loop
      vertex -4.339601e+00 -3.824605e+01 6.350000e+00
      vertex -5.060831e-01 -1.966987e+00 6.350000e+00
      vertex -9.025631e-01 -2.924174e+00 6.350000e+00
    endloop
  endfacet
  facet normal 0.000000e+00 0.000000e+00 1.000000e+00
    outer loop
      vertex -4.339601e+00 -3.824605e+01 6.350000e+00
      vertex -9.025631e-01 -2.924174e+00 6.350000e+00
      vertex -1.533271e+00 -3.746129e+00 6.350000e+00
    endloop
  endfacet
  facet normal 0.000000e+00 0.000000e+00 1.000000e+00
    outer loop
      vertex -4.339601e+00 -3.824605e+01 6.350000e+00
      vertex -1.533271e+00 -3.746129e+00 6.350000e+00
      vertex -2.355226e+00 -4.376837e+00 6.350000e+00
    endloop
  endfacet
  facet normal 0.000000e+00 0.000000e+00 1.000000e+00
    outer loop
      vertex -4.339601e+00 -3.824605e+01 6.350000e+00
      vertex -2.355226e+00 -4.376837e+00 6.350000e+00
      vertex -3.312413e+00 -4.773317e+00 6.350000e+00
    endloop
  endfacet
  facet normal 0.000000e+00 0.000000e+00 1.000000e+00
    outer loop
      vertex -4.339601e+00 -3.824605e+01 6.350000e+00
      vertex -3.312413e+00 -4.773317e+00 6.350000e+00
      vertex -4.339601e+00 -4.908549e+00 6.350000e+00
    endloop
  endfacet
  facet normal 0.000000e+00 0.000000e+00 1.000000e+00
    outer loop
      vertex -5.060831e-01 -1.966987e+00 6.350000e+00
      vertex 5.185399e+00 2.128520e+01 6.350000e+00
      vertex -3.708512e-01 -9.397988e-01 6.350000e+00
    endloop
  endfacet
  facet normal 0.000000e+00 0.000000e+00 1.000000e+00
    outer loop
      vertex -3.708512e-01 -9.397988e-01 6.350000e+00
      vertex 5.185399e+00 2.128520e+01 6.350000e+00
      vertex -5.060831e-01 8.738899e-02 6.350000e+00
    endloop
  endfacet
  facet normal 0.000000e+00 0.000000e+00 1.000000e+00
    outer loop
      vertex -5.060831e-01 8.738899e-02 6.350000e+00
      vertex 5.185399e+00 2.128520e+01 6.350000e+00
      vertex -9.025631e-01 1.044576e+00 6.350000e+00
    endloop
  endfacet
  facet normal 0.000000e+00 0.000000e+00 1.000000e+00
    outer loop
      vertex -9.025631e-01 1.044576e+00 6.350000e+00
      vertex 5.185399e+00 2.128520e+01 6.350000e+00
      vertex -1.533271e+00 1.866531e+00 6.350000e+00
    endloop
  endfacet
  facet normal 0.000000e+00 0.000000e+00 1.000000e+00
    outer loop
      vertex -1.533271e+00 1.866531e+00 6.350000e+00
      vertex 5.185399e+00 2.128520e+01 6.350000e+00
      vertex -2.355226e+00 2.497240e+00 6.350000e+00
    endloop
  endfacet
  facet normal 0.000000e+00 0.000000e+00 1.000000e+00
    outer loop
      vertex -2.355226e+00 2.497240e+00 6.350000e+00
      vertex 5.185399e+00 2.128520e+01 6.350000e+00
      vertex -3.312413e+00 2.893719e+00 6.350000e+00
    endloop
  endfacet
  facet normal 0.000000e+00 0.000000e+00 1.000000e+00
    outer loop
      vertex -3.312413e+00 2.893719e+00 6.350000e+00
      vertex 5.185399e+00 2.128520e+01 6.350000e+00
      vertex -4.339601e+00 3.028951e+00 6.350000e+00
    endloop
  endfacet
  facet normal 0.000000e+00 0.000000e+00 1.000000e+00
    outer loop
      vertex -1.386460e+01 -4.856480e+01 6.350000e+00
      vertex -8.308351e+00 -4.221480e+01 6.350000e+00
      vertex -1.386460e+01 2.128520e+01 6.350000e+00
    endloop
  endfacet
  facet normal 0.000000e+00 0.000000e+00 1.000000e+00
    outer loop
      vertex -8.308351e+00 -4.221480e+01 6.350000e+00
      vertex -1.386460e+01 -4.856480e+01 6.350000e+00
      vertex -8.173119e+00 -4.324199e+01 6.350000e+00
    endloop
  endfacet
  facet normal 0.000000e+00 0.000000e+00 1.000000e+00
    outer loop
      vertex -8.173119e+00 -4.324199e+01 6.350000e+00
      vertex -1.386460e+01 -4.856480e+01 6.350000e+00
      vertex -7.776639e+00 -4.419917e+01 6.350000e+00
    endloop
  endfacet
  facet normal 0.000000e+00 0.000000e+00 1.000000e+00
    outer loop
      vertex -7.776639e+00 -4.419917e+01 6.350000e+00
      vertex -1.386460e+01 -4.856480e+01 6.350000e+00
      vertex -7.145931e+00 -4.502113e+01 6.350000e+00
    endloop
  endfacet
  facet normal 0.000000e+00 0.000000e+00 1.000000e+00
    outer loop
      vertex -7.145931e+00 -4.502113e+01 6.350000e+00
      vertex -1.386460e+01 -4.856480e+01 6.350000e+00
      vertex -6.323976e+00 -4.565184e+01 6.350000e+00
    endloop
  endfacet
  facet normal 0.000000e+00 0.000000e+00 1.000000e+00
    outer loop
      vertex -6.323976e+00 -4.565184e+01 6.350000e+00
      vertex -1.386460e+01 -4.856480e+01 6.350000e+00
      vertex -5.366789e+00 -4.604832e+01 6.350000e+00
    endloop
  endfacet
  facet normal 0.000000e+00 0.000000e+00 1.000000e+00
    outer loop
      vertex -5.366789e+00 -4.604832e+01 6.350000e+00
      vertex -1.386460e+01 -4.856480e+01 6.350000e+00
      vertex -4.339601e+00 -4.618355e+01 6.350000e+00
    endloop
  endfacet
  facet normal 0.000000e+00 0.000000e+00 1.000000e+00
    outer loop
      vertex -1.386460e+01 2.128520e+01 6.350000e+00
      vertex -8.308351e+00 -4.221480e+01 6.350000e+00
      vertex -8.173119e+00 -4.118761e+01 6.350000e+00
    endloop
  endfacet
  facet normal 0.000000e+00 0.000000e+00 1.000000e+00
    outer loop
      vertex -1.386460e+01 2.128520e+01 6.350000e+00
      vertex -8.173119e+00 -4.118761e+01 6.350000e+00
      vertex -7.776639e+00 -4.023042e+01 6.350000e+00
    endloop
  endfacet
  facet normal 0.000000e+00 0.000000e+00 1.000000e+00
    outer loop
      vertex -1.386460e+01 2.128520e+01 6.350000e+00
      vertex -7.776639e+00 -4.023042e+01 6.350000e+00
      vertex -7.145931e+00 -3.940847e+01 6.350000e+00
    endloop
  endfacet
  facet normal 0.000000e+00 0.000000e+00 1.000000e+00
    outer loop
      vertex -1.386460e+01 2.128520e+01 6.350000e+00
      vertex -7.145931e+00 -3.940847e+01 6.350000e+00
      vertex -6.323976e+00 -3.877776e+01 6.350000e+00
    endloop
  endfacet
  facet normal 0.000000e+00 0.000000e+00 1.000000e+00
    outer loop
      vertex -1.386460e+01 2.128520e+01 6.350000e+00
      vertex -6.323976e+00 -3.877776e+01 6.350000e+00
      vertex -5.366789e+00 -3.838128e+01 6.350000e+00
    endloop
  endfacet
  facet normal 0.000000e+00 0.000000e+00 1.000000e+00
    outer loop
      vertex -1.386460e+01 2.128520e+01 6.350000e+00
      vertex -5.366789e+00 -3.838128e+01 6.350000e+00
      vertex -4.339601e+00 -3.824605e+01 6.350000e+00
    endloop
  endfacet
  facet normal 0.000000e+00 0.000000e+00 1.000000e+00
    outer loop
      vertex -1.386460e+01 2.128520e+01 6.350000e+00
      vertex -4.339601e+00 -3.824605e+01 6.350000e+00
      vertex -8.173119e+00 -1.966987e+00 6.350000e+00
    endloop
  endfacet
  facet normal 0.000000e+00 0.000000e+00 1.000000e+00
    outer loop
      vertex -8.173119e+00 -1.966987e+00 6.350000e+00
      vertex -4.339601e+00 -3.824605e+01 6.350000e+00
      vertex -7.776639e+00 -2.924174e+00 6.350000e+00
    endloop
  endfacet
  facet normal 0.000000e+00 0.000000e+00 1.000000e+00
    outer loop
      vertex -7.776639e+00 -2.924174e+00 6.350000e+00
      vertex -4.339601e+00 -3.824605e+01 6.350000e+00
      vertex -7.145931e+00 -3.746129e+00 6.350000e+00
    endloop
  endfacet
  facet normal 0.000000e+00 0.000000e+00 1.000000e+00
    outer loop
      vertex -7.145931e+00 -3.746129e+00 6.350000e+00
      vertex -4.339601e+00 -3.824605e+01 6.350000e+00
      vertex -6.323976e+00 -4.376837e+00 6.350000e+00
    endloop
  endfacet
  facet normal 0.000000e+00 0.000000e+00 1.000000e+00
    outer loop
      vertex -6.323976e+00 -4.376837e+00 6.350000e+00
      vertex -4.339601e+00 -3.824605e+01 6.350000e+00
      vertex -5.366789e+00 -4.773317e+00 6.350000e+00
    endloop
  endfacet
  facet normal 0.000000e+00 0.000000e+00 1.000000e+00
    outer loop
      vertex -5.366789e+00 -4.773317e+00 6.350000e+00
      vertex -4.339601e+00 -3.824605e+01 6.350000e+00
      vertex -4.339601e+00 -4.908549e+00 6.350000e+00
    endloop
  endfacet
  facet normal 0.000000e+00 0.000000e+00 1.000000e+00
    outer loop
      vertex -1.386460e+01 2.128520e+01 6.350000e+00
      vertex -8.173119e+00 -1.966987e+00 6.350000e+00
      vertex -8.308351e+00 -9.397988e-01 6.350000e+00
    endloop
  endfacet
  facet normal 0.000000e+00 0.000000e+00 1.000000e+00
    outer loop
      vertex -1.386460e+01 2.128520e+01 6.350000e+00
      vertex -8.308351e+00 -9.397988e-01 6.350000e+00
      vertex -8.173119e+00 8.738899e-02 6.350000e+00
    endloop
  endfacet
  facet normal 0.000000e+00 0.000000e+00 1.000000e+00
    outer loop
      vertex -1.386460e+01 2.128520e+01 6.350000e+00
      vertex -8.173119e+00 8.738899e-02 6.350000e+00
      vertex -7.776639e+00 1.044576e+00 6.350000e+00
    endloop
  endfacet
  facet normal 0.000000e+00 0.000000e+00 1.000000e+00
    outer loop
      vertex -1.386460e+01 2.128520e+01 6.350000e+00
      vertex -7.776639e+00 1.044576e+00 6.350000e+00
      vertex -7.145931e+00 1.866531e+00 6.350000e+00
    endloop
  endfacet
  facet normal 0.000000e+00 0.000000e+00 1.000000e+00
    outer loop
      vertex -1.386460e+01 2.128520e+01 6.350000e+00
      vertex -7.145931e+00 1.866531e+00 6.350000e+00
      vertex -6.323976e+00 2.497240e+00 6.350000e+00
    endloop
  endfacet
  facet normal 0.000000e+00 0.000000e+00 1.000000e+00
    outer loop
      vertex -1.386460e+01 2.128520e+01 6.350000e+00
      vertex -6.323976e+00 2.497240e+00 6.350000e+00
      vertex -5.366789e+00 2.893719e+00 6.350000e+00
    endloop
  endfacet
  facet normal 0.000000e+00 0.000000e+00 1.000000e+00
    outer loop
      vertex -1.386460e+01 2.128520e+01 6.350000e+00
      vertex -5.366789e+00 2.893719e+00 6.350000e+00
      vertex -4.339601e+00 3.028951e+00 6.350000e+00
    endloop
  endfacet
  facet normal 0.000000e+00 0.000000e+00 1.000000e+00
    outer loop
      vertex -1.386460e+01 2.128520e+01 6.350000e+00
      vertex -4.339601e+00 3.028951e+00 6.350000e+00
      vertex 5.185399e+00 2.128520e+01 6.350000e+00
    endloop
  endfacet
  facet normal 5.000000e-01 -8.660254e-01 0.000000e+00
    outer loop
      vertex -6.323976e+00 2.497240e+00 6.350000e+00
      vertex -5.366789e+00 2.893719e+00 0.000000e+00
      vertex -5.366789e+00 2.893719e+00 6.350000e+00
    endloop
  endfacet
  facet normal 2.588190e-01 -9.659258e-01 0.000000e+00
    outer loop
      vertex -5.366789e+00 2.893719e+00 0.000000e+00
      vertex -6.323976e+00 2.497240e+00 6.350000e+00
      vertex -6.323976e+00 2.497240e+00 0.000000e+00
    endloop
  endfacet
  facet normal -7.071068e-01 7.071068e-01 0.000000e+00
    outer loop
      vertex -1.533271e+00 -4.502113e+01 6.350000e+00
      vertex -9.025631e-01 -4.419917e+01 0.000000e+00
      vertex -1.533271e+00 -4.502113e+01 0.000000e+00
    endloop
  endfacet
  facet normal -8.660254e-01 5.000000e-01 0.000000e+00
    outer loop
      vertex -9.025631e-01 -4.419917e+01 0.000000e+00
      vertex -1.533271e+00 -4.502113e+01 6.350000e+00
      vertex -9.025631e-01 -4.419917e+01 6.350000e+00
    endloop
  endfacet
  facet normal -2.150120e-16 1.000000e+00 0.000000e+00
    outer loop
      vertex -4.339601e+00 -4.618355e+01 0.000000e+00
      vertex -3.312413e+00 -4.604832e+01 6.350000e+00
      vertex -3.312413e+00 -4.604832e+01 0.000000e+00
    endloop
  endfacet
  facet normal -2.588190e-01 9.659258e-01 0.000000e+00
    outer loop
      vertex -3.312413e+00 -4.604832e+01 6.350000e+00
      vertex -4.339601e+00 -4.618355e+01 0.000000e+00
      vertex -4.339601e+00 -4.618355e+01 6.350000e+00
    endloop
  endfacet
  facet normal -6.123234e-17 -1.000000e+00 0.000000e+00
    outer loop
      vertex -1.386460e+01 -4.856480e+01 6.350000e+00
      vertex 5.185399e+00 -4.856480e+01 0.000000e+00
      vertex 5.185399e+00 -4.856480e+01 6.350000e+00
    endloop
  endfacet
  facet normal -6.123234e-17 -1.000000e+00 0.000000e+00
    outer loop
      vertex 5.185399e+00 -4.856480e+01 0.000000e+00
      vertex -1.386460e+01 -4.856480e+01 6.350000e+00
      vertex -1.386460e+01 -4.856480e+01 0.000000e+00
    endloop
  endfacet
  facet normal -1.000000e+00 6.123234e-17 0.000000e+00
    outer loop
      vertex 1.153540e+01 2.763520e+01 4.445000e+01
      vertex 1.153540e+01 4.033520e+01 0.000000e+00
      vertex 1.153540e+01 2.763520e+01 0.000000e+00
    endloop
  endfacet
  facet normal -1.000000e+00 6.123234e-17 0.000000e+00
    outer loop
      vertex 1.153540e+01 4.033520e+01 0.000000e+00
      vertex 1.153540e+01 2.763520e+01 4.445000e+01
      vertex 1.153540e+01 4.033520e+01 4.445000e+01
    endloop
  endfacet
  facet normal -9.659258e-01 -2.588190e-01 0.000000e+00
    outer loop
      vertex -5.060831e-01 8.738899e-02 6.350000e+00
      vertex -9.025631e-01 1.044576e+00 0.000000e+00
      vertex -5.060831e-01 8.738899e-02 0.000000e+00
    endloop
  endfacet
  facet normal -8.660254e-01 -5.000000e-01 0.000000e+00
    outer loop
      vertex -9.025631e-01 1.044576e+00 0.000000e+00
      vertex -5.060831e-01 8.738899e-02 6.350000e+00
      vertex -9.025631e-01 1.044576e+00 6.350000e+00
    endloop
  endfacet
  facet normal 5.000000e-01 8.660254e-01 0.000000e+00
    outer loop
      vertex -6.323976e+00 -4.565184e+01 0.000000e+00
      vertex -5.366789e+00 -4.604832e+01 6.350000e+00
      vertex -5.366789e+00 -4.604832e+01 0.000000e+00
    endloop
  endfacet
  facet normal 2.588190e-01 9.659258e-01 0.000000e+00
    outer loop
      vertex -5.366789e+00 -4.604832e+01 6.350000e+00
      vertex -6.323976e+00 -4.565184e+01 0.000000e+00
      vertex -6.323976e+00 -4.565184e+01 6.350000e+00
    endloop
  endfacet
  facet normal 9.659258e-01 -2.588190e-01 0.000000e+00
    outer loop
      vertex -8.173119e+00 8.738899e-02 6.350000e+00
      vertex -8.308351e+00 -9.397988e-01 0.000000e+00
      vertex -8.173119e+00 8.738899e-02 0.000000e+00
    endloop
  endfacet
  facet normal 1.000000e+00 2.595677e-16 0.000000e+00
    outer loop
      vertex -8.308351e+00 -9.397988e-01 0.000000e+00
      vertex -8.173119e+00 8.738899e-02 6.350000e+00
      vertex -8.308351e+00 -9.397988e-01 6.350000e+00
    endloop
  endfacet
  facet normal 6.123234e-17 1.000000e+00 0.000000e+00
    outer loop
      vertex 1.153540e+01 4.033520e+01 0.000000e+00
      vertex 1.788540e+01 4.033520e+01 4.445000e+01
      vertex 1.788540e+01 4.033520e+01 0.000000e+00
    endloop
  endfacet
  facet normal 6.123234e-17 1.000000e+00 0.000000e+00
    outer loop
      vertex 1.788540e+01 4.033520e+01 4.445000e+01
      vertex 1.153540e+01 4.033520e+01 0.000000e+00
      vertex 1.153540e+01 4.033520e+01 4.445000e+01
    endloop
  endfacet
  facet normal -5.000000e-01 8.660254e-01 0.000000e+00
    outer loop
      vertex -2.355226e+00 -4.376837e+00 0.000000e+00
      vertex -1.533271e+00 -3.746129e+00 6.350000e+00
      vertex -1.533271e+00 -3.746129e+00 0.000000e+00
    endloop
  endfacet
  facet normal -7.071068e-01 7.071068e-01 0.000000e+00
    outer loop
      vertex -1.533271e+00 -3.746129e+00 6.350000e+00
      vertex -2.355226e+00 -4.376837e+00 0.000000e+00
      vertex -2.355226e+00 -4.376837e+00 6.350000e+00
    endloop
  endfacet
  facet normal -1.000000e+00 6.123234e-17 0.000000e+00
    outer loop
      vertex -1.386460e+01 -4.856480e+01 6.350000e+00
      vertex -1.386460e+01 2.763520e+01 0.000000e+00
      vertex -1.386460e+01 -4.856480e+01 0.000000e+00
    endloop
  endfacet
  facet normal -1.000000e+00 6.123234e-17 0.000000e+00
    outer loop
      vertex -1.386460e+01 2.763520e+01 0.000000e+00
      vertex -1.386460e+01 -4.856480e+01 6.350000e+00
      vertex -1.386460e+01 2.128520e+01 6.350000e+00
    endloop
  endfacet
  facet normal -1.000000e+00 6.123234e-17 0.000000e+00
    outer loop
      vertex -1.386460e+01 2.763520e+01 0.000000e+00
      vertex -1.386460e+01 2.128520e+01 6.350000e+00
      vertex -1.386460e+01 2.763520e+01 4.445000e+01
    endloop
  endfacet
  facet normal -1.000000e+00 6.123234e-17 0.000000e+00
    outer loop
      vertex -1.386460e+01 2.763520e+01 4.445000e+01
      vertex -1.386460e+01 2.128520e+01 6.350000e+00
      vertex -1.386460e+01 2.128520e+01 4.445000e+01
    endloop
  endfacet
  facet normal 7.071068e-01 -7.071068e-01 0.000000e+00
    outer loop
      vertex -7.145931e+00 -3.940847e+01 6.350000e+00
      vertex -6.323976e+00 -3.877776e+01 0.000000e+00
      vertex -6.323976e+00 -3.877776e+01 6.350000e+00
    endloop
  endfacet
  facet normal 5.000000e-01 -8.660254e-01 0.000000e+00
    outer loop
      vertex -6.323976e+00 -3.877776e+01 0.000000e+00
      vertex -7.145931e+00 -3.940847e+01 6.350000e+00
      vertex -7.145931e+00 -3.940847e+01 0.000000e+00
    endloop
  endfacet
  facet normal 4.288788e-16 -1.000000e+00 0.000000e+00
    outer loop
      vertex -4.339601e+00 -3.824605e+01 6.350000e+00
      vertex -3.312413e+00 -3.838128e+01 0.000000e+00
      vertex -3.312413e+00 -3.838128e+01 6.350000e+00
    endloop
  endfacet
  facet normal -2.588190e-01 -9.659258e-01 0.000000e+00
    outer loop
      vertex -3.312413e+00 -3.838128e+01 0.000000e+00
      vertex -4.339601e+00 -3.824605e+01 6.350000e+00
      vertex -4.339601e+00 -3.824605e+01 0.000000e+00
    endloop
  endfacet
  facet normal -8.660254e-01 -5.000000e-01 0.000000e+00
    outer loop
      vertex -9.025631e-01 1.044576e+00 6.350000e+00
      vertex -1.533271e+00 1.866531e+00 0.000000e+00
      vertex -9.025631e-01 1.044576e+00 0.000000e+00
    endloop
  endfacet
  facet normal -7.071068e-01 -7.071068e-01 0.000000e+00
    outer loop
      vertex -1.533271e+00 1.866531e+00 0.000000e+00
      vertex -9.025631e-01 1.044576e+00 6.350000e+00
      vertex -1.533271e+00 1.866531e+00 6.350000e+00
    endloop
  endfacet
  facet normal -8.660254e-01 -5.000000e-01 0.000000e+00
    outer loop
      vertex -9.025631e-01 -4.023042e+01 6.350000e+00
      vertex -1.533271e+00 -3.940847e+01 0.000000e+00
      vertex -9.025631e-01 -4.023042e+01 0.000000e+00
    endloop
  endfacet
  facet normal -7.071068e-01 -7.071068e-01 0.000000e+00
    outer loop
      vertex -1.533271e+00 -3.940847e+01 0.000000e+00
      vertex -9.025631e-01 -4.023042e+01 6.350000e+00
      vertex -1.533271e+00 -3.940847e+01 6.350000e+00
    endloop
  endfacet
  facet normal -9.659258e-01 -2.588190e-01 0.000000e+00
    outer loop
      vertex -5.060831e-01 -4.118761e+01 6.350000e+00
      vertex -9.025631e-01 -4.023042e+01 0.000000e+00
      vertex -5.060831e-01 -4.118761e+01 0.000000e+00
    endloop
  endfacet
  facet normal -8.660254e-01 -5.000000e-01 0.000000e+00
    outer loop
      vertex -9.025631e-01 -4.023042e+01 0.000000e+00
      vertex -5.060831e-01 -4.118761e+01 6.350000e+00
      vertex -9.025631e-01 -4.023042e+01 6.350000e+00
    endloop
  endfacet
  facet normal -6.123234e-17 -1.000000e+00 0.000000e+00
    outer loop
      vertex 5.185399e+00 2.128520e+01 0.000000e+00
      vertex 1.788540e+01 2.128520e+01 0.000000e+00
      vertex 5.185399e+00 2.128520e+01 6.350000e+00
    endloop
  endfacet
  facet normal -6.123234e-17 -1.000000e+00 0.000000e+00
    outer loop
      vertex -1.386460e+01 2.128520e+01 4.445000e+01
      vertex 1.788540e+01 2.128520e+01 0.000000e+00
      vertex 1.788540e+01 2.128520e+01 4.445000e+01
    endloop
  endfacet
  facet normal -6.123234e-17 -1.000000e+00 0.000000e+00
    outer loop
      vertex 1.788540e+01 2.128520e+01 0.000000e+00
      vertex -1.386460e+01 2.128520e+01 4.445000e+01
      vertex 5.185399e+00 2.128520e+01 6.350000e+00
    endloop
  endfacet
  facet normal -6.123234e-17 -1.000000e+00 0.000000e+00
    outer loop
      vertex 5.185399e+00 2.128520e+01 6.350000e+00
      vertex -1.386460e+01 2.128520e+01 4.445000e+01
      vertex -1.386460e+01 2.128520e+01 6.350000e+00
    endloop
  endfacet
  facet normal 8.660254e-01 -5.000000e-01 0.000000e+00
    outer loop
      vertex -7.776639e+00 1.044576e+00 6.350000e+00
      vertex -8.173119e+00 8.738899e-02 0.000000e+00
      vertex -7.776639e+00 1.044576e+00 0.000000e+00
    endloop
  endfacet
  facet normal 9.659258e-01 -2.588190e-01 0.000000e+00
    outer loop
      vertex -8.173119e+00 8.738899e-02 0.000000e+00
      vertex -7.776639e+00 1.044576e+00 6.350000e+00
      vertex -8.173119e+00 8.738899e-02 6.350000e+00
    endloop
  endfacet
  facet normal -9.659258e-01 2.588190e-01 0.000000e+00
    outer loop
      vertex -5.060831e-01 -4.324199e+01 6.350000e+00
      vertex -3.708512e-01 -4.221480e+01 0.000000e+00
      vertex -5.060831e-01 -4.324199e+01 0.000000e+00
    endloop
  endfacet
  facet normal -1.000000e+00 -8.134546e-17 0.000000e+00
    outer loop
      vertex -3.708512e-01 -4.221480e+01 0.000000e+00
      vertex -5.060831e-01 -4.324199e+01 6.350000e+00
      vertex -3.708512e-01 -4.221480e+01 6.350000e+00
    endloop
  endfacet
  facet normal 7.071068e-01 7.071068e-01 0.000000e+00
    outer loop
      vertex -7.145931e+00 -4.502113e+01 0.000000e+00
      vertex -6.323976e+00 -4.565184e+01 6.350000e+00
      vertex -6.323976e+00 -4.565184e+01 0.000000e+00
    endloop
  endfacet
  facet normal 5.000000e-01 8.660254e-01 0.000000e+00
    outer loop
      vertex -6.323976e+00 -4.565184e+01 6.350000e+00
      vertex -7.145931e+00 -4.502113e+01 0.000000e+00
      vertex -7.145931e+00 -4.502113e+01 6.350000e+00
    endloop
  endfacet
  facet normal -9.659258e-01 2.588190e-01 0.000000e+00
    outer loop
      vertex -5.060831e-01 -1.966987e+00 6.350000e+00
      vertex -3.708512e-01 -9.397988e-01 0.000000e+00
      vertex -5.060831e-01 -1.966987e+00 0.000000e+00
    endloop
  endfacet
  facet normal -1.000000e+00 -2.773899e-16 0.000000e+00
    outer loop
      vertex -3.708512e-01 -9.397988e-01 0.000000e+00
      vertex -5.060831e-01 -1.966987e+00 6.350000e+00
      vertex -3.708512e-01 -9.397988e-01 6.350000e+00
    endloop
  endfacet
  facet normal -1.000000e+00 -2.773899e-16 0.000000e+00
    outer loop
      vertex -3.708512e-01 -9.397988e-01 6.350000e+00
      vertex -5.060831e-01 8.738899e-02 0.000000e+00
      vertex -3.708512e-01 -9.397988e-01 0.000000e+00
    endloop
  endfacet
  facet normal -9.659258e-01 -2.588190e-01 0.000000e+00
    outer loop
      vertex -5.060831e-01 8.738899e-02 0.000000e+00
      vertex -3.708512e-01 -9.397988e-01 6.350000e+00
      vertex -5.060831e-01 8.738899e-02 6.350000e+00
    endloop
  endfacet
  facet normal -2.588190e-01 9.659258e-01 0.000000e+00
    outer loop
      vertex -3.312413e+00 -4.604832e+01 0.000000e+00
      vertex -2.355226e+00 -4.565184e+01 6.350000e+00
      vertex -2.355226e+00 -4.565184e+01 0.000000e+00
    endloop
  endfacet
  facet normal -5.000000e-01 8.660254e-01 0.000000e+00
    outer loop
      vertex -2.355226e+00 -4.565184e+01 6.350000e+00
      vertex -3.312413e+00 -4.604832e+01 0.000000e+00
      vertex -3.312413e+00 -4.604832e+01 6.350000e+00
    endloop
  endfacet
  facet normal 8.660254e-01 5.000000e-01 0.000000e+00
    outer loop
      vertex -7.776639e+00 -2.924174e+00 6.350000e+00
      vertex -7.145931e+00 -3.746129e+00 0.000000e+00
      vertex -7.776639e+00 -2.924174e+00 0.000000e+00
    endloop
  endfacet
  facet normal 7.071068e-01 7.071068e-01 0.000000e+00
    outer loop
      vertex -7.145931e+00 -3.746129e+00 0.000000e+00
      vertex -7.776639e+00 -2.924174e+00 6.350000e+00
      vertex -7.145931e+00 -3.746129e+00 6.350000e+00
    endloop
  endfacet
  facet normal 8.660254e-01 5.000000e-01 0.000000e+00
    outer loop
      vertex -7.776639e+00 -4.419917e+01 6.350000e+00
      vertex -7.145931e+00 -4.502113e+01 0.000000e+00
      vertex -7.776639e+00 -4.419917e+01 0.000000e+00
    endloop
  endfacet
  facet normal 7.071068e-01 7.071068e-01 0.000000e+00
    outer loop
      vertex -7.145931e+00 -4.502113e+01 0.000000e+00
      vertex -7.776639e+00 -4.419917e+01 6.350000e+00
      vertex -7.145931e+00 -4.502113e+01 6.350000e+00
    endloop
  endfacet
  facet normal 5.000000e-01 -8.660254e-01 0.000000e+00
    outer loop
      vertex -6.323976e+00 -3.877776e+01 6.350000e+00
      vertex -5.366789e+00 -3.838128e+01 0.000000e+00
      vertex -5.366789e+00 -3.838128e+01 6.350000e+00
    endloop
  endfacet
  facet normal 2.588190e-01 -9.659258e-01 0.000000e+00
    outer loop
      vertex -5.366789e+00 -3.838128e+01 0.000000e+00
      vertex -6.323976e+00 -3.877776e+01 6.350000e+00
      vertex -6.323976e+00 -3.877776e+01 0.000000e+00
    endloop
  endfacet
  facet normal 9.659258e-01 2.588190e-01 0.000000e+00
    outer loop
      vertex -8.173119e+00 -1.966987e+00 6.350000e+00
      vertex -7.776639e+00 -2.924174e+00 0.000000e+00
      vertex -8.173119e+00 -1.966987e+00 0.000000e+00
    endloop
  endfacet
  facet normal 8.660254e-01 5.000000e-01 0.000000e+00
    outer loop
      vertex -7.776639e+00 -2.924174e+00 0.000000e+00
      vertex -8.173119e+00 -1.966987e+00 6.350000e+00
      vertex -7.776639e+00 -2.924174e+00 6.350000e+00
    endloop
  endfacet
  facet normal 9.659258e-01 2.588190e-01 0.000000e+00
    outer loop
      vertex -8.173119e+00 -4.324199e+01 6.350000e+00
      vertex -7.776639e+00 -4.419917e+01 0.000000e+00
      vertex -8.173119e+00 -4.324199e+01 0.000000e+00
    endloop
  endfacet
  facet normal 8.660254e-01 5.000000e-01 0.000000e+00
    outer loop
      vertex -7.776639e+00 -4.419917e+01 0.000000e+00
      vertex -8.173119e+00 -4.324199e+01 6.350000e+00
      vertex -7.776639e+00 -4.419917e+01 6.350000e+00
    endloop
  endfacet
  facet normal 5.000000e-01 8.660254e-01 0.000000e+00
    outer loop
      vertex -6.323976e+00 -4.376837e+00 0.000000e+00
      vertex -5.366789e+00 -4.773317e+00 6.350000e+00
      vertex -5.366789e+00 -4.773317e+00 0.000000e+00
    endloop
  endfacet
  facet normal 2.588190e-01 9.659258e-01 0.000000e+00
    outer loop
      vertex -5.366789e+00 -4.773317e+00 6.350000e+00
      vertex -6.323976e+00 -4.376837e+00 0.000000e+00
      vertex -6.323976e+00 -4.376837e+00 6.350000e+00
    endloop
  endfacet
  facet normal -7.071068e-01 7.071068e-01 0.000000e+00
    outer loop
      vertex -1.533271e+00 -3.746129e+00 6.350000e+00
      vertex -9.025631e-01 -2.924174e+00 0.000000e+00
      vertex -1.533271e+00 -3.746129e+00 0.000000e+00
    endloop
  endfacet
  facet normal -8.660254e-01 5.000000e-01 0.000000e+00
    outer loop
      vertex -9.025631e-01 -2.924174e+00 0.000000e+00
      vertex -1.533271e+00 -3.746129e+00 6.350000e+00
      vertex -9.025631e-01 -2.924174e+00 6.350000e+00
    endloop
  endfacet
  facet normal 1.236101e-16 1.000000e+00 0.000000e+00
    outer loop
      vertex -4.339601e+00 -4.908549e+00 0.000000e+00
      vertex -3.312413e+00 -4.773317e+00 6.350000e+00
      vertex -3.312413e+00 -4.773317e+00 0.000000e+00
    endloop
  endfacet
  facet normal -2.588190e-01 9.659258e-01 0.000000e+00
    outer loop
      vertex -3.312413e+00 -4.773317e+00 6.350000e+00
      vertex -4.339601e+00 -4.908549e+00 0.000000e+00
      vertex -4.339601e+00 -4.908549e+00 6.350000e+00
    endloop
  endfacet
  facet normal 7.071068e-01 -7.071068e-01 0.000000e+00
    outer loop
      vertex -7.145931e+00 1.866531e+00 6.350000e+00
      vertex -6.323976e+00 2.497240e+00 0.000000e+00
      vertex -6.323976e+00 2.497240e+00 6.350000e+00
    endloop
  endfacet
  facet normal 5.000000e-01 -8.660254e-01 0.000000e+00
    outer loop
      vertex -6.323976e+00 2.497240e+00 0.000000e+00
      vertex -7.145931e+00 1.866531e+00 6.350000e+00
      vertex -7.145931e+00 1.866531e+00 0.000000e+00
    endloop
  endfacet
  facet normal 2.588190e-01 -9.659258e-01 0.000000e+00
    outer loop
      vertex -5.366789e+00 -3.838128e+01 6.350000e+00
      vertex -4.339601e+00 -3.824605e+01 0.000000e+00
      vertex -4.339601e+00 -3.824605e+01 6.350000e+00
    endloop
  endfacet
  facet normal 4.288788e-16 -1.000000e+00 0.000000e+00
    outer loop
      vertex -4.339601e+00 -3.824605e+01 0.000000e+00
      vertex -5.366789e+00 -3.838128e+01 6.350000e+00
      vertex -5.366789e+00 -3.838128e+01 0.000000e+00
    endloop
  endfacet
  facet normal -2.588190e-01 9.659258e-01 0.000000e+00
    outer loop
      vertex -3.312413e+00 -4.773317e+00 0.000000e+00
      vertex -2.355226e+00 -4.376837e+00 6.350000e+00
      vertex -2.355226e+00 -4.376837e+00 0.000000e+00
    endloop
  endfacet
  facet normal -5.000000e-01 8.660254e-01 0.000000e+00
    outer loop
      vertex -2.355226e+00 -4.376837e+00 6.350000e+00
      vertex -3.312413e+00 -4.773317e+00 0.000000e+00
      vertex -3.312413e+00 -4.773317e+00 6.350000e+00
    endloop
  endfacet
  facet normal -8.660254e-01 5.000000e-01 0.000000e+00
    outer loop
      vertex -9.025631e-01 -4.419917e+01 6.350000e+00
      vertex -5.060831e-01 -4.324199e+01 0.000000e+00
      vertex -9.025631e-01 -4.419917e+01 0.000000e+00
    endloop
  endfacet
  facet normal -9.659258e-01 2.588190e-01 0.000000e+00
    outer loop
      vertex -5.060831e-01 -4.324199e+01 0.000000e+00
      vertex -9.025631e-01 -4.419917e+01 6.350000e+00
      vertex -5.060831e-01 -4.324199e+01 6.350000e+00
    endloop
  endfacet
  facet normal -1.000000e+00 -8.134546e-17 0.000000e+00
    outer loop
      vertex -3.708512e-01 -4.221480e+01 6.350000e+00
      vertex -5.060831e-01 -4.118761e+01 0.000000e+00
      vertex -3.708512e-01 -4.221480e+01 0.000000e+00
    endloop
  endfacet
  facet normal -9.659258e-01 -2.588190e-01 0.000000e+00
    outer loop
      vertex -5.060831e-01 -4.118761e+01 0.000000e+00
      vertex -3.708512e-01 -4.221480e+01 6.350000e+00
      vertex -5.060831e-01 -4.118761e+01 6.350000e+00
    endloop
  endfacet
  facet normal -5.000000e-01 -8.660254e-01 0.000000e+00
    outer loop
      vertex -2.355226e+00 -3.877776e+01 6.350000e+00
      vertex -1.533271e+00 -3.940847e+01 0.000000e+00
      vertex -1.533271e+00 -3.940847e+01 6.350000e+00
    endloop
  endfacet
  facet normal -7.071068e-01 -7.071068e-01 0.000000e+00
    outer loop
      vertex -1.533271e+00 -3.940847e+01 0.000000e+00
      vertex -2.355226e+00 -3.877776e+01 6.350000e+00
      vertex -2.355226e+00 -3.877776e+01 0.000000e+00
    endloop
  endfacet
  facet normal 1.000000e+00 2.595677e-16 0.000000e+00
    outer loop
      vertex -8.308351e+00 -9.397988e-01 6.350000e+00
      vertex -8.173119e+00 -1.966987e+00 0.000000e+00
      vertex -8.308351e+00 -9.397988e-01 0.000000e+00
    endloop
  endfacet
  facet normal 9.659258e-01 2.588190e-01 0.000000e+00
    outer loop
      vertex -8.173119e+00 -1.966987e+00 0.000000e+00
      vertex -8.308351e+00 -9.397988e-01 6.350000e+00
      vertex -8.173119e+00 -1.966987e+00 6.350000e+00
    endloop
  endfacet
  facet normal -8.660254e-01 5.000000e-01 0.000000e+00
    outer loop
      vertex -9.025631e-01 -2.924174e+00 6.350000e+00
      vertex -5.060831e-01 -1.966987e+00 0.000000e+00
      vertex -9.025631e-01 -2.924174e+00 0.000000e+00
    endloop
  endfacet
  facet normal -9.659258e-01 2.588190e-01 0.000000e+00
    outer loop
      vertex -5.060831e-01 -1.966987e+00 0.000000e+00
      vertex -9.025631e-01 -2.924174e+00 6.350000e+00
      vertex -5.060831e-01 -1.966987e+00 6.350000e+00
    endloop
  endfacet
  facet normal 2.588190e-01 9.659258e-01 0.000000e+00
    outer loop
      vertex -5.366789e+00 -4.604832e+01 0.000000e+00
      vertex -4.339601e+00 -4.618355e+01 6.350000e+00
      vertex -4.339601e+00 -4.618355e+01 0.000000e+00
    endloop
  endfacet
  facet normal -2.150120e-16 1.000000e+00 0.000000e+00
    outer loop
      vertex -4.339601e+00 -4.618355e+01 6.350000e+00
      vertex -5.366789e+00 -4.604832e+01 0.000000e+00
      vertex -5.366789e+00 -4.604832e+01 6.350000e+00
    endloop
  endfacet
  facet normal 1.000000e+00 5.269010e-16 0.000000e+00
    outer loop
      vertex -8.308351e+00 -4.221480e+01 6.350000e+00
      vertex -8.173119e+00 -4.324199e+01 0.000000e+00
      vertex -8.308351e+00 -4.221480e+01 0.000000e+00
    endloop
  endfacet
  facet normal 9.659258e-01 2.588190e-01 0.000000e+00
    outer loop
      vertex -8.173119e+00 -4.324199e+01 0.000000e+00
      vertex -8.308351e+00 -4.221480e+01 6.350000e+00
      vertex -8.173119e+00 -4.324199e+01 6.350000e+00
    endloop
  endfacet
  facet normal 1.000000e+00 -6.123234e-17 0.000000e+00
    outer loop
      vertex 1.788540e+01 4.033520e+01 4.445000e+01
      vertex 1.788540e+01 2.128520e+01 0.000000e+00
      vertex 1.788540e+01 4.033520e+01 0.000000e+00
    endloop
  endfacet
  facet normal 1.000000e+00 -6.123234e-17 0.000000e+00
    outer loop
      vertex 1.788540e+01 2.128520e+01 0.000000e+00
      vertex 1.788540e+01 4.033520e+01 4.445000e+01
      vertex 1.788540e+01 2.128520e+01 4.445000e+01
    endloop
  endfacet
  facet normal 7.071068e-01 -7.071068e-01 0.000000e+00
    outer loop
      vertex -7.145931e+00 1.866531e+00 6.350000e+00
      vertex -7.776639e+00 1.044576e+00 0.000000e+00
      vertex -7.145931e+00 1.866531e+00 0.000000e+00
    endloop
  endfacet
  facet normal 8.660254e-01 -5.000000e-01 0.000000e+00
    outer loop
      vertex -7.776639e+00 1.044576e+00 0.000000e+00
      vertex -7.145931e+00 1.866531e+00 6.350000e+00
      vertex -7.776639e+00 1.044576e+00 6.350000e+00
    endloop
  endfacet
  facet normal 6.123234e-17 1.000000e+00 0.000000e+00
    outer loop
      vertex -1.386460e+01 2.763520e+01 0.000000e+00
      vertex 1.153540e+01 2.763520e+01 4.445000e+01
      vertex 1.153540e+01 2.763520e+01 0.000000e+00
    endloop
  endfacet
  facet normal 6.123234e-17 1.000000e+00 0.000000e+00
    outer loop
      vertex 1.153540e+01 2.763520e+01 4.445000e+01
      vertex -1.386460e+01 2.763520e+01 0.000000e+00
      vertex -1.386460e+01 2.763520e+01 4.445000e+01
    endloop
  endfacet
  facet normal 8.660254e-01 -5.000000e-01 0.000000e+00
    outer loop
      vertex -7.776639e+00 -4.023042e+01 6.350000e+00
      vertex -8.173119e+00 -4.118761e+01 0.000000e+00
      vertex -7.776639e+00 -4.023042e+01 0.000000e+00
    endloop
  endfacet
  facet normal 9.659258e-01 -2.588190e-01 0.000000e+00
    outer loop
      vertex -8.173119e+00 -4.118761e+01 0.000000e+00
      vertex -7.776639e+00 -4.023042e+01 6.350000e+00
      vertex -8.173119e+00 -4.118761e+01 6.350000e+00
    endloop
  endfacet
  facet normal -2.750989e-16 -1.000000e+00 0.000000e+00
    outer loop
      vertex -4.339601e+00 3.028951e+00 6.350000e+00
      vertex -3.312413e+00 2.893719e+00 0.000000e+00
      vertex -3.312413e+00 2.893719e+00 6.350000e+00
    endloop
  endfacet
  facet normal -2.588190e-01 -9.659258e-01 0.000000e+00
    outer loop
      vertex -3.312413e+00 2.893719e+00 0.000000e+00
      vertex -4.339601e+00 3.028951e+00 6.350000e+00
      vertex -4.339601e+00 3.028951e+00 0.000000e+00
    endloop
  endfacet
  facet normal 2.588190e-01 -9.659258e-01 0.000000e+00
    outer loop
      vertex -5.366789e+00 2.893719e+00 6.350000e+00
      vertex -4.339601e+00 3.028951e+00 0.000000e+00
      vertex -4.339601e+00 3.028951e+00 6.350000e+00
    endloop
  endfacet
  facet normal -2.750989e-16 -1.000000e+00 0.000000e+00
    outer loop
      vertex -4.339601e+00 3.028951e+00 0.000000e+00
      vertex -5.366789e+00 2.893719e+00 6.350000e+00
      vertex -5.366789e+00 2.893719e+00 0.000000e+00
    endloop
  endfacet
  facet normal 7.071068e-01 -7.071068e-01 0.000000e+00
    outer loop
      vertex -7.145931e+00 -3.940847e+01 6.350000e+00
      vertex -7.776639e+00 -4.023042e+01 0.000000e+00
      vertex -7.145931e+00 -3.940847e+01 0.000000e+00
    endloop
  endfacet
  facet normal 8.660254e-01 -5.000000e-01 0.000000e+00
    outer loop
      vertex -7.776639e+00 -4.023042e+01 0.000000e+00
      vertex -7.145931e+00 -3.940847e+01 6.350000e+00
      vertex -7.776639e+00 -4.023042e+01 6.350000e+00
    endloop
  endfacet
endsolid Default
