solid double_standoff_joiner_with_magnet
facet normal 0.707106781186548 -0.707106781186548 0.0
outer loop
vertex -40.48125 1.5875 3.175
vertex -42.06875 -2.8199664825479e-15 15.875
vertex -42.06875 -2.8199664825479e-15 3.175
endloop
endfacet
facet normal 0.707106781186548 -0.707106781186548 0.0
outer loop
vertex -42.06875 -2.8199664825479e-15 15.875
vertex -40.48125 1.5875 3.175
vertex -40.48125 1.5875 15.875
endloop
endfacet
facet normal 0.0 1.0 0.0
outer loop
vertex 36.5125 -6.35 15.875
vertex 41.275 -6.35 3.175
vertex 36.5125 -6.35 3.175
endloop
endfacet
facet normal 0.0 1.0 0.0
outer loop
vertex 41.275 -6.35 3.175
vertex 36.5125 -6.35 15.875
vertex 41.275 -6.35 15.875
endloop
endfacet
facet normal 1.0 0.0 0.0
outer loop
vertex -30.95625 -2.8199664825479e-15 0.0
vertex -30.95625 -9.525 15.875
vertex -30.95625 -9.525 0.0
endloop
endfacet
facet normal 1.0 0.0 0.0
outer loop
vertex -30.95625 -9.525 15.875
vertex -30.95625 -2.8199664825479e-15 0.0
vertex -30.95625 -2.8199664825479e-15 15.875
endloop
endfacet
facet normal 1.0 0.0 0.0
outer loop
vertex 34.925 -2.8199664825479e-15 3.175
vertex 34.925 -4.7625 15.875
vertex 34.925 -4.7625 3.175
endloop
endfacet
facet normal 1.0 0.0 0.0
outer loop
vertex 34.925 -4.7625 15.875
vertex 34.925 -2.8199664825479e-15 3.175
vertex 34.925 -2.8199664825479e-15 15.875
endloop
endfacet
facet normal 0.707106781186548 -0.707106781186548 0.0
outer loop
vertex 36.5125 1.5875 3.175
vertex 34.925 -2.8199664825479e-15 15.875
vertex 34.925 -2.8199664825479e-15 3.175
endloop
endfacet
facet normal 0.707106781186548 -0.707106781186548 0.0
outer loop
vertex 34.925 -2.8199664825479e-15 15.875
vertex 36.5125 1.5875 3.175
vertex 36.5125 1.5875 15.875
endloop
endfacet
facet normal -0.792177003788062 -0.610291401438173 0.0
outer loop
vertex -36.20820270132 -0.923813569596785 3.175
vertex -35.8954518258865 -1.46310768207091 0.0
vertex -35.8954518258865 -1.46310768207091 3.175
endloop
endfacet
facet normal -0.923139264705685 -0.384465730538689 0.0
outer loop
vertex -35.8954518258865 -1.46310768207091 0.0
vertex -36.20820270132 -0.923813569596785 3.175
vertex -36.20820270132 -0.923813569596785 0.0
endloop
endfacet
facet normal -1.59796202860578e-16 -1.70803542250024e-17 1.0
outer loop
vertex 31.75 -9.525 15.875
vertex 34.925 -4.7625 15.875
vertex 31.75 -2.8199664825479e-15 15.875
endloop
endfacet
facet normal -1.59796202860578e-16 -1.70803542250024e-17 1.0
outer loop
vertex 34.925 -4.7625 15.875
vertex 31.75 -9.525 15.875
vertex 36.5125 -6.35 15.875
endloop
endfacet
facet normal -1.59796202860578e-16 -1.70803542250024e-17 1.0
outer loop
vertex 36.5125 -6.35 15.875
vertex 31.75 -9.525 15.875
vertex 46.0375 -9.525 15.875
endloop
endfacet
facet normal -1.59796202860578e-16 -1.70803542250024e-17 1.0
outer loop
vertex 31.75 -2.8199664825479e-15 15.875
vertex 34.925 -4.7625 15.875
vertex 31.75 1.5875 15.875
endloop
endfacet
facet normal -1.59796202860578e-16 -1.70803542250024e-17 1.0
outer loop
vertex 31.75 1.5875 15.875
vertex 34.925 -4.7625 15.875
vertex 31.75 7.9375 15.875
endloop
endfacet
facet normal -1.59796202860578e-16 -1.70803542250024e-17 1.0
outer loop
vertex 31.75 7.9375 15.875
vertex 34.925 -4.7625 15.875
vertex 31.75 9.525 15.875
endloop
endfacet
facet normal -1.59796202860578e-16 -1.70803542250024e-17 1.0
outer loop
vertex 36.5125 -6.35 15.875
vertex 46.0375 -9.525 15.875
vertex 41.275 -6.35 15.875
endloop
endfacet
facet normal -1.59796202860578e-16 -1.70803542250024e-17 1.0
outer loop
vertex 41.275 -6.35 15.875
vertex 46.0375 -9.525 15.875
vertex 42.8625 -4.7625 15.875
endloop
endfacet
facet normal -1.59796202860578e-16 -1.70803542250024e-17 1.0
outer loop
vertex 42.8625 -4.7625 15.875
vertex 46.0375 -9.525 15.875
vertex 42.8625 -2.8199664825479e-15 15.875
endloop
endfacet
facet normal -1.59796202860578e-16 -1.70803542250024e-17 1.0
outer loop
vertex 31.75 9.525 15.875
vertex 36.5125 1.5875 15.875
vertex 46.0375 9.525 15.875
endloop
endfacet
facet normal -1.59796202860578e-16 -1.70803542250024e-17 1.0
outer loop
vertex 36.5125 1.5875 15.875
vertex 31.75 9.525 15.875
vertex 34.925 -2.8199664825479e-15 15.875
endloop
endfacet
facet normal -1.59796202860578e-16 -1.70803542250024e-17 1.0
outer loop
vertex 34.925 -2.8199664825479e-15 15.875
vertex 31.75 9.525 15.875
vertex 34.925 -4.7625 15.875
endloop
endfacet
facet normal -1.59796202860578e-16 -1.70803542250024e-17 1.0
outer loop
vertex 46.0375 9.525 15.875
vertex 36.5125 1.5875 15.875
vertex 41.275 1.5875 15.875
endloop
endfacet
facet normal -1.59796202860578e-16 -1.70803542250024e-17 1.0
outer loop
vertex 46.0375 9.525 15.875
vertex 41.275 1.5875 15.875
vertex 42.8625 -2.8199664825479e-15 15.875
endloop
endfacet
facet normal -1.59796202860578e-16 -1.70803542250024e-17 1.0
outer loop
vertex 46.0375 9.525 15.875
vertex 42.8625 -2.8199664825479e-15 15.875
vertex 46.0375 -9.525 15.875
endloop
endfacet
facet normal 1.0 0.0 0.0
outer loop
vertex 12.7 7.9375 3.175
vertex 12.7 1.5875 22.225
vertex 12.7 1.5875 3.175
endloop
endfacet
facet normal 1.0 0.0 0.0
outer loop
vertex 12.7 1.5875 22.225
vertex 12.7 7.9375 3.175
vertex 12.7 7.9375 22.225
endloop
endfacet
facet normal -0.610291401438173 -0.792177003788062 0.0
outer loop
vertex 40.3511864304032 -0.489452701319992 3.175
vertex 40.7911586586729 -0.931126436315668 0.0
vertex 40.7911586586729 -0.931126436315668 3.175
endloop
endfacet
facet normal -0.794526721883885 -0.607229189196672 0.0
outer loop
vertex 40.7911586586729 -0.931126436315668 0.0
vertex 40.3511864304032 -0.489452701319992 3.175
vertex 40.3511864304032 -0.489452701319992 0.0
endloop
endfacet
facet normal -0.991694919735353 -0.128612542821809 0.0
outer loop
vertex 41.2620158816134 -2.0741104845594 3.175
vertex 41.261420170338 -2.38278187164108 0.0
vertex 41.261420170338 -2.38278187164108 3.175
endloop
endfacet
facet normal -0.999998137708398 0.00192991702812201 0.0
outer loop
vertex 41.261420170338 -2.38278187164108 0.0
vertex 41.2620158816134 -2.0741104845594 3.175
vertex 41.2620158816134 -2.0741104845594 0.0
endloop
endfacet
facet normal 0.792177003788063 -0.610291401438172 0.0
outer loop
vertex 37.00195270132 -0.923813569596808 0.0
vertex 36.6892018258865 -1.46310768207089 3.175
vertex 36.6892018258865 -1.46310768207089 0.0
endloop
endfacet
facet normal 0.923139264705689 -0.384465730538679 0.0
outer loop
vertex 36.6892018258865 -1.46310768207089 3.175
vertex 37.00195270132 -0.923813569596808 0.0
vertex 37.00195270132 -0.923813569596808 3.175
endloop
endfacet
facet normal -0.128612542821806 0.991694919735354 0.0
outer loop
vertex 39.2008895154406 -4.74951588161345 3.175
vertex 39.8033763042661 -4.58932562247009 0.0
vertex 39.2008895154406 -4.74951588161345 0.0
endloop
endfacet
facet normal -0.380899708855216 0.924616359250696 0.0
outer loop
vertex 39.8033763042661 -4.58932562247009 0.0
vertex 39.2008895154406 -4.74951588161345 3.175
vertex 39.8033763042661 -4.58932562247009 3.175
endloop
endfacet
facet normal -0.999998137708398 -0.00192991702814039 0.0
outer loop
vertex -35.732329829662 -2.37971812835892 3.175
vertex -35.7317341183865 -2.68838951544059 0.0
vertex -35.7317341183865 -2.68838951544059 3.175
endloop
endfacet
facet normal -0.991694919735356 0.12861254282179 0.0
outer loop
vertex -35.7317341183865 -2.68838951544059 0.0
vertex -35.732329829662 -2.37971812835892 3.175
vertex -35.732329829662 -2.37971812835892 0.0
endloop
endfacet
facet normal -0.610291401438173 -0.792177003788062 0.0
outer loop
vertex 40.3511864304032 -0.489452701319992 3.175
vertex 39.8118923179291 -0.176701825886505 0.0
vertex 40.3511864304032 -0.489452701319992 0.0
endloop
endfacet
facet normal -0.384465730538677 -0.92313926470569 0.0
outer loop
vertex 39.8118923179291 -0.176701825886505 0.0
vertex 40.3511864304032 -0.489452701319992 3.175
vertex 39.8118923179291 -0.176701825886505 3.175
endloop
endfacet
facet normal -0.707106781186548 0.707106781186548 0.0
outer loop
vertex -34.13125 -4.7625 15.875
vertex -35.71875 -6.35 3.175
vertex -35.71875 -6.35 15.875
endloop
endfacet
facet normal -0.707106781186548 0.707106781186548 0.0
outer loop
vertex -35.71875 -6.35 3.175
vertex -34.13125 -4.7625 15.875
vertex -34.13125 -4.7625 3.175
endloop
endfacet
facet normal -0.707106781186548 -0.707106781186548 0.0
outer loop
vertex -35.71875 1.5875 15.875
vertex -34.13125 -2.8199664825479e-15 3.175
vertex -34.13125 -2.8199664825479e-15 15.875
endloop
endfacet
facet normal -0.707106781186548 -0.707106781186548 0.0
outer loop
vertex -34.13125 -2.8199664825479e-15 3.175
vertex -35.71875 1.5875 15.875
vertex -35.71875 1.5875 3.175
endloop
endfacet
facet normal 0.0 1.0 0.0
outer loop
vertex -30.95625 9.525 22.225
vertex 31.75 9.525 15.875
vertex -30.95625 9.525 15.875
endloop
endfacet
facet normal 0.0 1.0 0.0
outer loop
vertex 31.75 9.525 15.875
vertex -30.95625 9.525 22.225
vertex 31.75 9.525 22.225
endloop
endfacet
facet normal 0.0 1.0 0.0
outer loop
vertex -45.24375 9.525 15.875
vertex 46.0375 9.525 0.0
vertex -45.24375 9.525 0.0
endloop
endfacet
facet normal 0.0 1.0 0.0
outer loop
vertex 46.0375 9.525 0.0
vertex -45.24375 9.525 15.875
vertex -30.95625 9.525 15.875
endloop
endfacet
facet normal 0.0 1.0 0.0
outer loop
vertex 46.0375 9.525 0.0
vertex -30.95625 9.525 15.875
vertex 46.0375 9.525 15.875
endloop
endfacet
facet normal 0.0 1.0 0.0
outer loop
vertex 46.0375 9.525 15.875
vertex -30.95625 9.525 15.875
vertex 31.75 9.525 15.875
endloop
endfacet
facet normal -1.0 0.0 0.0
outer loop
vertex -11.90625 7.9375 22.225
vertex -11.90625 1.5875 3.175
vertex -11.90625 1.5875 22.225
endloop
endfacet
facet normal -1.0 0.0 0.0
outer loop
vertex -11.90625 1.5875 3.175
vertex -11.90625 7.9375 22.225
vertex -11.90625 7.9375 3.175
endloop
endfacet
facet normal -1.0 0.0 0.0
outer loop
vertex -34.13125 -2.8199664825479e-15 15.875
vertex -34.13125 -4.7625 3.175
vertex -34.13125 -4.7625 15.875
endloop
endfacet
facet normal -1.0 0.0 0.0
outer loop
vertex -34.13125 -4.7625 3.175
vertex -34.13125 -2.8199664825479e-15 15.875
vertex -34.13125 -2.8199664825479e-15 3.175
endloop
endfacet
facet normal -1.0 0.0 0.0
outer loop
vertex -45.24375 9.525 15.875
vertex -45.24375 -9.525 0.0
vertex -45.24375 -9.525 15.875
endloop
endfacet
facet normal -1.0 0.0 0.0
outer loop
vertex -45.24375 -9.525 0.0
vertex -45.24375 9.525 15.875
vertex -45.24375 9.525 0.0
endloop
endfacet
facet normal 0.0 1.0 0.0
outer loop
vertex 12.7 1.5875 22.225
vertex 31.75 1.5875 3.175
vertex 12.7 1.5875 3.175
endloop
endfacet
facet normal 0.0 1.0 0.0
outer loop
vertex 31.75 1.5875 3.175
vertex 12.7 1.5875 22.225
vertex 31.75 1.5875 15.875
endloop
endfacet
facet normal 0.0 1.0 0.0
outer loop
vertex 31.75 1.5875 15.875
vertex 12.7 1.5875 22.225
vertex 31.75 1.5875 22.225
endloop
endfacet
facet normal 0.707106781186548 0.707106781186548 0.0
outer loop
vertex -42.06875 -4.7625 3.175
vertex -40.48125 -6.35 15.875
vertex -40.48125 -6.35 3.175
endloop
endfacet
facet normal 0.707106781186548 0.707106781186548 0.0
outer loop
vertex -40.48125 -6.35 15.875
vertex -42.06875 -4.7625 3.175
vertex -42.06875 -4.7625 15.875
endloop
endfacet
facet normal 0.0 -1.0 0.0
outer loop
vertex -35.71875 1.5875 15.875
vertex -40.48125 1.5875 3.175
vertex -35.71875 1.5875 3.175
endloop
endfacet
facet normal 0.0 -1.0 0.0
outer loop
vertex -40.48125 1.5875 3.175
vertex -35.71875 1.5875 15.875
vertex -40.48125 1.5875 15.875
endloop
endfacet
facet normal -1.0 0.0 0.0
outer loop
vertex 42.8625 -2.8199664825479e-15 15.875
vertex 42.8625 -4.7625 3.175
vertex 42.8625 -4.7625 15.875
endloop
endfacet
facet normal -1.0 0.0 0.0
outer loop
vertex 42.8625 -4.7625 3.175
vertex 42.8625 -2.8199664825479e-15 15.875
vertex 42.8625 -2.8199664825479e-15 3.175
endloop
endfacet
facet normal 0.0 -1.0 0.0
outer loop
vertex 46.0375 -9.525 15.875
vertex 31.75 -9.525 0.0
vertex 46.0375 -9.525 0.0
endloop
endfacet
facet normal 0.0 -1.0 0.0
outer loop
vertex 31.75 -9.525 0.0
vertex 46.0375 -9.525 15.875
vertex 31.75 -9.525 15.875
endloop
endfacet
facet normal 0.0 0.0 1.0
outer loop
vertex 36.5125 -6.35 3.175
vertex 34.925 -2.8199664825479e-15 3.175
vertex 34.925 -4.7625 3.175
endloop
endfacet
facet normal 0.0 0.0 1.0
outer loop
vertex 34.925 -2.8199664825479e-15 3.175
vertex 36.5125 -6.35 3.175
vertex 36.5125 1.5875 3.175
endloop
endfacet
facet normal 0.0 0.0 1.0
outer loop
vertex 36.5125 1.5875 3.175
vertex 36.5125 -6.35 3.175
vertex 36.5254841183866 -2.68838951544061 3.175
endloop
endfacet
facet normal 0.0 0.0 1.0
outer loop
vertex 36.5254841183866 -2.68838951544061 3.175
vertex 36.5125 -6.35 3.175
vertex 36.6856743775299 -3.29087630426607 3.175
endloop
endfacet
facet normal 0.0 0.0 1.0
outer loop
vertex 36.6856743775299 -3.29087630426607 3.175
vertex 36.5125 -6.35 3.175
vertex 36.9963413413271 -3.83137356368434 3.175
endloop
endfacet
facet normal 0.0 0.0 1.0
outer loop
vertex 36.9963413413271 -3.83137356368434 3.175
vertex 36.5125 -6.35 3.175
vertex 37.4363135695968 -4.27304729868001 3.175
endloop
endfacet
facet normal 0.0 0.0 1.0
outer loop
vertex 37.4363135695968 -4.27304729868001 3.175
vertex 36.5125 -6.35 3.175
vertex 37.9756076820709 -4.5857981741135 3.175
endloop
endfacet
facet normal 0.0 0.0 1.0
outer loop
vertex 37.9756076820709 -4.5857981741135 3.175
vertex 36.5125 -6.35 3.175
vertex 41.275 -6.35 3.175
endloop
endfacet
facet normal 0.0 0.0 1.0
outer loop
vertex 37.9756076820709 -4.5857981741135 3.175
vertex 41.275 -6.35 3.175
vertex 38.5774716762099 -4.74831273466927 3.175
endloop
endfacet
facet normal 0.0 0.0 1.0
outer loop
vertex 38.5774716762099 -4.74831273466927 3.175
vertex 41.275 -6.35 3.175
vertex 39.2008895154406 -4.74951588161345 3.175
endloop
endfacet
facet normal 0.0 0.0 1.0
outer loop
vertex 39.2008895154406 -4.74951588161345 3.175
vertex 41.275 -6.35 3.175
vertex 39.8033763042661 -4.58932562247009 3.175
endloop
endfacet
facet normal 0.0 0.0 1.0
outer loop
vertex 39.8033763042661 -4.58932562247009 3.175
vertex 41.275 -6.35 3.175
vertex 40.3438735636843 -4.27865865867289 3.175
endloop
endfacet
facet normal 0.0 0.0 1.0
outer loop
vertex 40.3438735636843 -4.27865865867289 3.175
vertex 41.275 -6.35 3.175
vertex 40.78554729868 -3.8386864304032 3.175
endloop
endfacet
facet normal 0.0 0.0 1.0
outer loop
vertex 40.78554729868 -3.8386864304032 3.175
vertex 41.275 -6.35 3.175
vertex 41.0982981741135 -3.29939231792911 3.175
endloop
endfacet
facet normal 0.0 0.0 1.0
outer loop
vertex 41.0982981741135 -3.29939231792911 3.175
vertex 41.275 -6.35 3.175
vertex 41.2608127346693 -2.69752832379008 3.175
endloop
endfacet
facet normal 0.0 0.0 1.0
outer loop
vertex 41.2608127346693 -2.69752832379008 3.175
vertex 41.275 -6.35 3.175
vertex 41.261420170338 -2.38278187164108 3.175
endloop
endfacet
facet normal 0.0 0.0 1.0
outer loop
vertex 41.261420170338 -2.38278187164108 3.175
vertex 41.275 -6.35 3.175
vertex 41.2620158816134 -2.0741104845594 3.175
endloop
endfacet
facet normal 0.0 0.0 1.0
outer loop
vertex 36.5125 1.5875 3.175
vertex 37.9841236957339 -0.173174377529916 3.175
vertex 41.275 1.5875 3.175
endloop
endfacet
facet normal 0.0 0.0 1.0
outer loop
vertex 37.9841236957339 -0.173174377529916 3.175
vertex 36.5125 1.5875 3.175
vertex 37.4436264363157 -0.483841341327113 3.175
endloop
endfacet
facet normal 0.0 0.0 1.0
outer loop
vertex 37.4436264363157 -0.483841341327113 3.175
vertex 36.5125 1.5875 3.175
vertex 37.00195270132 -0.923813569596808 3.175
endloop
endfacet
facet normal 0.0 0.0 1.0
outer loop
vertex 37.00195270132 -0.923813569596808 3.175
vertex 36.5125 1.5875 3.175
vertex 36.6892018258865 -1.46310768207089 3.175
endloop
endfacet
facet normal 0.0 0.0 1.0
outer loop
vertex 36.6892018258865 -1.46310768207089 3.175
vertex 36.5125 1.5875 3.175
vertex 36.5266872653307 -2.06497167620993 3.175
endloop
endfacet
facet normal 0.0 0.0 1.0
outer loop
vertex 36.5266872653307 -2.06497167620993 3.175
vertex 36.5125 1.5875 3.175
vertex 36.5254841183866 -2.68838951544061 3.175
endloop
endfacet
facet normal 0.0 0.0 1.0
outer loop
vertex 36.5266872653307 -2.06497167620993 3.175
vertex 36.5254841183866 -2.68838951544061 3.175
vertex 36.526079829662 -2.37971812835893 3.175
endloop
endfacet
facet normal 0.0 0.0 1.0
outer loop
vertex 41.275 1.5875 3.175
vertex 37.9841236957339 -0.173174377529916 3.175
vertex 38.5866104845594 -0.0129841183865568 3.175
endloop
endfacet
facet normal 0.0 0.0 1.0
outer loop
vertex 41.275 1.5875 3.175
vertex 38.5866104845594 -0.0129841183865568 3.175
vertex 39.2100283237901 -0.0141872653307377 3.175
endloop
endfacet
facet normal 0.0 0.0 1.0
outer loop
vertex 41.275 1.5875 3.175
vertex 39.2100283237901 -0.0141872653307377 3.175
vertex 39.8118923179291 -0.176701825886505 3.175
endloop
endfacet
facet normal 0.0 0.0 1.0
outer loop
vertex 41.275 1.5875 3.175
vertex 39.8118923179291 -0.176701825886505 3.175
vertex 40.3511864304032 -0.489452701319992 3.175
endloop
endfacet
facet normal 0.0 0.0 1.0
outer loop
vertex 41.275 1.5875 3.175
vertex 40.3511864304032 -0.489452701319992 3.175
vertex 40.7911586586729 -0.931126436315668 3.175
endloop
endfacet
facet normal 0.0 0.0 1.0
outer loop
vertex 41.275 1.5875 3.175
vertex 40.7911586586729 -0.931126436315668 3.175
vertex 41.1018256224701 -1.47162369573394 3.175
endloop
endfacet
facet normal 0.0 0.0 1.0
outer loop
vertex 41.275 1.5875 3.175
vertex 41.1018256224701 -1.47162369573394 3.175
vertex 41.2620158816134 -2.0741104845594 3.175
endloop
endfacet
facet normal 0.0 0.0 1.0
outer loop
vertex 41.275 1.5875 3.175
vertex 41.2620158816134 -2.0741104845594 3.175
vertex 41.275 -6.35 3.175
endloop
endfacet
facet normal 0.0 0.0 1.0
outer loop
vertex 41.275 1.5875 3.175
vertex 41.275 -6.35 3.175
vertex 42.8625 -4.7625 3.175
endloop
endfacet
facet normal 0.0 0.0 1.0
outer loop
vertex 41.275 1.5875 3.175
vertex 42.8625 -4.7625 3.175
vertex 42.8625 -2.8199664825479e-15 3.175
endloop
endfacet
facet normal 0.128612542821806 -0.991694919735354 0.0
outer loop
vertex 38.5866104845594 -0.0129841183865568 3.175
vertex 37.9841236957339 -0.173174377529916 0.0
vertex 38.5866104845594 -0.0129841183865568 0.0
endloop
endfacet
facet normal 0.380899708855214 -0.924616359250697 0.0
outer loop
vertex 37.9841236957339 -0.173174377529916 0.0
vertex 38.5866104845594 -0.0129841183865568 3.175
vertex 37.9841236957339 -0.173174377529916 3.175
endloop
endfacet
facet normal 1.0 0.0 0.0
outer loop
vertex 46.0375 9.525 0.0
vertex 46.0375 -9.525 15.875
vertex 46.0375 -9.525 0.0
endloop
endfacet
facet normal 1.0 0.0 0.0
outer loop
vertex 46.0375 -9.525 15.875
vertex 46.0375 9.525 0.0
vertex 46.0375 9.525 15.875
endloop
endfacet
facet normal 0.0 0.0 1.0
outer loop
vertex -11.90625 1.5875 3.175
vertex -30.95625 7.9375 3.175
vertex -30.95625 1.5875 3.175
endloop
endfacet
facet normal 0.0 0.0 1.0
outer loop
vertex -30.95625 7.9375 3.175
vertex -11.90625 1.5875 3.175
vertex -11.90625 7.9375 3.175
endloop
endfacet
facet normal 0.707106781186548 0.707106781186548 0.0
outer loop
vertex 34.925 -4.7625 3.175
vertex 36.5125 -6.35 15.875
vertex 36.5125 -6.35 3.175
endloop
endfacet
facet normal 0.707106781186548 0.707106781186548 0.0
outer loop
vertex 36.5125 -6.35 15.875
vertex 34.925 -4.7625 3.175
vertex 34.925 -4.7625 15.875
endloop
endfacet
facet normal 0.0 -1.0 0.0
outer loop
vertex 41.275 1.5875 15.875
vertex 36.5125 1.5875 3.175
vertex 41.275 1.5875 3.175
endloop
endfacet
facet normal 0.0 -1.0 0.0
outer loop
vertex 36.5125 1.5875 3.175
vertex 41.275 1.5875 15.875
vertex 36.5125 1.5875 15.875
endloop
endfacet
facet normal -0.794526721883885 -0.607229189196672 0.0
outer loop
vertex 40.7911586586729 -0.931126436315668 3.175
vertex 41.1018256224701 -1.47162369573394 0.0
vertex 41.1018256224701 -1.47162369573394 3.175
endloop
endfacet
facet normal -0.924616359250697 -0.380899708855215 0.0
outer loop
vertex 41.1018256224701 -1.47162369573394 0.0
vertex 40.7911586586729 -0.931126436315668 3.175
vertex 40.7911586586729 -0.931126436315668 0.0
endloop
endfacet
facet normal -0.924616359250697 -0.380899708855215 0.0
outer loop
vertex 41.1018256224701 -1.47162369573394 3.175
vertex 41.2620158816134 -2.0741104845594 0.0
vertex 41.2620158816134 -2.0741104845594 3.175
endloop
endfacet
facet normal -0.991694919735353 -0.128612542821809 0.0
outer loop
vertex 41.2620158816134 -2.0741104845594 0.0
vertex 41.1018256224701 -1.47162369573394 3.175
vertex 41.1018256224701 -1.47162369573394 0.0
endloop
endfacet
facet normal 0.924616359250695 0.380899708855218 0.0
outer loop
vertex 36.6856743775299 -3.29087630426607 0.0
vertex 36.9963413413271 -3.83137356368434 3.175
vertex 36.9963413413271 -3.83137356368434 0.0
endloop
endfacet
facet normal 0.794526721883882 0.607229189196675 0.0
outer loop
vertex 36.9963413413271 -3.83137356368434 3.175
vertex 36.6856743775299 -3.29087630426607 0.0
vertex 36.6856743775299 -3.29087630426607 3.175
endloop
endfacet
facet normal 0.991694919735354 0.128612542821802 0.0
outer loop
vertex 36.5254841183866 -2.68838951544061 0.0
vertex 36.6856743775299 -3.29087630426607 3.175
vertex 36.6856743775299 -3.29087630426607 0.0
endloop
endfacet
facet normal 0.924616359250695 0.380899708855218 0.0
outer loop
vertex 36.6856743775299 -3.29087630426607 3.175
vertex 36.5254841183866 -2.68838951544061 0.0
vertex 36.5254841183866 -2.68838951544061 3.175
endloop
endfacet
facet normal -0.924616359250695 0.380899708855217 0.0
outer loop
vertex -35.8919243775299 -3.29087630426607 3.175
vertex -36.2025913413271 -3.83137356368433 0.0
vertex -36.2025913413271 -3.83137356368433 3.175
endloop
endfacet
facet normal -0.794526721883875 0.607229189196686 0.0
outer loop
vertex -36.2025913413271 -3.83137356368433 0.0
vertex -35.8919243775299 -3.29087630426607 3.175
vertex -35.8919243775299 -3.29087630426607 0.0
endloop
endfacet
facet normal 0.384465730538678 0.923139264705689 0.0
outer loop
vertex 37.9756076820709 -4.5857981741135 3.175
vertex 38.5774716762099 -4.74831273466927 0.0
vertex 37.9756076820709 -4.5857981741135 0.0
endloop
endfacet
facet normal 0.132439355462634 0.99119111029339 0.0
outer loop
vertex 38.5774716762099 -4.74831273466927 0.0
vertex 37.9756076820709 -4.5857981741135 3.175
vertex 38.5774716762099 -4.74831273466927 3.175
endloop
endfacet
facet normal -0.707106781186548 0.707106781186548 0.0
outer loop
vertex 42.8625 -4.7625 15.875
vertex 41.275 -6.35 3.175
vertex 41.275 -6.35 15.875
endloop
endfacet
facet normal -0.707106781186548 0.707106781186548 0.0
outer loop
vertex 41.275 -6.35 3.175
vertex 42.8625 -4.7625 15.875
vertex 42.8625 -4.7625 3.175
endloop
endfacet
facet normal -1.0 0.0 0.0
outer loop
vertex 31.75 -2.8199664825479e-15 15.875
vertex 31.75 -9.525 0.0
vertex 31.75 -9.525 15.875
endloop
endfacet
facet normal -1.0 0.0 0.0
outer loop
vertex 31.75 -9.525 0.0
vertex 31.75 -2.8199664825479e-15 15.875
vertex 31.75 -2.8199664825479e-15 0.0
endloop
endfacet
facet normal 0.794526721883882 0.607229189196675 0.0
outer loop
vertex 36.9963413413271 -3.83137356368434 0.0
vertex 37.4363135695968 -4.27304729868001 3.175
vertex 37.4363135695968 -4.27304729868001 0.0
endloop
endfacet
facet normal 0.610291401438174 0.792177003788061 0.0
outer loop
vertex 37.4363135695968 -4.27304729868001 3.175
vertex 36.9963413413271 -3.83137356368434 0.0
vertex 36.9963413413271 -3.83137356368434 3.175
endloop
endfacet
facet normal -0.607229189196673 0.794526721883884 0.0
outer loop
vertex 40.3438735636843 -4.27865865867289 3.175
vertex 40.78554729868 -3.8386864304032 0.0
vertex 40.3438735636843 -4.27865865867289 0.0
endloop
endfacet
facet normal -0.792177003788062 0.610291401438173 0.0
outer loop
vertex 40.78554729868 -3.8386864304032 0.0
vertex 40.3438735636843 -4.27865865867289 3.175
vertex 40.78554729868 -3.8386864304032 3.175
endloop
endfacet
facet normal 1.0 0.0 0.0
outer loop
vertex 31.75 9.525 15.875
vertex 31.75 7.9375 22.225
vertex 31.75 7.9375 15.875
endloop
endfacet
facet normal 1.0 0.0 0.0
outer loop
vertex 31.75 7.9375 22.225
vertex 31.75 9.525 15.875
vertex 31.75 9.525 22.225
endloop
endfacet
facet normal 0.99119111029339 -0.13243935546263 0.0
outer loop
vertex 36.5266872653307 -2.06497167620993 0.0
vertex 36.526079829662 -2.37971812835893 3.175
vertex 36.526079829662 -2.37971812835893 0.0
endloop
endfacet
facet normal 0.999998137708398 -0.00192991702812167 0.0
outer loop
vertex 36.526079829662 -2.37971812835893 3.175
vertex 36.5266872653307 -2.06497167620993 0.0
vertex 36.5266872653307 -2.06497167620993 3.175
endloop
endfacet
facet normal 0.999998137708398 -0.00192991702813579 0.0
outer loop
vertex 36.526079829662 -2.37971812835893 0.0
vertex 36.5254841183866 -2.68838951544061 3.175
vertex 36.5254841183866 -2.68838951544061 0.0
endloop
endfacet
facet normal 0.991694919735354 0.128612542821802 0.0
outer loop
vertex 36.5254841183866 -2.68838951544061 3.175
vertex 36.526079829662 -2.37971812835893 0.0
vertex 36.526079829662 -2.37971812835893 3.175
endloop
endfacet
facet normal -0.607229189196671 -0.794526721883886 0.0
outer loop
vertex -36.6498764363157 -0.483841341327122 3.175
vertex -37.1903736957339 -0.173174377529923 0.0
vertex -36.6498764363157 -0.483841341327122 0.0
endloop
endfacet
facet normal -0.380899708855216 -0.924616359250696 0.0
outer loop
vertex -37.1903736957339 -0.173174377529923 0.0
vertex -36.6498764363157 -0.483841341327122 3.175
vertex -37.1903736957339 -0.173174377529923 3.175
endloop
endfacet
facet normal 0.607229189196674 -0.794526721883883 0.0
outer loop
vertex 37.4436264363157 -0.483841341327113 3.175
vertex 37.00195270132 -0.923813569596808 0.0
vertex 37.4436264363157 -0.483841341327113 0.0
endloop
endfacet
facet normal 0.792177003788063 -0.610291401438172 0.0
outer loop
vertex 37.00195270132 -0.923813569596808 0.0
vertex 37.4436264363157 -0.483841341327113 3.175
vertex 37.00195270132 -0.923813569596808 3.175
endloop
endfacet
facet normal -0.923139264705685 -0.384465730538689 0.0
outer loop
vertex -35.8954518258865 -1.46310768207091 3.175
vertex -35.7329372653307 -2.06497167620993 0.0
vertex -35.7329372653307 -2.06497167620993 3.175
endloop
endfacet
facet normal -0.991191110293392 -0.132439355462619 0.0
outer loop
vertex -35.7329372653307 -2.06497167620993 0.0
vertex -35.8954518258865 -1.46310768207091 3.175
vertex -35.8954518258865 -1.46310768207091 0.0
endloop
endfacet
facet normal -0.707106781186548 -0.707106781186548 0.0
outer loop
vertex 41.275 1.5875 15.875
vertex 42.8625 -2.8199664825479e-15 3.175
vertex 42.8625 -2.8199664825479e-15 15.875
endloop
endfacet
facet normal -0.707106781186548 -0.707106781186548 0.0
outer loop
vertex 42.8625 -2.8199664825479e-15 3.175
vertex 41.275 1.5875 15.875
vertex 41.275 1.5875 3.175
endloop
endfacet
facet normal 0.610291401438174 0.792177003788061 0.0
outer loop
vertex 37.4363135695968 -4.27304729868001 3.175
vertex 37.9756076820709 -4.5857981741135 0.0
vertex 37.4363135695968 -4.27304729868001 0.0
endloop
endfacet
facet normal 0.384465730538678 0.923139264705689 0.0
outer loop
vertex 37.9756076820709 -4.5857981741135 0.0
vertex 37.4363135695968 -4.27304729868001 3.175
vertex 37.9756076820709 -4.5857981741135 3.175
endloop
endfacet
facet normal -0.380899708855216 0.924616359250696 0.0
outer loop
vertex 39.8033763042661 -4.58932562247009 3.175
vertex 40.3438735636843 -4.27865865867289 0.0
vertex 39.8033763042661 -4.58932562247009 0.0
endloop
endfacet
facet normal -0.607229189196673 0.794526721883884 0.0
outer loop
vertex 40.3438735636843 -4.27865865867289 0.0
vertex 39.8033763042661 -4.58932562247009 3.175
vertex 40.3438735636843 -4.27865865867289 3.175
endloop
endfacet
facet normal 0.923139264705689 -0.384465730538679 0.0
outer loop
vertex 36.6892018258865 -1.46310768207089 0.0
vertex 36.5266872653307 -2.06497167620993 3.175
vertex 36.5266872653307 -2.06497167620993 0.0
endloop
endfacet
facet normal 0.99119111029339 -0.13243935546263 0.0
outer loop
vertex 36.5266872653307 -2.06497167620993 3.175
vertex 36.6892018258865 -1.46310768207089 0.0
vertex 36.6892018258865 -1.46310768207089 3.175
endloop
endfacet
facet normal 0.380899708855214 -0.924616359250697 0.0
outer loop
vertex 37.9841236957339 -0.173174377529916 3.175
vertex 37.4436264363157 -0.483841341327113 0.0
vertex 37.9841236957339 -0.173174377529916 0.0
endloop
endfacet
facet normal 0.607229189196674 -0.794526721883883 0.0
outer loop
vertex 37.4436264363157 -0.483841341327113 0.0
vertex 37.9841236957339 -0.173174377529916 3.175
vertex 37.4436264363157 -0.483841341327113 3.175
endloop
endfacet
facet normal -0.132439355462634 -0.99119111029339 0.0
outer loop
vertex 39.2100283237901 -0.0141872653307377 3.175
vertex 38.5866104845594 -0.0129841183865568 0.0
vertex 39.2100283237901 -0.0141872653307377 0.0
endloop
endfacet
facet normal 0.128612542821806 -0.991694919735354 0.0
outer loop
vertex 38.5866104845594 -0.0129841183865568 0.0
vertex 39.2100283237901 -0.0141872653307377 3.175
vertex 38.5866104845594 -0.0129841183865568 3.175
endloop
endfacet
facet normal -0.384465730538677 -0.92313926470569 0.0
outer loop
vertex 39.8118923179291 -0.176701825886505 3.175
vertex 39.2100283237901 -0.0141872653307377 0.0
vertex 39.8118923179291 -0.176701825886505 0.0
endloop
endfacet
facet normal -0.132439355462634 -0.99119111029339 0.0
outer loop
vertex 39.2100283237901 -0.0141872653307377 0.0
vertex 39.8118923179291 -0.176701825886505 3.175
vertex 39.2100283237901 -0.0141872653307377 3.175
endloop
endfacet
facet normal 0.132439355462634 0.99119111029339 0.0
outer loop
vertex 38.5774716762099 -4.74831273466927 3.175
vertex 39.2008895154406 -4.74951588161345 0.0
vertex 38.5774716762099 -4.74831273466927 0.0
endloop
endfacet
facet normal -0.128612542821806 0.991694919735354 0.0
outer loop
vertex 39.2008895154406 -4.74951588161345 0.0
vertex 38.5774716762099 -4.74831273466927 3.175
vertex 39.2008895154406 -4.74951588161345 3.175
endloop
endfacet
facet normal 0.0 0.0 1.0
outer loop
vertex 31.75 1.5875 3.175
vertex 12.7 7.9375 3.175
vertex 12.7 1.5875 3.175
endloop
endfacet
facet normal 0.0 0.0 1.0
outer loop
vertex 12.7 7.9375 3.175
vertex 31.75 1.5875 3.175
vertex 31.75 7.9375 3.175
endloop
endfacet
facet normal -0.384465730538675 0.923139264705691 0.0
outer loop
vertex -37.1818576820709 -4.5857981741135 3.175
vertex -36.6425635695968 -4.27304729868001 0.0
vertex -37.1818576820709 -4.5857981741135 0.0
endloop
endfacet
facet normal -0.610291401438175 0.792177003788061 0.0
outer loop
vertex -36.6425635695968 -4.27304729868001 0.0
vertex -37.1818576820709 -4.5857981741135 3.175
vertex -36.6425635695968 -4.27304729868001 3.175
endloop
endfacet
facet normal 0.0 -1.0 0.0
outer loop
vertex -30.95625 -9.525 15.875
vertex -45.24375 -9.525 0.0
vertex -30.95625 -9.525 0.0
endloop
endfacet
facet normal 0.0 -1.0 0.0
outer loop
vertex -45.24375 -9.525 0.0
vertex -30.95625 -9.525 15.875
vertex -45.24375 -9.525 15.875
endloop
endfacet
facet normal 0.0 -1.0 0.0
outer loop
vertex 31.75 7.9375 15.875
vertex 12.7 7.9375 3.175
vertex 31.75 7.9375 3.175
endloop
endfacet
facet normal 0.0 -1.0 0.0
outer loop
vertex 12.7 7.9375 3.175
vertex 31.75 7.9375 15.875
vertex 12.7 7.9375 22.225
endloop
endfacet
facet normal 0.0 -1.0 0.0
outer loop
vertex 12.7 7.9375 22.225
vertex 31.75 7.9375 15.875
vertex 31.75 7.9375 22.225
endloop
endfacet
facet normal 0.0 0.0 1.0
outer loop
vertex -45.24375 -9.525 15.875
vertex -42.06875 -4.7625 15.875
vertex -45.24375 9.525 15.875
endloop
endfacet
facet normal 0.0 0.0 1.0
outer loop
vertex -42.06875 -4.7625 15.875
vertex -45.24375 -9.525 15.875
vertex -40.48125 -6.35 15.875
endloop
endfacet
facet normal 0.0 0.0 1.0
outer loop
vertex -40.48125 -6.35 15.875
vertex -45.24375 -9.525 15.875
vertex -30.95625 -9.525 15.875
endloop
endfacet
facet normal 0.0 0.0 1.0
outer loop
vertex -40.48125 -6.35 15.875
vertex -30.95625 -9.525 15.875
vertex -35.71875 -6.35 15.875
endloop
endfacet
facet normal 0.0 0.0 1.0
outer loop
vertex -35.71875 -6.35 15.875
vertex -30.95625 -9.525 15.875
vertex -34.13125 -4.7625 15.875
endloop
endfacet
facet normal 0.0 0.0 1.0
outer loop
vertex -34.13125 -4.7625 15.875
vertex -30.95625 -9.525 15.875
vertex -34.13125 -2.8199664825479e-15 15.875
endloop
endfacet
facet normal 0.0 0.0 1.0
outer loop
vertex -45.24375 9.525 15.875
vertex -40.48125 1.5875 15.875
vertex -30.95625 9.525 15.875
endloop
endfacet
facet normal 0.0 0.0 1.0
outer loop
vertex -40.48125 1.5875 15.875
vertex -45.24375 9.525 15.875
vertex -42.06875 -2.8199664825479e-15 15.875
endloop
endfacet
facet normal 0.0 0.0 1.0
outer loop
vertex -42.06875 -2.8199664825479e-15 15.875
vertex -45.24375 9.525 15.875
vertex -42.06875 -4.7625 15.875
endloop
endfacet
facet normal 0.0 0.0 1.0
outer loop
vertex -30.95625 9.525 15.875
vertex -40.48125 1.5875 15.875
vertex -35.71875 1.5875 15.875
endloop
endfacet
facet normal 0.0 0.0 1.0
outer loop
vertex -30.95625 9.525 15.875
vertex -35.71875 1.5875 15.875
vertex -34.13125 -2.8199664825479e-15 15.875
endloop
endfacet
facet normal 0.0 0.0 1.0
outer loop
vertex -30.95625 9.525 15.875
vertex -34.13125 -2.8199664825479e-15 15.875
vertex -30.95625 -9.525 15.875
endloop
endfacet
facet normal 0.0 0.0 1.0
outer loop
vertex -30.95625 9.525 15.875
vertex -30.95625 -9.525 15.875
vertex -30.95625 -2.8199664825479e-15 15.875
endloop
endfacet
facet normal 0.0 0.0 1.0
outer loop
vertex -30.95625 9.525 15.875
vertex -30.95625 -2.8199664825479e-15 15.875
vertex -30.95625 1.5875 15.875
endloop
endfacet
facet normal 0.0 0.0 1.0
outer loop
vertex -30.95625 9.525 15.875
vertex -30.95625 1.5875 15.875
vertex -30.95625 7.9375 15.875
endloop
endfacet
facet normal 1.0 0.0 0.0
outer loop
vertex -42.06875 -2.8199664825479e-15 3.175
vertex -42.06875 -4.7625 15.875
vertex -42.06875 -4.7625 3.175
endloop
endfacet
facet normal 1.0 0.0 0.0
outer loop
vertex -42.06875 -4.7625 15.875
vertex -42.06875 -2.8199664825479e-15 3.175
vertex -42.06875 -2.8199664825479e-15 15.875
endloop
endfacet
facet normal 0.0 1.0 0.0
outer loop
vertex -40.48125 -6.35 15.875
vertex -35.71875 -6.35 3.175
vertex -40.48125 -6.35 3.175
endloop
endfacet
facet normal 0.0 1.0 0.0
outer loop
vertex -35.71875 -6.35 3.175
vertex -40.48125 -6.35 15.875
vertex -35.71875 -6.35 15.875
endloop
endfacet
facet normal 0.0 0.0 1.0
outer loop
vertex -40.48125 -6.35 3.175
vertex -42.06875 -2.8199664825479e-15 3.175
vertex -42.06875 -4.7625 3.175
endloop
endfacet
facet normal 0.0 0.0 1.0
outer loop
vertex -42.06875 -2.8199664825479e-15 3.175
vertex -40.48125 -6.35 3.175
vertex -40.48125 1.5875 3.175
endloop
endfacet
facet normal 0.0 0.0 1.0
outer loop
vertex -40.48125 1.5875 3.175
vertex -40.48125 -6.35 3.175
vertex -40.4670627346693 -2.69752832379009 3.175
endloop
endfacet
facet normal 0.0 0.0 1.0
outer loop
vertex -40.4670627346693 -2.69752832379009 3.175
vertex -40.48125 -6.35 3.175
vertex -40.3045481741135 -3.2993923179291 3.175
endloop
endfacet
facet normal 0.0 0.0 1.0
outer loop
vertex -40.3045481741135 -3.2993923179291 3.175
vertex -40.48125 -6.35 3.175
vertex -39.99179729868 -3.83868643040322 3.175
endloop
endfacet
facet normal 0.0 0.0 1.0
outer loop
vertex -39.99179729868 -3.83868643040322 3.175
vertex -40.48125 -6.35 3.175
vertex -39.5501235636843 -4.27865865867288 3.175
endloop
endfacet
facet normal 0.0 0.0 1.0
outer loop
vertex -39.5501235636843 -4.27865865867288 3.175
vertex -40.48125 -6.35 3.175
vertex -39.0096263042661 -4.58932562247008 3.175
endloop
endfacet
facet normal 0.0 0.0 1.0
outer loop
vertex -39.0096263042661 -4.58932562247008 3.175
vertex -40.48125 -6.35 3.175
vertex -35.71875 -6.35 3.175
endloop
endfacet
facet normal 0.0 0.0 1.0
outer loop
vertex -40.48125 1.5875 3.175
vertex -40.4670627346693 -2.69752832379009 3.175
vertex -40.467670170338 -2.38278187164104 3.175
endloop
endfacet
facet normal 0.0 0.0 1.0
outer loop
vertex -40.48125 1.5875 3.175
vertex -40.467670170338 -2.38278187164104 3.175
vertex -40.4682658816134 -2.07411048455939 3.175
endloop
endfacet
facet normal 0.0 0.0 1.0
outer loop
vertex -39.0096263042661 -4.58932562247008 3.175
vertex -35.71875 -6.35 3.175
vertex -38.4071395154406 -4.74951588161345 3.175
endloop
endfacet
facet normal 0.0 0.0 1.0
outer loop
vertex -38.4071395154406 -4.74951588161345 3.175
vertex -35.71875 -6.35 3.175
vertex -37.7837216762099 -4.74831273466926 3.175
endloop
endfacet
facet normal 0.0 0.0 1.0
outer loop
vertex -37.7837216762099 -4.74831273466926 3.175
vertex -35.71875 -6.35 3.175
vertex -37.1818576820709 -4.5857981741135 3.175
endloop
endfacet
facet normal 0.0 0.0 1.0
outer loop
vertex -37.1818576820709 -4.5857981741135 3.175
vertex -35.71875 -6.35 3.175
vertex -36.6425635695968 -4.27304729868001 3.175
endloop
endfacet
facet normal 0.0 0.0 1.0
outer loop
vertex -36.6425635695968 -4.27304729868001 3.175
vertex -35.71875 -6.35 3.175
vertex -36.2025913413271 -3.83137356368433 3.175
endloop
endfacet
facet normal 0.0 0.0 1.0
outer loop
vertex -36.2025913413271 -3.83137356368433 3.175
vertex -35.71875 -6.35 3.175
vertex -35.8919243775299 -3.29087630426607 3.175
endloop
endfacet
facet normal 0.0 0.0 1.0
outer loop
vertex -35.8919243775299 -3.29087630426607 3.175
vertex -35.71875 -6.35 3.175
vertex -35.7317341183865 -2.68838951544059 3.175
endloop
endfacet
facet normal 0.0 0.0 1.0
outer loop
vertex -40.48125 1.5875 3.175
vertex -39.0181423179291 -0.176701825886498 3.175
vertex -35.71875 1.5875 3.175
endloop
endfacet
facet normal 0.0 0.0 1.0
outer loop
vertex -39.0181423179291 -0.176701825886498 3.175
vertex -40.48125 1.5875 3.175
vertex -39.5574364304032 -0.489452701319992 3.175
endloop
endfacet
facet normal 0.0 0.0 1.0
outer loop
vertex -39.5574364304032 -0.489452701319992 3.175
vertex -40.48125 1.5875 3.175
vertex -39.9974086586729 -0.931126436315683 3.175
endloop
endfacet
facet normal 0.0 0.0 1.0
outer loop
vertex -39.9974086586729 -0.931126436315683 3.175
vertex -40.48125 1.5875 3.175
vertex -40.3080756224701 -1.47162369573393 3.175
endloop
endfacet
facet normal 0.0 0.0 1.0
outer loop
vertex -40.3080756224701 -1.47162369573393 3.175
vertex -40.48125 1.5875 3.175
vertex -40.4682658816134 -2.07411048455939 3.175
endloop
endfacet
facet normal 0.0 0.0 1.0
outer loop
vertex -35.71875 1.5875 3.175
vertex -39.0181423179291 -0.176701825886498 3.175
vertex -38.4162783237901 -0.0141872653307433 3.175
endloop
endfacet
facet normal 0.0 0.0 1.0
outer loop
vertex -35.71875 1.5875 3.175
vertex -38.4162783237901 -0.0141872653307433 3.175
vertex -37.7928604845594 -0.0129841183865596 3.175
endloop
endfacet
facet normal 0.0 0.0 1.0
outer loop
vertex -35.71875 1.5875 3.175
vertex -37.7928604845594 -0.0129841183865596 3.175
vertex -37.1903736957339 -0.173174377529923 3.175
endloop
endfacet
facet normal 0.0 0.0 1.0
outer loop
vertex -35.71875 1.5875 3.175
vertex -37.1903736957339 -0.173174377529923 3.175
vertex -36.6498764363157 -0.483841341327122 3.175
endloop
endfacet
facet normal 0.0 0.0 1.0
outer loop
vertex -35.71875 1.5875 3.175
vertex -36.6498764363157 -0.483841341327122 3.175
vertex -36.20820270132 -0.923813569596785 3.175
endloop
endfacet
facet normal 0.0 0.0 1.0
outer loop
vertex -35.71875 1.5875 3.175
vertex -36.20820270132 -0.923813569596785 3.175
vertex -35.8954518258865 -1.46310768207091 3.175
endloop
endfacet
facet normal 0.0 0.0 1.0
outer loop
vertex -35.71875 1.5875 3.175
vertex -35.8954518258865 -1.46310768207091 3.175
vertex -35.7329372653307 -2.06497167620993 3.175
endloop
endfacet
facet normal 0.0 0.0 1.0
outer loop
vertex -35.71875 1.5875 3.175
vertex -35.7329372653307 -2.06497167620993 3.175
vertex -35.732329829662 -2.37971812835892 3.175
endloop
endfacet
facet normal 0.0 0.0 1.0
outer loop
vertex -35.71875 1.5875 3.175
vertex -35.732329829662 -2.37971812835892 3.175
vertex -35.7317341183865 -2.68838951544059 3.175
endloop
endfacet
facet normal 0.0 0.0 1.0
outer loop
vertex -35.71875 1.5875 3.175
vertex -35.7317341183865 -2.68838951544059 3.175
vertex -35.71875 -6.35 3.175
endloop
endfacet
facet normal 0.0 0.0 1.0
outer loop
vertex -35.71875 1.5875 3.175
vertex -35.71875 -6.35 3.175
vertex -34.13125 -4.7625 3.175
endloop
endfacet
facet normal 0.0 0.0 1.0
outer loop
vertex -35.71875 1.5875 3.175
vertex -34.13125 -4.7625 3.175
vertex -34.13125 -2.8199664825479e-15 3.175
endloop
endfacet
facet normal -1.0 0.0 0.0
outer loop
vertex -30.95625 9.525 22.225
vertex -30.95625 7.9375 15.875
vertex -30.95625 7.9375 22.225
endloop
endfacet
facet normal -1.0 0.0 0.0
outer loop
vertex -30.95625 7.9375 15.875
vertex -30.95625 9.525 22.225
vertex -30.95625 9.525 15.875
endloop
endfacet
facet normal -5.81415613580384e-17 -2.37980820589507e-16 1.0
outer loop
vertex 31.75 -2.8199664825479e-15 22.225
vertex -30.95625 1.5875 22.225
vertex -30.95625 -2.8199664825479e-15 22.225
endloop
endfacet
facet normal -5.81415613580384e-17 -2.37980820589507e-16 1.0
outer loop
vertex -30.95625 1.5875 22.225
vertex 31.75 -2.8199664825479e-15 22.225
vertex -11.90625 1.5875 22.225
endloop
endfacet
facet normal -5.81415613580384e-17 -2.37980820589507e-16 1.0
outer loop
vertex -11.90625 1.5875 22.225
vertex 31.75 -2.8199664825479e-15 22.225
vertex 12.7 1.5875 22.225
endloop
endfacet
facet normal -5.81415613580384e-17 -2.37980820589507e-16 1.0
outer loop
vertex -11.90625 1.5875 22.225
vertex 12.7 1.5875 22.225
vertex -11.90625 7.9375 22.225
endloop
endfacet
facet normal -5.81415613580384e-17 -2.37980820589507e-16 1.0
outer loop
vertex 12.7 1.5875 22.225
vertex 31.75 -2.8199664825479e-15 22.225
vertex 31.75 1.5875 22.225
endloop
endfacet
facet normal -5.81415613580384e-17 -2.37980820589507e-16 1.0
outer loop
vertex -11.90625 7.9375 22.225
vertex -30.95625 9.525 22.225
vertex -30.95625 7.9375 22.225
endloop
endfacet
facet normal -5.81415613580384e-17 -2.37980820589507e-16 1.0
outer loop
vertex -30.95625 9.525 22.225
vertex -11.90625 7.9375 22.225
vertex 31.75 9.525 22.225
endloop
endfacet
facet normal -5.81415613580384e-17 -2.37980820589507e-16 1.0
outer loop
vertex 31.75 9.525 22.225
vertex -11.90625 7.9375 22.225
vertex 12.7 7.9375 22.225
endloop
endfacet
facet normal -5.81415613580384e-17 -2.37980820589507e-16 1.0
outer loop
vertex 12.7 7.9375 22.225
vertex -11.90625 7.9375 22.225
vertex 12.7 1.5875 22.225
endloop
endfacet
facet normal -5.81415613580384e-17 -2.37980820589507e-16 1.0
outer loop
vertex 31.75 9.525 22.225
vertex 12.7 7.9375 22.225
vertex 31.75 7.9375 22.225
endloop
endfacet
facet normal 0.0 0.0 -1.0
outer loop
vertex -45.24375 9.525 0.0
vertex -39.9974086586729 -0.931126436315683 0.0
vertex -45.24375 -9.525 0.0
endloop
endfacet
facet normal 0.0 0.0 -1.0
outer loop
vertex -39.9974086586729 -0.931126436315683 0.0
vertex -45.24375 9.525 0.0
vertex -39.5574364304032 -0.489452701319992 0.0
endloop
endfacet
facet normal 0.0 0.0 -1.0
outer loop
vertex -39.5574364304032 -0.489452701319992 0.0
vertex -45.24375 9.525 0.0
vertex -39.0181423179291 -0.176701825886498 0.0
endloop
endfacet
facet normal 0.0 0.0 -1.0
outer loop
vertex -39.0181423179291 -0.176701825886498 0.0
vertex -45.24375 9.525 0.0
vertex -38.4162783237901 -0.0141872653307433 0.0
endloop
endfacet
facet normal 0.0 0.0 -1.0
outer loop
vertex -38.4162783237901 -0.0141872653307433 0.0
vertex -45.24375 9.525 0.0
vertex 46.0375 9.525 0.0
endloop
endfacet
facet normal 0.0 0.0 -1.0
outer loop
vertex -45.24375 -9.525 0.0
vertex -39.9974086586729 -0.931126436315683 0.0
vertex -40.3080756224701 -1.47162369573393 0.0
endloop
endfacet
facet normal 0.0 0.0 -1.0
outer loop
vertex -45.24375 -9.525 0.0
vertex -40.3080756224701 -1.47162369573393 0.0
vertex -40.4682658816134 -2.07411048455939 0.0
endloop
endfacet
facet normal 0.0 0.0 -1.0
outer loop
vertex -38.4162783237901 -0.0141872653307433 0.0
vertex 46.0375 9.525 0.0
vertex -37.7928604845594 -0.0129841183865596 0.0
endloop
endfacet
facet normal 0.0 0.0 -1.0
outer loop
vertex -37.7928604845594 -0.0129841183865596 0.0
vertex 46.0375 9.525 0.0
vertex -37.1903736957339 -0.173174377529923 0.0
endloop
endfacet
facet normal 0.0 0.0 -1.0
outer loop
vertex -37.1903736957339 -0.173174377529923 0.0
vertex 46.0375 9.525 0.0
vertex -36.6498764363157 -0.483841341327122 0.0
endloop
endfacet
facet normal 0.0 0.0 -1.0
outer loop
vertex -36.6498764363157 -0.483841341327122 0.0
vertex 46.0375 9.525 0.0
vertex -30.95625 -2.8199664825479e-15 0.0
endloop
endfacet
facet normal 0.0 0.0 -1.0
outer loop
vertex -36.6498764363157 -0.483841341327122 0.0
vertex -30.95625 -2.8199664825479e-15 0.0
vertex -36.20820270132 -0.923813569596785 0.0
endloop
endfacet
facet normal 0.0 0.0 -1.0
outer loop
vertex -36.20820270132 -0.923813569596785 0.0
vertex -30.95625 -2.8199664825479e-15 0.0
vertex -35.8954518258865 -1.46310768207091 0.0
endloop
endfacet
facet normal 0.0 0.0 -1.0
outer loop
vertex -35.8954518258865 -1.46310768207091 0.0
vertex -30.95625 -2.8199664825479e-15 0.0
vertex -35.7329372653307 -2.06497167620993 0.0
endloop
endfacet
facet normal 0.0 0.0 -1.0
outer loop
vertex -35.7329372653307 -2.06497167620993 0.0
vertex -30.95625 -2.8199664825479e-15 0.0
vertex -35.732329829662 -2.37971812835892 0.0
endloop
endfacet
facet normal 0.0 0.0 -1.0
outer loop
vertex -35.732329829662 -2.37971812835892 0.0
vertex -30.95625 -2.8199664825479e-15 0.0
vertex -35.7317341183865 -2.68838951544059 0.0
endloop
endfacet
facet normal 0.0 0.0 -1.0
outer loop
vertex -30.95625 -2.8199664825479e-15 0.0
vertex 46.0375 9.525 0.0
vertex 31.75 -2.8199664825479e-15 0.0
endloop
endfacet
facet normal 0.0 0.0 -1.0
outer loop
vertex 31.75 -2.8199664825479e-15 0.0
vertex 46.0375 9.525 0.0
vertex 37.00195270132 -0.923813569596808 0.0
endloop
endfacet
facet normal 0.0 0.0 -1.0
outer loop
vertex 31.75 -2.8199664825479e-15 0.0
vertex 37.00195270132 -0.923813569596808 0.0
vertex 31.75 -9.525 0.0
endloop
endfacet
facet normal 0.0 0.0 -1.0
outer loop
vertex 31.75 -9.525 0.0
vertex 37.00195270132 -0.923813569596808 0.0
vertex 36.6892018258865 -1.46310768207089 0.0
endloop
endfacet
facet normal 0.0 0.0 -1.0
outer loop
vertex 31.75 -9.525 0.0
vertex 36.6892018258865 -1.46310768207089 0.0
vertex 36.5266872653307 -2.06497167620993 0.0
endloop
endfacet
facet normal 0.0 0.0 -1.0
outer loop
vertex 31.75 -9.525 0.0
vertex 36.5266872653307 -2.06497167620993 0.0
vertex 36.5254841183866 -2.68838951544061 0.0
endloop
endfacet
facet normal 0.0 0.0 -1.0
outer loop
vertex 36.5254841183866 -2.68838951544061 0.0
vertex 36.5266872653307 -2.06497167620993 0.0
vertex 36.526079829662 -2.37971812835893 0.0
endloop
endfacet
facet normal 0.0 0.0 -1.0
outer loop
vertex 37.00195270132 -0.923813569596808 0.0
vertex 46.0375 9.525 0.0
vertex 37.4436264363157 -0.483841341327113 0.0
endloop
endfacet
facet normal 0.0 0.0 -1.0
outer loop
vertex 37.4436264363157 -0.483841341327113 0.0
vertex 46.0375 9.525 0.0
vertex 37.9841236957339 -0.173174377529916 0.0
endloop
endfacet
facet normal 0.0 0.0 -1.0
outer loop
vertex 37.9841236957339 -0.173174377529916 0.0
vertex 46.0375 9.525 0.0
vertex 38.5866104845594 -0.0129841183865568 0.0
endloop
endfacet
facet normal 0.0 0.0 -1.0
outer loop
vertex 38.5866104845594 -0.0129841183865568 0.0
vertex 46.0375 9.525 0.0
vertex 39.2100283237901 -0.0141872653307377 0.0
endloop
endfacet
facet normal 0.0 0.0 -1.0
outer loop
vertex 39.2100283237901 -0.0141872653307377 0.0
vertex 46.0375 9.525 0.0
vertex 39.8118923179291 -0.176701825886505 0.0
endloop
endfacet
facet normal 0.0 0.0 -1.0
outer loop
vertex 39.8118923179291 -0.176701825886505 0.0
vertex 46.0375 9.525 0.0
vertex 40.3511864304032 -0.489452701319992 0.0
endloop
endfacet
facet normal 0.0 0.0 -1.0
outer loop
vertex 40.3511864304032 -0.489452701319992 0.0
vertex 46.0375 9.525 0.0
vertex 40.7911586586729 -0.931126436315668 0.0
endloop
endfacet
facet normal 0.0 0.0 -1.0
outer loop
vertex 40.7911586586729 -0.931126436315668 0.0
vertex 46.0375 9.525 0.0
vertex 41.1018256224701 -1.47162369573394 0.0
endloop
endfacet
facet normal 0.0 0.0 -1.0
outer loop
vertex 41.1018256224701 -1.47162369573394 0.0
vertex 46.0375 9.525 0.0
vertex 41.2620158816134 -2.0741104845594 0.0
endloop
endfacet
facet normal 0.0 0.0 -1.0
outer loop
vertex 31.75 -9.525 0.0
vertex 37.4363135695968 -4.27304729868001 0.0
vertex 46.0375 -9.525 0.0
endloop
endfacet
facet normal 0.0 0.0 -1.0
outer loop
vertex 37.4363135695968 -4.27304729868001 0.0
vertex 31.75 -9.525 0.0
vertex 36.9963413413271 -3.83137356368434 0.0
endloop
endfacet
facet normal 0.0 0.0 -1.0
outer loop
vertex 36.9963413413271 -3.83137356368434 0.0
vertex 31.75 -9.525 0.0
vertex 36.6856743775299 -3.29087630426607 0.0
endloop
endfacet
facet normal 0.0 0.0 -1.0
outer loop
vertex 36.6856743775299 -3.29087630426607 0.0
vertex 31.75 -9.525 0.0
vertex 36.5254841183866 -2.68838951544061 0.0
endloop
endfacet
facet normal 0.0 0.0 -1.0
outer loop
vertex 46.0375 -9.525 0.0
vertex 37.4363135695968 -4.27304729868001 0.0
vertex 37.9756076820709 -4.5857981741135 0.0
endloop
endfacet
facet normal 0.0 0.0 -1.0
outer loop
vertex 46.0375 -9.525 0.0
vertex 37.9756076820709 -4.5857981741135 0.0
vertex 38.5774716762099 -4.74831273466927 0.0
endloop
endfacet
facet normal 0.0 0.0 -1.0
outer loop
vertex 46.0375 -9.525 0.0
vertex 38.5774716762099 -4.74831273466927 0.0
vertex 39.2008895154406 -4.74951588161345 0.0
endloop
endfacet
facet normal 0.0 0.0 -1.0
outer loop
vertex 46.0375 -9.525 0.0
vertex 39.2008895154406 -4.74951588161345 0.0
vertex 39.8033763042661 -4.58932562247009 0.0
endloop
endfacet
facet normal 0.0 0.0 -1.0
outer loop
vertex 46.0375 -9.525 0.0
vertex 39.8033763042661 -4.58932562247009 0.0
vertex 40.3438735636843 -4.27865865867289 0.0
endloop
endfacet
facet normal 0.0 0.0 -1.0
outer loop
vertex 46.0375 -9.525 0.0
vertex 40.3438735636843 -4.27865865867289 0.0
vertex 40.78554729868 -3.8386864304032 0.0
endloop
endfacet
facet normal 0.0 0.0 -1.0
outer loop
vertex 46.0375 -9.525 0.0
vertex 40.78554729868 -3.8386864304032 0.0
vertex 41.0982981741135 -3.29939231792911 0.0
endloop
endfacet
facet normal 0.0 0.0 -1.0
outer loop
vertex 46.0375 -9.525 0.0
vertex 41.0982981741135 -3.29939231792911 0.0
vertex 41.2608127346693 -2.69752832379008 0.0
endloop
endfacet
facet normal 0.0 0.0 -1.0
outer loop
vertex 46.0375 -9.525 0.0
vertex 41.2608127346693 -2.69752832379008 0.0
vertex 41.261420170338 -2.38278187164108 0.0
endloop
endfacet
facet normal 0.0 0.0 -1.0
outer loop
vertex 46.0375 -9.525 0.0
vertex 41.261420170338 -2.38278187164108 0.0
vertex 41.2620158816134 -2.0741104845594 0.0
endloop
endfacet
facet normal 0.0 0.0 -1.0
outer loop
vertex 46.0375 -9.525 0.0
vertex 41.2620158816134 -2.0741104845594 0.0
vertex 46.0375 9.525 0.0
endloop
endfacet
facet normal 0.0 0.0 -1.0
outer loop
vertex -45.24375 -9.525 0.0
vertex -39.5501235636843 -4.27865865867288 0.0
vertex -30.95625 -9.525 0.0
endloop
endfacet
facet normal 0.0 0.0 -1.0
outer loop
vertex -39.5501235636843 -4.27865865867288 0.0
vertex -45.24375 -9.525 0.0
vertex -39.99179729868 -3.83868643040322 0.0
endloop
endfacet
facet normal 0.0 0.0 -1.0
outer loop
vertex -39.99179729868 -3.83868643040322 0.0
vertex -45.24375 -9.525 0.0
vertex -40.3045481741135 -3.2993923179291 0.0
endloop
endfacet
facet normal 0.0 0.0 -1.0
outer loop
vertex -40.3045481741135 -3.2993923179291 0.0
vertex -45.24375 -9.525 0.0
vertex -40.4670627346693 -2.69752832379009 0.0
endloop
endfacet
facet normal 0.0 0.0 -1.0
outer loop
vertex -40.4670627346693 -2.69752832379009 0.0
vertex -45.24375 -9.525 0.0
vertex -40.467670170338 -2.38278187164104 0.0
endloop
endfacet
facet normal 0.0 0.0 -1.0
outer loop
vertex -40.467670170338 -2.38278187164104 0.0
vertex -45.24375 -9.525 0.0
vertex -40.4682658816134 -2.07411048455939 0.0
endloop
endfacet
facet normal 0.0 0.0 -1.0
outer loop
vertex -30.95625 -9.525 0.0
vertex -39.5501235636843 -4.27865865867288 0.0
vertex -39.0096263042661 -4.58932562247008 0.0
endloop
endfacet
facet normal 0.0 0.0 -1.0
outer loop
vertex -30.95625 -9.525 0.0
vertex -39.0096263042661 -4.58932562247008 0.0
vertex -38.4071395154406 -4.74951588161345 0.0
endloop
endfacet
facet normal 0.0 0.0 -1.0
outer loop
vertex -30.95625 -9.525 0.0
vertex -38.4071395154406 -4.74951588161345 0.0
vertex -37.7837216762099 -4.74831273466926 0.0
endloop
endfacet
facet normal 0.0 0.0 -1.0
outer loop
vertex -30.95625 -9.525 0.0
vertex -37.7837216762099 -4.74831273466926 0.0
vertex -37.1818576820709 -4.5857981741135 0.0
endloop
endfacet
facet normal 0.0 0.0 -1.0
outer loop
vertex -30.95625 -9.525 0.0
vertex -37.1818576820709 -4.5857981741135 0.0
vertex -36.6425635695968 -4.27304729868001 0.0
endloop
endfacet
facet normal 0.0 0.0 -1.0
outer loop
vertex -30.95625 -9.525 0.0
vertex -36.6425635695968 -4.27304729868001 0.0
vertex -36.2025913413271 -3.83137356368433 0.0
endloop
endfacet
facet normal 0.0 0.0 -1.0
outer loop
vertex -30.95625 -9.525 0.0
vertex -36.2025913413271 -3.83137356368433 0.0
vertex -35.8919243775299 -3.29087630426607 0.0
endloop
endfacet
facet normal 0.0 0.0 -1.0
outer loop
vertex -30.95625 -9.525 0.0
vertex -35.8919243775299 -3.29087630426607 0.0
vertex -35.7317341183865 -2.68838951544059 0.0
endloop
endfacet
facet normal 0.0 0.0 -1.0
outer loop
vertex -30.95625 -9.525 0.0
vertex -35.7317341183865 -2.68838951544059 0.0
vertex -30.95625 -2.8199664825479e-15 0.0
endloop
endfacet
facet normal 0.0 1.0 0.0
outer loop
vertex -30.95625 1.5875 15.875
vertex -11.90625 1.5875 3.175
vertex -30.95625 1.5875 3.175
endloop
endfacet
facet normal 0.0 1.0 0.0
outer loop
vertex -11.90625 1.5875 3.175
vertex -30.95625 1.5875 15.875
vertex -11.90625 1.5875 22.225
endloop
endfacet
facet normal 0.0 1.0 0.0
outer loop
vertex -11.90625 1.5875 22.225
vertex -30.95625 1.5875 15.875
vertex -30.95625 1.5875 22.225
endloop
endfacet
facet normal -1.0 0.0 0.0
outer loop
vertex -30.95625 1.5875 22.225
vertex -30.95625 -2.8199664825479e-15 15.875
vertex -30.95625 -2.8199664825479e-15 22.225
endloop
endfacet
facet normal -1.0 0.0 0.0
outer loop
vertex -30.95625 -2.8199664825479e-15 15.875
vertex -30.95625 1.5875 22.225
vertex -30.95625 1.5875 15.875
endloop
endfacet
facet normal 1.0 0.0 0.0
outer loop
vertex -30.95625 7.9375 3.175
vertex -30.95625 1.5875 15.875
vertex -30.95625 1.5875 3.175
endloop
endfacet
facet normal 1.0 0.0 0.0
outer loop
vertex -30.95625 1.5875 15.875
vertex -30.95625 7.9375 3.175
vertex -30.95625 7.9375 15.875
endloop
endfacet
facet normal 1.0 0.0 0.0
outer loop
vertex 31.75 1.5875 15.875
vertex 31.75 -2.8199664825479e-15 22.225
vertex 31.75 -2.8199664825479e-15 15.875
endloop
endfacet
facet normal 1.0 0.0 0.0
outer loop
vertex 31.75 -2.8199664825479e-15 22.225
vertex 31.75 1.5875 15.875
vertex 31.75 1.5875 22.225
endloop
endfacet
facet normal 0.0 -1.0 0.0
outer loop
vertex 31.75 -2.8199664825479e-15 15.875
vertex -30.95625 -2.8199664825479e-15 0.0
vertex 31.75 -2.8199664825479e-15 0.0
endloop
endfacet
facet normal 0.0 -1.0 0.0
outer loop
vertex -30.95625 -2.8199664825479e-15 0.0
vertex 31.75 -2.8199664825479e-15 15.875
vertex -30.95625 -2.8199664825479e-15 15.875
endloop
endfacet
facet normal 0.0 -1.0 0.0
outer loop
vertex -30.95625 -2.8199664825479e-15 15.875
vertex 31.75 -2.8199664825479e-15 15.875
vertex 31.75 -2.8199664825479e-15 22.225
endloop
endfacet
facet normal 0.0 -1.0 0.0
outer loop
vertex -30.95625 -2.8199664825479e-15 15.875
vertex 31.75 -2.8199664825479e-15 22.225
vertex -30.95625 -2.8199664825479e-15 22.225
endloop
endfacet
facet normal 0.0 -1.0 0.0
outer loop
vertex -11.90625 7.9375 22.225
vertex -30.95625 7.9375 3.175
vertex -11.90625 7.9375 3.175
endloop
endfacet
facet normal 0.0 -1.0 0.0
outer loop
vertex -30.95625 7.9375 3.175
vertex -11.90625 7.9375 22.225
vertex -30.95625 7.9375 15.875
endloop
endfacet
facet normal 0.0 -1.0 0.0
outer loop
vertex -30.95625 7.9375 15.875
vertex -11.90625 7.9375 22.225
vertex -30.95625 7.9375 22.225
endloop
endfacet
facet normal -0.132439355462629 0.99119111029339 0.0
outer loop
vertex -37.7837216762099 -4.74831273466926 3.175
vertex -37.1818576820709 -4.5857981741135 0.0
vertex -37.7837216762099 -4.74831273466926 0.0
endloop
endfacet
facet normal -0.384465730538675 0.923139264705691 0.0
outer loop
vertex -37.1818576820709 -4.5857981741135 0.0
vertex -37.7837216762099 -4.74831273466926 3.175
vertex -37.1818576820709 -4.5857981741135 3.175
endloop
endfacet
facet normal 0.128612542821804 0.991694919735354 0.0
outer loop
vertex -38.4071395154406 -4.74951588161345 3.175
vertex -37.7837216762099 -4.74831273466926 0.0
vertex -38.4071395154406 -4.74951588161345 0.0
endloop
endfacet
facet normal -0.132439355462629 0.99119111029339 0.0
outer loop
vertex -37.7837216762099 -4.74831273466926 0.0
vertex -38.4071395154406 -4.74951588161345 3.175
vertex -37.7837216762099 -4.74831273466926 3.175
endloop
endfacet
facet normal 0.380899708855216 0.924616359250696 0.0
outer loop
vertex -39.0096263042661 -4.58932562247008 3.175
vertex -38.4071395154406 -4.74951588161345 0.0
vertex -39.0096263042661 -4.58932562247008 0.0
endloop
endfacet
facet normal 0.128612542821804 0.991694919735354 0.0
outer loop
vertex -38.4071395154406 -4.74951588161345 0.0
vertex -39.0096263042661 -4.58932562247008 3.175
vertex -38.4071395154406 -4.74951588161345 3.175
endloop
endfacet
facet normal 0.991694919735351 -0.128612542821822 0.0
outer loop
vertex -40.4682658816134 -2.07411048455939 0.0
vertex -40.467670170338 -2.38278187164104 3.175
vertex -40.467670170338 -2.38278187164104 0.0
endloop
endfacet
facet normal 0.999998137708398 0.00192991702806745 0.0
outer loop
vertex -40.467670170338 -2.38278187164104 3.175
vertex -40.4682658816134 -2.07411048455939 0.0
vertex -40.4682658816134 -2.07411048455939 3.175
endloop
endfacet
facet normal -0.991191110293392 -0.132439355462619 0.0
outer loop
vertex -35.7329372653307 -2.06497167620993 3.175
vertex -35.732329829662 -2.37971812835892 0.0
vertex -35.732329829662 -2.37971812835892 3.175
endloop
endfacet
facet normal -0.999998137708398 -0.00192991702806796 0.0
outer loop
vertex -35.732329829662 -2.37971812835892 0.0
vertex -35.7329372653307 -2.06497167620993 3.175
vertex -35.7329372653307 -2.06497167620993 0.0
endloop
endfacet
facet normal -0.794526721883875 0.607229189196686 0.0
outer loop
vertex -36.2025913413271 -3.83137356368433 3.175
vertex -36.6425635695968 -4.27304729868001 0.0
vertex -36.6425635695968 -4.27304729868001 3.175
endloop
endfacet
facet normal -0.610291401438175 0.792177003788061 0.0
outer loop
vertex -36.6425635695968 -4.27304729868001 0.0
vertex -36.2025913413271 -3.83137356368433 3.175
vertex -36.2025913413271 -3.83137356368433 0.0
endloop
endfacet
facet normal -0.923139264705689 0.384465730538678 0.0
outer loop
vertex 41.0982981741135 -3.29939231792911 3.175
vertex 40.78554729868 -3.8386864304032 0.0
vertex 40.78554729868 -3.8386864304032 3.175
endloop
endfacet
facet normal -0.792177003788062 0.610291401438173 0.0
outer loop
vertex 40.78554729868 -3.8386864304032 0.0
vertex 41.0982981741135 -3.29939231792911 3.175
vertex 41.0982981741135 -3.29939231792911 0.0
endloop
endfacet
facet normal 0.999998137708398 0.00192991702813925 0.0
outer loop
vertex -40.467670170338 -2.38278187164104 0.0
vertex -40.4670627346693 -2.69752832379009 3.175
vertex -40.4670627346693 -2.69752832379009 0.0
endloop
endfacet
facet normal 0.991191110293387 0.132439355462649 0.0
outer loop
vertex -40.4670627346693 -2.69752832379009 3.175
vertex -40.467670170338 -2.38278187164104 0.0
vertex -40.467670170338 -2.38278187164104 3.175
endloop
endfacet
facet normal 0.132439355462629 -0.99119111029339 0.0
outer loop
vertex -38.4162783237901 -0.0141872653307433 3.175
vertex -39.0181423179291 -0.176701825886498 0.0
vertex -38.4162783237901 -0.0141872653307433 0.0
endloop
endfacet
facet normal 0.38446573053867 -0.923139264705693 0.0
outer loop
vertex -39.0181423179291 -0.176701825886498 0.0
vertex -38.4162783237901 -0.0141872653307433 3.175
vertex -39.0181423179291 -0.176701825886498 3.175
endloop
endfacet
facet normal -0.128612542821804 -0.991694919735354 0.0
outer loop
vertex -37.7928604845594 -0.0129841183865596 3.175
vertex -38.4162783237901 -0.0141872653307433 0.0
vertex -37.7928604845594 -0.0129841183865596 0.0
endloop
endfacet
facet normal 0.132439355462629 -0.99119111029339 0.0
outer loop
vertex -38.4162783237901 -0.0141872653307433 0.0
vertex -37.7928604845594 -0.0129841183865596 3.175
vertex -38.4162783237901 -0.0141872653307433 3.175
endloop
endfacet
facet normal -0.380899708855216 -0.924616359250696 0.0
outer loop
vertex -37.1903736957339 -0.173174377529923 3.175
vertex -37.7928604845594 -0.0129841183865596 0.0
vertex -37.1903736957339 -0.173174377529923 0.0
endloop
endfacet
facet normal -0.128612542821804 -0.991694919735354 0.0
outer loop
vertex -37.7928604845594 -0.0129841183865596 0.0
vertex -37.1903736957339 -0.173174377529923 3.175
vertex -37.7928604845594 -0.0129841183865596 3.175
endloop
endfacet
facet normal -0.999998137708398 0.00192991702813064 0.0
outer loop
vertex 41.261420170338 -2.38278187164108 3.175
vertex 41.2608127346693 -2.69752832379008 0.0
vertex 41.2608127346693 -2.69752832379008 3.175
endloop
endfacet
facet normal -0.991191110293389 0.132439355462636 0.0
outer loop
vertex 41.2608127346693 -2.69752832379008 0.0
vertex 41.261420170338 -2.38278187164108 3.175
vertex 41.261420170338 -2.38278187164108 0.0
endloop
endfacet
facet normal -0.991191110293389 0.132439355462636 0.0
outer loop
vertex 41.2608127346693 -2.69752832379008 3.175
vertex 41.0982981741135 -3.29939231792911 0.0
vertex 41.0982981741135 -3.29939231792911 3.175
endloop
endfacet
facet normal -0.923139264705689 0.384465730538678 0.0
outer loop
vertex 41.0982981741135 -3.29939231792911 0.0
vertex 41.2608127346693 -2.69752832379008 3.175
vertex 41.2608127346693 -2.69752832379008 0.0
endloop
endfacet
facet normal 0.60722918919667 0.794526721883886 0.0
outer loop
vertex -39.5501235636843 -4.27865865867288 3.175
vertex -39.0096263042661 -4.58932562247008 0.0
vertex -39.5501235636843 -4.27865865867288 0.0
endloop
endfacet
facet normal 0.380899708855216 0.924616359250696 0.0
outer loop
vertex -39.0096263042661 -4.58932562247008 0.0
vertex -39.5501235636843 -4.27865865867288 3.175
vertex -39.0096263042661 -4.58932562247008 3.175
endloop
endfacet
facet normal -0.991694919735356 0.12861254282179 0.0
outer loop
vertex -35.7317341183865 -2.68838951544059 3.175
vertex -35.8919243775299 -3.29087630426607 0.0
vertex -35.8919243775299 -3.29087630426607 3.175
endloop
endfacet
facet normal -0.924616359250695 0.380899708855217 0.0
outer loop
vertex -35.8919243775299 -3.29087630426607 0.0
vertex -35.7317341183865 -2.68838951544059 3.175
vertex -35.7317341183865 -2.68838951544059 0.0
endloop
endfacet
facet normal -1.0 0.0 0.0
outer loop
vertex 31.75 7.9375 15.875
vertex 31.75 1.5875 3.175
vertex 31.75 1.5875 15.875
endloop
endfacet
facet normal -1.0 0.0 0.0
outer loop
vertex 31.75 1.5875 3.175
vertex 31.75 7.9375 15.875
vertex 31.75 7.9375 3.175
endloop
endfacet
facet normal -0.792177003788062 -0.610291401438173 0.0
outer loop
vertex -36.20820270132 -0.923813569596785 3.175
vertex -36.6498764363157 -0.483841341327122 0.0
vertex -36.20820270132 -0.923813569596785 0.0
endloop
endfacet
facet normal -0.607229189196671 -0.794526721883886 0.0
outer loop
vertex -36.6498764363157 -0.483841341327122 0.0
vertex -36.20820270132 -0.923813569596785 3.175
vertex -36.6498764363157 -0.483841341327122 3.175
endloop
endfacet
facet normal 0.792177003788062 0.610291401438173 0.0
outer loop
vertex -39.99179729868 -3.83868643040322 3.175
vertex -39.5501235636843 -4.27865865867288 0.0
vertex -39.99179729868 -3.83868643040322 0.0
endloop
endfacet
facet normal 0.60722918919667 0.794526721883886 0.0
outer loop
vertex -39.5501235636843 -4.27865865867288 0.0
vertex -39.99179729868 -3.83868643040322 3.175
vertex -39.5501235636843 -4.27865865867288 3.175
endloop
endfacet
facet normal 0.923139264705687 0.384465730538684 0.0
outer loop
vertex -40.3045481741135 -3.2993923179291 0.0
vertex -39.99179729868 -3.83868643040322 3.175
vertex -39.99179729868 -3.83868643040322 0.0
endloop
endfacet
facet normal 0.792177003788062 0.610291401438173 0.0
outer loop
vertex -39.99179729868 -3.83868643040322 3.175
vertex -40.3045481741135 -3.2993923179291 0.0
vertex -40.3045481741135 -3.2993923179291 3.175
endloop
endfacet
facet normal 0.991191110293387 0.132439355462649 0.0
outer loop
vertex -40.4670627346693 -2.69752832379009 0.0
vertex -40.3045481741135 -3.2993923179291 3.175
vertex -40.3045481741135 -3.2993923179291 0.0
endloop
endfacet
facet normal 0.923139264705687 0.384465730538684 0.0
outer loop
vertex -40.3045481741135 -3.2993923179291 3.175
vertex -40.4670627346693 -2.69752832379009 0.0
vertex -40.4670627346693 -2.69752832379009 3.175
endloop
endfacet
facet normal 0.924616359250699 -0.380899708855208 0.0
outer loop
vertex -40.3080756224701 -1.47162369573393 0.0
vertex -40.4682658816134 -2.07411048455939 3.175
vertex -40.4682658816134 -2.07411048455939 0.0
endloop
endfacet
facet normal 0.991694919735351 -0.128612542821822 0.0
outer loop
vertex -40.4682658816134 -2.07411048455939 3.175
vertex -40.3080756224701 -1.47162369573393 0.0
vertex -40.3080756224701 -1.47162369573393 3.175
endloop
endfacet
facet normal 0.79452672188388 -0.607229189196679 0.0
outer loop
vertex -39.9974086586729 -0.931126436315683 0.0
vertex -40.3080756224701 -1.47162369573393 3.175
vertex -40.3080756224701 -1.47162369573393 0.0
endloop
endfacet
facet normal 0.924616359250699 -0.380899708855208 0.0
outer loop
vertex -40.3080756224701 -1.47162369573393 3.175
vertex -39.9974086586729 -0.931126436315683 0.0
vertex -39.9974086586729 -0.931126436315683 3.175
endloop
endfacet
facet normal 0.610291401438171 -0.792177003788063 0.0
outer loop
vertex -39.5574364304032 -0.489452701319992 0.0
vertex -39.9974086586729 -0.931126436315683 3.175
vertex -39.9974086586729 -0.931126436315683 0.0
endloop
endfacet
facet normal 0.79452672188388 -0.607229189196679 0.0
outer loop
vertex -39.9974086586729 -0.931126436315683 3.175
vertex -39.5574364304032 -0.489452701319992 0.0
vertex -39.5574364304032 -0.489452701319992 3.175
endloop
endfacet
facet normal 0.38446573053867 -0.923139264705693 0.0
outer loop
vertex -39.0181423179291 -0.176701825886498 3.175
vertex -39.5574364304032 -0.489452701319992 0.0
vertex -39.0181423179291 -0.176701825886498 0.0
endloop
endfacet
facet normal 0.610291401438171 -0.792177003788063 0.0
outer loop
vertex -39.5574364304032 -0.489452701319992 0.0
vertex -39.0181423179291 -0.176701825886498 3.175
vertex -39.5574364304032 -0.489452701319992 3.175
endloop
endfacet
endsolid double_standoff_joiner_with_magnet
