%
M48
M72
T01C0.0276
T02C0.0300
T03C0.0320
T04C0.0394
T05C0.0400
T06C0.0472
T07C0.0520
T08C0.1250
%
T01
X11101Y2791
X11101Y3791
X25701Y5291
X25701Y6291
X27401Y6291
X27401Y5291
T02
X18585Y12791
X16617Y12791
X24217Y13491
X26185Y13491
X12001Y7176
X12001Y5207
T03
X14101Y8091
X15101Y8091
X16101Y8091
X17101Y8091
X18101Y8091
X19101Y8091
X20101Y8091
X21101Y8091
X22101Y8091
X23101Y8091
X24101Y8091
X25101Y8091
X26101Y8091
X27101Y8091
X23351Y5591
X21451Y5591
X21101Y11091
X20101Y11091
X19101Y11091
X18101Y11091
X17101Y11091
X16101Y11091
X15101Y11091
X14101Y11091
X22101Y11091
X23101Y11091
X24101Y11091
X25101Y11091
X26101Y11091
X27101Y11091
X22901Y14791
X22901Y15791
T04
X15201Y2691
X14201Y2691
T05
X12241Y8311
X10461Y8311
X10461Y10871
X12241Y10871
X16711Y14111
X18491Y14111
X18491Y16671
X16711Y16671
X24301Y2591
X25301Y2591
T06
X21201Y2691
X19201Y2691
T07
X8514Y2941
X7554Y1941
X3632Y2941
X3632Y3941
X3632Y5941
X3632Y6941
X7554Y7902
X8514Y6941
X7593Y4941
X7554Y11191
X8514Y12191
X7593Y14191
X8514Y16191
X7554Y17152
X3632Y16191
X3632Y15191
X3632Y13191
X3632Y12191
T08
X1351Y1441
X1351Y17691
X27601Y17691
X27601Y1441
M30
