G75*
G70*
%OFA0B0*%
%FSLAX24Y24*%
%IPPOS*%
%LPD*%
%AMOC8*
5,1,8,0,0,1.08239X$1,22.5*
%
%ADD10C,0.1330*%
%ADD11C,0.0560*%
%ADD12C,0.0820*%
%ADD13C,0.0530*%
%ADD14C,0.0560*%
%ADD15C,0.0730*%
%ADD16C,0.0860*%
%ADD17OC8,0.0940*%
%ADD18OC8,0.0740*%
%ADD19C,0.0671*%
%ADD20C,0.0789*%
%ADD21R,0.0730X0.0730*%
D10*
X001351Y001441D03*
X001351Y017691D03*
X027601Y017691D03*
X027601Y001441D03*
D11*
X027101Y007851D02*
X027101Y008331D01*
X026101Y008331D02*
X026101Y007851D01*
X025101Y007851D02*
X025101Y008331D01*
X024101Y008331D02*
X024101Y007851D01*
X023101Y007851D02*
X023101Y008331D01*
X022101Y008331D02*
X022101Y007851D01*
X021101Y007851D02*
X021101Y008331D01*
X020101Y008331D02*
X020101Y007851D01*
X019101Y007851D02*
X019101Y008331D01*
X018101Y008331D02*
X018101Y007851D01*
X017101Y007851D02*
X017101Y008331D01*
X016101Y008331D02*
X016101Y007851D01*
X015101Y007851D02*
X015101Y008331D01*
X014101Y008331D02*
X014101Y007851D01*
X014101Y010851D02*
X014101Y011331D01*
X015101Y011331D02*
X015101Y010851D01*
X016101Y010851D02*
X016101Y011331D01*
X017101Y011331D02*
X017101Y010851D01*
X018101Y010851D02*
X018101Y011331D01*
X019101Y011331D02*
X019101Y010851D01*
X020101Y010851D02*
X020101Y011331D01*
X021101Y011331D02*
X021101Y010851D01*
X022101Y010851D02*
X022101Y011331D01*
X023101Y011331D02*
X023101Y010851D01*
X024101Y010851D02*
X024101Y011331D01*
X025101Y011331D02*
X025101Y010851D01*
X026101Y010851D02*
X026101Y011331D01*
X027101Y011331D02*
X027101Y010851D01*
D12*
X018491Y014111D03*
X016711Y014111D03*
X016711Y016671D03*
X018491Y016671D03*
X012241Y010871D03*
X010461Y010871D03*
X010461Y008311D03*
X012241Y008311D03*
X024301Y002591D03*
X025301Y002591D03*
D13*
X012001Y005207D03*
X012001Y007176D03*
X016617Y012791D03*
X018585Y012791D03*
X024217Y013491D03*
X026185Y013491D03*
D14*
X023351Y005591D03*
X021451Y005591D03*
D15*
X025701Y005291D03*
X025701Y006291D03*
X027401Y006291D03*
X027401Y005291D03*
X011101Y003791D03*
D16*
X007983Y004941D02*
X007203Y004941D01*
X007203Y014191D02*
X007983Y014191D01*
D17*
X008514Y012191D03*
X007554Y011191D03*
X003632Y012191D03*
X003632Y013191D03*
X003632Y015191D03*
X003632Y016191D03*
X007554Y017152D03*
X008514Y016191D03*
X007554Y007902D03*
X008514Y006941D03*
X003632Y006941D03*
X003632Y005941D03*
X003632Y003941D03*
X003632Y002941D03*
X007554Y001941D03*
X008514Y002941D03*
D18*
X022901Y014791D03*
X022901Y015791D03*
D19*
X015201Y002691D03*
X014201Y002691D03*
D20*
X019201Y002691D03*
X021201Y002691D03*
D21*
X011101Y002791D03*
M02*
