G75*
G70*
%OFA0B0*%
%FSLAX24Y24*%
%IPPOS*%
%LPD*%
%AMOC8*
5,1,8,0,0,1.08239X$1,22.5*
%
%ADD10C,0.0070*%
%ADD11C,0.0080*%
%ADD12C,0.0060*%
%ADD13C,0.0050*%
%ADD14C,0.0160*%
%ADD15C,0.0010*%
D10*
X007436Y000426D02*
X007831Y000426D01*
X007963Y000558D01*
X007963Y001085D01*
X007831Y001217D01*
X007436Y001217D01*
X007436Y000426D01*
X008228Y000822D02*
X008755Y000822D01*
X009019Y001085D02*
X009151Y001217D01*
X009415Y001217D01*
X009547Y001085D01*
X009547Y000954D01*
X009415Y000822D01*
X009547Y000690D01*
X009547Y000558D01*
X009415Y000426D01*
X009151Y000426D01*
X009019Y000558D01*
X009283Y000822D02*
X009415Y000822D01*
X009811Y000954D02*
X009943Y000822D01*
X010338Y000822D01*
X010338Y001085D02*
X010207Y001217D01*
X009943Y001217D01*
X009811Y001085D01*
X009811Y000954D01*
X010338Y001085D02*
X010338Y000558D01*
X010207Y000426D01*
X009943Y000426D01*
X009811Y000558D01*
X010603Y000558D02*
X010735Y000426D01*
X010999Y000426D01*
X011130Y000558D01*
X011130Y001085D01*
X010999Y001217D01*
X010735Y001217D01*
X010603Y001085D01*
X010603Y000954D01*
X010735Y000822D01*
X011130Y000822D01*
X011395Y001085D02*
X011527Y001217D01*
X011790Y001217D01*
X011922Y001085D01*
X011395Y000558D01*
X011527Y000426D01*
X011790Y000426D01*
X011922Y000558D01*
X011922Y001085D01*
X011395Y001085D02*
X011395Y000558D01*
X012979Y000558D02*
X013111Y000426D01*
X013374Y000426D01*
X013506Y000558D01*
X013506Y000822D01*
X013374Y000954D01*
X013242Y000954D01*
X012979Y000822D01*
X012979Y001217D01*
X013506Y001217D01*
X013771Y000954D02*
X014298Y000426D01*
X014562Y000426D02*
X015090Y000426D01*
X014826Y000426D02*
X014826Y001217D01*
X014562Y000954D01*
X014298Y000954D02*
X013771Y000426D01*
X015354Y000558D02*
X015881Y001085D01*
X015881Y000558D01*
X015750Y000426D01*
X015486Y000426D01*
X015354Y000558D01*
X015354Y001085D01*
X015486Y001217D01*
X015750Y001217D01*
X015881Y001085D01*
X008623Y001217D02*
X008623Y000426D01*
X008228Y000822D02*
X008623Y001217D01*
X010168Y017526D02*
X010036Y017658D01*
X010036Y018185D01*
X010168Y018317D01*
X010431Y018317D01*
X010563Y018185D01*
X010828Y018054D02*
X010828Y017526D01*
X010828Y017790D02*
X011091Y018054D01*
X011223Y018054D01*
X011488Y018054D02*
X011488Y017658D01*
X011619Y017526D01*
X012015Y017526D01*
X012015Y018054D01*
X012279Y017922D02*
X012411Y018054D01*
X012806Y018054D01*
X012806Y018317D02*
X012806Y017526D01*
X012411Y017526D01*
X012279Y017658D01*
X012279Y017922D01*
X013071Y018317D02*
X013203Y018317D01*
X013203Y017526D01*
X013071Y017526D02*
X013335Y017526D01*
X013599Y017658D02*
X013731Y017790D01*
X014126Y017790D01*
X014126Y017922D02*
X014126Y017526D01*
X013731Y017526D01*
X013599Y017658D01*
X013731Y018054D02*
X013994Y018054D01*
X014126Y017922D01*
X014391Y018054D02*
X014786Y018054D01*
X014918Y017922D01*
X014918Y017658D01*
X014786Y017526D01*
X014391Y017526D01*
X014391Y018317D01*
X015183Y017922D02*
X015315Y017790D01*
X015578Y017790D01*
X015710Y017658D01*
X015578Y017526D01*
X015183Y017526D01*
X015183Y017922D02*
X015315Y018054D01*
X015710Y018054D01*
X016767Y018185D02*
X016898Y018317D01*
X017162Y018317D01*
X017294Y018185D01*
X017294Y018054D01*
X016767Y017526D01*
X017294Y017526D01*
X017558Y017658D02*
X018085Y018185D01*
X018085Y017658D01*
X017954Y017526D01*
X017690Y017526D01*
X017558Y017658D01*
X017558Y018185D01*
X017690Y018317D01*
X017954Y018317D01*
X018085Y018185D01*
X018350Y018054D02*
X018614Y018317D01*
X018614Y017526D01*
X018877Y017526D02*
X018350Y017526D01*
X019142Y017526D02*
X019669Y017526D01*
X019406Y017526D02*
X019406Y018317D01*
X019142Y018054D01*
X010563Y017658D02*
X010431Y017526D01*
X010168Y017526D01*
D11*
X016401Y016241D02*
X016401Y014541D01*
X017196Y014191D02*
X018001Y014191D01*
X018801Y014541D02*
X018801Y016241D01*
X018001Y016591D02*
X017208Y016591D01*
X016901Y015391D02*
X016903Y015443D01*
X016909Y015495D01*
X016919Y015547D01*
X016932Y015597D01*
X016949Y015647D01*
X016970Y015695D01*
X016995Y015741D01*
X017023Y015785D01*
X017054Y015827D01*
X017088Y015867D01*
X017125Y015904D01*
X017165Y015938D01*
X017207Y015969D01*
X017251Y015997D01*
X017297Y016022D01*
X017345Y016043D01*
X017395Y016060D01*
X017445Y016073D01*
X017497Y016083D01*
X017549Y016089D01*
X017601Y016091D01*
X017653Y016089D01*
X017705Y016083D01*
X017757Y016073D01*
X017807Y016060D01*
X017857Y016043D01*
X017905Y016022D01*
X017951Y015997D01*
X017995Y015969D01*
X018037Y015938D01*
X018077Y015904D01*
X018114Y015867D01*
X018148Y015827D01*
X018179Y015785D01*
X018207Y015741D01*
X018232Y015695D01*
X018253Y015647D01*
X018270Y015597D01*
X018283Y015547D01*
X018293Y015495D01*
X018299Y015443D01*
X018301Y015391D01*
X018299Y015339D01*
X018293Y015287D01*
X018283Y015235D01*
X018270Y015185D01*
X018253Y015135D01*
X018232Y015087D01*
X018207Y015041D01*
X018179Y014997D01*
X018148Y014955D01*
X018114Y014915D01*
X018077Y014878D01*
X018037Y014844D01*
X017995Y014813D01*
X017951Y014785D01*
X017905Y014760D01*
X017857Y014739D01*
X017807Y014722D01*
X017757Y014709D01*
X017705Y014699D01*
X017653Y014693D01*
X017601Y014691D01*
X017549Y014693D01*
X017497Y014699D01*
X017445Y014709D01*
X017395Y014722D01*
X017345Y014739D01*
X017297Y014760D01*
X017251Y014785D01*
X017207Y014813D01*
X017165Y014844D01*
X017125Y014878D01*
X017088Y014915D01*
X017054Y014955D01*
X017023Y014997D01*
X016995Y015041D01*
X016970Y015087D01*
X016949Y015135D01*
X016932Y015185D01*
X016919Y015235D01*
X016909Y015287D01*
X016903Y015339D01*
X016901Y015391D01*
X016991Y013126D02*
X018211Y013126D01*
X018211Y012457D01*
X016991Y012457D01*
X016991Y013126D01*
X012551Y010441D02*
X012551Y008741D01*
X011751Y008391D02*
X010946Y008391D01*
X010151Y008741D02*
X010151Y010441D01*
X010958Y010791D02*
X011751Y010791D01*
X010651Y009591D02*
X010653Y009643D01*
X010659Y009695D01*
X010669Y009747D01*
X010682Y009797D01*
X010699Y009847D01*
X010720Y009895D01*
X010745Y009941D01*
X010773Y009985D01*
X010804Y010027D01*
X010838Y010067D01*
X010875Y010104D01*
X010915Y010138D01*
X010957Y010169D01*
X011001Y010197D01*
X011047Y010222D01*
X011095Y010243D01*
X011145Y010260D01*
X011195Y010273D01*
X011247Y010283D01*
X011299Y010289D01*
X011351Y010291D01*
X011403Y010289D01*
X011455Y010283D01*
X011507Y010273D01*
X011557Y010260D01*
X011607Y010243D01*
X011655Y010222D01*
X011701Y010197D01*
X011745Y010169D01*
X011787Y010138D01*
X011827Y010104D01*
X011864Y010067D01*
X011898Y010027D01*
X011929Y009985D01*
X011957Y009941D01*
X011982Y009895D01*
X012003Y009847D01*
X012020Y009797D01*
X012033Y009747D01*
X012043Y009695D01*
X012049Y009643D01*
X012051Y009591D01*
X012049Y009539D01*
X012043Y009487D01*
X012033Y009435D01*
X012020Y009385D01*
X012003Y009335D01*
X011982Y009287D01*
X011957Y009241D01*
X011929Y009197D01*
X011898Y009155D01*
X011864Y009115D01*
X011827Y009078D01*
X011787Y009044D01*
X011745Y009013D01*
X011701Y008985D01*
X011655Y008960D01*
X011607Y008939D01*
X011557Y008922D01*
X011507Y008909D01*
X011455Y008899D01*
X011403Y008893D01*
X011351Y008891D01*
X011299Y008893D01*
X011247Y008899D01*
X011195Y008909D01*
X011145Y008922D01*
X011095Y008939D01*
X011047Y008960D01*
X011001Y008985D01*
X010957Y009013D01*
X010915Y009044D01*
X010875Y009078D01*
X010838Y009115D01*
X010804Y009155D01*
X010773Y009197D01*
X010745Y009241D01*
X010720Y009287D01*
X010699Y009335D01*
X010682Y009385D01*
X010669Y009435D01*
X010659Y009487D01*
X010653Y009539D01*
X010651Y009591D01*
X011666Y006802D02*
X011666Y005581D01*
X012335Y005581D01*
X012335Y006802D01*
X011666Y006802D01*
X011651Y003991D02*
X011651Y003591D01*
X010117Y003291D02*
X010119Y003353D01*
X010125Y003416D01*
X010135Y003477D01*
X010149Y003538D01*
X010166Y003598D01*
X010187Y003657D01*
X010213Y003714D01*
X010241Y003769D01*
X010273Y003823D01*
X010309Y003874D01*
X010347Y003924D01*
X010389Y003970D01*
X010433Y004014D01*
X010481Y004055D01*
X010530Y004093D01*
X010582Y004127D01*
X010636Y004158D01*
X010692Y004186D01*
X010750Y004210D01*
X010809Y004231D01*
X010869Y004247D01*
X010930Y004260D01*
X010992Y004269D01*
X011054Y004274D01*
X011117Y004275D01*
X011179Y004272D01*
X011241Y004265D01*
X011303Y004254D01*
X011363Y004239D01*
X011423Y004221D01*
X011481Y004199D01*
X011538Y004173D01*
X011593Y004143D01*
X011646Y004110D01*
X011697Y004074D01*
X011745Y004035D01*
X011791Y003992D01*
X011834Y003947D01*
X011874Y003899D01*
X011911Y003849D01*
X011945Y003796D01*
X011976Y003742D01*
X012002Y003686D01*
X012026Y003628D01*
X012045Y003568D01*
X012061Y003508D01*
X012073Y003446D01*
X012081Y003385D01*
X012085Y003322D01*
X012085Y003260D01*
X012081Y003197D01*
X012073Y003136D01*
X012061Y003074D01*
X012045Y003014D01*
X012026Y002954D01*
X012002Y002896D01*
X011976Y002840D01*
X011945Y002786D01*
X011911Y002733D01*
X011874Y002683D01*
X011834Y002635D01*
X011791Y002590D01*
X011745Y002547D01*
X011697Y002508D01*
X011646Y002472D01*
X011593Y002439D01*
X011538Y002409D01*
X011481Y002383D01*
X011423Y002361D01*
X011363Y002343D01*
X011303Y002328D01*
X011241Y002317D01*
X011179Y002310D01*
X011117Y002307D01*
X011054Y002308D01*
X010992Y002313D01*
X010930Y002322D01*
X010869Y002335D01*
X010809Y002351D01*
X010750Y002372D01*
X010692Y002396D01*
X010636Y002424D01*
X010582Y002455D01*
X010530Y002489D01*
X010481Y002527D01*
X010433Y002568D01*
X010389Y002612D01*
X010347Y002658D01*
X010309Y002708D01*
X010273Y002759D01*
X010241Y002813D01*
X010213Y002868D01*
X010187Y002925D01*
X010166Y002984D01*
X010149Y003044D01*
X010135Y003105D01*
X010125Y003166D01*
X010119Y003229D01*
X010117Y003291D01*
X013291Y003125D02*
X013291Y001235D01*
X022110Y001235D01*
X022110Y003125D01*
X013291Y003125D01*
X023801Y002841D02*
X023801Y002341D01*
X024051Y002091D01*
X024551Y002091D01*
X024801Y002341D01*
X025051Y002091D01*
X025551Y002091D01*
X025801Y002341D01*
X025801Y002841D01*
X025551Y003091D01*
X025051Y003091D01*
X024801Y002841D01*
X024551Y003091D01*
X024051Y003091D01*
X023801Y002841D01*
X025451Y005791D02*
X025951Y005791D01*
X027151Y005791D02*
X027651Y005791D01*
X025811Y013157D02*
X024591Y013157D01*
X024591Y013826D01*
X025811Y013826D01*
X025811Y013157D01*
X023651Y014291D02*
X022151Y014291D01*
X001561Y014211D02*
X000947Y014211D01*
X000947Y014671D01*
X001100Y014825D01*
X001561Y014825D01*
X001561Y013904D02*
X001561Y013597D01*
X001561Y013750D02*
X000947Y013750D01*
X000947Y013597D01*
X000640Y013750D02*
X000487Y013750D01*
X000947Y005824D02*
X000947Y005518D01*
X000794Y005671D02*
X001407Y005671D01*
X001561Y005824D01*
X001561Y005211D02*
X000947Y005211D01*
X001561Y005211D02*
X001561Y004750D01*
X001407Y004597D01*
X000947Y004597D01*
X001100Y004290D02*
X000947Y004136D01*
X000947Y003830D01*
X001100Y003676D01*
X001407Y003676D01*
X001561Y003830D01*
X001561Y004136D01*
X001407Y004290D01*
X001100Y004290D01*
D12*
X002632Y001013D02*
X002932Y001013D01*
X002972Y001017D01*
X003172Y001017D01*
X003132Y001013D01*
X003382Y001013D01*
X003382Y001941D01*
X003382Y003491D01*
X003382Y004391D02*
X003382Y005491D01*
X003382Y006391D02*
X003382Y007891D01*
X003382Y007941D02*
X004782Y007941D01*
X005082Y007941D01*
X004782Y007941D02*
X004782Y008791D01*
X006632Y008791D01*
X006632Y007941D01*
X006182Y007941D01*
X006632Y007941D02*
X006632Y005691D01*
X007432Y005691D01*
X007432Y006191D01*
X008182Y006191D01*
X008182Y005691D01*
X008432Y005691D01*
X008432Y005191D01*
X009032Y005191D01*
X009032Y004691D01*
X008432Y004691D01*
X008432Y004191D01*
X008132Y004191D01*
X008132Y003691D01*
X007382Y003691D01*
X007382Y004191D01*
X006632Y004191D01*
X006632Y005691D01*
X007432Y005691D02*
X008182Y005691D01*
X008432Y005691D02*
X009032Y005691D01*
X009032Y005191D01*
X009032Y004691D02*
X009032Y004191D01*
X008432Y004191D01*
X008132Y004191D02*
X007382Y004191D01*
X006632Y004191D02*
X006632Y001941D01*
X006182Y001941D01*
X006632Y001941D02*
X006632Y001091D01*
X004782Y001091D01*
X004782Y001941D01*
X005082Y001941D01*
X004782Y001941D02*
X003382Y001941D01*
X002632Y001013D02*
X002632Y008905D01*
X002932Y008905D01*
X002932Y008888D01*
X003132Y008888D01*
X003132Y008905D01*
X003382Y008905D01*
X003382Y007941D01*
X006632Y008791D02*
X008182Y008391D01*
X008132Y010741D02*
X006632Y010341D01*
X006632Y011191D01*
X006182Y011191D01*
X006632Y011191D02*
X006632Y013441D01*
X007382Y013441D01*
X007382Y012941D01*
X008132Y012941D01*
X008132Y013441D01*
X008432Y013441D01*
X008432Y013941D01*
X009032Y013941D01*
X009032Y014441D01*
X009032Y014941D01*
X008432Y014941D01*
X008182Y014941D01*
X007432Y014941D01*
X006632Y014941D01*
X006632Y017191D01*
X006182Y017191D01*
X006632Y017191D02*
X006632Y018041D01*
X008182Y017641D01*
X006632Y018041D02*
X004782Y018041D01*
X004782Y017191D01*
X005082Y017191D01*
X004782Y017191D02*
X003382Y017191D01*
X003382Y018155D01*
X003132Y018155D01*
X003132Y018138D01*
X002932Y018138D01*
X002932Y018155D01*
X002632Y018155D01*
X002632Y010263D01*
X002932Y010263D01*
X002972Y010267D01*
X003172Y010267D01*
X003132Y010263D01*
X003382Y010263D01*
X003382Y011191D01*
X003382Y012741D01*
X003382Y013641D02*
X003382Y014741D01*
X003382Y015641D02*
X003382Y017141D01*
X006632Y014941D02*
X006632Y013441D01*
X007382Y013441D02*
X008132Y013441D01*
X008432Y013441D02*
X009032Y013441D01*
X009032Y013941D01*
X009032Y014441D02*
X008432Y014441D01*
X008432Y014941D01*
X008182Y014941D02*
X008182Y015441D01*
X007432Y015441D01*
X007432Y014941D01*
X005082Y011191D02*
X004782Y011191D01*
X004782Y010341D01*
X006632Y010341D01*
X004782Y011191D02*
X003382Y011191D01*
X013301Y010691D02*
X013301Y009841D01*
X013331Y009839D01*
X013361Y009834D01*
X013390Y009825D01*
X013417Y009812D01*
X013443Y009797D01*
X013467Y009778D01*
X013488Y009757D01*
X013507Y009733D01*
X013522Y009707D01*
X013535Y009680D01*
X013544Y009651D01*
X013549Y009621D01*
X013551Y009591D01*
X013549Y009561D01*
X013544Y009531D01*
X013535Y009502D01*
X013522Y009475D01*
X013507Y009449D01*
X013488Y009425D01*
X013467Y009404D01*
X013443Y009385D01*
X013417Y009370D01*
X013390Y009357D01*
X013361Y009348D01*
X013331Y009343D01*
X013301Y009341D01*
X013301Y008491D01*
X027901Y008491D01*
X027901Y010691D01*
X013301Y010691D01*
X021251Y006291D02*
X023551Y006291D01*
X022651Y005941D02*
X022651Y005591D01*
X022901Y005591D01*
X022651Y005591D02*
X022651Y005241D01*
X022501Y005241D02*
X022501Y005941D01*
X022301Y005941D01*
X022301Y005241D01*
X022501Y005241D01*
X022151Y005241D02*
X022151Y005591D01*
X021901Y005591D01*
X022151Y005591D02*
X022151Y005941D01*
X021251Y006291D02*
X021200Y006289D01*
X021149Y006284D01*
X021099Y006274D01*
X021049Y006261D01*
X021001Y006245D01*
X020954Y006225D01*
X020908Y006201D01*
X020865Y006175D01*
X020823Y006145D01*
X020784Y006112D01*
X020747Y006077D01*
X020713Y006039D01*
X020682Y005998D01*
X020653Y005956D01*
X020628Y005911D01*
X020607Y005865D01*
X020588Y005817D01*
X020574Y005768D01*
X020563Y005718D01*
X020555Y005668D01*
X020551Y005617D01*
X020551Y005565D01*
X020555Y005514D01*
X020563Y005464D01*
X020574Y005414D01*
X020588Y005365D01*
X020607Y005317D01*
X020628Y005271D01*
X020653Y005226D01*
X020682Y005184D01*
X020713Y005143D01*
X020747Y005105D01*
X020784Y005070D01*
X020823Y005037D01*
X020865Y005007D01*
X020908Y004981D01*
X020954Y004957D01*
X021001Y004937D01*
X021049Y004921D01*
X021099Y004908D01*
X021149Y004898D01*
X021200Y004893D01*
X021251Y004891D01*
X023551Y004891D01*
X023602Y004893D01*
X023653Y004898D01*
X023703Y004908D01*
X023753Y004921D01*
X023801Y004937D01*
X023848Y004957D01*
X023894Y004981D01*
X023937Y005007D01*
X023979Y005037D01*
X024018Y005070D01*
X024055Y005105D01*
X024089Y005143D01*
X024120Y005184D01*
X024149Y005226D01*
X024174Y005271D01*
X024195Y005317D01*
X024214Y005365D01*
X024228Y005414D01*
X024239Y005464D01*
X024247Y005514D01*
X024251Y005565D01*
X024251Y005617D01*
X024247Y005668D01*
X024239Y005718D01*
X024228Y005768D01*
X024214Y005817D01*
X024195Y005865D01*
X024174Y005911D01*
X024149Y005956D01*
X024120Y005998D01*
X024089Y006039D01*
X024055Y006077D01*
X024018Y006112D01*
X023979Y006145D01*
X023937Y006175D01*
X023894Y006201D01*
X023848Y006225D01*
X023801Y006245D01*
X023753Y006261D01*
X023703Y006274D01*
X023653Y006284D01*
X023602Y006289D01*
X023551Y006291D01*
X021901Y015291D02*
X021903Y015354D01*
X021909Y015416D01*
X021919Y015478D01*
X021932Y015540D01*
X021950Y015600D01*
X021971Y015659D01*
X021996Y015717D01*
X022025Y015773D01*
X022057Y015827D01*
X022092Y015879D01*
X022130Y015928D01*
X022172Y015976D01*
X022216Y016020D01*
X022264Y016062D01*
X022313Y016100D01*
X022365Y016135D01*
X022419Y016167D01*
X022475Y016196D01*
X022533Y016221D01*
X022592Y016242D01*
X022652Y016260D01*
X022714Y016273D01*
X022776Y016283D01*
X022838Y016289D01*
X022901Y016291D01*
X022964Y016289D01*
X023026Y016283D01*
X023088Y016273D01*
X023150Y016260D01*
X023210Y016242D01*
X023269Y016221D01*
X023327Y016196D01*
X023383Y016167D01*
X023437Y016135D01*
X023489Y016100D01*
X023538Y016062D01*
X023586Y016020D01*
X023630Y015976D01*
X023672Y015928D01*
X023710Y015879D01*
X023745Y015827D01*
X023777Y015773D01*
X023806Y015717D01*
X023831Y015659D01*
X023852Y015600D01*
X023870Y015540D01*
X023883Y015478D01*
X023893Y015416D01*
X023899Y015354D01*
X023901Y015291D01*
X023899Y015228D01*
X023893Y015166D01*
X023883Y015104D01*
X023870Y015042D01*
X023852Y014982D01*
X023831Y014923D01*
X023806Y014865D01*
X023777Y014809D01*
X023745Y014755D01*
X023710Y014703D01*
X023672Y014654D01*
X023630Y014606D01*
X023586Y014562D01*
X023538Y014520D01*
X023489Y014482D01*
X023437Y014447D01*
X023383Y014415D01*
X023327Y014386D01*
X023269Y014361D01*
X023210Y014340D01*
X023150Y014322D01*
X023088Y014309D01*
X023026Y014299D01*
X022964Y014293D01*
X022901Y014291D01*
X022838Y014293D01*
X022776Y014299D01*
X022714Y014309D01*
X022652Y014322D01*
X022592Y014340D01*
X022533Y014361D01*
X022475Y014386D01*
X022419Y014415D01*
X022365Y014447D01*
X022313Y014482D01*
X022264Y014520D01*
X022216Y014562D01*
X022172Y014606D01*
X022130Y014654D01*
X022092Y014703D01*
X022057Y014755D01*
X022025Y014809D01*
X021996Y014865D01*
X021971Y014923D01*
X021950Y014982D01*
X021932Y015042D01*
X021919Y015104D01*
X021909Y015166D01*
X021903Y015228D01*
X021901Y015291D01*
X008132Y001491D02*
X006632Y001091D01*
D13*
X008407Y001881D02*
X008632Y001656D01*
X008632Y001956D01*
X008857Y001881D02*
X008407Y001881D01*
X007207Y002506D02*
X007207Y002806D01*
X007207Y002656D02*
X006757Y002656D01*
X006907Y002506D01*
X006832Y005156D02*
X006757Y005231D01*
X006757Y005381D01*
X006832Y005456D01*
X006907Y005456D01*
X007207Y005156D01*
X007207Y005456D01*
X007132Y006956D02*
X007207Y007031D01*
X007207Y007181D01*
X007132Y007256D01*
X007057Y007256D01*
X006982Y007181D01*
X006982Y007106D01*
X006982Y007181D02*
X006907Y007256D01*
X006832Y007256D01*
X006757Y007181D01*
X006757Y007031D01*
X006832Y006956D01*
X008407Y007756D02*
X008407Y008056D01*
X008557Y007981D02*
X008632Y008056D01*
X008782Y008056D01*
X008857Y007981D01*
X008857Y007831D01*
X008782Y007756D01*
X008632Y007756D02*
X008557Y007906D01*
X008557Y007981D01*
X008632Y007756D02*
X008407Y007756D01*
X011874Y006426D02*
X012054Y006246D01*
X012009Y006291D02*
X012145Y006426D01*
X012145Y006246D02*
X011874Y006246D01*
X011919Y006131D02*
X012100Y005951D01*
X012145Y005996D01*
X012145Y006086D01*
X012100Y006131D01*
X011919Y006131D01*
X011874Y006086D01*
X011874Y005996D01*
X011919Y005951D01*
X012100Y005951D01*
X012145Y005836D02*
X012145Y005656D01*
X012145Y005746D02*
X011874Y005746D01*
X011964Y005656D01*
X008632Y010906D02*
X008632Y011206D01*
X008407Y011131D02*
X008632Y010906D01*
X008857Y011131D02*
X008407Y011131D01*
X007207Y011756D02*
X007207Y012056D01*
X007207Y011906D02*
X006757Y011906D01*
X006907Y011756D01*
X006832Y014406D02*
X006757Y014481D01*
X006757Y014631D01*
X006832Y014706D01*
X006907Y014706D01*
X007207Y014406D01*
X007207Y014706D01*
X007132Y016206D02*
X007207Y016281D01*
X007207Y016431D01*
X007132Y016506D01*
X007057Y016506D01*
X006982Y016431D01*
X006982Y016356D01*
X006982Y016431D02*
X006907Y016506D01*
X006832Y016506D01*
X006757Y016431D01*
X006757Y016281D01*
X006832Y016206D01*
X008407Y017006D02*
X008632Y017006D01*
X008557Y017156D01*
X008557Y017231D01*
X008632Y017306D01*
X008782Y017306D01*
X008857Y017231D01*
X008857Y017081D01*
X008782Y017006D01*
X008407Y017006D02*
X008407Y017306D01*
X017066Y012828D02*
X017156Y012918D01*
X017156Y012648D01*
X017066Y012648D02*
X017246Y012648D01*
X017360Y012693D02*
X017540Y012873D01*
X017540Y012693D01*
X017495Y012648D01*
X017405Y012648D01*
X017360Y012693D01*
X017360Y012873D01*
X017405Y012918D01*
X017495Y012918D01*
X017540Y012873D01*
X017655Y012918D02*
X017655Y012648D01*
X017655Y012738D02*
X017835Y012918D01*
X017700Y012783D02*
X017835Y012648D01*
X024902Y013410D02*
X024947Y013365D01*
X025037Y013365D01*
X025082Y013410D01*
X025082Y013455D01*
X025037Y013500D01*
X024992Y013500D01*
X025037Y013500D02*
X025082Y013545D01*
X025082Y013590D01*
X025037Y013635D01*
X024947Y013635D01*
X024902Y013590D01*
X025197Y013590D02*
X025242Y013635D01*
X025332Y013635D01*
X025377Y013590D01*
X025377Y013545D01*
X025332Y013500D01*
X025377Y013455D01*
X025377Y013410D01*
X025332Y013365D01*
X025242Y013365D01*
X025197Y013410D01*
X025287Y013500D02*
X025332Y013500D01*
X025491Y013410D02*
X025671Y013590D01*
X025671Y013410D01*
X025626Y013365D01*
X025536Y013365D01*
X025491Y013410D01*
X025491Y013590D01*
X025536Y013635D01*
X025626Y013635D01*
X025671Y013590D01*
D14*
X023551Y006491D02*
X021251Y006491D01*
X021192Y006489D01*
X021134Y006483D01*
X021075Y006474D01*
X021018Y006460D01*
X020962Y006443D01*
X020907Y006422D01*
X020853Y006398D01*
X020801Y006370D01*
X020751Y006339D01*
X020703Y006305D01*
X020658Y006268D01*
X020615Y006227D01*
X020574Y006184D01*
X020537Y006139D01*
X020503Y006091D01*
X020472Y006041D01*
X020444Y005989D01*
X020420Y005935D01*
X020399Y005880D01*
X020382Y005824D01*
X020368Y005767D01*
X020359Y005708D01*
X020353Y005650D01*
X020351Y005591D01*
X020353Y005532D01*
X020359Y005474D01*
X020368Y005415D01*
X020382Y005358D01*
X020399Y005302D01*
X020420Y005247D01*
X020444Y005193D01*
X020472Y005141D01*
X020503Y005091D01*
X020537Y005043D01*
X020574Y004998D01*
X020615Y004955D01*
X020658Y004914D01*
X020703Y004877D01*
X020751Y004843D01*
X020801Y004812D01*
X020853Y004784D01*
X020907Y004760D01*
X020962Y004739D01*
X021018Y004722D01*
X021075Y004708D01*
X021134Y004699D01*
X021192Y004693D01*
X021251Y004691D01*
X023551Y004691D01*
X023610Y004693D01*
X023668Y004699D01*
X023727Y004708D01*
X023784Y004722D01*
X023840Y004739D01*
X023895Y004760D01*
X023949Y004784D01*
X024001Y004812D01*
X024051Y004843D01*
X024099Y004877D01*
X024144Y004914D01*
X024187Y004955D01*
X024228Y004998D01*
X024265Y005043D01*
X024299Y005091D01*
X024330Y005141D01*
X024358Y005193D01*
X024382Y005247D01*
X024403Y005302D01*
X024420Y005358D01*
X024434Y005415D01*
X024443Y005474D01*
X024449Y005532D01*
X024451Y005591D01*
X024449Y005650D01*
X024443Y005708D01*
X024434Y005767D01*
X024420Y005824D01*
X024403Y005880D01*
X024382Y005935D01*
X024358Y005989D01*
X024330Y006041D01*
X024299Y006091D01*
X024265Y006139D01*
X024228Y006184D01*
X024187Y006227D01*
X024144Y006268D01*
X024099Y006305D01*
X024051Y006339D01*
X024001Y006370D01*
X023949Y006398D01*
X023895Y006422D01*
X023840Y006443D01*
X023784Y006460D01*
X023727Y006474D01*
X023668Y006483D01*
X023610Y006489D01*
X023551Y006491D01*
D15*
X023681Y014259D02*
X023627Y014331D01*
X023628Y014330D02*
X023681Y014373D01*
X023732Y014418D01*
X023780Y014467D01*
X023825Y014518D01*
X023868Y014572D01*
X023907Y014628D01*
X023943Y014686D01*
X023976Y014746D01*
X024005Y014807D01*
X024030Y014871D01*
X024052Y014935D01*
X024071Y015001D01*
X024085Y015068D01*
X024096Y015135D01*
X024103Y015203D01*
X024106Y015271D01*
X024105Y015340D01*
X024100Y015408D01*
X024092Y015476D01*
X024079Y015543D01*
X024063Y015609D01*
X024043Y015674D01*
X024020Y015739D01*
X023993Y015801D01*
X023962Y015862D01*
X023928Y015921D01*
X023891Y015979D01*
X023850Y016034D01*
X023806Y016086D01*
X023760Y016136D01*
X023711Y016183D01*
X023659Y016228D01*
X023605Y016269D01*
X023548Y016308D01*
X023489Y016343D01*
X023429Y016374D01*
X023367Y016402D01*
X023303Y016427D01*
X023238Y016448D01*
X023172Y016465D01*
X023105Y016479D01*
X023037Y016488D01*
X022969Y016494D01*
X022901Y016496D01*
X022833Y016494D01*
X022765Y016488D01*
X022697Y016479D01*
X022630Y016465D01*
X022564Y016448D01*
X022499Y016427D01*
X022435Y016402D01*
X022373Y016374D01*
X022313Y016343D01*
X022254Y016308D01*
X022197Y016269D01*
X022143Y016228D01*
X022091Y016183D01*
X022042Y016136D01*
X021996Y016086D01*
X021952Y016034D01*
X021911Y015979D01*
X021874Y015921D01*
X021840Y015862D01*
X021809Y015801D01*
X021782Y015739D01*
X021759Y015674D01*
X021739Y015609D01*
X021723Y015543D01*
X021710Y015476D01*
X021702Y015408D01*
X021697Y015340D01*
X021696Y015271D01*
X021699Y015203D01*
X021706Y015135D01*
X021717Y015068D01*
X021731Y015001D01*
X021750Y014935D01*
X021772Y014871D01*
X021797Y014807D01*
X021826Y014746D01*
X021859Y014686D01*
X021895Y014628D01*
X021934Y014572D01*
X021977Y014518D01*
X022022Y014467D01*
X022070Y014418D01*
X022121Y014373D01*
X022174Y014330D01*
X022121Y014259D01*
X022120Y014258D01*
X022065Y014302D01*
X022012Y014350D01*
X021961Y014400D01*
X021914Y014453D01*
X021870Y014508D01*
X021828Y014566D01*
X021790Y014626D01*
X021755Y014687D01*
X021724Y014751D01*
X021696Y014816D01*
X021672Y014883D01*
X021651Y014951D01*
X021635Y015020D01*
X021622Y015090D01*
X021613Y015160D01*
X021607Y015231D01*
X021606Y015302D01*
X021609Y015373D01*
X021615Y015444D01*
X021625Y015514D01*
X021639Y015583D01*
X021657Y015652D01*
X021679Y015720D01*
X021704Y015786D01*
X021733Y015851D01*
X021766Y015914D01*
X021802Y015975D01*
X021841Y016034D01*
X021883Y016091D01*
X021928Y016146D01*
X021977Y016198D01*
X022028Y016247D01*
X022081Y016294D01*
X022138Y016337D01*
X022196Y016377D01*
X022257Y016414D01*
X022319Y016448D01*
X022383Y016478D01*
X022449Y016505D01*
X022516Y016528D01*
X022585Y016547D01*
X022654Y016562D01*
X022724Y016574D01*
X022795Y016582D01*
X022866Y016586D01*
X022936Y016586D01*
X023007Y016582D01*
X023078Y016574D01*
X023148Y016562D01*
X023217Y016547D01*
X023286Y016528D01*
X023353Y016505D01*
X023419Y016478D01*
X023483Y016448D01*
X023545Y016414D01*
X023606Y016377D01*
X023664Y016337D01*
X023721Y016294D01*
X023774Y016247D01*
X023825Y016198D01*
X023874Y016146D01*
X023919Y016091D01*
X023961Y016034D01*
X024000Y015975D01*
X024036Y015914D01*
X024069Y015851D01*
X024098Y015786D01*
X024123Y015720D01*
X024145Y015652D01*
X024163Y015583D01*
X024177Y015514D01*
X024187Y015444D01*
X024193Y015373D01*
X024196Y015302D01*
X024195Y015231D01*
X024189Y015160D01*
X024180Y015090D01*
X024167Y015020D01*
X024151Y014951D01*
X024130Y014883D01*
X024106Y014816D01*
X024078Y014751D01*
X024047Y014687D01*
X024012Y014626D01*
X023974Y014566D01*
X023932Y014508D01*
X023888Y014453D01*
X023841Y014400D01*
X023790Y014350D01*
X023737Y014302D01*
X023682Y014258D01*
X023677Y014265D01*
X023732Y014310D01*
X023785Y014357D01*
X023836Y014408D01*
X023883Y014461D01*
X023928Y014517D01*
X023969Y014575D01*
X024007Y014635D01*
X024042Y014697D01*
X024073Y014761D01*
X024100Y014827D01*
X024124Y014894D01*
X024144Y014963D01*
X024161Y015032D01*
X024173Y015102D01*
X024182Y015173D01*
X024186Y015244D01*
X024187Y015315D01*
X024183Y015386D01*
X024176Y015457D01*
X024165Y015528D01*
X024150Y015597D01*
X024131Y015666D01*
X024108Y015734D01*
X024082Y015800D01*
X024052Y015865D01*
X024018Y015927D01*
X023982Y015988D01*
X023941Y016047D01*
X023898Y016104D01*
X023851Y016158D01*
X023802Y016209D01*
X023749Y016257D01*
X023695Y016303D01*
X023637Y016345D01*
X023578Y016384D01*
X023516Y016420D01*
X023453Y016453D01*
X023388Y016481D01*
X023321Y016507D01*
X023253Y016528D01*
X023184Y016546D01*
X023114Y016559D01*
X023043Y016569D01*
X022972Y016575D01*
X022901Y016577D01*
X022830Y016575D01*
X022759Y016569D01*
X022688Y016559D01*
X022618Y016546D01*
X022549Y016528D01*
X022481Y016507D01*
X022414Y016481D01*
X022349Y016453D01*
X022286Y016420D01*
X022224Y016384D01*
X022165Y016345D01*
X022107Y016303D01*
X022053Y016257D01*
X022000Y016209D01*
X021951Y016158D01*
X021904Y016104D01*
X021861Y016047D01*
X021820Y015988D01*
X021784Y015927D01*
X021750Y015865D01*
X021720Y015800D01*
X021694Y015734D01*
X021671Y015666D01*
X021652Y015597D01*
X021637Y015528D01*
X021626Y015457D01*
X021619Y015386D01*
X021615Y015315D01*
X021616Y015244D01*
X021620Y015173D01*
X021629Y015102D01*
X021641Y015032D01*
X021658Y014963D01*
X021678Y014894D01*
X021702Y014827D01*
X021729Y014761D01*
X021760Y014697D01*
X021795Y014635D01*
X021833Y014575D01*
X021874Y014517D01*
X021919Y014461D01*
X021966Y014408D01*
X022017Y014357D01*
X022070Y014310D01*
X022125Y014265D01*
X022131Y014272D01*
X022076Y014317D01*
X022023Y014364D01*
X021973Y014414D01*
X021926Y014467D01*
X021882Y014522D01*
X021840Y014580D01*
X021803Y014639D01*
X021768Y014701D01*
X021737Y014765D01*
X021710Y014830D01*
X021686Y014897D01*
X021666Y014965D01*
X021650Y015034D01*
X021638Y015103D01*
X021629Y015174D01*
X021625Y015244D01*
X021624Y015315D01*
X021628Y015386D01*
X021635Y015456D01*
X021646Y015526D01*
X021661Y015595D01*
X021680Y015663D01*
X021702Y015731D01*
X021728Y015796D01*
X021758Y015861D01*
X021791Y015923D01*
X021828Y015983D01*
X021868Y016042D01*
X021911Y016098D01*
X021957Y016152D01*
X022007Y016202D01*
X022058Y016251D01*
X022113Y016296D01*
X022170Y016338D01*
X022229Y016377D01*
X022290Y016412D01*
X022353Y016445D01*
X022418Y016473D01*
X022484Y016498D01*
X022552Y016519D01*
X022620Y016537D01*
X022690Y016550D01*
X022760Y016560D01*
X022830Y016566D01*
X022901Y016568D01*
X022972Y016566D01*
X023042Y016560D01*
X023112Y016550D01*
X023182Y016537D01*
X023250Y016519D01*
X023318Y016498D01*
X023384Y016473D01*
X023449Y016445D01*
X023512Y016412D01*
X023573Y016377D01*
X023632Y016338D01*
X023689Y016296D01*
X023744Y016251D01*
X023795Y016202D01*
X023845Y016152D01*
X023891Y016098D01*
X023934Y016042D01*
X023974Y015983D01*
X024011Y015923D01*
X024044Y015861D01*
X024074Y015796D01*
X024100Y015731D01*
X024122Y015663D01*
X024141Y015595D01*
X024156Y015526D01*
X024167Y015456D01*
X024174Y015386D01*
X024178Y015315D01*
X024177Y015244D01*
X024173Y015174D01*
X024164Y015103D01*
X024152Y015034D01*
X024136Y014965D01*
X024116Y014897D01*
X024092Y014830D01*
X024065Y014765D01*
X024034Y014701D01*
X023999Y014639D01*
X023962Y014580D01*
X023920Y014522D01*
X023876Y014467D01*
X023829Y014414D01*
X023779Y014364D01*
X023726Y014317D01*
X023671Y014272D01*
X023666Y014280D01*
X023721Y014324D01*
X023774Y014372D01*
X023824Y014422D01*
X023872Y014475D01*
X023916Y014531D01*
X023957Y014589D01*
X023994Y014649D01*
X024029Y014711D01*
X024059Y014775D01*
X024086Y014841D01*
X024110Y014908D01*
X024129Y014976D01*
X024145Y015046D01*
X024157Y015116D01*
X024165Y015186D01*
X024169Y015257D01*
X024168Y015328D01*
X024164Y015399D01*
X024156Y015470D01*
X024144Y015540D01*
X024128Y015609D01*
X024109Y015677D01*
X024085Y015745D01*
X024058Y015810D01*
X024027Y015874D01*
X023993Y015936D01*
X023955Y015996D01*
X023913Y016054D01*
X023869Y016110D01*
X023822Y016163D01*
X023771Y016213D01*
X023718Y016260D01*
X023663Y016305D01*
X023605Y016346D01*
X023545Y016383D01*
X023482Y016418D01*
X023418Y016449D01*
X023353Y016476D01*
X023286Y016499D01*
X023217Y016519D01*
X023148Y016535D01*
X023078Y016547D01*
X023007Y016555D01*
X022937Y016559D01*
X022865Y016559D01*
X022795Y016555D01*
X022724Y016547D01*
X022654Y016535D01*
X022585Y016519D01*
X022516Y016499D01*
X022449Y016476D01*
X022384Y016449D01*
X022320Y016418D01*
X022257Y016383D01*
X022197Y016346D01*
X022139Y016305D01*
X022084Y016260D01*
X022031Y016213D01*
X021980Y016163D01*
X021933Y016110D01*
X021889Y016054D01*
X021847Y015996D01*
X021809Y015936D01*
X021775Y015874D01*
X021744Y015810D01*
X021717Y015745D01*
X021693Y015677D01*
X021674Y015609D01*
X021658Y015540D01*
X021646Y015470D01*
X021638Y015399D01*
X021634Y015328D01*
X021633Y015257D01*
X021637Y015186D01*
X021645Y015116D01*
X021657Y015046D01*
X021673Y014976D01*
X021692Y014908D01*
X021716Y014841D01*
X021743Y014775D01*
X021773Y014711D01*
X021808Y014649D01*
X021845Y014589D01*
X021886Y014531D01*
X021930Y014475D01*
X021978Y014422D01*
X022028Y014372D01*
X022081Y014324D01*
X022136Y014280D01*
X022142Y014287D01*
X022087Y014331D01*
X022034Y014378D01*
X021984Y014428D01*
X021937Y014481D01*
X021893Y014536D01*
X021853Y014594D01*
X021815Y014653D01*
X021781Y014715D01*
X021751Y014779D01*
X021724Y014844D01*
X021701Y014911D01*
X021681Y014979D01*
X021666Y015047D01*
X021654Y015117D01*
X021646Y015187D01*
X021642Y015258D01*
X021643Y015328D01*
X021647Y015399D01*
X021655Y015469D01*
X021667Y015538D01*
X021682Y015607D01*
X021702Y015675D01*
X021725Y015741D01*
X021752Y015806D01*
X021783Y015870D01*
X021817Y015932D01*
X021855Y015991D01*
X021896Y016049D01*
X021940Y016104D01*
X021987Y016157D01*
X022037Y016206D01*
X022089Y016253D01*
X022145Y016297D01*
X022202Y016338D01*
X022262Y016376D01*
X022324Y016410D01*
X022387Y016440D01*
X022452Y016467D01*
X022519Y016491D01*
X022587Y016510D01*
X022656Y016526D01*
X022725Y016538D01*
X022795Y016546D01*
X022866Y016550D01*
X022936Y016550D01*
X023007Y016546D01*
X023077Y016538D01*
X023146Y016526D01*
X023215Y016510D01*
X023283Y016491D01*
X023350Y016467D01*
X023415Y016440D01*
X023478Y016410D01*
X023540Y016376D01*
X023600Y016338D01*
X023657Y016297D01*
X023713Y016253D01*
X023765Y016206D01*
X023815Y016157D01*
X023862Y016104D01*
X023906Y016049D01*
X023947Y015991D01*
X023985Y015932D01*
X024019Y015870D01*
X024050Y015806D01*
X024077Y015741D01*
X024100Y015675D01*
X024120Y015607D01*
X024135Y015538D01*
X024147Y015469D01*
X024155Y015399D01*
X024159Y015328D01*
X024160Y015258D01*
X024156Y015187D01*
X024148Y015117D01*
X024136Y015047D01*
X024121Y014979D01*
X024101Y014911D01*
X024078Y014844D01*
X024051Y014779D01*
X024021Y014715D01*
X023987Y014653D01*
X023949Y014594D01*
X023909Y014536D01*
X023865Y014481D01*
X023818Y014428D01*
X023768Y014378D01*
X023715Y014331D01*
X023660Y014287D01*
X023655Y014294D01*
X023710Y014338D01*
X023762Y014385D01*
X023811Y014434D01*
X023858Y014487D01*
X023901Y014541D01*
X023942Y014599D01*
X023979Y014658D01*
X024013Y014719D01*
X024043Y014783D01*
X024070Y014847D01*
X024093Y014914D01*
X024112Y014981D01*
X024127Y015049D01*
X024139Y015118D01*
X024147Y015188D01*
X024151Y015258D01*
X024150Y015328D01*
X024146Y015398D01*
X024138Y015467D01*
X024127Y015536D01*
X024111Y015605D01*
X024092Y015672D01*
X024068Y015738D01*
X024041Y015803D01*
X024011Y015866D01*
X023977Y015927D01*
X023940Y015986D01*
X023899Y016044D01*
X023855Y016098D01*
X023809Y016150D01*
X023759Y016200D01*
X023707Y016247D01*
X023652Y016290D01*
X023595Y016331D01*
X023536Y016368D01*
X023474Y016402D01*
X023411Y016432D01*
X023346Y016459D01*
X023280Y016482D01*
X023213Y016501D01*
X023145Y016517D01*
X023076Y016529D01*
X023006Y016537D01*
X022936Y016541D01*
X022866Y016541D01*
X022796Y016537D01*
X022726Y016529D01*
X022657Y016517D01*
X022589Y016501D01*
X022522Y016482D01*
X022456Y016459D01*
X022391Y016432D01*
X022328Y016402D01*
X022266Y016368D01*
X022207Y016331D01*
X022150Y016290D01*
X022095Y016247D01*
X022043Y016200D01*
X021993Y016150D01*
X021947Y016098D01*
X021903Y016044D01*
X021862Y015986D01*
X021825Y015927D01*
X021791Y015866D01*
X021761Y015803D01*
X021734Y015738D01*
X021710Y015672D01*
X021691Y015605D01*
X021675Y015536D01*
X021664Y015467D01*
X021656Y015398D01*
X021652Y015328D01*
X021651Y015258D01*
X021655Y015188D01*
X021663Y015118D01*
X021675Y015049D01*
X021690Y014981D01*
X021709Y014914D01*
X021732Y014847D01*
X021759Y014783D01*
X021789Y014719D01*
X021823Y014658D01*
X021860Y014599D01*
X021901Y014541D01*
X021944Y014487D01*
X021991Y014434D01*
X022040Y014385D01*
X022092Y014338D01*
X022147Y014294D01*
X022152Y014301D01*
X022098Y014345D01*
X022046Y014391D01*
X021997Y014440D01*
X021951Y014492D01*
X021908Y014547D01*
X021868Y014604D01*
X021831Y014663D01*
X021797Y014724D01*
X021767Y014786D01*
X021741Y014851D01*
X021718Y014916D01*
X021699Y014983D01*
X021683Y015051D01*
X021672Y015120D01*
X021664Y015189D01*
X021660Y015258D01*
X021661Y015328D01*
X021665Y015397D01*
X021672Y015466D01*
X021684Y015535D01*
X021700Y015602D01*
X021719Y015669D01*
X021742Y015735D01*
X021769Y015799D01*
X021799Y015862D01*
X021833Y015923D01*
X021870Y015981D01*
X021910Y016038D01*
X021953Y016092D01*
X022000Y016144D01*
X022049Y016193D01*
X022101Y016240D01*
X022155Y016283D01*
X022212Y016323D01*
X022271Y016360D01*
X022332Y016394D01*
X022395Y016424D01*
X022459Y016451D01*
X022524Y016474D01*
X022591Y016493D01*
X022659Y016508D01*
X022728Y016520D01*
X022797Y016528D01*
X022866Y016532D01*
X022936Y016532D01*
X023005Y016528D01*
X023074Y016520D01*
X023143Y016508D01*
X023211Y016493D01*
X023278Y016474D01*
X023343Y016451D01*
X023407Y016424D01*
X023470Y016394D01*
X023531Y016360D01*
X023590Y016323D01*
X023647Y016283D01*
X023701Y016240D01*
X023753Y016193D01*
X023802Y016144D01*
X023849Y016092D01*
X023892Y016038D01*
X023932Y015981D01*
X023969Y015923D01*
X024003Y015862D01*
X024033Y015799D01*
X024060Y015735D01*
X024083Y015669D01*
X024102Y015602D01*
X024118Y015535D01*
X024130Y015466D01*
X024137Y015397D01*
X024141Y015328D01*
X024142Y015258D01*
X024138Y015189D01*
X024130Y015120D01*
X024119Y015051D01*
X024103Y014983D01*
X024084Y014916D01*
X024061Y014851D01*
X024035Y014786D01*
X024005Y014724D01*
X023971Y014663D01*
X023934Y014604D01*
X023894Y014547D01*
X023851Y014492D01*
X023805Y014440D01*
X023756Y014391D01*
X023704Y014345D01*
X023650Y014301D01*
X023644Y014308D01*
X023698Y014352D01*
X023749Y014398D01*
X023798Y014447D01*
X023844Y014498D01*
X023887Y014552D01*
X023927Y014609D01*
X023963Y014667D01*
X023997Y014728D01*
X024027Y014790D01*
X024053Y014854D01*
X024075Y014919D01*
X024094Y014985D01*
X024110Y015053D01*
X024121Y015121D01*
X024129Y015189D01*
X024133Y015258D01*
X024132Y015327D01*
X024128Y015396D01*
X024121Y015465D01*
X024109Y015533D01*
X024094Y015600D01*
X024074Y015667D01*
X024051Y015732D01*
X024025Y015795D01*
X023995Y015858D01*
X023962Y015918D01*
X023925Y015976D01*
X023885Y016033D01*
X023842Y016087D01*
X023796Y016138D01*
X023747Y016187D01*
X023695Y016233D01*
X023641Y016276D01*
X023585Y016316D01*
X023526Y016352D01*
X023466Y016386D01*
X023404Y016416D01*
X023340Y016442D01*
X023275Y016465D01*
X023208Y016484D01*
X023141Y016499D01*
X023073Y016511D01*
X023004Y016519D01*
X022936Y016523D01*
X022866Y016523D01*
X022798Y016519D01*
X022729Y016511D01*
X022661Y016499D01*
X022594Y016484D01*
X022527Y016465D01*
X022462Y016442D01*
X022398Y016416D01*
X022336Y016386D01*
X022276Y016352D01*
X022217Y016316D01*
X022161Y016276D01*
X022107Y016233D01*
X022055Y016187D01*
X022006Y016138D01*
X021960Y016087D01*
X021917Y016033D01*
X021877Y015976D01*
X021840Y015918D01*
X021807Y015858D01*
X021777Y015795D01*
X021751Y015732D01*
X021728Y015667D01*
X021708Y015600D01*
X021693Y015533D01*
X021681Y015465D01*
X021674Y015396D01*
X021670Y015327D01*
X021669Y015258D01*
X021673Y015189D01*
X021681Y015121D01*
X021692Y015053D01*
X021708Y014985D01*
X021727Y014919D01*
X021749Y014854D01*
X021775Y014790D01*
X021805Y014728D01*
X021839Y014667D01*
X021875Y014609D01*
X021915Y014552D01*
X021958Y014498D01*
X022004Y014447D01*
X022053Y014398D01*
X022104Y014352D01*
X022158Y014308D01*
X022163Y014316D01*
X022109Y014359D01*
X022058Y014405D01*
X022009Y014455D01*
X021963Y014506D01*
X021920Y014561D01*
X021880Y014618D01*
X021844Y014676D01*
X021810Y014737D01*
X021781Y014800D01*
X021755Y014864D01*
X021733Y014930D01*
X021714Y014997D01*
X021699Y015064D01*
X021688Y015133D01*
X021681Y015202D01*
X021678Y015271D01*
X021679Y015340D01*
X021684Y015410D01*
X021692Y015478D01*
X021705Y015546D01*
X021721Y015614D01*
X021742Y015680D01*
X021765Y015745D01*
X021793Y015809D01*
X021824Y015871D01*
X021859Y015931D01*
X021897Y015989D01*
X021938Y016045D01*
X021982Y016098D01*
X022029Y016149D01*
X022079Y016197D01*
X022132Y016242D01*
X022187Y016284D01*
X022244Y016323D01*
X022304Y016358D01*
X022365Y016390D01*
X022428Y016419D01*
X022493Y016444D01*
X022559Y016465D01*
X022626Y016483D01*
X022694Y016496D01*
X022763Y016506D01*
X022832Y016512D01*
X022901Y016514D01*
X022970Y016512D01*
X023039Y016506D01*
X023108Y016496D01*
X023176Y016483D01*
X023243Y016465D01*
X023309Y016444D01*
X023374Y016419D01*
X023437Y016390D01*
X023498Y016358D01*
X023558Y016323D01*
X023615Y016284D01*
X023670Y016242D01*
X023723Y016197D01*
X023773Y016149D01*
X023820Y016098D01*
X023864Y016045D01*
X023905Y015989D01*
X023943Y015931D01*
X023978Y015871D01*
X024009Y015809D01*
X024037Y015745D01*
X024060Y015680D01*
X024081Y015614D01*
X024097Y015546D01*
X024110Y015478D01*
X024118Y015410D01*
X024123Y015340D01*
X024124Y015271D01*
X024121Y015202D01*
X024114Y015133D01*
X024103Y015064D01*
X024088Y014997D01*
X024069Y014930D01*
X024047Y014864D01*
X024021Y014800D01*
X023992Y014737D01*
X023958Y014676D01*
X023922Y014618D01*
X023882Y014561D01*
X023839Y014506D01*
X023793Y014455D01*
X023744Y014405D01*
X023693Y014359D01*
X023639Y014316D01*
X023633Y014323D01*
X023687Y014366D01*
X023738Y014412D01*
X023787Y014461D01*
X023832Y014512D01*
X023875Y014566D01*
X023914Y014623D01*
X023951Y014681D01*
X023984Y014741D01*
X024013Y014804D01*
X024039Y014867D01*
X024061Y014933D01*
X024079Y014999D01*
X024094Y015066D01*
X024105Y015134D01*
X024112Y015203D01*
X024115Y015271D01*
X024114Y015340D01*
X024109Y015409D01*
X024101Y015477D01*
X024088Y015545D01*
X024072Y015611D01*
X024052Y015677D01*
X024028Y015742D01*
X024001Y015805D01*
X023970Y015866D01*
X023936Y015926D01*
X023898Y015984D01*
X023857Y016039D01*
X023813Y016092D01*
X023766Y016142D01*
X023717Y016190D01*
X023665Y016235D01*
X023610Y016277D01*
X023553Y016315D01*
X023494Y016350D01*
X023433Y016382D01*
X023370Y016411D01*
X023306Y016435D01*
X023240Y016457D01*
X023174Y016474D01*
X023106Y016487D01*
X023038Y016497D01*
X022970Y016503D01*
X022901Y016505D01*
X022832Y016503D01*
X022764Y016497D01*
X022696Y016487D01*
X022628Y016474D01*
X022562Y016457D01*
X022496Y016435D01*
X022432Y016411D01*
X022369Y016382D01*
X022308Y016350D01*
X022249Y016315D01*
X022192Y016277D01*
X022137Y016235D01*
X022085Y016190D01*
X022036Y016142D01*
X021989Y016092D01*
X021945Y016039D01*
X021904Y015984D01*
X021866Y015926D01*
X021832Y015866D01*
X021801Y015805D01*
X021774Y015742D01*
X021750Y015677D01*
X021730Y015611D01*
X021714Y015545D01*
X021701Y015477D01*
X021693Y015409D01*
X021688Y015340D01*
X021687Y015271D01*
X021690Y015203D01*
X021697Y015134D01*
X021708Y015066D01*
X021723Y014999D01*
X021741Y014933D01*
X021763Y014867D01*
X021789Y014804D01*
X021818Y014741D01*
X021851Y014681D01*
X021888Y014623D01*
X021927Y014566D01*
X021970Y014512D01*
X022015Y014461D01*
X022064Y014412D01*
X022115Y014366D01*
X022169Y014323D01*
M02*
