G75*
G70*
%OFA0B0*%
%FSLAX24Y24*%
%IPPOS*%
%LPD*%
%AMOC8*
5,1,8,0,0,1.08239X$1,22.5*
%
%ADD10C,0.0000*%
%ADD11C,0.0480*%
%ADD12C,0.0740*%
%ADD13C,0.0450*%
%ADD14C,0.0480*%
%ADD15C,0.0650*%
%ADD16C,0.0780*%
%ADD17OC8,0.0860*%
%ADD18OC8,0.0660*%
%ADD19C,0.0591*%
%ADD20C,0.0709*%
%ADD21R,0.0650X0.0650*%
%ADD22C,0.0100*%
D10*
X000101Y000191D02*
X000101Y018941D01*
X028851Y018941D01*
X028851Y000191D01*
X000101Y000191D01*
X000726Y001441D02*
X000728Y001491D01*
X000734Y001540D01*
X000744Y001589D01*
X000757Y001636D01*
X000775Y001683D01*
X000796Y001728D01*
X000820Y001771D01*
X000848Y001812D01*
X000879Y001851D01*
X000913Y001887D01*
X000950Y001921D01*
X000990Y001951D01*
X001031Y001978D01*
X001075Y002002D01*
X001120Y002022D01*
X001167Y002038D01*
X001215Y002051D01*
X001264Y002060D01*
X001314Y002065D01*
X001363Y002066D01*
X001413Y002063D01*
X001462Y002056D01*
X001511Y002045D01*
X001558Y002031D01*
X001604Y002012D01*
X001649Y001990D01*
X001692Y001965D01*
X001732Y001936D01*
X001770Y001904D01*
X001806Y001870D01*
X001839Y001832D01*
X001868Y001792D01*
X001894Y001750D01*
X001917Y001706D01*
X001936Y001660D01*
X001952Y001613D01*
X001964Y001564D01*
X001972Y001515D01*
X001976Y001466D01*
X001976Y001416D01*
X001972Y001367D01*
X001964Y001318D01*
X001952Y001269D01*
X001936Y001222D01*
X001917Y001176D01*
X001894Y001132D01*
X001868Y001090D01*
X001839Y001050D01*
X001806Y001012D01*
X001770Y000978D01*
X001732Y000946D01*
X001692Y000917D01*
X001649Y000892D01*
X001604Y000870D01*
X001558Y000851D01*
X001511Y000837D01*
X001462Y000826D01*
X001413Y000819D01*
X001363Y000816D01*
X001314Y000817D01*
X001264Y000822D01*
X001215Y000831D01*
X001167Y000844D01*
X001120Y000860D01*
X001075Y000880D01*
X001031Y000904D01*
X000990Y000931D01*
X000950Y000961D01*
X000913Y000995D01*
X000879Y001031D01*
X000848Y001070D01*
X000820Y001111D01*
X000796Y001154D01*
X000775Y001199D01*
X000757Y001246D01*
X000744Y001293D01*
X000734Y001342D01*
X000728Y001391D01*
X000726Y001441D01*
X000726Y017691D02*
X000728Y017741D01*
X000734Y017790D01*
X000744Y017839D01*
X000757Y017886D01*
X000775Y017933D01*
X000796Y017978D01*
X000820Y018021D01*
X000848Y018062D01*
X000879Y018101D01*
X000913Y018137D01*
X000950Y018171D01*
X000990Y018201D01*
X001031Y018228D01*
X001075Y018252D01*
X001120Y018272D01*
X001167Y018288D01*
X001215Y018301D01*
X001264Y018310D01*
X001314Y018315D01*
X001363Y018316D01*
X001413Y018313D01*
X001462Y018306D01*
X001511Y018295D01*
X001558Y018281D01*
X001604Y018262D01*
X001649Y018240D01*
X001692Y018215D01*
X001732Y018186D01*
X001770Y018154D01*
X001806Y018120D01*
X001839Y018082D01*
X001868Y018042D01*
X001894Y018000D01*
X001917Y017956D01*
X001936Y017910D01*
X001952Y017863D01*
X001964Y017814D01*
X001972Y017765D01*
X001976Y017716D01*
X001976Y017666D01*
X001972Y017617D01*
X001964Y017568D01*
X001952Y017519D01*
X001936Y017472D01*
X001917Y017426D01*
X001894Y017382D01*
X001868Y017340D01*
X001839Y017300D01*
X001806Y017262D01*
X001770Y017228D01*
X001732Y017196D01*
X001692Y017167D01*
X001649Y017142D01*
X001604Y017120D01*
X001558Y017101D01*
X001511Y017087D01*
X001462Y017076D01*
X001413Y017069D01*
X001363Y017066D01*
X001314Y017067D01*
X001264Y017072D01*
X001215Y017081D01*
X001167Y017094D01*
X001120Y017110D01*
X001075Y017130D01*
X001031Y017154D01*
X000990Y017181D01*
X000950Y017211D01*
X000913Y017245D01*
X000879Y017281D01*
X000848Y017320D01*
X000820Y017361D01*
X000796Y017404D01*
X000775Y017449D01*
X000757Y017496D01*
X000744Y017543D01*
X000734Y017592D01*
X000728Y017641D01*
X000726Y017691D01*
X026976Y017691D02*
X026978Y017741D01*
X026984Y017790D01*
X026994Y017839D01*
X027007Y017886D01*
X027025Y017933D01*
X027046Y017978D01*
X027070Y018021D01*
X027098Y018062D01*
X027129Y018101D01*
X027163Y018137D01*
X027200Y018171D01*
X027240Y018201D01*
X027281Y018228D01*
X027325Y018252D01*
X027370Y018272D01*
X027417Y018288D01*
X027465Y018301D01*
X027514Y018310D01*
X027564Y018315D01*
X027613Y018316D01*
X027663Y018313D01*
X027712Y018306D01*
X027761Y018295D01*
X027808Y018281D01*
X027854Y018262D01*
X027899Y018240D01*
X027942Y018215D01*
X027982Y018186D01*
X028020Y018154D01*
X028056Y018120D01*
X028089Y018082D01*
X028118Y018042D01*
X028144Y018000D01*
X028167Y017956D01*
X028186Y017910D01*
X028202Y017863D01*
X028214Y017814D01*
X028222Y017765D01*
X028226Y017716D01*
X028226Y017666D01*
X028222Y017617D01*
X028214Y017568D01*
X028202Y017519D01*
X028186Y017472D01*
X028167Y017426D01*
X028144Y017382D01*
X028118Y017340D01*
X028089Y017300D01*
X028056Y017262D01*
X028020Y017228D01*
X027982Y017196D01*
X027942Y017167D01*
X027899Y017142D01*
X027854Y017120D01*
X027808Y017101D01*
X027761Y017087D01*
X027712Y017076D01*
X027663Y017069D01*
X027613Y017066D01*
X027564Y017067D01*
X027514Y017072D01*
X027465Y017081D01*
X027417Y017094D01*
X027370Y017110D01*
X027325Y017130D01*
X027281Y017154D01*
X027240Y017181D01*
X027200Y017211D01*
X027163Y017245D01*
X027129Y017281D01*
X027098Y017320D01*
X027070Y017361D01*
X027046Y017404D01*
X027025Y017449D01*
X027007Y017496D01*
X026994Y017543D01*
X026984Y017592D01*
X026978Y017641D01*
X026976Y017691D01*
X026976Y001441D02*
X026978Y001491D01*
X026984Y001540D01*
X026994Y001589D01*
X027007Y001636D01*
X027025Y001683D01*
X027046Y001728D01*
X027070Y001771D01*
X027098Y001812D01*
X027129Y001851D01*
X027163Y001887D01*
X027200Y001921D01*
X027240Y001951D01*
X027281Y001978D01*
X027325Y002002D01*
X027370Y002022D01*
X027417Y002038D01*
X027465Y002051D01*
X027514Y002060D01*
X027564Y002065D01*
X027613Y002066D01*
X027663Y002063D01*
X027712Y002056D01*
X027761Y002045D01*
X027808Y002031D01*
X027854Y002012D01*
X027899Y001990D01*
X027942Y001965D01*
X027982Y001936D01*
X028020Y001904D01*
X028056Y001870D01*
X028089Y001832D01*
X028118Y001792D01*
X028144Y001750D01*
X028167Y001706D01*
X028186Y001660D01*
X028202Y001613D01*
X028214Y001564D01*
X028222Y001515D01*
X028226Y001466D01*
X028226Y001416D01*
X028222Y001367D01*
X028214Y001318D01*
X028202Y001269D01*
X028186Y001222D01*
X028167Y001176D01*
X028144Y001132D01*
X028118Y001090D01*
X028089Y001050D01*
X028056Y001012D01*
X028020Y000978D01*
X027982Y000946D01*
X027942Y000917D01*
X027899Y000892D01*
X027854Y000870D01*
X027808Y000851D01*
X027761Y000837D01*
X027712Y000826D01*
X027663Y000819D01*
X027613Y000816D01*
X027564Y000817D01*
X027514Y000822D01*
X027465Y000831D01*
X027417Y000844D01*
X027370Y000860D01*
X027325Y000880D01*
X027281Y000904D01*
X027240Y000931D01*
X027200Y000961D01*
X027163Y000995D01*
X027129Y001031D01*
X027098Y001070D01*
X027070Y001111D01*
X027046Y001154D01*
X027025Y001199D01*
X027007Y001246D01*
X026994Y001293D01*
X026984Y001342D01*
X026978Y001391D01*
X026976Y001441D01*
D11*
X027101Y007851D02*
X027101Y008331D01*
X026101Y008331D02*
X026101Y007851D01*
X025101Y007851D02*
X025101Y008331D01*
X024101Y008331D02*
X024101Y007851D01*
X023101Y007851D02*
X023101Y008331D01*
X022101Y008331D02*
X022101Y007851D01*
X021101Y007851D02*
X021101Y008331D01*
X020101Y008331D02*
X020101Y007851D01*
X019101Y007851D02*
X019101Y008331D01*
X018101Y008331D02*
X018101Y007851D01*
X017101Y007851D02*
X017101Y008331D01*
X016101Y008331D02*
X016101Y007851D01*
X015101Y007851D02*
X015101Y008331D01*
X014101Y008331D02*
X014101Y007851D01*
X014101Y010851D02*
X014101Y011331D01*
X015101Y011331D02*
X015101Y010851D01*
X016101Y010851D02*
X016101Y011331D01*
X017101Y011331D02*
X017101Y010851D01*
X018101Y010851D02*
X018101Y011331D01*
X019101Y011331D02*
X019101Y010851D01*
X020101Y010851D02*
X020101Y011331D01*
X021101Y011331D02*
X021101Y010851D01*
X022101Y010851D02*
X022101Y011331D01*
X023101Y011331D02*
X023101Y010851D01*
X024101Y010851D02*
X024101Y011331D01*
X025101Y011331D02*
X025101Y010851D01*
X026101Y010851D02*
X026101Y011331D01*
X027101Y011331D02*
X027101Y010851D01*
D12*
X018491Y014111D03*
X016711Y014111D03*
X016711Y016671D03*
X018491Y016671D03*
X012241Y010871D03*
X010461Y010871D03*
X010461Y008311D03*
X012241Y008311D03*
X024301Y002591D03*
X025301Y002591D03*
D13*
X012001Y005207D03*
X012001Y007176D03*
X016617Y012791D03*
X018585Y012791D03*
X024217Y013491D03*
X026185Y013491D03*
D14*
X023351Y005591D03*
X021451Y005591D03*
D15*
X025701Y005291D03*
X025701Y006291D03*
X027401Y006291D03*
X027401Y005291D03*
X011101Y003791D03*
D16*
X007983Y004941D02*
X007203Y004941D01*
X007203Y014191D02*
X007983Y014191D01*
D17*
X008514Y012191D03*
X007554Y011191D03*
X003632Y012191D03*
X003632Y013191D03*
X003632Y015191D03*
X003632Y016191D03*
X007554Y017152D03*
X008514Y016191D03*
X007554Y007902D03*
X008514Y006941D03*
X003632Y006941D03*
X003632Y005941D03*
X003632Y003941D03*
X003632Y002941D03*
X007554Y001941D03*
X008514Y002941D03*
D18*
X022901Y014791D03*
X022901Y015791D03*
D19*
X015201Y002691D03*
X014201Y002691D03*
D20*
X019201Y002691D03*
X021201Y002691D03*
D21*
X011101Y002791D03*
D22*
X011101Y002691D01*
X011601Y003191D01*
X011601Y004691D01*
X012101Y005191D01*
X012001Y005207D01*
X011101Y003791D02*
X011101Y003691D01*
X011101Y003791D02*
X011101Y007691D01*
X010601Y008191D01*
X010461Y008311D01*
X012101Y008191D02*
X012241Y008311D01*
X012601Y008191D01*
X014101Y008191D01*
X014101Y008091D01*
X015101Y008091D02*
X015101Y008191D01*
X013101Y010191D01*
X013101Y011691D01*
X008601Y016191D01*
X008514Y016191D01*
X007601Y015691D02*
X009101Y014191D01*
X009101Y005191D01*
X007601Y006691D01*
X007601Y007691D01*
X007554Y007902D01*
X006601Y007191D02*
X008601Y005191D01*
X008601Y003191D01*
X008514Y002941D01*
X009101Y002191D02*
X009101Y005191D01*
X006601Y007191D02*
X006601Y012191D01*
X008514Y012191D01*
X007601Y015691D02*
X007601Y017191D01*
X007554Y017152D01*
X018491Y014111D02*
X018601Y014191D01*
X018601Y013691D01*
X021101Y011191D01*
X021101Y011091D01*
X021601Y010691D02*
X020101Y009191D01*
X020101Y011091D01*
X021601Y010691D02*
X021601Y013691D01*
X022601Y014691D01*
X022901Y014791D01*
X024601Y012191D02*
X026101Y013691D01*
X026185Y013491D01*
X024601Y012191D02*
X023101Y012191D01*
X023101Y011091D01*
X021101Y008191D02*
X020101Y009191D01*
X021101Y008191D02*
X021101Y008091D01*
X022101Y008091D02*
X022101Y006191D01*
X021601Y005691D01*
X021451Y005591D01*
X023101Y005691D02*
X023101Y008091D01*
X026101Y008091D02*
X026101Y007691D01*
X021601Y003191D01*
X015101Y003191D01*
X015101Y002691D01*
X015201Y002691D01*
X019601Y002191D02*
X009101Y002191D01*
X012001Y007176D02*
X012101Y007191D01*
X012101Y008191D01*
X019601Y002191D02*
X020101Y002691D01*
X021201Y002691D01*
X023101Y005691D02*
X023351Y005591D01*
X025601Y005191D02*
X025701Y005291D01*
X025601Y005191D02*
X027101Y005191D01*
X027401Y005291D01*
M02*
