G75*
G70*
%OFA0B0*%
%FSLAX24Y24*%
%IPPOS*%
%LPD*%
%AMOC8*
5,1,8,0,0,1.08239X$1,22.5*
%
%ADD10C,0.1330*%
%ADD11C,0.0560*%
%ADD12C,0.0820*%
%ADD13C,0.0530*%
%ADD14C,0.0560*%
%ADD15C,0.0730*%
%ADD16C,0.0860*%
%ADD17OC8,0.0940*%
%ADD18OC8,0.0740*%
%ADD19C,0.0671*%
%ADD20C,0.0789*%
%ADD21R,0.0730X0.0730*%
D10*
X001351Y001351D03*
X001351Y017601D03*
X027601Y017601D03*
X027601Y001351D03*
D11*
X027101Y007761D02*
X027101Y008241D01*
X026101Y008241D02*
X026101Y007761D01*
X025101Y007761D02*
X025101Y008241D01*
X024101Y008241D02*
X024101Y007761D01*
X023101Y007761D02*
X023101Y008241D01*
X022101Y008241D02*
X022101Y007761D01*
X021101Y007761D02*
X021101Y008241D01*
X020101Y008241D02*
X020101Y007761D01*
X019101Y007761D02*
X019101Y008241D01*
X018101Y008241D02*
X018101Y007761D01*
X017101Y007761D02*
X017101Y008241D01*
X016101Y008241D02*
X016101Y007761D01*
X015101Y007761D02*
X015101Y008241D01*
X014101Y008241D02*
X014101Y007761D01*
X014101Y010761D02*
X014101Y011241D01*
X015101Y011241D02*
X015101Y010761D01*
X016101Y010761D02*
X016101Y011241D01*
X017101Y011241D02*
X017101Y010761D01*
X018101Y010761D02*
X018101Y011241D01*
X019101Y011241D02*
X019101Y010761D01*
X020101Y010761D02*
X020101Y011241D01*
X021101Y011241D02*
X021101Y010761D01*
X022101Y010761D02*
X022101Y011241D01*
X023101Y011241D02*
X023101Y010761D01*
X024101Y010761D02*
X024101Y011241D01*
X025101Y011241D02*
X025101Y010761D01*
X026101Y010761D02*
X026101Y011241D01*
X027101Y011241D02*
X027101Y010761D01*
D12*
X018491Y014021D03*
X016711Y014021D03*
X016711Y016581D03*
X018491Y016581D03*
X012241Y010781D03*
X010461Y010781D03*
X010461Y008221D03*
X012241Y008221D03*
X024301Y002501D03*
X025301Y002501D03*
D13*
X012001Y005117D03*
X012001Y007085D03*
X016617Y012701D03*
X018585Y012701D03*
X024217Y013401D03*
X026185Y013401D03*
D14*
X023351Y005501D03*
X021451Y005501D03*
D15*
X025701Y005201D03*
X025701Y006201D03*
X027401Y006201D03*
X027401Y005201D03*
X011101Y003701D03*
D16*
X007983Y004851D02*
X007203Y004851D01*
X007203Y014101D02*
X007983Y014101D01*
D17*
X008514Y016101D03*
X007554Y017061D03*
X003632Y016101D03*
X003632Y015101D03*
X003632Y013101D03*
X003632Y012101D03*
X007554Y011101D03*
X008514Y012101D03*
X007554Y007811D03*
X008514Y006851D03*
X003632Y006851D03*
X003632Y005851D03*
X003632Y003851D03*
X003632Y002851D03*
X007554Y001851D03*
X008514Y002851D03*
D18*
X022901Y014701D03*
X022901Y015701D03*
D19*
X015201Y002601D03*
X014201Y002601D03*
D20*
X019201Y002601D03*
X021201Y002601D03*
D21*
X011101Y002701D03*
M02*
