%
M48
M72
T01C0.0276
T02C0.0300
T03C0.0320
T04C0.0394
T05C0.0400
T06C0.0472
T07C0.0520
T08C0.1250
%
T01
X11101Y2701
X11101Y3701
X25701Y5201
X25701Y6201
X27401Y6201
X27401Y5201
T02
X18585Y12701
X16617Y12701
X24217Y13401
X26185Y13401
X12001Y7085
X12001Y5117
T03
X14101Y8001
X15101Y8001
X16101Y8001
X17101Y8001
X18101Y8001
X19101Y8001
X20101Y8001
X21101Y8001
X22101Y8001
X23101Y8001
X24101Y8001
X25101Y8001
X26101Y8001
X27101Y8001
X23351Y5501
X21451Y5501
X21101Y11001
X20101Y11001
X19101Y11001
X18101Y11001
X17101Y11001
X16101Y11001
X15101Y11001
X14101Y11001
X22101Y11001
X23101Y11001
X24101Y11001
X25101Y11001
X26101Y11001
X27101Y11001
X22901Y14701
X22901Y15701
T04
X15201Y2601
X14201Y2601
T05
X12241Y8221
X10461Y8221
X10461Y10781
X12241Y10781
X16711Y14021
X18491Y14021
X18491Y16581
X16711Y16581
X24301Y2501
X25301Y2501
T06
X21201Y2601
X19201Y2601
T07
X8514Y2851
X7554Y1851
X3632Y2851
X3632Y3851
X3632Y5851
X3632Y6851
X7554Y7811
X8514Y6851
X7593Y4851
X7554Y11101
X8514Y12101
X7593Y14101
X8514Y16101
X7554Y17061
X3632Y16101
X3632Y15101
X3632Y13101
X3632Y12101
T08
X1351Y1351
X1351Y17601
X27601Y17601
X27601Y1351
M30
