G75*
G70*
%OFA0B0*%
%FSLAX24Y24*%
%IPPOS*%
%LPD*%
%AMOC8*
5,1,8,0,0,1.08239X$1,22.5*
%
%ADD10C,0.0000*%
D10*
X000101Y000101D02*
X000101Y018851D01*
X028851Y018851D01*
X028851Y000101D01*
X000101Y000101D01*
X000726Y001351D02*
X000728Y001401D01*
X000734Y001450D01*
X000744Y001499D01*
X000757Y001546D01*
X000775Y001593D01*
X000796Y001638D01*
X000820Y001681D01*
X000848Y001722D01*
X000879Y001761D01*
X000913Y001797D01*
X000950Y001831D01*
X000990Y001861D01*
X001031Y001888D01*
X001075Y001912D01*
X001120Y001932D01*
X001167Y001948D01*
X001215Y001961D01*
X001264Y001970D01*
X001314Y001975D01*
X001363Y001976D01*
X001413Y001973D01*
X001462Y001966D01*
X001511Y001955D01*
X001558Y001941D01*
X001604Y001922D01*
X001649Y001900D01*
X001692Y001875D01*
X001732Y001846D01*
X001770Y001814D01*
X001806Y001780D01*
X001839Y001742D01*
X001868Y001702D01*
X001894Y001660D01*
X001917Y001616D01*
X001936Y001570D01*
X001952Y001523D01*
X001964Y001474D01*
X001972Y001425D01*
X001976Y001376D01*
X001976Y001326D01*
X001972Y001277D01*
X001964Y001228D01*
X001952Y001179D01*
X001936Y001132D01*
X001917Y001086D01*
X001894Y001042D01*
X001868Y001000D01*
X001839Y000960D01*
X001806Y000922D01*
X001770Y000888D01*
X001732Y000856D01*
X001692Y000827D01*
X001649Y000802D01*
X001604Y000780D01*
X001558Y000761D01*
X001511Y000747D01*
X001462Y000736D01*
X001413Y000729D01*
X001363Y000726D01*
X001314Y000727D01*
X001264Y000732D01*
X001215Y000741D01*
X001167Y000754D01*
X001120Y000770D01*
X001075Y000790D01*
X001031Y000814D01*
X000990Y000841D01*
X000950Y000871D01*
X000913Y000905D01*
X000879Y000941D01*
X000848Y000980D01*
X000820Y001021D01*
X000796Y001064D01*
X000775Y001109D01*
X000757Y001156D01*
X000744Y001203D01*
X000734Y001252D01*
X000728Y001301D01*
X000726Y001351D01*
X000726Y017601D02*
X000728Y017651D01*
X000734Y017700D01*
X000744Y017749D01*
X000757Y017796D01*
X000775Y017843D01*
X000796Y017888D01*
X000820Y017931D01*
X000848Y017972D01*
X000879Y018011D01*
X000913Y018047D01*
X000950Y018081D01*
X000990Y018111D01*
X001031Y018138D01*
X001075Y018162D01*
X001120Y018182D01*
X001167Y018198D01*
X001215Y018211D01*
X001264Y018220D01*
X001314Y018225D01*
X001363Y018226D01*
X001413Y018223D01*
X001462Y018216D01*
X001511Y018205D01*
X001558Y018191D01*
X001604Y018172D01*
X001649Y018150D01*
X001692Y018125D01*
X001732Y018096D01*
X001770Y018064D01*
X001806Y018030D01*
X001839Y017992D01*
X001868Y017952D01*
X001894Y017910D01*
X001917Y017866D01*
X001936Y017820D01*
X001952Y017773D01*
X001964Y017724D01*
X001972Y017675D01*
X001976Y017626D01*
X001976Y017576D01*
X001972Y017527D01*
X001964Y017478D01*
X001952Y017429D01*
X001936Y017382D01*
X001917Y017336D01*
X001894Y017292D01*
X001868Y017250D01*
X001839Y017210D01*
X001806Y017172D01*
X001770Y017138D01*
X001732Y017106D01*
X001692Y017077D01*
X001649Y017052D01*
X001604Y017030D01*
X001558Y017011D01*
X001511Y016997D01*
X001462Y016986D01*
X001413Y016979D01*
X001363Y016976D01*
X001314Y016977D01*
X001264Y016982D01*
X001215Y016991D01*
X001167Y017004D01*
X001120Y017020D01*
X001075Y017040D01*
X001031Y017064D01*
X000990Y017091D01*
X000950Y017121D01*
X000913Y017155D01*
X000879Y017191D01*
X000848Y017230D01*
X000820Y017271D01*
X000796Y017314D01*
X000775Y017359D01*
X000757Y017406D01*
X000744Y017453D01*
X000734Y017502D01*
X000728Y017551D01*
X000726Y017601D01*
X026976Y017601D02*
X026978Y017651D01*
X026984Y017700D01*
X026994Y017749D01*
X027007Y017796D01*
X027025Y017843D01*
X027046Y017888D01*
X027070Y017931D01*
X027098Y017972D01*
X027129Y018011D01*
X027163Y018047D01*
X027200Y018081D01*
X027240Y018111D01*
X027281Y018138D01*
X027325Y018162D01*
X027370Y018182D01*
X027417Y018198D01*
X027465Y018211D01*
X027514Y018220D01*
X027564Y018225D01*
X027613Y018226D01*
X027663Y018223D01*
X027712Y018216D01*
X027761Y018205D01*
X027808Y018191D01*
X027854Y018172D01*
X027899Y018150D01*
X027942Y018125D01*
X027982Y018096D01*
X028020Y018064D01*
X028056Y018030D01*
X028089Y017992D01*
X028118Y017952D01*
X028144Y017910D01*
X028167Y017866D01*
X028186Y017820D01*
X028202Y017773D01*
X028214Y017724D01*
X028222Y017675D01*
X028226Y017626D01*
X028226Y017576D01*
X028222Y017527D01*
X028214Y017478D01*
X028202Y017429D01*
X028186Y017382D01*
X028167Y017336D01*
X028144Y017292D01*
X028118Y017250D01*
X028089Y017210D01*
X028056Y017172D01*
X028020Y017138D01*
X027982Y017106D01*
X027942Y017077D01*
X027899Y017052D01*
X027854Y017030D01*
X027808Y017011D01*
X027761Y016997D01*
X027712Y016986D01*
X027663Y016979D01*
X027613Y016976D01*
X027564Y016977D01*
X027514Y016982D01*
X027465Y016991D01*
X027417Y017004D01*
X027370Y017020D01*
X027325Y017040D01*
X027281Y017064D01*
X027240Y017091D01*
X027200Y017121D01*
X027163Y017155D01*
X027129Y017191D01*
X027098Y017230D01*
X027070Y017271D01*
X027046Y017314D01*
X027025Y017359D01*
X027007Y017406D01*
X026994Y017453D01*
X026984Y017502D01*
X026978Y017551D01*
X026976Y017601D01*
X026976Y001351D02*
X026978Y001401D01*
X026984Y001450D01*
X026994Y001499D01*
X027007Y001546D01*
X027025Y001593D01*
X027046Y001638D01*
X027070Y001681D01*
X027098Y001722D01*
X027129Y001761D01*
X027163Y001797D01*
X027200Y001831D01*
X027240Y001861D01*
X027281Y001888D01*
X027325Y001912D01*
X027370Y001932D01*
X027417Y001948D01*
X027465Y001961D01*
X027514Y001970D01*
X027564Y001975D01*
X027613Y001976D01*
X027663Y001973D01*
X027712Y001966D01*
X027761Y001955D01*
X027808Y001941D01*
X027854Y001922D01*
X027899Y001900D01*
X027942Y001875D01*
X027982Y001846D01*
X028020Y001814D01*
X028056Y001780D01*
X028089Y001742D01*
X028118Y001702D01*
X028144Y001660D01*
X028167Y001616D01*
X028186Y001570D01*
X028202Y001523D01*
X028214Y001474D01*
X028222Y001425D01*
X028226Y001376D01*
X028226Y001326D01*
X028222Y001277D01*
X028214Y001228D01*
X028202Y001179D01*
X028186Y001132D01*
X028167Y001086D01*
X028144Y001042D01*
X028118Y001000D01*
X028089Y000960D01*
X028056Y000922D01*
X028020Y000888D01*
X027982Y000856D01*
X027942Y000827D01*
X027899Y000802D01*
X027854Y000780D01*
X027808Y000761D01*
X027761Y000747D01*
X027712Y000736D01*
X027663Y000729D01*
X027613Y000726D01*
X027564Y000727D01*
X027514Y000732D01*
X027465Y000741D01*
X027417Y000754D01*
X027370Y000770D01*
X027325Y000790D01*
X027281Y000814D01*
X027240Y000841D01*
X027200Y000871D01*
X027163Y000905D01*
X027129Y000941D01*
X027098Y000980D01*
X027070Y001021D01*
X027046Y001064D01*
X027025Y001109D01*
X027007Y001156D01*
X026994Y001203D01*
X026984Y001252D01*
X026978Y001301D01*
X026976Y001351D01*
M02*
