G75*
G70*
%OFA0B0*%
%FSLAX24Y24*%
%IPPOS*%
%LPD*%
%AMOC8*
5,1,8,0,0,1.08239X$1,22.5*
%
%ADD10C,0.0000*%
%ADD11C,0.0070*%
%ADD12C,0.0080*%
%ADD13C,0.0060*%
%ADD14C,0.0050*%
%ADD15C,0.0020*%
%ADD16C,0.0160*%
%ADD17C,0.0010*%
%ADD18C,0.0040*%
%ADD19R,0.0040X0.0010*%
%ADD20R,0.0050X0.0010*%
%ADD21R,0.0060X0.0010*%
%ADD22R,0.0150X0.0010*%
%ADD23R,0.0430X0.0010*%
%ADD24R,0.0020X0.0010*%
%ADD25R,0.0450X0.0010*%
%ADD26R,0.0580X0.0010*%
%ADD27R,0.0650X0.0010*%
%ADD28R,0.0010X0.0010*%
%ADD29R,0.0670X0.0010*%
%ADD30R,0.0770X0.0010*%
%ADD31R,0.0820X0.0010*%
%ADD32R,0.0870X0.0010*%
%ADD33R,0.0910X0.0010*%
%ADD34R,0.0950X0.0010*%
%ADD35R,0.0990X0.0010*%
%ADD36R,0.1030X0.0010*%
%ADD37R,0.1070X0.0010*%
%ADD38R,0.1100X0.0010*%
%ADD39R,0.1130X0.0010*%
%ADD40R,0.1170X0.0010*%
%ADD41R,0.1180X0.0010*%
%ADD42R,0.1230X0.0010*%
%ADD43R,0.1250X0.0010*%
%ADD44R,0.1290X0.0010*%
%ADD45R,0.1310X0.0010*%
%ADD46R,0.1330X0.0010*%
%ADD47R,0.1360X0.0010*%
%ADD48R,0.1380X0.0010*%
%ADD49R,0.1410X0.0010*%
%ADD50R,0.1430X0.0010*%
%ADD51R,0.1450X0.0010*%
%ADD52R,0.1460X0.0010*%
%ADD53R,0.1480X0.0010*%
%ADD54R,0.0090X0.0010*%
%ADD55R,0.0080X0.0010*%
%ADD56R,0.0610X0.0010*%
%ADD57R,0.0030X0.0010*%
%ADD58R,0.0560X0.0010*%
%ADD59R,0.0540X0.0010*%
%ADD60R,0.0550X0.0010*%
%ADD61R,0.0530X0.0010*%
%ADD62R,0.0510X0.0010*%
%ADD63R,0.0520X0.0010*%
%ADD64R,0.0490X0.0010*%
%ADD65R,0.0480X0.0010*%
%ADD66R,0.0460X0.0010*%
%ADD67R,0.0470X0.0010*%
%ADD68R,0.0400X0.0010*%
%ADD69R,0.0500X0.0010*%
%ADD70R,0.0410X0.0010*%
%ADD71R,0.0380X0.0010*%
%ADD72R,0.0600X0.0010*%
%ADD73R,0.0390X0.0010*%
%ADD74R,0.0630X0.0010*%
%ADD75R,0.0640X0.0010*%
%ADD76R,0.0660X0.0010*%
%ADD77R,0.0360X0.0010*%
%ADD78R,0.0690X0.0010*%
%ADD79R,0.0370X0.0010*%
%ADD80R,0.0700X0.0010*%
%ADD81R,0.0720X0.0010*%
%ADD82R,0.0350X0.0010*%
%ADD83R,0.0730X0.0010*%
%ADD84R,0.0750X0.0010*%
%ADD85R,0.0760X0.0010*%
%ADD86R,0.0420X0.0010*%
%ADD87R,0.0340X0.0010*%
%ADD88R,0.0330X0.0010*%
%ADD89R,0.0320X0.0010*%
%ADD90R,0.0310X0.0010*%
%ADD91R,0.0130X0.0010*%
%ADD92R,0.0160X0.0010*%
%ADD93R,0.0110X0.0010*%
%ADD94R,0.0570X0.0010*%
%ADD95R,0.0620X0.0010*%
%ADD96R,0.0240X0.0010*%
%ADD97R,0.0300X0.0010*%
%ADD98R,0.0070X0.0010*%
%ADD99R,0.0210X0.0010*%
%ADD100R,0.0250X0.0010*%
%ADD101R,0.0100X0.0010*%
%ADD102R,0.0200X0.0010*%
%ADD103R,0.0260X0.0010*%
%ADD104R,0.0440X0.0010*%
%ADD105R,0.0220X0.0010*%
%ADD106R,0.0680X0.0010*%
%ADD107R,0.0780X0.0010*%
%ADD108R,0.0740X0.0010*%
%ADD109R,0.0710X0.0010*%
%ADD110R,0.1490X0.0010*%
%ADD111R,0.1470X0.0010*%
%ADD112R,0.1440X0.0010*%
%ADD113R,0.1420X0.0010*%
%ADD114R,0.1370X0.0010*%
%ADD115R,0.1340X0.0010*%
%ADD116R,0.1270X0.0010*%
%ADD117R,0.1210X0.0010*%
%ADD118R,0.1190X0.0010*%
%ADD119R,0.1140X0.0010*%
%ADD120R,0.1120X0.0010*%
%ADD121R,0.1090X0.0010*%
%ADD122R,0.1050X0.0010*%
%ADD123R,0.1010X0.0010*%
%ADD124R,0.0970X0.0010*%
%ADD125R,0.0940X0.0010*%
%ADD126R,0.0890X0.0010*%
%ADD127R,0.0850X0.0010*%
%ADD128R,0.0170X0.0010*%
D10*
X000101Y000101D02*
X000101Y018851D01*
X028851Y018851D01*
X028851Y000101D01*
X000101Y000101D01*
X000726Y001351D02*
X000728Y001401D01*
X000734Y001450D01*
X000744Y001499D01*
X000757Y001546D01*
X000775Y001593D01*
X000796Y001638D01*
X000820Y001681D01*
X000848Y001722D01*
X000879Y001761D01*
X000913Y001797D01*
X000950Y001831D01*
X000990Y001861D01*
X001031Y001888D01*
X001075Y001912D01*
X001120Y001932D01*
X001167Y001948D01*
X001215Y001961D01*
X001264Y001970D01*
X001314Y001975D01*
X001363Y001976D01*
X001413Y001973D01*
X001462Y001966D01*
X001511Y001955D01*
X001558Y001941D01*
X001604Y001922D01*
X001649Y001900D01*
X001692Y001875D01*
X001732Y001846D01*
X001770Y001814D01*
X001806Y001780D01*
X001839Y001742D01*
X001868Y001702D01*
X001894Y001660D01*
X001917Y001616D01*
X001936Y001570D01*
X001952Y001523D01*
X001964Y001474D01*
X001972Y001425D01*
X001976Y001376D01*
X001976Y001326D01*
X001972Y001277D01*
X001964Y001228D01*
X001952Y001179D01*
X001936Y001132D01*
X001917Y001086D01*
X001894Y001042D01*
X001868Y001000D01*
X001839Y000960D01*
X001806Y000922D01*
X001770Y000888D01*
X001732Y000856D01*
X001692Y000827D01*
X001649Y000802D01*
X001604Y000780D01*
X001558Y000761D01*
X001511Y000747D01*
X001462Y000736D01*
X001413Y000729D01*
X001363Y000726D01*
X001314Y000727D01*
X001264Y000732D01*
X001215Y000741D01*
X001167Y000754D01*
X001120Y000770D01*
X001075Y000790D01*
X001031Y000814D01*
X000990Y000841D01*
X000950Y000871D01*
X000913Y000905D01*
X000879Y000941D01*
X000848Y000980D01*
X000820Y001021D01*
X000796Y001064D01*
X000775Y001109D01*
X000757Y001156D01*
X000744Y001203D01*
X000734Y001252D01*
X000728Y001301D01*
X000726Y001351D01*
X000726Y017601D02*
X000728Y017651D01*
X000734Y017700D01*
X000744Y017749D01*
X000757Y017796D01*
X000775Y017843D01*
X000796Y017888D01*
X000820Y017931D01*
X000848Y017972D01*
X000879Y018011D01*
X000913Y018047D01*
X000950Y018081D01*
X000990Y018111D01*
X001031Y018138D01*
X001075Y018162D01*
X001120Y018182D01*
X001167Y018198D01*
X001215Y018211D01*
X001264Y018220D01*
X001314Y018225D01*
X001363Y018226D01*
X001413Y018223D01*
X001462Y018216D01*
X001511Y018205D01*
X001558Y018191D01*
X001604Y018172D01*
X001649Y018150D01*
X001692Y018125D01*
X001732Y018096D01*
X001770Y018064D01*
X001806Y018030D01*
X001839Y017992D01*
X001868Y017952D01*
X001894Y017910D01*
X001917Y017866D01*
X001936Y017820D01*
X001952Y017773D01*
X001964Y017724D01*
X001972Y017675D01*
X001976Y017626D01*
X001976Y017576D01*
X001972Y017527D01*
X001964Y017478D01*
X001952Y017429D01*
X001936Y017382D01*
X001917Y017336D01*
X001894Y017292D01*
X001868Y017250D01*
X001839Y017210D01*
X001806Y017172D01*
X001770Y017138D01*
X001732Y017106D01*
X001692Y017077D01*
X001649Y017052D01*
X001604Y017030D01*
X001558Y017011D01*
X001511Y016997D01*
X001462Y016986D01*
X001413Y016979D01*
X001363Y016976D01*
X001314Y016977D01*
X001264Y016982D01*
X001215Y016991D01*
X001167Y017004D01*
X001120Y017020D01*
X001075Y017040D01*
X001031Y017064D01*
X000990Y017091D01*
X000950Y017121D01*
X000913Y017155D01*
X000879Y017191D01*
X000848Y017230D01*
X000820Y017271D01*
X000796Y017314D01*
X000775Y017359D01*
X000757Y017406D01*
X000744Y017453D01*
X000734Y017502D01*
X000728Y017551D01*
X000726Y017601D01*
X026976Y017601D02*
X026978Y017651D01*
X026984Y017700D01*
X026994Y017749D01*
X027007Y017796D01*
X027025Y017843D01*
X027046Y017888D01*
X027070Y017931D01*
X027098Y017972D01*
X027129Y018011D01*
X027163Y018047D01*
X027200Y018081D01*
X027240Y018111D01*
X027281Y018138D01*
X027325Y018162D01*
X027370Y018182D01*
X027417Y018198D01*
X027465Y018211D01*
X027514Y018220D01*
X027564Y018225D01*
X027613Y018226D01*
X027663Y018223D01*
X027712Y018216D01*
X027761Y018205D01*
X027808Y018191D01*
X027854Y018172D01*
X027899Y018150D01*
X027942Y018125D01*
X027982Y018096D01*
X028020Y018064D01*
X028056Y018030D01*
X028089Y017992D01*
X028118Y017952D01*
X028144Y017910D01*
X028167Y017866D01*
X028186Y017820D01*
X028202Y017773D01*
X028214Y017724D01*
X028222Y017675D01*
X028226Y017626D01*
X028226Y017576D01*
X028222Y017527D01*
X028214Y017478D01*
X028202Y017429D01*
X028186Y017382D01*
X028167Y017336D01*
X028144Y017292D01*
X028118Y017250D01*
X028089Y017210D01*
X028056Y017172D01*
X028020Y017138D01*
X027982Y017106D01*
X027942Y017077D01*
X027899Y017052D01*
X027854Y017030D01*
X027808Y017011D01*
X027761Y016997D01*
X027712Y016986D01*
X027663Y016979D01*
X027613Y016976D01*
X027564Y016977D01*
X027514Y016982D01*
X027465Y016991D01*
X027417Y017004D01*
X027370Y017020D01*
X027325Y017040D01*
X027281Y017064D01*
X027240Y017091D01*
X027200Y017121D01*
X027163Y017155D01*
X027129Y017191D01*
X027098Y017230D01*
X027070Y017271D01*
X027046Y017314D01*
X027025Y017359D01*
X027007Y017406D01*
X026994Y017453D01*
X026984Y017502D01*
X026978Y017551D01*
X026976Y017601D01*
X026976Y001351D02*
X026978Y001401D01*
X026984Y001450D01*
X026994Y001499D01*
X027007Y001546D01*
X027025Y001593D01*
X027046Y001638D01*
X027070Y001681D01*
X027098Y001722D01*
X027129Y001761D01*
X027163Y001797D01*
X027200Y001831D01*
X027240Y001861D01*
X027281Y001888D01*
X027325Y001912D01*
X027370Y001932D01*
X027417Y001948D01*
X027465Y001961D01*
X027514Y001970D01*
X027564Y001975D01*
X027613Y001976D01*
X027663Y001973D01*
X027712Y001966D01*
X027761Y001955D01*
X027808Y001941D01*
X027854Y001922D01*
X027899Y001900D01*
X027942Y001875D01*
X027982Y001846D01*
X028020Y001814D01*
X028056Y001780D01*
X028089Y001742D01*
X028118Y001702D01*
X028144Y001660D01*
X028167Y001616D01*
X028186Y001570D01*
X028202Y001523D01*
X028214Y001474D01*
X028222Y001425D01*
X028226Y001376D01*
X028226Y001326D01*
X028222Y001277D01*
X028214Y001228D01*
X028202Y001179D01*
X028186Y001132D01*
X028167Y001086D01*
X028144Y001042D01*
X028118Y001000D01*
X028089Y000960D01*
X028056Y000922D01*
X028020Y000888D01*
X027982Y000856D01*
X027942Y000827D01*
X027899Y000802D01*
X027854Y000780D01*
X027808Y000761D01*
X027761Y000747D01*
X027712Y000736D01*
X027663Y000729D01*
X027613Y000726D01*
X027564Y000727D01*
X027514Y000732D01*
X027465Y000741D01*
X027417Y000754D01*
X027370Y000770D01*
X027325Y000790D01*
X027281Y000814D01*
X027240Y000841D01*
X027200Y000871D01*
X027163Y000905D01*
X027129Y000941D01*
X027098Y000980D01*
X027070Y001021D01*
X027046Y001064D01*
X027025Y001109D01*
X027007Y001156D01*
X026994Y001203D01*
X026984Y001252D01*
X026978Y001301D01*
X026976Y001351D01*
D11*
X013111Y008536D02*
X013111Y008956D01*
X009897Y006851D02*
X009267Y006851D01*
X009267Y006641D02*
X009267Y007062D01*
X009267Y006417D02*
X009792Y006417D01*
X009897Y006312D01*
X009897Y006102D01*
X009792Y005997D01*
X009267Y005997D01*
X009372Y005773D02*
X009267Y005667D01*
X009267Y005457D01*
X009372Y005352D01*
X009792Y005352D01*
X009897Y005457D01*
X009897Y005667D01*
X009792Y005773D01*
X009372Y005773D01*
X009267Y015462D02*
X009267Y015672D01*
X009267Y015567D02*
X009897Y015567D01*
X009897Y015462D02*
X009897Y015672D01*
X009897Y015891D02*
X009267Y015891D01*
X009897Y016312D01*
X009267Y016312D01*
X010168Y017436D02*
X010431Y017436D01*
X010563Y017568D01*
X010828Y017699D02*
X011091Y017963D01*
X011223Y017963D01*
X011488Y017963D02*
X011488Y017568D01*
X011619Y017436D01*
X012015Y017436D01*
X012015Y017963D01*
X012279Y017831D02*
X012411Y017963D01*
X012806Y017963D01*
X012806Y018226D02*
X012806Y017436D01*
X012411Y017436D01*
X012279Y017568D01*
X012279Y017831D01*
X013071Y017436D02*
X013335Y017436D01*
X013203Y017436D02*
X013203Y018226D01*
X013071Y018226D01*
X013731Y017963D02*
X013994Y017963D01*
X014126Y017831D01*
X014126Y017436D01*
X013731Y017436D01*
X013599Y017568D01*
X013731Y017699D01*
X014126Y017699D01*
X014391Y017963D02*
X014786Y017963D01*
X014918Y017831D01*
X014918Y017568D01*
X014786Y017436D01*
X014391Y017436D01*
X014391Y018226D01*
X015183Y017831D02*
X015315Y017699D01*
X015578Y017699D01*
X015710Y017568D01*
X015578Y017436D01*
X015183Y017436D01*
X015183Y017831D02*
X015315Y017963D01*
X015710Y017963D01*
X016767Y018095D02*
X016898Y018226D01*
X017162Y018226D01*
X017294Y018095D01*
X017294Y017963D01*
X016767Y017436D01*
X017294Y017436D01*
X017558Y017568D02*
X018085Y018095D01*
X018085Y017568D01*
X017954Y017436D01*
X017690Y017436D01*
X017558Y017568D01*
X017558Y018095D01*
X017690Y018226D01*
X017954Y018226D01*
X018085Y018095D01*
X018350Y017963D02*
X018614Y018226D01*
X018614Y017436D01*
X018877Y017436D02*
X018350Y017436D01*
X019142Y017436D02*
X019669Y017436D01*
X019406Y017436D02*
X019406Y018226D01*
X019142Y017963D01*
X010828Y017963D02*
X010828Y017436D01*
X010168Y017436D02*
X010036Y017568D01*
X010036Y018095D01*
X010168Y018226D01*
X010431Y018226D01*
X010563Y018095D01*
D12*
X016401Y016151D02*
X016401Y014451D01*
X017196Y014101D02*
X018001Y014101D01*
X018801Y014451D02*
X018801Y016151D01*
X018001Y016501D02*
X017208Y016501D01*
X016901Y015301D02*
X016903Y015353D01*
X016909Y015405D01*
X016919Y015457D01*
X016932Y015507D01*
X016949Y015557D01*
X016970Y015605D01*
X016995Y015651D01*
X017023Y015695D01*
X017054Y015737D01*
X017088Y015777D01*
X017125Y015814D01*
X017165Y015848D01*
X017207Y015879D01*
X017251Y015907D01*
X017297Y015932D01*
X017345Y015953D01*
X017395Y015970D01*
X017445Y015983D01*
X017497Y015993D01*
X017549Y015999D01*
X017601Y016001D01*
X017653Y015999D01*
X017705Y015993D01*
X017757Y015983D01*
X017807Y015970D01*
X017857Y015953D01*
X017905Y015932D01*
X017951Y015907D01*
X017995Y015879D01*
X018037Y015848D01*
X018077Y015814D01*
X018114Y015777D01*
X018148Y015737D01*
X018179Y015695D01*
X018207Y015651D01*
X018232Y015605D01*
X018253Y015557D01*
X018270Y015507D01*
X018283Y015457D01*
X018293Y015405D01*
X018299Y015353D01*
X018301Y015301D01*
X018299Y015249D01*
X018293Y015197D01*
X018283Y015145D01*
X018270Y015095D01*
X018253Y015045D01*
X018232Y014997D01*
X018207Y014951D01*
X018179Y014907D01*
X018148Y014865D01*
X018114Y014825D01*
X018077Y014788D01*
X018037Y014754D01*
X017995Y014723D01*
X017951Y014695D01*
X017905Y014670D01*
X017857Y014649D01*
X017807Y014632D01*
X017757Y014619D01*
X017705Y014609D01*
X017653Y014603D01*
X017601Y014601D01*
X017549Y014603D01*
X017497Y014609D01*
X017445Y014619D01*
X017395Y014632D01*
X017345Y014649D01*
X017297Y014670D01*
X017251Y014695D01*
X017207Y014723D01*
X017165Y014754D01*
X017125Y014788D01*
X017088Y014825D01*
X017054Y014865D01*
X017023Y014907D01*
X016995Y014951D01*
X016970Y014997D01*
X016949Y015045D01*
X016932Y015095D01*
X016919Y015145D01*
X016909Y015197D01*
X016903Y015249D01*
X016901Y015301D01*
X016991Y013035D02*
X018211Y013035D01*
X018211Y012366D01*
X016991Y012366D01*
X016991Y013035D01*
X012551Y010351D02*
X012551Y008651D01*
X011751Y008301D02*
X010946Y008301D01*
X010151Y008651D02*
X010151Y010351D01*
X010958Y010701D02*
X011751Y010701D01*
X010651Y009501D02*
X010653Y009553D01*
X010659Y009605D01*
X010669Y009657D01*
X010682Y009707D01*
X010699Y009757D01*
X010720Y009805D01*
X010745Y009851D01*
X010773Y009895D01*
X010804Y009937D01*
X010838Y009977D01*
X010875Y010014D01*
X010915Y010048D01*
X010957Y010079D01*
X011001Y010107D01*
X011047Y010132D01*
X011095Y010153D01*
X011145Y010170D01*
X011195Y010183D01*
X011247Y010193D01*
X011299Y010199D01*
X011351Y010201D01*
X011403Y010199D01*
X011455Y010193D01*
X011507Y010183D01*
X011557Y010170D01*
X011607Y010153D01*
X011655Y010132D01*
X011701Y010107D01*
X011745Y010079D01*
X011787Y010048D01*
X011827Y010014D01*
X011864Y009977D01*
X011898Y009937D01*
X011929Y009895D01*
X011957Y009851D01*
X011982Y009805D01*
X012003Y009757D01*
X012020Y009707D01*
X012033Y009657D01*
X012043Y009605D01*
X012049Y009553D01*
X012051Y009501D01*
X012049Y009449D01*
X012043Y009397D01*
X012033Y009345D01*
X012020Y009295D01*
X012003Y009245D01*
X011982Y009197D01*
X011957Y009151D01*
X011929Y009107D01*
X011898Y009065D01*
X011864Y009025D01*
X011827Y008988D01*
X011787Y008954D01*
X011745Y008923D01*
X011701Y008895D01*
X011655Y008870D01*
X011607Y008849D01*
X011557Y008832D01*
X011507Y008819D01*
X011455Y008809D01*
X011403Y008803D01*
X011351Y008801D01*
X011299Y008803D01*
X011247Y008809D01*
X011195Y008819D01*
X011145Y008832D01*
X011095Y008849D01*
X011047Y008870D01*
X011001Y008895D01*
X010957Y008923D01*
X010915Y008954D01*
X010875Y008988D01*
X010838Y009025D01*
X010804Y009065D01*
X010773Y009107D01*
X010745Y009151D01*
X010720Y009197D01*
X010699Y009245D01*
X010682Y009295D01*
X010669Y009345D01*
X010659Y009397D01*
X010653Y009449D01*
X010651Y009501D01*
X011666Y006711D02*
X011666Y005491D01*
X012335Y005491D01*
X012335Y006711D01*
X011666Y006711D01*
X011651Y003901D02*
X011651Y003501D01*
X010117Y003201D02*
X010119Y003263D01*
X010125Y003326D01*
X010135Y003387D01*
X010149Y003448D01*
X010166Y003508D01*
X010187Y003567D01*
X010213Y003624D01*
X010241Y003679D01*
X010273Y003733D01*
X010309Y003784D01*
X010347Y003834D01*
X010389Y003880D01*
X010433Y003924D01*
X010481Y003965D01*
X010530Y004003D01*
X010582Y004037D01*
X010636Y004068D01*
X010692Y004096D01*
X010750Y004120D01*
X010809Y004141D01*
X010869Y004157D01*
X010930Y004170D01*
X010992Y004179D01*
X011054Y004184D01*
X011117Y004185D01*
X011179Y004182D01*
X011241Y004175D01*
X011303Y004164D01*
X011363Y004149D01*
X011423Y004131D01*
X011481Y004109D01*
X011538Y004083D01*
X011593Y004053D01*
X011646Y004020D01*
X011697Y003984D01*
X011745Y003945D01*
X011791Y003902D01*
X011834Y003857D01*
X011874Y003809D01*
X011911Y003759D01*
X011945Y003706D01*
X011976Y003652D01*
X012002Y003596D01*
X012026Y003538D01*
X012045Y003478D01*
X012061Y003418D01*
X012073Y003356D01*
X012081Y003295D01*
X012085Y003232D01*
X012085Y003170D01*
X012081Y003107D01*
X012073Y003046D01*
X012061Y002984D01*
X012045Y002924D01*
X012026Y002864D01*
X012002Y002806D01*
X011976Y002750D01*
X011945Y002696D01*
X011911Y002643D01*
X011874Y002593D01*
X011834Y002545D01*
X011791Y002500D01*
X011745Y002457D01*
X011697Y002418D01*
X011646Y002382D01*
X011593Y002349D01*
X011538Y002319D01*
X011481Y002293D01*
X011423Y002271D01*
X011363Y002253D01*
X011303Y002238D01*
X011241Y002227D01*
X011179Y002220D01*
X011117Y002217D01*
X011054Y002218D01*
X010992Y002223D01*
X010930Y002232D01*
X010869Y002245D01*
X010809Y002261D01*
X010750Y002282D01*
X010692Y002306D01*
X010636Y002334D01*
X010582Y002365D01*
X010530Y002399D01*
X010481Y002437D01*
X010433Y002478D01*
X010389Y002522D01*
X010347Y002568D01*
X010309Y002618D01*
X010273Y002669D01*
X010241Y002723D01*
X010213Y002778D01*
X010187Y002835D01*
X010166Y002894D01*
X010149Y002954D01*
X010135Y003015D01*
X010125Y003076D01*
X010119Y003139D01*
X010117Y003201D01*
X013291Y003034D02*
X013291Y001144D01*
X022110Y001144D01*
X022110Y003034D01*
X013291Y003034D01*
X023801Y002751D02*
X023801Y002251D01*
X024051Y002001D01*
X024551Y002001D01*
X024801Y002251D01*
X025051Y002001D01*
X025551Y002001D01*
X025801Y002251D01*
X025801Y002751D01*
X025551Y003001D01*
X025051Y003001D01*
X024801Y002751D01*
X024551Y003001D01*
X024051Y003001D01*
X023801Y002751D01*
X025451Y005701D02*
X025951Y005701D01*
X027151Y005701D02*
X027651Y005701D01*
X025811Y013066D02*
X024591Y013066D01*
X024591Y013735D01*
X025811Y013735D01*
X025811Y013066D01*
X023651Y014201D02*
X022151Y014201D01*
X001561Y014120D02*
X000947Y014120D01*
X000947Y014580D01*
X001100Y014734D01*
X001561Y014734D01*
X001561Y013813D02*
X001561Y013506D01*
X001561Y013660D02*
X000947Y013660D01*
X000947Y013506D01*
X000640Y013660D02*
X000487Y013660D01*
X000947Y005734D02*
X000947Y005427D01*
X000794Y005580D02*
X001407Y005580D01*
X001561Y005734D01*
X001561Y005120D02*
X000947Y005120D01*
X001561Y005120D02*
X001561Y004660D01*
X001407Y004506D01*
X000947Y004506D01*
X001100Y004199D02*
X000947Y004046D01*
X000947Y003739D01*
X001100Y003585D01*
X001407Y003585D01*
X001561Y003739D01*
X001561Y004046D01*
X001407Y004199D01*
X001100Y004199D01*
D13*
X003382Y004301D02*
X003382Y005401D01*
X003382Y006301D02*
X003382Y007801D01*
X003382Y007851D02*
X004782Y007851D01*
X005082Y007851D01*
X004782Y007851D02*
X004782Y008701D01*
X006632Y008701D01*
X006632Y007851D01*
X006182Y007851D01*
X006632Y007851D02*
X006632Y005601D01*
X007432Y005601D01*
X007432Y006101D01*
X008182Y006101D01*
X008182Y005601D01*
X008432Y005601D01*
X008432Y005101D01*
X009032Y005101D01*
X009032Y004601D01*
X008432Y004601D01*
X008432Y004101D01*
X008132Y004101D01*
X008132Y003601D01*
X007382Y003601D01*
X007382Y004101D01*
X006632Y004101D01*
X006632Y005601D01*
X007432Y005601D02*
X008182Y005601D01*
X008432Y005601D02*
X009032Y005601D01*
X009032Y005101D01*
X009032Y004601D02*
X009032Y004101D01*
X008432Y004101D01*
X008132Y004101D02*
X007382Y004101D01*
X006632Y004101D02*
X006632Y001851D01*
X006182Y001851D01*
X006632Y001851D02*
X006632Y001001D01*
X004782Y001001D01*
X004782Y001851D01*
X005082Y001851D01*
X004782Y001851D02*
X003382Y001851D01*
X003382Y003401D01*
X003382Y001851D02*
X003382Y000922D01*
X003132Y000922D01*
X003172Y000926D01*
X002972Y000926D01*
X002932Y000922D01*
X002632Y000922D01*
X002632Y008815D01*
X002932Y008815D01*
X002932Y008798D01*
X003132Y008798D01*
X003132Y008815D01*
X003382Y008815D01*
X003382Y007851D01*
X006632Y008701D02*
X008182Y008301D01*
X008132Y010651D02*
X006632Y010251D01*
X006632Y011101D01*
X006182Y011101D01*
X006632Y011101D02*
X006632Y013351D01*
X007382Y013351D01*
X007382Y012851D01*
X008132Y012851D01*
X008132Y013351D01*
X008432Y013351D01*
X008432Y013851D01*
X009032Y013851D01*
X009032Y014351D01*
X009032Y014851D01*
X008432Y014851D01*
X008182Y014851D01*
X007432Y014851D01*
X006632Y014851D01*
X006632Y017101D01*
X006182Y017101D01*
X006632Y017101D02*
X006632Y017951D01*
X008182Y017551D01*
X006632Y017951D02*
X004782Y017951D01*
X004782Y017101D01*
X005082Y017101D01*
X004782Y017101D02*
X003382Y017101D01*
X003382Y018065D01*
X003132Y018065D01*
X003132Y018048D01*
X002932Y018048D01*
X002932Y018065D01*
X002632Y018065D01*
X002632Y010172D01*
X002932Y010172D01*
X002972Y010176D01*
X003172Y010176D01*
X003132Y010172D01*
X003382Y010172D01*
X003382Y011101D01*
X003382Y012651D01*
X003382Y013551D02*
X003382Y014651D01*
X003382Y015551D02*
X003382Y017051D01*
X006632Y014851D02*
X006632Y013351D01*
X007382Y013351D02*
X008132Y013351D01*
X008432Y013351D02*
X009032Y013351D01*
X009032Y013851D01*
X009032Y014351D02*
X008432Y014351D01*
X008432Y014851D01*
X008182Y014851D02*
X008182Y015351D01*
X007432Y015351D01*
X007432Y014851D01*
X005082Y011101D02*
X004782Y011101D01*
X004782Y010251D01*
X006632Y010251D01*
X004782Y011101D02*
X003382Y011101D01*
X013301Y010601D02*
X013301Y009751D01*
X013331Y009749D01*
X013361Y009744D01*
X013390Y009735D01*
X013417Y009722D01*
X013443Y009707D01*
X013467Y009688D01*
X013488Y009667D01*
X013507Y009643D01*
X013522Y009617D01*
X013535Y009590D01*
X013544Y009561D01*
X013549Y009531D01*
X013551Y009501D01*
X013549Y009471D01*
X013544Y009441D01*
X013535Y009412D01*
X013522Y009385D01*
X013507Y009359D01*
X013488Y009335D01*
X013467Y009314D01*
X013443Y009295D01*
X013417Y009280D01*
X013390Y009267D01*
X013361Y009258D01*
X013331Y009253D01*
X013301Y009251D01*
X013301Y008401D01*
X027901Y008401D01*
X027901Y010601D01*
X013301Y010601D01*
X021251Y006201D02*
X023551Y006201D01*
X023602Y006199D01*
X023653Y006194D01*
X023703Y006184D01*
X023753Y006171D01*
X023801Y006155D01*
X023848Y006135D01*
X023894Y006111D01*
X023937Y006085D01*
X023979Y006055D01*
X024018Y006022D01*
X024055Y005987D01*
X024089Y005949D01*
X024120Y005908D01*
X024149Y005866D01*
X024174Y005821D01*
X024195Y005775D01*
X024214Y005727D01*
X024228Y005678D01*
X024239Y005628D01*
X024247Y005578D01*
X024251Y005527D01*
X024251Y005475D01*
X024247Y005424D01*
X024239Y005374D01*
X024228Y005324D01*
X024214Y005275D01*
X024195Y005227D01*
X024174Y005181D01*
X024149Y005136D01*
X024120Y005094D01*
X024089Y005053D01*
X024055Y005015D01*
X024018Y004980D01*
X023979Y004947D01*
X023937Y004917D01*
X023894Y004891D01*
X023848Y004867D01*
X023801Y004847D01*
X023753Y004831D01*
X023703Y004818D01*
X023653Y004808D01*
X023602Y004803D01*
X023551Y004801D01*
X021251Y004801D01*
X022151Y005151D02*
X022151Y005501D01*
X021901Y005501D01*
X022151Y005501D02*
X022151Y005851D01*
X022301Y005851D02*
X022501Y005851D01*
X022501Y005151D01*
X022301Y005151D01*
X022301Y005851D01*
X022651Y005851D02*
X022651Y005501D01*
X022901Y005501D01*
X022651Y005501D02*
X022651Y005151D01*
X021251Y004801D02*
X021200Y004803D01*
X021149Y004808D01*
X021099Y004818D01*
X021049Y004831D01*
X021001Y004847D01*
X020954Y004867D01*
X020908Y004891D01*
X020865Y004917D01*
X020823Y004947D01*
X020784Y004980D01*
X020747Y005015D01*
X020713Y005053D01*
X020682Y005094D01*
X020653Y005136D01*
X020628Y005181D01*
X020607Y005227D01*
X020588Y005275D01*
X020574Y005324D01*
X020563Y005374D01*
X020555Y005424D01*
X020551Y005475D01*
X020551Y005527D01*
X020555Y005578D01*
X020563Y005628D01*
X020574Y005678D01*
X020588Y005727D01*
X020607Y005775D01*
X020628Y005821D01*
X020653Y005866D01*
X020682Y005908D01*
X020713Y005949D01*
X020747Y005987D01*
X020784Y006022D01*
X020823Y006055D01*
X020865Y006085D01*
X020908Y006111D01*
X020954Y006135D01*
X021001Y006155D01*
X021049Y006171D01*
X021099Y006184D01*
X021149Y006194D01*
X021200Y006199D01*
X021251Y006201D01*
X008132Y001401D02*
X006632Y001001D01*
X021901Y015201D02*
X021903Y015264D01*
X021909Y015326D01*
X021919Y015388D01*
X021932Y015450D01*
X021950Y015510D01*
X021971Y015569D01*
X021996Y015627D01*
X022025Y015683D01*
X022057Y015737D01*
X022092Y015789D01*
X022130Y015838D01*
X022172Y015886D01*
X022216Y015930D01*
X022264Y015972D01*
X022313Y016010D01*
X022365Y016045D01*
X022419Y016077D01*
X022475Y016106D01*
X022533Y016131D01*
X022592Y016152D01*
X022652Y016170D01*
X022714Y016183D01*
X022776Y016193D01*
X022838Y016199D01*
X022901Y016201D01*
X022964Y016199D01*
X023026Y016193D01*
X023088Y016183D01*
X023150Y016170D01*
X023210Y016152D01*
X023269Y016131D01*
X023327Y016106D01*
X023383Y016077D01*
X023437Y016045D01*
X023489Y016010D01*
X023538Y015972D01*
X023586Y015930D01*
X023630Y015886D01*
X023672Y015838D01*
X023710Y015789D01*
X023745Y015737D01*
X023777Y015683D01*
X023806Y015627D01*
X023831Y015569D01*
X023852Y015510D01*
X023870Y015450D01*
X023883Y015388D01*
X023893Y015326D01*
X023899Y015264D01*
X023901Y015201D01*
X023899Y015138D01*
X023893Y015076D01*
X023883Y015014D01*
X023870Y014952D01*
X023852Y014892D01*
X023831Y014833D01*
X023806Y014775D01*
X023777Y014719D01*
X023745Y014665D01*
X023710Y014613D01*
X023672Y014564D01*
X023630Y014516D01*
X023586Y014472D01*
X023538Y014430D01*
X023489Y014392D01*
X023437Y014357D01*
X023383Y014325D01*
X023327Y014296D01*
X023269Y014271D01*
X023210Y014250D01*
X023150Y014232D01*
X023088Y014219D01*
X023026Y014209D01*
X022964Y014203D01*
X022901Y014201D01*
X022838Y014203D01*
X022776Y014209D01*
X022714Y014219D01*
X022652Y014232D01*
X022592Y014250D01*
X022533Y014271D01*
X022475Y014296D01*
X022419Y014325D01*
X022365Y014357D01*
X022313Y014392D01*
X022264Y014430D01*
X022216Y014472D01*
X022172Y014516D01*
X022130Y014564D01*
X022092Y014613D01*
X022057Y014665D01*
X022025Y014719D01*
X021996Y014775D01*
X021971Y014833D01*
X021950Y014892D01*
X021932Y014952D01*
X021919Y015014D01*
X021909Y015076D01*
X021903Y015138D01*
X021901Y015201D01*
D14*
X023210Y013816D02*
X023135Y013741D01*
X023135Y013515D01*
X023586Y013515D01*
X023586Y013741D01*
X023511Y013816D01*
X023210Y013816D01*
X023135Y013355D02*
X023135Y013055D01*
X023586Y013055D01*
X023586Y013355D01*
X023361Y013205D02*
X023361Y013055D01*
X023586Y012895D02*
X023586Y012595D01*
X023135Y012595D01*
X024902Y013320D02*
X024947Y013275D01*
X025037Y013275D01*
X025082Y013320D01*
X025082Y013365D01*
X025037Y013410D01*
X024992Y013410D01*
X025037Y013410D02*
X025082Y013455D01*
X025082Y013500D01*
X025037Y013545D01*
X024947Y013545D01*
X024902Y013500D01*
X025197Y013500D02*
X025242Y013545D01*
X025332Y013545D01*
X025377Y013500D01*
X025377Y013455D01*
X025332Y013410D01*
X025377Y013365D01*
X025377Y013320D01*
X025332Y013275D01*
X025242Y013275D01*
X025197Y013320D01*
X025287Y013410D02*
X025332Y013410D01*
X025491Y013500D02*
X025536Y013545D01*
X025626Y013545D01*
X025671Y013500D01*
X025491Y013320D01*
X025536Y013275D01*
X025626Y013275D01*
X025671Y013320D01*
X025671Y013500D01*
X025491Y013500D02*
X025491Y013320D01*
X017835Y012827D02*
X017655Y012647D01*
X017700Y012692D02*
X017835Y012557D01*
X017655Y012557D02*
X017655Y012827D01*
X017540Y012782D02*
X017360Y012602D01*
X017405Y012557D01*
X017495Y012557D01*
X017540Y012602D01*
X017540Y012782D01*
X017495Y012827D01*
X017405Y012827D01*
X017360Y012782D01*
X017360Y012602D01*
X017246Y012557D02*
X017066Y012557D01*
X017156Y012557D02*
X017156Y012827D01*
X017066Y012737D01*
X016076Y014326D02*
X015625Y014326D01*
X016076Y014326D02*
X016076Y014626D01*
X016076Y014786D02*
X016076Y014936D01*
X016076Y014861D02*
X015625Y014861D01*
X015625Y014786D02*
X015625Y014936D01*
X015700Y015093D02*
X015776Y015093D01*
X015851Y015168D01*
X015851Y015318D01*
X015926Y015393D01*
X016001Y015393D01*
X016076Y015318D01*
X016076Y015168D01*
X016001Y015093D01*
X015700Y015093D02*
X015625Y015168D01*
X015625Y015318D01*
X015700Y015393D01*
X015625Y015553D02*
X015625Y015854D01*
X015625Y015704D02*
X016076Y015704D01*
X016076Y016014D02*
X015625Y016014D01*
X015625Y016314D01*
X015625Y016474D02*
X016076Y016774D01*
X015625Y016774D01*
X015625Y016474D02*
X016076Y016474D01*
X016076Y016314D02*
X016076Y016014D01*
X015851Y016014D02*
X015851Y016164D01*
X008857Y016990D02*
X008782Y016915D01*
X008857Y016990D02*
X008857Y017141D01*
X008782Y017216D01*
X008632Y017216D01*
X008557Y017141D01*
X008557Y017066D01*
X008632Y016915D01*
X008407Y016915D01*
X008407Y017216D01*
X007207Y016341D02*
X007207Y016190D01*
X007132Y016115D01*
X006982Y016266D02*
X006982Y016341D01*
X007057Y016416D01*
X007132Y016416D01*
X007207Y016341D01*
X006982Y016341D02*
X006907Y016416D01*
X006832Y016416D01*
X006757Y016341D01*
X006757Y016190D01*
X006832Y016115D01*
X006832Y014616D02*
X006757Y014541D01*
X006757Y014390D01*
X006832Y014315D01*
X006907Y014616D02*
X007207Y014315D01*
X007207Y014616D01*
X006907Y014616D02*
X006832Y014616D01*
X007207Y011966D02*
X007207Y011665D01*
X007207Y011816D02*
X006757Y011816D01*
X006907Y011665D01*
X008407Y011041D02*
X008632Y010815D01*
X008632Y011116D01*
X008857Y011041D02*
X008407Y011041D01*
X009375Y010667D02*
X009375Y010367D01*
X009375Y010517D02*
X009826Y010517D01*
X009826Y010207D02*
X009826Y009907D01*
X009375Y009907D01*
X009375Y010207D01*
X009601Y010057D02*
X009601Y009907D01*
X009676Y009747D02*
X009751Y009747D01*
X009826Y009672D01*
X009826Y009522D01*
X009751Y009446D01*
X009601Y009522D02*
X009601Y009672D01*
X009676Y009747D01*
X009450Y009747D02*
X009375Y009672D01*
X009375Y009522D01*
X009450Y009446D01*
X009526Y009446D01*
X009601Y009522D01*
X009826Y009286D02*
X009826Y008986D01*
X009375Y008986D01*
X009375Y009286D01*
X009601Y009136D02*
X009601Y008986D01*
X009601Y008826D02*
X009450Y008826D01*
X009375Y008751D01*
X009375Y008526D01*
X009826Y008526D01*
X009676Y008526D02*
X009676Y008751D01*
X009601Y008826D01*
X009676Y008676D02*
X009826Y008826D01*
X008857Y007891D02*
X008782Y007966D01*
X008632Y007966D01*
X008557Y007891D01*
X008557Y007816D01*
X008632Y007665D01*
X008407Y007665D01*
X008407Y007966D01*
X008857Y007891D02*
X008857Y007740D01*
X008782Y007665D01*
X007207Y007091D02*
X007207Y006940D01*
X007132Y006865D01*
X006982Y007016D02*
X006982Y007091D01*
X007057Y007166D01*
X007132Y007166D01*
X007207Y007091D01*
X006982Y007091D02*
X006907Y007166D01*
X006832Y007166D01*
X006757Y007091D01*
X006757Y006940D01*
X006832Y006865D01*
X006832Y005366D02*
X006757Y005291D01*
X006757Y005140D01*
X006832Y005065D01*
X006907Y005366D02*
X007207Y005065D01*
X007207Y005366D01*
X006907Y005366D02*
X006832Y005366D01*
X007207Y002716D02*
X007207Y002415D01*
X007207Y002566D02*
X006757Y002566D01*
X006907Y002415D01*
X008407Y001791D02*
X008632Y001565D01*
X008632Y001866D01*
X008857Y001791D02*
X008407Y001791D01*
X011964Y005566D02*
X011874Y005656D01*
X012145Y005656D01*
X012145Y005566D02*
X012145Y005746D01*
X012100Y005860D02*
X011919Y006040D01*
X012100Y006040D01*
X012145Y005995D01*
X012145Y005905D01*
X012100Y005860D01*
X011919Y005860D01*
X011874Y005905D01*
X011874Y005995D01*
X011919Y006040D01*
X011874Y006155D02*
X012145Y006155D01*
X012054Y006155D02*
X011874Y006335D01*
X012009Y006200D02*
X012145Y006335D01*
X023505Y004251D02*
X023505Y003951D01*
X023580Y003876D01*
X023730Y003876D01*
X023805Y003951D01*
X023805Y004251D01*
X023730Y004326D01*
X023580Y004326D01*
X023505Y004251D01*
X023655Y004026D02*
X023805Y003876D01*
X023965Y003876D02*
X024266Y003876D01*
X024116Y003876D02*
X024116Y004326D01*
X023965Y004176D01*
X024021Y003696D02*
X024096Y003621D01*
X024096Y003546D01*
X024021Y003471D01*
X023796Y003471D01*
X024021Y003471D02*
X024096Y003396D01*
X024096Y003321D01*
X024021Y003246D01*
X023796Y003246D01*
X023796Y003696D01*
X024021Y003696D01*
X024256Y003696D02*
X024406Y003696D01*
X024331Y003696D02*
X024331Y003246D01*
X024256Y003246D02*
X024406Y003246D01*
X024563Y003321D02*
X024638Y003246D01*
X024788Y003246D01*
X024863Y003321D01*
X024863Y003471D01*
X024713Y003471D01*
X024563Y003621D02*
X024563Y003321D01*
X024563Y003621D02*
X024638Y003696D01*
X024788Y003696D01*
X024863Y003621D01*
X025023Y003171D02*
X025324Y003171D01*
X025484Y003396D02*
X025634Y003246D01*
X025784Y003396D01*
X025784Y003696D01*
X025484Y003696D02*
X025484Y003396D01*
X025944Y003171D02*
X026244Y003171D01*
X026404Y003321D02*
X026479Y003246D01*
X026630Y003246D01*
X026705Y003321D01*
X026705Y003621D01*
X026630Y003696D01*
X026479Y003696D01*
X026404Y003621D01*
X026404Y003321D01*
X026865Y003321D02*
X026940Y003246D01*
X027090Y003246D01*
X027165Y003321D01*
X027165Y003696D01*
X027325Y003696D02*
X027625Y003696D01*
X027475Y003696D02*
X027475Y003246D01*
X026865Y003321D02*
X026865Y003696D01*
D15*
X025635Y012795D02*
X025488Y012795D01*
X025635Y012941D01*
X025635Y012978D01*
X025598Y013015D01*
X025525Y013015D01*
X025488Y012978D01*
X025414Y012978D02*
X025414Y012905D01*
X025377Y012868D01*
X025267Y012868D01*
X025267Y012795D02*
X025267Y013015D01*
X025377Y013015D01*
X025414Y012978D01*
X025341Y012868D02*
X025414Y012795D01*
X017480Y013124D02*
X017443Y013087D01*
X017370Y013087D01*
X017333Y013124D01*
X017259Y013087D02*
X017186Y013160D01*
X017222Y013160D02*
X017112Y013160D01*
X017112Y013087D02*
X017112Y013307D01*
X017222Y013307D01*
X017259Y013270D01*
X017259Y013197D01*
X017222Y013160D01*
X017333Y013270D02*
X017370Y013307D01*
X017443Y013307D01*
X017480Y013270D01*
X017480Y013234D01*
X017443Y013197D01*
X017480Y013160D01*
X017480Y013124D01*
X017443Y013197D02*
X017407Y013197D01*
X011615Y005980D02*
X011615Y005833D01*
X011615Y005907D02*
X011395Y005907D01*
X011468Y005833D01*
X011505Y005759D02*
X011541Y005722D01*
X011541Y005612D01*
X011541Y005686D02*
X011615Y005759D01*
X011505Y005759D02*
X011431Y005759D01*
X011395Y005722D01*
X011395Y005612D01*
X011615Y005612D01*
D16*
X021251Y006401D02*
X021192Y006399D01*
X021134Y006393D01*
X021075Y006384D01*
X021018Y006370D01*
X020962Y006353D01*
X020907Y006332D01*
X020853Y006308D01*
X020801Y006280D01*
X020751Y006249D01*
X020703Y006215D01*
X020658Y006178D01*
X020615Y006137D01*
X020574Y006094D01*
X020537Y006049D01*
X020503Y006001D01*
X020472Y005951D01*
X020444Y005899D01*
X020420Y005845D01*
X020399Y005790D01*
X020382Y005734D01*
X020368Y005677D01*
X020359Y005618D01*
X020353Y005560D01*
X020351Y005501D01*
X020353Y005442D01*
X020359Y005384D01*
X020368Y005325D01*
X020382Y005268D01*
X020399Y005212D01*
X020420Y005157D01*
X020444Y005103D01*
X020472Y005051D01*
X020503Y005001D01*
X020537Y004953D01*
X020574Y004908D01*
X020615Y004865D01*
X020658Y004824D01*
X020703Y004787D01*
X020751Y004753D01*
X020801Y004722D01*
X020853Y004694D01*
X020907Y004670D01*
X020962Y004649D01*
X021018Y004632D01*
X021075Y004618D01*
X021134Y004609D01*
X021192Y004603D01*
X021251Y004601D01*
X023551Y004601D01*
X023610Y004603D01*
X023668Y004609D01*
X023727Y004618D01*
X023784Y004632D01*
X023840Y004649D01*
X023895Y004670D01*
X023949Y004694D01*
X024001Y004722D01*
X024051Y004753D01*
X024099Y004787D01*
X024144Y004824D01*
X024187Y004865D01*
X024228Y004908D01*
X024265Y004953D01*
X024299Y005001D01*
X024330Y005051D01*
X024358Y005103D01*
X024382Y005157D01*
X024403Y005212D01*
X024420Y005268D01*
X024434Y005325D01*
X024443Y005384D01*
X024449Y005442D01*
X024451Y005501D01*
X024449Y005560D01*
X024443Y005618D01*
X024434Y005677D01*
X024420Y005734D01*
X024403Y005790D01*
X024382Y005845D01*
X024358Y005899D01*
X024330Y005951D01*
X024299Y006001D01*
X024265Y006049D01*
X024228Y006094D01*
X024187Y006137D01*
X024144Y006178D01*
X024099Y006215D01*
X024051Y006249D01*
X024001Y006280D01*
X023949Y006308D01*
X023895Y006332D01*
X023840Y006353D01*
X023784Y006370D01*
X023727Y006384D01*
X023668Y006393D01*
X023610Y006399D01*
X023551Y006401D01*
X021251Y006401D01*
D17*
X025046Y005603D02*
X025196Y005603D01*
X025196Y005553D02*
X025196Y005653D01*
X025096Y005553D02*
X025046Y005603D01*
X025071Y005506D02*
X025046Y005481D01*
X025046Y005431D01*
X025071Y005406D01*
X025171Y005406D01*
X025196Y005431D01*
X025196Y005481D01*
X025171Y005506D01*
X026746Y005481D02*
X026746Y005431D01*
X026771Y005406D01*
X026871Y005406D01*
X026896Y005431D01*
X026896Y005481D01*
X026871Y005506D01*
X026896Y005553D02*
X026796Y005653D01*
X026771Y005653D01*
X026746Y005628D01*
X026746Y005578D01*
X026771Y005553D01*
X026771Y005506D02*
X026746Y005481D01*
X026896Y005553D02*
X026896Y005653D01*
X023681Y014169D02*
X023627Y014241D01*
X023628Y014240D02*
X023681Y014283D01*
X023732Y014328D01*
X023780Y014377D01*
X023825Y014428D01*
X023868Y014482D01*
X023907Y014538D01*
X023943Y014596D01*
X023976Y014656D01*
X024005Y014717D01*
X024030Y014781D01*
X024052Y014845D01*
X024071Y014911D01*
X024085Y014978D01*
X024096Y015045D01*
X024103Y015113D01*
X024106Y015181D01*
X024105Y015250D01*
X024100Y015318D01*
X024092Y015386D01*
X024079Y015453D01*
X024063Y015519D01*
X024043Y015584D01*
X024020Y015649D01*
X023993Y015711D01*
X023962Y015772D01*
X023928Y015831D01*
X023891Y015889D01*
X023850Y015944D01*
X023806Y015996D01*
X023760Y016046D01*
X023711Y016093D01*
X023659Y016138D01*
X023605Y016179D01*
X023548Y016218D01*
X023489Y016253D01*
X023429Y016284D01*
X023367Y016312D01*
X023303Y016337D01*
X023238Y016358D01*
X023172Y016375D01*
X023105Y016389D01*
X023037Y016398D01*
X022969Y016404D01*
X022901Y016406D01*
X022833Y016404D01*
X022765Y016398D01*
X022697Y016389D01*
X022630Y016375D01*
X022564Y016358D01*
X022499Y016337D01*
X022435Y016312D01*
X022373Y016284D01*
X022313Y016253D01*
X022254Y016218D01*
X022197Y016179D01*
X022143Y016138D01*
X022091Y016093D01*
X022042Y016046D01*
X021996Y015996D01*
X021952Y015944D01*
X021911Y015889D01*
X021874Y015831D01*
X021840Y015772D01*
X021809Y015711D01*
X021782Y015649D01*
X021759Y015584D01*
X021739Y015519D01*
X021723Y015453D01*
X021710Y015386D01*
X021702Y015318D01*
X021697Y015250D01*
X021696Y015181D01*
X021699Y015113D01*
X021706Y015045D01*
X021717Y014978D01*
X021731Y014911D01*
X021750Y014845D01*
X021772Y014781D01*
X021797Y014717D01*
X021826Y014656D01*
X021859Y014596D01*
X021895Y014538D01*
X021934Y014482D01*
X021977Y014428D01*
X022022Y014377D01*
X022070Y014328D01*
X022121Y014283D01*
X022174Y014240D01*
X022121Y014169D01*
X022120Y014168D01*
X022065Y014212D01*
X022012Y014260D01*
X021961Y014310D01*
X021914Y014363D01*
X021870Y014418D01*
X021828Y014476D01*
X021790Y014536D01*
X021755Y014597D01*
X021724Y014661D01*
X021696Y014726D01*
X021672Y014793D01*
X021651Y014861D01*
X021635Y014930D01*
X021622Y015000D01*
X021613Y015070D01*
X021607Y015141D01*
X021606Y015212D01*
X021609Y015283D01*
X021615Y015354D01*
X021625Y015424D01*
X021639Y015493D01*
X021657Y015562D01*
X021679Y015630D01*
X021704Y015696D01*
X021733Y015761D01*
X021766Y015824D01*
X021802Y015885D01*
X021841Y015944D01*
X021883Y016001D01*
X021928Y016056D01*
X021977Y016108D01*
X022028Y016157D01*
X022081Y016204D01*
X022138Y016247D01*
X022196Y016287D01*
X022257Y016324D01*
X022319Y016358D01*
X022383Y016388D01*
X022449Y016415D01*
X022516Y016438D01*
X022585Y016457D01*
X022654Y016472D01*
X022724Y016484D01*
X022795Y016492D01*
X022866Y016496D01*
X022936Y016496D01*
X023007Y016492D01*
X023078Y016484D01*
X023148Y016472D01*
X023217Y016457D01*
X023286Y016438D01*
X023353Y016415D01*
X023419Y016388D01*
X023483Y016358D01*
X023545Y016324D01*
X023606Y016287D01*
X023664Y016247D01*
X023721Y016204D01*
X023774Y016157D01*
X023825Y016108D01*
X023874Y016056D01*
X023919Y016001D01*
X023961Y015944D01*
X024000Y015885D01*
X024036Y015824D01*
X024069Y015761D01*
X024098Y015696D01*
X024123Y015630D01*
X024145Y015562D01*
X024163Y015493D01*
X024177Y015424D01*
X024187Y015354D01*
X024193Y015283D01*
X024196Y015212D01*
X024195Y015141D01*
X024189Y015070D01*
X024180Y015000D01*
X024167Y014930D01*
X024151Y014861D01*
X024130Y014793D01*
X024106Y014726D01*
X024078Y014661D01*
X024047Y014597D01*
X024012Y014536D01*
X023974Y014476D01*
X023932Y014418D01*
X023888Y014363D01*
X023841Y014310D01*
X023790Y014260D01*
X023737Y014212D01*
X023682Y014168D01*
X023677Y014175D01*
X023732Y014220D01*
X023785Y014267D01*
X023836Y014318D01*
X023883Y014371D01*
X023928Y014427D01*
X023969Y014485D01*
X024007Y014545D01*
X024042Y014607D01*
X024073Y014671D01*
X024100Y014737D01*
X024124Y014804D01*
X024144Y014873D01*
X024161Y014942D01*
X024173Y015012D01*
X024182Y015083D01*
X024186Y015154D01*
X024187Y015225D01*
X024183Y015296D01*
X024176Y015367D01*
X024165Y015438D01*
X024150Y015507D01*
X024131Y015576D01*
X024108Y015644D01*
X024082Y015710D01*
X024052Y015775D01*
X024018Y015837D01*
X023982Y015898D01*
X023941Y015957D01*
X023898Y016014D01*
X023851Y016068D01*
X023802Y016119D01*
X023749Y016167D01*
X023695Y016213D01*
X023637Y016255D01*
X023578Y016294D01*
X023516Y016330D01*
X023453Y016363D01*
X023388Y016391D01*
X023321Y016417D01*
X023253Y016438D01*
X023184Y016456D01*
X023114Y016469D01*
X023043Y016479D01*
X022972Y016485D01*
X022901Y016487D01*
X022830Y016485D01*
X022759Y016479D01*
X022688Y016469D01*
X022618Y016456D01*
X022549Y016438D01*
X022481Y016417D01*
X022414Y016391D01*
X022349Y016363D01*
X022286Y016330D01*
X022224Y016294D01*
X022165Y016255D01*
X022107Y016213D01*
X022053Y016167D01*
X022000Y016119D01*
X021951Y016068D01*
X021904Y016014D01*
X021861Y015957D01*
X021820Y015898D01*
X021784Y015837D01*
X021750Y015775D01*
X021720Y015710D01*
X021694Y015644D01*
X021671Y015576D01*
X021652Y015507D01*
X021637Y015438D01*
X021626Y015367D01*
X021619Y015296D01*
X021615Y015225D01*
X021616Y015154D01*
X021620Y015083D01*
X021629Y015012D01*
X021641Y014942D01*
X021658Y014873D01*
X021678Y014804D01*
X021702Y014737D01*
X021729Y014671D01*
X021760Y014607D01*
X021795Y014545D01*
X021833Y014485D01*
X021874Y014427D01*
X021919Y014371D01*
X021966Y014318D01*
X022017Y014267D01*
X022070Y014220D01*
X022125Y014175D01*
X022131Y014182D01*
X022076Y014227D01*
X022023Y014274D01*
X021973Y014324D01*
X021926Y014377D01*
X021882Y014432D01*
X021840Y014490D01*
X021803Y014549D01*
X021768Y014611D01*
X021737Y014675D01*
X021710Y014740D01*
X021686Y014807D01*
X021666Y014875D01*
X021650Y014944D01*
X021638Y015013D01*
X021629Y015084D01*
X021625Y015154D01*
X021624Y015225D01*
X021628Y015296D01*
X021635Y015366D01*
X021646Y015436D01*
X021661Y015505D01*
X021680Y015573D01*
X021702Y015641D01*
X021728Y015706D01*
X021758Y015771D01*
X021791Y015833D01*
X021828Y015893D01*
X021868Y015952D01*
X021911Y016008D01*
X021957Y016062D01*
X022007Y016112D01*
X022058Y016161D01*
X022113Y016206D01*
X022170Y016248D01*
X022229Y016287D01*
X022290Y016322D01*
X022353Y016355D01*
X022418Y016383D01*
X022484Y016408D01*
X022552Y016429D01*
X022620Y016447D01*
X022690Y016460D01*
X022760Y016470D01*
X022830Y016476D01*
X022901Y016478D01*
X022972Y016476D01*
X023042Y016470D01*
X023112Y016460D01*
X023182Y016447D01*
X023250Y016429D01*
X023318Y016408D01*
X023384Y016383D01*
X023449Y016355D01*
X023512Y016322D01*
X023573Y016287D01*
X023632Y016248D01*
X023689Y016206D01*
X023744Y016161D01*
X023795Y016112D01*
X023845Y016062D01*
X023891Y016008D01*
X023934Y015952D01*
X023974Y015893D01*
X024011Y015833D01*
X024044Y015771D01*
X024074Y015706D01*
X024100Y015641D01*
X024122Y015573D01*
X024141Y015505D01*
X024156Y015436D01*
X024167Y015366D01*
X024174Y015296D01*
X024178Y015225D01*
X024177Y015154D01*
X024173Y015084D01*
X024164Y015013D01*
X024152Y014944D01*
X024136Y014875D01*
X024116Y014807D01*
X024092Y014740D01*
X024065Y014675D01*
X024034Y014611D01*
X023999Y014549D01*
X023962Y014490D01*
X023920Y014432D01*
X023876Y014377D01*
X023829Y014324D01*
X023779Y014274D01*
X023726Y014227D01*
X023671Y014182D01*
X023666Y014190D01*
X023721Y014234D01*
X023774Y014282D01*
X023824Y014332D01*
X023872Y014385D01*
X023916Y014441D01*
X023957Y014499D01*
X023994Y014559D01*
X024029Y014621D01*
X024059Y014685D01*
X024086Y014751D01*
X024110Y014818D01*
X024129Y014886D01*
X024145Y014956D01*
X024157Y015026D01*
X024165Y015096D01*
X024169Y015167D01*
X024168Y015238D01*
X024164Y015309D01*
X024156Y015380D01*
X024144Y015450D01*
X024128Y015519D01*
X024109Y015587D01*
X024085Y015655D01*
X024058Y015720D01*
X024027Y015784D01*
X023993Y015846D01*
X023955Y015906D01*
X023913Y015964D01*
X023869Y016020D01*
X023822Y016073D01*
X023771Y016123D01*
X023718Y016170D01*
X023663Y016215D01*
X023605Y016256D01*
X023545Y016293D01*
X023482Y016328D01*
X023418Y016359D01*
X023353Y016386D01*
X023286Y016409D01*
X023217Y016429D01*
X023148Y016445D01*
X023078Y016457D01*
X023007Y016465D01*
X022937Y016469D01*
X022865Y016469D01*
X022795Y016465D01*
X022724Y016457D01*
X022654Y016445D01*
X022585Y016429D01*
X022516Y016409D01*
X022449Y016386D01*
X022384Y016359D01*
X022320Y016328D01*
X022257Y016293D01*
X022197Y016256D01*
X022139Y016215D01*
X022084Y016170D01*
X022031Y016123D01*
X021980Y016073D01*
X021933Y016020D01*
X021889Y015964D01*
X021847Y015906D01*
X021809Y015846D01*
X021775Y015784D01*
X021744Y015720D01*
X021717Y015655D01*
X021693Y015587D01*
X021674Y015519D01*
X021658Y015450D01*
X021646Y015380D01*
X021638Y015309D01*
X021634Y015238D01*
X021633Y015167D01*
X021637Y015096D01*
X021645Y015026D01*
X021657Y014956D01*
X021673Y014886D01*
X021692Y014818D01*
X021716Y014751D01*
X021743Y014685D01*
X021773Y014621D01*
X021808Y014559D01*
X021845Y014499D01*
X021886Y014441D01*
X021930Y014385D01*
X021978Y014332D01*
X022028Y014282D01*
X022081Y014234D01*
X022136Y014190D01*
X022142Y014197D01*
X022087Y014241D01*
X022034Y014288D01*
X021984Y014338D01*
X021937Y014391D01*
X021893Y014446D01*
X021853Y014504D01*
X021815Y014563D01*
X021781Y014625D01*
X021751Y014689D01*
X021724Y014754D01*
X021701Y014821D01*
X021681Y014889D01*
X021666Y014957D01*
X021654Y015027D01*
X021646Y015097D01*
X021642Y015168D01*
X021643Y015238D01*
X021647Y015309D01*
X021655Y015379D01*
X021667Y015448D01*
X021682Y015517D01*
X021702Y015585D01*
X021725Y015651D01*
X021752Y015716D01*
X021783Y015780D01*
X021817Y015842D01*
X021855Y015901D01*
X021896Y015959D01*
X021940Y016014D01*
X021987Y016067D01*
X022037Y016116D01*
X022089Y016163D01*
X022145Y016207D01*
X022202Y016248D01*
X022262Y016286D01*
X022324Y016320D01*
X022387Y016350D01*
X022452Y016377D01*
X022519Y016401D01*
X022587Y016420D01*
X022656Y016436D01*
X022725Y016448D01*
X022795Y016456D01*
X022866Y016460D01*
X022936Y016460D01*
X023007Y016456D01*
X023077Y016448D01*
X023146Y016436D01*
X023215Y016420D01*
X023283Y016401D01*
X023350Y016377D01*
X023415Y016350D01*
X023478Y016320D01*
X023540Y016286D01*
X023600Y016248D01*
X023657Y016207D01*
X023713Y016163D01*
X023765Y016116D01*
X023815Y016067D01*
X023862Y016014D01*
X023906Y015959D01*
X023947Y015901D01*
X023985Y015842D01*
X024019Y015780D01*
X024050Y015716D01*
X024077Y015651D01*
X024100Y015585D01*
X024120Y015517D01*
X024135Y015448D01*
X024147Y015379D01*
X024155Y015309D01*
X024159Y015238D01*
X024160Y015168D01*
X024156Y015097D01*
X024148Y015027D01*
X024136Y014957D01*
X024121Y014889D01*
X024101Y014821D01*
X024078Y014754D01*
X024051Y014689D01*
X024021Y014625D01*
X023987Y014563D01*
X023949Y014504D01*
X023909Y014446D01*
X023865Y014391D01*
X023818Y014338D01*
X023768Y014288D01*
X023715Y014241D01*
X023660Y014197D01*
X023655Y014204D01*
X023710Y014248D01*
X023762Y014295D01*
X023811Y014344D01*
X023858Y014397D01*
X023901Y014451D01*
X023942Y014509D01*
X023979Y014568D01*
X024013Y014629D01*
X024043Y014693D01*
X024070Y014757D01*
X024093Y014824D01*
X024112Y014891D01*
X024127Y014959D01*
X024139Y015028D01*
X024147Y015098D01*
X024151Y015168D01*
X024150Y015238D01*
X024146Y015308D01*
X024138Y015377D01*
X024127Y015446D01*
X024111Y015515D01*
X024092Y015582D01*
X024068Y015648D01*
X024041Y015713D01*
X024011Y015776D01*
X023977Y015837D01*
X023940Y015896D01*
X023899Y015954D01*
X023855Y016008D01*
X023809Y016060D01*
X023759Y016110D01*
X023707Y016157D01*
X023652Y016200D01*
X023595Y016241D01*
X023536Y016278D01*
X023474Y016312D01*
X023411Y016342D01*
X023346Y016369D01*
X023280Y016392D01*
X023213Y016411D01*
X023145Y016427D01*
X023076Y016439D01*
X023006Y016447D01*
X022936Y016451D01*
X022866Y016451D01*
X022796Y016447D01*
X022726Y016439D01*
X022657Y016427D01*
X022589Y016411D01*
X022522Y016392D01*
X022456Y016369D01*
X022391Y016342D01*
X022328Y016312D01*
X022266Y016278D01*
X022207Y016241D01*
X022150Y016200D01*
X022095Y016157D01*
X022043Y016110D01*
X021993Y016060D01*
X021947Y016008D01*
X021903Y015954D01*
X021862Y015896D01*
X021825Y015837D01*
X021791Y015776D01*
X021761Y015713D01*
X021734Y015648D01*
X021710Y015582D01*
X021691Y015515D01*
X021675Y015446D01*
X021664Y015377D01*
X021656Y015308D01*
X021652Y015238D01*
X021651Y015168D01*
X021655Y015098D01*
X021663Y015028D01*
X021675Y014959D01*
X021690Y014891D01*
X021709Y014824D01*
X021732Y014757D01*
X021759Y014693D01*
X021789Y014629D01*
X021823Y014568D01*
X021860Y014509D01*
X021901Y014451D01*
X021944Y014397D01*
X021991Y014344D01*
X022040Y014295D01*
X022092Y014248D01*
X022147Y014204D01*
X022152Y014211D01*
X022098Y014255D01*
X022046Y014301D01*
X021997Y014350D01*
X021951Y014402D01*
X021908Y014457D01*
X021868Y014514D01*
X021831Y014573D01*
X021797Y014634D01*
X021767Y014696D01*
X021741Y014761D01*
X021718Y014826D01*
X021699Y014893D01*
X021683Y014961D01*
X021672Y015030D01*
X021664Y015099D01*
X021660Y015168D01*
X021661Y015238D01*
X021665Y015307D01*
X021672Y015376D01*
X021684Y015445D01*
X021700Y015512D01*
X021719Y015579D01*
X021742Y015645D01*
X021769Y015709D01*
X021799Y015772D01*
X021833Y015833D01*
X021870Y015891D01*
X021910Y015948D01*
X021953Y016002D01*
X022000Y016054D01*
X022049Y016103D01*
X022101Y016150D01*
X022155Y016193D01*
X022212Y016233D01*
X022271Y016270D01*
X022332Y016304D01*
X022395Y016334D01*
X022459Y016361D01*
X022524Y016384D01*
X022591Y016403D01*
X022659Y016418D01*
X022728Y016430D01*
X022797Y016438D01*
X022866Y016442D01*
X022936Y016442D01*
X023005Y016438D01*
X023074Y016430D01*
X023143Y016418D01*
X023211Y016403D01*
X023278Y016384D01*
X023343Y016361D01*
X023407Y016334D01*
X023470Y016304D01*
X023531Y016270D01*
X023590Y016233D01*
X023647Y016193D01*
X023701Y016150D01*
X023753Y016103D01*
X023802Y016054D01*
X023849Y016002D01*
X023892Y015948D01*
X023932Y015891D01*
X023969Y015833D01*
X024003Y015772D01*
X024033Y015709D01*
X024060Y015645D01*
X024083Y015579D01*
X024102Y015512D01*
X024118Y015445D01*
X024130Y015376D01*
X024137Y015307D01*
X024141Y015238D01*
X024142Y015168D01*
X024138Y015099D01*
X024130Y015030D01*
X024119Y014961D01*
X024103Y014893D01*
X024084Y014826D01*
X024061Y014761D01*
X024035Y014696D01*
X024005Y014634D01*
X023971Y014573D01*
X023934Y014514D01*
X023894Y014457D01*
X023851Y014402D01*
X023805Y014350D01*
X023756Y014301D01*
X023704Y014255D01*
X023650Y014211D01*
X023644Y014218D01*
X023698Y014262D01*
X023749Y014308D01*
X023798Y014357D01*
X023844Y014408D01*
X023887Y014462D01*
X023927Y014519D01*
X023963Y014577D01*
X023997Y014638D01*
X024027Y014700D01*
X024053Y014764D01*
X024075Y014829D01*
X024094Y014895D01*
X024110Y014963D01*
X024121Y015031D01*
X024129Y015099D01*
X024133Y015168D01*
X024132Y015237D01*
X024128Y015306D01*
X024121Y015375D01*
X024109Y015443D01*
X024094Y015510D01*
X024074Y015577D01*
X024051Y015642D01*
X024025Y015705D01*
X023995Y015768D01*
X023962Y015828D01*
X023925Y015886D01*
X023885Y015943D01*
X023842Y015997D01*
X023796Y016048D01*
X023747Y016097D01*
X023695Y016143D01*
X023641Y016186D01*
X023585Y016226D01*
X023526Y016262D01*
X023466Y016296D01*
X023404Y016326D01*
X023340Y016352D01*
X023275Y016375D01*
X023208Y016394D01*
X023141Y016409D01*
X023073Y016421D01*
X023004Y016429D01*
X022936Y016433D01*
X022866Y016433D01*
X022798Y016429D01*
X022729Y016421D01*
X022661Y016409D01*
X022594Y016394D01*
X022527Y016375D01*
X022462Y016352D01*
X022398Y016326D01*
X022336Y016296D01*
X022276Y016262D01*
X022217Y016226D01*
X022161Y016186D01*
X022107Y016143D01*
X022055Y016097D01*
X022006Y016048D01*
X021960Y015997D01*
X021917Y015943D01*
X021877Y015886D01*
X021840Y015828D01*
X021807Y015768D01*
X021777Y015705D01*
X021751Y015642D01*
X021728Y015577D01*
X021708Y015510D01*
X021693Y015443D01*
X021681Y015375D01*
X021674Y015306D01*
X021670Y015237D01*
X021669Y015168D01*
X021673Y015099D01*
X021681Y015031D01*
X021692Y014963D01*
X021708Y014895D01*
X021727Y014829D01*
X021749Y014764D01*
X021775Y014700D01*
X021805Y014638D01*
X021839Y014577D01*
X021875Y014519D01*
X021915Y014462D01*
X021958Y014408D01*
X022004Y014357D01*
X022053Y014308D01*
X022104Y014262D01*
X022158Y014218D01*
X022163Y014226D01*
X022109Y014269D01*
X022058Y014315D01*
X022009Y014365D01*
X021963Y014416D01*
X021920Y014471D01*
X021880Y014528D01*
X021844Y014586D01*
X021810Y014647D01*
X021781Y014710D01*
X021755Y014774D01*
X021733Y014840D01*
X021714Y014907D01*
X021699Y014974D01*
X021688Y015043D01*
X021681Y015112D01*
X021678Y015181D01*
X021679Y015250D01*
X021684Y015320D01*
X021692Y015388D01*
X021705Y015456D01*
X021721Y015524D01*
X021742Y015590D01*
X021765Y015655D01*
X021793Y015719D01*
X021824Y015781D01*
X021859Y015841D01*
X021897Y015899D01*
X021938Y015955D01*
X021982Y016008D01*
X022029Y016059D01*
X022079Y016107D01*
X022132Y016152D01*
X022187Y016194D01*
X022244Y016233D01*
X022304Y016268D01*
X022365Y016300D01*
X022428Y016329D01*
X022493Y016354D01*
X022559Y016375D01*
X022626Y016393D01*
X022694Y016406D01*
X022763Y016416D01*
X022832Y016422D01*
X022901Y016424D01*
X022970Y016422D01*
X023039Y016416D01*
X023108Y016406D01*
X023176Y016393D01*
X023243Y016375D01*
X023309Y016354D01*
X023374Y016329D01*
X023437Y016300D01*
X023498Y016268D01*
X023558Y016233D01*
X023615Y016194D01*
X023670Y016152D01*
X023723Y016107D01*
X023773Y016059D01*
X023820Y016008D01*
X023864Y015955D01*
X023905Y015899D01*
X023943Y015841D01*
X023978Y015781D01*
X024009Y015719D01*
X024037Y015655D01*
X024060Y015590D01*
X024081Y015524D01*
X024097Y015456D01*
X024110Y015388D01*
X024118Y015320D01*
X024123Y015250D01*
X024124Y015181D01*
X024121Y015112D01*
X024114Y015043D01*
X024103Y014974D01*
X024088Y014907D01*
X024069Y014840D01*
X024047Y014774D01*
X024021Y014710D01*
X023992Y014647D01*
X023958Y014586D01*
X023922Y014528D01*
X023882Y014471D01*
X023839Y014416D01*
X023793Y014365D01*
X023744Y014315D01*
X023693Y014269D01*
X023639Y014226D01*
X023633Y014233D01*
X023687Y014276D01*
X023738Y014322D01*
X023787Y014371D01*
X023832Y014422D01*
X023875Y014476D01*
X023914Y014533D01*
X023951Y014591D01*
X023984Y014651D01*
X024013Y014714D01*
X024039Y014777D01*
X024061Y014843D01*
X024079Y014909D01*
X024094Y014976D01*
X024105Y015044D01*
X024112Y015113D01*
X024115Y015181D01*
X024114Y015250D01*
X024109Y015319D01*
X024101Y015387D01*
X024088Y015455D01*
X024072Y015521D01*
X024052Y015587D01*
X024028Y015652D01*
X024001Y015715D01*
X023970Y015776D01*
X023936Y015836D01*
X023898Y015894D01*
X023857Y015949D01*
X023813Y016002D01*
X023766Y016052D01*
X023717Y016100D01*
X023665Y016145D01*
X023610Y016187D01*
X023553Y016225D01*
X023494Y016260D01*
X023433Y016292D01*
X023370Y016321D01*
X023306Y016345D01*
X023240Y016367D01*
X023174Y016384D01*
X023106Y016397D01*
X023038Y016407D01*
X022970Y016413D01*
X022901Y016415D01*
X022832Y016413D01*
X022764Y016407D01*
X022696Y016397D01*
X022628Y016384D01*
X022562Y016367D01*
X022496Y016345D01*
X022432Y016321D01*
X022369Y016292D01*
X022308Y016260D01*
X022249Y016225D01*
X022192Y016187D01*
X022137Y016145D01*
X022085Y016100D01*
X022036Y016052D01*
X021989Y016002D01*
X021945Y015949D01*
X021904Y015894D01*
X021866Y015836D01*
X021832Y015776D01*
X021801Y015715D01*
X021774Y015652D01*
X021750Y015587D01*
X021730Y015521D01*
X021714Y015455D01*
X021701Y015387D01*
X021693Y015319D01*
X021688Y015250D01*
X021687Y015181D01*
X021690Y015113D01*
X021697Y015044D01*
X021708Y014976D01*
X021723Y014909D01*
X021741Y014843D01*
X021763Y014777D01*
X021789Y014714D01*
X021818Y014651D01*
X021851Y014591D01*
X021888Y014533D01*
X021927Y014476D01*
X021970Y014422D01*
X022015Y014371D01*
X022064Y014322D01*
X022115Y014276D01*
X022169Y014233D01*
X011831Y003509D02*
X011856Y003484D01*
X011856Y003433D01*
X011831Y003408D01*
X011831Y003361D02*
X011856Y003336D01*
X011856Y003286D01*
X011831Y003261D01*
X011731Y003261D01*
X011706Y003286D01*
X011706Y003336D01*
X011731Y003361D01*
X011731Y003408D02*
X011706Y003433D01*
X011706Y003484D01*
X011731Y003509D01*
X011756Y003509D01*
X011781Y003484D01*
X011806Y003509D01*
X011831Y003509D01*
X011781Y003484D02*
X011781Y003459D01*
D18*
X017721Y002018D02*
X017721Y001558D01*
X017721Y001711D02*
X017951Y001711D01*
X018028Y001788D01*
X018028Y001941D01*
X017951Y002018D01*
X017721Y002018D01*
X017874Y001711D02*
X018028Y001558D01*
X018181Y001558D02*
X018488Y001558D01*
X018641Y001558D02*
X018948Y001558D01*
X019102Y001558D02*
X019102Y001865D01*
X019255Y002018D01*
X019409Y001865D01*
X019409Y001558D01*
X019409Y001788D02*
X019102Y001788D01*
X018641Y002018D02*
X018641Y001558D01*
X018335Y001788D02*
X018181Y001788D01*
X018181Y002018D02*
X018181Y001558D01*
X018181Y002018D02*
X018488Y002018D01*
X019562Y002018D02*
X019562Y001941D01*
X019716Y001788D01*
X019716Y001558D01*
X019716Y001788D02*
X019869Y001941D01*
X019869Y002018D01*
D19*
X013176Y014491D03*
X012966Y014491D03*
X013226Y015511D03*
X013866Y015511D03*
X013866Y015521D03*
X013866Y015541D03*
X013866Y015551D03*
X013866Y015561D03*
X013866Y015581D03*
X013866Y015591D03*
X013866Y015611D03*
X013866Y015641D03*
X013866Y015701D03*
X013866Y015501D03*
X013866Y015451D03*
X012976Y016341D03*
D20*
X013861Y015741D03*
X013861Y015711D03*
X013861Y015681D03*
X013861Y015661D03*
X013861Y015491D03*
X013861Y015471D03*
X013861Y015461D03*
X013861Y015411D03*
X013861Y015401D03*
X013181Y014501D03*
X013071Y014491D03*
D21*
X012956Y014501D03*
X013216Y015461D03*
X013216Y015471D03*
X013216Y015481D03*
X013216Y015491D03*
X013856Y015421D03*
X013856Y015391D03*
D22*
X013071Y014501D03*
D23*
X013071Y014511D03*
X013731Y014931D03*
X013731Y014941D03*
X013741Y014951D03*
X013751Y014961D03*
X014041Y015431D03*
X013371Y015901D03*
X013401Y015931D03*
X013431Y015961D03*
X013461Y015991D03*
X013341Y015871D03*
X013021Y015551D03*
X012981Y015511D03*
X012951Y015481D03*
X012841Y015371D03*
X012801Y015331D03*
X012771Y015301D03*
X012741Y015271D03*
X012711Y015241D03*
X012681Y015211D03*
X012651Y015181D03*
X012411Y014941D03*
X012421Y016221D03*
D24*
X012866Y016321D03*
X013166Y016341D03*
X013276Y016321D03*
X013306Y016311D03*
X013296Y016631D03*
X013856Y015831D03*
X014036Y015381D03*
X013236Y015531D03*
X013296Y014831D03*
X013246Y014821D03*
X012896Y014821D03*
X012826Y014521D03*
X013316Y014521D03*
D25*
X013071Y014521D03*
X012451Y014901D03*
X012431Y014921D03*
X012421Y014931D03*
X012411Y014951D03*
X013031Y015571D03*
X013711Y014921D03*
D26*
X013556Y014821D03*
X013076Y014531D03*
X012586Y014821D03*
X012426Y015031D03*
X012586Y016331D03*
X013556Y016331D03*
D27*
X013691Y016111D03*
X013691Y016101D03*
X013131Y015771D03*
X012791Y015431D03*
X012641Y014801D03*
X013071Y014541D03*
X013501Y014801D03*
D28*
X013501Y014931D03*
X013391Y014871D03*
X013321Y014841D03*
X013421Y014551D03*
X012801Y014851D03*
X012751Y014871D03*
X012731Y014881D03*
X012691Y014901D03*
X012721Y014551D03*
X012271Y015831D03*
X012221Y015831D03*
X012191Y015831D03*
X012161Y015831D03*
X012121Y015831D03*
X012781Y016291D03*
X012841Y016311D03*
X013361Y016291D03*
X013471Y016581D03*
X013381Y016611D03*
D29*
X013691Y016091D03*
X013141Y015791D03*
X012441Y015091D03*
X013071Y014551D03*
D30*
X013071Y014561D03*
D31*
X013076Y014571D03*
D32*
X013071Y014581D03*
D33*
X013071Y014591D03*
D34*
X013071Y014601D03*
D35*
X013071Y014611D03*
D36*
X013071Y014621D03*
D37*
X013071Y014631D03*
D38*
X013076Y014641D03*
D39*
X013071Y014651D03*
D40*
X013071Y014661D03*
D41*
X013076Y014671D03*
D42*
X013071Y014681D03*
D43*
X013071Y014691D03*
X013071Y016461D03*
D44*
X013071Y016441D03*
X013071Y014701D03*
D45*
X013071Y014711D03*
D46*
X013071Y014721D03*
X013071Y016431D03*
D47*
X013076Y014731D03*
D48*
X013076Y014741D03*
D49*
X013071Y014751D03*
X013071Y016401D03*
D50*
X013071Y014761D03*
D51*
X013071Y014771D03*
D52*
X013076Y014781D03*
D53*
X013076Y014791D03*
D54*
X013021Y014801D03*
X012041Y015471D03*
X012041Y015691D03*
X012041Y015731D03*
X012041Y015741D03*
D55*
X012046Y015751D03*
X012046Y015771D03*
X012046Y015711D03*
X012046Y015701D03*
X012056Y015831D03*
X013126Y014801D03*
X013856Y015381D03*
D56*
X013821Y015811D03*
X013821Y015821D03*
X013701Y016131D03*
X013061Y016611D03*
X012771Y015391D03*
X012431Y015051D03*
X012611Y014811D03*
X013531Y014811D03*
D57*
X013201Y014811D03*
X012941Y014811D03*
X014071Y015381D03*
X014111Y015381D03*
X013891Y015831D03*
X013241Y016331D03*
X013251Y016641D03*
X013191Y016651D03*
X012951Y016651D03*
X012891Y016641D03*
X012851Y016631D03*
X012901Y016331D03*
D58*
X012566Y016321D03*
X013576Y016321D03*
X013706Y016161D03*
X012426Y015021D03*
X012576Y014831D03*
X012036Y015411D03*
X012036Y015421D03*
X012036Y015431D03*
D59*
X012416Y015001D03*
X013586Y014831D03*
X012536Y016301D03*
X013596Y016311D03*
D60*
X013701Y016171D03*
X012551Y016311D03*
X012031Y015451D03*
X012031Y015441D03*
X012031Y015401D03*
X012421Y015011D03*
X012561Y014841D03*
D61*
X013601Y014841D03*
X013611Y014851D03*
X012271Y015781D03*
X012271Y015791D03*
X013601Y016301D03*
D62*
X013631Y016291D03*
X013711Y016191D03*
X012511Y016291D03*
X012531Y014851D03*
D63*
X012516Y014861D03*
X012416Y014991D03*
X012276Y015811D03*
X012506Y016281D03*
X013636Y016281D03*
X013706Y016181D03*
X013626Y014861D03*
D64*
X013651Y014871D03*
X013051Y015611D03*
X012491Y016271D03*
X012491Y014871D03*
D65*
X012476Y014881D03*
X012476Y014891D03*
X012416Y014971D03*
X013006Y015501D03*
X013046Y015601D03*
X012466Y016251D03*
X012476Y016261D03*
X013666Y016261D03*
X013686Y014901D03*
X013676Y014891D03*
X013666Y014881D03*
D66*
X013696Y014911D03*
X013016Y015521D03*
X013036Y015581D03*
X012436Y016231D03*
X013696Y016241D03*
X013706Y016231D03*
X013706Y016221D03*
X012446Y014911D03*
D67*
X012411Y014961D03*
X013041Y015591D03*
X012451Y016241D03*
X013681Y016251D03*
X013711Y016211D03*
D68*
X013076Y016631D03*
X013386Y015451D03*
X013386Y015441D03*
X013386Y015431D03*
X013386Y015421D03*
X013386Y015411D03*
X013386Y015401D03*
X013386Y015391D03*
X013796Y015011D03*
X013766Y014971D03*
D69*
X012416Y014981D03*
X013706Y016201D03*
X013656Y016271D03*
D70*
X014051Y015441D03*
X013791Y015001D03*
X013781Y014991D03*
X013771Y014981D03*
X012381Y016181D03*
D71*
X012336Y016131D03*
X012326Y016121D03*
X012316Y016111D03*
X012306Y016081D03*
X012296Y016071D03*
X013836Y015061D03*
X013846Y015071D03*
X013816Y015031D03*
X013816Y015021D03*
D72*
X012426Y015041D03*
X013696Y016141D03*
D73*
X012351Y016151D03*
X012341Y016141D03*
X013821Y015041D03*
X013831Y015051D03*
D74*
X012781Y015411D03*
X012431Y015061D03*
X013521Y016341D03*
D75*
X012626Y016341D03*
X012786Y015421D03*
X012436Y015071D03*
D76*
X012436Y015081D03*
X012796Y015441D03*
X013136Y015781D03*
D77*
X013886Y016011D03*
X013896Y015991D03*
X014076Y015451D03*
X014076Y015421D03*
X014076Y015411D03*
X014076Y015401D03*
X014076Y015391D03*
X013886Y015141D03*
X013886Y015131D03*
X013866Y015091D03*
X013856Y015081D03*
X012266Y016021D03*
X012266Y016031D03*
X012276Y016041D03*
X012276Y016051D03*
D78*
X012661Y016351D03*
X013071Y016601D03*
X013481Y016351D03*
X013681Y016081D03*
X013151Y015811D03*
X012441Y015101D03*
D79*
X012291Y016061D03*
X012301Y016091D03*
X012311Y016101D03*
X013861Y015101D03*
X013871Y015111D03*
D80*
X013156Y015821D03*
X013686Y016071D03*
X012446Y015111D03*
D81*
X012446Y015121D03*
D82*
X012241Y015161D03*
X012241Y015171D03*
X012231Y015191D03*
X012231Y015961D03*
X012241Y015971D03*
X012251Y015991D03*
X012261Y016011D03*
X013891Y015151D03*
X013881Y015121D03*
X013921Y015201D03*
X013911Y015961D03*
X013901Y015981D03*
D83*
X012451Y015131D03*
D84*
X012451Y015141D03*
X013071Y016591D03*
D85*
X013676Y016031D03*
X012456Y015151D03*
D86*
X012636Y015161D03*
X012646Y015171D03*
X012666Y015191D03*
X012676Y015201D03*
X012696Y015221D03*
X012706Y015231D03*
X012726Y015251D03*
X012736Y015261D03*
X012756Y015281D03*
X012766Y015291D03*
X012786Y015311D03*
X012796Y015321D03*
X012816Y015341D03*
X012826Y015351D03*
X012836Y015361D03*
X012856Y015381D03*
X012926Y015451D03*
X012936Y015461D03*
X012946Y015471D03*
X012966Y015491D03*
X013006Y015531D03*
X013096Y015621D03*
X013106Y015631D03*
X013116Y015641D03*
X013126Y015651D03*
X013136Y015661D03*
X013146Y015671D03*
X013156Y015681D03*
X013166Y015691D03*
X013176Y015701D03*
X013186Y015711D03*
X013196Y015721D03*
X013206Y015731D03*
X013216Y015741D03*
X013226Y015751D03*
X013236Y015761D03*
X013306Y015831D03*
X013316Y015841D03*
X013326Y015851D03*
X013336Y015861D03*
X013356Y015881D03*
X013366Y015891D03*
X013386Y015911D03*
X013396Y015921D03*
X013416Y015941D03*
X013426Y015951D03*
X013446Y015971D03*
X013456Y015981D03*
X013476Y016001D03*
X013486Y016011D03*
X012396Y016191D03*
X012376Y016171D03*
X012366Y016161D03*
D87*
X012246Y016001D03*
X012236Y015981D03*
X012226Y015941D03*
X012216Y015921D03*
X012206Y015901D03*
X012196Y015271D03*
X012206Y015251D03*
X012216Y015231D03*
X012226Y015211D03*
X012226Y015181D03*
X013896Y016001D03*
X013906Y015971D03*
X013916Y015951D03*
X013926Y015941D03*
X013936Y015901D03*
X013946Y015881D03*
X013936Y015241D03*
X013926Y015211D03*
X013906Y015191D03*
X013906Y015171D03*
X013906Y015161D03*
D88*
X013911Y015181D03*
X013921Y015221D03*
X013941Y015251D03*
X013941Y015261D03*
X013951Y015291D03*
X013961Y015311D03*
X013971Y015341D03*
X013971Y015351D03*
X013951Y015861D03*
X013941Y015911D03*
X013931Y015921D03*
X013931Y015931D03*
X012211Y015931D03*
X012201Y015881D03*
X012191Y015871D03*
X012191Y015851D03*
X012171Y015361D03*
X012181Y015321D03*
X012181Y015311D03*
X012191Y015301D03*
X012211Y015221D03*
X012221Y015201D03*
D89*
X012206Y015241D03*
X012186Y015281D03*
X012176Y015331D03*
X012176Y015351D03*
X012146Y015521D03*
X012146Y015541D03*
X012146Y015601D03*
X012156Y015721D03*
X012176Y015841D03*
X012196Y015891D03*
X012206Y015911D03*
X012226Y015951D03*
X013946Y015891D03*
X013956Y015871D03*
X013956Y015851D03*
X013966Y015841D03*
X013986Y015731D03*
X013986Y015721D03*
X013996Y015671D03*
X013996Y015481D03*
X013976Y015361D03*
X013966Y015331D03*
X013956Y015321D03*
X013966Y015301D03*
X013956Y015281D03*
X013946Y015271D03*
X013936Y015231D03*
D90*
X013981Y015371D03*
X014001Y015631D03*
X014001Y015651D03*
X013991Y015691D03*
X013981Y015761D03*
X013071Y016641D03*
X012191Y015861D03*
X012161Y015761D03*
X012151Y015681D03*
X012141Y015561D03*
X012161Y015371D03*
X012171Y015341D03*
X012191Y015291D03*
X012201Y015261D03*
D91*
X012081Y015381D03*
D92*
X012236Y015381D03*
X014036Y015831D03*
D93*
X013961Y015381D03*
D94*
X013701Y016151D03*
X013071Y016621D03*
X012041Y015391D03*
D95*
X012776Y015401D03*
X013826Y015771D03*
X013826Y015781D03*
X013826Y015791D03*
X013826Y015801D03*
X013696Y016121D03*
D96*
X014016Y015461D03*
X012586Y015451D03*
D97*
X012156Y015461D03*
X012146Y015481D03*
X012146Y015661D03*
X012146Y015671D03*
X013986Y015751D03*
X013996Y015621D03*
X013996Y015601D03*
X013996Y015571D03*
X013996Y015531D03*
D98*
X013551Y015531D03*
X013551Y015541D03*
X013551Y015551D03*
X013551Y015561D03*
X013551Y015571D03*
X013551Y015581D03*
X013551Y015591D03*
X013551Y015601D03*
X013551Y015611D03*
X013551Y015621D03*
X013551Y015631D03*
X013551Y015641D03*
X013551Y015651D03*
X013551Y015661D03*
X013551Y015671D03*
X013551Y015681D03*
X013551Y015691D03*
X013551Y015701D03*
X013551Y015711D03*
X013551Y015721D03*
X013551Y015731D03*
X013551Y015741D03*
X013551Y015751D03*
X013551Y015761D03*
X013551Y015521D03*
X013551Y015511D03*
X013551Y015501D03*
X013551Y015491D03*
X013551Y015481D03*
X013551Y015471D03*
X013551Y015461D03*
X012841Y015621D03*
X012841Y015631D03*
X012841Y015641D03*
X012841Y015651D03*
X012841Y015661D03*
X012841Y015671D03*
X012841Y015681D03*
X012841Y015691D03*
X012841Y015701D03*
X012841Y015711D03*
X012841Y015721D03*
X012841Y015731D03*
X012841Y015741D03*
X012841Y015751D03*
X012841Y015761D03*
X012501Y015761D03*
X012501Y015751D03*
X012501Y015741D03*
X012501Y015731D03*
X012501Y015721D03*
X012501Y015711D03*
X012501Y015701D03*
X012501Y015691D03*
X012501Y015681D03*
X012501Y015671D03*
X012501Y015661D03*
X012501Y015651D03*
X012501Y015641D03*
X012501Y015631D03*
X012501Y015621D03*
X012501Y015611D03*
X012501Y015601D03*
X012501Y015591D03*
X012501Y015581D03*
X012501Y015571D03*
X012501Y015561D03*
X012501Y015551D03*
X012501Y015541D03*
X012501Y015531D03*
X012501Y015521D03*
X012501Y015511D03*
X012501Y015501D03*
X012501Y015491D03*
X012501Y015481D03*
X012501Y015471D03*
X012501Y015461D03*
X012051Y015801D03*
X012051Y015821D03*
D99*
X012201Y015751D03*
X012201Y015741D03*
X012201Y015691D03*
X012201Y015641D03*
X012201Y015631D03*
X012201Y015621D03*
X012201Y015611D03*
X012201Y015531D03*
X012201Y015511D03*
X012201Y015471D03*
D100*
X014021Y015471D03*
X014021Y015541D03*
X014021Y015551D03*
X014021Y015561D03*
X014021Y015581D03*
X014021Y015591D03*
X014021Y015611D03*
X014021Y015681D03*
X014021Y015701D03*
X014021Y015711D03*
X014021Y015741D03*
D101*
X012036Y015651D03*
X012036Y015641D03*
X012036Y015631D03*
X012036Y015621D03*
X012036Y015611D03*
X012036Y015591D03*
X012036Y015581D03*
X012036Y015571D03*
X012036Y015551D03*
X012036Y015531D03*
X012036Y015511D03*
X012036Y015501D03*
X012036Y015491D03*
D102*
X012196Y015491D03*
X012196Y015501D03*
X012196Y015551D03*
X012196Y015571D03*
X012196Y015581D03*
X012196Y015591D03*
X012196Y015651D03*
D103*
X014026Y015661D03*
X014026Y015641D03*
X014026Y015521D03*
X014026Y015511D03*
X014026Y015501D03*
X014026Y015491D03*
D104*
X013026Y015541D03*
X013026Y015561D03*
X012316Y015771D03*
X012316Y015801D03*
X012316Y015821D03*
X012406Y016201D03*
X012416Y016211D03*
D105*
X012206Y015731D03*
X012206Y015711D03*
X012206Y015701D03*
D106*
X013146Y015801D03*
D107*
X013666Y016021D03*
X013066Y016581D03*
D108*
X013676Y016051D03*
X013676Y016041D03*
D109*
X013681Y016061D03*
D110*
X013071Y016361D03*
D111*
X013071Y016371D03*
D112*
X013076Y016381D03*
D113*
X013076Y016391D03*
D114*
X013071Y016411D03*
D115*
X013066Y016421D03*
D116*
X013071Y016451D03*
D117*
X013071Y016471D03*
D118*
X013071Y016481D03*
D119*
X013066Y016491D03*
D120*
X013076Y016501D03*
D121*
X013071Y016511D03*
D122*
X013071Y016521D03*
D123*
X013071Y016531D03*
D124*
X013071Y016541D03*
D125*
X013076Y016551D03*
D126*
X013071Y016561D03*
D127*
X013071Y016571D03*
D128*
X013071Y016651D03*
M02*
