G75*
G70*
%OFA0B0*%
%FSLAX24Y24*%
%IPPOS*%
%LPD*%
%AMOC8*
5,1,8,0,0,1.08239X$1,22.5*
%
%ADD10C,0.0060*%
%ADD11C,0.0080*%
%ADD12C,0.0050*%
%ADD13C,0.0160*%
%ADD14C,0.0010*%
D10*
X009887Y000762D02*
X009887Y001062D01*
X009904Y001062D01*
X009904Y001262D01*
X009887Y001262D01*
X009887Y001512D01*
X010851Y001512D01*
X010851Y002912D01*
X010851Y003212D01*
X010851Y002912D02*
X010001Y002912D01*
X010001Y004762D01*
X010851Y004762D01*
X010851Y004312D01*
X010851Y004762D02*
X013101Y004762D01*
X013101Y005562D01*
X012601Y005562D01*
X012601Y006312D01*
X013101Y006312D01*
X013101Y006562D01*
X013601Y006562D01*
X013601Y007162D01*
X014101Y007162D01*
X014101Y006562D01*
X014601Y006562D01*
X014601Y006262D01*
X015101Y006262D01*
X015101Y005512D01*
X014601Y005512D01*
X014601Y004762D01*
X013101Y004762D01*
X013101Y005562D02*
X013101Y006312D01*
X013101Y006562D02*
X013101Y007162D01*
X013601Y007162D01*
X014101Y007162D02*
X014601Y007162D01*
X014601Y006562D01*
X014601Y006262D02*
X014601Y005512D01*
X014601Y004762D02*
X016851Y004762D01*
X016851Y004312D01*
X016851Y004762D02*
X017701Y004762D01*
X017701Y002912D01*
X016851Y002912D01*
X016851Y003212D01*
X016851Y002912D02*
X016851Y001512D01*
X015301Y001512D01*
X014401Y001512D02*
X013301Y001512D01*
X012401Y001512D02*
X010901Y001512D01*
X009887Y000762D02*
X017780Y000762D01*
X017780Y001062D01*
X017775Y001102D01*
X017775Y001302D01*
X017780Y001262D01*
X017780Y001512D01*
X016851Y001512D01*
X019064Y001376D02*
X019064Y000736D01*
X019491Y000736D02*
X019491Y001376D01*
X019277Y001163D01*
X019064Y001376D01*
X019708Y001376D02*
X019922Y001376D01*
X019815Y001376D02*
X019815Y000736D01*
X019708Y000736D02*
X019922Y000736D01*
X020138Y000736D02*
X020458Y000736D01*
X020565Y000842D01*
X020565Y001269D01*
X020458Y001376D01*
X020138Y001376D01*
X020138Y000736D01*
X020782Y000736D02*
X020996Y000736D01*
X020889Y000736D02*
X020889Y001376D01*
X020782Y001376D02*
X020996Y001376D01*
X021856Y001163D02*
X021963Y001163D01*
X021963Y000736D01*
X021856Y000736D02*
X022070Y000736D01*
X022286Y000736D02*
X022286Y001163D01*
X022606Y001163D01*
X022713Y001056D01*
X022713Y000736D01*
X021963Y001376D02*
X021963Y001483D01*
X021601Y005156D02*
X021601Y007456D01*
X024601Y007456D01*
X024601Y006706D01*
X024562Y006704D01*
X024523Y006698D01*
X024485Y006689D01*
X024448Y006676D01*
X024412Y006659D01*
X024379Y006639D01*
X024347Y006615D01*
X024318Y006589D01*
X024292Y006560D01*
X024268Y006528D01*
X024248Y006495D01*
X024231Y006459D01*
X024218Y006422D01*
X024209Y006384D01*
X024203Y006345D01*
X024201Y006306D01*
X024203Y006267D01*
X024209Y006228D01*
X024218Y006190D01*
X024231Y006153D01*
X024248Y006117D01*
X024268Y006084D01*
X024292Y006052D01*
X024318Y006023D01*
X024347Y005997D01*
X024379Y005973D01*
X024412Y005953D01*
X024448Y005936D01*
X024485Y005923D01*
X024523Y005914D01*
X024562Y005908D01*
X024601Y005906D01*
X024601Y005156D01*
X021601Y005156D01*
X017701Y004762D02*
X017301Y006262D01*
X021601Y010706D02*
X021601Y012906D01*
X007001Y012906D01*
X007001Y012056D01*
X007031Y012054D01*
X007061Y012049D01*
X007090Y012040D01*
X007117Y012027D01*
X007143Y012012D01*
X007167Y011993D01*
X007188Y011972D01*
X007207Y011948D01*
X007222Y011922D01*
X007235Y011895D01*
X007244Y011866D01*
X007249Y011836D01*
X007251Y011806D01*
X007249Y011776D01*
X007244Y011746D01*
X007235Y011717D01*
X007222Y011690D01*
X007207Y011664D01*
X007188Y011640D01*
X007167Y011619D01*
X007143Y011600D01*
X007117Y011585D01*
X007090Y011572D01*
X007061Y011563D01*
X007031Y011558D01*
X007001Y011556D01*
X007001Y010706D01*
X021601Y010706D01*
X026530Y011181D02*
X027171Y011181D01*
X027171Y011501D01*
X027064Y011608D01*
X026851Y011608D01*
X026744Y011501D01*
X026744Y011181D01*
X026851Y010963D02*
X027171Y010963D01*
X027171Y010643D01*
X027064Y010536D01*
X026957Y010643D01*
X026957Y010963D01*
X026851Y010963D02*
X026744Y010856D01*
X026744Y010643D01*
X026530Y010213D02*
X027171Y010213D01*
X027171Y010106D02*
X027171Y010320D01*
X027171Y009889D02*
X027171Y009569D01*
X027064Y009462D01*
X026851Y009462D01*
X026744Y009569D01*
X026744Y009889D01*
X026530Y009889D02*
X027171Y009889D01*
X027171Y009244D02*
X026744Y009244D01*
X026744Y008817D02*
X027064Y008817D01*
X027171Y008924D01*
X027171Y009244D01*
X026744Y008600D02*
X026744Y008494D01*
X026957Y008280D01*
X026744Y008280D02*
X027171Y008280D01*
X027064Y008063D02*
X027171Y007956D01*
X027171Y007742D01*
X027064Y007636D01*
X026637Y007636D01*
X026530Y007742D01*
X026530Y007956D01*
X026637Y008063D01*
X026530Y010106D02*
X026530Y010213D01*
X026851Y011825D02*
X026744Y011932D01*
X026744Y012252D01*
X026957Y012145D02*
X026957Y011932D01*
X026851Y011825D01*
X026957Y012145D02*
X027064Y012252D01*
X027171Y012145D01*
X027171Y011825D01*
X027171Y013114D02*
X026744Y013541D01*
X026637Y013541D01*
X026530Y013434D01*
X026530Y013221D01*
X026637Y013114D01*
X027171Y013114D02*
X027171Y013541D01*
X027064Y013759D02*
X026637Y014186D01*
X027064Y014186D01*
X027171Y014079D01*
X027171Y013865D01*
X027064Y013759D01*
X026637Y013759D01*
X026530Y013865D01*
X026530Y014079D01*
X026637Y014186D01*
X026744Y014403D02*
X026530Y014617D01*
X027171Y014617D01*
X027171Y014830D02*
X027171Y014403D01*
X027171Y015048D02*
X026744Y015475D01*
X026637Y015475D01*
X026530Y015368D01*
X026530Y015154D01*
X026637Y015048D01*
X027171Y015048D02*
X027171Y015475D01*
X027064Y019636D02*
X026851Y019636D01*
X026744Y019742D01*
X026744Y020063D01*
X026744Y020280D02*
X027171Y020280D01*
X026957Y020280D02*
X026744Y020494D01*
X026744Y020600D01*
X026744Y020817D02*
X027064Y020817D01*
X027171Y020924D01*
X027171Y021244D01*
X026744Y021244D01*
X026851Y021462D02*
X026744Y021569D01*
X026744Y021889D01*
X026530Y021889D02*
X027171Y021889D01*
X027171Y021569D01*
X027064Y021462D01*
X026851Y021462D01*
X026851Y022751D02*
X027064Y022751D01*
X027171Y022858D01*
X027171Y023071D01*
X027064Y023178D01*
X026851Y023178D01*
X026744Y023071D01*
X026744Y022858D01*
X026851Y022751D01*
X026744Y023395D02*
X027064Y023395D01*
X027171Y023502D01*
X027171Y023822D01*
X026744Y023822D01*
X026744Y024040D02*
X026744Y024253D01*
X026637Y024147D02*
X027064Y024147D01*
X027171Y024253D01*
X024690Y026199D02*
X023726Y026199D01*
X023726Y024799D01*
X023726Y024499D01*
X023726Y024799D02*
X024576Y024799D01*
X024576Y022949D01*
X023726Y022949D01*
X023726Y023399D01*
X023726Y022949D02*
X021476Y022949D01*
X021476Y022149D01*
X021976Y022149D01*
X021976Y021399D01*
X021476Y021399D01*
X021476Y021149D01*
X020976Y021149D01*
X020976Y020549D01*
X020476Y020549D01*
X020476Y021149D01*
X019976Y021149D01*
X019976Y021449D01*
X019476Y021449D01*
X019476Y022199D01*
X019976Y022199D01*
X019976Y022949D01*
X021476Y022949D01*
X021476Y022149D02*
X021476Y021399D01*
X021476Y021149D02*
X021476Y020549D01*
X020976Y020549D01*
X020476Y020549D02*
X019976Y020549D01*
X019976Y021149D01*
X019976Y021449D02*
X019976Y022199D01*
X019976Y022949D02*
X017726Y022949D01*
X017726Y023399D01*
X017726Y022949D02*
X016876Y022949D01*
X016876Y024799D01*
X017726Y024799D01*
X017726Y024499D01*
X017726Y024799D02*
X017726Y026199D01*
X019276Y026199D01*
X020176Y026199D02*
X021276Y026199D01*
X022176Y026199D02*
X023676Y026199D01*
X024690Y026199D02*
X024690Y026449D01*
X024673Y026449D01*
X024673Y026649D01*
X024690Y026649D01*
X024690Y026949D01*
X016797Y026949D01*
X016797Y026649D01*
X016801Y026610D01*
X016801Y026410D01*
X016797Y026449D01*
X016797Y026199D01*
X017726Y026199D01*
X016876Y022949D02*
X017276Y021449D01*
X014751Y017906D02*
X012451Y017906D01*
X012400Y017904D01*
X012349Y017899D01*
X012299Y017889D01*
X012249Y017876D01*
X012201Y017860D01*
X012154Y017840D01*
X012108Y017816D01*
X012065Y017790D01*
X012023Y017760D01*
X011984Y017727D01*
X011947Y017692D01*
X011913Y017654D01*
X011882Y017613D01*
X011853Y017571D01*
X011828Y017526D01*
X011807Y017480D01*
X011788Y017432D01*
X011774Y017383D01*
X011763Y017333D01*
X011755Y017283D01*
X011751Y017232D01*
X011751Y017180D01*
X011755Y017129D01*
X011763Y017079D01*
X011774Y017029D01*
X011788Y016980D01*
X011807Y016932D01*
X011828Y016886D01*
X011853Y016841D01*
X011882Y016799D01*
X011913Y016758D01*
X011947Y016720D01*
X011984Y016685D01*
X012023Y016652D01*
X012065Y016622D01*
X012108Y016596D01*
X012154Y016572D01*
X012201Y016552D01*
X012249Y016536D01*
X012299Y016523D01*
X012349Y016513D01*
X012400Y016508D01*
X012451Y016506D01*
X014751Y016506D01*
X014802Y016508D01*
X014853Y016513D01*
X014903Y016523D01*
X014953Y016536D01*
X015001Y016552D01*
X015048Y016572D01*
X015094Y016596D01*
X015137Y016622D01*
X015179Y016652D01*
X015218Y016685D01*
X015255Y016720D01*
X015289Y016758D01*
X015320Y016799D01*
X015349Y016841D01*
X015374Y016886D01*
X015395Y016932D01*
X015414Y016980D01*
X015428Y017029D01*
X015439Y017079D01*
X015447Y017129D01*
X015451Y017180D01*
X015451Y017232D01*
X015447Y017283D01*
X015439Y017333D01*
X015428Y017383D01*
X015414Y017432D01*
X015395Y017480D01*
X015374Y017526D01*
X015349Y017571D01*
X015320Y017613D01*
X015289Y017654D01*
X015255Y017692D01*
X015218Y017727D01*
X015179Y017760D01*
X015137Y017790D01*
X015094Y017816D01*
X015048Y017840D01*
X015001Y017860D01*
X014953Y017876D01*
X014903Y017889D01*
X014853Y017899D01*
X014802Y017904D01*
X014751Y017906D01*
X014101Y017206D02*
X013851Y017206D01*
X013851Y017556D01*
X013701Y017556D02*
X013701Y016856D01*
X013501Y016856D01*
X013501Y017556D01*
X013701Y017556D01*
X013351Y017556D02*
X013351Y017206D01*
X013101Y017206D01*
X013351Y017206D02*
X013351Y016856D01*
X013851Y016856D02*
X013851Y017206D01*
X010426Y021399D02*
X010826Y022949D01*
X009976Y022949D01*
X009976Y023399D01*
X009976Y022949D02*
X007726Y022949D01*
X007726Y022149D01*
X008226Y022149D01*
X008226Y021399D01*
X007726Y021399D01*
X007726Y021149D01*
X007226Y021149D01*
X007226Y020549D01*
X006726Y020549D01*
X006726Y021149D01*
X006226Y021149D01*
X006226Y021449D01*
X005726Y021449D01*
X005726Y022199D01*
X006226Y022199D01*
X006226Y022949D01*
X007726Y022949D01*
X007726Y022149D02*
X007726Y021399D01*
X007726Y021149D02*
X007726Y020549D01*
X007226Y020549D01*
X006726Y020549D02*
X006226Y020549D01*
X006226Y021149D01*
X006226Y021449D02*
X006226Y022199D01*
X006226Y022949D02*
X003976Y022949D01*
X003976Y023399D01*
X003976Y022949D02*
X003126Y022949D01*
X003126Y024799D01*
X003976Y024799D01*
X003976Y024499D01*
X003976Y024799D02*
X003976Y026199D01*
X005526Y026199D01*
X006426Y026199D02*
X007526Y026199D01*
X008426Y026199D02*
X009926Y026199D01*
X009976Y026199D02*
X009976Y024799D01*
X009976Y024499D01*
X009976Y024799D02*
X010826Y024799D01*
X010826Y022949D01*
X010940Y026199D02*
X009976Y026199D01*
X010940Y026199D02*
X010940Y026449D01*
X010923Y026449D01*
X010923Y026649D01*
X010940Y026649D01*
X010940Y026949D01*
X003047Y026949D01*
X003047Y026649D01*
X003051Y026610D01*
X003051Y026410D01*
X003047Y026449D01*
X003047Y026199D01*
X003976Y026199D01*
X001071Y023608D02*
X000751Y023608D01*
X000644Y023501D01*
X000644Y023181D01*
X001071Y023181D01*
X001071Y022964D02*
X001071Y022751D01*
X001071Y022858D02*
X000644Y022858D01*
X000644Y022751D01*
X000430Y022858D02*
X000324Y022858D01*
X000430Y021889D02*
X001071Y021889D01*
X001071Y021569D01*
X000964Y021462D01*
X000751Y021462D01*
X000644Y021569D01*
X000644Y021889D01*
X000644Y021244D02*
X001071Y021244D01*
X001071Y020924D01*
X000964Y020817D01*
X000644Y020817D01*
X000644Y020600D02*
X000644Y020494D01*
X000857Y020280D01*
X000644Y020280D02*
X001071Y020280D01*
X001071Y020063D02*
X001071Y019742D01*
X000964Y019636D01*
X000751Y019636D01*
X000644Y019742D01*
X000644Y020063D01*
X003526Y021449D02*
X003126Y022949D01*
X003601Y016106D02*
X003603Y016169D01*
X003609Y016231D01*
X003619Y016293D01*
X003632Y016355D01*
X003650Y016415D01*
X003671Y016474D01*
X003696Y016532D01*
X003725Y016588D01*
X003757Y016642D01*
X003792Y016694D01*
X003830Y016743D01*
X003872Y016791D01*
X003916Y016835D01*
X003964Y016877D01*
X004013Y016915D01*
X004065Y016950D01*
X004119Y016982D01*
X004175Y017011D01*
X004233Y017036D01*
X004292Y017057D01*
X004352Y017075D01*
X004414Y017088D01*
X004476Y017098D01*
X004538Y017104D01*
X004601Y017106D01*
X004664Y017104D01*
X004726Y017098D01*
X004788Y017088D01*
X004850Y017075D01*
X004910Y017057D01*
X004969Y017036D01*
X005027Y017011D01*
X005083Y016982D01*
X005137Y016950D01*
X005189Y016915D01*
X005238Y016877D01*
X005286Y016835D01*
X005330Y016791D01*
X005372Y016743D01*
X005410Y016694D01*
X005445Y016642D01*
X005477Y016588D01*
X005506Y016532D01*
X005531Y016474D01*
X005552Y016415D01*
X005570Y016355D01*
X005583Y016293D01*
X005593Y016231D01*
X005599Y016169D01*
X005601Y016106D01*
X005599Y016043D01*
X005593Y015981D01*
X005583Y015919D01*
X005570Y015857D01*
X005552Y015797D01*
X005531Y015738D01*
X005506Y015680D01*
X005477Y015624D01*
X005445Y015570D01*
X005410Y015518D01*
X005372Y015469D01*
X005330Y015421D01*
X005286Y015377D01*
X005238Y015335D01*
X005189Y015297D01*
X005137Y015262D01*
X005083Y015230D01*
X005027Y015201D01*
X004969Y015176D01*
X004910Y015155D01*
X004850Y015137D01*
X004788Y015124D01*
X004726Y015114D01*
X004664Y015108D01*
X004601Y015106D01*
X004538Y015108D01*
X004476Y015114D01*
X004414Y015124D01*
X004352Y015137D01*
X004292Y015155D01*
X004233Y015176D01*
X004175Y015201D01*
X004119Y015230D01*
X004065Y015262D01*
X004013Y015297D01*
X003964Y015335D01*
X003916Y015377D01*
X003872Y015421D01*
X003830Y015469D01*
X003792Y015518D01*
X003757Y015570D01*
X003725Y015624D01*
X003696Y015680D01*
X003671Y015738D01*
X003650Y015797D01*
X003632Y015857D01*
X003619Y015919D01*
X003609Y015981D01*
X003603Y016043D01*
X003601Y016106D01*
X010401Y006312D02*
X010001Y004762D01*
X024176Y021399D02*
X024576Y022949D01*
X027171Y020063D02*
X027171Y019742D01*
X027064Y019636D01*
D11*
X003135Y006995D02*
X002466Y006995D01*
X002466Y008216D01*
X003135Y008216D01*
X003135Y006995D01*
X005891Y007171D02*
X007111Y007171D01*
X007111Y007840D01*
X005891Y007840D01*
X005891Y007171D01*
X004926Y010806D02*
X004121Y010806D01*
X003326Y011156D02*
X003326Y012856D01*
X004133Y013206D02*
X004926Y013206D01*
X005726Y012856D02*
X005726Y011156D01*
X003826Y012006D02*
X003828Y012058D01*
X003834Y012110D01*
X003844Y012162D01*
X003857Y012212D01*
X003874Y012262D01*
X003895Y012310D01*
X003920Y012356D01*
X003948Y012400D01*
X003979Y012442D01*
X004013Y012482D01*
X004050Y012519D01*
X004090Y012553D01*
X004132Y012584D01*
X004176Y012612D01*
X004222Y012637D01*
X004270Y012658D01*
X004320Y012675D01*
X004370Y012688D01*
X004422Y012698D01*
X004474Y012704D01*
X004526Y012706D01*
X004578Y012704D01*
X004630Y012698D01*
X004682Y012688D01*
X004732Y012675D01*
X004782Y012658D01*
X004830Y012637D01*
X004876Y012612D01*
X004920Y012584D01*
X004962Y012553D01*
X005002Y012519D01*
X005039Y012482D01*
X005073Y012442D01*
X005104Y012400D01*
X005132Y012356D01*
X005157Y012310D01*
X005178Y012262D01*
X005195Y012212D01*
X005208Y012162D01*
X005218Y012110D01*
X005224Y012058D01*
X005226Y012006D01*
X005224Y011954D01*
X005218Y011902D01*
X005208Y011850D01*
X005195Y011800D01*
X005178Y011750D01*
X005157Y011702D01*
X005132Y011656D01*
X005104Y011612D01*
X005073Y011570D01*
X005039Y011530D01*
X005002Y011493D01*
X004962Y011459D01*
X004920Y011428D01*
X004876Y011400D01*
X004830Y011375D01*
X004782Y011354D01*
X004732Y011337D01*
X004682Y011324D01*
X004630Y011314D01*
X004578Y011308D01*
X004526Y011306D01*
X004474Y011308D01*
X004422Y011314D01*
X004370Y011324D01*
X004320Y011337D01*
X004270Y011354D01*
X004222Y011375D01*
X004176Y011400D01*
X004132Y011428D01*
X004090Y011459D01*
X004050Y011493D01*
X004013Y011530D01*
X003979Y011570D01*
X003948Y011612D01*
X003920Y011656D01*
X003895Y011702D01*
X003874Y011750D01*
X003857Y011800D01*
X003844Y011850D01*
X003834Y011902D01*
X003828Y011954D01*
X003826Y012006D01*
X003851Y015106D02*
X005351Y015106D01*
X008691Y015440D02*
X008691Y014771D01*
X009911Y014771D01*
X009911Y015440D01*
X008691Y015440D01*
X010151Y017206D02*
X010651Y017206D01*
X004711Y018571D02*
X003491Y018571D01*
X003491Y019240D01*
X004711Y019240D01*
X004711Y018571D01*
X016851Y017106D02*
X017351Y017106D01*
X020201Y016981D02*
X020201Y017381D01*
X019767Y017681D02*
X019769Y017743D01*
X019775Y017806D01*
X019785Y017867D01*
X019799Y017928D01*
X019816Y017988D01*
X019837Y018047D01*
X019863Y018104D01*
X019891Y018159D01*
X019923Y018213D01*
X019959Y018264D01*
X019997Y018314D01*
X020039Y018360D01*
X020083Y018404D01*
X020131Y018445D01*
X020180Y018483D01*
X020232Y018517D01*
X020286Y018548D01*
X020342Y018576D01*
X020400Y018600D01*
X020459Y018621D01*
X020519Y018637D01*
X020580Y018650D01*
X020642Y018659D01*
X020704Y018664D01*
X020767Y018665D01*
X020829Y018662D01*
X020891Y018655D01*
X020953Y018644D01*
X021013Y018629D01*
X021073Y018611D01*
X021131Y018589D01*
X021188Y018563D01*
X021243Y018533D01*
X021296Y018500D01*
X021347Y018464D01*
X021395Y018425D01*
X021441Y018382D01*
X021484Y018337D01*
X021524Y018289D01*
X021561Y018239D01*
X021595Y018186D01*
X021626Y018132D01*
X021652Y018076D01*
X021676Y018018D01*
X021695Y017958D01*
X021711Y017898D01*
X021723Y017836D01*
X021731Y017775D01*
X021735Y017712D01*
X021735Y017650D01*
X021731Y017587D01*
X021723Y017526D01*
X021711Y017464D01*
X021695Y017404D01*
X021676Y017344D01*
X021652Y017286D01*
X021626Y017230D01*
X021595Y017176D01*
X021561Y017123D01*
X021524Y017073D01*
X021484Y017025D01*
X021441Y016980D01*
X021395Y016937D01*
X021347Y016898D01*
X021296Y016862D01*
X021243Y016829D01*
X021188Y016799D01*
X021131Y016773D01*
X021073Y016751D01*
X021013Y016733D01*
X020953Y016718D01*
X020891Y016707D01*
X020829Y016700D01*
X020767Y016697D01*
X020704Y016698D01*
X020642Y016703D01*
X020580Y016712D01*
X020519Y016725D01*
X020459Y016741D01*
X020400Y016762D01*
X020342Y016786D01*
X020286Y016814D01*
X020232Y016845D01*
X020180Y016879D01*
X020131Y016917D01*
X020083Y016958D01*
X020039Y017002D01*
X019997Y017048D01*
X019959Y017098D01*
X019923Y017149D01*
X019891Y017203D01*
X019863Y017258D01*
X019837Y017315D01*
X019816Y017374D01*
X019799Y017434D01*
X019785Y017495D01*
X019775Y017556D01*
X019769Y017619D01*
X019767Y017681D01*
D12*
X017666Y020724D02*
X017666Y021175D01*
X017440Y020949D01*
X017741Y020949D01*
X018290Y022374D02*
X018591Y022374D01*
X018441Y022374D02*
X018441Y022825D01*
X018290Y022674D01*
X020940Y022749D02*
X021015Y022825D01*
X021166Y022825D01*
X021241Y022749D01*
X021241Y022674D01*
X020940Y022374D01*
X021241Y022374D01*
X022740Y022449D02*
X022815Y022374D01*
X022966Y022374D01*
X023041Y022449D01*
X023041Y022524D01*
X022966Y022599D01*
X022891Y022599D01*
X022966Y022599D02*
X023041Y022674D01*
X023041Y022749D01*
X022966Y022825D01*
X022815Y022825D01*
X022740Y022749D01*
X023540Y021175D02*
X023540Y020949D01*
X023691Y021024D01*
X023766Y021024D01*
X023841Y020949D01*
X023841Y020799D01*
X023766Y020724D01*
X023615Y020724D01*
X023540Y020799D01*
X023540Y021175D02*
X023841Y021175D01*
X010091Y021175D02*
X009790Y021175D01*
X009790Y020949D01*
X009941Y021024D01*
X010016Y021024D01*
X010091Y020949D01*
X010091Y020799D01*
X010016Y020724D01*
X009865Y020724D01*
X009790Y020799D01*
X009216Y022374D02*
X009065Y022374D01*
X008990Y022449D01*
X009141Y022599D02*
X009216Y022599D01*
X009291Y022524D01*
X009291Y022449D01*
X009216Y022374D01*
X009216Y022599D02*
X009291Y022674D01*
X009291Y022749D01*
X009216Y022825D01*
X009065Y022825D01*
X008990Y022749D01*
X007491Y022749D02*
X007491Y022674D01*
X007190Y022374D01*
X007491Y022374D01*
X007491Y022749D02*
X007416Y022825D01*
X007265Y022825D01*
X007190Y022749D01*
X004841Y022374D02*
X004540Y022374D01*
X004691Y022374D02*
X004691Y022825D01*
X004540Y022674D01*
X003916Y021175D02*
X003690Y020949D01*
X003991Y020949D01*
X003916Y020724D02*
X003916Y021175D01*
X003937Y019050D02*
X003847Y019050D01*
X003802Y019005D01*
X003937Y019050D02*
X003982Y019005D01*
X003982Y018960D01*
X003802Y018779D01*
X003982Y018779D01*
X004097Y018779D02*
X004277Y018960D01*
X004277Y019005D01*
X004232Y019050D01*
X004142Y019050D01*
X004097Y019005D01*
X004097Y018779D02*
X004277Y018779D01*
X004391Y018824D02*
X004571Y019005D01*
X004571Y018824D01*
X004526Y018779D01*
X004436Y018779D01*
X004391Y018824D01*
X004391Y019005D01*
X004436Y019050D01*
X004526Y019050D01*
X004571Y019005D01*
X009002Y015160D02*
X009092Y015250D01*
X009092Y014979D01*
X009002Y014979D02*
X009182Y014979D01*
X009297Y015024D02*
X009477Y015205D01*
X009477Y015024D01*
X009432Y014979D01*
X009342Y014979D01*
X009297Y015024D01*
X009297Y015205D01*
X009342Y015250D01*
X009432Y015250D01*
X009477Y015205D01*
X009591Y015250D02*
X009591Y014979D01*
X009591Y015069D02*
X009771Y015250D01*
X009636Y015114D02*
X009771Y014979D01*
X002927Y008080D02*
X002837Y007945D01*
X002747Y008080D01*
X002657Y007945D02*
X002927Y007945D01*
X002702Y007831D02*
X002882Y007651D01*
X002927Y007651D01*
X002927Y007548D02*
X002927Y007503D01*
X002882Y007503D01*
X002882Y007548D01*
X002927Y007548D01*
X002927Y007344D02*
X002657Y007344D01*
X002792Y007209D01*
X002792Y007389D01*
X002657Y007651D02*
X002657Y007831D01*
X002702Y007831D01*
X005966Y007587D02*
X006011Y007632D01*
X006101Y007632D01*
X006146Y007587D01*
X006146Y007542D01*
X005966Y007362D01*
X006146Y007362D01*
X006260Y007362D02*
X006440Y007542D01*
X006440Y007587D01*
X006395Y007632D01*
X006305Y007632D01*
X006260Y007587D01*
X006260Y007362D02*
X006440Y007362D01*
X006555Y007407D02*
X006735Y007587D01*
X006735Y007407D01*
X006690Y007362D01*
X006600Y007362D01*
X006555Y007407D01*
X006555Y007587D01*
X006600Y007632D01*
X006690Y007632D01*
X006735Y007587D01*
X010626Y006988D02*
X010626Y006762D01*
X010776Y006837D01*
X010851Y006837D01*
X010926Y006762D01*
X010926Y006612D01*
X010851Y006537D01*
X010701Y006537D01*
X010626Y006612D01*
X010626Y006988D02*
X010926Y006988D01*
X011501Y005338D02*
X011651Y005338D01*
X011726Y005262D01*
X011726Y005187D01*
X011651Y005112D01*
X011726Y005037D01*
X011726Y004962D01*
X011651Y004887D01*
X011501Y004887D01*
X011426Y004962D01*
X011576Y005112D02*
X011651Y005112D01*
X011426Y005262D02*
X011501Y005338D01*
X013226Y005262D02*
X013301Y005338D01*
X013451Y005338D01*
X013526Y005262D01*
X013526Y005187D01*
X013226Y004887D01*
X013526Y004887D01*
X015876Y004887D02*
X016176Y004887D01*
X016026Y004887D02*
X016026Y005338D01*
X015876Y005187D01*
X016951Y006537D02*
X016951Y006988D01*
X016726Y006762D01*
X017026Y006762D01*
D13*
X014751Y016306D02*
X012451Y016306D01*
X012392Y016308D01*
X012334Y016314D01*
X012275Y016323D01*
X012218Y016337D01*
X012162Y016354D01*
X012107Y016375D01*
X012053Y016399D01*
X012001Y016427D01*
X011951Y016458D01*
X011903Y016492D01*
X011858Y016529D01*
X011815Y016570D01*
X011774Y016613D01*
X011737Y016658D01*
X011703Y016706D01*
X011672Y016756D01*
X011644Y016808D01*
X011620Y016862D01*
X011599Y016917D01*
X011582Y016973D01*
X011568Y017030D01*
X011559Y017089D01*
X011553Y017147D01*
X011551Y017206D01*
X011553Y017265D01*
X011559Y017323D01*
X011568Y017382D01*
X011582Y017439D01*
X011599Y017495D01*
X011620Y017550D01*
X011644Y017604D01*
X011672Y017656D01*
X011703Y017706D01*
X011737Y017754D01*
X011774Y017799D01*
X011815Y017842D01*
X011858Y017883D01*
X011903Y017920D01*
X011951Y017954D01*
X012001Y017985D01*
X012053Y018013D01*
X012107Y018037D01*
X012162Y018058D01*
X012218Y018075D01*
X012275Y018089D01*
X012334Y018098D01*
X012392Y018104D01*
X012451Y018106D01*
X014751Y018106D01*
X014810Y018104D01*
X014868Y018098D01*
X014927Y018089D01*
X014984Y018075D01*
X015040Y018058D01*
X015095Y018037D01*
X015149Y018013D01*
X015201Y017985D01*
X015251Y017954D01*
X015299Y017920D01*
X015344Y017883D01*
X015387Y017842D01*
X015428Y017799D01*
X015465Y017754D01*
X015499Y017706D01*
X015530Y017656D01*
X015558Y017604D01*
X015582Y017550D01*
X015603Y017495D01*
X015620Y017439D01*
X015634Y017382D01*
X015643Y017323D01*
X015649Y017265D01*
X015651Y017206D01*
X015649Y017147D01*
X015643Y017089D01*
X015634Y017030D01*
X015620Y016973D01*
X015603Y016917D01*
X015582Y016862D01*
X015558Y016808D01*
X015530Y016756D01*
X015499Y016706D01*
X015465Y016658D01*
X015428Y016613D01*
X015387Y016570D01*
X015344Y016529D01*
X015299Y016492D01*
X015251Y016458D01*
X015201Y016427D01*
X015149Y016399D01*
X015095Y016375D01*
X015040Y016354D01*
X014984Y016337D01*
X014927Y016323D01*
X014868Y016314D01*
X014810Y016308D01*
X014751Y016306D01*
D14*
X005381Y015074D02*
X005327Y015146D01*
X005328Y015145D02*
X005381Y015188D01*
X005432Y015233D01*
X005480Y015282D01*
X005525Y015333D01*
X005568Y015387D01*
X005607Y015443D01*
X005643Y015501D01*
X005676Y015561D01*
X005705Y015622D01*
X005730Y015686D01*
X005752Y015750D01*
X005771Y015816D01*
X005785Y015883D01*
X005796Y015950D01*
X005803Y016018D01*
X005806Y016086D01*
X005805Y016155D01*
X005800Y016223D01*
X005792Y016291D01*
X005779Y016358D01*
X005763Y016424D01*
X005743Y016489D01*
X005720Y016554D01*
X005693Y016616D01*
X005662Y016677D01*
X005628Y016736D01*
X005591Y016794D01*
X005550Y016849D01*
X005506Y016901D01*
X005460Y016951D01*
X005411Y016998D01*
X005359Y017043D01*
X005305Y017084D01*
X005248Y017123D01*
X005189Y017158D01*
X005129Y017189D01*
X005067Y017217D01*
X005003Y017242D01*
X004938Y017263D01*
X004872Y017280D01*
X004805Y017294D01*
X004737Y017303D01*
X004669Y017309D01*
X004601Y017311D01*
X004533Y017309D01*
X004465Y017303D01*
X004397Y017294D01*
X004330Y017280D01*
X004264Y017263D01*
X004199Y017242D01*
X004135Y017217D01*
X004073Y017189D01*
X004013Y017158D01*
X003954Y017123D01*
X003897Y017084D01*
X003843Y017043D01*
X003791Y016998D01*
X003742Y016951D01*
X003696Y016901D01*
X003652Y016849D01*
X003611Y016794D01*
X003574Y016736D01*
X003540Y016677D01*
X003509Y016616D01*
X003482Y016554D01*
X003459Y016489D01*
X003439Y016424D01*
X003423Y016358D01*
X003410Y016291D01*
X003402Y016223D01*
X003397Y016155D01*
X003396Y016086D01*
X003399Y016018D01*
X003406Y015950D01*
X003417Y015883D01*
X003431Y015816D01*
X003450Y015750D01*
X003472Y015686D01*
X003497Y015622D01*
X003526Y015561D01*
X003559Y015501D01*
X003595Y015443D01*
X003634Y015387D01*
X003677Y015333D01*
X003722Y015282D01*
X003770Y015233D01*
X003821Y015188D01*
X003874Y015145D01*
X003821Y015074D01*
X003820Y015073D01*
X003765Y015117D01*
X003712Y015165D01*
X003661Y015215D01*
X003614Y015268D01*
X003570Y015323D01*
X003528Y015381D01*
X003490Y015441D01*
X003455Y015502D01*
X003424Y015566D01*
X003396Y015631D01*
X003372Y015698D01*
X003351Y015766D01*
X003335Y015835D01*
X003322Y015905D01*
X003313Y015975D01*
X003307Y016046D01*
X003306Y016117D01*
X003309Y016188D01*
X003315Y016259D01*
X003325Y016329D01*
X003339Y016398D01*
X003357Y016467D01*
X003379Y016535D01*
X003404Y016601D01*
X003433Y016666D01*
X003466Y016729D01*
X003502Y016790D01*
X003541Y016849D01*
X003583Y016906D01*
X003628Y016961D01*
X003677Y017013D01*
X003728Y017062D01*
X003781Y017109D01*
X003838Y017152D01*
X003896Y017192D01*
X003957Y017229D01*
X004019Y017263D01*
X004083Y017293D01*
X004149Y017320D01*
X004216Y017343D01*
X004285Y017362D01*
X004354Y017377D01*
X004424Y017389D01*
X004495Y017397D01*
X004566Y017401D01*
X004636Y017401D01*
X004707Y017397D01*
X004778Y017389D01*
X004848Y017377D01*
X004917Y017362D01*
X004986Y017343D01*
X005053Y017320D01*
X005119Y017293D01*
X005183Y017263D01*
X005245Y017229D01*
X005306Y017192D01*
X005364Y017152D01*
X005421Y017109D01*
X005474Y017062D01*
X005525Y017013D01*
X005574Y016961D01*
X005619Y016906D01*
X005661Y016849D01*
X005700Y016790D01*
X005736Y016729D01*
X005769Y016666D01*
X005798Y016601D01*
X005823Y016535D01*
X005845Y016467D01*
X005863Y016398D01*
X005877Y016329D01*
X005887Y016259D01*
X005893Y016188D01*
X005896Y016117D01*
X005895Y016046D01*
X005889Y015975D01*
X005880Y015905D01*
X005867Y015835D01*
X005851Y015766D01*
X005830Y015698D01*
X005806Y015631D01*
X005778Y015566D01*
X005747Y015502D01*
X005712Y015441D01*
X005674Y015381D01*
X005632Y015323D01*
X005588Y015268D01*
X005541Y015215D01*
X005490Y015165D01*
X005437Y015117D01*
X005382Y015073D01*
X005377Y015080D01*
X005432Y015125D01*
X005485Y015172D01*
X005536Y015223D01*
X005583Y015276D01*
X005628Y015332D01*
X005669Y015390D01*
X005707Y015450D01*
X005742Y015512D01*
X005773Y015576D01*
X005800Y015642D01*
X005824Y015709D01*
X005844Y015778D01*
X005861Y015847D01*
X005873Y015917D01*
X005882Y015988D01*
X005886Y016059D01*
X005887Y016130D01*
X005883Y016201D01*
X005876Y016272D01*
X005865Y016343D01*
X005850Y016412D01*
X005831Y016481D01*
X005808Y016549D01*
X005782Y016615D01*
X005752Y016680D01*
X005718Y016742D01*
X005682Y016803D01*
X005641Y016862D01*
X005598Y016919D01*
X005551Y016973D01*
X005502Y017024D01*
X005449Y017072D01*
X005395Y017118D01*
X005337Y017160D01*
X005278Y017199D01*
X005216Y017235D01*
X005153Y017268D01*
X005088Y017296D01*
X005021Y017322D01*
X004953Y017343D01*
X004884Y017361D01*
X004814Y017374D01*
X004743Y017384D01*
X004672Y017390D01*
X004601Y017392D01*
X004530Y017390D01*
X004459Y017384D01*
X004388Y017374D01*
X004318Y017361D01*
X004249Y017343D01*
X004181Y017322D01*
X004114Y017296D01*
X004049Y017268D01*
X003986Y017235D01*
X003924Y017199D01*
X003865Y017160D01*
X003807Y017118D01*
X003753Y017072D01*
X003700Y017024D01*
X003651Y016973D01*
X003604Y016919D01*
X003561Y016862D01*
X003520Y016803D01*
X003484Y016742D01*
X003450Y016680D01*
X003420Y016615D01*
X003394Y016549D01*
X003371Y016481D01*
X003352Y016412D01*
X003337Y016343D01*
X003326Y016272D01*
X003319Y016201D01*
X003315Y016130D01*
X003316Y016059D01*
X003320Y015988D01*
X003329Y015917D01*
X003341Y015847D01*
X003358Y015778D01*
X003378Y015709D01*
X003402Y015642D01*
X003429Y015576D01*
X003460Y015512D01*
X003495Y015450D01*
X003533Y015390D01*
X003574Y015332D01*
X003619Y015276D01*
X003666Y015223D01*
X003717Y015172D01*
X003770Y015125D01*
X003825Y015080D01*
X003831Y015087D01*
X003776Y015132D01*
X003723Y015179D01*
X003673Y015229D01*
X003626Y015282D01*
X003582Y015337D01*
X003540Y015395D01*
X003503Y015454D01*
X003468Y015516D01*
X003437Y015580D01*
X003410Y015645D01*
X003386Y015712D01*
X003366Y015780D01*
X003350Y015849D01*
X003338Y015918D01*
X003329Y015989D01*
X003325Y016059D01*
X003324Y016130D01*
X003328Y016201D01*
X003335Y016271D01*
X003346Y016341D01*
X003361Y016410D01*
X003380Y016478D01*
X003402Y016546D01*
X003428Y016611D01*
X003458Y016676D01*
X003491Y016738D01*
X003528Y016798D01*
X003568Y016857D01*
X003611Y016913D01*
X003657Y016967D01*
X003707Y017017D01*
X003758Y017066D01*
X003813Y017111D01*
X003870Y017153D01*
X003929Y017192D01*
X003990Y017227D01*
X004053Y017260D01*
X004118Y017288D01*
X004184Y017313D01*
X004252Y017334D01*
X004320Y017352D01*
X004390Y017365D01*
X004460Y017375D01*
X004530Y017381D01*
X004601Y017383D01*
X004672Y017381D01*
X004742Y017375D01*
X004812Y017365D01*
X004882Y017352D01*
X004950Y017334D01*
X005018Y017313D01*
X005084Y017288D01*
X005149Y017260D01*
X005212Y017227D01*
X005273Y017192D01*
X005332Y017153D01*
X005389Y017111D01*
X005444Y017066D01*
X005495Y017017D01*
X005545Y016967D01*
X005591Y016913D01*
X005634Y016857D01*
X005674Y016798D01*
X005711Y016738D01*
X005744Y016676D01*
X005774Y016611D01*
X005800Y016546D01*
X005822Y016478D01*
X005841Y016410D01*
X005856Y016341D01*
X005867Y016271D01*
X005874Y016201D01*
X005878Y016130D01*
X005877Y016059D01*
X005873Y015989D01*
X005864Y015918D01*
X005852Y015849D01*
X005836Y015780D01*
X005816Y015712D01*
X005792Y015645D01*
X005765Y015580D01*
X005734Y015516D01*
X005699Y015454D01*
X005662Y015395D01*
X005620Y015337D01*
X005576Y015282D01*
X005529Y015229D01*
X005479Y015179D01*
X005426Y015132D01*
X005371Y015087D01*
X005366Y015095D01*
X005421Y015139D01*
X005474Y015187D01*
X005524Y015237D01*
X005572Y015290D01*
X005616Y015346D01*
X005657Y015404D01*
X005694Y015464D01*
X005729Y015526D01*
X005759Y015590D01*
X005786Y015656D01*
X005810Y015723D01*
X005829Y015791D01*
X005845Y015861D01*
X005857Y015931D01*
X005865Y016001D01*
X005869Y016072D01*
X005868Y016143D01*
X005864Y016214D01*
X005856Y016285D01*
X005844Y016355D01*
X005828Y016424D01*
X005809Y016492D01*
X005785Y016560D01*
X005758Y016625D01*
X005727Y016689D01*
X005693Y016751D01*
X005655Y016811D01*
X005613Y016869D01*
X005569Y016925D01*
X005522Y016978D01*
X005471Y017028D01*
X005418Y017075D01*
X005363Y017120D01*
X005305Y017161D01*
X005245Y017198D01*
X005182Y017233D01*
X005118Y017264D01*
X005053Y017291D01*
X004986Y017314D01*
X004917Y017334D01*
X004848Y017350D01*
X004778Y017362D01*
X004707Y017370D01*
X004637Y017374D01*
X004565Y017374D01*
X004495Y017370D01*
X004424Y017362D01*
X004354Y017350D01*
X004285Y017334D01*
X004216Y017314D01*
X004149Y017291D01*
X004084Y017264D01*
X004020Y017233D01*
X003957Y017198D01*
X003897Y017161D01*
X003839Y017120D01*
X003784Y017075D01*
X003731Y017028D01*
X003680Y016978D01*
X003633Y016925D01*
X003589Y016869D01*
X003547Y016811D01*
X003509Y016751D01*
X003475Y016689D01*
X003444Y016625D01*
X003417Y016560D01*
X003393Y016492D01*
X003374Y016424D01*
X003358Y016355D01*
X003346Y016285D01*
X003338Y016214D01*
X003334Y016143D01*
X003333Y016072D01*
X003337Y016001D01*
X003345Y015931D01*
X003357Y015861D01*
X003373Y015791D01*
X003392Y015723D01*
X003416Y015656D01*
X003443Y015590D01*
X003473Y015526D01*
X003508Y015464D01*
X003545Y015404D01*
X003586Y015346D01*
X003630Y015290D01*
X003678Y015237D01*
X003728Y015187D01*
X003781Y015139D01*
X003836Y015095D01*
X003842Y015102D01*
X003787Y015146D01*
X003734Y015193D01*
X003684Y015243D01*
X003637Y015296D01*
X003593Y015351D01*
X003553Y015409D01*
X003515Y015468D01*
X003481Y015530D01*
X003451Y015594D01*
X003424Y015659D01*
X003401Y015726D01*
X003381Y015794D01*
X003366Y015862D01*
X003354Y015932D01*
X003346Y016002D01*
X003342Y016073D01*
X003343Y016143D01*
X003347Y016214D01*
X003355Y016284D01*
X003367Y016353D01*
X003382Y016422D01*
X003402Y016490D01*
X003425Y016556D01*
X003452Y016621D01*
X003483Y016685D01*
X003517Y016747D01*
X003555Y016806D01*
X003596Y016864D01*
X003640Y016919D01*
X003687Y016972D01*
X003737Y017021D01*
X003789Y017068D01*
X003845Y017112D01*
X003902Y017153D01*
X003962Y017191D01*
X004024Y017225D01*
X004087Y017255D01*
X004152Y017282D01*
X004219Y017306D01*
X004287Y017325D01*
X004356Y017341D01*
X004425Y017353D01*
X004495Y017361D01*
X004566Y017365D01*
X004636Y017365D01*
X004707Y017361D01*
X004777Y017353D01*
X004846Y017341D01*
X004915Y017325D01*
X004983Y017306D01*
X005050Y017282D01*
X005115Y017255D01*
X005178Y017225D01*
X005240Y017191D01*
X005300Y017153D01*
X005357Y017112D01*
X005413Y017068D01*
X005465Y017021D01*
X005515Y016972D01*
X005562Y016919D01*
X005606Y016864D01*
X005647Y016806D01*
X005685Y016747D01*
X005719Y016685D01*
X005750Y016621D01*
X005777Y016556D01*
X005800Y016490D01*
X005820Y016422D01*
X005835Y016353D01*
X005847Y016284D01*
X005855Y016214D01*
X005859Y016143D01*
X005860Y016073D01*
X005856Y016002D01*
X005848Y015932D01*
X005836Y015862D01*
X005821Y015794D01*
X005801Y015726D01*
X005778Y015659D01*
X005751Y015594D01*
X005721Y015530D01*
X005687Y015468D01*
X005649Y015409D01*
X005609Y015351D01*
X005565Y015296D01*
X005518Y015243D01*
X005468Y015193D01*
X005415Y015146D01*
X005360Y015102D01*
X005355Y015109D01*
X005410Y015153D01*
X005462Y015200D01*
X005511Y015249D01*
X005558Y015302D01*
X005601Y015356D01*
X005642Y015414D01*
X005679Y015473D01*
X005713Y015534D01*
X005743Y015598D01*
X005770Y015662D01*
X005793Y015729D01*
X005812Y015796D01*
X005827Y015864D01*
X005839Y015933D01*
X005847Y016003D01*
X005851Y016073D01*
X005850Y016143D01*
X005846Y016213D01*
X005838Y016282D01*
X005827Y016351D01*
X005811Y016420D01*
X005792Y016487D01*
X005768Y016553D01*
X005741Y016618D01*
X005711Y016681D01*
X005677Y016742D01*
X005640Y016801D01*
X005599Y016859D01*
X005555Y016913D01*
X005509Y016965D01*
X005459Y017015D01*
X005407Y017062D01*
X005352Y017105D01*
X005295Y017146D01*
X005236Y017183D01*
X005174Y017217D01*
X005111Y017247D01*
X005046Y017274D01*
X004980Y017297D01*
X004913Y017316D01*
X004845Y017332D01*
X004776Y017344D01*
X004706Y017352D01*
X004636Y017356D01*
X004566Y017356D01*
X004496Y017352D01*
X004426Y017344D01*
X004357Y017332D01*
X004289Y017316D01*
X004222Y017297D01*
X004156Y017274D01*
X004091Y017247D01*
X004028Y017217D01*
X003966Y017183D01*
X003907Y017146D01*
X003850Y017105D01*
X003795Y017062D01*
X003743Y017015D01*
X003693Y016965D01*
X003647Y016913D01*
X003603Y016859D01*
X003562Y016801D01*
X003525Y016742D01*
X003491Y016681D01*
X003461Y016618D01*
X003434Y016553D01*
X003410Y016487D01*
X003391Y016420D01*
X003375Y016351D01*
X003364Y016282D01*
X003356Y016213D01*
X003352Y016143D01*
X003351Y016073D01*
X003355Y016003D01*
X003363Y015933D01*
X003375Y015864D01*
X003390Y015796D01*
X003409Y015729D01*
X003432Y015662D01*
X003459Y015598D01*
X003489Y015534D01*
X003523Y015473D01*
X003560Y015414D01*
X003601Y015356D01*
X003644Y015302D01*
X003691Y015249D01*
X003740Y015200D01*
X003792Y015153D01*
X003847Y015109D01*
X003852Y015116D01*
X003798Y015160D01*
X003746Y015206D01*
X003697Y015255D01*
X003651Y015307D01*
X003608Y015362D01*
X003568Y015419D01*
X003531Y015478D01*
X003497Y015539D01*
X003467Y015601D01*
X003441Y015666D01*
X003418Y015731D01*
X003399Y015798D01*
X003383Y015866D01*
X003372Y015935D01*
X003364Y016004D01*
X003360Y016073D01*
X003361Y016143D01*
X003365Y016212D01*
X003372Y016281D01*
X003384Y016350D01*
X003400Y016417D01*
X003419Y016484D01*
X003442Y016550D01*
X003469Y016614D01*
X003499Y016677D01*
X003533Y016738D01*
X003570Y016796D01*
X003610Y016853D01*
X003653Y016907D01*
X003700Y016959D01*
X003749Y017008D01*
X003801Y017055D01*
X003855Y017098D01*
X003912Y017138D01*
X003971Y017175D01*
X004032Y017209D01*
X004095Y017239D01*
X004159Y017266D01*
X004224Y017289D01*
X004291Y017308D01*
X004359Y017323D01*
X004428Y017335D01*
X004497Y017343D01*
X004566Y017347D01*
X004636Y017347D01*
X004705Y017343D01*
X004774Y017335D01*
X004843Y017323D01*
X004911Y017308D01*
X004978Y017289D01*
X005043Y017266D01*
X005107Y017239D01*
X005170Y017209D01*
X005231Y017175D01*
X005290Y017138D01*
X005347Y017098D01*
X005401Y017055D01*
X005453Y017008D01*
X005502Y016959D01*
X005549Y016907D01*
X005592Y016853D01*
X005632Y016796D01*
X005669Y016738D01*
X005703Y016677D01*
X005733Y016614D01*
X005760Y016550D01*
X005783Y016484D01*
X005802Y016417D01*
X005818Y016350D01*
X005830Y016281D01*
X005837Y016212D01*
X005841Y016143D01*
X005842Y016073D01*
X005838Y016004D01*
X005830Y015935D01*
X005819Y015866D01*
X005803Y015798D01*
X005784Y015731D01*
X005761Y015666D01*
X005735Y015601D01*
X005705Y015539D01*
X005671Y015478D01*
X005634Y015419D01*
X005594Y015362D01*
X005551Y015307D01*
X005505Y015255D01*
X005456Y015206D01*
X005404Y015160D01*
X005350Y015116D01*
X005344Y015123D01*
X005398Y015167D01*
X005449Y015213D01*
X005498Y015262D01*
X005544Y015313D01*
X005587Y015367D01*
X005627Y015424D01*
X005663Y015482D01*
X005697Y015543D01*
X005727Y015605D01*
X005753Y015669D01*
X005775Y015734D01*
X005794Y015800D01*
X005810Y015868D01*
X005821Y015936D01*
X005829Y016004D01*
X005833Y016073D01*
X005832Y016142D01*
X005828Y016211D01*
X005821Y016280D01*
X005809Y016348D01*
X005794Y016415D01*
X005774Y016482D01*
X005751Y016547D01*
X005725Y016610D01*
X005695Y016673D01*
X005662Y016733D01*
X005625Y016791D01*
X005585Y016848D01*
X005542Y016902D01*
X005496Y016953D01*
X005447Y017002D01*
X005395Y017048D01*
X005341Y017091D01*
X005285Y017131D01*
X005226Y017167D01*
X005166Y017201D01*
X005104Y017231D01*
X005040Y017257D01*
X004975Y017280D01*
X004908Y017299D01*
X004841Y017314D01*
X004773Y017326D01*
X004704Y017334D01*
X004636Y017338D01*
X004566Y017338D01*
X004498Y017334D01*
X004429Y017326D01*
X004361Y017314D01*
X004294Y017299D01*
X004227Y017280D01*
X004162Y017257D01*
X004098Y017231D01*
X004036Y017201D01*
X003976Y017167D01*
X003917Y017131D01*
X003861Y017091D01*
X003807Y017048D01*
X003755Y017002D01*
X003706Y016953D01*
X003660Y016902D01*
X003617Y016848D01*
X003577Y016791D01*
X003540Y016733D01*
X003507Y016673D01*
X003477Y016610D01*
X003451Y016547D01*
X003428Y016482D01*
X003408Y016415D01*
X003393Y016348D01*
X003381Y016280D01*
X003374Y016211D01*
X003370Y016142D01*
X003369Y016073D01*
X003373Y016004D01*
X003381Y015936D01*
X003392Y015868D01*
X003408Y015800D01*
X003427Y015734D01*
X003449Y015669D01*
X003475Y015605D01*
X003505Y015543D01*
X003539Y015482D01*
X003575Y015424D01*
X003615Y015367D01*
X003658Y015313D01*
X003704Y015262D01*
X003753Y015213D01*
X003804Y015167D01*
X003858Y015123D01*
X003863Y015131D01*
X003809Y015174D01*
X003758Y015220D01*
X003709Y015270D01*
X003663Y015321D01*
X003620Y015376D01*
X003580Y015433D01*
X003544Y015491D01*
X003510Y015552D01*
X003481Y015615D01*
X003455Y015679D01*
X003433Y015745D01*
X003414Y015812D01*
X003399Y015879D01*
X003388Y015948D01*
X003381Y016017D01*
X003378Y016086D01*
X003379Y016155D01*
X003384Y016225D01*
X003392Y016293D01*
X003405Y016361D01*
X003421Y016429D01*
X003442Y016495D01*
X003465Y016560D01*
X003493Y016624D01*
X003524Y016686D01*
X003559Y016746D01*
X003597Y016804D01*
X003638Y016860D01*
X003682Y016913D01*
X003729Y016964D01*
X003779Y017012D01*
X003832Y017057D01*
X003887Y017099D01*
X003944Y017138D01*
X004004Y017173D01*
X004065Y017205D01*
X004128Y017234D01*
X004193Y017259D01*
X004259Y017280D01*
X004326Y017298D01*
X004394Y017311D01*
X004463Y017321D01*
X004532Y017327D01*
X004601Y017329D01*
X004670Y017327D01*
X004739Y017321D01*
X004808Y017311D01*
X004876Y017298D01*
X004943Y017280D01*
X005009Y017259D01*
X005074Y017234D01*
X005137Y017205D01*
X005198Y017173D01*
X005258Y017138D01*
X005315Y017099D01*
X005370Y017057D01*
X005423Y017012D01*
X005473Y016964D01*
X005520Y016913D01*
X005564Y016860D01*
X005605Y016804D01*
X005643Y016746D01*
X005678Y016686D01*
X005709Y016624D01*
X005737Y016560D01*
X005760Y016495D01*
X005781Y016429D01*
X005797Y016361D01*
X005810Y016293D01*
X005818Y016225D01*
X005823Y016155D01*
X005824Y016086D01*
X005821Y016017D01*
X005814Y015948D01*
X005803Y015879D01*
X005788Y015812D01*
X005769Y015745D01*
X005747Y015679D01*
X005721Y015615D01*
X005692Y015552D01*
X005658Y015491D01*
X005622Y015433D01*
X005582Y015376D01*
X005539Y015321D01*
X005493Y015270D01*
X005444Y015220D01*
X005393Y015174D01*
X005339Y015131D01*
X005333Y015138D01*
X005387Y015181D01*
X005438Y015227D01*
X005487Y015276D01*
X005532Y015327D01*
X005575Y015381D01*
X005614Y015438D01*
X005651Y015496D01*
X005684Y015556D01*
X005713Y015619D01*
X005739Y015682D01*
X005761Y015748D01*
X005779Y015814D01*
X005794Y015881D01*
X005805Y015949D01*
X005812Y016018D01*
X005815Y016086D01*
X005814Y016155D01*
X005809Y016224D01*
X005801Y016292D01*
X005788Y016360D01*
X005772Y016426D01*
X005752Y016492D01*
X005728Y016557D01*
X005701Y016620D01*
X005670Y016681D01*
X005636Y016741D01*
X005598Y016799D01*
X005557Y016854D01*
X005513Y016907D01*
X005466Y016957D01*
X005417Y017005D01*
X005365Y017050D01*
X005310Y017092D01*
X005253Y017130D01*
X005194Y017165D01*
X005133Y017197D01*
X005070Y017226D01*
X005006Y017250D01*
X004940Y017272D01*
X004874Y017289D01*
X004806Y017302D01*
X004738Y017312D01*
X004670Y017318D01*
X004601Y017320D01*
X004532Y017318D01*
X004464Y017312D01*
X004396Y017302D01*
X004328Y017289D01*
X004262Y017272D01*
X004196Y017250D01*
X004132Y017226D01*
X004069Y017197D01*
X004008Y017165D01*
X003949Y017130D01*
X003892Y017092D01*
X003837Y017050D01*
X003785Y017005D01*
X003736Y016957D01*
X003689Y016907D01*
X003645Y016854D01*
X003604Y016799D01*
X003566Y016741D01*
X003532Y016681D01*
X003501Y016620D01*
X003474Y016557D01*
X003450Y016492D01*
X003430Y016426D01*
X003414Y016360D01*
X003401Y016292D01*
X003393Y016224D01*
X003388Y016155D01*
X003387Y016086D01*
X003390Y016018D01*
X003397Y015949D01*
X003408Y015881D01*
X003423Y015814D01*
X003441Y015748D01*
X003463Y015682D01*
X003489Y015619D01*
X003518Y015556D01*
X003551Y015496D01*
X003588Y015438D01*
X003627Y015381D01*
X003670Y015327D01*
X003715Y015276D01*
X003764Y015227D01*
X003815Y015181D01*
X003869Y015138D01*
M02*
