%
M48
M72
T01C0.0276
T02C0.0300
T03C0.0320
T04C0.0400
T05C0.0520
T06C0.1250
%
T01
X10401Y16706
X10401Y17706
X17101Y17606
X17101Y16606
X20751Y17181
X20751Y18181
T02
X10285Y15106
X8317Y15106
X5085Y18906
X3117Y18906
X2801Y8590
X2801Y6621
X5517Y7506
X7485Y7506
T03
X7801Y10306
X8801Y10306
X9801Y10306
X10801Y10306
X11801Y10306
X12801Y10306
X13801Y10306
X14801Y10306
X15801Y10306
X16801Y10306
X17801Y10306
X18801Y10306
X19801Y10306
X20801Y10306
X22101Y7806
X23101Y7806
X24101Y7806
X24101Y4806
X23101Y4806
X22101Y4806
X20801Y13306
X19801Y13306
X18801Y13306
X17801Y13306
X16801Y13306
X15801Y13306
X14801Y13306
X13801Y13306
X12801Y13306
X11801Y13306
X10801Y13306
X9801Y13306
X8801Y13306
X7801Y13306
X4601Y15606
X4601Y16606
X12651Y17206
X14551Y17206
T04
X5416Y13286
X3636Y13286
X3636Y10726
X5416Y10726
T05
X10890Y5683
X11851Y6644
X13851Y5723
X15851Y6644
X16851Y5683
X15851Y1762
X14851Y1762
X12851Y1762
X11851Y1762
X8976Y21067
X9936Y22028
X6976Y21989
X4976Y21067
X3976Y22028
X4976Y25949
X5976Y25949
X7976Y25949
X8976Y25949
X17726Y22028
X18726Y21067
X20726Y21989
X22726Y21067
X23686Y22028
X22726Y25949
X21726Y25949
X19726Y25949
X18726Y25949
T06
X1351Y1356
X1351Y26356
X26351Y26356
X26351Y1356
M30
