G75*
G70*
%OFA0B0*%
%FSLAX24Y24*%
%IPPOS*%
%LPD*%
%AMOC8*
5,1,8,0,0,1.08239X$1,22.5*
%
%ADD10C,0.1330*%
%ADD11C,0.0600*%
%ADD12C,0.0820*%
%ADD13C,0.0580*%
%ADD14C,0.0600*%
%ADD15C,0.0730*%
%ADD16C,0.0860*%
%ADD17OC8,0.0940*%
%ADD18OC8,0.0740*%
%ADD19R,0.0730X0.0730*%
%ADD20C,0.0480*%
D10*
X001351Y001351D03*
X001351Y023851D03*
X043851Y023851D03*
X043851Y001351D03*
D11*
X041101Y011841D02*
X041101Y012361D01*
X040101Y012361D02*
X040101Y011841D01*
X039101Y011841D02*
X039101Y012361D01*
X038101Y012361D02*
X038101Y011841D01*
X037101Y011841D02*
X037101Y012361D01*
X036101Y012361D02*
X036101Y011841D01*
X035101Y011841D02*
X035101Y012361D01*
X034101Y012361D02*
X034101Y011841D01*
X030601Y011841D02*
X030601Y012361D01*
X029601Y012361D02*
X029601Y011841D01*
X028601Y011841D02*
X028601Y012361D01*
X027601Y012361D02*
X027601Y011841D01*
X026601Y011841D02*
X026601Y012361D01*
X025601Y012361D02*
X025601Y011841D01*
X024601Y011841D02*
X024601Y012361D01*
X023601Y012361D02*
X023601Y011841D01*
X022601Y011841D02*
X022601Y012361D01*
X021601Y012361D02*
X021601Y011841D01*
X020601Y011841D02*
X020601Y012361D01*
X019601Y012361D02*
X019601Y011841D01*
X018601Y011841D02*
X018601Y012361D01*
X017601Y012361D02*
X017601Y011841D01*
X017601Y014841D02*
X017601Y015361D01*
X018601Y015361D02*
X018601Y014841D01*
X019601Y014841D02*
X019601Y015361D01*
X020601Y015361D02*
X020601Y014841D01*
X021601Y014841D02*
X021601Y015361D01*
X022601Y015361D02*
X022601Y014841D01*
X023601Y014841D02*
X023601Y015361D01*
X024601Y015361D02*
X024601Y014841D01*
X025601Y014841D02*
X025601Y015361D01*
X026601Y015361D02*
X026601Y014841D01*
X027601Y014841D02*
X027601Y015361D01*
X028601Y015361D02*
X028601Y014841D01*
X029601Y014841D02*
X029601Y015361D01*
X030601Y015361D02*
X030601Y014841D01*
X034101Y014841D02*
X034101Y015361D01*
X035101Y015361D02*
X035101Y014841D01*
X036101Y014841D02*
X036101Y015361D01*
X037101Y015361D02*
X037101Y014841D01*
X038101Y014841D02*
X038101Y015361D01*
X039101Y015361D02*
X039101Y014841D01*
X040101Y014841D02*
X040101Y015361D01*
X041101Y015361D02*
X041101Y014841D01*
X011101Y014841D02*
X011101Y015361D01*
X010101Y015361D02*
X010101Y014841D01*
X009101Y014841D02*
X009101Y015361D01*
X008101Y015361D02*
X008101Y014841D01*
X007101Y014841D02*
X007101Y015361D01*
X006101Y015361D02*
X006101Y014841D01*
X005101Y014841D02*
X005101Y015361D01*
X004101Y015361D02*
X004101Y014841D01*
X004101Y012361D02*
X004101Y011841D01*
X005101Y011841D02*
X005101Y012361D01*
X006101Y012361D02*
X006101Y011841D01*
X007101Y011841D02*
X007101Y012361D01*
X008101Y012361D02*
X008101Y011841D01*
X009101Y011841D02*
X009101Y012361D01*
X010101Y012361D02*
X010101Y011841D01*
X011101Y011841D02*
X011101Y012361D01*
D12*
X013711Y012321D03*
X015491Y012321D03*
X015491Y014881D03*
X013711Y014881D03*
X028821Y021711D03*
X031381Y021711D03*
X031381Y023491D03*
X028821Y023491D03*
X029211Y004381D03*
X030991Y004381D03*
X034211Y004381D03*
X035991Y004381D03*
X039211Y004381D03*
X040991Y004381D03*
X040991Y001821D03*
X039211Y001821D03*
X035991Y001821D03*
X034211Y001821D03*
X030991Y001821D03*
X029211Y001821D03*
X025991Y001821D03*
X024211Y001821D03*
X020991Y001821D03*
X019211Y001821D03*
X015991Y001821D03*
X014211Y001821D03*
X010991Y001821D03*
X009211Y001821D03*
X005991Y001821D03*
X004211Y001821D03*
X004211Y004381D03*
X005991Y004381D03*
X009211Y004381D03*
X010991Y004381D03*
X014211Y004381D03*
X015991Y004381D03*
X019211Y004381D03*
X020991Y004381D03*
X024211Y004381D03*
X025991Y004381D03*
D13*
X026085Y005601D03*
X024117Y005601D03*
X021085Y005601D03*
X019117Y005601D03*
X016085Y005601D03*
X014117Y005601D03*
X011085Y005601D03*
X009117Y005601D03*
X006085Y005601D03*
X004117Y005601D03*
X004117Y010101D03*
X006085Y010101D03*
X009117Y010101D03*
X011085Y010101D03*
X014117Y010101D03*
X016085Y010101D03*
X019117Y010101D03*
X021085Y010101D03*
X024117Y010101D03*
X026085Y010101D03*
X029117Y010101D03*
X031085Y010101D03*
X034117Y010101D03*
X036085Y010101D03*
X039117Y010101D03*
X041085Y010101D03*
X041085Y005601D03*
X039117Y005601D03*
X036085Y005601D03*
X034117Y005601D03*
X031085Y005601D03*
X029117Y005601D03*
X015585Y016601D03*
X013617Y016601D03*
X014117Y020101D03*
X016085Y020101D03*
X029617Y017601D03*
X031585Y017601D03*
D14*
X026051Y017601D03*
X024151Y017601D03*
D15*
X024101Y019601D03*
X023101Y019601D03*
X026101Y019601D03*
X027101Y019601D03*
X019101Y017601D03*
D16*
X007601Y018469D02*
X007601Y019249D01*
X037601Y019249D02*
X037601Y018469D01*
D17*
X039601Y017937D03*
X040561Y018898D03*
X035601Y017937D03*
X034601Y018898D03*
X035601Y022819D03*
X036601Y022819D03*
X038601Y022819D03*
X039601Y022819D03*
X010561Y018898D03*
X009601Y017937D03*
X005601Y017937D03*
X004601Y018898D03*
X005601Y022819D03*
X006601Y022819D03*
X008601Y022819D03*
X009601Y022819D03*
D18*
X014601Y022601D03*
X015601Y022601D03*
X015601Y008101D03*
X014601Y008101D03*
X010601Y008101D03*
X009601Y008101D03*
X005601Y008101D03*
X004601Y008101D03*
X019601Y008101D03*
X020601Y008101D03*
X024601Y008101D03*
X025601Y008101D03*
X029601Y008101D03*
X030601Y008101D03*
X034601Y008101D03*
X035601Y008101D03*
X039601Y008101D03*
X040601Y008101D03*
D19*
X020101Y017601D03*
D20*
X017101Y016601D03*
X021101Y019601D03*
X026101Y020601D03*
X026601Y021101D03*
X035101Y016101D03*
X035601Y010601D03*
X031101Y007601D03*
X027601Y004601D03*
X008601Y014101D03*
M02*
