G75*
G70*
%OFA0B0*%
%FSLAX24Y24*%
%IPPOS*%
%LPD*%
%AMOC8*
5,1,8,0,0,1.08239X$1,22.5*
%
%ADD10C,0.0000*%
%ADD11C,0.0520*%
%ADD12C,0.0740*%
%ADD13C,0.0500*%
%ADD14C,0.0520*%
%ADD15C,0.0650*%
%ADD16C,0.0780*%
%ADD17OC8,0.0860*%
%ADD18OC8,0.0660*%
%ADD19R,0.0650X0.0650*%
%ADD20C,0.0100*%
%ADD21C,0.0400*%
D10*
X000101Y000101D02*
X000101Y025101D01*
X045101Y025101D01*
X045101Y000101D01*
X000101Y000101D01*
X000726Y001351D02*
X000728Y001401D01*
X000734Y001450D01*
X000744Y001499D01*
X000757Y001546D01*
X000775Y001593D01*
X000796Y001638D01*
X000820Y001681D01*
X000848Y001722D01*
X000879Y001761D01*
X000913Y001797D01*
X000950Y001831D01*
X000990Y001861D01*
X001031Y001888D01*
X001075Y001912D01*
X001120Y001932D01*
X001167Y001948D01*
X001215Y001961D01*
X001264Y001970D01*
X001314Y001975D01*
X001363Y001976D01*
X001413Y001973D01*
X001462Y001966D01*
X001511Y001955D01*
X001558Y001941D01*
X001604Y001922D01*
X001649Y001900D01*
X001692Y001875D01*
X001732Y001846D01*
X001770Y001814D01*
X001806Y001780D01*
X001839Y001742D01*
X001868Y001702D01*
X001894Y001660D01*
X001917Y001616D01*
X001936Y001570D01*
X001952Y001523D01*
X001964Y001474D01*
X001972Y001425D01*
X001976Y001376D01*
X001976Y001326D01*
X001972Y001277D01*
X001964Y001228D01*
X001952Y001179D01*
X001936Y001132D01*
X001917Y001086D01*
X001894Y001042D01*
X001868Y001000D01*
X001839Y000960D01*
X001806Y000922D01*
X001770Y000888D01*
X001732Y000856D01*
X001692Y000827D01*
X001649Y000802D01*
X001604Y000780D01*
X001558Y000761D01*
X001511Y000747D01*
X001462Y000736D01*
X001413Y000729D01*
X001363Y000726D01*
X001314Y000727D01*
X001264Y000732D01*
X001215Y000741D01*
X001167Y000754D01*
X001120Y000770D01*
X001075Y000790D01*
X001031Y000814D01*
X000990Y000841D01*
X000950Y000871D01*
X000913Y000905D01*
X000879Y000941D01*
X000848Y000980D01*
X000820Y001021D01*
X000796Y001064D01*
X000775Y001109D01*
X000757Y001156D01*
X000744Y001203D01*
X000734Y001252D01*
X000728Y001301D01*
X000726Y001351D01*
X000726Y023851D02*
X000728Y023901D01*
X000734Y023950D01*
X000744Y023999D01*
X000757Y024046D01*
X000775Y024093D01*
X000796Y024138D01*
X000820Y024181D01*
X000848Y024222D01*
X000879Y024261D01*
X000913Y024297D01*
X000950Y024331D01*
X000990Y024361D01*
X001031Y024388D01*
X001075Y024412D01*
X001120Y024432D01*
X001167Y024448D01*
X001215Y024461D01*
X001264Y024470D01*
X001314Y024475D01*
X001363Y024476D01*
X001413Y024473D01*
X001462Y024466D01*
X001511Y024455D01*
X001558Y024441D01*
X001604Y024422D01*
X001649Y024400D01*
X001692Y024375D01*
X001732Y024346D01*
X001770Y024314D01*
X001806Y024280D01*
X001839Y024242D01*
X001868Y024202D01*
X001894Y024160D01*
X001917Y024116D01*
X001936Y024070D01*
X001952Y024023D01*
X001964Y023974D01*
X001972Y023925D01*
X001976Y023876D01*
X001976Y023826D01*
X001972Y023777D01*
X001964Y023728D01*
X001952Y023679D01*
X001936Y023632D01*
X001917Y023586D01*
X001894Y023542D01*
X001868Y023500D01*
X001839Y023460D01*
X001806Y023422D01*
X001770Y023388D01*
X001732Y023356D01*
X001692Y023327D01*
X001649Y023302D01*
X001604Y023280D01*
X001558Y023261D01*
X001511Y023247D01*
X001462Y023236D01*
X001413Y023229D01*
X001363Y023226D01*
X001314Y023227D01*
X001264Y023232D01*
X001215Y023241D01*
X001167Y023254D01*
X001120Y023270D01*
X001075Y023290D01*
X001031Y023314D01*
X000990Y023341D01*
X000950Y023371D01*
X000913Y023405D01*
X000879Y023441D01*
X000848Y023480D01*
X000820Y023521D01*
X000796Y023564D01*
X000775Y023609D01*
X000757Y023656D01*
X000744Y023703D01*
X000734Y023752D01*
X000728Y023801D01*
X000726Y023851D01*
X043226Y023851D02*
X043228Y023901D01*
X043234Y023950D01*
X043244Y023999D01*
X043257Y024046D01*
X043275Y024093D01*
X043296Y024138D01*
X043320Y024181D01*
X043348Y024222D01*
X043379Y024261D01*
X043413Y024297D01*
X043450Y024331D01*
X043490Y024361D01*
X043531Y024388D01*
X043575Y024412D01*
X043620Y024432D01*
X043667Y024448D01*
X043715Y024461D01*
X043764Y024470D01*
X043814Y024475D01*
X043863Y024476D01*
X043913Y024473D01*
X043962Y024466D01*
X044011Y024455D01*
X044058Y024441D01*
X044104Y024422D01*
X044149Y024400D01*
X044192Y024375D01*
X044232Y024346D01*
X044270Y024314D01*
X044306Y024280D01*
X044339Y024242D01*
X044368Y024202D01*
X044394Y024160D01*
X044417Y024116D01*
X044436Y024070D01*
X044452Y024023D01*
X044464Y023974D01*
X044472Y023925D01*
X044476Y023876D01*
X044476Y023826D01*
X044472Y023777D01*
X044464Y023728D01*
X044452Y023679D01*
X044436Y023632D01*
X044417Y023586D01*
X044394Y023542D01*
X044368Y023500D01*
X044339Y023460D01*
X044306Y023422D01*
X044270Y023388D01*
X044232Y023356D01*
X044192Y023327D01*
X044149Y023302D01*
X044104Y023280D01*
X044058Y023261D01*
X044011Y023247D01*
X043962Y023236D01*
X043913Y023229D01*
X043863Y023226D01*
X043814Y023227D01*
X043764Y023232D01*
X043715Y023241D01*
X043667Y023254D01*
X043620Y023270D01*
X043575Y023290D01*
X043531Y023314D01*
X043490Y023341D01*
X043450Y023371D01*
X043413Y023405D01*
X043379Y023441D01*
X043348Y023480D01*
X043320Y023521D01*
X043296Y023564D01*
X043275Y023609D01*
X043257Y023656D01*
X043244Y023703D01*
X043234Y023752D01*
X043228Y023801D01*
X043226Y023851D01*
X043226Y001351D02*
X043228Y001401D01*
X043234Y001450D01*
X043244Y001499D01*
X043257Y001546D01*
X043275Y001593D01*
X043296Y001638D01*
X043320Y001681D01*
X043348Y001722D01*
X043379Y001761D01*
X043413Y001797D01*
X043450Y001831D01*
X043490Y001861D01*
X043531Y001888D01*
X043575Y001912D01*
X043620Y001932D01*
X043667Y001948D01*
X043715Y001961D01*
X043764Y001970D01*
X043814Y001975D01*
X043863Y001976D01*
X043913Y001973D01*
X043962Y001966D01*
X044011Y001955D01*
X044058Y001941D01*
X044104Y001922D01*
X044149Y001900D01*
X044192Y001875D01*
X044232Y001846D01*
X044270Y001814D01*
X044306Y001780D01*
X044339Y001742D01*
X044368Y001702D01*
X044394Y001660D01*
X044417Y001616D01*
X044436Y001570D01*
X044452Y001523D01*
X044464Y001474D01*
X044472Y001425D01*
X044476Y001376D01*
X044476Y001326D01*
X044472Y001277D01*
X044464Y001228D01*
X044452Y001179D01*
X044436Y001132D01*
X044417Y001086D01*
X044394Y001042D01*
X044368Y001000D01*
X044339Y000960D01*
X044306Y000922D01*
X044270Y000888D01*
X044232Y000856D01*
X044192Y000827D01*
X044149Y000802D01*
X044104Y000780D01*
X044058Y000761D01*
X044011Y000747D01*
X043962Y000736D01*
X043913Y000729D01*
X043863Y000726D01*
X043814Y000727D01*
X043764Y000732D01*
X043715Y000741D01*
X043667Y000754D01*
X043620Y000770D01*
X043575Y000790D01*
X043531Y000814D01*
X043490Y000841D01*
X043450Y000871D01*
X043413Y000905D01*
X043379Y000941D01*
X043348Y000980D01*
X043320Y001021D01*
X043296Y001064D01*
X043275Y001109D01*
X043257Y001156D01*
X043244Y001203D01*
X043234Y001252D01*
X043228Y001301D01*
X043226Y001351D01*
D11*
X041101Y011841D02*
X041101Y012361D01*
X040101Y012361D02*
X040101Y011841D01*
X039101Y011841D02*
X039101Y012361D01*
X038101Y012361D02*
X038101Y011841D01*
X037101Y011841D02*
X037101Y012361D01*
X036101Y012361D02*
X036101Y011841D01*
X035101Y011841D02*
X035101Y012361D01*
X034101Y012361D02*
X034101Y011841D01*
X030601Y011841D02*
X030601Y012361D01*
X029601Y012361D02*
X029601Y011841D01*
X028601Y011841D02*
X028601Y012361D01*
X027601Y012361D02*
X027601Y011841D01*
X026601Y011841D02*
X026601Y012361D01*
X025601Y012361D02*
X025601Y011841D01*
X024601Y011841D02*
X024601Y012361D01*
X023601Y012361D02*
X023601Y011841D01*
X022601Y011841D02*
X022601Y012361D01*
X021601Y012361D02*
X021601Y011841D01*
X020601Y011841D02*
X020601Y012361D01*
X019601Y012361D02*
X019601Y011841D01*
X018601Y011841D02*
X018601Y012361D01*
X017601Y012361D02*
X017601Y011841D01*
X017601Y014841D02*
X017601Y015361D01*
X018601Y015361D02*
X018601Y014841D01*
X019601Y014841D02*
X019601Y015361D01*
X020601Y015361D02*
X020601Y014841D01*
X021601Y014841D02*
X021601Y015361D01*
X022601Y015361D02*
X022601Y014841D01*
X023601Y014841D02*
X023601Y015361D01*
X024601Y015361D02*
X024601Y014841D01*
X025601Y014841D02*
X025601Y015361D01*
X026601Y015361D02*
X026601Y014841D01*
X027601Y014841D02*
X027601Y015361D01*
X028601Y015361D02*
X028601Y014841D01*
X029601Y014841D02*
X029601Y015361D01*
X030601Y015361D02*
X030601Y014841D01*
X034101Y014841D02*
X034101Y015361D01*
X035101Y015361D02*
X035101Y014841D01*
X036101Y014841D02*
X036101Y015361D01*
X037101Y015361D02*
X037101Y014841D01*
X038101Y014841D02*
X038101Y015361D01*
X039101Y015361D02*
X039101Y014841D01*
X040101Y014841D02*
X040101Y015361D01*
X041101Y015361D02*
X041101Y014841D01*
X011101Y014841D02*
X011101Y015361D01*
X010101Y015361D02*
X010101Y014841D01*
X009101Y014841D02*
X009101Y015361D01*
X008101Y015361D02*
X008101Y014841D01*
X007101Y014841D02*
X007101Y015361D01*
X006101Y015361D02*
X006101Y014841D01*
X005101Y014841D02*
X005101Y015361D01*
X004101Y015361D02*
X004101Y014841D01*
X004101Y012361D02*
X004101Y011841D01*
X005101Y011841D02*
X005101Y012361D01*
X006101Y012361D02*
X006101Y011841D01*
X007101Y011841D02*
X007101Y012361D01*
X008101Y012361D02*
X008101Y011841D01*
X009101Y011841D02*
X009101Y012361D01*
X010101Y012361D02*
X010101Y011841D01*
X011101Y011841D02*
X011101Y012361D01*
D12*
X013711Y012321D03*
X015491Y012321D03*
X015491Y014881D03*
X013711Y014881D03*
X028821Y021711D03*
X031381Y021711D03*
X031381Y023491D03*
X028821Y023491D03*
X029211Y004381D03*
X030991Y004381D03*
X034211Y004381D03*
X035991Y004381D03*
X039211Y004381D03*
X040991Y004381D03*
X040991Y001821D03*
X039211Y001821D03*
X035991Y001821D03*
X034211Y001821D03*
X030991Y001821D03*
X029211Y001821D03*
X025991Y001821D03*
X024211Y001821D03*
X020991Y001821D03*
X019211Y001821D03*
X015991Y001821D03*
X014211Y001821D03*
X010991Y001821D03*
X009211Y001821D03*
X005991Y001821D03*
X004211Y001821D03*
X004211Y004381D03*
X005991Y004381D03*
X009211Y004381D03*
X010991Y004381D03*
X014211Y004381D03*
X015991Y004381D03*
X019211Y004381D03*
X020991Y004381D03*
X024211Y004381D03*
X025991Y004381D03*
D13*
X026085Y005601D03*
X024117Y005601D03*
X021085Y005601D03*
X019117Y005601D03*
X016085Y005601D03*
X014117Y005601D03*
X011085Y005601D03*
X009117Y005601D03*
X006085Y005601D03*
X004117Y005601D03*
X004117Y010101D03*
X006085Y010101D03*
X009117Y010101D03*
X011085Y010101D03*
X014117Y010101D03*
X016085Y010101D03*
X019117Y010101D03*
X021085Y010101D03*
X024117Y010101D03*
X026085Y010101D03*
X029117Y010101D03*
X031085Y010101D03*
X034117Y010101D03*
X036085Y010101D03*
X039117Y010101D03*
X041085Y010101D03*
X041085Y005601D03*
X039117Y005601D03*
X036085Y005601D03*
X034117Y005601D03*
X031085Y005601D03*
X029117Y005601D03*
X015585Y016601D03*
X013617Y016601D03*
X014117Y020101D03*
X016085Y020101D03*
X029617Y017601D03*
X031585Y017601D03*
D14*
X026051Y017601D03*
X024151Y017601D03*
D15*
X024101Y019601D03*
X023101Y019601D03*
X026101Y019601D03*
X027101Y019601D03*
X019101Y017601D03*
D16*
X007601Y018469D02*
X007601Y019249D01*
X037601Y019249D02*
X037601Y018469D01*
D17*
X039601Y017937D03*
X040561Y018898D03*
X035601Y017937D03*
X034601Y018898D03*
X035601Y022819D03*
X036601Y022819D03*
X038601Y022819D03*
X039601Y022819D03*
X010561Y018898D03*
X009601Y017937D03*
X005601Y017937D03*
X004601Y018898D03*
X005601Y022819D03*
X006601Y022819D03*
X008601Y022819D03*
X009601Y022819D03*
D18*
X014601Y022601D03*
X015601Y022601D03*
X015601Y008101D03*
X014601Y008101D03*
X010601Y008101D03*
X009601Y008101D03*
X005601Y008101D03*
X004601Y008101D03*
X019601Y008101D03*
X020601Y008101D03*
X024601Y008101D03*
X025601Y008101D03*
X029601Y008101D03*
X030601Y008101D03*
X034601Y008101D03*
X035601Y008101D03*
X039601Y008101D03*
X040601Y008101D03*
D19*
X020101Y017601D03*
D20*
X019101Y017601D02*
X016601Y020101D01*
X016601Y021601D01*
X015601Y022601D01*
X014601Y022601D02*
X014601Y021601D01*
X016101Y020101D01*
X016085Y020101D01*
X014101Y021101D02*
X014101Y023101D01*
X028101Y023101D01*
X028601Y022601D01*
X029601Y022601D01*
X029601Y018601D01*
X030101Y018101D01*
X030101Y015601D01*
X029601Y015101D01*
X030601Y015101D02*
X032101Y015101D01*
X033601Y016601D01*
X035601Y016601D01*
X035601Y012601D01*
X036101Y012101D01*
X034101Y012101D02*
X031101Y009101D01*
X031101Y007601D01*
X030601Y008101D02*
X030601Y006101D01*
X031101Y005601D01*
X031085Y005601D01*
X030101Y004601D02*
X030101Y003101D01*
X031101Y002101D01*
X030991Y001821D01*
X031101Y001601D01*
X031101Y001101D01*
X036101Y001101D01*
X038101Y003101D01*
X038101Y012101D01*
X038601Y012601D02*
X038601Y003101D01*
X036101Y000601D01*
X016101Y000601D01*
X016101Y001601D01*
X015991Y001821D01*
X016101Y002101D01*
X015101Y003101D01*
X015101Y004601D01*
X014101Y005601D01*
X014117Y005601D01*
X013601Y006101D02*
X013601Y012101D01*
X013711Y012321D01*
X014101Y013101D02*
X014601Y012601D01*
X014601Y010601D01*
X014101Y010101D01*
X014117Y010101D01*
X014601Y008601D02*
X016101Y010101D01*
X016085Y010101D01*
X016601Y009101D02*
X020601Y005101D01*
X023101Y005101D01*
X023101Y002101D01*
X024101Y001101D01*
X027101Y001101D01*
X027101Y014101D01*
X027601Y014601D01*
X027601Y015101D01*
X027101Y014601D02*
X026101Y013601D01*
X026101Y012601D01*
X025601Y012101D01*
X025601Y011101D02*
X026601Y012101D01*
X025601Y011101D02*
X025101Y011101D01*
X025101Y016601D01*
X024101Y017601D01*
X024151Y017601D01*
X024101Y017601D02*
X024101Y019601D01*
X024601Y019601D02*
X024601Y020101D01*
X023101Y020101D01*
X023101Y019601D01*
X023601Y019101D01*
X023601Y015101D01*
X023601Y013101D01*
X024601Y012101D01*
X023601Y012101D02*
X023601Y002601D01*
X024101Y002101D01*
X024211Y001821D01*
X025101Y003101D02*
X026101Y002101D01*
X025991Y001821D01*
X025101Y003101D02*
X025101Y004601D01*
X024101Y005601D01*
X024117Y005601D01*
X025601Y006101D02*
X025601Y008101D01*
X024601Y008101D02*
X024601Y008601D01*
X026101Y010101D01*
X026085Y010101D01*
X029601Y008601D02*
X029601Y008101D01*
X029601Y008601D02*
X031101Y010101D01*
X031085Y010101D01*
X034101Y009101D02*
X034101Y005601D01*
X034117Y005601D01*
X034101Y005601D02*
X035101Y004601D01*
X035101Y003101D01*
X036101Y002101D01*
X035991Y001821D01*
X040101Y003101D02*
X041101Y002101D01*
X040991Y001821D01*
X040101Y003101D02*
X040101Y004601D01*
X039101Y005601D01*
X039117Y005601D01*
X039101Y005601D02*
X039101Y008601D01*
X039601Y009101D01*
X039601Y011601D01*
X040101Y012101D01*
X040601Y012601D02*
X041101Y012101D01*
X041601Y011601D01*
X041601Y009101D01*
X040601Y008101D01*
X040601Y006101D01*
X041101Y005601D01*
X041085Y005601D01*
X039601Y008101D02*
X039601Y008601D01*
X041101Y010101D01*
X041085Y010101D01*
X040601Y012601D02*
X040601Y015601D01*
X037601Y018601D01*
X037601Y018859D01*
X035601Y018101D02*
X035601Y017937D01*
X035601Y018101D02*
X034101Y018101D01*
X030601Y021601D01*
X030601Y022101D01*
X029101Y023601D01*
X028821Y023491D01*
X028821Y021711D02*
X028601Y021601D01*
X024101Y021601D01*
X022101Y019601D01*
X022101Y012601D01*
X022601Y012101D01*
X021101Y013601D02*
X021101Y019601D01*
X024601Y019601D02*
X026101Y019601D01*
X026601Y020101D02*
X026601Y015101D01*
X027101Y014601D02*
X027101Y019601D01*
X026601Y020101D02*
X026101Y020601D01*
X026601Y021101D02*
X028601Y019101D01*
X028601Y015101D01*
X026101Y013601D02*
X026101Y017601D01*
X026051Y017601D01*
X029101Y018101D02*
X029101Y021601D01*
X028821Y021711D01*
X029101Y018101D02*
X029601Y017601D01*
X029617Y017601D01*
X033601Y016101D02*
X035101Y016101D01*
X033601Y016101D02*
X029601Y012101D01*
X027601Y007601D02*
X035101Y015101D01*
X036101Y015101D02*
X038601Y012601D01*
X035601Y010601D02*
X034101Y009101D01*
X034601Y008601D02*
X034601Y008101D01*
X034601Y008601D02*
X036101Y010101D01*
X036085Y010101D01*
X035601Y008101D02*
X035601Y006101D01*
X036101Y005601D01*
X036085Y005601D01*
X030101Y004601D02*
X029101Y005601D01*
X029117Y005601D01*
X027601Y004601D02*
X027601Y007601D01*
X025601Y006101D02*
X026101Y005601D01*
X026085Y005601D01*
X021101Y005601D02*
X021085Y005601D01*
X021101Y005601D02*
X020601Y006101D01*
X020601Y008101D01*
X019601Y008101D02*
X019601Y008601D01*
X021101Y010101D01*
X021085Y010101D01*
X019601Y012101D02*
X021101Y013601D01*
X018601Y012101D02*
X017101Y013601D01*
X017101Y016601D01*
X016601Y017101D02*
X016601Y009101D01*
X015601Y008101D02*
X015601Y006101D01*
X013601Y006101D01*
X010601Y006101D01*
X010601Y007101D01*
X005601Y007101D01*
X005601Y006101D01*
X006101Y005601D01*
X006085Y005601D01*
X005101Y004601D02*
X005101Y003101D01*
X006101Y002101D01*
X005991Y001821D01*
X004211Y001821D02*
X004101Y002101D01*
X003601Y002601D01*
X003601Y014601D01*
X004101Y015101D01*
X005601Y016601D01*
X005601Y017937D01*
X007601Y018859D02*
X007601Y015601D01*
X007101Y015101D01*
X008101Y015101D02*
X014101Y021101D01*
X013601Y022101D02*
X013601Y023101D01*
X014601Y024101D01*
X040601Y024101D01*
X040601Y019101D01*
X040561Y018898D01*
X020101Y004601D02*
X019101Y005601D01*
X019117Y005601D01*
X020101Y004601D02*
X020101Y003101D01*
X021101Y002101D01*
X020991Y001821D01*
X016101Y005601D02*
X016085Y005601D01*
X016101Y005601D02*
X015601Y006101D01*
X014601Y008101D02*
X014601Y008601D01*
X011101Y010101D02*
X011085Y010101D01*
X011101Y010101D02*
X009601Y008601D01*
X009601Y008101D01*
X010601Y008101D02*
X010601Y007101D01*
X010601Y006101D02*
X011101Y005601D01*
X011085Y005601D01*
X010101Y004601D02*
X010101Y003101D01*
X011101Y002101D01*
X010991Y001821D01*
X010101Y004601D02*
X009101Y005601D01*
X009117Y005601D01*
X005601Y007101D02*
X005601Y008101D01*
X004601Y008101D02*
X004601Y008601D01*
X006101Y010101D01*
X006085Y010101D01*
X004601Y010601D02*
X004601Y014601D01*
X005101Y015101D01*
X008601Y014101D02*
X009101Y013601D01*
X009101Y012101D01*
X011101Y011101D02*
X005101Y011101D01*
X005101Y012101D01*
X004601Y010601D02*
X004101Y010101D01*
X004117Y010101D01*
X011101Y011101D02*
X011601Y011601D01*
X011601Y013101D01*
X014101Y013101D01*
X015601Y012601D02*
X015491Y012321D01*
X015601Y012601D02*
X016101Y013101D01*
X016101Y016101D01*
X015601Y016601D01*
X015585Y016601D01*
X016601Y017101D02*
X011101Y017101D01*
X009101Y015101D01*
X010561Y018898D02*
X010601Y019101D01*
X013601Y022101D01*
X004117Y005601D02*
X004101Y005601D01*
X005101Y004601D01*
D21*
X008601Y014101D03*
X017101Y016601D03*
X021101Y019601D03*
X026101Y020601D03*
X026601Y021101D03*
X035101Y016101D03*
X035601Y010601D03*
X031101Y007601D03*
X027601Y004601D03*
M02*
