solid angled_standoff_joiner_with_magnet
facet normal 0.991694919735351 -0.128612542821822 0.0
outer loop
vertex -23.7995158816134 -17.9491104845594 0.0
vertex -23.798920170338 -18.257781871641 3.175
vertex -23.798920170338 -18.257781871641 0.0
endloop
endfacet
facet normal 0.999998137708398 0.00192991702806745 0.0
outer loop
vertex -23.798920170338 -18.257781871641 3.175
vertex -23.7995158816134 -17.9491104845594 0.0
vertex -23.7995158816134 -17.9491104845594 3.175
endloop
endfacet
facet normal -0.794526721883885 -0.607229189196672 0.0
outer loop
vertex 21.7411586586729 -16.8061264363157 3.175
vertex 22.0518256224701 -17.3466236957339 0.0
vertex 22.0518256224701 -17.3466236957339 3.175
endloop
endfacet
facet normal -0.924616359250697 -0.380899708855215 0.0
outer loop
vertex 22.0518256224701 -17.3466236957339 0.0
vertex 21.7411586586729 -16.8061264363157 3.175
vertex 21.7411586586729 -16.8061264363157 0.0
endloop
endfacet
facet normal -0.610291401438173 -0.792177003788062 0.0
outer loop
vertex 21.3011864304032 -16.36445270132 3.175
vertex 21.7411586586729 -16.8061264363157 0.0
vertex 21.7411586586729 -16.8061264363157 3.175
endloop
endfacet
facet normal -0.794526721883885 -0.607229189196672 0.0
outer loop
vertex 21.7411586586729 -16.8061264363157 0.0
vertex 21.3011864304032 -16.36445270132 3.175
vertex 21.3011864304032 -16.36445270132 0.0
endloop
endfacet
facet normal -7.13678390310794e-17 -1.01342331424134e-15 1.0
outer loop
vertex 12.3945838032626 -5.22746798486636 15.875
vertex 11.272051788129 -1.85987193946542 15.875
vertex 10.1495197729953 -2.98240395459908 15.875
endloop
endfacet
facet normal -7.13678390310794e-17 -1.01342331424134e-15 1.0
outer loop
vertex 11.272051788129 -1.85987193946542 15.875
vertex 12.3945838032626 -5.22746798486636 15.875
vertex 15.7621798486636 2.63025612106917 15.875
endloop
endfacet
facet normal -7.13678390310794e-17 -1.01342331424134e-15 1.0
outer loop
vertex 15.7621798486636 2.63025612106917 15.875
vertex 12.3945838032626 -5.22746798486636 15.875
vertex 19.1297758940645 1.50772410593553 15.875
endloop
endfacet
facet normal -7.13678390310794e-17 -1.01342331424134e-15 1.0
outer loop
vertex 15.7621798486636 2.63025612106917 15.875
vertex 19.1297758940645 1.50772410593553 15.875
vertex 16.8847118637972 3.75278813620282 15.875
endloop
endfacet
facet normal 0.0 1.0 0.0
outer loop
vertex -23.8125 -22.225 15.875
vertex -19.05 -22.225 3.175
vertex -23.8125 -22.225 3.175
endloop
endfacet
facet normal 0.0 1.0 0.0
outer loop
vertex -19.05 -22.225 3.175
vertex -23.8125 -22.225 15.875
vertex -19.05 -22.225 15.875
endloop
endfacet
facet normal -0.380899708855215 -0.924616359250696 0.0
outer loop
vertex -20.5216236957339 -16.0481743775299 3.175
vertex -21.1241104845594 -15.8879841183866 0.0
vertex -20.5216236957339 -16.0481743775299 0.0
endloop
endfacet
facet normal -0.128612542821804 -0.991694919735354 -5.39058114212624e-18
outer loop
vertex -21.1241104845594 -15.8879841183866 0.0
vertex -20.5216236957339 -16.0481743775299 3.175
vertex -21.1241104845594 -15.8879841183866 3.175
endloop
endfacet
facet normal 0.0 0.0 1.0
outer loop
vertex 17.4625 -22.225 3.175
vertex 15.875 -15.875 3.175
vertex 15.875 -20.6375 3.175
endloop
endfacet
facet normal 0.0 0.0 1.0
outer loop
vertex 15.875 -15.875 3.175
vertex 17.4625 -22.225 3.175
vertex 17.4625 -14.2875 3.175
endloop
endfacet
facet normal 0.0 0.0 1.0
outer loop
vertex 17.4625 -14.2875 3.175
vertex 17.4625 -22.225 3.175
vertex 17.4754841183866 -18.5633895154406 3.175
endloop
endfacet
facet normal 0.0 0.0 1.0
outer loop
vertex 17.4754841183866 -18.5633895154406 3.175
vertex 17.4625 -22.225 3.175
vertex 17.6356743775299 -19.1658763042661 3.175
endloop
endfacet
facet normal 0.0 0.0 1.0
outer loop
vertex 17.6356743775299 -19.1658763042661 3.175
vertex 17.4625 -22.225 3.175
vertex 17.9463413413271 -19.7063735636843 3.175
endloop
endfacet
facet normal 0.0 0.0 1.0
outer loop
vertex 17.9463413413271 -19.7063735636843 3.175
vertex 17.4625 -22.225 3.175
vertex 18.3863135695968 -20.14804729868 3.175
endloop
endfacet
facet normal 0.0 0.0 1.0
outer loop
vertex 18.3863135695968 -20.14804729868 3.175
vertex 17.4625 -22.225 3.175
vertex 18.9256076820709 -20.4607981741135 3.175
endloop
endfacet
facet normal 0.0 0.0 1.0
outer loop
vertex 18.9256076820709 -20.4607981741135 3.175
vertex 17.4625 -22.225 3.175
vertex 22.225 -22.225 3.175
endloop
endfacet
facet normal 0.0 0.0 1.0
outer loop
vertex 18.9256076820709 -20.4607981741135 3.175
vertex 22.225 -22.225 3.175
vertex 19.5274716762099 -20.6233127346693 3.175
endloop
endfacet
facet normal 0.0 0.0 1.0
outer loop
vertex 19.5274716762099 -20.6233127346693 3.175
vertex 22.225 -22.225 3.175
vertex 20.1508895154406 -20.6245158816134 3.175
endloop
endfacet
facet normal 0.0 0.0 1.0
outer loop
vertex 20.1508895154406 -20.6245158816134 3.175
vertex 22.225 -22.225 3.175
vertex 20.7533763042661 -20.4643256224701 3.175
endloop
endfacet
facet normal 0.0 0.0 1.0
outer loop
vertex 20.7533763042661 -20.4643256224701 3.175
vertex 22.225 -22.225 3.175
vertex 21.2938735636843 -20.1536586586729 3.175
endloop
endfacet
facet normal 0.0 0.0 1.0
outer loop
vertex 21.2938735636843 -20.1536586586729 3.175
vertex 22.225 -22.225 3.175
vertex 21.73554729868 -19.7136864304032 3.175
endloop
endfacet
facet normal 0.0 0.0 1.0
outer loop
vertex 21.73554729868 -19.7136864304032 3.175
vertex 22.225 -22.225 3.175
vertex 22.0482981741135 -19.1743923179291 3.175
endloop
endfacet
facet normal 0.0 0.0 1.0
outer loop
vertex 22.0482981741135 -19.1743923179291 3.175
vertex 22.225 -22.225 3.175
vertex 22.2108127346693 -18.5725283237901 3.175
endloop
endfacet
facet normal 0.0 0.0 1.0
outer loop
vertex 22.2108127346693 -18.5725283237901 3.175
vertex 22.225 -22.225 3.175
vertex 22.211420170338 -18.2577818716411 3.175
endloop
endfacet
facet normal 0.0 0.0 1.0
outer loop
vertex 22.211420170338 -18.2577818716411 3.175
vertex 22.225 -22.225 3.175
vertex 22.2120158816134 -17.9491104845594 3.175
endloop
endfacet
facet normal 0.0 0.0 1.0
outer loop
vertex 17.4625 -14.2875 3.175
vertex 18.9341236957339 -16.0481743775299 3.175
vertex 22.225 -14.2875 3.175
endloop
endfacet
facet normal 0.0 0.0 1.0
outer loop
vertex 18.9341236957339 -16.0481743775299 3.175
vertex 17.4625 -14.2875 3.175
vertex 18.3936264363157 -16.3588413413271 3.175
endloop
endfacet
facet normal 0.0 0.0 1.0
outer loop
vertex 18.3936264363157 -16.3588413413271 3.175
vertex 17.4625 -14.2875 3.175
vertex 17.95195270132 -16.7988135695968 3.175
endloop
endfacet
facet normal 0.0 0.0 1.0
outer loop
vertex 17.95195270132 -16.7988135695968 3.175
vertex 17.4625 -14.2875 3.175
vertex 17.6392018258865 -17.3381076820709 3.175
endloop
endfacet
facet normal 0.0 0.0 1.0
outer loop
vertex 17.6392018258865 -17.3381076820709 3.175
vertex 17.4625 -14.2875 3.175
vertex 17.4766872653307 -17.9399716762099 3.175
endloop
endfacet
facet normal 0.0 0.0 1.0
outer loop
vertex 17.4766872653307 -17.9399716762099 3.175
vertex 17.4625 -14.2875 3.175
vertex 17.4754841183866 -18.5633895154406 3.175
endloop
endfacet
facet normal 0.0 0.0 1.0
outer loop
vertex 17.4766872653307 -17.9399716762099 3.175
vertex 17.4754841183866 -18.5633895154406 3.175
vertex 17.476079829662 -18.2547181283589 3.175
endloop
endfacet
facet normal 0.0 0.0 1.0
outer loop
vertex 22.225 -14.2875 3.175
vertex 18.9341236957339 -16.0481743775299 3.175
vertex 19.5366104845594 -15.8879841183866 3.175
endloop
endfacet
facet normal 0.0 0.0 1.0
outer loop
vertex 22.225 -14.2875 3.175
vertex 19.5366104845594 -15.8879841183866 3.175
vertex 20.1600283237901 -15.8891872653307 3.175
endloop
endfacet
facet normal 0.0 0.0 1.0
outer loop
vertex 22.225 -14.2875 3.175
vertex 20.1600283237901 -15.8891872653307 3.175
vertex 20.7618923179291 -16.0517018258865 3.175
endloop
endfacet
facet normal 0.0 0.0 1.0
outer loop
vertex 22.225 -14.2875 3.175
vertex 20.7618923179291 -16.0517018258865 3.175
vertex 21.3011864304032 -16.36445270132 3.175
endloop
endfacet
facet normal 0.0 0.0 1.0
outer loop
vertex 22.225 -14.2875 3.175
vertex 21.3011864304032 -16.36445270132 3.175
vertex 21.7411586586729 -16.8061264363157 3.175
endloop
endfacet
facet normal 0.0 0.0 1.0
outer loop
vertex 22.225 -14.2875 3.175
vertex 21.7411586586729 -16.8061264363157 3.175
vertex 22.0518256224701 -17.3466236957339 3.175
endloop
endfacet
facet normal 0.0 0.0 1.0
outer loop
vertex 22.225 -14.2875 3.175
vertex 22.0518256224701 -17.3466236957339 3.175
vertex 22.2120158816134 -17.9491104845594 3.175
endloop
endfacet
facet normal 0.0 0.0 1.0
outer loop
vertex 22.225 -14.2875 3.175
vertex 22.2120158816134 -17.9491104845594 3.175
vertex 22.225 -22.225 3.175
endloop
endfacet
facet normal 0.0 0.0 1.0
outer loop
vertex 22.225 -14.2875 3.175
vertex 22.225 -22.225 3.175
vertex 23.8125 -20.6375 3.175
endloop
endfacet
facet normal 0.0 0.0 1.0
outer loop
vertex 22.225 -14.2875 3.175
vertex 23.8125 -20.6375 3.175
vertex 23.8125 -15.875 3.175
endloop
endfacet
facet normal -0.924616359250697 -0.380899708855215 0.0
outer loop
vertex 22.0518256224701 -17.3466236957339 3.175
vertex 22.2120158816134 -17.9491104845594 0.0
vertex 22.2120158816134 -17.9491104845594 3.175
endloop
endfacet
facet normal -0.991694919735353 -0.128612542821809 0.0
outer loop
vertex 22.2120158816134 -17.9491104845594 0.0
vertex 22.0518256224701 -17.3466236957339 3.175
vertex 22.0518256224701 -17.3466236957339 0.0
endloop
endfacet
facet normal -1.0 0.0 0.0
outer loop
vertex 23.8125 -15.875 15.875
vertex 23.8125 -20.6375 3.175
vertex 23.8125 -20.6375 15.875
endloop
endfacet
facet normal -1.0 0.0 0.0
outer loop
vertex 23.8125 -20.6375 3.175
vertex 23.8125 -15.875 15.875
vertex 23.8125 -15.875 3.175
endloop
endfacet
facet normal -0.707106781186548 0.707106781186548 0.0
outer loop
vertex 23.8125 -20.6375 15.875
vertex 22.225 -22.225 3.175
vertex 22.225 -22.225 15.875
endloop
endfacet
facet normal -0.707106781186548 0.707106781186548 0.0
outer loop
vertex 22.225 -22.225 3.175
vertex 23.8125 -20.6375 15.875
vertex 23.8125 -20.6375 3.175
endloop
endfacet
facet normal -0.132439355462634 -0.99119111029339 0.0
outer loop
vertex 20.1600283237901 -15.8891872653307 3.175
vertex 19.5366104845594 -15.8879841183866 0.0
vertex 20.1600283237901 -15.8891872653307 0.0
endloop
endfacet
facet normal 0.128612542821806 -0.991694919735354 0.0
outer loop
vertex 19.5366104845594 -15.8879841183866 0.0
vertex 20.1600283237901 -15.8891872653307 3.175
vertex 19.5366104845594 -15.8879841183866 3.175
endloop
endfacet
facet normal -0.384465730538677 -0.92313926470569 0.0
outer loop
vertex 20.7618923179291 -16.0517018258865 3.175
vertex 20.1600283237901 -15.8891872653307 0.0
vertex 20.7618923179291 -16.0517018258865 0.0
endloop
endfacet
facet normal -0.132439355462634 -0.99119111029339 0.0
outer loop
vertex 20.1600283237901 -15.8891872653307 0.0
vertex 20.7618923179291 -16.0517018258865 3.175
vertex 20.1600283237901 -15.8891872653307 3.175
endloop
endfacet
facet normal 0.0 0.0 1.0
outer loop
vertex -23.8125 -22.225 3.175
vertex -25.4 -15.875 3.175
vertex -25.4 -20.6375 3.175
endloop
endfacet
facet normal 0.0 0.0 1.0
outer loop
vertex -25.4 -15.875 3.175
vertex -23.8125 -22.225 3.175
vertex -23.8125 -14.2875 3.175
endloop
endfacet
facet normal 0.0 0.0 1.0
outer loop
vertex -23.8125 -14.2875 3.175
vertex -23.8125 -22.225 3.175
vertex -23.7983127346693 -18.5725283237901 3.175
endloop
endfacet
facet normal 0.0 0.0 1.0
outer loop
vertex -23.7983127346693 -18.5725283237901 3.175
vertex -23.8125 -22.225 3.175
vertex -23.6357981741135 -19.1743923179291 3.175
endloop
endfacet
facet normal 0.0 0.0 1.0
outer loop
vertex -23.6357981741135 -19.1743923179291 3.175
vertex -23.8125 -22.225 3.175
vertex -23.32304729868 -19.7136864304032 3.175
endloop
endfacet
facet normal 0.0 0.0 1.0
outer loop
vertex -23.32304729868 -19.7136864304032 3.175
vertex -23.8125 -22.225 3.175
vertex -22.8813735636843 -20.1536586586729 3.175
endloop
endfacet
facet normal 0.0 0.0 1.0
outer loop
vertex -22.8813735636843 -20.1536586586729 3.175
vertex -23.8125 -22.225 3.175
vertex -22.3408763042661 -20.4643256224701 3.175
endloop
endfacet
facet normal 0.0 0.0 1.0
outer loop
vertex -22.3408763042661 -20.4643256224701 3.175
vertex -23.8125 -22.225 3.175
vertex -19.05 -22.225 3.175
endloop
endfacet
facet normal 0.0 0.0 1.0
outer loop
vertex -23.8125 -14.2875 3.175
vertex -23.7983127346693 -18.5725283237901 3.175
vertex -23.798920170338 -18.257781871641 3.175
endloop
endfacet
facet normal 0.0 0.0 1.0
outer loop
vertex -23.8125 -14.2875 3.175
vertex -23.798920170338 -18.257781871641 3.175
vertex -23.7995158816134 -17.9491104845594 3.175
endloop
endfacet
facet normal 0.0 0.0 1.0
outer loop
vertex -22.3408763042661 -20.4643256224701 3.175
vertex -19.05 -22.225 3.175
vertex -21.7383895154406 -20.6245158816134 3.175
endloop
endfacet
facet normal 0.0 0.0 1.0
outer loop
vertex -21.7383895154406 -20.6245158816134 3.175
vertex -19.05 -22.225 3.175
vertex -21.1149716762099 -20.6233127346693 3.175
endloop
endfacet
facet normal 0.0 0.0 1.0
outer loop
vertex -21.1149716762099 -20.6233127346693 3.175
vertex -19.05 -22.225 3.175
vertex -20.5131076820709 -20.4607981741135 3.175
endloop
endfacet
facet normal 0.0 0.0 1.0
outer loop
vertex -20.5131076820709 -20.4607981741135 3.175
vertex -19.05 -22.225 3.175
vertex -19.9738135695968 -20.14804729868 3.175
endloop
endfacet
facet normal 0.0 0.0 1.0
outer loop
vertex -19.9738135695968 -20.14804729868 3.175
vertex -19.05 -22.225 3.175
vertex -19.5338413413271 -19.7063735636843 3.175
endloop
endfacet
facet normal 0.0 0.0 1.0
outer loop
vertex -19.5338413413271 -19.7063735636843 3.175
vertex -19.05 -22.225 3.175
vertex -19.2231743775299 -19.1658763042661 3.175
endloop
endfacet
facet normal 0.0 0.0 1.0
outer loop
vertex -19.2231743775299 -19.1658763042661 3.175
vertex -19.05 -22.225 3.175
vertex -19.0629841183865 -18.5633895154406 3.175
endloop
endfacet
facet normal 0.0 0.0 1.0
outer loop
vertex -23.8125 -14.2875 3.175
vertex -22.3493923179291 -16.0517018258865 3.175
vertex -19.05 -14.2875 3.175
endloop
endfacet
facet normal 0.0 0.0 1.0
outer loop
vertex -22.3493923179291 -16.0517018258865 3.175
vertex -23.8125 -14.2875 3.175
vertex -22.8886864304032 -16.36445270132 3.175
endloop
endfacet
facet normal 0.0 0.0 1.0
outer loop
vertex -22.8886864304032 -16.36445270132 3.175
vertex -23.8125 -14.2875 3.175
vertex -23.3286586586729 -16.8061264363157 3.175
endloop
endfacet
facet normal 0.0 0.0 1.0
outer loop
vertex -23.3286586586729 -16.8061264363157 3.175
vertex -23.8125 -14.2875 3.175
vertex -23.6393256224701 -17.3466236957339 3.175
endloop
endfacet
facet normal 0.0 0.0 1.0
outer loop
vertex -23.6393256224701 -17.3466236957339 3.175
vertex -23.8125 -14.2875 3.175
vertex -23.7995158816134 -17.9491104845594 3.175
endloop
endfacet
facet normal 0.0 0.0 1.0
outer loop
vertex -19.05 -14.2875 3.175
vertex -22.3493923179291 -16.0517018258865 3.175
vertex -21.7475283237901 -15.8891872653307 3.175
endloop
endfacet
facet normal 0.0 0.0 1.0
outer loop
vertex -19.05 -14.2875 3.175
vertex -21.7475283237901 -15.8891872653307 3.175
vertex -21.1241104845594 -15.8879841183866 3.175
endloop
endfacet
facet normal 0.0 0.0 1.0
outer loop
vertex -19.05 -14.2875 3.175
vertex -21.1241104845594 -15.8879841183866 3.175
vertex -20.5216236957339 -16.0481743775299 3.175
endloop
endfacet
facet normal 0.0 0.0 1.0
outer loop
vertex -19.05 -14.2875 3.175
vertex -20.5216236957339 -16.0481743775299 3.175
vertex -19.9811264363157 -16.3588413413271 3.175
endloop
endfacet
facet normal 0.0 0.0 1.0
outer loop
vertex -19.05 -14.2875 3.175
vertex -19.9811264363157 -16.3588413413271 3.175
vertex -19.53945270132 -16.7988135695968 3.175
endloop
endfacet
facet normal 0.0 0.0 1.0
outer loop
vertex -19.05 -14.2875 3.175
vertex -19.53945270132 -16.7988135695968 3.175
vertex -19.2267018258865 -17.3381076820709 3.175
endloop
endfacet
facet normal 0.0 0.0 1.0
outer loop
vertex -19.05 -14.2875 3.175
vertex -19.2267018258865 -17.3381076820709 3.175
vertex -19.0641872653307 -17.9399716762099 3.175
endloop
endfacet
facet normal 0.0 0.0 1.0
outer loop
vertex -19.05 -14.2875 3.175
vertex -19.0641872653307 -17.9399716762099 3.175
vertex -19.063579829662 -18.2547181283589 3.175
endloop
endfacet
facet normal 0.0 0.0 1.0
outer loop
vertex -19.05 -14.2875 3.175
vertex -19.063579829662 -18.2547181283589 3.175
vertex -19.0629841183865 -18.5633895154406 3.175
endloop
endfacet
facet normal 0.0 0.0 1.0
outer loop
vertex -19.05 -14.2875 3.175
vertex -19.0629841183865 -18.5633895154406 3.175
vertex -19.05 -22.225 3.175
endloop
endfacet
facet normal 0.0 0.0 1.0
outer loop
vertex -19.05 -14.2875 3.175
vertex -19.05 -22.225 3.175
vertex -17.4625 -20.6375 3.175
endloop
endfacet
facet normal 0.0 0.0 1.0
outer loop
vertex -19.05 -14.2875 3.175
vertex -17.4625 -20.6375 3.175
vertex -17.4625 -15.875 3.175
endloop
endfacet
facet normal 0.923139264705687 0.384465730538684 0.0
outer loop
vertex -23.6357981741135 -19.1743923179291 0.0
vertex -23.32304729868 -19.7136864304032 3.175
vertex -23.32304729868 -19.7136864304032 0.0
endloop
endfacet
facet normal 0.792177003788061 0.610291401438173 0.0
outer loop
vertex -23.32304729868 -19.7136864304032 3.175
vertex -23.6357981741135 -19.1743923179291 0.0
vertex -23.6357981741135 -19.1743923179291 3.175
endloop
endfacet
facet normal -0.924616359250695 0.380899708855217 0.0
outer loop
vertex -19.2231743775299 -19.1658763042661 3.175
vertex -19.5338413413271 -19.7063735636843 0.0
vertex -19.5338413413271 -19.7063735636843 3.175
endloop
endfacet
facet normal -0.794526721883875 0.607229189196685 0.0
outer loop
vertex -19.5338413413271 -19.7063735636843 0.0
vertex -19.2231743775299 -19.1658763042661 3.175
vertex -19.2231743775299 -19.1658763042661 0.0
endloop
endfacet
facet normal -0.991191110293392 -0.132439355462619 0.0
outer loop
vertex -19.0641872653307 -17.9399716762099 3.175
vertex -19.063579829662 -18.2547181283589 0.0
vertex -19.063579829662 -18.2547181283589 3.175
endloop
endfacet
facet normal -0.999998137708398 -0.00192991702806797 0.0
outer loop
vertex -19.063579829662 -18.2547181283589 0.0
vertex -19.0641872653307 -17.9399716762099 3.175
vertex -19.0641872653307 -17.9399716762099 0.0
endloop
endfacet
facet normal 0.923139264705689 -0.384465730538679 0.0
outer loop
vertex 17.6392018258865 -17.3381076820709 0.0
vertex 17.4766872653307 -17.9399716762099 3.175
vertex 17.4766872653307 -17.9399716762099 0.0
endloop
endfacet
facet normal 0.991191110293391 -0.132439355462621 0.0
outer loop
vertex 17.4766872653307 -17.9399716762099 3.175
vertex 17.6392018258865 -17.3381076820709 0.0
vertex 17.6392018258865 -17.3381076820709 3.175
endloop
endfacet
facet normal 0.792177003788063 -0.610291401438172 0.0
outer loop
vertex 17.95195270132 -16.7988135695968 0.0
vertex 17.6392018258865 -17.3381076820709 3.175
vertex 17.6392018258865 -17.3381076820709 0.0
endloop
endfacet
facet normal 0.923139264705689 -0.384465730538679 0.0
outer loop
vertex 17.6392018258865 -17.3381076820709 3.175
vertex 17.95195270132 -16.7988135695968 0.0
vertex 17.95195270132 -16.7988135695968 3.175
endloop
endfacet
facet normal -0.707106781186548 -0.707106781186548 0.0
outer loop
vertex 22.225 -14.2875 15.875
vertex 23.8125 -15.875 3.175
vertex 23.8125 -15.875 15.875
endloop
endfacet
facet normal -0.707106781186548 -0.707106781186548 0.0
outer loop
vertex 23.8125 -15.875 3.175
vertex 22.225 -14.2875 15.875
vertex 22.225 -14.2875 3.175
endloop
endfacet
facet normal 0.128612542821803 0.991694919735354 0.0
outer loop
vertex -21.7383895154406 -20.6245158816134 3.175
vertex -21.1149716762099 -20.6233127346693 0.0
vertex -21.7383895154406 -20.6245158816134 0.0
endloop
endfacet
facet normal -0.132439355462629 0.99119111029339 0.0
outer loop
vertex -21.1149716762099 -20.6233127346693 0.0
vertex -21.7383895154406 -20.6245158816134 3.175
vertex -21.1149716762099 -20.6233127346693 3.175
endloop
endfacet
facet normal -0.792177003788062 -0.610291401438173 0.0
outer loop
vertex -19.53945270132 -16.7988135695968 3.175
vertex -19.2267018258865 -17.3381076820709 0.0
vertex -19.2267018258865 -17.3381076820709 3.175
endloop
endfacet
facet normal -0.923139264705685 -0.384465730538689 0.0
outer loop
vertex -19.2267018258865 -17.3381076820709 0.0
vertex -19.53945270132 -16.7988135695968 3.175
vertex -19.53945270132 -16.7988135695968 0.0
endloop
endfacet
facet normal -0.923139264705685 -0.384465730538689 0.0
outer loop
vertex -19.2267018258865 -17.3381076820709 3.175
vertex -19.0641872653307 -17.9399716762099 0.0
vertex -19.0641872653307 -17.9399716762099 3.175
endloop
endfacet
facet normal -0.991191110293392 -0.132439355462619 0.0
outer loop
vertex -19.0641872653307 -17.9399716762099 0.0
vertex -19.2267018258865 -17.3381076820709 3.175
vertex -19.2267018258865 -17.3381076820709 0.0
endloop
endfacet
facet normal 0.0 -1.0 0.0
outer loop
vertex 22.225 -14.2875 15.875
vertex 17.4625 -14.2875 3.175
vertex 22.225 -14.2875 3.175
endloop
endfacet
facet normal 0.0 -1.0 0.0
outer loop
vertex 17.4625 -14.2875 3.175
vertex 22.225 -14.2875 15.875
vertex 17.4625 -14.2875 15.875
endloop
endfacet
facet normal 0.607229189196674 -0.794526721883883 0.0
outer loop
vertex 18.3936264363157 -16.3588413413271 3.175
vertex 17.95195270132 -16.7988135695968 0.0
vertex 18.3936264363157 -16.3588413413271 0.0
endloop
endfacet
facet normal 0.792177003788063 -0.610291401438172 0.0
outer loop
vertex 17.95195270132 -16.7988135695968 0.0
vertex 18.3936264363157 -16.3588413413271 3.175
vertex 17.95195270132 -16.7988135695968 3.175
endloop
endfacet
facet normal 0.707106781186548 -0.707106781186548 0.0
outer loop
vertex -23.8125 -14.2875 3.175
vertex -25.4 -15.875 15.875
vertex -25.4 -15.875 3.175
endloop
endfacet
facet normal 0.707106781186548 -0.707106781186548 0.0
outer loop
vertex -25.4 -15.875 15.875
vertex -23.8125 -14.2875 3.175
vertex -23.8125 -14.2875 15.875
endloop
endfacet
facet normal 0.924616359250699 -0.380899708855207 0.0
outer loop
vertex -23.6393256224701 -17.3466236957339 0.0
vertex -23.7995158816134 -17.9491104845594 3.175
vertex -23.7995158816134 -17.9491104845594 0.0
endloop
endfacet
facet normal 0.991694919735351 -0.128612542821822 0.0
outer loop
vertex -23.7995158816134 -17.9491104845594 3.175
vertex -23.6393256224701 -17.3466236957339 0.0
vertex -23.6393256224701 -17.3466236957339 3.175
endloop
endfacet
facet normal -0.991694919735356 0.128612542821791 0.0
outer loop
vertex -19.0629841183865 -18.5633895154406 3.175
vertex -19.2231743775299 -19.1658763042661 0.0
vertex -19.2231743775299 -19.1658763042661 3.175
endloop
endfacet
facet normal -0.924616359250695 0.380899708855217 0.0
outer loop
vertex -19.2231743775299 -19.1658763042661 0.0
vertex -19.0629841183865 -18.5633895154406 3.175
vertex -19.0629841183865 -18.5633895154406 0.0
endloop
endfacet
facet normal -0.607229189196673 0.794526721883884 0.0
outer loop
vertex 21.2938735636843 -20.1536586586729 3.175
vertex 21.73554729868 -19.7136864304032 0.0
vertex 21.2938735636843 -20.1536586586729 0.0
endloop
endfacet
facet normal -0.792177003788062 0.610291401438173 0.0
outer loop
vertex 21.73554729868 -19.7136864304032 0.0
vertex 21.2938735636843 -20.1536586586729 3.175
vertex 21.73554729868 -19.7136864304032 3.175
endloop
endfacet
facet normal -0.923139264705689 0.384465730538678 0.0
outer loop
vertex 22.0482981741135 -19.1743923179291 3.175
vertex 21.73554729868 -19.7136864304032 0.0
vertex 21.73554729868 -19.7136864304032 3.175
endloop
endfacet
facet normal -0.792177003788062 0.610291401438173 0.0
outer loop
vertex 21.73554729868 -19.7136864304032 0.0
vertex 22.0482981741135 -19.1743923179291 3.175
vertex 22.0482981741135 -19.1743923179291 0.0
endloop
endfacet
facet normal -1.0 0.0 0.0
outer loop
vertex -17.4625 -15.875 15.875
vertex -17.4625 -20.6375 3.175
vertex -17.4625 -20.6375 15.875
endloop
endfacet
facet normal -1.0 0.0 0.0
outer loop
vertex -17.4625 -20.6375 3.175
vertex -17.4625 -15.875 15.875
vertex -17.4625 -15.875 3.175
endloop
endfacet
facet normal -0.707106781186548 0.707106781186548 0.0
outer loop
vertex -17.4625 -20.6375 15.875
vertex -19.05 -22.225 3.175
vertex -19.05 -22.225 15.875
endloop
endfacet
facet normal -0.707106781186548 0.707106781186548 0.0
outer loop
vertex -19.05 -22.225 3.175
vertex -17.4625 -20.6375 15.875
vertex -17.4625 -20.6375 3.175
endloop
endfacet
facet normal 0.991694919735354 0.128612542821799 0.0
outer loop
vertex 17.4754841183866 -18.5633895154406 0.0
vertex 17.6356743775299 -19.1658763042661 3.175
vertex 17.6356743775299 -19.1658763042661 0.0
endloop
endfacet
facet normal 0.924616359250695 0.380899708855218 0.0
outer loop
vertex 17.6356743775299 -19.1658763042661 3.175
vertex 17.4754841183866 -18.5633895154406 0.0
vertex 17.4754841183866 -18.5633895154406 3.175
endloop
endfacet
facet normal 0.132439355462634 0.991191110293389 0.0
outer loop
vertex 19.5274716762099 -20.6233127346693 3.175
vertex 20.1508895154406 -20.6245158816134 0.0
vertex 19.5274716762099 -20.6233127346693 0.0
endloop
endfacet
facet normal -0.128612542821806 0.991694919735354 0.0
outer loop
vertex 20.1508895154406 -20.6245158816134 0.0
vertex 19.5274716762099 -20.6233127346693 3.175
vertex 20.1508895154406 -20.6245158816134 3.175
endloop
endfacet
facet normal -0.999998137708398 -0.00192991702814038 0.0
outer loop
vertex -19.063579829662 -18.2547181283589 3.175
vertex -19.0629841183865 -18.5633895154406 0.0
vertex -19.0629841183865 -18.5633895154406 3.175
endloop
endfacet
facet normal -0.991694919735356 0.128612542821791 0.0
outer loop
vertex -19.0629841183865 -18.5633895154406 0.0
vertex -19.063579829662 -18.2547181283589 3.175
vertex -19.063579829662 -18.2547181283589 0.0
endloop
endfacet
facet normal 0.792177003788061 0.610291401438173 0.0
outer loop
vertex -23.32304729868 -19.7136864304032 3.175
vertex -22.8813735636843 -20.1536586586729 0.0
vertex -23.32304729868 -19.7136864304032 0.0
endloop
endfacet
facet normal 0.60722918919667 0.794526721883886 0.0
outer loop
vertex -22.8813735636843 -20.1536586586729 0.0
vertex -23.32304729868 -19.7136864304032 3.175
vertex -22.8813735636843 -20.1536586586729 3.175
endloop
endfacet
facet normal 0.38446573053867 -0.923139264705693 0.0
outer loop
vertex -22.3493923179291 -16.0517018258865 3.175
vertex -22.8886864304032 -16.36445270132 0.0
vertex -22.3493923179291 -16.0517018258865 0.0
endloop
endfacet
facet normal 0.610291401438171 -0.792177003788063 0.0
outer loop
vertex -22.8886864304032 -16.36445270132 0.0
vertex -22.3493923179291 -16.0517018258865 3.175
vertex -22.8886864304032 -16.36445270132 3.175
endloop
endfacet
facet normal -0.132439355462629 0.99119111029339 0.0
outer loop
vertex -21.1149716762099 -20.6233127346693 3.175
vertex -20.5131076820709 -20.4607981741135 0.0
vertex -21.1149716762099 -20.6233127346693 0.0
endloop
endfacet
facet normal -0.384465730538675 0.923139264705691 0.0
outer loop
vertex -20.5131076820709 -20.4607981741135 0.0
vertex -21.1149716762099 -20.6233127346693 3.175
vertex -20.5131076820709 -20.4607981741135 3.175
endloop
endfacet
facet normal 0.380899708855214 -0.924616359250697 0.0
outer loop
vertex 18.9341236957339 -16.0481743775299 3.175
vertex 18.3936264363157 -16.3588413413271 0.0
vertex 18.9341236957339 -16.0481743775299 0.0
endloop
endfacet
facet normal 0.607229189196674 -0.794526721883883 0.0
outer loop
vertex 18.3936264363157 -16.3588413413271 0.0
vertex 18.9341236957339 -16.0481743775299 3.175
vertex 18.3936264363157 -16.3588413413271 3.175
endloop
endfacet
facet normal 0.0 -1.0 0.0
outer loop
vertex -19.05 -14.2875 15.875
vertex -23.8125 -14.2875 3.175
vertex -19.05 -14.2875 3.175
endloop
endfacet
facet normal 0.0 -1.0 0.0
outer loop
vertex -23.8125 -14.2875 3.175
vertex -19.05 -14.2875 15.875
vertex -23.8125 -14.2875 15.875
endloop
endfacet
facet normal 1.0 0.0 0.0
outer loop
vertex 15.875 -15.875 3.175
vertex 15.875 -20.6375 15.875
vertex 15.875 -20.6375 3.175
endloop
endfacet
facet normal 1.0 0.0 0.0
outer loop
vertex 15.875 -20.6375 15.875
vertex 15.875 -15.875 3.175
vertex 15.875 -15.875 15.875
endloop
endfacet
facet normal -0.610291401438173 -0.792177003788062 0.0
outer loop
vertex 21.3011864304032 -16.36445270132 3.175
vertex 20.7618923179291 -16.0517018258865 0.0
vertex 21.3011864304032 -16.36445270132 0.0
endloop
endfacet
facet normal -0.384465730538677 -0.92313926470569 0.0
outer loop
vertex 20.7618923179291 -16.0517018258865 0.0
vertex 21.3011864304032 -16.36445270132 3.175
vertex 20.7618923179291 -16.0517018258865 3.175
endloop
endfacet
facet normal 0.0 -1.0 0.0
outer loop
vertex 26.9875 -25.4 15.875
vertex 12.7 -25.4 0.0
vertex 26.9875 -25.4 0.0
endloop
endfacet
facet normal 0.0 -1.0 0.0
outer loop
vertex 12.7 -25.4 0.0
vertex 26.9875 -25.4 15.875
vertex 12.7 -25.4 15.875
endloop
endfacet
facet normal 0.991191110293391 -0.132439355462621 0.0
outer loop
vertex 17.4766872653307 -17.9399716762099 0.0
vertex 17.476079829662 -18.2547181283589 3.175
vertex 17.476079829662 -18.2547181283589 0.0
endloop
endfacet
facet normal 0.999998137708398 -0.00192991702810375 0.0
outer loop
vertex 17.476079829662 -18.2547181283589 3.175
vertex 17.4766872653307 -17.9399716762099 0.0
vertex 17.4766872653307 -17.9399716762099 3.175
endloop
endfacet
facet normal -0.794526721883875 0.607229189196685 0.0
outer loop
vertex -19.5338413413271 -19.7063735636843 3.175
vertex -19.9738135695968 -20.14804729868 0.0
vertex -19.9738135695968 -20.14804729868 3.175
endloop
endfacet
facet normal -0.610291401438175 0.79217700378806 0.0
outer loop
vertex -19.9738135695968 -20.14804729868 0.0
vertex -19.5338413413271 -19.7063735636843 3.175
vertex -19.5338413413271 -19.7063735636843 0.0
endloop
endfacet
facet normal -0.384465730538675 0.923139264705691 0.0
outer loop
vertex -20.5131076820709 -20.4607981741135 3.175
vertex -19.9738135695968 -20.14804729868 0.0
vertex -20.5131076820709 -20.4607981741135 0.0
endloop
endfacet
facet normal -0.610291401438175 0.79217700378806 0.0
outer loop
vertex -19.9738135695968 -20.14804729868 0.0
vertex -20.5131076820709 -20.4607981741135 3.175
vertex -19.9738135695968 -20.14804729868 3.175
endloop
endfacet
facet normal -0.999998137708398 0.00192991702813064 0.0
outer loop
vertex 22.211420170338 -18.2577818716411 3.175
vertex 22.2108127346693 -18.5725283237901 0.0
vertex 22.2108127346693 -18.5725283237901 3.175
endloop
endfacet
facet normal -0.991191110293389 0.132439355462636 0.0
outer loop
vertex 22.2108127346693 -18.5725283237901 0.0
vertex 22.211420170338 -18.2577818716411 3.175
vertex 22.211420170338 -18.2577818716411 0.0
endloop
endfacet
facet normal 0.794526721883882 0.607229189196675 0.0
outer loop
vertex 17.9463413413271 -19.7063735636843 0.0
vertex 18.3863135695968 -20.14804729868 3.175
vertex 18.3863135695968 -20.14804729868 0.0
endloop
endfacet
facet normal 0.610291401438174 0.792177003788061 0.0
outer loop
vertex 18.3863135695968 -20.14804729868 3.175
vertex 17.9463413413271 -19.7063735636843 0.0
vertex 17.9463413413271 -19.7063735636843 3.175
endloop
endfacet
facet normal 0.924616359250695 0.380899708855218 0.0
outer loop
vertex 17.6356743775299 -19.1658763042661 0.0
vertex 17.9463413413271 -19.7063735636843 3.175
vertex 17.9463413413271 -19.7063735636843 0.0
endloop
endfacet
facet normal 0.794526721883882 0.607229189196675 0.0
outer loop
vertex 17.9463413413271 -19.7063735636843 3.175
vertex 17.6356743775299 -19.1658763042661 0.0
vertex 17.6356743775299 -19.1658763042661 3.175
endloop
endfacet
facet normal -0.128612542821806 0.991694919735354 0.0
outer loop
vertex 20.1508895154406 -20.6245158816134 3.175
vertex 20.7533763042661 -20.4643256224701 0.0
vertex 20.1508895154406 -20.6245158816134 0.0
endloop
endfacet
facet normal -0.380899708855216 0.924616359250696 0.0
outer loop
vertex 20.7533763042661 -20.4643256224701 0.0
vertex 20.1508895154406 -20.6245158816134 3.175
vertex 20.7533763042661 -20.4643256224701 3.175
endloop
endfacet
facet normal 0.132439355462629 -0.99119111029339 -5.39058114212623e-18
outer loop
vertex -21.7475283237901 -15.8891872653307 3.175
vertex -22.3493923179291 -16.0517018258865 0.0
vertex -21.7475283237901 -15.8891872653307 0.0
endloop
endfacet
facet normal 0.38446573053867 -0.923139264705693 0.0
outer loop
vertex -22.3493923179291 -16.0517018258865 0.0
vertex -21.7475283237901 -15.8891872653307 3.175
vertex -22.3493923179291 -16.0517018258865 3.175
endloop
endfacet
facet normal 0.128612542821806 -0.991694919735354 0.0
outer loop
vertex 19.5366104845594 -15.8879841183866 3.175
vertex 18.9341236957339 -16.0481743775299 0.0
vertex 19.5366104845594 -15.8879841183866 0.0
endloop
endfacet
facet normal 0.380899708855214 -0.924616359250697 0.0
outer loop
vertex 18.9341236957339 -16.0481743775299 0.0
vertex 19.5366104845594 -15.8879841183866 3.175
vertex 18.9341236957339 -16.0481743775299 3.175
endloop
endfacet
facet normal -1.0 0.0 0.0
outer loop
vertex -28.575 -11.1125 15.875
vertex -28.575 -25.4 0.0
vertex -28.575 -25.4 15.875
endloop
endfacet
facet normal -1.0 0.0 0.0
outer loop
vertex -28.575 -25.4 0.0
vertex -28.575 -11.1125 15.875
vertex -28.575 -11.1125 6.34999999999999
endloop
endfacet
facet normal -1.0 0.0 0.0
outer loop
vertex -28.575 -25.4 0.0
vertex -28.575 -11.1125 6.34999999999999
vertex -28.575 -6.35 0.0
endloop
endfacet
facet normal -1.0 0.0 0.0
outer loop
vertex -28.575 -6.35 0.0
vertex -28.575 -11.1125 6.34999999999999
vertex -28.575 -6.35 6.34999999999999
endloop
endfacet
facet normal 0.707106781186548 -0.707106781186548 0.0
outer loop
vertex 17.4625 -14.2875 3.175
vertex 15.875 -15.875 15.875
vertex 15.875 -15.875 3.175
endloop
endfacet
facet normal 0.707106781186548 -0.707106781186548 0.0
outer loop
vertex 15.875 -15.875 15.875
vertex 17.4625 -14.2875 3.175
vertex 17.4625 -14.2875 15.875
endloop
endfacet
facet normal 1.0 0.0 0.0
outer loop
vertex 26.9875 -6.35 0.0
vertex 26.9875 -25.4 15.875
vertex 26.9875 -25.4 0.0
endloop
endfacet
facet normal 1.0 0.0 0.0
outer loop
vertex 26.9875 -25.4 15.875
vertex 26.9875 -6.35 0.0
vertex 26.9875 -11.1125 6.35
endloop
endfacet
facet normal 1.0 0.0 0.0
outer loop
vertex 26.9875 -11.1125 6.35
vertex 26.9875 -6.35 0.0
vertex 26.9875 -6.35 6.35
endloop
endfacet
facet normal 1.0 0.0 0.0
outer loop
vertex 26.9875 -11.1125 15.875
vertex 26.9875 -25.4 15.875
vertex 26.9875 -11.1125 6.35
endloop
endfacet
facet normal -0.991191110293389 0.132439355462636 0.0
outer loop
vertex 22.2108127346693 -18.5725283237901 3.175
vertex 22.0482981741135 -19.1743923179291 0.0
vertex 22.0482981741135 -19.1743923179291 3.175
endloop
endfacet
facet normal -0.923139264705689 0.384465730538678 0.0
outer loop
vertex 22.0482981741135 -19.1743923179291 0.0
vertex 22.2108127346693 -18.5725283237901 3.175
vertex 22.2108127346693 -18.5725283237901 0.0
endloop
endfacet
facet normal -1.0 0.0 0.0
outer loop
vertex 12.7 -15.875 15.875
vertex 12.7 -25.4 0.0
vertex 12.7 -25.4 15.875
endloop
endfacet
facet normal -1.0 0.0 0.0
outer loop
vertex 12.7 -25.4 0.0
vertex 12.7 -15.875 15.875
vertex 12.7 -15.875 0.0
endloop
endfacet
facet normal -0.607229189196671 -0.794526721883886 0.0
outer loop
vertex -19.9811264363157 -16.3588413413271 3.175
vertex -20.5216236957339 -16.0481743775299 0.0
vertex -19.9811264363157 -16.3588413413271 0.0
endloop
endfacet
facet normal -0.380899708855215 -0.924616359250696 0.0
outer loop
vertex -20.5216236957339 -16.0481743775299 0.0
vertex -19.9811264363157 -16.3588413413271 3.175
vertex -20.5216236957339 -16.0481743775299 3.175
endloop
endfacet
facet normal 0.0 -1.0 0.0
outer loop
vertex -14.2875 -25.4 15.875
vertex -28.575 -25.4 0.0
vertex -14.2875 -25.4 0.0
endloop
endfacet
facet normal 0.0 -1.0 0.0
outer loop
vertex -28.575 -25.4 0.0
vertex -14.2875 -25.4 15.875
vertex -28.575 -25.4 15.875
endloop
endfacet
facet normal 0.999998137708398 -0.00192991702814035 0.0
outer loop
vertex 17.476079829662 -18.2547181283589 0.0
vertex 17.4754841183866 -18.5633895154406 3.175
vertex 17.4754841183866 -18.5633895154406 0.0
endloop
endfacet
facet normal 0.991694919735354 0.128612542821799 0.0
outer loop
vertex 17.4754841183866 -18.5633895154406 3.175
vertex 17.476079829662 -18.2547181283589 0.0
vertex 17.476079829662 -18.2547181283589 3.175
endloop
endfacet
facet normal 0.79452672188388 -0.607229189196679 0.0
outer loop
vertex -23.3286586586729 -16.8061264363157 0.0
vertex -23.6393256224701 -17.3466236957339 3.175
vertex -23.6393256224701 -17.3466236957339 0.0
endloop
endfacet
facet normal 0.924616359250699 -0.380899708855207 0.0
outer loop
vertex -23.6393256224701 -17.3466236957339 3.175
vertex -23.3286586586729 -16.8061264363157 0.0
vertex -23.3286586586729 -16.8061264363157 3.175
endloop
endfacet
facet normal -0.792177003788062 -0.610291401438173 0.0
outer loop
vertex -19.53945270132 -16.7988135695968 3.175
vertex -19.9811264363157 -16.3588413413271 0.0
vertex -19.53945270132 -16.7988135695968 0.0
endloop
endfacet
facet normal -0.607229189196671 -0.794526721883886 0.0
outer loop
vertex -19.9811264363157 -16.3588413413271 0.0
vertex -19.53945270132 -16.7988135695968 3.175
vertex -19.9811264363157 -16.3588413413271 3.175
endloop
endfacet
facet normal 0.60722918919667 0.794526721883886 0.0
outer loop
vertex -22.8813735636843 -20.1536586586729 3.175
vertex -22.3408763042661 -20.4643256224701 0.0
vertex -22.8813735636843 -20.1536586586729 0.0
endloop
endfacet
facet normal 0.380899708855216 0.924616359250696 0.0
outer loop
vertex -22.3408763042661 -20.4643256224701 0.0
vertex -22.8813735636843 -20.1536586586729 3.175
vertex -22.3408763042661 -20.4643256224701 3.175
endloop
endfacet
facet normal 0.380899708855216 0.924616359250696 0.0
outer loop
vertex -22.3408763042661 -20.4643256224701 3.175
vertex -21.7383895154406 -20.6245158816134 0.0
vertex -22.3408763042661 -20.4643256224701 0.0
endloop
endfacet
facet normal 0.128612542821803 0.991694919735354 0.0
outer loop
vertex -21.7383895154406 -20.6245158816134 0.0
vertex -22.3408763042661 -20.4643256224701 3.175
vertex -21.7383895154406 -20.6245158816134 3.175
endloop
endfacet
facet normal -0.991694919735353 -0.128612542821809 0.0
outer loop
vertex 22.2120158816134 -17.9491104845594 3.175
vertex 22.211420170338 -18.2577818716411 0.0
vertex 22.211420170338 -18.2577818716411 3.175
endloop
endfacet
facet normal -0.999998137708398 0.00192991702812201 0.0
outer loop
vertex 22.211420170338 -18.2577818716411 0.0
vertex 22.2120158816134 -17.9491104845594 3.175
vertex 22.2120158816134 -17.9491104845594 0.0
endloop
endfacet
facet normal 0.610291401438174 0.792177003788061 0.0
outer loop
vertex 18.3863135695968 -20.14804729868 3.175
vertex 18.9256076820709 -20.4607981741135 0.0
vertex 18.3863135695968 -20.14804729868 0.0
endloop
endfacet
facet normal 0.384465730538678 0.923139264705689 0.0
outer loop
vertex 18.9256076820709 -20.4607981741135 0.0
vertex 18.3863135695968 -20.14804729868 3.175
vertex 18.9256076820709 -20.4607981741135 3.175
endloop
endfacet
facet normal 0.991191110293388 0.132439355462649 0.0
outer loop
vertex -23.7983127346693 -18.5725283237901 0.0
vertex -23.6357981741135 -19.1743923179291 3.175
vertex -23.6357981741135 -19.1743923179291 0.0
endloop
endfacet
facet normal 0.923139264705687 0.384465730538684 0.0
outer loop
vertex -23.6357981741135 -19.1743923179291 3.175
vertex -23.7983127346693 -18.5725283237901 0.0
vertex -23.7983127346693 -18.5725283237901 3.175
endloop
endfacet
facet normal 0.0 1.0 0.0
outer loop
vertex 17.4625 -22.225 15.875
vertex 22.225 -22.225 3.175
vertex 17.4625 -22.225 3.175
endloop
endfacet
facet normal 0.0 1.0 0.0
outer loop
vertex 22.225 -22.225 3.175
vertex 17.4625 -22.225 15.875
vertex 22.225 -22.225 15.875
endloop
endfacet
facet normal 0.707106781186548 0.707106781186548 0.0
outer loop
vertex 15.875 -20.6375 3.175
vertex 17.4625 -22.225 15.875
vertex 17.4625 -22.225 3.175
endloop
endfacet
facet normal 0.707106781186548 0.707106781186548 0.0
outer loop
vertex 17.4625 -22.225 15.875
vertex 15.875 -20.6375 3.175
vertex 15.875 -20.6375 15.875
endloop
endfacet
facet normal 0.384465730538678 0.923139264705689 0.0
outer loop
vertex 18.9256076820709 -20.4607981741135 3.175
vertex 19.5274716762099 -20.6233127346693 0.0
vertex 18.9256076820709 -20.4607981741135 0.0
endloop
endfacet
facet normal 0.132439355462634 0.991191110293389 0.0
outer loop
vertex 19.5274716762099 -20.6233127346693 0.0
vertex 18.9256076820709 -20.4607981741135 3.175
vertex 19.5274716762099 -20.6233127346693 3.175
endloop
endfacet
facet normal 0.707106781186548 0.707106781186548 0.0
outer loop
vertex -25.4 -20.6375 3.175
vertex -23.8125 -22.225 15.875
vertex -23.8125 -22.225 3.175
endloop
endfacet
facet normal 0.707106781186548 0.707106781186548 0.0
outer loop
vertex -23.8125 -22.225 15.875
vertex -25.4 -20.6375 3.175
vertex -25.4 -20.6375 15.875
endloop
endfacet
facet normal -0.707106781186548 -0.707106781186548 0.0
outer loop
vertex -19.05 -14.2875 15.875
vertex -17.4625 -15.875 3.175
vertex -17.4625 -15.875 15.875
endloop
endfacet
facet normal -0.707106781186548 -0.707106781186548 0.0
outer loop
vertex -17.4625 -15.875 3.175
vertex -19.05 -14.2875 15.875
vertex -19.05 -14.2875 3.175
endloop
endfacet
facet normal -0.128612542821804 -0.991694919735354 -5.39058114212624e-18
outer loop
vertex -21.1241104845594 -15.8879841183866 0.0
vertex -21.7475283237901 -15.8891872653307 0.0
vertex -21.43125 -15.8885768732713 -1.75243014672029e-17
endloop
endfacet
facet normal 0.132439355462629 -0.99119111029339 -5.39058114212623e-18
outer loop
vertex -21.7475283237901 -15.8891872653307 0.0
vertex -21.1241104845594 -15.8879841183866 0.0
vertex -21.1241104845594 -15.8879841183866 3.175
endloop
endfacet
facet normal 0.132439355462629 -0.99119111029339 -5.39058114212623e-18
outer loop
vertex -21.7475283237901 -15.8891872653307 0.0
vertex -21.1241104845594 -15.8879841183866 3.175
vertex -21.7475283237901 -15.8891872653307 3.175
endloop
endfacet
facet normal -0.380899708855216 0.924616359250696 0.0
outer loop
vertex 20.7533763042661 -20.4643256224701 3.175
vertex 21.2938735636843 -20.1536586586729 0.0
vertex 20.7533763042661 -20.4643256224701 0.0
endloop
endfacet
facet normal -0.607229189196673 0.794526721883884 0.0
outer loop
vertex 21.2938735636843 -20.1536586586729 0.0
vertex 20.7533763042661 -20.4643256224701 3.175
vertex 21.2938735636843 -20.1536586586729 3.175
endloop
endfacet
facet normal 1.0 0.0 0.0
outer loop
vertex -25.4 -15.875 3.175
vertex -25.4 -20.6375 15.875
vertex -25.4 -20.6375 3.175
endloop
endfacet
facet normal 1.0 0.0 0.0
outer loop
vertex -25.4 -20.6375 15.875
vertex -25.4 -15.875 3.175
vertex -25.4 -15.875 15.875
endloop
endfacet
facet normal 0.999998137708398 0.00192991702813924 0.0
outer loop
vertex -23.798920170338 -18.257781871641 0.0
vertex -23.7983127346693 -18.5725283237901 3.175
vertex -23.7983127346693 -18.5725283237901 0.0
endloop
endfacet
facet normal 0.991191110293388 0.132439355462649 0.0
outer loop
vertex -23.7983127346693 -18.5725283237901 3.175
vertex -23.798920170338 -18.257781871641 0.0
vertex -23.798920170338 -18.257781871641 3.175
endloop
endfacet
facet normal 0.610291401438171 -0.792177003788063 0.0
outer loop
vertex -22.8886864304032 -16.36445270132 0.0
vertex -23.3286586586729 -16.8061264363157 3.175
vertex -23.3286586586729 -16.8061264363157 0.0
endloop
endfacet
facet normal 0.79452672188388 -0.607229189196679 0.0
outer loop
vertex -23.3286586586729 -16.8061264363157 3.175
vertex -22.8886864304032 -16.36445270132 0.0
vertex -22.8886864304032 -16.36445270132 3.175
endloop
endfacet
facet normal 3.91843420455938e-17 -1.0 1.11022302462516e-16
outer loop
vertex 12.7 -15.875 15.875
vertex -14.2875 -15.875 0.0
vertex 12.7 -15.875 0.0
endloop
endfacet
facet normal 3.91843420455938e-17 -1.0 1.11022302462516e-16
outer loop
vertex -14.2875 -15.875 0.0
vertex 12.7 -15.875 15.875
vertex -14.2875 -15.875 15.875
endloop
endfacet
facet normal 0.0 0.0 1.0
outer loop
vertex -5.00466243130887 25.6421624313089 22.225
vertex 2.29179566705981 16.1006403026729 22.225
vertex 16.8847118637972 3.75278813620282 22.225
endloop
endfacet
facet normal 0.0 0.0 1.0
outer loop
vertex 2.29179566705981 16.1006403026729 22.225
vertex -5.00466243130887 25.6421624313089 22.225
vertex -2.19833239347477 11.6105122421383 22.225
endloop
endfacet
facet normal 0.0 0.0 1.0
outer loop
vertex 16.8847118637972 3.75278813620282 22.225
vertex 2.29179566705981 16.1006403026729 22.225
vertex 15.7621798486636 2.63025612106917 22.225
endloop
endfacet
facet normal 0.0 0.0 1.0
outer loop
vertex -11.7398545221107 18.906970340507 22.225
vertex -2.19833239347477 11.6105122421383 22.225
vertex -5.00466243130887 25.6421624313089 22.225
endloop
endfacet
facet normal 0.0 0.0 1.0
outer loop
vertex -2.19833239347477 11.6105122421383 22.225
vertex -11.7398545221107 18.906970340507 22.225
vertex 10.1495197729953 -2.98240395459906 22.225
endloop
endfacet
facet normal 0.0 0.0 1.0
outer loop
vertex -2.19833239347477 11.6105122421383 22.225
vertex 10.1495197729953 -2.98240395459906 22.225
vertex 11.272051788129 -1.85987193946542 22.225
endloop
endfacet
facet normal 0.707106781186548 -0.707106781186547 0.0
outer loop
vertex 2.29179566705981 16.1006403026729 3.175
vertex -2.19833239347477 11.6105122421383 22.225
vertex -2.19833239347477 11.6105122421383 3.175
endloop
endfacet
facet normal 0.707106781186548 -0.707106781186547 0.0
outer loop
vertex -2.19833239347477 11.6105122421383 22.225
vertex 2.29179566705981 16.1006403026729 3.175
vertex 2.29179566705981 16.1006403026729 22.225
endloop
endfacet
facet normal 0.707106781186547 0.707106781186548 1.83414291807238e-16
outer loop
vertex -5.00466243130887 25.6421624313089 22.225
vertex 26.9875 -6.35 0.0
vertex -5.00466243130887 25.6421624313089 0.0
endloop
endfacet
facet normal 0.707106781186547 0.707106781186548 1.83414291807238e-16
outer loop
vertex 26.9875 -6.35 0.0
vertex -5.00466243130887 25.6421624313089 22.225
vertex 19.1297758940645 1.50772410593553 6.35
endloop
endfacet
facet normal 0.707106781186547 0.707106781186548 1.83414291807238e-16
outer loop
vertex 19.1297758940645 1.50772410593553 6.35
vertex -5.00466243130887 25.6421624313089 22.225
vertex 16.8847118637972 3.75278813620282 15.875
endloop
endfacet
facet normal 0.707106781186547 0.707106781186548 1.83414291807238e-16
outer loop
vertex 19.1297758940645 1.50772410593553 6.35
vertex 16.8847118637972 3.75278813620282 15.875
vertex 19.1297758940645 1.50772410593553 15.875
endloop
endfacet
facet normal 0.707106781186547 0.707106781186548 1.83414291807238e-16
outer loop
vertex 16.8847118637972 3.75278813620282 15.875
vertex -5.00466243130887 25.6421624313089 22.225
vertex 16.8847118637972 3.75278813620282 22.225
endloop
endfacet
facet normal 0.707106781186547 0.707106781186548 1.83414291807238e-16
outer loop
vertex 26.9875 -6.35 6.35
vertex 26.9875 -6.35 0.0
vertex 19.1297758940645 1.50772410593553 6.35
endloop
endfacet
facet normal 0.707106781186548 -0.707106781186547 -4.93457629872044e-16
outer loop
vertex -11.7398545221107 18.906970340507 6.34999999999999
vertex -5.00466243130887 25.6421624313089 22.225
vertex -11.7398545221107 18.906970340507 22.225
endloop
endfacet
facet normal 0.707106781186548 -0.707106781186547 -4.93457629872044e-16
outer loop
vertex -5.00466243130887 25.6421624313089 22.225
vertex -11.7398545221107 18.906970340507 6.34999999999999
vertex -11.7398545221107 18.906970340507 0.0
endloop
endfacet
facet normal 0.707106781186548 -0.707106781186547 -4.93457629872044e-16
outer loop
vertex -5.00466243130887 25.6421624313089 22.225
vertex -11.7398545221107 18.906970340507 0.0
vertex -5.00466243130887 25.6421624313089 0.0
endloop
endfacet
facet normal 0.707106781186546 0.707106781186549 4.44066553971168e-17
outer loop
vertex -2.19833239347477 11.6105122421383 22.225
vertex 11.272051788129 -1.85987193946542 3.175
vertex -2.19833239347477 11.6105122421383 3.175
endloop
endfacet
facet normal 0.707106781186546 0.707106781186549 4.44066553971168e-17
outer loop
vertex 11.272051788129 -1.85987193946542 3.175
vertex -2.19833239347477 11.6105122421383 22.225
vertex 11.272051788129 -1.85987193946542 15.875
endloop
endfacet
facet normal 0.707106781186546 0.707106781186549 4.44066553971168e-17
outer loop
vertex 11.272051788129 -1.85987193946542 15.875
vertex -2.19833239347477 11.6105122421383 22.225
vertex 11.272051788129 -1.85987193946542 22.225
endloop
endfacet
facet normal -0.707106781186546 -0.707106781186549 -2.53752316554953e-17
outer loop
vertex 15.7621798486636 2.63025612106917 15.875
vertex 2.29179566705981 16.1006403026729 3.175
vertex 15.7621798486636 2.63025612106917 3.175
endloop
endfacet
facet normal -0.707106781186546 -0.707106781186549 -2.53752316554953e-17
outer loop
vertex 2.29179566705981 16.1006403026729 3.175
vertex 15.7621798486636 2.63025612106917 15.875
vertex 2.29179566705981 16.1006403026729 22.225
endloop
endfacet
facet normal -0.707106781186546 -0.707106781186549 -2.53752316554953e-17
outer loop
vertex 2.29179566705981 16.1006403026729 22.225
vertex 15.7621798486636 2.63025612106917 15.875
vertex 15.7621798486636 2.63025612106917 22.225
endloop
endfacet
facet normal 0.707106781186549 -0.707106781186546 -2.78904447747367e-31
outer loop
vertex 15.7621798486636 2.63025612106917 3.175
vertex 11.272051788129 -1.85987193946542 15.875
vertex 11.272051788129 -1.85987193946542 3.175
endloop
endfacet
facet normal 0.707106781186549 -0.707106781186546 -2.78904447747367e-31
outer loop
vertex 11.272051788129 -1.85987193946542 15.875
vertex 15.7621798486636 2.63025612106917 3.175
vertex 15.7621798486636 2.63025612106917 15.875
endloop
endfacet
facet normal 0.0 0.0 1.0
outer loop
vertex 11.272051788129 -1.85987193946542 3.175
vertex 2.29179566705981 16.1006403026729 3.175
vertex -2.19833239347477 11.6105122421383 3.175
endloop
endfacet
facet normal 0.0 0.0 1.0
outer loop
vertex 2.29179566705981 16.1006403026729 3.175
vertex 11.272051788129 -1.85987193946542 3.175
vertex 15.7621798486636 2.63025612106917 3.175
endloop
endfacet
facet normal 0.0 0.0 -1.0
outer loop
vertex -11.7398545221107 18.906970340507 0.0
vertex -28.575 -25.4 0.0
vertex -28.575 -6.35 0.0
endloop
endfacet
facet normal 0.0 0.0 -1.0
outer loop
vertex -28.575 -25.4 0.0
vertex -11.7398545221107 18.906970340507 0.0
vertex -23.6393256224701 -17.3466236957339 0.0
endloop
endfacet
facet normal 0.0 0.0 -1.0
outer loop
vertex -28.575 -25.4 0.0
vertex -23.6393256224701 -17.3466236957339 0.0
vertex -23.7995158816134 -17.9491104845594 0.0
endloop
endfacet
facet normal 0.0 0.0 -1.0
outer loop
vertex -23.6393256224701 -17.3466236957339 0.0
vertex -11.7398545221107 18.906970340507 0.0
vertex -23.3286586586729 -16.8061264363157 0.0
endloop
endfacet
facet normal 0.0 0.0 -1.0
outer loop
vertex -23.3286586586729 -16.8061264363157 0.0
vertex -11.7398545221107 18.906970340507 0.0
vertex -22.8886864304032 -16.36445270132 0.0
endloop
endfacet
facet normal 0.0 0.0 -1.0
outer loop
vertex -22.8886864304032 -16.36445270132 0.0
vertex -11.7398545221107 18.906970340507 0.0
vertex -22.3493923179291 -16.0517018258865 0.0
endloop
endfacet
facet normal 0.0 0.0 -1.0
outer loop
vertex -22.3493923179291 -16.0517018258865 0.0
vertex -11.7398545221107 18.906970340507 0.0
vertex -21.7475283237901 -15.8891872653307 0.0
endloop
endfacet
facet normal 0.0 0.0 -1.0
outer loop
vertex -21.7475283237901 -15.8891872653307 0.0
vertex -11.7398545221107 18.906970340507 0.0
vertex -21.43125 -15.8885768732713 -1.75243014672029e-17
endloop
endfacet
facet normal 0.0 0.0 -1.0
outer loop
vertex -21.43125 -15.8885768732713 -1.75243014672029e-17
vertex -11.7398545221107 18.906970340507 0.0
vertex -21.1241104845594 -15.8879841183866 0.0
endloop
endfacet
facet normal 0.0 0.0 -1.0
outer loop
vertex -21.1241104845594 -15.8879841183866 0.0
vertex -11.7398545221107 18.906970340507 0.0
vertex -20.5216236957339 -16.0481743775299 0.0
endloop
endfacet
facet normal 0.0 0.0 -1.0
outer loop
vertex -20.5216236957339 -16.0481743775299 0.0
vertex -11.7398545221107 18.906970340507 0.0
vertex -19.9811264363157 -16.3588413413271 0.0
endloop
endfacet
facet normal 0.0 0.0 -1.0
outer loop
vertex -19.9811264363157 -16.3588413413271 0.0
vertex -11.7398545221107 18.906970340507 0.0
vertex -19.53945270132 -16.7988135695968 0.0
endloop
endfacet
facet normal 0.0 0.0 -1.0
outer loop
vertex -19.53945270132 -16.7988135695968 0.0
vertex -11.7398545221107 18.906970340507 0.0
vertex -19.2267018258865 -17.3381076820709 0.0
endloop
endfacet
facet normal 0.0 0.0 -1.0
outer loop
vertex -19.2267018258865 -17.3381076820709 0.0
vertex -11.7398545221107 18.906970340507 0.0
vertex -19.0641872653307 -17.9399716762099 0.0
endloop
endfacet
facet normal 0.0 0.0 -1.0
outer loop
vertex -19.0641872653307 -17.9399716762099 0.0
vertex -11.7398545221107 18.906970340507 0.0
vertex -19.063579829662 -18.2547181283589 0.0
endloop
endfacet
facet normal 0.0 0.0 -1.0
outer loop
vertex -19.063579829662 -18.2547181283589 0.0
vertex -11.7398545221107 18.906970340507 0.0
vertex -19.0629841183865 -18.5633895154406 0.0
endloop
endfacet
facet normal 0.0 0.0 -1.0
outer loop
vertex -19.0629841183865 -18.5633895154406 0.0
vertex -11.7398545221107 18.906970340507 0.0
vertex -14.2875 -15.875 0.0
endloop
endfacet
facet normal 0.0 0.0 -1.0
outer loop
vertex -14.2875 -15.875 0.0
vertex -11.7398545221107 18.906970340507 0.0
vertex 12.7 -15.875 0.0
endloop
endfacet
facet normal 0.0 0.0 -1.0
outer loop
vertex 12.7 -15.875 0.0
vertex -11.7398545221107 18.906970340507 0.0
vertex -5.00466243130887 25.6421624313089 0.0
endloop
endfacet
facet normal 0.0 0.0 -1.0
outer loop
vertex 12.7 -15.875 0.0
vertex -5.00466243130887 25.6421624313089 0.0
vertex 26.9875 -6.35 0.0
endloop
endfacet
facet normal 0.0 0.0 -1.0
outer loop
vertex 12.7 -15.875 0.0
vertex 26.9875 -6.35 0.0
vertex 17.95195270132 -16.7988135695968 0.0
endloop
endfacet
facet normal 0.0 0.0 -1.0
outer loop
vertex 12.7 -15.875 0.0
vertex 17.95195270132 -16.7988135695968 0.0
vertex 12.7 -25.4 0.0
endloop
endfacet
facet normal 0.0 0.0 -1.0
outer loop
vertex 12.7 -25.4 0.0
vertex 17.95195270132 -16.7988135695968 0.0
vertex 17.6392018258865 -17.3381076820709 0.0
endloop
endfacet
facet normal 0.0 0.0 -1.0
outer loop
vertex 12.7 -25.4 0.0
vertex 17.6392018258865 -17.3381076820709 0.0
vertex 17.4766872653307 -17.9399716762099 0.0
endloop
endfacet
facet normal 0.0 0.0 -1.0
outer loop
vertex 12.7 -25.4 0.0
vertex 17.4766872653307 -17.9399716762099 0.0
vertex 17.4754841183866 -18.5633895154406 0.0
endloop
endfacet
facet normal 0.0 0.0 -1.0
outer loop
vertex 17.4754841183866 -18.5633895154406 0.0
vertex 17.4766872653307 -17.9399716762099 0.0
vertex 17.476079829662 -18.2547181283589 0.0
endloop
endfacet
facet normal 0.0 0.0 -1.0
outer loop
vertex 17.95195270132 -16.7988135695968 0.0
vertex 26.9875 -6.35 0.0
vertex 18.3936264363157 -16.3588413413271 0.0
endloop
endfacet
facet normal 0.0 0.0 -1.0
outer loop
vertex 18.3936264363157 -16.3588413413271 0.0
vertex 26.9875 -6.35 0.0
vertex 18.9341236957339 -16.0481743775299 0.0
endloop
endfacet
facet normal 0.0 0.0 -1.0
outer loop
vertex 18.9341236957339 -16.0481743775299 0.0
vertex 26.9875 -6.35 0.0
vertex 19.5366104845594 -15.8879841183866 0.0
endloop
endfacet
facet normal 0.0 0.0 -1.0
outer loop
vertex 19.5366104845594 -15.8879841183866 0.0
vertex 26.9875 -6.35 0.0
vertex 20.1600283237901 -15.8891872653307 0.0
endloop
endfacet
facet normal 0.0 0.0 -1.0
outer loop
vertex 20.1600283237901 -15.8891872653307 0.0
vertex 26.9875 -6.35 0.0
vertex 20.7618923179291 -16.0517018258865 0.0
endloop
endfacet
facet normal 0.0 0.0 -1.0
outer loop
vertex 20.7618923179291 -16.0517018258865 0.0
vertex 26.9875 -6.35 0.0
vertex 21.3011864304032 -16.36445270132 0.0
endloop
endfacet
facet normal 0.0 0.0 -1.0
outer loop
vertex 21.3011864304032 -16.36445270132 0.0
vertex 26.9875 -6.35 0.0
vertex 21.7411586586729 -16.8061264363157 0.0
endloop
endfacet
facet normal 0.0 0.0 -1.0
outer loop
vertex 21.7411586586729 -16.8061264363157 0.0
vertex 26.9875 -6.35 0.0
vertex 22.0518256224701 -17.3466236957339 0.0
endloop
endfacet
facet normal 0.0 0.0 -1.0
outer loop
vertex 22.0518256224701 -17.3466236957339 0.0
vertex 26.9875 -6.35 0.0
vertex 22.2120158816134 -17.9491104845594 0.0
endloop
endfacet
facet normal 0.0 0.0 -1.0
outer loop
vertex 12.7 -25.4 0.0
vertex 18.3863135695968 -20.14804729868 0.0
vertex 26.9875 -25.4 0.0
endloop
endfacet
facet normal 0.0 0.0 -1.0
outer loop
vertex 18.3863135695968 -20.14804729868 0.0
vertex 12.7 -25.4 0.0
vertex 17.9463413413271 -19.7063735636843 0.0
endloop
endfacet
facet normal 0.0 0.0 -1.0
outer loop
vertex 17.9463413413271 -19.7063735636843 0.0
vertex 12.7 -25.4 0.0
vertex 17.6356743775299 -19.1658763042661 0.0
endloop
endfacet
facet normal 0.0 0.0 -1.0
outer loop
vertex 17.6356743775299 -19.1658763042661 0.0
vertex 12.7 -25.4 0.0
vertex 17.4754841183866 -18.5633895154406 0.0
endloop
endfacet
facet normal 0.0 0.0 -1.0
outer loop
vertex 26.9875 -25.4 0.0
vertex 18.3863135695968 -20.14804729868 0.0
vertex 18.9256076820709 -20.4607981741135 0.0
endloop
endfacet
facet normal 0.0 0.0 -1.0
outer loop
vertex 26.9875 -25.4 0.0
vertex 18.9256076820709 -20.4607981741135 0.0
vertex 19.5274716762099 -20.6233127346693 0.0
endloop
endfacet
facet normal 0.0 0.0 -1.0
outer loop
vertex 26.9875 -25.4 0.0
vertex 19.5274716762099 -20.6233127346693 0.0
vertex 20.1508895154406 -20.6245158816134 0.0
endloop
endfacet
facet normal 0.0 0.0 -1.0
outer loop
vertex 26.9875 -25.4 0.0
vertex 20.1508895154406 -20.6245158816134 0.0
vertex 20.7533763042661 -20.4643256224701 0.0
endloop
endfacet
facet normal 0.0 0.0 -1.0
outer loop
vertex 26.9875 -25.4 0.0
vertex 20.7533763042661 -20.4643256224701 0.0
vertex 21.2938735636843 -20.1536586586729 0.0
endloop
endfacet
facet normal 0.0 0.0 -1.0
outer loop
vertex 26.9875 -25.4 0.0
vertex 21.2938735636843 -20.1536586586729 0.0
vertex 21.73554729868 -19.7136864304032 0.0
endloop
endfacet
facet normal 0.0 0.0 -1.0
outer loop
vertex 26.9875 -25.4 0.0
vertex 21.73554729868 -19.7136864304032 0.0
vertex 22.0482981741135 -19.1743923179291 0.0
endloop
endfacet
facet normal 0.0 0.0 -1.0
outer loop
vertex 26.9875 -25.4 0.0
vertex 22.0482981741135 -19.1743923179291 0.0
vertex 22.2108127346693 -18.5725283237901 0.0
endloop
endfacet
facet normal 0.0 0.0 -1.0
outer loop
vertex 26.9875 -25.4 0.0
vertex 22.2108127346693 -18.5725283237901 0.0
vertex 22.211420170338 -18.2577818716411 0.0
endloop
endfacet
facet normal 0.0 0.0 -1.0
outer loop
vertex 26.9875 -25.4 0.0
vertex 22.211420170338 -18.2577818716411 0.0
vertex 22.2120158816134 -17.9491104845594 0.0
endloop
endfacet
facet normal 0.0 0.0 -1.0
outer loop
vertex 26.9875 -25.4 0.0
vertex 22.2120158816134 -17.9491104845594 0.0
vertex 26.9875 -6.35 0.0
endloop
endfacet
facet normal 0.0 0.0 -1.0
outer loop
vertex -28.575 -25.4 0.0
vertex -22.8813735636843 -20.1536586586729 0.0
vertex -14.2875 -25.4 0.0
endloop
endfacet
facet normal 0.0 0.0 -1.0
outer loop
vertex -22.8813735636843 -20.1536586586729 0.0
vertex -28.575 -25.4 0.0
vertex -23.32304729868 -19.7136864304032 0.0
endloop
endfacet
facet normal 0.0 0.0 -1.0
outer loop
vertex -23.32304729868 -19.7136864304032 0.0
vertex -28.575 -25.4 0.0
vertex -23.6357981741135 -19.1743923179291 0.0
endloop
endfacet
facet normal 0.0 0.0 -1.0
outer loop
vertex -23.6357981741135 -19.1743923179291 0.0
vertex -28.575 -25.4 0.0
vertex -23.7983127346693 -18.5725283237901 0.0
endloop
endfacet
facet normal 0.0 0.0 -1.0
outer loop
vertex -23.7983127346693 -18.5725283237901 0.0
vertex -28.575 -25.4 0.0
vertex -23.798920170338 -18.257781871641 0.0
endloop
endfacet
facet normal 0.0 0.0 -1.0
outer loop
vertex -23.798920170338 -18.257781871641 0.0
vertex -28.575 -25.4 0.0
vertex -23.7995158816134 -17.9491104845594 0.0
endloop
endfacet
facet normal 0.0 0.0 -1.0
outer loop
vertex -14.2875 -25.4 0.0
vertex -22.8813735636843 -20.1536586586729 0.0
vertex -22.3408763042661 -20.4643256224701 0.0
endloop
endfacet
facet normal 0.0 0.0 -1.0
outer loop
vertex -14.2875 -25.4 0.0
vertex -22.3408763042661 -20.4643256224701 0.0
vertex -21.7383895154406 -20.6245158816134 0.0
endloop
endfacet
facet normal 0.0 0.0 -1.0
outer loop
vertex -14.2875 -25.4 0.0
vertex -21.7383895154406 -20.6245158816134 0.0
vertex -21.1149716762099 -20.6233127346693 0.0
endloop
endfacet
facet normal 0.0 0.0 -1.0
outer loop
vertex -14.2875 -25.4 0.0
vertex -21.1149716762099 -20.6233127346693 0.0
vertex -20.5131076820709 -20.4607981741135 0.0
endloop
endfacet
facet normal 0.0 0.0 -1.0
outer loop
vertex -14.2875 -25.4 0.0
vertex -20.5131076820709 -20.4607981741135 0.0
vertex -19.9738135695968 -20.14804729868 0.0
endloop
endfacet
facet normal 0.0 0.0 -1.0
outer loop
vertex -14.2875 -25.4 0.0
vertex -19.9738135695968 -20.14804729868 0.0
vertex -19.5338413413271 -19.7063735636843 0.0
endloop
endfacet
facet normal 0.0 0.0 -1.0
outer loop
vertex -14.2875 -25.4 0.0
vertex -19.5338413413271 -19.7063735636843 0.0
vertex -19.2231743775299 -19.1658763042661 0.0
endloop
endfacet
facet normal 0.0 0.0 -1.0
outer loop
vertex -14.2875 -25.4 0.0
vertex -19.2231743775299 -19.1658763042661 0.0
vertex -19.0629841183865 -18.5633895154406 0.0
endloop
endfacet
facet normal 0.0 0.0 -1.0
outer loop
vertex -14.2875 -25.4 0.0
vertex -19.0629841183865 -18.5633895154406 0.0
vertex -14.2875 -15.875 0.0
endloop
endfacet
facet normal 1.0 0.0 0.0
outer loop
vertex -14.2875 -15.875 0.0
vertex -14.2875 -25.4 15.875
vertex -14.2875 -25.4 0.0
endloop
endfacet
facet normal 1.0 0.0 0.0
outer loop
vertex -14.2875 -25.4 15.875
vertex -14.2875 -15.875 0.0
vertex -14.2875 -15.875 15.875
endloop
endfacet
facet normal 0.707106781186551 -0.707106781186544 0.0
outer loop
vertex 16.8847118637972 3.75278813620282 15.875
vertex 15.7621798486636 2.63025612106917 22.225
vertex 15.7621798486636 2.63025612106917 15.875
endloop
endfacet
facet normal 0.707106781186551 -0.707106781186544 0.0
outer loop
vertex 15.7621798486636 2.63025612106917 22.225
vertex 16.8847118637972 3.75278813620282 15.875
vertex 16.8847118637972 3.75278813620282 22.225
endloop
endfacet
facet normal 0.70710678118654 -0.707106781186556 9.42055475210269e-16
outer loop
vertex 11.272051788129 -1.85987193946542 15.875
vertex 10.1495197729953 -2.98240395459906 22.225
vertex 10.1495197729953 -2.98240395459908 15.875
endloop
endfacet
facet normal 0.70710678118654 -0.707106781186556 9.42055475210269e-16
outer loop
vertex 10.1495197729953 -2.98240395459906 22.225
vertex 11.272051788129 -1.85987193946542 15.875
vertex 11.272051788129 -1.85987193946542 22.225
endloop
endfacet
facet normal -0.832093395406268 0.554635539179801 7.88184506717189e-17
outer loop
vertex -11.7398545221107 18.906970340507 6.34999999999999
vertex -28.575 -6.35 0.0
vertex -28.575 -6.35 6.34999999999999
endloop
endfacet
facet normal -0.832093395406268 0.554635539179801 7.88184506717189e-17
outer loop
vertex -28.575 -6.35 0.0
vertex -11.7398545221107 18.906970340507 6.34999999999999
vertex -11.7398545221107 18.906970340507 0.0
endloop
endfacet
facet normal -1.02075987468839e-16 4.93432455388959e-17 1.0
outer loop
vertex -28.575 -25.4 15.875
vertex -25.4 -20.6375 15.875
vertex -28.575 -11.1125 15.875
endloop
endfacet
facet normal -1.02075987468839e-16 4.93432455388959e-17 1.0
outer loop
vertex -25.4 -20.6375 15.875
vertex -28.575 -25.4 15.875
vertex -23.8125 -22.225 15.875
endloop
endfacet
facet normal -1.02075987468839e-16 4.93432455388959e-17 1.0
outer loop
vertex -23.8125 -22.225 15.875
vertex -28.575 -25.4 15.875
vertex -14.2875 -25.4 15.875
endloop
endfacet
facet normal -1.02075987468839e-16 4.93432455388959e-17 1.0
outer loop
vertex -23.8125 -22.225 15.875
vertex -14.2875 -25.4 15.875
vertex -19.05 -22.225 15.875
endloop
endfacet
facet normal -1.02075987468839e-16 4.93432455388959e-17 1.0
outer loop
vertex -19.05 -22.225 15.875
vertex -14.2875 -25.4 15.875
vertex -17.4625 -20.6375 15.875
endloop
endfacet
facet normal -1.02075987468839e-16 4.93432455388959e-17 1.0
outer loop
vertex -17.4625 -20.6375 15.875
vertex -14.2875 -25.4 15.875
vertex -17.4625 -15.875 15.875
endloop
endfacet
facet normal -1.02075987468839e-16 4.93432455388959e-17 1.0
outer loop
vertex 12.7 -25.4 15.875
vertex 15.875 -20.6375 15.875
vertex 12.7 -15.875 15.875
endloop
endfacet
facet normal -1.02075987468839e-16 4.93432455388959e-17 1.0
outer loop
vertex 15.875 -20.6375 15.875
vertex 12.7 -25.4 15.875
vertex 17.4625 -22.225 15.875
endloop
endfacet
facet normal -1.02075987468839e-16 4.93432455388959e-17 1.0
outer loop
vertex 17.4625 -22.225 15.875
vertex 12.7 -25.4 15.875
vertex 26.9875 -25.4 15.875
endloop
endfacet
facet normal -1.02075987468839e-16 4.93432455388959e-17 1.0
outer loop
vertex 17.4625 -22.225 15.875
vertex 26.9875 -25.4 15.875
vertex 22.225 -22.225 15.875
endloop
endfacet
facet normal -1.02075987468839e-16 4.93432455388959e-17 1.0
outer loop
vertex 22.225 -22.225 15.875
vertex 26.9875 -25.4 15.875
vertex 23.8125 -20.6375 15.875
endloop
endfacet
facet normal -1.02075987468839e-16 4.93432455388959e-17 1.0
outer loop
vertex 23.8125 -20.6375 15.875
vertex 26.9875 -25.4 15.875
vertex 23.8125 -15.875 15.875
endloop
endfacet
facet normal -1.02075987468839e-16 4.93432455388959e-17 1.0
outer loop
vertex -28.575 -11.1125 15.875
vertex -23.8125 -14.2875 15.875
vertex 26.9875 -11.1125 15.875
endloop
endfacet
facet normal -1.02075987468839e-16 4.93432455388959e-17 1.0
outer loop
vertex -23.8125 -14.2875 15.875
vertex -28.575 -11.1125 15.875
vertex -25.4 -15.875 15.875
endloop
endfacet
facet normal -1.02075987468839e-16 4.93432455388959e-17 1.0
outer loop
vertex -25.4 -15.875 15.875
vertex -28.575 -11.1125 15.875
vertex -25.4 -20.6375 15.875
endloop
endfacet
facet normal -1.02075987468839e-16 4.93432455388959e-17 1.0
outer loop
vertex 26.9875 -11.1125 15.875
vertex -23.8125 -14.2875 15.875
vertex -19.05 -14.2875 15.875
endloop
endfacet
facet normal -1.02075987468839e-16 4.93432455388959e-17 1.0
outer loop
vertex 26.9875 -11.1125 15.875
vertex -19.05 -14.2875 15.875
vertex -17.4625 -15.875 15.875
endloop
endfacet
facet normal -1.02075987468839e-16 4.93432455388959e-17 1.0
outer loop
vertex 26.9875 -11.1125 15.875
vertex -17.4625 -15.875 15.875
vertex -14.2875 -15.875 15.875
endloop
endfacet
facet normal -1.02075987468839e-16 4.93432455388959e-17 1.0
outer loop
vertex -14.2875 -15.875 15.875
vertex -17.4625 -15.875 15.875
vertex -14.2875 -25.4 15.875
endloop
endfacet
facet normal -1.02075987468839e-16 4.93432455388959e-17 1.0
outer loop
vertex 26.9875 -11.1125 15.875
vertex -14.2875 -15.875 15.875
vertex 12.7 -15.875 15.875
endloop
endfacet
facet normal -1.02075987468839e-16 4.93432455388959e-17 1.0
outer loop
vertex 26.9875 -11.1125 15.875
vertex 12.7 -15.875 15.875
vertex 17.4625 -14.2875 15.875
endloop
endfacet
facet normal -1.02075987468839e-16 4.93432455388959e-17 1.0
outer loop
vertex 17.4625 -14.2875 15.875
vertex 12.7 -15.875 15.875
vertex 15.875 -15.875 15.875
endloop
endfacet
facet normal -1.02075987468839e-16 4.93432455388959e-17 1.0
outer loop
vertex 15.875 -15.875 15.875
vertex 12.7 -15.875 15.875
vertex 15.875 -20.6375 15.875
endloop
endfacet
facet normal -1.02075987468839e-16 4.93432455388959e-17 1.0
outer loop
vertex 26.9875 -11.1125 15.875
vertex 17.4625 -14.2875 15.875
vertex 22.225 -14.2875 15.875
endloop
endfacet
facet normal -1.02075987468839e-16 4.93432455388959e-17 1.0
outer loop
vertex 26.9875 -11.1125 15.875
vertex 22.225 -14.2875 15.875
vertex 23.8125 -15.875 15.875
endloop
endfacet
facet normal -1.02075987468839e-16 4.93432455388959e-17 1.0
outer loop
vertex 26.9875 -11.1125 15.875
vertex 23.8125 -15.875 15.875
vertex 26.9875 -25.4 15.875
endloop
endfacet
facet normal 0.707106781186548 -0.707106781186547 8.42707528383382e-17
outer loop
vertex 19.1297758940645 1.50772410593553 6.35
vertex 12.3945838032626 -5.22746798486636 15.875
vertex 12.3945838032626 -5.22746798486636 6.34999999999999
endloop
endfacet
facet normal 0.707106781186548 -0.707106781186547 8.42707528383382e-17
outer loop
vertex 12.3945838032626 -5.22746798486636 15.875
vertex 19.1297758940645 1.50772410593553 6.35
vertex 19.1297758940645 1.50772410593553 15.875
endloop
endfacet
facet normal -0.707106781186547 -0.707106781186548 1.73620083325644e-17
outer loop
vertex 12.3945838032626 -5.22746798486636 15.875
vertex 10.1495197729953 -2.98240395459908 6.34999999999999
vertex 12.3945838032626 -5.22746798486636 6.34999999999999
endloop
endfacet
facet normal -0.707106781186547 -0.707106781186548 1.73620083325644e-17
outer loop
vertex 10.1495197729953 -2.98240395459908 6.34999999999999
vertex 12.3945838032626 -5.22746798486636 15.875
vertex -11.7398545221107 18.906970340507 6.34999999999999
endloop
endfacet
facet normal -0.707106781186547 -0.707106781186548 1.73620083325644e-17
outer loop
vertex -11.7398545221107 18.906970340507 6.34999999999999
vertex 12.3945838032626 -5.22746798486636 15.875
vertex 10.1495197729953 -2.98240395459908 15.875
endloop
endfacet
facet normal -0.707106781186547 -0.707106781186548 1.73620083325644e-17
outer loop
vertex -11.7398545221107 18.906970340507 6.34999999999999
vertex 10.1495197729953 -2.98240395459908 15.875
vertex -11.7398545221107 18.906970340507 22.225
endloop
endfacet
facet normal -0.707106781186547 -0.707106781186548 1.73620083325644e-17
outer loop
vertex -11.7398545221107 18.906970340507 22.225
vertex 10.1495197729953 -2.98240395459908 15.875
vertex 10.1495197729953 -2.98240395459906 22.225
endloop
endfacet
facet normal 2.87369044477082e-33 1.0 -2.83105182855425e-17
outer loop
vertex -28.575 -11.1125 15.875
vertex 26.9875 -11.1125 6.35
vertex -28.575 -11.1125 6.34999999999999
endloop
endfacet
facet normal 2.87369044477082e-33 1.0 -2.83105182855425e-17
outer loop
vertex 26.9875 -11.1125 6.35
vertex -28.575 -11.1125 15.875
vertex 26.9875 -11.1125 15.875
endloop
endfacet
facet normal -9.24392104452034e-17 3.49274475519559e-17 1.0
outer loop
vertex 26.9875 -11.1125 6.35
vertex -28.575 -6.35 6.34999999999999
vertex -28.575 -11.1125 6.34999999999999
endloop
endfacet
facet normal -9.24392104452034e-17 3.49274475519559e-17 1.0
outer loop
vertex -28.575 -6.35 6.34999999999999
vertex 26.9875 -11.1125 6.35
vertex 12.3945838032626 -5.22746798486636 6.34999999999999
endloop
endfacet
facet normal -9.24392104452034e-17 3.49274475519559e-17 1.0
outer loop
vertex -28.575 -6.35 6.34999999999999
vertex 12.3945838032626 -5.22746798486636 6.34999999999999
vertex 10.1495197729953 -2.98240395459908 6.34999999999999
endloop
endfacet
facet normal -9.24392104452034e-17 3.49274475519559e-17 1.0
outer loop
vertex -28.575 -6.35 6.34999999999999
vertex 10.1495197729953 -2.98240395459908 6.34999999999999
vertex -11.7398545221107 18.906970340507 6.34999999999999
endloop
endfacet
facet normal -9.24392104452034e-17 3.49274475519559e-17 1.0
outer loop
vertex 12.3945838032626 -5.22746798486636 6.34999999999999
vertex 26.9875 -11.1125 6.35
vertex 19.1297758940645 1.50772410593553 6.35
endloop
endfacet
facet normal -9.24392104452034e-17 3.49274475519559e-17 1.0
outer loop
vertex 19.1297758940645 1.50772410593553 6.35
vertex 26.9875 -11.1125 6.35
vertex 26.9875 -6.35 6.35
endloop
endfacet
endsolid angled_standoff_joiner_with_magnet
