solid pcb_stand_1
facet normal 0.0 1.0 0.0
outer loop
vertex -25.4 6.35 28.575
vertex 25.4 6.35 0.0
vertex -25.4 6.35 0.0
endloop
endfacet
facet normal 0.0 1.0 0.0
outer loop
vertex 25.4 6.35 0.0
vertex -25.4 6.35 28.575
vertex 25.4 6.35 28.575
endloop
endfacet
facet normal -0.499999999999999 0.86602540378444 0.0
outer loop
vertex 21.43125 -6.5341903285078 1.5875
vertex 21.7600320151336 -6.28190701513364 0.0
vertex 21.43125 -6.5341903285078 0.0
endloop
endfacet
facet normal -0.707106781186551 0.707106781186544 0.0
outer loop
vertex 21.7600320151336 -6.28190701513364 0.0
vertex 21.43125 -6.5341903285078 1.5875
vertex 21.7600320151336 -6.28190701513364 1.5875
endloop
endfacet
facet normal -0.866025403784438 -0.500000000000001 0.0
outer loop
vertex -19.2626846714922 -4.365625 1.5875
vertex -19.1040927507661 -4.74849976589975 0.0
vertex -19.1040927507661 -4.74849976589975 1.5875
endloop
endfacet
facet normal -0.965925826289068 -0.258819045102521 0.0
outer loop
vertex -19.1040927507661 -4.74849976589975 0.0
vertex -19.2626846714922 -4.365625 1.5875
vertex -19.2626846714922 -4.365625 0.0
endloop
endfacet
facet normal 0.866025403784436 -0.500000000000005 0.0
outer loop
vertex 19.2626846714922 -4.365625 0.0
vertex 19.1040927507661 -4.74849976589975 1.5875
vertex 19.1040927507661 -4.74849976589975 0.0
endloop
endfacet
facet normal 0.965925826289068 -0.258819045102522 0.0
outer loop
vertex 19.1040927507661 -4.74849976589975 1.5875
vertex 19.2626846714922 -4.365625 0.0
vertex 19.2626846714922 -4.365625 1.5875
endloop
endfacet
facet normal 0.707106781186551 -0.707106781186544 0.0
outer loop
vertex 19.5149679848664 -4.03684298486636 0.0
vertex 19.2626846714922 -4.365625 1.5875
vertex 19.2626846714922 -4.365625 0.0
endloop
endfacet
facet normal 0.866025403784436 -0.500000000000005 0.0
outer loop
vertex 19.2626846714922 -4.365625 1.5875
vertex 19.5149679848664 -4.03684298486636 0.0
vertex 19.5149679848664 -4.03684298486636 1.5875
endloop
endfacet
facet normal 0.499999999999999 -0.86602540378444 0.0
outer loop
vertex 19.84375 -3.7845596714922 1.5875
vertex 19.5149679848664 -4.03684298486636 0.0
vertex 19.84375 -3.7845596714922 0.0
endloop
endfacet
facet normal 0.707106781186551 -0.707106781186544 0.0
outer loop
vertex 19.5149679848664 -4.03684298486636 0.0
vertex 19.84375 -3.7845596714922 1.5875
vertex 19.5149679848664 -4.03684298486636 1.5875
endloop
endfacet
facet normal -0.258819045102517 -0.965925826289069 0.0
outer loop
vertex 21.0483752341003 -3.62596775076611 1.5875
vertex 20.6375 -3.571875 0.0
vertex 21.0483752341003 -3.62596775076611 0.0
endloop
endfacet
facet normal 0.0 -1.0 0.0
outer loop
vertex 20.6375 -3.571875 0.0
vertex 21.0483752341003 -3.62596775076611 1.5875
vertex 20.6375 -3.571875 1.5875
endloop
endfacet
facet normal 0.0 -1.0 0.0
outer loop
vertex 20.6375 -3.571875 1.5875
vertex 20.2266247658998 -3.62596775076611 0.0
vertex 20.6375 -3.571875 0.0
endloop
endfacet
facet normal 0.258819045102517 -0.965925826289069 0.0
outer loop
vertex 20.2266247658998 -3.62596775076611 0.0
vertex 20.6375 -3.571875 1.5875
vertex 20.2266247658998 -3.62596775076611 1.5875
endloop
endfacet
facet normal 0.258819045102517 -0.965925826289069 0.0
outer loop
vertex 20.2266247658998 -3.62596775076611 1.5875
vertex 19.84375 -3.7845596714922 0.0
vertex 20.2266247658998 -3.62596775076611 0.0
endloop
endfacet
facet normal 0.499999999999999 -0.86602540378444 0.0
outer loop
vertex 19.84375 -3.7845596714922 0.0
vertex 20.2266247658998 -3.62596775076611 1.5875
vertex 19.84375 -3.7845596714922 1.5875
endloop
endfacet
facet normal -0.707106781186551 -0.707106781186544 0.0
outer loop
vertex 21.7600320151336 -4.03684298486636 1.5875
vertex 22.0123153285078 -4.365625 0.0
vertex 22.0123153285078 -4.365625 1.5875
endloop
endfacet
facet normal -0.866025403784436 -0.500000000000005 0.0
outer loop
vertex 22.0123153285078 -4.365625 0.0
vertex 21.7600320151336 -4.03684298486636 1.5875
vertex 21.7600320151336 -4.03684298486636 0.0
endloop
endfacet
facet normal -0.866025403784436 -0.500000000000005 0.0
outer loop
vertex 22.0123153285078 -4.365625 1.5875
vertex 22.1709072492339 -4.74849976589975 0.0
vertex 22.1709072492339 -4.74849976589975 1.5875
endloop
endfacet
facet normal -0.965925826289068 -0.258819045102522 0.0
outer loop
vertex 22.1709072492339 -4.74849976589975 0.0
vertex 22.0123153285078 -4.365625 1.5875
vertex 22.0123153285078 -4.365625 0.0
endloop
endfacet
facet normal -0.965925826289068 -0.258819045102522 0.0
outer loop
vertex 22.1709072492339 -4.74849976589975 1.5875
vertex 22.225 -5.159375 0.0
vertex 22.225 -5.159375 1.5875
endloop
endfacet
facet normal -1.0 0.0 0.0
outer loop
vertex 22.225 -5.159375 0.0
vertex 22.1709072492339 -4.74849976589975 1.5875
vertex 22.1709072492339 -4.74849976589975 0.0
endloop
endfacet
facet normal -0.499999999999999 -0.86602540378444 0.0
outer loop
vertex 21.43125 -3.7845596714922 1.5875
vertex 21.0483752341003 -3.62596775076611 0.0
vertex 21.43125 -3.7845596714922 0.0
endloop
endfacet
facet normal -0.258819045102517 -0.965925826289069 0.0
outer loop
vertex 21.0483752341003 -3.62596775076611 0.0
vertex 21.43125 -3.7845596714922 1.5875
vertex 21.0483752341003 -3.62596775076611 1.5875
endloop
endfacet
facet normal 0.965925826289068 -0.258819045102522 0.0
outer loop
vertex 19.1040927507661 -4.74849976589975 0.0
vertex 19.05 -5.159375 1.5875
vertex 19.05 -5.159375 0.0
endloop
endfacet
facet normal 1.0 0.0 0.0
outer loop
vertex 19.05 -5.159375 1.5875
vertex 19.1040927507661 -4.74849976589975 0.0
vertex 19.1040927507661 -4.74849976589975 1.5875
endloop
endfacet
facet normal -0.707106781186551 -0.707106781186544 0.0
outer loop
vertex 21.7600320151336 -4.03684298486636 1.5875
vertex 21.43125 -3.7845596714922 0.0
vertex 21.7600320151336 -4.03684298486636 0.0
endloop
endfacet
facet normal -0.499999999999999 -0.86602540378444 0.0
outer loop
vertex 21.43125 -3.7845596714922 0.0
vertex 21.7600320151336 -4.03684298486636 1.5875
vertex 21.43125 -3.7845596714922 1.5875
endloop
endfacet
facet normal -1.0 0.0 0.0
outer loop
vertex 22.225 -5.159375 1.5875
vertex 22.1709072492339 -5.57025023410025 0.0
vertex 22.1709072492339 -5.57025023410025 1.5875
endloop
endfacet
facet normal -0.965925826289068 0.258819045102522 0.0
outer loop
vertex 22.1709072492339 -5.57025023410025 0.0
vertex 22.225 -5.159375 1.5875
vertex 22.225 -5.159375 0.0
endloop
endfacet
facet normal -0.965925826289068 0.258819045102522 0.0
outer loop
vertex 22.1709072492339 -5.57025023410025 1.5875
vertex 22.0123153285078 -5.953125 0.0
vertex 22.0123153285078 -5.953125 1.5875
endloop
endfacet
facet normal -0.866025403784436 0.500000000000005 0.0
outer loop
vertex 22.0123153285078 -5.953125 0.0
vertex 22.1709072492339 -5.57025023410025 1.5875
vertex 22.1709072492339 -5.57025023410025 0.0
endloop
endfacet
facet normal -0.866025403784436 0.500000000000005 0.0
outer loop
vertex 22.0123153285078 -5.953125 1.5875
vertex 21.7600320151336 -6.28190701513364 0.0
vertex 21.7600320151336 -6.28190701513364 1.5875
endloop
endfacet
facet normal -0.707106781186551 0.707106781186544 0.0
outer loop
vertex 21.7600320151336 -6.28190701513364 0.0
vertex 22.0123153285078 -5.953125 1.5875
vertex 22.0123153285078 -5.953125 0.0
endloop
endfacet
facet normal 1.0 0.0 0.0
outer loop
vertex 19.05 -5.159375 0.0
vertex 19.1040927507661 -5.57025023410025 1.5875
vertex 19.1040927507661 -5.57025023410025 0.0
endloop
endfacet
facet normal 0.965925826289068 0.258819045102522 0.0
outer loop
vertex 19.1040927507661 -5.57025023410025 1.5875
vertex 19.05 -5.159375 0.0
vertex 19.05 -5.159375 1.5875
endloop
endfacet
facet normal 0.965925826289068 0.258819045102522 0.0
outer loop
vertex 19.1040927507661 -5.57025023410025 0.0
vertex 19.2626846714922 -5.953125 1.5875
vertex 19.2626846714922 -5.953125 0.0
endloop
endfacet
facet normal 0.866025403784436 0.500000000000005 0.0
outer loop
vertex 19.2626846714922 -5.953125 1.5875
vertex 19.1040927507661 -5.57025023410025 0.0
vertex 19.1040927507661 -5.57025023410025 1.5875
endloop
endfacet
facet normal 0.866025403784436 0.500000000000005 0.0
outer loop
vertex 19.2626846714922 -5.953125 0.0
vertex 19.5149679848664 -6.28190701513364 1.5875
vertex 19.5149679848664 -6.28190701513364 0.0
endloop
endfacet
facet normal 0.707106781186551 0.707106781186544 0.0
outer loop
vertex 19.5149679848664 -6.28190701513364 1.5875
vertex 19.2626846714922 -5.953125 0.0
vertex 19.2626846714922 -5.953125 1.5875
endloop
endfacet
facet normal 0.707106781186551 0.707106781186544 0.0
outer loop
vertex 19.5149679848664 -6.28190701513364 1.5875
vertex 19.84375 -6.5341903285078 0.0
vertex 19.5149679848664 -6.28190701513364 0.0
endloop
endfacet
facet normal 0.499999999999999 0.86602540378444 0.0
outer loop
vertex 19.84375 -6.5341903285078 0.0
vertex 19.5149679848664 -6.28190701513364 1.5875
vertex 19.84375 -6.5341903285078 1.5875
endloop
endfacet
facet normal 0.499999999999999 0.86602540378444 0.0
outer loop
vertex 19.84375 -6.5341903285078 1.5875
vertex 20.2266247658998 -6.69278224923389 0.0
vertex 19.84375 -6.5341903285078 0.0
endloop
endfacet
facet normal 0.258819045102517 0.965925826289069 0.0
outer loop
vertex 20.2266247658998 -6.69278224923389 0.0
vertex 19.84375 -6.5341903285078 1.5875
vertex 20.2266247658998 -6.69278224923389 1.5875
endloop
endfacet
facet normal 0.258819045102517 0.965925826289069 0.0
outer loop
vertex 20.2266247658998 -6.69278224923389 1.5875
vertex 20.6375 -6.746875 0.0
vertex 20.2266247658998 -6.69278224923389 0.0
endloop
endfacet
facet normal 0.0 1.0 0.0
outer loop
vertex 20.6375 -6.746875 0.0
vertex 20.2266247658998 -6.69278224923389 1.5875
vertex 20.6375 -6.746875 1.5875
endloop
endfacet
facet normal 0.0 1.0 0.0
outer loop
vertex 20.6375 -6.746875 1.5875
vertex 21.0483752341003 -6.69278224923389 0.0
vertex 20.6375 -6.746875 0.0
endloop
endfacet
facet normal -0.258819045102517 0.965925826289069 0.0
outer loop
vertex 21.0483752341003 -6.69278224923389 0.0
vertex 20.6375 -6.746875 1.5875
vertex 21.0483752341003 -6.69278224923389 1.5875
endloop
endfacet
facet normal -0.258819045102517 0.965925826289069 0.0
outer loop
vertex 21.0483752341003 -6.69278224923389 1.5875
vertex 21.43125 -6.5341903285078 0.0
vertex 21.0483752341003 -6.69278224923389 0.0
endloop
endfacet
facet normal -0.499999999999999 0.86602540378444 0.0
outer loop
vertex 21.43125 -6.5341903285078 0.0
vertex 21.0483752341003 -6.69278224923389 1.5875
vertex 21.43125 -6.5341903285078 1.5875
endloop
endfacet
facet normal -0.707106781186551 -0.707106781186544 0.0
outer loop
vertex -19.5149679848664 -4.03684298486636 1.5875
vertex -19.2626846714922 -4.365625 0.0
vertex -19.2626846714922 -4.365625 1.5875
endloop
endfacet
facet normal -0.866025403784438 -0.500000000000001 0.0
outer loop
vertex -19.2626846714922 -4.365625 0.0
vertex -19.5149679848664 -4.03684298486636 1.5875
vertex -19.5149679848664 -4.03684298486636 0.0
endloop
endfacet
facet normal -0.707106781186551 -0.707106781186544 0.0
outer loop
vertex -19.5149679848664 -4.03684298486636 1.5875
vertex -19.84375 -3.7845596714922 0.0
vertex -19.5149679848664 -4.03684298486636 0.0
endloop
endfacet
facet normal -0.499999999999998 -0.86602540378444 0.0
outer loop
vertex -19.84375 -3.7845596714922 0.0
vertex -19.5149679848664 -4.03684298486636 1.5875
vertex -19.84375 -3.7845596714922 1.5875
endloop
endfacet
facet normal -1.0 -8.37644330190809e-16 0.0
outer loop
vertex -19.05 -5.159375 1.5875
vertex -19.1040927507661 -5.57025023410025 0.0
vertex -19.1040927507661 -5.57025023410025 1.5875
endloop
endfacet
facet normal -0.965925826289069 0.258819045102519 0.0
outer loop
vertex -19.1040927507661 -5.57025023410025 0.0
vertex -19.05 -5.159375 1.5875
vertex -19.05 -5.159375 0.0
endloop
endfacet
facet normal -0.965925826289068 -0.258819045102521 0.0
outer loop
vertex -19.1040927507661 -4.74849976589975 1.5875
vertex -19.05 -5.159375 0.0
vertex -19.05 -5.159375 1.5875
endloop
endfacet
facet normal -1.0 -8.37644330190809e-16 0.0
outer loop
vertex -19.05 -5.159375 0.0
vertex -19.1040927507661 -4.74849976589975 1.5875
vertex -19.1040927507661 -4.74849976589975 0.0
endloop
endfacet
facet normal -0.499999999999998 -0.86602540378444 0.0
outer loop
vertex -19.84375 -3.7845596714922 1.5875
vertex -20.2266247658997 -3.62596775076611 0.0
vertex -19.84375 -3.7845596714922 0.0
endloop
endfacet
facet normal -0.258819045102517 -0.96592582628907 0.0
outer loop
vertex -20.2266247658997 -3.62596775076611 0.0
vertex -19.84375 -3.7845596714922 1.5875
vertex -20.2266247658997 -3.62596775076611 1.5875
endloop
endfacet
facet normal -0.258819045102517 -0.96592582628907 0.0
outer loop
vertex -20.2266247658997 -3.62596775076611 1.5875
vertex -20.6375 -3.571875 0.0
vertex -20.2266247658997 -3.62596775076611 0.0
endloop
endfacet
facet normal -2.22777747391173e-16 -1.0 0.0
outer loop
vertex -20.6375 -3.571875 0.0
vertex -20.2266247658997 -3.62596775076611 1.5875
vertex -20.6375 -3.571875 1.5875
endloop
endfacet
facet normal -2.22777747391173e-16 -1.0 0.0
outer loop
vertex -20.6375 -3.571875 1.5875
vertex -21.0483752341002 -3.62596775076611 0.0
vertex -20.6375 -3.571875 0.0
endloop
endfacet
facet normal 0.258819045102517 -0.965925826289069 0.0
outer loop
vertex -21.0483752341002 -3.62596775076611 0.0
vertex -20.6375 -3.571875 1.5875
vertex -21.0483752341002 -3.62596775076611 1.5875
endloop
endfacet
facet normal 0.258819045102517 -0.965925826289069 0.0
outer loop
vertex -21.0483752341002 -3.62596775076611 1.5875
vertex -21.43125 -3.7845596714922 0.0
vertex -21.0483752341002 -3.62596775076611 0.0
endloop
endfacet
facet normal 0.499999999999998 -0.86602540378444 0.0
outer loop
vertex -21.43125 -3.7845596714922 0.0
vertex -21.0483752341002 -3.62596775076611 1.5875
vertex -21.43125 -3.7845596714922 1.5875
endloop
endfacet
facet normal 0.499999999999998 -0.86602540378444 0.0
outer loop
vertex -21.43125 -3.7845596714922 1.5875
vertex -21.7600320151336 -4.03684298486636 0.0
vertex -21.43125 -3.7845596714922 0.0
endloop
endfacet
facet normal 0.707106781186551 -0.707106781186544 0.0
outer loop
vertex -21.7600320151336 -4.03684298486636 0.0
vertex -21.43125 -3.7845596714922 1.5875
vertex -21.7600320151336 -4.03684298486636 1.5875
endloop
endfacet
facet normal 0.707106781186551 -0.707106781186544 0.0
outer loop
vertex -21.7600320151336 -4.03684298486636 0.0
vertex -22.0123153285078 -4.365625 1.5875
vertex -22.0123153285078 -4.365625 0.0
endloop
endfacet
facet normal 0.866025403784438 -0.500000000000001 0.0
outer loop
vertex -22.0123153285078 -4.365625 1.5875
vertex -21.7600320151336 -4.03684298486636 0.0
vertex -21.7600320151336 -4.03684298486636 1.5875
endloop
endfacet
facet normal 0.866025403784438 -0.500000000000001 0.0
outer loop
vertex -22.0123153285078 -4.365625 0.0
vertex -22.1709072492339 -4.74849976589975 1.5875
vertex -22.1709072492339 -4.74849976589975 0.0
endloop
endfacet
facet normal 0.965925826289069 -0.25881904510252 0.0
outer loop
vertex -22.1709072492339 -4.74849976589975 1.5875
vertex -22.0123153285078 -4.365625 0.0
vertex -22.0123153285078 -4.365625 1.5875
endloop
endfacet
facet normal 0.965925826289069 -0.25881904510252 0.0
outer loop
vertex -22.1709072492339 -4.74849976589975 0.0
vertex -22.225 -5.159375 1.5875
vertex -22.225 -5.159375 0.0
endloop
endfacet
facet normal 1.0 0.0 0.0
outer loop
vertex -22.225 -5.159375 1.5875
vertex -22.1709072492339 -4.74849976589975 0.0
vertex -22.1709072492339 -4.74849976589975 1.5875
endloop
endfacet
facet normal 1.0 0.0 0.0
outer loop
vertex -22.225 -5.159375 0.0
vertex -22.1709072492339 -5.57025023410025 1.5875
vertex -22.1709072492339 -5.57025023410025 0.0
endloop
endfacet
facet normal 0.965925826289068 0.258819045102521 0.0
outer loop
vertex -22.1709072492339 -5.57025023410025 1.5875
vertex -22.225 -5.159375 0.0
vertex -22.225 -5.159375 1.5875
endloop
endfacet
facet normal 0.965925826289068 0.258819045102521 0.0
outer loop
vertex -22.1709072492339 -5.57025023410025 0.0
vertex -22.0123153285078 -5.953125 1.5875
vertex -22.0123153285078 -5.953125 0.0
endloop
endfacet
facet normal 0.866025403784438 0.500000000000001 0.0
outer loop
vertex -22.0123153285078 -5.953125 1.5875
vertex -22.1709072492339 -5.57025023410025 0.0
vertex -22.1709072492339 -5.57025023410025 1.5875
endloop
endfacet
facet normal 0.866025403784438 0.500000000000001 0.0
outer loop
vertex -22.0123153285078 -5.953125 0.0
vertex -21.7600320151336 -6.28190701513364 1.5875
vertex -21.7600320151336 -6.28190701513364 0.0
endloop
endfacet
facet normal 0.707106781186551 0.707106781186544 0.0
outer loop
vertex -21.7600320151336 -6.28190701513364 1.5875
vertex -22.0123153285078 -5.953125 0.0
vertex -22.0123153285078 -5.953125 1.5875
endloop
endfacet
facet normal 0.707106781186551 0.707106781186544 0.0
outer loop
vertex -21.7600320151336 -6.28190701513364 1.5875
vertex -21.43125 -6.5341903285078 0.0
vertex -21.7600320151336 -6.28190701513364 0.0
endloop
endfacet
facet normal 0.499999999999998 0.86602540378444 0.0
outer loop
vertex -21.43125 -6.5341903285078 0.0
vertex -21.7600320151336 -6.28190701513364 1.5875
vertex -21.43125 -6.5341903285078 1.5875
endloop
endfacet
facet normal 0.499999999999998 0.86602540378444 0.0
outer loop
vertex -21.43125 -6.5341903285078 1.5875
vertex -21.0483752341002 -6.69278224923389 0.0
vertex -21.43125 -6.5341903285078 0.0
endloop
endfacet
facet normal 0.258819045102517 0.965925826289069 0.0
outer loop
vertex -21.0483752341002 -6.69278224923389 0.0
vertex -21.43125 -6.5341903285078 1.5875
vertex -21.0483752341002 -6.69278224923389 1.5875
endloop
endfacet
facet normal 0.258819045102517 0.965925826289069 0.0
outer loop
vertex -21.0483752341002 -6.69278224923389 1.5875
vertex -20.6375 -6.746875 0.0
vertex -21.0483752341002 -6.69278224923389 0.0
endloop
endfacet
facet normal 2.3168885728682e-16 1.0 0.0
outer loop
vertex -20.6375 -6.746875 0.0
vertex -21.0483752341002 -6.69278224923389 1.5875
vertex -20.6375 -6.746875 1.5875
endloop
endfacet
facet normal 2.3168885728682e-16 1.0 0.0
outer loop
vertex -20.6375 -6.746875 1.5875
vertex -20.2266247658997 -6.69278224923389 0.0
vertex -20.6375 -6.746875 0.0
endloop
endfacet
facet normal -0.258819045102517 0.965925826289069 0.0
outer loop
vertex -20.2266247658997 -6.69278224923389 0.0
vertex -20.6375 -6.746875 1.5875
vertex -20.2266247658997 -6.69278224923389 1.5875
endloop
endfacet
facet normal -0.258819045102517 0.965925826289069 0.0
outer loop
vertex -20.2266247658997 -6.69278224923389 1.5875
vertex -19.84375 -6.5341903285078 0.0
vertex -20.2266247658997 -6.69278224923389 0.0
endloop
endfacet
facet normal -0.499999999999998 0.86602540378444 0.0
outer loop
vertex -19.84375 -6.5341903285078 0.0
vertex -20.2266247658997 -6.69278224923389 1.5875
vertex -19.84375 -6.5341903285078 1.5875
endloop
endfacet
facet normal -0.499999999999998 0.86602540378444 0.0
outer loop
vertex -19.84375 -6.5341903285078 1.5875
vertex -19.5149679848663 -6.28190701513364 0.0
vertex -19.84375 -6.5341903285078 0.0
endloop
endfacet
facet normal -0.70710678118655 0.707106781186545 0.0
outer loop
vertex -19.5149679848663 -6.28190701513364 0.0
vertex -19.84375 -6.5341903285078 1.5875
vertex -19.5149679848663 -6.28190701513364 1.5875
endloop
endfacet
facet normal -0.866025403784438 0.500000000000001 0.0
outer loop
vertex -19.2626846714922 -5.953125 1.5875
vertex -19.5149679848663 -6.28190701513364 0.0
vertex -19.5149679848663 -6.28190701513364 1.5875
endloop
endfacet
facet normal -0.70710678118655 0.707106781186545 0.0
outer loop
vertex -19.5149679848663 -6.28190701513364 0.0
vertex -19.2626846714922 -5.953125 1.5875
vertex -19.2626846714922 -5.953125 0.0
endloop
endfacet
facet normal -0.965925826289069 0.258819045102519 0.0
outer loop
vertex -19.1040927507661 -5.57025023410025 1.5875
vertex -19.2626846714922 -5.953125 0.0
vertex -19.2626846714922 -5.953125 1.5875
endloop
endfacet
facet normal -0.866025403784438 0.500000000000001 0.0
outer loop
vertex -19.2626846714922 -5.953125 0.0
vertex -19.1040927507661 -5.57025023410025 1.5875
vertex -19.1040927507661 -5.57025023410025 0.0
endloop
endfacet
facet normal 0.0 0.0 1.0
outer loop
vertex -25.4 -9.525 1.5875
vertex -22.0123153285078 -5.953125 1.5875
vertex -25.4 0.0 1.5875
endloop
endfacet
facet normal 0.0 0.0 1.0
outer loop
vertex -22.0123153285078 -5.953125 1.5875
vertex -25.4 -9.525 1.5875
vertex -21.7600320151336 -6.28190701513364 1.5875
endloop
endfacet
facet normal 0.0 0.0 1.0
outer loop
vertex -21.7600320151336 -6.28190701513364 1.5875
vertex -25.4 -9.525 1.5875
vertex -21.43125 -6.5341903285078 1.5875
endloop
endfacet
facet normal 0.0 0.0 1.0
outer loop
vertex -21.43125 -6.5341903285078 1.5875
vertex -25.4 -9.525 1.5875
vertex -15.875 -9.525 1.5875
endloop
endfacet
facet normal 0.0 0.0 1.0
outer loop
vertex -25.4 0.0 1.5875
vertex -22.0123153285078 -5.953125 1.5875
vertex -22.1709072492339 -5.57025023410025 1.5875
endloop
endfacet
facet normal 0.0 0.0 1.0
outer loop
vertex -25.4 0.0 1.5875
vertex -22.1709072492339 -5.57025023410025 1.5875
vertex -22.225 -5.159375 1.5875
endloop
endfacet
facet normal 0.0 0.0 1.0
outer loop
vertex -21.43125 -6.5341903285078 1.5875
vertex -15.875 -9.525 1.5875
vertex -21.0483752341002 -6.69278224923389 1.5875
endloop
endfacet
facet normal 0.0 0.0 1.0
outer loop
vertex -21.0483752341002 -6.69278224923389 1.5875
vertex -15.875 -9.525 1.5875
vertex -20.6375 -6.746875 1.5875
endloop
endfacet
facet normal 0.0 0.0 1.0
outer loop
vertex -20.6375 -6.746875 1.5875
vertex -15.875 -9.525 1.5875
vertex -20.2266247658997 -6.69278224923389 1.5875
endloop
endfacet
facet normal 0.0 0.0 1.0
outer loop
vertex -20.2266247658997 -6.69278224923389 1.5875
vertex -15.875 -9.525 1.5875
vertex -19.84375 -6.5341903285078 1.5875
endloop
endfacet
facet normal 0.0 0.0 1.0
outer loop
vertex -19.84375 -6.5341903285078 1.5875
vertex -15.875 -9.525 1.5875
vertex -19.5149679848663 -6.28190701513364 1.5875
endloop
endfacet
facet normal 0.0 0.0 1.0
outer loop
vertex -19.5149679848663 -6.28190701513364 1.5875
vertex -15.875 -9.525 1.5875
vertex -19.2626846714922 -5.953125 1.5875
endloop
endfacet
facet normal 0.0 0.0 1.0
outer loop
vertex -19.2626846714922 -5.953125 1.5875
vertex -15.875 -9.525 1.5875
vertex -19.1040927507661 -5.57025023410025 1.5875
endloop
endfacet
facet normal 0.0 0.0 1.0
outer loop
vertex -19.1040927507661 -5.57025023410025 1.5875
vertex -15.875 -9.525 1.5875
vertex -19.05 -5.159375 1.5875
endloop
endfacet
facet normal 0.0 0.0 1.0
outer loop
vertex -25.4 0.0 1.5875
vertex -21.43125 -3.7845596714922 1.5875
vertex -15.875 0.0 1.5875
endloop
endfacet
facet normal 0.0 0.0 1.0
outer loop
vertex -21.43125 -3.7845596714922 1.5875
vertex -25.4 0.0 1.5875
vertex -21.7600320151336 -4.03684298486636 1.5875
endloop
endfacet
facet normal 0.0 0.0 1.0
outer loop
vertex -21.7600320151336 -4.03684298486636 1.5875
vertex -25.4 0.0 1.5875
vertex -22.0123153285078 -4.365625 1.5875
endloop
endfacet
facet normal 0.0 0.0 1.0
outer loop
vertex -22.0123153285078 -4.365625 1.5875
vertex -25.4 0.0 1.5875
vertex -22.1709072492339 -4.74849976589975 1.5875
endloop
endfacet
facet normal 0.0 0.0 1.0
outer loop
vertex -22.1709072492339 -4.74849976589975 1.5875
vertex -25.4 0.0 1.5875
vertex -22.225 -5.159375 1.5875
endloop
endfacet
facet normal 0.0 0.0 1.0
outer loop
vertex -15.875 0.0 1.5875
vertex -21.43125 -3.7845596714922 1.5875
vertex -21.0483752341002 -3.62596775076611 1.5875
endloop
endfacet
facet normal 0.0 0.0 1.0
outer loop
vertex -15.875 0.0 1.5875
vertex -21.0483752341002 -3.62596775076611 1.5875
vertex -20.6375 -3.571875 1.5875
endloop
endfacet
facet normal 0.0 0.0 1.0
outer loop
vertex -15.875 0.0 1.5875
vertex -20.6375 -3.571875 1.5875
vertex -20.2266247658997 -3.62596775076611 1.5875
endloop
endfacet
facet normal 0.0 0.0 1.0
outer loop
vertex -15.875 0.0 1.5875
vertex -20.2266247658997 -3.62596775076611 1.5875
vertex -19.84375 -3.7845596714922 1.5875
endloop
endfacet
facet normal 0.0 0.0 1.0
outer loop
vertex -15.875 0.0 1.5875
vertex -19.84375 -3.7845596714922 1.5875
vertex -19.5149679848664 -4.03684298486636 1.5875
endloop
endfacet
facet normal 0.0 0.0 1.0
outer loop
vertex -15.875 0.0 1.5875
vertex -19.5149679848664 -4.03684298486636 1.5875
vertex -19.2626846714922 -4.365625 1.5875
endloop
endfacet
facet normal 0.0 0.0 1.0
outer loop
vertex -15.875 0.0 1.5875
vertex -19.2626846714922 -4.365625 1.5875
vertex -19.1040927507661 -4.74849976589975 1.5875
endloop
endfacet
facet normal 0.0 0.0 1.0
outer loop
vertex -15.875 0.0 1.5875
vertex -19.1040927507661 -4.74849976589975 1.5875
vertex -19.05 -5.159375 1.5875
endloop
endfacet
facet normal 0.0 0.0 1.0
outer loop
vertex -15.875 0.0 1.5875
vertex -19.05 -5.159375 1.5875
vertex -15.875 -9.525 1.5875
endloop
endfacet
facet normal -1.0 0.0 0.0
outer loop
vertex -25.4 6.35 28.575
vertex -25.4 0.0 1.5875
vertex -25.4 0.0 28.575
endloop
endfacet
facet normal -1.0 0.0 0.0
outer loop
vertex -25.4 0.0 1.5875
vertex -25.4 -9.525 0.0
vertex -25.4 -9.525 1.5875
endloop
endfacet
facet normal -1.0 0.0 0.0
outer loop
vertex -25.4 -9.525 0.0
vertex -25.4 0.0 1.5875
vertex -25.4 6.35 0.0
endloop
endfacet
facet normal -1.0 0.0 0.0
outer loop
vertex -25.4 6.35 0.0
vertex -25.4 0.0 1.5875
vertex -25.4 6.35 28.575
endloop
endfacet
facet normal 0.0 0.0 -1.0
outer loop
vertex -25.4 6.35 0.0
vertex -22.0123153285078 -4.365625 0.0
vertex -25.4 -9.525 0.0
endloop
endfacet
facet normal 0.0 0.0 -1.0
outer loop
vertex -22.0123153285078 -4.365625 0.0
vertex -25.4 6.35 0.0
vertex -21.7600320151336 -4.03684298486636 0.0
endloop
endfacet
facet normal 0.0 0.0 -1.0
outer loop
vertex -21.7600320151336 -4.03684298486636 0.0
vertex -25.4 6.35 0.0
vertex -21.43125 -3.7845596714922 0.0
endloop
endfacet
facet normal 0.0 0.0 -1.0
outer loop
vertex -21.43125 -3.7845596714922 0.0
vertex -25.4 6.35 0.0
vertex -15.875 0.0 0.0
endloop
endfacet
facet normal 0.0 0.0 -1.0
outer loop
vertex -15.875 0.0 0.0
vertex -25.4 6.35 0.0
vertex 25.4 6.35 0.0
endloop
endfacet
facet normal 0.0 0.0 -1.0
outer loop
vertex -25.4 -9.525 0.0
vertex -22.0123153285078 -4.365625 0.0
vertex -22.1709072492339 -4.74849976589975 0.0
endloop
endfacet
facet normal 0.0 0.0 -1.0
outer loop
vertex -25.4 -9.525 0.0
vertex -22.1709072492339 -4.74849976589975 0.0
vertex -22.225 -5.159375 0.0
endloop
endfacet
facet normal 0.0 0.0 -1.0
outer loop
vertex -21.43125 -3.7845596714922 0.0
vertex -15.875 0.0 0.0
vertex -21.0483752341002 -3.62596775076611 0.0
endloop
endfacet
facet normal 0.0 0.0 -1.0
outer loop
vertex -21.0483752341002 -3.62596775076611 0.0
vertex -15.875 0.0 0.0
vertex -20.6375 -3.571875 0.0
endloop
endfacet
facet normal 0.0 0.0 -1.0
outer loop
vertex -20.6375 -3.571875 0.0
vertex -15.875 0.0 0.0
vertex -20.2266247658997 -3.62596775076611 0.0
endloop
endfacet
facet normal 0.0 0.0 -1.0
outer loop
vertex -20.2266247658997 -3.62596775076611 0.0
vertex -15.875 0.0 0.0
vertex -19.84375 -3.7845596714922 0.0
endloop
endfacet
facet normal 0.0 0.0 -1.0
outer loop
vertex -19.84375 -3.7845596714922 0.0
vertex -15.875 0.0 0.0
vertex -19.5149679848664 -4.03684298486636 0.0
endloop
endfacet
facet normal 0.0 0.0 -1.0
outer loop
vertex -19.5149679848664 -4.03684298486636 0.0
vertex -15.875 0.0 0.0
vertex -19.2626846714922 -4.365625 0.0
endloop
endfacet
facet normal 0.0 0.0 -1.0
outer loop
vertex -19.2626846714922 -4.365625 0.0
vertex -15.875 0.0 0.0
vertex -19.1040927507661 -4.74849976589975 0.0
endloop
endfacet
facet normal 0.0 0.0 -1.0
outer loop
vertex -19.1040927507661 -4.74849976589975 0.0
vertex -15.875 0.0 0.0
vertex -19.05 -5.159375 0.0
endloop
endfacet
facet normal 0.0 0.0 -1.0
outer loop
vertex -15.875 0.0 0.0
vertex 25.4 6.35 0.0
vertex 15.875 0.0 0.0
endloop
endfacet
facet normal 0.0 0.0 -1.0
outer loop
vertex 15.875 0.0 0.0
vertex 25.4 6.35 0.0
vertex 15.875 -9.525 0.0
endloop
endfacet
facet normal 0.0 0.0 -1.0
outer loop
vertex 15.875 -9.525 0.0
vertex 25.4 6.35 0.0
vertex 19.2626846714922 -4.365625 0.0
endloop
endfacet
facet normal 0.0 0.0 -1.0
outer loop
vertex 15.875 -9.525 0.0
vertex 19.2626846714922 -4.365625 0.0
vertex 19.1040927507661 -4.74849976589975 0.0
endloop
endfacet
facet normal 0.0 0.0 -1.0
outer loop
vertex 15.875 -9.525 0.0
vertex 19.1040927507661 -4.74849976589975 0.0
vertex 19.05 -5.159375 0.0
endloop
endfacet
facet normal 0.0 0.0 -1.0
outer loop
vertex 19.2626846714922 -4.365625 0.0
vertex 25.4 6.35 0.0
vertex 19.5149679848664 -4.03684298486636 0.0
endloop
endfacet
facet normal 0.0 0.0 -1.0
outer loop
vertex 19.5149679848664 -4.03684298486636 0.0
vertex 25.4 6.35 0.0
vertex 19.84375 -3.7845596714922 0.0
endloop
endfacet
facet normal 0.0 0.0 -1.0
outer loop
vertex 19.84375 -3.7845596714922 0.0
vertex 25.4 6.35 0.0
vertex 20.2266247658998 -3.62596775076611 0.0
endloop
endfacet
facet normal 0.0 0.0 -1.0
outer loop
vertex 20.2266247658998 -3.62596775076611 0.0
vertex 25.4 6.35 0.0
vertex 20.6375 -3.571875 0.0
endloop
endfacet
facet normal 0.0 0.0 -1.0
outer loop
vertex 20.6375 -3.571875 0.0
vertex 25.4 6.35 0.0
vertex 21.0483752341003 -3.62596775076611 0.0
endloop
endfacet
facet normal 0.0 0.0 -1.0
outer loop
vertex 21.0483752341003 -3.62596775076611 0.0
vertex 25.4 6.35 0.0
vertex 21.43125 -3.7845596714922 0.0
endloop
endfacet
facet normal 0.0 0.0 -1.0
outer loop
vertex 21.43125 -3.7845596714922 0.0
vertex 25.4 6.35 0.0
vertex 21.7600320151336 -4.03684298486636 0.0
endloop
endfacet
facet normal 0.0 0.0 -1.0
outer loop
vertex 21.7600320151336 -4.03684298486636 0.0
vertex 25.4 6.35 0.0
vertex 22.0123153285078 -4.365625 0.0
endloop
endfacet
facet normal 0.0 0.0 -1.0
outer loop
vertex 22.0123153285078 -4.365625 0.0
vertex 25.4 6.35 0.0
vertex 22.1709072492339 -4.74849976589975 0.0
endloop
endfacet
facet normal 0.0 0.0 -1.0
outer loop
vertex 22.1709072492339 -4.74849976589975 0.0
vertex 25.4 6.35 0.0
vertex 22.225 -5.159375 0.0
endloop
endfacet
facet normal 0.0 0.0 -1.0
outer loop
vertex 15.875 -9.525 0.0
vertex 19.84375 -6.5341903285078 0.0
vertex 25.4 -9.525 0.0
endloop
endfacet
facet normal 0.0 0.0 -1.0
outer loop
vertex 19.84375 -6.5341903285078 0.0
vertex 15.875 -9.525 0.0
vertex 19.5149679848664 -6.28190701513364 0.0
endloop
endfacet
facet normal 0.0 0.0 -1.0
outer loop
vertex 19.5149679848664 -6.28190701513364 0.0
vertex 15.875 -9.525 0.0
vertex 19.2626846714922 -5.953125 0.0
endloop
endfacet
facet normal 0.0 0.0 -1.0
outer loop
vertex 19.2626846714922 -5.953125 0.0
vertex 15.875 -9.525 0.0
vertex 19.1040927507661 -5.57025023410025 0.0
endloop
endfacet
facet normal 0.0 0.0 -1.0
outer loop
vertex 19.1040927507661 -5.57025023410025 0.0
vertex 15.875 -9.525 0.0
vertex 19.05 -5.159375 0.0
endloop
endfacet
facet normal 0.0 0.0 -1.0
outer loop
vertex 25.4 -9.525 0.0
vertex 19.84375 -6.5341903285078 0.0
vertex 20.2266247658998 -6.69278224923389 0.0
endloop
endfacet
facet normal 0.0 0.0 -1.0
outer loop
vertex 25.4 -9.525 0.0
vertex 20.2266247658998 -6.69278224923389 0.0
vertex 20.6375 -6.746875 0.0
endloop
endfacet
facet normal 0.0 0.0 -1.0
outer loop
vertex 25.4 -9.525 0.0
vertex 20.6375 -6.746875 0.0
vertex 21.0483752341003 -6.69278224923389 0.0
endloop
endfacet
facet normal 0.0 0.0 -1.0
outer loop
vertex 25.4 -9.525 0.0
vertex 21.0483752341003 -6.69278224923389 0.0
vertex 21.43125 -6.5341903285078 0.0
endloop
endfacet
facet normal 0.0 0.0 -1.0
outer loop
vertex 25.4 -9.525 0.0
vertex 21.43125 -6.5341903285078 0.0
vertex 21.7600320151336 -6.28190701513364 0.0
endloop
endfacet
facet normal 0.0 0.0 -1.0
outer loop
vertex 25.4 -9.525 0.0
vertex 21.7600320151336 -6.28190701513364 0.0
vertex 22.0123153285078 -5.953125 0.0
endloop
endfacet
facet normal 0.0 0.0 -1.0
outer loop
vertex 25.4 -9.525 0.0
vertex 22.0123153285078 -5.953125 0.0
vertex 22.1709072492339 -5.57025023410025 0.0
endloop
endfacet
facet normal 0.0 0.0 -1.0
outer loop
vertex 25.4 -9.525 0.0
vertex 22.1709072492339 -5.57025023410025 0.0
vertex 22.225 -5.159375 0.0
endloop
endfacet
facet normal 0.0 0.0 -1.0
outer loop
vertex 25.4 -9.525 0.0
vertex 22.225 -5.159375 0.0
vertex 25.4 6.35 0.0
endloop
endfacet
facet normal 0.0 0.0 -1.0
outer loop
vertex -25.4 -9.525 0.0
vertex -21.43125 -6.5341903285078 0.0
vertex -15.875 -9.525 0.0
endloop
endfacet
facet normal 0.0 0.0 -1.0
outer loop
vertex -21.43125 -6.5341903285078 0.0
vertex -25.4 -9.525 0.0
vertex -21.7600320151336 -6.28190701513364 0.0
endloop
endfacet
facet normal 0.0 0.0 -1.0
outer loop
vertex -21.7600320151336 -6.28190701513364 0.0
vertex -25.4 -9.525 0.0
vertex -22.0123153285078 -5.953125 0.0
endloop
endfacet
facet normal 0.0 0.0 -1.0
outer loop
vertex -22.0123153285078 -5.953125 0.0
vertex -25.4 -9.525 0.0
vertex -22.1709072492339 -5.57025023410025 0.0
endloop
endfacet
facet normal 0.0 0.0 -1.0
outer loop
vertex -22.1709072492339 -5.57025023410025 0.0
vertex -25.4 -9.525 0.0
vertex -22.225 -5.159375 0.0
endloop
endfacet
facet normal 0.0 0.0 -1.0
outer loop
vertex -15.875 -9.525 0.0
vertex -21.43125 -6.5341903285078 0.0
vertex -21.0483752341002 -6.69278224923389 0.0
endloop
endfacet
facet normal 0.0 0.0 -1.0
outer loop
vertex -15.875 -9.525 0.0
vertex -21.0483752341002 -6.69278224923389 0.0
vertex -20.6375 -6.746875 0.0
endloop
endfacet
facet normal 0.0 0.0 -1.0
outer loop
vertex -15.875 -9.525 0.0
vertex -20.6375 -6.746875 0.0
vertex -20.2266247658997 -6.69278224923389 0.0
endloop
endfacet
facet normal 0.0 0.0 -1.0
outer loop
vertex -15.875 -9.525 0.0
vertex -20.2266247658997 -6.69278224923389 0.0
vertex -19.84375 -6.5341903285078 0.0
endloop
endfacet
facet normal 0.0 0.0 -1.0
outer loop
vertex -15.875 -9.525 0.0
vertex -19.84375 -6.5341903285078 0.0
vertex -19.5149679848663 -6.28190701513364 0.0
endloop
endfacet
facet normal 0.0 0.0 -1.0
outer loop
vertex -15.875 -9.525 0.0
vertex -19.5149679848663 -6.28190701513364 0.0
vertex -19.2626846714922 -5.953125 0.0
endloop
endfacet
facet normal 0.0 0.0 -1.0
outer loop
vertex -15.875 -9.525 0.0
vertex -19.2626846714922 -5.953125 0.0
vertex -19.1040927507661 -5.57025023410025 0.0
endloop
endfacet
facet normal 0.0 0.0 -1.0
outer loop
vertex -15.875 -9.525 0.0
vertex -19.1040927507661 -5.57025023410025 0.0
vertex -19.05 -5.159375 0.0
endloop
endfacet
facet normal 0.0 0.0 -1.0
outer loop
vertex -15.875 -9.525 0.0
vertex -19.05 -5.159375 0.0
vertex -15.875 0.0 0.0
endloop
endfacet
facet normal 1.0 0.0 0.0
outer loop
vertex 25.4 6.35 0.0
vertex 25.4 -9.525 1.5875
vertex 25.4 -9.525 0.0
endloop
endfacet
facet normal 1.0 0.0 0.0
outer loop
vertex 25.4 -9.525 1.5875
vertex 25.4 6.35 0.0
vertex 25.4 0.0 1.5875
endloop
endfacet
facet normal 1.0 0.0 0.0
outer loop
vertex 25.4 0.0 1.5875
vertex 25.4 6.35 0.0
vertex 25.4 0.0 28.575
endloop
endfacet
facet normal 1.0 0.0 0.0
outer loop
vertex 25.4 0.0 28.575
vertex 25.4 6.35 0.0
vertex 25.4 6.35 28.575
endloop
endfacet
facet normal 0.0 -1.0 0.0
outer loop
vertex 25.4 -9.525 1.5875
vertex 15.875 -9.525 0.0
vertex 25.4 -9.525 0.0
endloop
endfacet
facet normal 0.0 -1.0 0.0
outer loop
vertex 15.875 -9.525 0.0
vertex 25.4 -9.525 1.5875
vertex 15.875 -9.525 1.5875
endloop
endfacet
facet normal 0.0 0.0 1.0
outer loop
vertex 25.4 0.0 28.575
vertex -25.4 6.35 28.575
vertex -25.4 0.0 28.575
endloop
endfacet
facet normal 0.0 0.0 1.0
outer loop
vertex -25.4 6.35 28.575
vertex 25.4 0.0 28.575
vertex 25.4 6.35 28.575
endloop
endfacet
facet normal 0.0 -1.0 0.0
outer loop
vertex 25.4 0.0 28.575
vertex 15.875 0.0 1.5875
vertex 25.4 0.0 1.5875
endloop
endfacet
facet normal 0.0 -1.0 0.0
outer loop
vertex 15.875 0.0 1.5875
vertex 25.4 0.0 28.575
vertex -15.875 0.0 1.5875
endloop
endfacet
facet normal 0.0 -1.0 0.0
outer loop
vertex -15.875 0.0 1.5875
vertex 25.4 0.0 28.575
vertex -25.4 0.0 1.5875
endloop
endfacet
facet normal 0.0 -1.0 0.0
outer loop
vertex -25.4 0.0 1.5875
vertex 25.4 0.0 28.575
vertex -25.4 0.0 28.575
endloop
endfacet
facet normal 0.0 -1.0 0.0
outer loop
vertex 15.875 0.0 1.5875
vertex -15.875 0.0 0.0
vertex 15.875 0.0 0.0
endloop
endfacet
facet normal 0.0 -1.0 0.0
outer loop
vertex -15.875 0.0 0.0
vertex 15.875 0.0 1.5875
vertex -15.875 0.0 1.5875
endloop
endfacet
facet normal 0.0 0.0 1.0
outer loop
vertex 15.875 -9.525 1.5875
vertex 19.2626846714922 -5.953125 1.5875
vertex 15.875 0.0 1.5875
endloop
endfacet
facet normal 0.0 0.0 1.0
outer loop
vertex 19.2626846714922 -5.953125 1.5875
vertex 15.875 -9.525 1.5875
vertex 19.5149679848664 -6.28190701513364 1.5875
endloop
endfacet
facet normal 0.0 0.0 1.0
outer loop
vertex 19.5149679848664 -6.28190701513364 1.5875
vertex 15.875 -9.525 1.5875
vertex 19.84375 -6.5341903285078 1.5875
endloop
endfacet
facet normal 0.0 0.0 1.0
outer loop
vertex 19.84375 -6.5341903285078 1.5875
vertex 15.875 -9.525 1.5875
vertex 25.4 -9.525 1.5875
endloop
endfacet
facet normal 0.0 0.0 1.0
outer loop
vertex 15.875 0.0 1.5875
vertex 19.2626846714922 -5.953125 1.5875
vertex 19.1040927507661 -5.57025023410025 1.5875
endloop
endfacet
facet normal 0.0 0.0 1.0
outer loop
vertex 15.875 0.0 1.5875
vertex 19.1040927507661 -5.57025023410025 1.5875
vertex 19.05 -5.159375 1.5875
endloop
endfacet
facet normal 0.0 0.0 1.0
outer loop
vertex 19.84375 -6.5341903285078 1.5875
vertex 25.4 -9.525 1.5875
vertex 20.2266247658998 -6.69278224923389 1.5875
endloop
endfacet
facet normal 0.0 0.0 1.0
outer loop
vertex 20.2266247658998 -6.69278224923389 1.5875
vertex 25.4 -9.525 1.5875
vertex 20.6375 -6.746875 1.5875
endloop
endfacet
facet normal 0.0 0.0 1.0
outer loop
vertex 20.6375 -6.746875 1.5875
vertex 25.4 -9.525 1.5875
vertex 21.0483752341003 -6.69278224923389 1.5875
endloop
endfacet
facet normal 0.0 0.0 1.0
outer loop
vertex 21.0483752341003 -6.69278224923389 1.5875
vertex 25.4 -9.525 1.5875
vertex 21.43125 -6.5341903285078 1.5875
endloop
endfacet
facet normal 0.0 0.0 1.0
outer loop
vertex 21.43125 -6.5341903285078 1.5875
vertex 25.4 -9.525 1.5875
vertex 21.7600320151336 -6.28190701513364 1.5875
endloop
endfacet
facet normal 0.0 0.0 1.0
outer loop
vertex 21.7600320151336 -6.28190701513364 1.5875
vertex 25.4 -9.525 1.5875
vertex 22.0123153285078 -5.953125 1.5875
endloop
endfacet
facet normal 0.0 0.0 1.0
outer loop
vertex 22.0123153285078 -5.953125 1.5875
vertex 25.4 -9.525 1.5875
vertex 22.1709072492339 -5.57025023410025 1.5875
endloop
endfacet
facet normal 0.0 0.0 1.0
outer loop
vertex 22.1709072492339 -5.57025023410025 1.5875
vertex 25.4 -9.525 1.5875
vertex 22.225 -5.159375 1.5875
endloop
endfacet
facet normal 0.0 0.0 1.0
outer loop
vertex 15.875 0.0 1.5875
vertex 19.84375 -3.7845596714922 1.5875
vertex 25.4 0.0 1.5875
endloop
endfacet
facet normal 0.0 0.0 1.0
outer loop
vertex 19.84375 -3.7845596714922 1.5875
vertex 15.875 0.0 1.5875
vertex 19.5149679848664 -4.03684298486636 1.5875
endloop
endfacet
facet normal 0.0 0.0 1.0
outer loop
vertex 19.5149679848664 -4.03684298486636 1.5875
vertex 15.875 0.0 1.5875
vertex 19.2626846714922 -4.365625 1.5875
endloop
endfacet
facet normal 0.0 0.0 1.0
outer loop
vertex 19.2626846714922 -4.365625 1.5875
vertex 15.875 0.0 1.5875
vertex 19.1040927507661 -4.74849976589975 1.5875
endloop
endfacet
facet normal 0.0 0.0 1.0
outer loop
vertex 19.1040927507661 -4.74849976589975 1.5875
vertex 15.875 0.0 1.5875
vertex 19.05 -5.159375 1.5875
endloop
endfacet
facet normal 0.0 0.0 1.0
outer loop
vertex 25.4 0.0 1.5875
vertex 19.84375 -3.7845596714922 1.5875
vertex 20.2266247658998 -3.62596775076611 1.5875
endloop
endfacet
facet normal 0.0 0.0 1.0
outer loop
vertex 25.4 0.0 1.5875
vertex 20.2266247658998 -3.62596775076611 1.5875
vertex 20.6375 -3.571875 1.5875
endloop
endfacet
facet normal 0.0 0.0 1.0
outer loop
vertex 25.4 0.0 1.5875
vertex 20.6375 -3.571875 1.5875
vertex 21.0483752341003 -3.62596775076611 1.5875
endloop
endfacet
facet normal 0.0 0.0 1.0
outer loop
vertex 25.4 0.0 1.5875
vertex 21.0483752341003 -3.62596775076611 1.5875
vertex 21.43125 -3.7845596714922 1.5875
endloop
endfacet
facet normal 0.0 0.0 1.0
outer loop
vertex 25.4 0.0 1.5875
vertex 21.43125 -3.7845596714922 1.5875
vertex 21.7600320151336 -4.03684298486636 1.5875
endloop
endfacet
facet normal 0.0 0.0 1.0
outer loop
vertex 25.4 0.0 1.5875
vertex 21.7600320151336 -4.03684298486636 1.5875
vertex 22.0123153285078 -4.365625 1.5875
endloop
endfacet
facet normal 0.0 0.0 1.0
outer loop
vertex 25.4 0.0 1.5875
vertex 22.0123153285078 -4.365625 1.5875
vertex 22.1709072492339 -4.74849976589975 1.5875
endloop
endfacet
facet normal 0.0 0.0 1.0
outer loop
vertex 25.4 0.0 1.5875
vertex 22.1709072492339 -4.74849976589975 1.5875
vertex 22.225 -5.159375 1.5875
endloop
endfacet
facet normal 0.0 0.0 1.0
outer loop
vertex 25.4 0.0 1.5875
vertex 22.225 -5.159375 1.5875
vertex 25.4 -9.525 1.5875
endloop
endfacet
facet normal 0.0 -1.0 0.0
outer loop
vertex -15.875 -9.525 1.5875
vertex -25.4 -9.525 0.0
vertex -15.875 -9.525 0.0
endloop
endfacet
facet normal 0.0 -1.0 0.0
outer loop
vertex -25.4 -9.525 0.0
vertex -15.875 -9.525 1.5875
vertex -25.4 -9.525 1.5875
endloop
endfacet
facet normal 1.0 0.0 0.0
outer loop
vertex -15.875 0.0 0.0
vertex -15.875 -9.525 1.5875
vertex -15.875 -9.525 0.0
endloop
endfacet
facet normal 1.0 0.0 0.0
outer loop
vertex -15.875 -9.525 1.5875
vertex -15.875 0.0 0.0
vertex -15.875 0.0 1.5875
endloop
endfacet
facet normal -1.0 0.0 0.0
outer loop
vertex 15.875 0.0 1.5875
vertex 15.875 -9.525 0.0
vertex 15.875 -9.525 1.5875
endloop
endfacet
facet normal -1.0 0.0 0.0
outer loop
vertex 15.875 -9.525 0.0
vertex 15.875 0.0 1.5875
vertex 15.875 0.0 0.0
endloop
endfacet
endsolid pcb_stand_1
